<?xml version="1.0" encoding="utf-8" standalone="no"?>
<!DOCTYPE svg PUBLIC "-//W3C//DTD SVG 1.1//EN"
  "http://www.w3.org/Graphics/SVG/1.1/DTD/svg11.dtd">
<svg height="207.83625pt" version="1.1" viewBox="0 0 451.128125 207.83625" width="451.128125pt" xmlns="http://www.w3.org/2000/svg" xmlns:xlink="http://www.w3.org/1999/xlink">
 <metadata>
  <rdf:RDF xmlns:cc="http://creativecommons.org/ns#" xmlns:dc="http://purl.org/dc/elements/1.1/" xmlns:rdf="http://www.w3.org/1999/02/22-rdf-syntax-ns#">
   <cc:Work>
    <dc:type rdf:resource="http://purl.org/dc/dcmitype/StillImage"/>
    <dc:date>2021-03-29T19:47:41.221005</dc:date>
    <dc:format>image/svg+xml</dc:format>
    <dc:creator>
     <cc:Agent>
      <dc:title>Matplotlib v3.4.0, https://matplotlib.org/</dc:title>
     </cc:Agent>
    </dc:creator>
   </cc:Work>
  </rdf:RDF>
 </metadata>
 <defs>
  <style type="text/css">*{stroke-linecap:butt;stroke-linejoin:round;}</style>
 </defs>
 <g id="figure_1">
  <g id="patch_1">
   <path d="M 0 207.83625 
L 451.128125 207.83625 
L 451.128125 0 
L 0 0 
z
" style="fill:none;"/>
  </g>
  <g id="axes_1">
   <g id="patch_2">
    <path d="M 46.965625 170.28 
L 437.565625 170.28 
L 437.565625 7.2 
L 46.965625 7.2 
z
" style="fill:#ffffff;"/>
   </g>
   <g id="patch_3">
    <path clip-path="url(#p1af516dd21)" d="M 46.965625 170.28 
L 55.838125 170.28 
L 55.838125 24.513724 
L 46.965625 24.513724 
z
" style="fill:#ff7f0e;fill-opacity:0.5;stroke:#4c4c4c;stroke-linejoin:miter;stroke-width:0.5;"/>
   </g>
   <g id="patch_4">
    <path clip-path="url(#p1af516dd21)" d="M 55.838125 170.28 
L 64.710625 170.28 
L 64.710625 24.513724 
L 55.838125 24.513724 
z
" style="fill:#ff7f0e;fill-opacity:0.5;stroke:#4c4c4c;stroke-linejoin:miter;stroke-width:0.5;"/>
   </g>
   <g id="patch_5">
    <path clip-path="url(#p1af516dd21)" d="M 64.710625 170.28 
L 73.583125 170.28 
L 73.583125 39.790539 
L 64.710625 39.790539 
z
" style="fill:#ff7f0e;fill-opacity:0.5;stroke:#4c4c4c;stroke-linejoin:miter;stroke-width:0.5;"/>
   </g>
   <g id="patch_6">
    <path clip-path="url(#p1af516dd21)" d="M 73.583125 170.28 
L 82.455625 170.28 
L 82.455625 27.059859 
L 73.583125 27.059859 
z
" style="fill:#ff7f0e;fill-opacity:0.5;stroke:#4c4c4c;stroke-linejoin:miter;stroke-width:0.5;"/>
   </g>
   <g id="patch_7">
    <path clip-path="url(#p1af516dd21)" d="M 82.455625 170.28 
L 91.328125 170.28 
L 91.328125 46.155878 
L 82.455625 46.155878 
z
" style="fill:#ff7f0e;fill-opacity:0.5;stroke:#4c4c4c;stroke-linejoin:miter;stroke-width:0.5;"/>
   </g>
   <g id="patch_8">
    <path clip-path="url(#p1af516dd21)" d="M 91.328125 170.28 
L 100.200625 170.28 
L 100.200625 108.536206 
L 91.328125 108.536206 
z
" style="fill:#ff7f0e;fill-opacity:0.5;stroke:#4c4c4c;stroke-linejoin:miter;stroke-width:0.5;"/>
   </g>
   <g id="patch_9">
    <path clip-path="url(#p1af516dd21)" d="M 100.200625 170.28 
L 109.073125 170.28 
L 109.073125 60.159625 
L 100.200625 60.159625 
z
" style="fill:#ff7f0e;fill-opacity:0.5;stroke:#4c4c4c;stroke-linejoin:miter;stroke-width:0.5;"/>
   </g>
   <g id="patch_10">
    <path clip-path="url(#p1af516dd21)" d="M 109.073125 170.28 
L 117.945625 170.28 
L 117.945625 65.888431 
L 109.073125 65.888431 
z
" style="fill:#ff7f0e;fill-opacity:0.5;stroke:#4c4c4c;stroke-linejoin:miter;stroke-width:0.5;"/>
   </g>
   <g id="patch_11">
    <path clip-path="url(#p1af516dd21)" d="M 117.945625 170.28 
L 126.818125 170.28 
L 126.818125 83.711382 
L 117.945625 83.711382 
z
" style="fill:#ff7f0e;fill-opacity:0.5;stroke:#4c4c4c;stroke-linejoin:miter;stroke-width:0.5;"/>
   </g>
   <g id="patch_12">
    <path clip-path="url(#p1af516dd21)" d="M 126.818125 170.28 
L 135.690625 170.28 
L 135.690625 76.072974 
L 126.818125 76.072974 
z
" style="fill:#ff7f0e;fill-opacity:0.5;stroke:#4c4c4c;stroke-linejoin:miter;stroke-width:0.5;"/>
   </g>
   <g id="patch_13">
    <path clip-path="url(#p1af516dd21)" d="M 135.690625 170.28 
L 144.563125 170.28 
L 144.563125 135.270632 
L 135.690625 135.270632 
z
" style="fill:#ff7f0e;fill-opacity:0.5;stroke:#4c4c4c;stroke-linejoin:miter;stroke-width:0.5;"/>
   </g>
   <g id="patch_14">
    <path clip-path="url(#p1af516dd21)" d="M 144.563125 170.28 
L 153.435625 170.28 
L 153.435625 99.624731 
L 144.563125 99.624731 
z
" style="fill:#ff7f0e;fill-opacity:0.5;stroke:#4c4c4c;stroke-linejoin:miter;stroke-width:0.5;"/>
   </g>
   <g id="patch_15">
    <path clip-path="url(#p1af516dd21)" d="M 153.435625 170.28 
L 162.308125 170.28 
L 162.308125 114.265012 
L 153.435625 114.265012 
z
" style="fill:#ff7f0e;fill-opacity:0.5;stroke:#4c4c4c;stroke-linejoin:miter;stroke-width:0.5;"/>
   </g>
   <g id="patch_16">
    <path clip-path="url(#p1af516dd21)" d="M 162.308125 170.28 
L 171.180625 170.28 
L 171.180625 119.993817 
L 162.308125 119.993817 
z
" style="fill:#ff7f0e;fill-opacity:0.5;stroke:#4c4c4c;stroke-linejoin:miter;stroke-width:0.5;"/>
   </g>
   <g id="patch_17">
    <path clip-path="url(#p1af516dd21)" d="M 171.180625 170.28 
L 180.053125 170.28 
L 180.053125 127.632225 
L 171.180625 127.632225 
z
" style="fill:#ff7f0e;fill-opacity:0.5;stroke:#4c4c4c;stroke-linejoin:miter;stroke-width:0.5;"/>
   </g>
   <g id="patch_18">
    <path clip-path="url(#p1af516dd21)" d="M 180.053125 170.28 
L 188.925625 170.28 
L 188.925625 128.905293 
L 180.053125 128.905293 
z
" style="fill:#ff7f0e;fill-opacity:0.5;stroke:#4c4c4c;stroke-linejoin:miter;stroke-width:0.5;"/>
   </g>
   <g id="patch_19">
    <path clip-path="url(#p1af516dd21)" d="M 188.925625 170.28 
L 197.798125 170.28 
L 197.798125 153.730117 
L 188.925625 153.730117 
z
" style="fill:#ff7f0e;fill-opacity:0.5;stroke:#4c4c4c;stroke-linejoin:miter;stroke-width:0.5;"/>
   </g>
   <g id="patch_20">
    <path clip-path="url(#p1af516dd21)" d="M 197.798125 170.28 
L 206.670625 170.28 
L 206.670625 135.907166 
L 197.798125 135.907166 
z
" style="fill:#ff7f0e;fill-opacity:0.5;stroke:#4c4c4c;stroke-linejoin:miter;stroke-width:0.5;"/>
   </g>
   <g id="patch_21">
    <path clip-path="url(#p1af516dd21)" d="M 206.670625 170.28 
L 215.543125 170.28 
L 215.543125 146.728244 
L 206.670625 146.728244 
z
" style="fill:#ff7f0e;fill-opacity:0.5;stroke:#4c4c4c;stroke-linejoin:miter;stroke-width:0.5;"/>
   </g>
   <g id="patch_22">
    <path clip-path="url(#p1af516dd21)" d="M 215.543125 170.28 
L 224.415625 170.28 
L 224.415625 151.820515 
L 215.543125 151.820515 
z
" style="fill:#ff7f0e;fill-opacity:0.5;stroke:#4c4c4c;stroke-linejoin:miter;stroke-width:0.5;"/>
   </g>
   <g id="patch_23">
    <path clip-path="url(#p1af516dd21)" d="M 224.415625 170.28 
L 233.288125 170.28 
L 233.288125 158.822389 
L 224.415625 158.822389 
z
" style="fill:#ff7f0e;fill-opacity:0.5;stroke:#4c4c4c;stroke-linejoin:miter;stroke-width:0.5;"/>
   </g>
   <g id="patch_24">
    <path clip-path="url(#p1af516dd21)" d="M 233.288125 170.28 
L 242.160625 170.28 
L 242.160625 165.824262 
L 233.288125 165.824262 
z
" style="fill:#ff7f0e;fill-opacity:0.5;stroke:#4c4c4c;stroke-linejoin:miter;stroke-width:0.5;"/>
   </g>
   <g id="patch_25">
    <path clip-path="url(#p1af516dd21)" d="M 242.160625 170.28 
L 251.033125 170.28 
L 251.033125 156.276253 
L 242.160625 156.276253 
z
" style="fill:#ff7f0e;fill-opacity:0.5;stroke:#4c4c4c;stroke-linejoin:miter;stroke-width:0.5;"/>
   </g>
   <g id="patch_26">
    <path clip-path="url(#p1af516dd21)" d="M 251.033125 170.28 
L 259.905625 170.28 
L 259.905625 158.185855 
L 251.033125 158.185855 
z
" style="fill:#ff7f0e;fill-opacity:0.5;stroke:#4c4c4c;stroke-linejoin:miter;stroke-width:0.5;"/>
   </g>
   <g id="patch_27">
    <path clip-path="url(#p1af516dd21)" d="M 259.905625 170.28 
L 268.778125 170.28 
L 268.778125 160.095457 
L 259.905625 160.095457 
z
" style="fill:#ff7f0e;fill-opacity:0.5;stroke:#4c4c4c;stroke-linejoin:miter;stroke-width:0.5;"/>
   </g>
   <g id="patch_28">
    <path clip-path="url(#p1af516dd21)" d="M 268.778125 170.28 
L 277.650625 170.28 
L 277.650625 158.822389 
L 268.778125 158.822389 
z
" style="fill:#ff7f0e;fill-opacity:0.5;stroke:#4c4c4c;stroke-linejoin:miter;stroke-width:0.5;"/>
   </g>
   <g id="patch_29">
    <path clip-path="url(#p1af516dd21)" d="M 277.650625 170.28 
L 286.523125 170.28 
L 286.523125 162.641593 
L 277.650625 162.641593 
z
" style="fill:#ff7f0e;fill-opacity:0.5;stroke:#4c4c4c;stroke-linejoin:miter;stroke-width:0.5;"/>
   </g>
   <g id="patch_30">
    <path clip-path="url(#p1af516dd21)" d="M 286.523125 170.28 
L 295.395625 170.28 
L 295.395625 166.460796 
L 286.523125 166.460796 
z
" style="fill:#ff7f0e;fill-opacity:0.5;stroke:#4c4c4c;stroke-linejoin:miter;stroke-width:0.5;"/>
   </g>
   <g id="patch_31">
    <path clip-path="url(#p1af516dd21)" d="M 295.395625 170.28 
L 304.268125 170.28 
L 304.268125 163.91466 
L 295.395625 163.91466 
z
" style="fill:#ff7f0e;fill-opacity:0.5;stroke:#4c4c4c;stroke-linejoin:miter;stroke-width:0.5;"/>
   </g>
   <g id="patch_32">
    <path clip-path="url(#p1af516dd21)" d="M 304.268125 170.28 
L 313.140625 170.28 
L 313.140625 163.91466 
L 304.268125 163.91466 
z
" style="fill:#ff7f0e;fill-opacity:0.5;stroke:#4c4c4c;stroke-linejoin:miter;stroke-width:0.5;"/>
   </g>
   <g id="patch_33">
    <path clip-path="url(#p1af516dd21)" d="M 313.140625 170.28 
L 322.013125 170.28 
L 322.013125 165.187728 
L 313.140625 165.187728 
z
" style="fill:#ff7f0e;fill-opacity:0.5;stroke:#4c4c4c;stroke-linejoin:miter;stroke-width:0.5;"/>
   </g>
   <g id="patch_34">
    <path clip-path="url(#p1af516dd21)" d="M 322.013125 170.28 
L 330.885625 170.28 
L 330.885625 167.09733 
L 322.013125 167.09733 
z
" style="fill:#ff7f0e;fill-opacity:0.5;stroke:#4c4c4c;stroke-linejoin:miter;stroke-width:0.5;"/>
   </g>
   <g id="patch_35">
    <path clip-path="url(#p1af516dd21)" d="M 330.885625 170.28 
L 339.758125 170.28 
L 339.758125 169.006932 
L 330.885625 169.006932 
z
" style="fill:#ff7f0e;fill-opacity:0.5;stroke:#4c4c4c;stroke-linejoin:miter;stroke-width:0.5;"/>
   </g>
   <g id="patch_36">
    <path clip-path="url(#p1af516dd21)" d="M 339.758125 170.28 
L 348.630625 170.28 
L 348.630625 168.370398 
L 339.758125 168.370398 
z
" style="fill:#ff7f0e;fill-opacity:0.5;stroke:#4c4c4c;stroke-linejoin:miter;stroke-width:0.5;"/>
   </g>
   <g id="patch_37">
    <path clip-path="url(#p1af516dd21)" d="M 348.630625 170.28 
L 357.503125 170.28 
L 357.503125 165.187728 
L 348.630625 165.187728 
z
" style="fill:#ff7f0e;fill-opacity:0.5;stroke:#4c4c4c;stroke-linejoin:miter;stroke-width:0.5;"/>
   </g>
   <g id="patch_38">
    <path clip-path="url(#p1af516dd21)" d="M 357.503125 170.28 
L 366.375625 170.28 
L 366.375625 169.006932 
L 357.503125 169.006932 
z
" style="fill:#ff7f0e;fill-opacity:0.5;stroke:#4c4c4c;stroke-linejoin:miter;stroke-width:0.5;"/>
   </g>
   <g id="patch_39">
    <path clip-path="url(#p1af516dd21)" d="M 366.375625 170.28 
L 375.248125 170.28 
L 375.248125 167.733864 
L 366.375625 167.733864 
z
" style="fill:#ff7f0e;fill-opacity:0.5;stroke:#4c4c4c;stroke-linejoin:miter;stroke-width:0.5;"/>
   </g>
   <g id="patch_40">
    <path clip-path="url(#p1af516dd21)" d="M 375.248125 170.28 
L 384.120625 170.28 
L 384.120625 169.006932 
L 375.248125 169.006932 
z
" style="fill:#ff7f0e;fill-opacity:0.5;stroke:#4c4c4c;stroke-linejoin:miter;stroke-width:0.5;"/>
   </g>
   <g id="patch_41">
    <path clip-path="url(#p1af516dd21)" d="M 384.120625 170.28 
L 392.993125 170.28 
L 392.993125 169.006932 
L 384.120625 169.006932 
z
" style="fill:#ff7f0e;fill-opacity:0.5;stroke:#4c4c4c;stroke-linejoin:miter;stroke-width:0.5;"/>
   </g>
   <g id="patch_42">
    <path clip-path="url(#p1af516dd21)" d="M 392.993125 170.28 
L 401.865625 170.28 
L 401.865625 168.370398 
L 392.993125 168.370398 
z
" style="fill:#ff7f0e;fill-opacity:0.5;stroke:#4c4c4c;stroke-linejoin:miter;stroke-width:0.5;"/>
   </g>
   <g id="patch_43">
    <path clip-path="url(#p1af516dd21)" d="M 401.865625 170.28 
L 410.738125 170.28 
L 410.738125 168.370398 
L 401.865625 168.370398 
z
" style="fill:#ff7f0e;fill-opacity:0.5;stroke:#4c4c4c;stroke-linejoin:miter;stroke-width:0.5;"/>
   </g>
   <g id="patch_44">
    <path clip-path="url(#p1af516dd21)" d="M 410.738125 170.28 
L 419.610625 170.28 
L 419.610625 168.370398 
L 410.738125 168.370398 
z
" style="fill:#ff7f0e;fill-opacity:0.5;stroke:#4c4c4c;stroke-linejoin:miter;stroke-width:0.5;"/>
   </g>
   <g id="patch_45">
    <path clip-path="url(#p1af516dd21)" d="M 419.610625 170.28 
L 428.483125 170.28 
L 428.483125 169.643466 
L 419.610625 169.643466 
z
" style="fill:#ff7f0e;fill-opacity:0.5;stroke:#4c4c4c;stroke-linejoin:miter;stroke-width:0.5;"/>
   </g>
   <g id="patch_46">
    <path clip-path="url(#p1af516dd21)" d="M 428.483125 170.28 
L 437.355625 170.28 
L 437.355625 169.643466 
L 428.483125 169.643466 
z
" style="fill:#ff7f0e;fill-opacity:0.5;stroke:#4c4c4c;stroke-linejoin:miter;stroke-width:0.5;"/>
   </g>
   <g id="patch_47">
    <path clip-path="url(#p1af516dd21)" d="M 437.355625 170.28 
L 446.228125 170.28 
L 446.228125 169.643466 
L 437.355625 169.643466 
z
" style="fill:#ff7f0e;fill-opacity:0.5;stroke:#4c4c4c;stroke-linejoin:miter;stroke-width:0.5;"/>
   </g>
   <g id="patch_48">
    <path clip-path="url(#p1af516dd21)" d="M 446.228125 170.28 
L 455.100625 170.28 
L 455.100625 168.370398 
L 446.228125 168.370398 
z
" style="fill:#ff7f0e;fill-opacity:0.5;stroke:#4c4c4c;stroke-linejoin:miter;stroke-width:0.5;"/>
   </g>
   <g id="patch_49">
    <path clip-path="url(#p1af516dd21)" d="M 455.100625 170.28 
L 463.973125 170.28 
L 463.973125 169.643466 
L 455.100625 169.643466 
z
" style="fill:#ff7f0e;fill-opacity:0.5;stroke:#4c4c4c;stroke-linejoin:miter;stroke-width:0.5;"/>
   </g>
   <g id="patch_50">
    <path clip-path="url(#p1af516dd21)" d="M 463.973125 170.28 
L 472.845625 170.28 
L 472.845625 169.643466 
L 463.973125 169.643466 
z
" style="fill:#ff7f0e;fill-opacity:0.5;stroke:#4c4c4c;stroke-linejoin:miter;stroke-width:0.5;"/>
   </g>
   <g id="patch_51">
    <path clip-path="url(#p1af516dd21)" d="M 472.845625 170.28 
L 481.718125 170.28 
L 481.718125 169.643466 
L 472.845625 169.643466 
z
" style="fill:#ff7f0e;fill-opacity:0.5;stroke:#4c4c4c;stroke-linejoin:miter;stroke-width:0.5;"/>
   </g>
   <g id="patch_52">
    <path clip-path="url(#p1af516dd21)" d="M 481.718125 170.28 
L 490.590625 170.28 
L 490.590625 170.28 
L 481.718125 170.28 
z
" style="fill:#ff7f0e;fill-opacity:0.5;stroke:#4c4c4c;stroke-linejoin:miter;stroke-width:0.5;"/>
   </g>
   <g id="patch_53">
    <path clip-path="url(#p1af516dd21)" d="M 490.590625 170.28 
L 499.463125 170.28 
L 499.463125 169.643466 
L 490.590625 169.643466 
z
" style="fill:#ff7f0e;fill-opacity:0.5;stroke:#4c4c4c;stroke-linejoin:miter;stroke-width:0.5;"/>
   </g>
   <g id="patch_54">
    <path clip-path="url(#p1af516dd21)" d="M 499.463125 170.28 
L 508.335625 170.28 
L 508.335625 169.643466 
L 499.463125 169.643466 
z
" style="fill:#ff7f0e;fill-opacity:0.5;stroke:#4c4c4c;stroke-linejoin:miter;stroke-width:0.5;"/>
   </g>
   <g id="patch_55">
    <path clip-path="url(#p1af516dd21)" d="M 508.335625 170.28 
L 517.208125 170.28 
L 517.208125 170.28 
L 508.335625 170.28 
z
" style="fill:#ff7f0e;fill-opacity:0.5;stroke:#4c4c4c;stroke-linejoin:miter;stroke-width:0.5;"/>
   </g>
   <g id="patch_56">
    <path clip-path="url(#p1af516dd21)" d="M 517.208125 170.28 
L 526.080625 170.28 
L 526.080625 170.28 
L 517.208125 170.28 
z
" style="fill:#ff7f0e;fill-opacity:0.5;stroke:#4c4c4c;stroke-linejoin:miter;stroke-width:0.5;"/>
   </g>
   <g id="patch_57">
    <path clip-path="url(#p1af516dd21)" d="M 526.080625 170.28 
L 534.953125 170.28 
L 534.953125 170.28 
L 526.080625 170.28 
z
" style="fill:#ff7f0e;fill-opacity:0.5;stroke:#4c4c4c;stroke-linejoin:miter;stroke-width:0.5;"/>
   </g>
   <g id="patch_58">
    <path clip-path="url(#p1af516dd21)" d="M 534.953125 170.28 
L 543.825625 170.28 
L 543.825625 169.006932 
L 534.953125 169.006932 
z
" style="fill:#ff7f0e;fill-opacity:0.5;stroke:#4c4c4c;stroke-linejoin:miter;stroke-width:0.5;"/>
   </g>
   <g id="patch_59">
    <path clip-path="url(#p1af516dd21)" d="M 543.825625 170.28 
L 552.698125 170.28 
L 552.698125 170.28 
L 543.825625 170.28 
z
" style="fill:#ff7f0e;fill-opacity:0.5;stroke:#4c4c4c;stroke-linejoin:miter;stroke-width:0.5;"/>
   </g>
   <g id="patch_60">
    <path clip-path="url(#p1af516dd21)" d="M 552.698125 170.28 
L 561.570625 170.28 
L 561.570625 170.28 
L 552.698125 170.28 
z
" style="fill:#ff7f0e;fill-opacity:0.5;stroke:#4c4c4c;stroke-linejoin:miter;stroke-width:0.5;"/>
   </g>
   <g id="patch_61">
    <path clip-path="url(#p1af516dd21)" d="M 561.570625 170.28 
L 570.443125 170.28 
L 570.443125 170.28 
L 561.570625 170.28 
z
" style="fill:#ff7f0e;fill-opacity:0.5;stroke:#4c4c4c;stroke-linejoin:miter;stroke-width:0.5;"/>
   </g>
   <g id="patch_62">
    <path clip-path="url(#p1af516dd21)" d="M 570.443125 170.28 
L 579.315625 170.28 
L 579.315625 169.006932 
L 570.443125 169.006932 
z
" style="fill:#ff7f0e;fill-opacity:0.5;stroke:#4c4c4c;stroke-linejoin:miter;stroke-width:0.5;"/>
   </g>
   <g id="patch_63">
    <path clip-path="url(#p1af516dd21)" d="M 579.315625 170.28 
L 588.188125 170.28 
L 588.188125 170.28 
L 579.315625 170.28 
z
" style="fill:#ff7f0e;fill-opacity:0.5;stroke:#4c4c4c;stroke-linejoin:miter;stroke-width:0.5;"/>
   </g>
   <g id="patch_64">
    <path clip-path="url(#p1af516dd21)" d="M 588.188125 170.28 
L 597.060625 170.28 
L 597.060625 170.28 
L 588.188125 170.28 
z
" style="fill:#ff7f0e;fill-opacity:0.5;stroke:#4c4c4c;stroke-linejoin:miter;stroke-width:0.5;"/>
   </g>
   <g id="patch_65">
    <path clip-path="url(#p1af516dd21)" d="M 597.060625 170.28 
L 605.933125 170.28 
L 605.933125 170.28 
L 597.060625 170.28 
z
" style="fill:#ff7f0e;fill-opacity:0.5;stroke:#4c4c4c;stroke-linejoin:miter;stroke-width:0.5;"/>
   </g>
   <g id="patch_66">
    <path clip-path="url(#p1af516dd21)" d="M 605.933125 170.28 
L 614.805625 170.28 
L 614.805625 170.28 
L 605.933125 170.28 
z
" style="fill:#ff7f0e;fill-opacity:0.5;stroke:#4c4c4c;stroke-linejoin:miter;stroke-width:0.5;"/>
   </g>
   <g id="patch_67">
    <path clip-path="url(#p1af516dd21)" d="M 614.805625 170.28 
L 623.678125 170.28 
L 623.678125 170.28 
L 614.805625 170.28 
z
" style="fill:#ff7f0e;fill-opacity:0.5;stroke:#4c4c4c;stroke-linejoin:miter;stroke-width:0.5;"/>
   </g>
   <g id="patch_68">
    <path clip-path="url(#p1af516dd21)" d="M 623.678125 170.28 
L 632.550625 170.28 
L 632.550625 170.28 
L 623.678125 170.28 
z
" style="fill:#ff7f0e;fill-opacity:0.5;stroke:#4c4c4c;stroke-linejoin:miter;stroke-width:0.5;"/>
   </g>
   <g id="patch_69">
    <path clip-path="url(#p1af516dd21)" d="M 632.550625 170.28 
L 641.423125 170.28 
L 641.423125 170.28 
L 632.550625 170.28 
z
" style="fill:#ff7f0e;fill-opacity:0.5;stroke:#4c4c4c;stroke-linejoin:miter;stroke-width:0.5;"/>
   </g>
   <g id="patch_70">
    <path clip-path="url(#p1af516dd21)" d="M 641.423125 170.28 
L 650.295625 170.28 
L 650.295625 170.28 
L 641.423125 170.28 
z
" style="fill:#ff7f0e;fill-opacity:0.5;stroke:#4c4c4c;stroke-linejoin:miter;stroke-width:0.5;"/>
   </g>
   <g id="patch_71">
    <path clip-path="url(#p1af516dd21)" d="M 650.295625 170.28 
L 659.168125 170.28 
L 659.168125 170.28 
L 650.295625 170.28 
z
" style="fill:#ff7f0e;fill-opacity:0.5;stroke:#4c4c4c;stroke-linejoin:miter;stroke-width:0.5;"/>
   </g>
   <g id="patch_72">
    <path clip-path="url(#p1af516dd21)" d="M 659.168125 170.28 
L 668.040625 170.28 
L 668.040625 169.643466 
L 659.168125 169.643466 
z
" style="fill:#ff7f0e;fill-opacity:0.5;stroke:#4c4c4c;stroke-linejoin:miter;stroke-width:0.5;"/>
   </g>
   <g id="patch_73">
    <path clip-path="url(#p1af516dd21)" d="M 668.040625 170.28 
L 676.913125 170.28 
L 676.913125 170.28 
L 668.040625 170.28 
z
" style="fill:#ff7f0e;fill-opacity:0.5;stroke:#4c4c4c;stroke-linejoin:miter;stroke-width:0.5;"/>
   </g>
   <g id="patch_74">
    <path clip-path="url(#p1af516dd21)" d="M 676.913125 170.28 
L 685.785625 170.28 
L 685.785625 170.28 
L 676.913125 170.28 
z
" style="fill:#ff7f0e;fill-opacity:0.5;stroke:#4c4c4c;stroke-linejoin:miter;stroke-width:0.5;"/>
   </g>
   <g id="patch_75">
    <path clip-path="url(#p1af516dd21)" d="M 685.785625 170.28 
L 694.658125 170.28 
L 694.658125 170.28 
L 685.785625 170.28 
z
" style="fill:#ff7f0e;fill-opacity:0.5;stroke:#4c4c4c;stroke-linejoin:miter;stroke-width:0.5;"/>
   </g>
   <g id="patch_76">
    <path clip-path="url(#p1af516dd21)" d="M 694.658125 170.28 
L 703.530625 170.28 
L 703.530625 170.28 
L 694.658125 170.28 
z
" style="fill:#ff7f0e;fill-opacity:0.5;stroke:#4c4c4c;stroke-linejoin:miter;stroke-width:0.5;"/>
   </g>
   <g id="patch_77">
    <path clip-path="url(#p1af516dd21)" d="M 703.530625 170.28 
L 712.403125 170.28 
L 712.403125 170.28 
L 703.530625 170.28 
z
" style="fill:#ff7f0e;fill-opacity:0.5;stroke:#4c4c4c;stroke-linejoin:miter;stroke-width:0.5;"/>
   </g>
   <g id="patch_78">
    <path clip-path="url(#p1af516dd21)" d="M 712.403125 170.28 
L 721.275625 170.28 
L 721.275625 169.643466 
L 712.403125 169.643466 
z
" style="fill:#ff7f0e;fill-opacity:0.5;stroke:#4c4c4c;stroke-linejoin:miter;stroke-width:0.5;"/>
   </g>
   <g id="patch_79">
    <path clip-path="url(#p1af516dd21)" d="M 721.275625 170.28 
L 730.148125 170.28 
L 730.148125 170.28 
L 721.275625 170.28 
z
" style="fill:#ff7f0e;fill-opacity:0.5;stroke:#4c4c4c;stroke-linejoin:miter;stroke-width:0.5;"/>
   </g>
   <g id="patch_80">
    <path clip-path="url(#p1af516dd21)" d="M 730.148125 170.28 
L 739.020625 170.28 
L 739.020625 170.28 
L 730.148125 170.28 
z
" style="fill:#ff7f0e;fill-opacity:0.5;stroke:#4c4c4c;stroke-linejoin:miter;stroke-width:0.5;"/>
   </g>
   <g id="patch_81">
    <path clip-path="url(#p1af516dd21)" d="M 739.020625 170.28 
L 747.893125 170.28 
L 747.893125 170.28 
L 739.020625 170.28 
z
" style="fill:#ff7f0e;fill-opacity:0.5;stroke:#4c4c4c;stroke-linejoin:miter;stroke-width:0.5;"/>
   </g>
   <g id="patch_82">
    <path clip-path="url(#p1af516dd21)" d="M 747.893125 170.28 
L 756.765625 170.28 
L 756.765625 170.28 
L 747.893125 170.28 
z
" style="fill:#ff7f0e;fill-opacity:0.5;stroke:#4c4c4c;stroke-linejoin:miter;stroke-width:0.5;"/>
   </g>
   <g id="patch_83">
    <path clip-path="url(#p1af516dd21)" d="M 756.765625 170.28 
L 765.638125 170.28 
L 765.638125 170.28 
L 756.765625 170.28 
z
" style="fill:#ff7f0e;fill-opacity:0.5;stroke:#4c4c4c;stroke-linejoin:miter;stroke-width:0.5;"/>
   </g>
   <g id="patch_84">
    <path clip-path="url(#p1af516dd21)" d="M 765.638125 170.28 
L 774.510625 170.28 
L 774.510625 170.28 
L 765.638125 170.28 
z
" style="fill:#ff7f0e;fill-opacity:0.5;stroke:#4c4c4c;stroke-linejoin:miter;stroke-width:0.5;"/>
   </g>
   <g id="patch_85">
    <path clip-path="url(#p1af516dd21)" d="M 774.510625 170.28 
L 783.383125 170.28 
L 783.383125 170.28 
L 774.510625 170.28 
z
" style="fill:#ff7f0e;fill-opacity:0.5;stroke:#4c4c4c;stroke-linejoin:miter;stroke-width:0.5;"/>
   </g>
   <g id="patch_86">
    <path clip-path="url(#p1af516dd21)" d="M 783.383125 170.28 
L 792.255625 170.28 
L 792.255625 170.28 
L 783.383125 170.28 
z
" style="fill:#ff7f0e;fill-opacity:0.5;stroke:#4c4c4c;stroke-linejoin:miter;stroke-width:0.5;"/>
   </g>
   <g id="patch_87">
    <path clip-path="url(#p1af516dd21)" d="M 792.255625 170.28 
L 801.128125 170.28 
L 801.128125 170.28 
L 792.255625 170.28 
z
" style="fill:#ff7f0e;fill-opacity:0.5;stroke:#4c4c4c;stroke-linejoin:miter;stroke-width:0.5;"/>
   </g>
   <g id="patch_88">
    <path clip-path="url(#p1af516dd21)" d="M 801.128125 170.28 
L 810.000625 170.28 
L 810.000625 170.28 
L 801.128125 170.28 
z
" style="fill:#ff7f0e;fill-opacity:0.5;stroke:#4c4c4c;stroke-linejoin:miter;stroke-width:0.5;"/>
   </g>
   <g id="patch_89">
    <path clip-path="url(#p1af516dd21)" d="M 810.000625 170.28 
L 818.873125 170.28 
L 818.873125 170.28 
L 810.000625 170.28 
z
" style="fill:#ff7f0e;fill-opacity:0.5;stroke:#4c4c4c;stroke-linejoin:miter;stroke-width:0.5;"/>
   </g>
   <g id="patch_90">
    <path clip-path="url(#p1af516dd21)" d="M 818.873125 170.28 
L 827.745625 170.28 
L 827.745625 170.28 
L 818.873125 170.28 
z
" style="fill:#ff7f0e;fill-opacity:0.5;stroke:#4c4c4c;stroke-linejoin:miter;stroke-width:0.5;"/>
   </g>
   <g id="patch_91">
    <path clip-path="url(#p1af516dd21)" d="M 827.745625 170.28 
L 836.618125 170.28 
L 836.618125 170.28 
L 827.745625 170.28 
z
" style="fill:#ff7f0e;fill-opacity:0.5;stroke:#4c4c4c;stroke-linejoin:miter;stroke-width:0.5;"/>
   </g>
   <g id="patch_92">
    <path clip-path="url(#p1af516dd21)" d="M 836.618125 170.28 
L 845.490625 170.28 
L 845.490625 170.28 
L 836.618125 170.28 
z
" style="fill:#ff7f0e;fill-opacity:0.5;stroke:#4c4c4c;stroke-linejoin:miter;stroke-width:0.5;"/>
   </g>
   <g id="patch_93">
    <path clip-path="url(#p1af516dd21)" d="M 845.490625 170.28 
L 854.363125 170.28 
L 854.363125 170.28 
L 845.490625 170.28 
z
" style="fill:#ff7f0e;fill-opacity:0.5;stroke:#4c4c4c;stroke-linejoin:miter;stroke-width:0.5;"/>
   </g>
   <g id="patch_94">
    <path clip-path="url(#p1af516dd21)" d="M 854.363125 170.28 
L 863.235625 170.28 
L 863.235625 170.28 
L 854.363125 170.28 
z
" style="fill:#ff7f0e;fill-opacity:0.5;stroke:#4c4c4c;stroke-linejoin:miter;stroke-width:0.5;"/>
   </g>
   <g id="patch_95">
    <path clip-path="url(#p1af516dd21)" d="M 863.235625 170.28 
L 872.108125 170.28 
L 872.108125 170.28 
L 863.235625 170.28 
z
" style="fill:#ff7f0e;fill-opacity:0.5;stroke:#4c4c4c;stroke-linejoin:miter;stroke-width:0.5;"/>
   </g>
   <g id="patch_96">
    <path clip-path="url(#p1af516dd21)" d="M 46.965625 170.28 
L 55.838125 170.28 
L 55.838125 97.715129 
L 46.965625 97.715129 
z
" style="fill:#1f77b4;fill-opacity:0.5;stroke:#4c4c4c;stroke-linejoin:miter;stroke-width:0.5;"/>
   </g>
   <g id="patch_97">
    <path clip-path="url(#p1af516dd21)" d="M 55.838125 170.28 
L 64.710625 170.28 
L 64.710625 14.965714 
L 55.838125 14.965714 
z
" style="fill:#1f77b4;fill-opacity:0.5;stroke:#4c4c4c;stroke-linejoin:miter;stroke-width:0.5;"/>
   </g>
   <g id="patch_98">
    <path clip-path="url(#p1af516dd21)" d="M 64.710625 170.28 
L 73.583125 170.28 
L 73.583125 23.240656 
L 64.710625 23.240656 
z
" style="fill:#1f77b4;fill-opacity:0.5;stroke:#4c4c4c;stroke-linejoin:miter;stroke-width:0.5;"/>
   </g>
   <g id="patch_99">
    <path clip-path="url(#p1af516dd21)" d="M 73.583125 170.28 
L 82.455625 170.28 
L 82.455625 25.150258 
L 73.583125 25.150258 
z
" style="fill:#1f77b4;fill-opacity:0.5;stroke:#4c4c4c;stroke-linejoin:miter;stroke-width:0.5;"/>
   </g>
   <g id="patch_100">
    <path clip-path="url(#p1af516dd21)" d="M 82.455625 170.28 
L 91.328125 170.28 
L 91.328125 61.432693 
L 82.455625 61.432693 
z
" style="fill:#1f77b4;fill-opacity:0.5;stroke:#4c4c4c;stroke-linejoin:miter;stroke-width:0.5;"/>
   </g>
   <g id="patch_101">
    <path clip-path="url(#p1af516dd21)" d="M 91.328125 170.28 
L 100.200625 170.28 
L 100.200625 135.907166 
L 91.328125 135.907166 
z
" style="fill:#1f77b4;fill-opacity:0.5;stroke:#4c4c4c;stroke-linejoin:miter;stroke-width:0.5;"/>
   </g>
   <g id="patch_102">
    <path clip-path="url(#p1af516dd21)" d="M 100.200625 170.28 
L 109.073125 170.28 
L 109.073125 92.622857 
L 100.200625 92.622857 
z
" style="fill:#1f77b4;fill-opacity:0.5;stroke:#4c4c4c;stroke-linejoin:miter;stroke-width:0.5;"/>
   </g>
   <g id="patch_103">
    <path clip-path="url(#p1af516dd21)" d="M 109.073125 170.28 
L 117.945625 170.28 
L 117.945625 106.626604 
L 109.073125 106.626604 
z
" style="fill:#1f77b4;fill-opacity:0.5;stroke:#4c4c4c;stroke-linejoin:miter;stroke-width:0.5;"/>
   </g>
   <g id="patch_104">
    <path clip-path="url(#p1af516dd21)" d="M 117.945625 170.28 
L 126.818125 170.28 
L 126.818125 118.720749 
L 117.945625 118.720749 
z
" style="fill:#1f77b4;fill-opacity:0.5;stroke:#4c4c4c;stroke-linejoin:miter;stroke-width:0.5;"/>
   </g>
   <g id="patch_105">
    <path clip-path="url(#p1af516dd21)" d="M 126.818125 170.28 
L 135.690625 170.28 
L 135.690625 125.722623 
L 126.818125 125.722623 
z
" style="fill:#1f77b4;fill-opacity:0.5;stroke:#4c4c4c;stroke-linejoin:miter;stroke-width:0.5;"/>
   </g>
   <g id="patch_106">
    <path clip-path="url(#p1af516dd21)" d="M 135.690625 170.28 
L 144.563125 170.28 
L 144.563125 152.457049 
L 135.690625 152.457049 
z
" style="fill:#1f77b4;fill-opacity:0.5;stroke:#4c4c4c;stroke-linejoin:miter;stroke-width:0.5;"/>
   </g>
   <g id="patch_107">
    <path clip-path="url(#p1af516dd21)" d="M 144.563125 170.28 
L 153.435625 170.28 
L 153.435625 134.634098 
L 144.563125 134.634098 
z
" style="fill:#1f77b4;fill-opacity:0.5;stroke:#4c4c4c;stroke-linejoin:miter;stroke-width:0.5;"/>
   </g>
   <g id="patch_108">
    <path clip-path="url(#p1af516dd21)" d="M 153.435625 170.28 
L 162.308125 170.28 
L 162.308125 153.730117 
L 153.435625 153.730117 
z
" style="fill:#1f77b4;fill-opacity:0.5;stroke:#4c4c4c;stroke-linejoin:miter;stroke-width:0.5;"/>
   </g>
   <g id="patch_109">
    <path clip-path="url(#p1af516dd21)" d="M 162.308125 170.28 
L 171.180625 170.28 
L 171.180625 146.728244 
L 162.308125 146.728244 
z
" style="fill:#1f77b4;fill-opacity:0.5;stroke:#4c4c4c;stroke-linejoin:miter;stroke-width:0.5;"/>
   </g>
   <g id="patch_110">
    <path clip-path="url(#p1af516dd21)" d="M 171.180625 170.28 
L 180.053125 170.28 
L 180.053125 154.366651 
L 171.180625 154.366651 
z
" style="fill:#1f77b4;fill-opacity:0.5;stroke:#4c4c4c;stroke-linejoin:miter;stroke-width:0.5;"/>
   </g>
   <g id="patch_111">
    <path clip-path="url(#p1af516dd21)" d="M 180.053125 170.28 
L 188.925625 170.28 
L 188.925625 155.639719 
L 180.053125 155.639719 
z
" style="fill:#1f77b4;fill-opacity:0.5;stroke:#4c4c4c;stroke-linejoin:miter;stroke-width:0.5;"/>
   </g>
   <g id="patch_112">
    <path clip-path="url(#p1af516dd21)" d="M 188.925625 170.28 
L 197.798125 170.28 
L 197.798125 165.187728 
L 188.925625 165.187728 
z
" style="fill:#1f77b4;fill-opacity:0.5;stroke:#4c4c4c;stroke-linejoin:miter;stroke-width:0.5;"/>
   </g>
   <g id="patch_113">
    <path clip-path="url(#p1af516dd21)" d="M 197.798125 170.28 
L 206.670625 170.28 
L 206.670625 160.095457 
L 197.798125 160.095457 
z
" style="fill:#1f77b4;fill-opacity:0.5;stroke:#4c4c4c;stroke-linejoin:miter;stroke-width:0.5;"/>
   </g>
   <g id="patch_114">
    <path clip-path="url(#p1af516dd21)" d="M 206.670625 170.28 
L 215.543125 170.28 
L 215.543125 156.912787 
L 206.670625 156.912787 
z
" style="fill:#1f77b4;fill-opacity:0.5;stroke:#4c4c4c;stroke-linejoin:miter;stroke-width:0.5;"/>
   </g>
   <g id="patch_115">
    <path clip-path="url(#p1af516dd21)" d="M 215.543125 170.28 
L 224.415625 170.28 
L 224.415625 158.185855 
L 215.543125 158.185855 
z
" style="fill:#1f77b4;fill-opacity:0.5;stroke:#4c4c4c;stroke-linejoin:miter;stroke-width:0.5;"/>
   </g>
   <g id="patch_116">
    <path clip-path="url(#p1af516dd21)" d="M 224.415625 170.28 
L 233.288125 170.28 
L 233.288125 158.822389 
L 224.415625 158.822389 
z
" style="fill:#1f77b4;fill-opacity:0.5;stroke:#4c4c4c;stroke-linejoin:miter;stroke-width:0.5;"/>
   </g>
   <g id="patch_117">
    <path clip-path="url(#p1af516dd21)" d="M 233.288125 170.28 
L 242.160625 170.28 
L 242.160625 165.824262 
L 233.288125 165.824262 
z
" style="fill:#1f77b4;fill-opacity:0.5;stroke:#4c4c4c;stroke-linejoin:miter;stroke-width:0.5;"/>
   </g>
   <g id="patch_118">
    <path clip-path="url(#p1af516dd21)" d="M 242.160625 170.28 
L 251.033125 170.28 
L 251.033125 165.187728 
L 242.160625 165.187728 
z
" style="fill:#1f77b4;fill-opacity:0.5;stroke:#4c4c4c;stroke-linejoin:miter;stroke-width:0.5;"/>
   </g>
   <g id="patch_119">
    <path clip-path="url(#p1af516dd21)" d="M 251.033125 170.28 
L 259.905625 170.28 
L 259.905625 160.095457 
L 251.033125 160.095457 
z
" style="fill:#1f77b4;fill-opacity:0.5;stroke:#4c4c4c;stroke-linejoin:miter;stroke-width:0.5;"/>
   </g>
   <g id="patch_120">
    <path clip-path="url(#p1af516dd21)" d="M 259.905625 170.28 
L 268.778125 170.28 
L 268.778125 164.551194 
L 259.905625 164.551194 
z
" style="fill:#1f77b4;fill-opacity:0.5;stroke:#4c4c4c;stroke-linejoin:miter;stroke-width:0.5;"/>
   </g>
   <g id="patch_121">
    <path clip-path="url(#p1af516dd21)" d="M 268.778125 170.28 
L 277.650625 170.28 
L 277.650625 161.368525 
L 268.778125 161.368525 
z
" style="fill:#1f77b4;fill-opacity:0.5;stroke:#4c4c4c;stroke-linejoin:miter;stroke-width:0.5;"/>
   </g>
   <g id="patch_122">
    <path clip-path="url(#p1af516dd21)" d="M 277.650625 170.28 
L 286.523125 170.28 
L 286.523125 162.641593 
L 277.650625 162.641593 
z
" style="fill:#1f77b4;fill-opacity:0.5;stroke:#4c4c4c;stroke-linejoin:miter;stroke-width:0.5;"/>
   </g>
   <g id="patch_123">
    <path clip-path="url(#p1af516dd21)" d="M 286.523125 170.28 
L 295.395625 170.28 
L 295.395625 166.460796 
L 286.523125 166.460796 
z
" style="fill:#1f77b4;fill-opacity:0.5;stroke:#4c4c4c;stroke-linejoin:miter;stroke-width:0.5;"/>
   </g>
   <g id="patch_124">
    <path clip-path="url(#p1af516dd21)" d="M 295.395625 170.28 
L 304.268125 170.28 
L 304.268125 167.09733 
L 295.395625 167.09733 
z
" style="fill:#1f77b4;fill-opacity:0.5;stroke:#4c4c4c;stroke-linejoin:miter;stroke-width:0.5;"/>
   </g>
   <g id="patch_125">
    <path clip-path="url(#p1af516dd21)" d="M 304.268125 170.28 
L 313.140625 170.28 
L 313.140625 166.460796 
L 304.268125 166.460796 
z
" style="fill:#1f77b4;fill-opacity:0.5;stroke:#4c4c4c;stroke-linejoin:miter;stroke-width:0.5;"/>
   </g>
   <g id="patch_126">
    <path clip-path="url(#p1af516dd21)" d="M 313.140625 170.28 
L 322.013125 170.28 
L 322.013125 166.460796 
L 313.140625 166.460796 
z
" style="fill:#1f77b4;fill-opacity:0.5;stroke:#4c4c4c;stroke-linejoin:miter;stroke-width:0.5;"/>
   </g>
   <g id="patch_127">
    <path clip-path="url(#p1af516dd21)" d="M 322.013125 170.28 
L 330.885625 170.28 
L 330.885625 169.006932 
L 322.013125 169.006932 
z
" style="fill:#1f77b4;fill-opacity:0.5;stroke:#4c4c4c;stroke-linejoin:miter;stroke-width:0.5;"/>
   </g>
   <g id="patch_128">
    <path clip-path="url(#p1af516dd21)" d="M 330.885625 170.28 
L 339.758125 170.28 
L 339.758125 166.460796 
L 330.885625 166.460796 
z
" style="fill:#1f77b4;fill-opacity:0.5;stroke:#4c4c4c;stroke-linejoin:miter;stroke-width:0.5;"/>
   </g>
   <g id="patch_129">
    <path clip-path="url(#p1af516dd21)" d="M 339.758125 170.28 
L 348.630625 170.28 
L 348.630625 167.733864 
L 339.758125 167.733864 
z
" style="fill:#1f77b4;fill-opacity:0.5;stroke:#4c4c4c;stroke-linejoin:miter;stroke-width:0.5;"/>
   </g>
   <g id="patch_130">
    <path clip-path="url(#p1af516dd21)" d="M 348.630625 170.28 
L 357.503125 170.28 
L 357.503125 167.09733 
L 348.630625 167.09733 
z
" style="fill:#1f77b4;fill-opacity:0.5;stroke:#4c4c4c;stroke-linejoin:miter;stroke-width:0.5;"/>
   </g>
   <g id="patch_131">
    <path clip-path="url(#p1af516dd21)" d="M 357.503125 170.28 
L 366.375625 170.28 
L 366.375625 169.006932 
L 357.503125 169.006932 
z
" style="fill:#1f77b4;fill-opacity:0.5;stroke:#4c4c4c;stroke-linejoin:miter;stroke-width:0.5;"/>
   </g>
   <g id="patch_132">
    <path clip-path="url(#p1af516dd21)" d="M 366.375625 170.28 
L 375.248125 170.28 
L 375.248125 168.370398 
L 366.375625 168.370398 
z
" style="fill:#1f77b4;fill-opacity:0.5;stroke:#4c4c4c;stroke-linejoin:miter;stroke-width:0.5;"/>
   </g>
   <g id="patch_133">
    <path clip-path="url(#p1af516dd21)" d="M 375.248125 170.28 
L 384.120625 170.28 
L 384.120625 169.006932 
L 375.248125 169.006932 
z
" style="fill:#1f77b4;fill-opacity:0.5;stroke:#4c4c4c;stroke-linejoin:miter;stroke-width:0.5;"/>
   </g>
   <g id="patch_134">
    <path clip-path="url(#p1af516dd21)" d="M 384.120625 170.28 
L 392.993125 170.28 
L 392.993125 169.006932 
L 384.120625 169.006932 
z
" style="fill:#1f77b4;fill-opacity:0.5;stroke:#4c4c4c;stroke-linejoin:miter;stroke-width:0.5;"/>
   </g>
   <g id="patch_135">
    <path clip-path="url(#p1af516dd21)" d="M 392.993125 170.28 
L 401.865625 170.28 
L 401.865625 170.28 
L 392.993125 170.28 
z
" style="fill:#1f77b4;fill-opacity:0.5;stroke:#4c4c4c;stroke-linejoin:miter;stroke-width:0.5;"/>
   </g>
   <g id="patch_136">
    <path clip-path="url(#p1af516dd21)" d="M 401.865625 170.28 
L 410.738125 170.28 
L 410.738125 169.643466 
L 401.865625 169.643466 
z
" style="fill:#1f77b4;fill-opacity:0.5;stroke:#4c4c4c;stroke-linejoin:miter;stroke-width:0.5;"/>
   </g>
   <g id="patch_137">
    <path clip-path="url(#p1af516dd21)" d="M 410.738125 170.28 
L 419.610625 170.28 
L 419.610625 169.643466 
L 410.738125 169.643466 
z
" style="fill:#1f77b4;fill-opacity:0.5;stroke:#4c4c4c;stroke-linejoin:miter;stroke-width:0.5;"/>
   </g>
   <g id="patch_138">
    <path clip-path="url(#p1af516dd21)" d="M 419.610625 170.28 
L 428.483125 170.28 
L 428.483125 169.643466 
L 419.610625 169.643466 
z
" style="fill:#1f77b4;fill-opacity:0.5;stroke:#4c4c4c;stroke-linejoin:miter;stroke-width:0.5;"/>
   </g>
   <g id="patch_139">
    <path clip-path="url(#p1af516dd21)" d="M 428.483125 170.28 
L 437.355625 170.28 
L 437.355625 170.28 
L 428.483125 170.28 
z
" style="fill:#1f77b4;fill-opacity:0.5;stroke:#4c4c4c;stroke-linejoin:miter;stroke-width:0.5;"/>
   </g>
   <g id="patch_140">
    <path clip-path="url(#p1af516dd21)" d="M 437.355625 170.28 
L 446.228125 170.28 
L 446.228125 169.643466 
L 437.355625 169.643466 
z
" style="fill:#1f77b4;fill-opacity:0.5;stroke:#4c4c4c;stroke-linejoin:miter;stroke-width:0.5;"/>
   </g>
   <g id="patch_141">
    <path clip-path="url(#p1af516dd21)" d="M 446.228125 170.28 
L 455.100625 170.28 
L 455.100625 169.643466 
L 446.228125 169.643466 
z
" style="fill:#1f77b4;fill-opacity:0.5;stroke:#4c4c4c;stroke-linejoin:miter;stroke-width:0.5;"/>
   </g>
   <g id="patch_142">
    <path clip-path="url(#p1af516dd21)" d="M 455.100625 170.28 
L 463.973125 170.28 
L 463.973125 170.28 
L 455.100625 170.28 
z
" style="fill:#1f77b4;fill-opacity:0.5;stroke:#4c4c4c;stroke-linejoin:miter;stroke-width:0.5;"/>
   </g>
   <g id="patch_143">
    <path clip-path="url(#p1af516dd21)" d="M 463.973125 170.28 
L 472.845625 170.28 
L 472.845625 168.370398 
L 463.973125 168.370398 
z
" style="fill:#1f77b4;fill-opacity:0.5;stroke:#4c4c4c;stroke-linejoin:miter;stroke-width:0.5;"/>
   </g>
   <g id="patch_144">
    <path clip-path="url(#p1af516dd21)" d="M 472.845625 170.28 
L 481.718125 170.28 
L 481.718125 169.643466 
L 472.845625 169.643466 
z
" style="fill:#1f77b4;fill-opacity:0.5;stroke:#4c4c4c;stroke-linejoin:miter;stroke-width:0.5;"/>
   </g>
   <g id="patch_145">
    <path clip-path="url(#p1af516dd21)" d="M 481.718125 170.28 
L 490.590625 170.28 
L 490.590625 170.28 
L 481.718125 170.28 
z
" style="fill:#1f77b4;fill-opacity:0.5;stroke:#4c4c4c;stroke-linejoin:miter;stroke-width:0.5;"/>
   </g>
   <g id="patch_146">
    <path clip-path="url(#p1af516dd21)" d="M 490.590625 170.28 
L 499.463125 170.28 
L 499.463125 170.28 
L 490.590625 170.28 
z
" style="fill:#1f77b4;fill-opacity:0.5;stroke:#4c4c4c;stroke-linejoin:miter;stroke-width:0.5;"/>
   </g>
   <g id="patch_147">
    <path clip-path="url(#p1af516dd21)" d="M 499.463125 170.28 
L 508.335625 170.28 
L 508.335625 170.28 
L 499.463125 170.28 
z
" style="fill:#1f77b4;fill-opacity:0.5;stroke:#4c4c4c;stroke-linejoin:miter;stroke-width:0.5;"/>
   </g>
   <g id="patch_148">
    <path clip-path="url(#p1af516dd21)" d="M 508.335625 170.28 
L 517.208125 170.28 
L 517.208125 170.28 
L 508.335625 170.28 
z
" style="fill:#1f77b4;fill-opacity:0.5;stroke:#4c4c4c;stroke-linejoin:miter;stroke-width:0.5;"/>
   </g>
   <g id="patch_149">
    <path clip-path="url(#p1af516dd21)" d="M 517.208125 170.28 
L 526.080625 170.28 
L 526.080625 170.28 
L 517.208125 170.28 
z
" style="fill:#1f77b4;fill-opacity:0.5;stroke:#4c4c4c;stroke-linejoin:miter;stroke-width:0.5;"/>
   </g>
   <g id="patch_150">
    <path clip-path="url(#p1af516dd21)" d="M 526.080625 170.28 
L 534.953125 170.28 
L 534.953125 170.28 
L 526.080625 170.28 
z
" style="fill:#1f77b4;fill-opacity:0.5;stroke:#4c4c4c;stroke-linejoin:miter;stroke-width:0.5;"/>
   </g>
   <g id="patch_151">
    <path clip-path="url(#p1af516dd21)" d="M 534.953125 170.28 
L 543.825625 170.28 
L 543.825625 170.28 
L 534.953125 170.28 
z
" style="fill:#1f77b4;fill-opacity:0.5;stroke:#4c4c4c;stroke-linejoin:miter;stroke-width:0.5;"/>
   </g>
   <g id="patch_152">
    <path clip-path="url(#p1af516dd21)" d="M 543.825625 170.28 
L 552.698125 170.28 
L 552.698125 170.28 
L 543.825625 170.28 
z
" style="fill:#1f77b4;fill-opacity:0.5;stroke:#4c4c4c;stroke-linejoin:miter;stroke-width:0.5;"/>
   </g>
   <g id="patch_153">
    <path clip-path="url(#p1af516dd21)" d="M 552.698125 170.28 
L 561.570625 170.28 
L 561.570625 170.28 
L 552.698125 170.28 
z
" style="fill:#1f77b4;fill-opacity:0.5;stroke:#4c4c4c;stroke-linejoin:miter;stroke-width:0.5;"/>
   </g>
   <g id="patch_154">
    <path clip-path="url(#p1af516dd21)" d="M 561.570625 170.28 
L 570.443125 170.28 
L 570.443125 170.28 
L 561.570625 170.28 
z
" style="fill:#1f77b4;fill-opacity:0.5;stroke:#4c4c4c;stroke-linejoin:miter;stroke-width:0.5;"/>
   </g>
   <g id="patch_155">
    <path clip-path="url(#p1af516dd21)" d="M 570.443125 170.28 
L 579.315625 170.28 
L 579.315625 170.28 
L 570.443125 170.28 
z
" style="fill:#1f77b4;fill-opacity:0.5;stroke:#4c4c4c;stroke-linejoin:miter;stroke-width:0.5;"/>
   </g>
   <g id="patch_156">
    <path clip-path="url(#p1af516dd21)" d="M 579.315625 170.28 
L 588.188125 170.28 
L 588.188125 170.28 
L 579.315625 170.28 
z
" style="fill:#1f77b4;fill-opacity:0.5;stroke:#4c4c4c;stroke-linejoin:miter;stroke-width:0.5;"/>
   </g>
   <g id="patch_157">
    <path clip-path="url(#p1af516dd21)" d="M 588.188125 170.28 
L 597.060625 170.28 
L 597.060625 170.28 
L 588.188125 170.28 
z
" style="fill:#1f77b4;fill-opacity:0.5;stroke:#4c4c4c;stroke-linejoin:miter;stroke-width:0.5;"/>
   </g>
   <g id="patch_158">
    <path clip-path="url(#p1af516dd21)" d="M 597.060625 170.28 
L 605.933125 170.28 
L 605.933125 170.28 
L 597.060625 170.28 
z
" style="fill:#1f77b4;fill-opacity:0.5;stroke:#4c4c4c;stroke-linejoin:miter;stroke-width:0.5;"/>
   </g>
   <g id="patch_159">
    <path clip-path="url(#p1af516dd21)" d="M 605.933125 170.28 
L 614.805625 170.28 
L 614.805625 169.643466 
L 605.933125 169.643466 
z
" style="fill:#1f77b4;fill-opacity:0.5;stroke:#4c4c4c;stroke-linejoin:miter;stroke-width:0.5;"/>
   </g>
   <g id="patch_160">
    <path clip-path="url(#p1af516dd21)" d="M 614.805625 170.28 
L 623.678125 170.28 
L 623.678125 170.28 
L 614.805625 170.28 
z
" style="fill:#1f77b4;fill-opacity:0.5;stroke:#4c4c4c;stroke-linejoin:miter;stroke-width:0.5;"/>
   </g>
   <g id="patch_161">
    <path clip-path="url(#p1af516dd21)" d="M 623.678125 170.28 
L 632.550625 170.28 
L 632.550625 170.28 
L 623.678125 170.28 
z
" style="fill:#1f77b4;fill-opacity:0.5;stroke:#4c4c4c;stroke-linejoin:miter;stroke-width:0.5;"/>
   </g>
   <g id="patch_162">
    <path clip-path="url(#p1af516dd21)" d="M 632.550625 170.28 
L 641.423125 170.28 
L 641.423125 170.28 
L 632.550625 170.28 
z
" style="fill:#1f77b4;fill-opacity:0.5;stroke:#4c4c4c;stroke-linejoin:miter;stroke-width:0.5;"/>
   </g>
   <g id="patch_163">
    <path clip-path="url(#p1af516dd21)" d="M 641.423125 170.28 
L 650.295625 170.28 
L 650.295625 170.28 
L 641.423125 170.28 
z
" style="fill:#1f77b4;fill-opacity:0.5;stroke:#4c4c4c;stroke-linejoin:miter;stroke-width:0.5;"/>
   </g>
   <g id="patch_164">
    <path clip-path="url(#p1af516dd21)" d="M 650.295625 170.28 
L 659.168125 170.28 
L 659.168125 170.28 
L 650.295625 170.28 
z
" style="fill:#1f77b4;fill-opacity:0.5;stroke:#4c4c4c;stroke-linejoin:miter;stroke-width:0.5;"/>
   </g>
   <g id="patch_165">
    <path clip-path="url(#p1af516dd21)" d="M 659.168125 170.28 
L 668.040625 170.28 
L 668.040625 170.28 
L 659.168125 170.28 
z
" style="fill:#1f77b4;fill-opacity:0.5;stroke:#4c4c4c;stroke-linejoin:miter;stroke-width:0.5;"/>
   </g>
   <g id="patch_166">
    <path clip-path="url(#p1af516dd21)" d="M 668.040625 170.28 
L 676.913125 170.28 
L 676.913125 170.28 
L 668.040625 170.28 
z
" style="fill:#1f77b4;fill-opacity:0.5;stroke:#4c4c4c;stroke-linejoin:miter;stroke-width:0.5;"/>
   </g>
   <g id="patch_167">
    <path clip-path="url(#p1af516dd21)" d="M 676.913125 170.28 
L 685.785625 170.28 
L 685.785625 170.28 
L 676.913125 170.28 
z
" style="fill:#1f77b4;fill-opacity:0.5;stroke:#4c4c4c;stroke-linejoin:miter;stroke-width:0.5;"/>
   </g>
   <g id="patch_168">
    <path clip-path="url(#p1af516dd21)" d="M 685.785625 170.28 
L 694.658125 170.28 
L 694.658125 170.28 
L 685.785625 170.28 
z
" style="fill:#1f77b4;fill-opacity:0.5;stroke:#4c4c4c;stroke-linejoin:miter;stroke-width:0.5;"/>
   </g>
   <g id="patch_169">
    <path clip-path="url(#p1af516dd21)" d="M 694.658125 170.28 
L 703.530625 170.28 
L 703.530625 170.28 
L 694.658125 170.28 
z
" style="fill:#1f77b4;fill-opacity:0.5;stroke:#4c4c4c;stroke-linejoin:miter;stroke-width:0.5;"/>
   </g>
   <g id="patch_170">
    <path clip-path="url(#p1af516dd21)" d="M 703.530625 170.28 
L 712.403125 170.28 
L 712.403125 170.28 
L 703.530625 170.28 
z
" style="fill:#1f77b4;fill-opacity:0.5;stroke:#4c4c4c;stroke-linejoin:miter;stroke-width:0.5;"/>
   </g>
   <g id="patch_171">
    <path clip-path="url(#p1af516dd21)" d="M 712.403125 170.28 
L 721.275625 170.28 
L 721.275625 170.28 
L 712.403125 170.28 
z
" style="fill:#1f77b4;fill-opacity:0.5;stroke:#4c4c4c;stroke-linejoin:miter;stroke-width:0.5;"/>
   </g>
   <g id="patch_172">
    <path clip-path="url(#p1af516dd21)" d="M 721.275625 170.28 
L 730.148125 170.28 
L 730.148125 170.28 
L 721.275625 170.28 
z
" style="fill:#1f77b4;fill-opacity:0.5;stroke:#4c4c4c;stroke-linejoin:miter;stroke-width:0.5;"/>
   </g>
   <g id="patch_173">
    <path clip-path="url(#p1af516dd21)" d="M 730.148125 170.28 
L 739.020625 170.28 
L 739.020625 170.28 
L 730.148125 170.28 
z
" style="fill:#1f77b4;fill-opacity:0.5;stroke:#4c4c4c;stroke-linejoin:miter;stroke-width:0.5;"/>
   </g>
   <g id="patch_174">
    <path clip-path="url(#p1af516dd21)" d="M 739.020625 170.28 
L 747.893125 170.28 
L 747.893125 170.28 
L 739.020625 170.28 
z
" style="fill:#1f77b4;fill-opacity:0.5;stroke:#4c4c4c;stroke-linejoin:miter;stroke-width:0.5;"/>
   </g>
   <g id="patch_175">
    <path clip-path="url(#p1af516dd21)" d="M 747.893125 170.28 
L 756.765625 170.28 
L 756.765625 170.28 
L 747.893125 170.28 
z
" style="fill:#1f77b4;fill-opacity:0.5;stroke:#4c4c4c;stroke-linejoin:miter;stroke-width:0.5;"/>
   </g>
   <g id="patch_176">
    <path clip-path="url(#p1af516dd21)" d="M 756.765625 170.28 
L 765.638125 170.28 
L 765.638125 170.28 
L 756.765625 170.28 
z
" style="fill:#1f77b4;fill-opacity:0.5;stroke:#4c4c4c;stroke-linejoin:miter;stroke-width:0.5;"/>
   </g>
   <g id="patch_177">
    <path clip-path="url(#p1af516dd21)" d="M 765.638125 170.28 
L 774.510625 170.28 
L 774.510625 170.28 
L 765.638125 170.28 
z
" style="fill:#1f77b4;fill-opacity:0.5;stroke:#4c4c4c;stroke-linejoin:miter;stroke-width:0.5;"/>
   </g>
   <g id="patch_178">
    <path clip-path="url(#p1af516dd21)" d="M 774.510625 170.28 
L 783.383125 170.28 
L 783.383125 170.28 
L 774.510625 170.28 
z
" style="fill:#1f77b4;fill-opacity:0.5;stroke:#4c4c4c;stroke-linejoin:miter;stroke-width:0.5;"/>
   </g>
   <g id="patch_179">
    <path clip-path="url(#p1af516dd21)" d="M 783.383125 170.28 
L 792.255625 170.28 
L 792.255625 170.28 
L 783.383125 170.28 
z
" style="fill:#1f77b4;fill-opacity:0.5;stroke:#4c4c4c;stroke-linejoin:miter;stroke-width:0.5;"/>
   </g>
   <g id="patch_180">
    <path clip-path="url(#p1af516dd21)" d="M 792.255625 170.28 
L 801.128125 170.28 
L 801.128125 170.28 
L 792.255625 170.28 
z
" style="fill:#1f77b4;fill-opacity:0.5;stroke:#4c4c4c;stroke-linejoin:miter;stroke-width:0.5;"/>
   </g>
   <g id="patch_181">
    <path clip-path="url(#p1af516dd21)" d="M 801.128125 170.28 
L 810.000625 170.28 
L 810.000625 170.28 
L 801.128125 170.28 
z
" style="fill:#1f77b4;fill-opacity:0.5;stroke:#4c4c4c;stroke-linejoin:miter;stroke-width:0.5;"/>
   </g>
   <g id="patch_182">
    <path clip-path="url(#p1af516dd21)" d="M 810.000625 170.28 
L 818.873125 170.28 
L 818.873125 170.28 
L 810.000625 170.28 
z
" style="fill:#1f77b4;fill-opacity:0.5;stroke:#4c4c4c;stroke-linejoin:miter;stroke-width:0.5;"/>
   </g>
   <g id="patch_183">
    <path clip-path="url(#p1af516dd21)" d="M 818.873125 170.28 
L 827.745625 170.28 
L 827.745625 170.28 
L 818.873125 170.28 
z
" style="fill:#1f77b4;fill-opacity:0.5;stroke:#4c4c4c;stroke-linejoin:miter;stroke-width:0.5;"/>
   </g>
   <g id="patch_184">
    <path clip-path="url(#p1af516dd21)" d="M 827.745625 170.28 
L 836.618125 170.28 
L 836.618125 170.28 
L 827.745625 170.28 
z
" style="fill:#1f77b4;fill-opacity:0.5;stroke:#4c4c4c;stroke-linejoin:miter;stroke-width:0.5;"/>
   </g>
   <g id="patch_185">
    <path clip-path="url(#p1af516dd21)" d="M 836.618125 170.28 
L 845.490625 170.28 
L 845.490625 169.643466 
L 836.618125 169.643466 
z
" style="fill:#1f77b4;fill-opacity:0.5;stroke:#4c4c4c;stroke-linejoin:miter;stroke-width:0.5;"/>
   </g>
   <g id="patch_186">
    <path clip-path="url(#p1af516dd21)" d="M 845.490625 170.28 
L 854.363125 170.28 
L 854.363125 170.28 
L 845.490625 170.28 
z
" style="fill:#1f77b4;fill-opacity:0.5;stroke:#4c4c4c;stroke-linejoin:miter;stroke-width:0.5;"/>
   </g>
   <g id="patch_187">
    <path clip-path="url(#p1af516dd21)" d="M 854.363125 170.28 
L 863.235625 170.28 
L 863.235625 170.28 
L 854.363125 170.28 
z
" style="fill:#1f77b4;fill-opacity:0.5;stroke:#4c4c4c;stroke-linejoin:miter;stroke-width:0.5;"/>
   </g>
   <g id="patch_188">
    <path clip-path="url(#p1af516dd21)" d="M 863.235625 170.28 
L 872.108125 170.28 
L 872.108125 169.643466 
L 863.235625 169.643466 
z
" style="fill:#1f77b4;fill-opacity:0.5;stroke:#4c4c4c;stroke-linejoin:miter;stroke-width:0.5;"/>
   </g>
   <g id="matplotlib.axis_1">
    <g id="xtick_1">
     <g id="line2d_1">
      <defs>
       <path d="M 0 0 
L 0 3.5 
" id="m4690adde99" style="stroke:#000000;stroke-width:0.8;"/>
      </defs>
      <g>
       <use style="stroke:#000000;stroke-width:0.8;" x="46.965625" xlink:href="#m4690adde99" y="170.28"/>
      </g>
     </g>
     <g id="text_1">
      <!-- 0 -->
      <g transform="translate(43.784375 184.878438)scale(0.1 -0.1)">
       <defs>
        <path d="M 2034 4250 
Q 1547 4250 1301 3770 
Q 1056 3291 1056 2328 
Q 1056 1369 1301 889 
Q 1547 409 2034 409 
Q 2525 409 2770 889 
Q 3016 1369 3016 2328 
Q 3016 3291 2770 3770 
Q 2525 4250 2034 4250 
z
M 2034 4750 
Q 2819 4750 3233 4129 
Q 3647 3509 3647 2328 
Q 3647 1150 3233 529 
Q 2819 -91 2034 -91 
Q 1250 -91 836 529 
Q 422 1150 422 2328 
Q 422 3509 836 4129 
Q 1250 4750 2034 4750 
z
" id="DejaVuSans-30" transform="scale(0.015625)"/>
       </defs>
       <use xlink:href="#DejaVuSans-30"/>
      </g>
     </g>
    </g>
    <g id="xtick_2">
     <g id="line2d_2">
      <g>
       <use style="stroke:#000000;stroke-width:0.8;" x="95.790625" xlink:href="#m4690adde99" y="170.28"/>
      </g>
     </g>
     <g id="text_2">
      <!-- 10 -->
      <g transform="translate(89.428125 184.878438)scale(0.1 -0.1)">
       <defs>
        <path d="M 794 531 
L 1825 531 
L 1825 4091 
L 703 3866 
L 703 4441 
L 1819 4666 
L 2450 4666 
L 2450 531 
L 3481 531 
L 3481 0 
L 794 0 
L 794 531 
z
" id="DejaVuSans-31" transform="scale(0.015625)"/>
       </defs>
       <use xlink:href="#DejaVuSans-31"/>
       <use x="63.623047" xlink:href="#DejaVuSans-30"/>
      </g>
     </g>
    </g>
    <g id="xtick_3">
     <g id="line2d_3">
      <g>
       <use style="stroke:#000000;stroke-width:0.8;" x="144.615625" xlink:href="#m4690adde99" y="170.28"/>
      </g>
     </g>
     <g id="text_3">
      <!-- 20 -->
      <g transform="translate(138.253125 184.878438)scale(0.1 -0.1)">
       <defs>
        <path d="M 1228 531 
L 3431 531 
L 3431 0 
L 469 0 
L 469 531 
Q 828 903 1448 1529 
Q 2069 2156 2228 2338 
Q 2531 2678 2651 2914 
Q 2772 3150 2772 3378 
Q 2772 3750 2511 3984 
Q 2250 4219 1831 4219 
Q 1534 4219 1204 4116 
Q 875 4013 500 3803 
L 500 4441 
Q 881 4594 1212 4672 
Q 1544 4750 1819 4750 
Q 2544 4750 2975 4387 
Q 3406 4025 3406 3419 
Q 3406 3131 3298 2873 
Q 3191 2616 2906 2266 
Q 2828 2175 2409 1742 
Q 1991 1309 1228 531 
z
" id="DejaVuSans-32" transform="scale(0.015625)"/>
       </defs>
       <use xlink:href="#DejaVuSans-32"/>
       <use x="63.623047" xlink:href="#DejaVuSans-30"/>
      </g>
     </g>
    </g>
    <g id="xtick_4">
     <g id="line2d_4">
      <g>
       <use style="stroke:#000000;stroke-width:0.8;" x="193.440625" xlink:href="#m4690adde99" y="170.28"/>
      </g>
     </g>
     <g id="text_4">
      <!-- 30 -->
      <g transform="translate(187.078125 184.878438)scale(0.1 -0.1)">
       <defs>
        <path d="M 2597 2516 
Q 3050 2419 3304 2112 
Q 3559 1806 3559 1356 
Q 3559 666 3084 287 
Q 2609 -91 1734 -91 
Q 1441 -91 1130 -33 
Q 819 25 488 141 
L 488 750 
Q 750 597 1062 519 
Q 1375 441 1716 441 
Q 2309 441 2620 675 
Q 2931 909 2931 1356 
Q 2931 1769 2642 2001 
Q 2353 2234 1838 2234 
L 1294 2234 
L 1294 2753 
L 1863 2753 
Q 2328 2753 2575 2939 
Q 2822 3125 2822 3475 
Q 2822 3834 2567 4026 
Q 2313 4219 1838 4219 
Q 1578 4219 1281 4162 
Q 984 4106 628 3988 
L 628 4550 
Q 988 4650 1302 4700 
Q 1616 4750 1894 4750 
Q 2613 4750 3031 4423 
Q 3450 4097 3450 3541 
Q 3450 3153 3228 2886 
Q 3006 2619 2597 2516 
z
" id="DejaVuSans-33" transform="scale(0.015625)"/>
       </defs>
       <use xlink:href="#DejaVuSans-33"/>
       <use x="63.623047" xlink:href="#DejaVuSans-30"/>
      </g>
     </g>
    </g>
    <g id="xtick_5">
     <g id="line2d_5">
      <g>
       <use style="stroke:#000000;stroke-width:0.8;" x="242.265625" xlink:href="#m4690adde99" y="170.28"/>
      </g>
     </g>
     <g id="text_5">
      <!-- 40 -->
      <g transform="translate(235.903125 184.878438)scale(0.1 -0.1)">
       <defs>
        <path d="M 2419 4116 
L 825 1625 
L 2419 1625 
L 2419 4116 
z
M 2253 4666 
L 3047 4666 
L 3047 1625 
L 3713 1625 
L 3713 1100 
L 3047 1100 
L 3047 0 
L 2419 0 
L 2419 1100 
L 313 1100 
L 313 1709 
L 2253 4666 
z
" id="DejaVuSans-34" transform="scale(0.015625)"/>
       </defs>
       <use xlink:href="#DejaVuSans-34"/>
       <use x="63.623047" xlink:href="#DejaVuSans-30"/>
      </g>
     </g>
    </g>
    <g id="xtick_6">
     <g id="line2d_6">
      <g>
       <use style="stroke:#000000;stroke-width:0.8;" x="291.090625" xlink:href="#m4690adde99" y="170.28"/>
      </g>
     </g>
     <g id="text_6">
      <!-- 50 -->
      <g transform="translate(284.728125 184.878438)scale(0.1 -0.1)">
       <defs>
        <path d="M 691 4666 
L 3169 4666 
L 3169 4134 
L 1269 4134 
L 1269 2991 
Q 1406 3038 1543 3061 
Q 1681 3084 1819 3084 
Q 2600 3084 3056 2656 
Q 3513 2228 3513 1497 
Q 3513 744 3044 326 
Q 2575 -91 1722 -91 
Q 1428 -91 1123 -41 
Q 819 9 494 109 
L 494 744 
Q 775 591 1075 516 
Q 1375 441 1709 441 
Q 2250 441 2565 725 
Q 2881 1009 2881 1497 
Q 2881 1984 2565 2268 
Q 2250 2553 1709 2553 
Q 1456 2553 1204 2497 
Q 953 2441 691 2322 
L 691 4666 
z
" id="DejaVuSans-35" transform="scale(0.015625)"/>
       </defs>
       <use xlink:href="#DejaVuSans-35"/>
       <use x="63.623047" xlink:href="#DejaVuSans-30"/>
      </g>
     </g>
    </g>
    <g id="xtick_7">
     <g id="line2d_7">
      <g>
       <use style="stroke:#000000;stroke-width:0.8;" x="339.915625" xlink:href="#m4690adde99" y="170.28"/>
      </g>
     </g>
     <g id="text_7">
      <!-- 60 -->
      <g transform="translate(333.553125 184.878438)scale(0.1 -0.1)">
       <defs>
        <path d="M 2113 2584 
Q 1688 2584 1439 2293 
Q 1191 2003 1191 1497 
Q 1191 994 1439 701 
Q 1688 409 2113 409 
Q 2538 409 2786 701 
Q 3034 994 3034 1497 
Q 3034 2003 2786 2293 
Q 2538 2584 2113 2584 
z
M 3366 4563 
L 3366 3988 
Q 3128 4100 2886 4159 
Q 2644 4219 2406 4219 
Q 1781 4219 1451 3797 
Q 1122 3375 1075 2522 
Q 1259 2794 1537 2939 
Q 1816 3084 2150 3084 
Q 2853 3084 3261 2657 
Q 3669 2231 3669 1497 
Q 3669 778 3244 343 
Q 2819 -91 2113 -91 
Q 1303 -91 875 529 
Q 447 1150 447 2328 
Q 447 3434 972 4092 
Q 1497 4750 2381 4750 
Q 2619 4750 2861 4703 
Q 3103 4656 3366 4563 
z
" id="DejaVuSans-36" transform="scale(0.015625)"/>
       </defs>
       <use xlink:href="#DejaVuSans-36"/>
       <use x="63.623047" xlink:href="#DejaVuSans-30"/>
      </g>
     </g>
    </g>
    <g id="xtick_8">
     <g id="line2d_8">
      <g>
       <use style="stroke:#000000;stroke-width:0.8;" x="388.740625" xlink:href="#m4690adde99" y="170.28"/>
      </g>
     </g>
     <g id="text_8">
      <!-- 70 -->
      <g transform="translate(382.378125 184.878438)scale(0.1 -0.1)">
       <defs>
        <path d="M 525 4666 
L 3525 4666 
L 3525 4397 
L 1831 0 
L 1172 0 
L 2766 4134 
L 525 4134 
L 525 4666 
z
" id="DejaVuSans-37" transform="scale(0.015625)"/>
       </defs>
       <use xlink:href="#DejaVuSans-37"/>
       <use x="63.623047" xlink:href="#DejaVuSans-30"/>
      </g>
     </g>
    </g>
    <g id="xtick_9">
     <g id="line2d_9">
      <g>
       <use style="stroke:#000000;stroke-width:0.8;" x="437.565625" xlink:href="#m4690adde99" y="170.28"/>
      </g>
     </g>
     <g id="text_9">
      <!-- 80 -->
      <g transform="translate(431.203125 184.878438)scale(0.1 -0.1)">
       <defs>
        <path d="M 2034 2216 
Q 1584 2216 1326 1975 
Q 1069 1734 1069 1313 
Q 1069 891 1326 650 
Q 1584 409 2034 409 
Q 2484 409 2743 651 
Q 3003 894 3003 1313 
Q 3003 1734 2745 1975 
Q 2488 2216 2034 2216 
z
M 1403 2484 
Q 997 2584 770 2862 
Q 544 3141 544 3541 
Q 544 4100 942 4425 
Q 1341 4750 2034 4750 
Q 2731 4750 3128 4425 
Q 3525 4100 3525 3541 
Q 3525 3141 3298 2862 
Q 3072 2584 2669 2484 
Q 3125 2378 3379 2068 
Q 3634 1759 3634 1313 
Q 3634 634 3220 271 
Q 2806 -91 2034 -91 
Q 1263 -91 848 271 
Q 434 634 434 1313 
Q 434 1759 690 2068 
Q 947 2378 1403 2484 
z
M 1172 3481 
Q 1172 3119 1398 2916 
Q 1625 2713 2034 2713 
Q 2441 2713 2670 2916 
Q 2900 3119 2900 3481 
Q 2900 3844 2670 4047 
Q 2441 4250 2034 4250 
Q 1625 4250 1398 4047 
Q 1172 3844 1172 3481 
z
" id="DejaVuSans-38" transform="scale(0.015625)"/>
       </defs>
       <use xlink:href="#DejaVuSans-38"/>
       <use x="63.623047" xlink:href="#DejaVuSans-30"/>
      </g>
     </g>
    </g>
    <g id="text_10">
     <!-- Duration (in days) -->
     <g transform="translate(197.110156 198.556563)scale(0.1 -0.1)">
      <defs>
       <path d="M 1259 4147 
L 1259 519 
L 2022 519 
Q 2988 519 3436 956 
Q 3884 1394 3884 2338 
Q 3884 3275 3436 3711 
Q 2988 4147 2022 4147 
L 1259 4147 
z
M 628 4666 
L 1925 4666 
Q 3281 4666 3915 4102 
Q 4550 3538 4550 2338 
Q 4550 1131 3912 565 
Q 3275 0 1925 0 
L 628 0 
L 628 4666 
z
" id="DejaVuSans-44" transform="scale(0.015625)"/>
       <path d="M 544 1381 
L 544 3500 
L 1119 3500 
L 1119 1403 
Q 1119 906 1312 657 
Q 1506 409 1894 409 
Q 2359 409 2629 706 
Q 2900 1003 2900 1516 
L 2900 3500 
L 3475 3500 
L 3475 0 
L 2900 0 
L 2900 538 
Q 2691 219 2414 64 
Q 2138 -91 1772 -91 
Q 1169 -91 856 284 
Q 544 659 544 1381 
z
M 1991 3584 
L 1991 3584 
z
" id="DejaVuSans-75" transform="scale(0.015625)"/>
       <path d="M 2631 2963 
Q 2534 3019 2420 3045 
Q 2306 3072 2169 3072 
Q 1681 3072 1420 2755 
Q 1159 2438 1159 1844 
L 1159 0 
L 581 0 
L 581 3500 
L 1159 3500 
L 1159 2956 
Q 1341 3275 1631 3429 
Q 1922 3584 2338 3584 
Q 2397 3584 2469 3576 
Q 2541 3569 2628 3553 
L 2631 2963 
z
" id="DejaVuSans-72" transform="scale(0.015625)"/>
       <path d="M 2194 1759 
Q 1497 1759 1228 1600 
Q 959 1441 959 1056 
Q 959 750 1161 570 
Q 1363 391 1709 391 
Q 2188 391 2477 730 
Q 2766 1069 2766 1631 
L 2766 1759 
L 2194 1759 
z
M 3341 1997 
L 3341 0 
L 2766 0 
L 2766 531 
Q 2569 213 2275 61 
Q 1981 -91 1556 -91 
Q 1019 -91 701 211 
Q 384 513 384 1019 
Q 384 1609 779 1909 
Q 1175 2209 1959 2209 
L 2766 2209 
L 2766 2266 
Q 2766 2663 2505 2880 
Q 2244 3097 1772 3097 
Q 1472 3097 1187 3025 
Q 903 2953 641 2809 
L 641 3341 
Q 956 3463 1253 3523 
Q 1550 3584 1831 3584 
Q 2591 3584 2966 3190 
Q 3341 2797 3341 1997 
z
" id="DejaVuSans-61" transform="scale(0.015625)"/>
       <path d="M 1172 4494 
L 1172 3500 
L 2356 3500 
L 2356 3053 
L 1172 3053 
L 1172 1153 
Q 1172 725 1289 603 
Q 1406 481 1766 481 
L 2356 481 
L 2356 0 
L 1766 0 
Q 1100 0 847 248 
Q 594 497 594 1153 
L 594 3053 
L 172 3053 
L 172 3500 
L 594 3500 
L 594 4494 
L 1172 4494 
z
" id="DejaVuSans-74" transform="scale(0.015625)"/>
       <path d="M 603 3500 
L 1178 3500 
L 1178 0 
L 603 0 
L 603 3500 
z
M 603 4863 
L 1178 4863 
L 1178 4134 
L 603 4134 
L 603 4863 
z
" id="DejaVuSans-69" transform="scale(0.015625)"/>
       <path d="M 1959 3097 
Q 1497 3097 1228 2736 
Q 959 2375 959 1747 
Q 959 1119 1226 758 
Q 1494 397 1959 397 
Q 2419 397 2687 759 
Q 2956 1122 2956 1747 
Q 2956 2369 2687 2733 
Q 2419 3097 1959 3097 
z
M 1959 3584 
Q 2709 3584 3137 3096 
Q 3566 2609 3566 1747 
Q 3566 888 3137 398 
Q 2709 -91 1959 -91 
Q 1206 -91 779 398 
Q 353 888 353 1747 
Q 353 2609 779 3096 
Q 1206 3584 1959 3584 
z
" id="DejaVuSans-6f" transform="scale(0.015625)"/>
       <path d="M 3513 2113 
L 3513 0 
L 2938 0 
L 2938 2094 
Q 2938 2591 2744 2837 
Q 2550 3084 2163 3084 
Q 1697 3084 1428 2787 
Q 1159 2491 1159 1978 
L 1159 0 
L 581 0 
L 581 3500 
L 1159 3500 
L 1159 2956 
Q 1366 3272 1645 3428 
Q 1925 3584 2291 3584 
Q 2894 3584 3203 3211 
Q 3513 2838 3513 2113 
z
" id="DejaVuSans-6e" transform="scale(0.015625)"/>
       <path id="DejaVuSans-20" transform="scale(0.015625)"/>
       <path d="M 1984 4856 
Q 1566 4138 1362 3434 
Q 1159 2731 1159 2009 
Q 1159 1288 1364 580 
Q 1569 -128 1984 -844 
L 1484 -844 
Q 1016 -109 783 600 
Q 550 1309 550 2009 
Q 550 2706 781 3412 
Q 1013 4119 1484 4856 
L 1984 4856 
z
" id="DejaVuSans-28" transform="scale(0.015625)"/>
       <path d="M 2906 2969 
L 2906 4863 
L 3481 4863 
L 3481 0 
L 2906 0 
L 2906 525 
Q 2725 213 2448 61 
Q 2172 -91 1784 -91 
Q 1150 -91 751 415 
Q 353 922 353 1747 
Q 353 2572 751 3078 
Q 1150 3584 1784 3584 
Q 2172 3584 2448 3432 
Q 2725 3281 2906 2969 
z
M 947 1747 
Q 947 1113 1208 752 
Q 1469 391 1925 391 
Q 2381 391 2643 752 
Q 2906 1113 2906 1747 
Q 2906 2381 2643 2742 
Q 2381 3103 1925 3103 
Q 1469 3103 1208 2742 
Q 947 2381 947 1747 
z
" id="DejaVuSans-64" transform="scale(0.015625)"/>
       <path d="M 2059 -325 
Q 1816 -950 1584 -1140 
Q 1353 -1331 966 -1331 
L 506 -1331 
L 506 -850 
L 844 -850 
Q 1081 -850 1212 -737 
Q 1344 -625 1503 -206 
L 1606 56 
L 191 3500 
L 800 3500 
L 1894 763 
L 2988 3500 
L 3597 3500 
L 2059 -325 
z
" id="DejaVuSans-79" transform="scale(0.015625)"/>
       <path d="M 2834 3397 
L 2834 2853 
Q 2591 2978 2328 3040 
Q 2066 3103 1784 3103 
Q 1356 3103 1142 2972 
Q 928 2841 928 2578 
Q 928 2378 1081 2264 
Q 1234 2150 1697 2047 
L 1894 2003 
Q 2506 1872 2764 1633 
Q 3022 1394 3022 966 
Q 3022 478 2636 193 
Q 2250 -91 1575 -91 
Q 1294 -91 989 -36 
Q 684 19 347 128 
L 347 722 
Q 666 556 975 473 
Q 1284 391 1588 391 
Q 1994 391 2212 530 
Q 2431 669 2431 922 
Q 2431 1156 2273 1281 
Q 2116 1406 1581 1522 
L 1381 1569 
Q 847 1681 609 1914 
Q 372 2147 372 2553 
Q 372 3047 722 3315 
Q 1072 3584 1716 3584 
Q 2034 3584 2315 3537 
Q 2597 3491 2834 3397 
z
" id="DejaVuSans-73" transform="scale(0.015625)"/>
       <path d="M 513 4856 
L 1013 4856 
Q 1481 4119 1714 3412 
Q 1947 2706 1947 2009 
Q 1947 1309 1714 600 
Q 1481 -109 1013 -844 
L 513 -844 
Q 928 -128 1133 580 
Q 1338 1288 1338 2009 
Q 1338 2731 1133 3434 
Q 928 4138 513 4856 
z
" id="DejaVuSans-29" transform="scale(0.015625)"/>
      </defs>
      <use xlink:href="#DejaVuSans-44"/>
      <use x="77.001953" xlink:href="#DejaVuSans-75"/>
      <use x="140.380859" xlink:href="#DejaVuSans-72"/>
      <use x="181.494141" xlink:href="#DejaVuSans-61"/>
      <use x="242.773438" xlink:href="#DejaVuSans-74"/>
      <use x="281.982422" xlink:href="#DejaVuSans-69"/>
      <use x="309.765625" xlink:href="#DejaVuSans-6f"/>
      <use x="370.947266" xlink:href="#DejaVuSans-6e"/>
      <use x="434.326172" xlink:href="#DejaVuSans-20"/>
      <use x="466.113281" xlink:href="#DejaVuSans-28"/>
      <use x="505.126953" xlink:href="#DejaVuSans-69"/>
      <use x="532.910156" xlink:href="#DejaVuSans-6e"/>
      <use x="596.289062" xlink:href="#DejaVuSans-20"/>
      <use x="628.076172" xlink:href="#DejaVuSans-64"/>
      <use x="691.552734" xlink:href="#DejaVuSans-61"/>
      <use x="752.832031" xlink:href="#DejaVuSans-79"/>
      <use x="812.011719" xlink:href="#DejaVuSans-73"/>
      <use x="864.111328" xlink:href="#DejaVuSans-29"/>
     </g>
    </g>
   </g>
   <g id="matplotlib.axis_2">
    <g id="ytick_1">
     <g id="line2d_10">
      <defs>
       <path d="M 0 0 
L -3.5 0 
" id="m770426b7d3" style="stroke:#000000;stroke-width:0.8;"/>
      </defs>
      <g>
       <use style="stroke:#000000;stroke-width:0.8;" x="46.965625" xlink:href="#m770426b7d3" y="170.28"/>
      </g>
     </g>
     <g id="text_11">
      <!-- 0 -->
      <g transform="translate(33.603125 174.079219)scale(0.1 -0.1)">
       <use xlink:href="#DejaVuSans-30"/>
      </g>
     </g>
    </g>
    <g id="ytick_2">
     <g id="line2d_11">
      <g>
       <use style="stroke:#000000;stroke-width:0.8;" x="46.965625" xlink:href="#m770426b7d3" y="138.453302"/>
      </g>
     </g>
     <g id="text_12">
      <!-- 50 -->
      <g transform="translate(27.240625 142.252521)scale(0.1 -0.1)">
       <use xlink:href="#DejaVuSans-35"/>
       <use x="63.623047" xlink:href="#DejaVuSans-30"/>
      </g>
     </g>
    </g>
    <g id="ytick_3">
     <g id="line2d_12">
      <g>
       <use style="stroke:#000000;stroke-width:0.8;" x="46.965625" xlink:href="#m770426b7d3" y="106.626604"/>
      </g>
     </g>
     <g id="text_13">
      <!-- 100 -->
      <g transform="translate(20.878125 110.425823)scale(0.1 -0.1)">
       <use xlink:href="#DejaVuSans-31"/>
       <use x="63.623047" xlink:href="#DejaVuSans-30"/>
       <use x="127.246094" xlink:href="#DejaVuSans-30"/>
      </g>
     </g>
    </g>
    <g id="ytick_4">
     <g id="line2d_13">
      <g>
       <use style="stroke:#000000;stroke-width:0.8;" x="46.965625" xlink:href="#m770426b7d3" y="74.799906"/>
      </g>
     </g>
     <g id="text_14">
      <!-- 150 -->
      <g transform="translate(20.878125 78.599125)scale(0.1 -0.1)">
       <use xlink:href="#DejaVuSans-31"/>
       <use x="63.623047" xlink:href="#DejaVuSans-35"/>
       <use x="127.246094" xlink:href="#DejaVuSans-30"/>
      </g>
     </g>
    </g>
    <g id="ytick_5">
     <g id="line2d_14">
      <g>
       <use style="stroke:#000000;stroke-width:0.8;" x="46.965625" xlink:href="#m770426b7d3" y="42.973208"/>
      </g>
     </g>
     <g id="text_15">
      <!-- 200 -->
      <g transform="translate(20.878125 46.772427)scale(0.1 -0.1)">
       <use xlink:href="#DejaVuSans-32"/>
       <use x="63.623047" xlink:href="#DejaVuSans-30"/>
       <use x="127.246094" xlink:href="#DejaVuSans-30"/>
      </g>
     </g>
    </g>
    <g id="ytick_6">
     <g id="line2d_15">
      <g>
       <use style="stroke:#000000;stroke-width:0.8;" x="46.965625" xlink:href="#m770426b7d3" y="11.146511"/>
      </g>
     </g>
     <g id="text_16">
      <!-- 250 -->
      <g transform="translate(20.878125 14.945729)scale(0.1 -0.1)">
       <use xlink:href="#DejaVuSans-32"/>
       <use x="63.623047" xlink:href="#DejaVuSans-35"/>
       <use x="127.246094" xlink:href="#DejaVuSans-30"/>
      </g>
     </g>
    </g>
    <g id="text_17">
     <!-- Count -->
     <g transform="translate(14.798437 103.588437)rotate(-90)scale(0.1 -0.1)">
      <defs>
       <path d="M 4122 4306 
L 4122 3641 
Q 3803 3938 3442 4084 
Q 3081 4231 2675 4231 
Q 1875 4231 1450 3742 
Q 1025 3253 1025 2328 
Q 1025 1406 1450 917 
Q 1875 428 2675 428 
Q 3081 428 3442 575 
Q 3803 722 4122 1019 
L 4122 359 
Q 3791 134 3420 21 
Q 3050 -91 2638 -91 
Q 1578 -91 968 557 
Q 359 1206 359 2328 
Q 359 3453 968 4101 
Q 1578 4750 2638 4750 
Q 3056 4750 3426 4639 
Q 3797 4528 4122 4306 
z
" id="DejaVuSans-43" transform="scale(0.015625)"/>
      </defs>
      <use xlink:href="#DejaVuSans-43"/>
      <use x="69.824219" xlink:href="#DejaVuSans-6f"/>
      <use x="131.005859" xlink:href="#DejaVuSans-75"/>
      <use x="194.384766" xlink:href="#DejaVuSans-6e"/>
      <use x="257.763672" xlink:href="#DejaVuSans-74"/>
     </g>
    </g>
   </g>
   <g id="patch_189">
    <path d="M 46.965625 170.28 
L 46.965625 7.2 
" style="fill:none;stroke:#000000;stroke-linecap:square;stroke-linejoin:miter;stroke-width:0.8;"/>
   </g>
   <g id="patch_190">
    <path d="M 46.965625 170.28 
L 437.565625 170.28 
" style="fill:none;stroke:#000000;stroke-linecap:square;stroke-linejoin:miter;stroke-width:0.8;"/>
   </g>
   <g id="legend_1">
    <g id="patch_191">
     <path d="M 345.040625 59.234375 
L 430.565625 59.234375 
Q 432.565625 59.234375 432.565625 57.234375 
L 432.565625 14.2 
Q 432.565625 12.2 430.565625 12.2 
L 345.040625 12.2 
Q 343.040625 12.2 343.040625 14.2 
L 343.040625 57.234375 
Q 343.040625 59.234375 345.040625 59.234375 
z
" style="fill:#ffffff;opacity:0.8;stroke:#cccccc;stroke-linejoin:miter;"/>
    </g>
    <g id="text_18">
     <!-- OUTCOME -->
     <g transform="translate(362.546875 23.798438)scale(0.1 -0.1)">
      <defs>
       <path d="M 2522 4238 
Q 1834 4238 1429 3725 
Q 1025 3213 1025 2328 
Q 1025 1447 1429 934 
Q 1834 422 2522 422 
Q 3209 422 3611 934 
Q 4013 1447 4013 2328 
Q 4013 3213 3611 3725 
Q 3209 4238 2522 4238 
z
M 2522 4750 
Q 3503 4750 4090 4092 
Q 4678 3434 4678 2328 
Q 4678 1225 4090 567 
Q 3503 -91 2522 -91 
Q 1538 -91 948 565 
Q 359 1222 359 2328 
Q 359 3434 948 4092 
Q 1538 4750 2522 4750 
z
" id="DejaVuSans-4f" transform="scale(0.015625)"/>
       <path d="M 556 4666 
L 1191 4666 
L 1191 1831 
Q 1191 1081 1462 751 
Q 1734 422 2344 422 
Q 2950 422 3222 751 
Q 3494 1081 3494 1831 
L 3494 4666 
L 4128 4666 
L 4128 1753 
Q 4128 841 3676 375 
Q 3225 -91 2344 -91 
Q 1459 -91 1007 375 
Q 556 841 556 1753 
L 556 4666 
z
" id="DejaVuSans-55" transform="scale(0.015625)"/>
       <path d="M -19 4666 
L 3928 4666 
L 3928 4134 
L 2272 4134 
L 2272 0 
L 1638 0 
L 1638 4134 
L -19 4134 
L -19 4666 
z
" id="DejaVuSans-54" transform="scale(0.015625)"/>
       <path d="M 628 4666 
L 1569 4666 
L 2759 1491 
L 3956 4666 
L 4897 4666 
L 4897 0 
L 4281 0 
L 4281 4097 
L 3078 897 
L 2444 897 
L 1241 4097 
L 1241 0 
L 628 0 
L 628 4666 
z
" id="DejaVuSans-4d" transform="scale(0.015625)"/>
       <path d="M 628 4666 
L 3578 4666 
L 3578 4134 
L 1259 4134 
L 1259 2753 
L 3481 2753 
L 3481 2222 
L 1259 2222 
L 1259 531 
L 3634 531 
L 3634 0 
L 628 0 
L 628 4666 
z
" id="DejaVuSans-45" transform="scale(0.015625)"/>
      </defs>
      <use xlink:href="#DejaVuSans-4f"/>
      <use x="78.710938" xlink:href="#DejaVuSans-55"/>
      <use x="151.904297" xlink:href="#DejaVuSans-54"/>
      <use x="207.113281" xlink:href="#DejaVuSans-43"/>
      <use x="276.9375" xlink:href="#DejaVuSans-4f"/>
      <use x="355.648438" xlink:href="#DejaVuSans-4d"/>
      <use x="441.927734" xlink:href="#DejaVuSans-45"/>
     </g>
    </g>
    <g id="patch_192">
     <path d="M 347.040625 38.476562 
L 367.040625 38.476562 
L 367.040625 31.476562 
L 347.040625 31.476562 
z
" style="fill:#1f77b4;fill-opacity:0.5;stroke:#4c4c4c;stroke-linejoin:miter;stroke-width:0.5;"/>
    </g>
    <g id="text_19">
     <!-- RECOVERY -->
     <g transform="translate(375.040625 38.476562)scale(0.1 -0.1)">
      <defs>
       <path d="M 2841 2188 
Q 3044 2119 3236 1894 
Q 3428 1669 3622 1275 
L 4263 0 
L 3584 0 
L 2988 1197 
Q 2756 1666 2539 1819 
Q 2322 1972 1947 1972 
L 1259 1972 
L 1259 0 
L 628 0 
L 628 4666 
L 2053 4666 
Q 2853 4666 3247 4331 
Q 3641 3997 3641 3322 
Q 3641 2881 3436 2590 
Q 3231 2300 2841 2188 
z
M 1259 4147 
L 1259 2491 
L 2053 2491 
Q 2509 2491 2742 2702 
Q 2975 2913 2975 3322 
Q 2975 3731 2742 3939 
Q 2509 4147 2053 4147 
L 1259 4147 
z
" id="DejaVuSans-52" transform="scale(0.015625)"/>
       <path d="M 1831 0 
L 50 4666 
L 709 4666 
L 2188 738 
L 3669 4666 
L 4325 4666 
L 2547 0 
L 1831 0 
z
" id="DejaVuSans-56" transform="scale(0.015625)"/>
       <path d="M -13 4666 
L 666 4666 
L 1959 2747 
L 3244 4666 
L 3922 4666 
L 2272 2222 
L 2272 0 
L 1638 0 
L 1638 2222 
L -13 4666 
z
" id="DejaVuSans-59" transform="scale(0.015625)"/>
      </defs>
      <use xlink:href="#DejaVuSans-52"/>
      <use x="69.482422" xlink:href="#DejaVuSans-45"/>
      <use x="132.666016" xlink:href="#DejaVuSans-43"/>
      <use x="202.490234" xlink:href="#DejaVuSans-4f"/>
      <use x="279.451172" xlink:href="#DejaVuSans-56"/>
      <use x="347.859375" xlink:href="#DejaVuSans-45"/>
      <use x="411.042969" xlink:href="#DejaVuSans-52"/>
      <use x="474.150391" xlink:href="#DejaVuSans-59"/>
     </g>
    </g>
    <g id="patch_193">
     <path d="M 347.040625 53.154687 
L 367.040625 53.154687 
L 367.040625 46.154687 
L 347.040625 46.154687 
z
" style="fill:#ff7f0e;fill-opacity:0.5;stroke:#4c4c4c;stroke-linejoin:miter;stroke-width:0.5;"/>
    </g>
    <g id="text_20">
     <!-- DEATH -->
     <g transform="translate(375.040625 53.154687)scale(0.1 -0.1)">
      <defs>
       <path d="M 2188 4044 
L 1331 1722 
L 3047 1722 
L 2188 4044 
z
M 1831 4666 
L 2547 4666 
L 4325 0 
L 3669 0 
L 3244 1197 
L 1141 1197 
L 716 0 
L 50 0 
L 1831 4666 
z
" id="DejaVuSans-41" transform="scale(0.015625)"/>
       <path d="M 628 4666 
L 1259 4666 
L 1259 2753 
L 3553 2753 
L 3553 4666 
L 4184 4666 
L 4184 0 
L 3553 0 
L 3553 2222 
L 1259 2222 
L 1259 0 
L 628 0 
L 628 4666 
z
" id="DejaVuSans-48" transform="scale(0.015625)"/>
      </defs>
      <use xlink:href="#DejaVuSans-44"/>
      <use x="77.001953" xlink:href="#DejaVuSans-45"/>
      <use x="140.185547" xlink:href="#DejaVuSans-41"/>
      <use x="200.84375" xlink:href="#DejaVuSans-54"/>
      <use x="261.927734" xlink:href="#DejaVuSans-48"/>
     </g>
    </g>
   </g>
  </g>
 </g>
 <defs>
  <clipPath id="p1af516dd21">
   <rect height="163.08" width="390.6" x="46.965625" y="7.2"/>
  </clipPath>
 </defs>
</svg>
