<?xml version="1.0" encoding="utf-8" standalone="no"?>
<!DOCTYPE svg PUBLIC "-//W3C//DTD SVG 1.1//EN"
  "http://www.w3.org/Graphics/SVG/1.1/DTD/svg11.dtd">
<svg height="262.19625pt" version="1.1" viewBox="0 0 451.128125 262.19625" width="451.128125pt" xmlns="http://www.w3.org/2000/svg" xmlns:xlink="http://www.w3.org/1999/xlink">
 <metadata>
  <rdf:RDF xmlns:cc="http://creativecommons.org/ns#" xmlns:dc="http://purl.org/dc/elements/1.1/" xmlns:rdf="http://www.w3.org/1999/02/22-rdf-syntax-ns#">
   <cc:Work>
    <dc:type rdf:resource="http://purl.org/dc/dcmitype/StillImage"/>
    <dc:date>2021-03-29T19:47:40.520468</dc:date>
    <dc:format>image/svg+xml</dc:format>
    <dc:creator>
     <cc:Agent>
      <dc:title>Matplotlib v3.4.0, https://matplotlib.org/</dc:title>
     </cc:Agent>
    </dc:creator>
   </cc:Work>
  </rdf:RDF>
 </metadata>
 <defs>
  <style type="text/css">*{stroke-linecap:butt;stroke-linejoin:round;}</style>
 </defs>
 <g id="figure_1">
  <g id="patch_1">
   <path d="M 0 262.19625 
L 451.128125 262.19625 
L 451.128125 0 
L 0 0 
z
" style="fill:none;"/>
  </g>
  <g id="axes_1">
   <g id="patch_2">
    <path d="M 46.965625 224.64 
L 437.565625 224.64 
L 437.565625 7.2 
L 46.965625 7.2 
z
" style="fill:#ffffff;"/>
   </g>
   <g id="patch_3">
    <path clip-path="url(#ped198395d8)" d="M 46.965625 224.64 
L 55.838125 224.64 
L 55.838125 74.470021 
L 46.965625 74.470021 
z
" style="fill:#1f77b4;fill-opacity:0.75;stroke:#4c4c4c;stroke-linejoin:miter;stroke-width:0.5;"/>
   </g>
   <g id="patch_4">
    <path clip-path="url(#ped198395d8)" d="M 55.838125 224.64 
L 64.710625 224.64 
L 64.710625 17.554286 
L 55.838125 17.554286 
z
" style="fill:#1f77b4;fill-opacity:0.75;stroke:#4c4c4c;stroke-linejoin:miter;stroke-width:0.5;"/>
   </g>
   <g id="patch_5">
    <path clip-path="url(#ped198395d8)" d="M 64.710625 224.64 
L 73.583125 224.64 
L 73.583125 33.75338 
L 64.710625 33.75338 
z
" style="fill:#1f77b4;fill-opacity:0.75;stroke:#4c4c4c;stroke-linejoin:miter;stroke-width:0.5;"/>
   </g>
   <g id="patch_6">
    <path clip-path="url(#ped198395d8)" d="M 73.583125 224.64 
L 82.455625 224.64 
L 82.455625 26.310553 
L 73.583125 26.310553 
z
" style="fill:#1f77b4;fill-opacity:0.75;stroke:#4c4c4c;stroke-linejoin:miter;stroke-width:0.5;"/>
   </g>
   <g id="patch_7">
    <path clip-path="url(#ped198395d8)" d="M 82.455625 224.64 
L 91.328125 224.64 
L 91.328125 64.400314 
L 82.455625 64.400314 
z
" style="fill:#1f77b4;fill-opacity:0.75;stroke:#4c4c4c;stroke-linejoin:miter;stroke-width:0.5;"/>
   </g>
   <g id="patch_8">
    <path clip-path="url(#ped198395d8)" d="M 91.328125 224.64 
L 100.200625 224.64 
L 100.200625 158.530184 
L 91.328125 158.530184 
z
" style="fill:#1f77b4;fill-opacity:0.75;stroke:#4c4c4c;stroke-linejoin:miter;stroke-width:0.5;"/>
   </g>
   <g id="patch_9">
    <path clip-path="url(#ped198395d8)" d="M 100.200625 224.64 
L 109.073125 224.64 
L 109.073125 95.485062 
L 100.200625 95.485062 
z
" style="fill:#1f77b4;fill-opacity:0.75;stroke:#4c4c4c;stroke-linejoin:miter;stroke-width:0.5;"/>
   </g>
   <g id="patch_10">
    <path clip-path="url(#ped198395d8)" d="M 109.073125 224.64 
L 117.945625 224.64 
L 117.945625 109.057276 
L 109.073125 109.057276 
z
" style="fill:#1f77b4;fill-opacity:0.75;stroke:#4c4c4c;stroke-linejoin:miter;stroke-width:0.5;"/>
   </g>
   <g id="patch_11">
    <path clip-path="url(#ped198395d8)" d="M 117.945625 224.64 
L 126.818125 224.64 
L 126.818125 129.634503 
L 117.945625 129.634503 
z
" style="fill:#1f77b4;fill-opacity:0.75;stroke:#4c4c4c;stroke-linejoin:miter;stroke-width:0.5;"/>
   </g>
   <g id="patch_12">
    <path clip-path="url(#ped198395d8)" d="M 126.818125 224.64 
L 135.690625 224.64 
L 135.690625 129.19669 
L 126.818125 129.19669 
z
" style="fill:#1f77b4;fill-opacity:0.75;stroke:#4c4c4c;stroke-linejoin:miter;stroke-width:0.5;"/>
   </g>
   <g id="patch_13">
    <path clip-path="url(#ped198395d8)" d="M 135.690625 224.64 
L 144.563125 224.64 
L 144.563125 188.301492 
L 135.690625 188.301492 
z
" style="fill:#1f77b4;fill-opacity:0.75;stroke:#4c4c4c;stroke-linejoin:miter;stroke-width:0.5;"/>
   </g>
   <g id="patch_14">
    <path clip-path="url(#ped198395d8)" d="M 144.563125 224.64 
L 153.435625 224.64 
L 153.435625 151.525171 
L 144.563125 151.525171 
z
" style="fill:#1f77b4;fill-opacity:0.75;stroke:#4c4c4c;stroke-linejoin:miter;stroke-width:0.5;"/>
   </g>
   <g id="patch_15">
    <path clip-path="url(#ped198395d8)" d="M 153.435625 224.64 
L 162.308125 224.64 
L 162.308125 174.729278 
L 153.435625 174.729278 
z
" style="fill:#1f77b4;fill-opacity:0.75;stroke:#4c4c4c;stroke-linejoin:miter;stroke-width:0.5;"/>
   </g>
   <g id="patch_16">
    <path clip-path="url(#ped198395d8)" d="M 162.308125 224.64 
L 171.180625 224.64 
L 171.180625 173.853651 
L 162.308125 173.853651 
z
" style="fill:#1f77b4;fill-opacity:0.75;stroke:#4c4c4c;stroke-linejoin:miter;stroke-width:0.5;"/>
   </g>
   <g id="patch_17">
    <path clip-path="url(#ped198395d8)" d="M 171.180625 224.64 
L 180.053125 224.64 
L 180.053125 184.361172 
L 171.180625 184.361172 
z
" style="fill:#1f77b4;fill-opacity:0.75;stroke:#4c4c4c;stroke-linejoin:miter;stroke-width:0.5;"/>
   </g>
   <g id="patch_18">
    <path clip-path="url(#ped198395d8)" d="M 180.053125 224.64 
L 188.925625 224.64 
L 188.925625 186.112425 
L 180.053125 186.112425 
z
" style="fill:#1f77b4;fill-opacity:0.75;stroke:#4c4c4c;stroke-linejoin:miter;stroke-width:0.5;"/>
   </g>
   <g id="patch_19">
    <path clip-path="url(#ped198395d8)" d="M 188.925625 224.64 
L 197.798125 224.64 
L 197.798125 209.754346 
L 188.925625 209.754346 
z
" style="fill:#1f77b4;fill-opacity:0.75;stroke:#4c4c4c;stroke-linejoin:miter;stroke-width:0.5;"/>
   </g>
   <g id="patch_20">
    <path clip-path="url(#ped198395d8)" d="M 197.798125 224.64 
L 206.670625 224.64 
L 206.670625 193.993066 
L 197.798125 193.993066 
z
" style="fill:#1f77b4;fill-opacity:0.75;stroke:#4c4c4c;stroke-linejoin:miter;stroke-width:0.5;"/>
   </g>
   <g id="patch_21">
    <path clip-path="url(#ped198395d8)" d="M 206.670625 224.64 
L 215.543125 224.64 
L 215.543125 199.246826 
L 206.670625 199.246826 
z
" style="fill:#1f77b4;fill-opacity:0.75;stroke:#4c4c4c;stroke-linejoin:miter;stroke-width:0.5;"/>
   </g>
   <g id="patch_22">
    <path clip-path="url(#ped198395d8)" d="M 215.543125 224.64 
L 224.415625 224.64 
L 224.415625 203.624959 
L 215.543125 203.624959 
z
" style="fill:#1f77b4;fill-opacity:0.75;stroke:#4c4c4c;stroke-linejoin:miter;stroke-width:0.5;"/>
   </g>
   <g id="patch_23">
    <path clip-path="url(#ped198395d8)" d="M 224.415625 224.64 
L 233.288125 224.64 
L 233.288125 208.878719 
L 224.415625 208.878719 
z
" style="fill:#1f77b4;fill-opacity:0.75;stroke:#4c4c4c;stroke-linejoin:miter;stroke-width:0.5;"/>
   </g>
   <g id="patch_24">
    <path clip-path="url(#ped198395d8)" d="M 233.288125 224.64 
L 242.160625 224.64 
L 242.160625 218.510613 
L 233.288125 218.510613 
z
" style="fill:#1f77b4;fill-opacity:0.75;stroke:#4c4c4c;stroke-linejoin:miter;stroke-width:0.5;"/>
   </g>
   <g id="patch_25">
    <path clip-path="url(#ped198395d8)" d="M 242.160625 224.64 
L 251.033125 224.64 
L 251.033125 211.5056 
L 242.160625 211.5056 
z
" style="fill:#1f77b4;fill-opacity:0.75;stroke:#4c4c4c;stroke-linejoin:miter;stroke-width:0.5;"/>
   </g>
   <g id="patch_26">
    <path clip-path="url(#ped198395d8)" d="M 251.033125 224.64 
L 259.905625 224.64 
L 259.905625 209.316533 
L 251.033125 209.316533 
z
" style="fill:#1f77b4;fill-opacity:0.75;stroke:#4c4c4c;stroke-linejoin:miter;stroke-width:0.5;"/>
   </g>
   <g id="patch_27">
    <path clip-path="url(#ped198395d8)" d="M 259.905625 224.64 
L 268.778125 224.64 
L 268.778125 213.694666 
L 259.905625 213.694666 
z
" style="fill:#1f77b4;fill-opacity:0.75;stroke:#4c4c4c;stroke-linejoin:miter;stroke-width:0.5;"/>
   </g>
   <g id="patch_28">
    <path clip-path="url(#ped198395d8)" d="M 268.778125 224.64 
L 277.650625 224.64 
L 277.650625 210.629973 
L 268.778125 210.629973 
z
" style="fill:#1f77b4;fill-opacity:0.75;stroke:#4c4c4c;stroke-linejoin:miter;stroke-width:0.5;"/>
   </g>
   <g id="patch_29">
    <path clip-path="url(#ped198395d8)" d="M 277.650625 224.64 
L 286.523125 224.64 
L 286.523125 214.13248 
L 277.650625 214.13248 
z
" style="fill:#1f77b4;fill-opacity:0.75;stroke:#4c4c4c;stroke-linejoin:miter;stroke-width:0.5;"/>
   </g>
   <g id="patch_30">
    <path clip-path="url(#ped198395d8)" d="M 286.523125 224.64 
L 295.395625 224.64 
L 295.395625 219.38624 
L 286.523125 219.38624 
z
" style="fill:#1f77b4;fill-opacity:0.75;stroke:#4c4c4c;stroke-linejoin:miter;stroke-width:0.5;"/>
   </g>
   <g id="patch_31">
    <path clip-path="url(#ped198395d8)" d="M 295.395625 224.64 
L 304.268125 224.64 
L 304.268125 218.0728 
L 295.395625 218.0728 
z
" style="fill:#1f77b4;fill-opacity:0.75;stroke:#4c4c4c;stroke-linejoin:miter;stroke-width:0.5;"/>
   </g>
   <g id="patch_32">
    <path clip-path="url(#ped198395d8)" d="M 304.268125 224.64 
L 313.140625 224.64 
L 313.140625 217.634986 
L 304.268125 217.634986 
z
" style="fill:#1f77b4;fill-opacity:0.75;stroke:#4c4c4c;stroke-linejoin:miter;stroke-width:0.5;"/>
   </g>
   <g id="patch_33">
    <path clip-path="url(#ped198395d8)" d="M 313.140625 224.64 
L 322.013125 224.64 
L 322.013125 218.510613 
L 313.140625 218.510613 
z
" style="fill:#1f77b4;fill-opacity:0.75;stroke:#4c4c4c;stroke-linejoin:miter;stroke-width:0.5;"/>
   </g>
   <g id="patch_34">
    <path clip-path="url(#ped198395d8)" d="M 322.013125 224.64 
L 330.885625 224.64 
L 330.885625 221.575307 
L 322.013125 221.575307 
z
" style="fill:#1f77b4;fill-opacity:0.75;stroke:#4c4c4c;stroke-linejoin:miter;stroke-width:0.5;"/>
   </g>
   <g id="patch_35">
    <path clip-path="url(#ped198395d8)" d="M 330.885625 224.64 
L 339.758125 224.64 
L 339.758125 221.137493 
L 330.885625 221.137493 
z
" style="fill:#1f77b4;fill-opacity:0.75;stroke:#4c4c4c;stroke-linejoin:miter;stroke-width:0.5;"/>
   </g>
   <g id="patch_36">
    <path clip-path="url(#ped198395d8)" d="M 339.758125 224.64 
L 348.630625 224.64 
L 348.630625 221.575307 
L 339.758125 221.575307 
z
" style="fill:#1f77b4;fill-opacity:0.75;stroke:#4c4c4c;stroke-linejoin:miter;stroke-width:0.5;"/>
   </g>
   <g id="patch_37">
    <path clip-path="url(#ped198395d8)" d="M 348.630625 224.64 
L 357.503125 224.64 
L 357.503125 218.948426 
L 348.630625 218.948426 
z
" style="fill:#1f77b4;fill-opacity:0.75;stroke:#4c4c4c;stroke-linejoin:miter;stroke-width:0.5;"/>
   </g>
   <g id="patch_38">
    <path clip-path="url(#ped198395d8)" d="M 357.503125 224.64 
L 366.375625 224.64 
L 366.375625 222.888747 
L 357.503125 222.888747 
z
" style="fill:#1f77b4;fill-opacity:0.75;stroke:#4c4c4c;stroke-linejoin:miter;stroke-width:0.5;"/>
   </g>
   <g id="patch_39">
    <path clip-path="url(#ped198395d8)" d="M 366.375625 224.64 
L 375.248125 224.64 
L 375.248125 221.575307 
L 366.375625 221.575307 
z
" style="fill:#1f77b4;fill-opacity:0.75;stroke:#4c4c4c;stroke-linejoin:miter;stroke-width:0.5;"/>
   </g>
   <g id="patch_40">
    <path clip-path="url(#ped198395d8)" d="M 375.248125 224.64 
L 384.120625 224.64 
L 384.120625 222.888747 
L 375.248125 222.888747 
z
" style="fill:#1f77b4;fill-opacity:0.75;stroke:#4c4c4c;stroke-linejoin:miter;stroke-width:0.5;"/>
   </g>
   <g id="patch_41">
    <path clip-path="url(#ped198395d8)" d="M 384.120625 224.64 
L 392.993125 224.64 
L 392.993125 222.888747 
L 384.120625 222.888747 
z
" style="fill:#1f77b4;fill-opacity:0.75;stroke:#4c4c4c;stroke-linejoin:miter;stroke-width:0.5;"/>
   </g>
   <g id="patch_42">
    <path clip-path="url(#ped198395d8)" d="M 392.993125 224.64 
L 401.865625 224.64 
L 401.865625 223.32656 
L 392.993125 223.32656 
z
" style="fill:#1f77b4;fill-opacity:0.75;stroke:#4c4c4c;stroke-linejoin:miter;stroke-width:0.5;"/>
   </g>
   <g id="patch_43">
    <path clip-path="url(#ped198395d8)" d="M 401.865625 224.64 
L 410.738125 224.64 
L 410.738125 222.888747 
L 401.865625 222.888747 
z
" style="fill:#1f77b4;fill-opacity:0.75;stroke:#4c4c4c;stroke-linejoin:miter;stroke-width:0.5;"/>
   </g>
   <g id="patch_44">
    <path clip-path="url(#ped198395d8)" d="M 410.738125 224.64 
L 419.610625 224.64 
L 419.610625 222.888747 
L 410.738125 222.888747 
z
" style="fill:#1f77b4;fill-opacity:0.75;stroke:#4c4c4c;stroke-linejoin:miter;stroke-width:0.5;"/>
   </g>
   <g id="patch_45">
    <path clip-path="url(#ped198395d8)" d="M 419.610625 224.64 
L 428.483125 224.64 
L 428.483125 223.764373 
L 419.610625 223.764373 
z
" style="fill:#1f77b4;fill-opacity:0.75;stroke:#4c4c4c;stroke-linejoin:miter;stroke-width:0.5;"/>
   </g>
   <g id="patch_46">
    <path clip-path="url(#ped198395d8)" d="M 428.483125 224.64 
L 437.355625 224.64 
L 437.355625 224.202187 
L 428.483125 224.202187 
z
" style="fill:#1f77b4;fill-opacity:0.75;stroke:#4c4c4c;stroke-linejoin:miter;stroke-width:0.5;"/>
   </g>
   <g id="patch_47">
    <path clip-path="url(#ped198395d8)" d="M 437.355625 224.64 
L 446.228125 224.64 
L 446.228125 223.764373 
L 437.355625 223.764373 
z
" style="fill:#1f77b4;fill-opacity:0.75;stroke:#4c4c4c;stroke-linejoin:miter;stroke-width:0.5;"/>
   </g>
   <g id="patch_48">
    <path clip-path="url(#ped198395d8)" d="M 446.228125 224.64 
L 455.100625 224.64 
L 455.100625 222.888747 
L 446.228125 222.888747 
z
" style="fill:#1f77b4;fill-opacity:0.75;stroke:#4c4c4c;stroke-linejoin:miter;stroke-width:0.5;"/>
   </g>
   <g id="patch_49">
    <path clip-path="url(#ped198395d8)" d="M 455.100625 224.64 
L 463.973125 224.64 
L 463.973125 224.202187 
L 455.100625 224.202187 
z
" style="fill:#1f77b4;fill-opacity:0.75;stroke:#4c4c4c;stroke-linejoin:miter;stroke-width:0.5;"/>
   </g>
   <g id="patch_50">
    <path clip-path="url(#ped198395d8)" d="M 463.973125 224.64 
L 472.845625 224.64 
L 472.845625 222.888747 
L 463.973125 222.888747 
z
" style="fill:#1f77b4;fill-opacity:0.75;stroke:#4c4c4c;stroke-linejoin:miter;stroke-width:0.5;"/>
   </g>
   <g id="patch_51">
    <path clip-path="url(#ped198395d8)" d="M 472.845625 224.64 
L 481.718125 224.64 
L 481.718125 223.764373 
L 472.845625 223.764373 
z
" style="fill:#1f77b4;fill-opacity:0.75;stroke:#4c4c4c;stroke-linejoin:miter;stroke-width:0.5;"/>
   </g>
   <g id="patch_52">
    <path clip-path="url(#ped198395d8)" d="M 481.718125 224.64 
L 490.590625 224.64 
L 490.590625 224.64 
L 481.718125 224.64 
z
" style="fill:#1f77b4;fill-opacity:0.75;stroke:#4c4c4c;stroke-linejoin:miter;stroke-width:0.5;"/>
   </g>
   <g id="patch_53">
    <path clip-path="url(#ped198395d8)" d="M 490.590625 224.64 
L 499.463125 224.64 
L 499.463125 224.202187 
L 490.590625 224.202187 
z
" style="fill:#1f77b4;fill-opacity:0.75;stroke:#4c4c4c;stroke-linejoin:miter;stroke-width:0.5;"/>
   </g>
   <g id="patch_54">
    <path clip-path="url(#ped198395d8)" d="M 499.463125 224.64 
L 508.335625 224.64 
L 508.335625 224.202187 
L 499.463125 224.202187 
z
" style="fill:#1f77b4;fill-opacity:0.75;stroke:#4c4c4c;stroke-linejoin:miter;stroke-width:0.5;"/>
   </g>
   <g id="patch_55">
    <path clip-path="url(#ped198395d8)" d="M 508.335625 224.64 
L 517.208125 224.64 
L 517.208125 224.64 
L 508.335625 224.64 
z
" style="fill:#1f77b4;fill-opacity:0.75;stroke:#4c4c4c;stroke-linejoin:miter;stroke-width:0.5;"/>
   </g>
   <g id="patch_56">
    <path clip-path="url(#ped198395d8)" d="M 517.208125 224.64 
L 526.080625 224.64 
L 526.080625 224.64 
L 517.208125 224.64 
z
" style="fill:#1f77b4;fill-opacity:0.75;stroke:#4c4c4c;stroke-linejoin:miter;stroke-width:0.5;"/>
   </g>
   <g id="patch_57">
    <path clip-path="url(#ped198395d8)" d="M 526.080625 224.64 
L 534.953125 224.64 
L 534.953125 224.64 
L 526.080625 224.64 
z
" style="fill:#1f77b4;fill-opacity:0.75;stroke:#4c4c4c;stroke-linejoin:miter;stroke-width:0.5;"/>
   </g>
   <g id="patch_58">
    <path clip-path="url(#ped198395d8)" d="M 534.953125 224.64 
L 543.825625 224.64 
L 543.825625 223.764373 
L 534.953125 223.764373 
z
" style="fill:#1f77b4;fill-opacity:0.75;stroke:#4c4c4c;stroke-linejoin:miter;stroke-width:0.5;"/>
   </g>
   <g id="patch_59">
    <path clip-path="url(#ped198395d8)" d="M 543.825625 224.64 
L 552.698125 224.64 
L 552.698125 224.64 
L 543.825625 224.64 
z
" style="fill:#1f77b4;fill-opacity:0.75;stroke:#4c4c4c;stroke-linejoin:miter;stroke-width:0.5;"/>
   </g>
   <g id="patch_60">
    <path clip-path="url(#ped198395d8)" d="M 552.698125 224.64 
L 561.570625 224.64 
L 561.570625 224.64 
L 552.698125 224.64 
z
" style="fill:#1f77b4;fill-opacity:0.75;stroke:#4c4c4c;stroke-linejoin:miter;stroke-width:0.5;"/>
   </g>
   <g id="patch_61">
    <path clip-path="url(#ped198395d8)" d="M 561.570625 224.64 
L 570.443125 224.64 
L 570.443125 224.64 
L 561.570625 224.64 
z
" style="fill:#1f77b4;fill-opacity:0.75;stroke:#4c4c4c;stroke-linejoin:miter;stroke-width:0.5;"/>
   </g>
   <g id="patch_62">
    <path clip-path="url(#ped198395d8)" d="M 570.443125 224.64 
L 579.315625 224.64 
L 579.315625 223.764373 
L 570.443125 223.764373 
z
" style="fill:#1f77b4;fill-opacity:0.75;stroke:#4c4c4c;stroke-linejoin:miter;stroke-width:0.5;"/>
   </g>
   <g id="patch_63">
    <path clip-path="url(#ped198395d8)" d="M 579.315625 224.64 
L 588.188125 224.64 
L 588.188125 224.64 
L 579.315625 224.64 
z
" style="fill:#1f77b4;fill-opacity:0.75;stroke:#4c4c4c;stroke-linejoin:miter;stroke-width:0.5;"/>
   </g>
   <g id="patch_64">
    <path clip-path="url(#ped198395d8)" d="M 588.188125 224.64 
L 597.060625 224.64 
L 597.060625 224.64 
L 588.188125 224.64 
z
" style="fill:#1f77b4;fill-opacity:0.75;stroke:#4c4c4c;stroke-linejoin:miter;stroke-width:0.5;"/>
   </g>
   <g id="patch_65">
    <path clip-path="url(#ped198395d8)" d="M 597.060625 224.64 
L 605.933125 224.64 
L 605.933125 224.64 
L 597.060625 224.64 
z
" style="fill:#1f77b4;fill-opacity:0.75;stroke:#4c4c4c;stroke-linejoin:miter;stroke-width:0.5;"/>
   </g>
   <g id="patch_66">
    <path clip-path="url(#ped198395d8)" d="M 605.933125 224.64 
L 614.805625 224.64 
L 614.805625 224.202187 
L 605.933125 224.202187 
z
" style="fill:#1f77b4;fill-opacity:0.75;stroke:#4c4c4c;stroke-linejoin:miter;stroke-width:0.5;"/>
   </g>
   <g id="patch_67">
    <path clip-path="url(#ped198395d8)" d="M 614.805625 224.64 
L 623.678125 224.64 
L 623.678125 224.64 
L 614.805625 224.64 
z
" style="fill:#1f77b4;fill-opacity:0.75;stroke:#4c4c4c;stroke-linejoin:miter;stroke-width:0.5;"/>
   </g>
   <g id="patch_68">
    <path clip-path="url(#ped198395d8)" d="M 623.678125 224.64 
L 632.550625 224.64 
L 632.550625 224.64 
L 623.678125 224.64 
z
" style="fill:#1f77b4;fill-opacity:0.75;stroke:#4c4c4c;stroke-linejoin:miter;stroke-width:0.5;"/>
   </g>
   <g id="patch_69">
    <path clip-path="url(#ped198395d8)" d="M 632.550625 224.64 
L 641.423125 224.64 
L 641.423125 224.64 
L 632.550625 224.64 
z
" style="fill:#1f77b4;fill-opacity:0.75;stroke:#4c4c4c;stroke-linejoin:miter;stroke-width:0.5;"/>
   </g>
   <g id="patch_70">
    <path clip-path="url(#ped198395d8)" d="M 641.423125 224.64 
L 650.295625 224.64 
L 650.295625 224.64 
L 641.423125 224.64 
z
" style="fill:#1f77b4;fill-opacity:0.75;stroke:#4c4c4c;stroke-linejoin:miter;stroke-width:0.5;"/>
   </g>
   <g id="patch_71">
    <path clip-path="url(#ped198395d8)" d="M 650.295625 224.64 
L 659.168125 224.64 
L 659.168125 224.64 
L 650.295625 224.64 
z
" style="fill:#1f77b4;fill-opacity:0.75;stroke:#4c4c4c;stroke-linejoin:miter;stroke-width:0.5;"/>
   </g>
   <g id="patch_72">
    <path clip-path="url(#ped198395d8)" d="M 659.168125 224.64 
L 668.040625 224.64 
L 668.040625 224.202187 
L 659.168125 224.202187 
z
" style="fill:#1f77b4;fill-opacity:0.75;stroke:#4c4c4c;stroke-linejoin:miter;stroke-width:0.5;"/>
   </g>
   <g id="patch_73">
    <path clip-path="url(#ped198395d8)" d="M 668.040625 224.64 
L 676.913125 224.64 
L 676.913125 224.64 
L 668.040625 224.64 
z
" style="fill:#1f77b4;fill-opacity:0.75;stroke:#4c4c4c;stroke-linejoin:miter;stroke-width:0.5;"/>
   </g>
   <g id="patch_74">
    <path clip-path="url(#ped198395d8)" d="M 676.913125 224.64 
L 685.785625 224.64 
L 685.785625 224.64 
L 676.913125 224.64 
z
" style="fill:#1f77b4;fill-opacity:0.75;stroke:#4c4c4c;stroke-linejoin:miter;stroke-width:0.5;"/>
   </g>
   <g id="patch_75">
    <path clip-path="url(#ped198395d8)" d="M 685.785625 224.64 
L 694.658125 224.64 
L 694.658125 224.64 
L 685.785625 224.64 
z
" style="fill:#1f77b4;fill-opacity:0.75;stroke:#4c4c4c;stroke-linejoin:miter;stroke-width:0.5;"/>
   </g>
   <g id="patch_76">
    <path clip-path="url(#ped198395d8)" d="M 694.658125 224.64 
L 703.530625 224.64 
L 703.530625 224.64 
L 694.658125 224.64 
z
" style="fill:#1f77b4;fill-opacity:0.75;stroke:#4c4c4c;stroke-linejoin:miter;stroke-width:0.5;"/>
   </g>
   <g id="patch_77">
    <path clip-path="url(#ped198395d8)" d="M 703.530625 224.64 
L 712.403125 224.64 
L 712.403125 224.64 
L 703.530625 224.64 
z
" style="fill:#1f77b4;fill-opacity:0.75;stroke:#4c4c4c;stroke-linejoin:miter;stroke-width:0.5;"/>
   </g>
   <g id="patch_78">
    <path clip-path="url(#ped198395d8)" d="M 712.403125 224.64 
L 721.275625 224.64 
L 721.275625 224.202187 
L 712.403125 224.202187 
z
" style="fill:#1f77b4;fill-opacity:0.75;stroke:#4c4c4c;stroke-linejoin:miter;stroke-width:0.5;"/>
   </g>
   <g id="patch_79">
    <path clip-path="url(#ped198395d8)" d="M 721.275625 224.64 
L 730.148125 224.64 
L 730.148125 224.64 
L 721.275625 224.64 
z
" style="fill:#1f77b4;fill-opacity:0.75;stroke:#4c4c4c;stroke-linejoin:miter;stroke-width:0.5;"/>
   </g>
   <g id="patch_80">
    <path clip-path="url(#ped198395d8)" d="M 730.148125 224.64 
L 739.020625 224.64 
L 739.020625 224.64 
L 730.148125 224.64 
z
" style="fill:#1f77b4;fill-opacity:0.75;stroke:#4c4c4c;stroke-linejoin:miter;stroke-width:0.5;"/>
   </g>
   <g id="patch_81">
    <path clip-path="url(#ped198395d8)" d="M 739.020625 224.64 
L 747.893125 224.64 
L 747.893125 224.64 
L 739.020625 224.64 
z
" style="fill:#1f77b4;fill-opacity:0.75;stroke:#4c4c4c;stroke-linejoin:miter;stroke-width:0.5;"/>
   </g>
   <g id="patch_82">
    <path clip-path="url(#ped198395d8)" d="M 747.893125 224.64 
L 756.765625 224.64 
L 756.765625 224.64 
L 747.893125 224.64 
z
" style="fill:#1f77b4;fill-opacity:0.75;stroke:#4c4c4c;stroke-linejoin:miter;stroke-width:0.5;"/>
   </g>
   <g id="patch_83">
    <path clip-path="url(#ped198395d8)" d="M 756.765625 224.64 
L 765.638125 224.64 
L 765.638125 224.64 
L 756.765625 224.64 
z
" style="fill:#1f77b4;fill-opacity:0.75;stroke:#4c4c4c;stroke-linejoin:miter;stroke-width:0.5;"/>
   </g>
   <g id="patch_84">
    <path clip-path="url(#ped198395d8)" d="M 765.638125 224.64 
L 774.510625 224.64 
L 774.510625 224.64 
L 765.638125 224.64 
z
" style="fill:#1f77b4;fill-opacity:0.75;stroke:#4c4c4c;stroke-linejoin:miter;stroke-width:0.5;"/>
   </g>
   <g id="patch_85">
    <path clip-path="url(#ped198395d8)" d="M 774.510625 224.64 
L 783.383125 224.64 
L 783.383125 224.64 
L 774.510625 224.64 
z
" style="fill:#1f77b4;fill-opacity:0.75;stroke:#4c4c4c;stroke-linejoin:miter;stroke-width:0.5;"/>
   </g>
   <g id="patch_86">
    <path clip-path="url(#ped198395d8)" d="M 783.383125 224.64 
L 792.255625 224.64 
L 792.255625 224.64 
L 783.383125 224.64 
z
" style="fill:#1f77b4;fill-opacity:0.75;stroke:#4c4c4c;stroke-linejoin:miter;stroke-width:0.5;"/>
   </g>
   <g id="patch_87">
    <path clip-path="url(#ped198395d8)" d="M 792.255625 224.64 
L 801.128125 224.64 
L 801.128125 224.64 
L 792.255625 224.64 
z
" style="fill:#1f77b4;fill-opacity:0.75;stroke:#4c4c4c;stroke-linejoin:miter;stroke-width:0.5;"/>
   </g>
   <g id="patch_88">
    <path clip-path="url(#ped198395d8)" d="M 801.128125 224.64 
L 810.000625 224.64 
L 810.000625 224.64 
L 801.128125 224.64 
z
" style="fill:#1f77b4;fill-opacity:0.75;stroke:#4c4c4c;stroke-linejoin:miter;stroke-width:0.5;"/>
   </g>
   <g id="patch_89">
    <path clip-path="url(#ped198395d8)" d="M 810.000625 224.64 
L 818.873125 224.64 
L 818.873125 224.64 
L 810.000625 224.64 
z
" style="fill:#1f77b4;fill-opacity:0.75;stroke:#4c4c4c;stroke-linejoin:miter;stroke-width:0.5;"/>
   </g>
   <g id="patch_90">
    <path clip-path="url(#ped198395d8)" d="M 818.873125 224.64 
L 827.745625 224.64 
L 827.745625 224.64 
L 818.873125 224.64 
z
" style="fill:#1f77b4;fill-opacity:0.75;stroke:#4c4c4c;stroke-linejoin:miter;stroke-width:0.5;"/>
   </g>
   <g id="patch_91">
    <path clip-path="url(#ped198395d8)" d="M 827.745625 224.64 
L 836.618125 224.64 
L 836.618125 224.64 
L 827.745625 224.64 
z
" style="fill:#1f77b4;fill-opacity:0.75;stroke:#4c4c4c;stroke-linejoin:miter;stroke-width:0.5;"/>
   </g>
   <g id="patch_92">
    <path clip-path="url(#ped198395d8)" d="M 836.618125 224.64 
L 845.490625 224.64 
L 845.490625 224.202187 
L 836.618125 224.202187 
z
" style="fill:#1f77b4;fill-opacity:0.75;stroke:#4c4c4c;stroke-linejoin:miter;stroke-width:0.5;"/>
   </g>
   <g id="patch_93">
    <path clip-path="url(#ped198395d8)" d="M 845.490625 224.64 
L 854.363125 224.64 
L 854.363125 224.64 
L 845.490625 224.64 
z
" style="fill:#1f77b4;fill-opacity:0.75;stroke:#4c4c4c;stroke-linejoin:miter;stroke-width:0.5;"/>
   </g>
   <g id="patch_94">
    <path clip-path="url(#ped198395d8)" d="M 854.363125 224.64 
L 863.235625 224.64 
L 863.235625 224.64 
L 854.363125 224.64 
z
" style="fill:#1f77b4;fill-opacity:0.75;stroke:#4c4c4c;stroke-linejoin:miter;stroke-width:0.5;"/>
   </g>
   <g id="patch_95">
    <path clip-path="url(#ped198395d8)" d="M 863.235625 224.64 
L 872.108125 224.64 
L 872.108125 224.202187 
L 863.235625 224.202187 
z
" style="fill:#1f77b4;fill-opacity:0.75;stroke:#4c4c4c;stroke-linejoin:miter;stroke-width:0.5;"/>
   </g>
   <g id="matplotlib.axis_1">
    <g id="xtick_1">
     <g id="line2d_1">
      <defs>
       <path d="M 0 0 
L 0 3.5 
" id="m9d9f01dcb0" style="stroke:#000000;stroke-width:0.8;"/>
      </defs>
      <g>
       <use style="stroke:#000000;stroke-width:0.8;" x="46.965625" xlink:href="#m9d9f01dcb0" y="224.64"/>
      </g>
     </g>
     <g id="text_1">
      <!-- 0 -->
      <g transform="translate(43.784375 239.238438)scale(0.1 -0.1)">
       <defs>
        <path d="M 2034 4250 
Q 1547 4250 1301 3770 
Q 1056 3291 1056 2328 
Q 1056 1369 1301 889 
Q 1547 409 2034 409 
Q 2525 409 2770 889 
Q 3016 1369 3016 2328 
Q 3016 3291 2770 3770 
Q 2525 4250 2034 4250 
z
M 2034 4750 
Q 2819 4750 3233 4129 
Q 3647 3509 3647 2328 
Q 3647 1150 3233 529 
Q 2819 -91 2034 -91 
Q 1250 -91 836 529 
Q 422 1150 422 2328 
Q 422 3509 836 4129 
Q 1250 4750 2034 4750 
z
" id="DejaVuSans-30" transform="scale(0.015625)"/>
       </defs>
       <use xlink:href="#DejaVuSans-30"/>
      </g>
     </g>
    </g>
    <g id="xtick_2">
     <g id="line2d_2">
      <g>
       <use style="stroke:#000000;stroke-width:0.8;" x="95.790625" xlink:href="#m9d9f01dcb0" y="224.64"/>
      </g>
     </g>
     <g id="text_2">
      <!-- 10 -->
      <g transform="translate(89.428125 239.238438)scale(0.1 -0.1)">
       <defs>
        <path d="M 794 531 
L 1825 531 
L 1825 4091 
L 703 3866 
L 703 4441 
L 1819 4666 
L 2450 4666 
L 2450 531 
L 3481 531 
L 3481 0 
L 794 0 
L 794 531 
z
" id="DejaVuSans-31" transform="scale(0.015625)"/>
       </defs>
       <use xlink:href="#DejaVuSans-31"/>
       <use x="63.623047" xlink:href="#DejaVuSans-30"/>
      </g>
     </g>
    </g>
    <g id="xtick_3">
     <g id="line2d_3">
      <g>
       <use style="stroke:#000000;stroke-width:0.8;" x="144.615625" xlink:href="#m9d9f01dcb0" y="224.64"/>
      </g>
     </g>
     <g id="text_3">
      <!-- 20 -->
      <g transform="translate(138.253125 239.238438)scale(0.1 -0.1)">
       <defs>
        <path d="M 1228 531 
L 3431 531 
L 3431 0 
L 469 0 
L 469 531 
Q 828 903 1448 1529 
Q 2069 2156 2228 2338 
Q 2531 2678 2651 2914 
Q 2772 3150 2772 3378 
Q 2772 3750 2511 3984 
Q 2250 4219 1831 4219 
Q 1534 4219 1204 4116 
Q 875 4013 500 3803 
L 500 4441 
Q 881 4594 1212 4672 
Q 1544 4750 1819 4750 
Q 2544 4750 2975 4387 
Q 3406 4025 3406 3419 
Q 3406 3131 3298 2873 
Q 3191 2616 2906 2266 
Q 2828 2175 2409 1742 
Q 1991 1309 1228 531 
z
" id="DejaVuSans-32" transform="scale(0.015625)"/>
       </defs>
       <use xlink:href="#DejaVuSans-32"/>
       <use x="63.623047" xlink:href="#DejaVuSans-30"/>
      </g>
     </g>
    </g>
    <g id="xtick_4">
     <g id="line2d_4">
      <g>
       <use style="stroke:#000000;stroke-width:0.8;" x="193.440625" xlink:href="#m9d9f01dcb0" y="224.64"/>
      </g>
     </g>
     <g id="text_4">
      <!-- 30 -->
      <g transform="translate(187.078125 239.238438)scale(0.1 -0.1)">
       <defs>
        <path d="M 2597 2516 
Q 3050 2419 3304 2112 
Q 3559 1806 3559 1356 
Q 3559 666 3084 287 
Q 2609 -91 1734 -91 
Q 1441 -91 1130 -33 
Q 819 25 488 141 
L 488 750 
Q 750 597 1062 519 
Q 1375 441 1716 441 
Q 2309 441 2620 675 
Q 2931 909 2931 1356 
Q 2931 1769 2642 2001 
Q 2353 2234 1838 2234 
L 1294 2234 
L 1294 2753 
L 1863 2753 
Q 2328 2753 2575 2939 
Q 2822 3125 2822 3475 
Q 2822 3834 2567 4026 
Q 2313 4219 1838 4219 
Q 1578 4219 1281 4162 
Q 984 4106 628 3988 
L 628 4550 
Q 988 4650 1302 4700 
Q 1616 4750 1894 4750 
Q 2613 4750 3031 4423 
Q 3450 4097 3450 3541 
Q 3450 3153 3228 2886 
Q 3006 2619 2597 2516 
z
" id="DejaVuSans-33" transform="scale(0.015625)"/>
       </defs>
       <use xlink:href="#DejaVuSans-33"/>
       <use x="63.623047" xlink:href="#DejaVuSans-30"/>
      </g>
     </g>
    </g>
    <g id="xtick_5">
     <g id="line2d_5">
      <g>
       <use style="stroke:#000000;stroke-width:0.8;" x="242.265625" xlink:href="#m9d9f01dcb0" y="224.64"/>
      </g>
     </g>
     <g id="text_5">
      <!-- 40 -->
      <g transform="translate(235.903125 239.238438)scale(0.1 -0.1)">
       <defs>
        <path d="M 2419 4116 
L 825 1625 
L 2419 1625 
L 2419 4116 
z
M 2253 4666 
L 3047 4666 
L 3047 1625 
L 3713 1625 
L 3713 1100 
L 3047 1100 
L 3047 0 
L 2419 0 
L 2419 1100 
L 313 1100 
L 313 1709 
L 2253 4666 
z
" id="DejaVuSans-34" transform="scale(0.015625)"/>
       </defs>
       <use xlink:href="#DejaVuSans-34"/>
       <use x="63.623047" xlink:href="#DejaVuSans-30"/>
      </g>
     </g>
    </g>
    <g id="xtick_6">
     <g id="line2d_6">
      <g>
       <use style="stroke:#000000;stroke-width:0.8;" x="291.090625" xlink:href="#m9d9f01dcb0" y="224.64"/>
      </g>
     </g>
     <g id="text_6">
      <!-- 50 -->
      <g transform="translate(284.728125 239.238438)scale(0.1 -0.1)">
       <defs>
        <path d="M 691 4666 
L 3169 4666 
L 3169 4134 
L 1269 4134 
L 1269 2991 
Q 1406 3038 1543 3061 
Q 1681 3084 1819 3084 
Q 2600 3084 3056 2656 
Q 3513 2228 3513 1497 
Q 3513 744 3044 326 
Q 2575 -91 1722 -91 
Q 1428 -91 1123 -41 
Q 819 9 494 109 
L 494 744 
Q 775 591 1075 516 
Q 1375 441 1709 441 
Q 2250 441 2565 725 
Q 2881 1009 2881 1497 
Q 2881 1984 2565 2268 
Q 2250 2553 1709 2553 
Q 1456 2553 1204 2497 
Q 953 2441 691 2322 
L 691 4666 
z
" id="DejaVuSans-35" transform="scale(0.015625)"/>
       </defs>
       <use xlink:href="#DejaVuSans-35"/>
       <use x="63.623047" xlink:href="#DejaVuSans-30"/>
      </g>
     </g>
    </g>
    <g id="xtick_7">
     <g id="line2d_7">
      <g>
       <use style="stroke:#000000;stroke-width:0.8;" x="339.915625" xlink:href="#m9d9f01dcb0" y="224.64"/>
      </g>
     </g>
     <g id="text_7">
      <!-- 60 -->
      <g transform="translate(333.553125 239.238438)scale(0.1 -0.1)">
       <defs>
        <path d="M 2113 2584 
Q 1688 2584 1439 2293 
Q 1191 2003 1191 1497 
Q 1191 994 1439 701 
Q 1688 409 2113 409 
Q 2538 409 2786 701 
Q 3034 994 3034 1497 
Q 3034 2003 2786 2293 
Q 2538 2584 2113 2584 
z
M 3366 4563 
L 3366 3988 
Q 3128 4100 2886 4159 
Q 2644 4219 2406 4219 
Q 1781 4219 1451 3797 
Q 1122 3375 1075 2522 
Q 1259 2794 1537 2939 
Q 1816 3084 2150 3084 
Q 2853 3084 3261 2657 
Q 3669 2231 3669 1497 
Q 3669 778 3244 343 
Q 2819 -91 2113 -91 
Q 1303 -91 875 529 
Q 447 1150 447 2328 
Q 447 3434 972 4092 
Q 1497 4750 2381 4750 
Q 2619 4750 2861 4703 
Q 3103 4656 3366 4563 
z
" id="DejaVuSans-36" transform="scale(0.015625)"/>
       </defs>
       <use xlink:href="#DejaVuSans-36"/>
       <use x="63.623047" xlink:href="#DejaVuSans-30"/>
      </g>
     </g>
    </g>
    <g id="xtick_8">
     <g id="line2d_8">
      <g>
       <use style="stroke:#000000;stroke-width:0.8;" x="388.740625" xlink:href="#m9d9f01dcb0" y="224.64"/>
      </g>
     </g>
     <g id="text_8">
      <!-- 70 -->
      <g transform="translate(382.378125 239.238438)scale(0.1 -0.1)">
       <defs>
        <path d="M 525 4666 
L 3525 4666 
L 3525 4397 
L 1831 0 
L 1172 0 
L 2766 4134 
L 525 4134 
L 525 4666 
z
" id="DejaVuSans-37" transform="scale(0.015625)"/>
       </defs>
       <use xlink:href="#DejaVuSans-37"/>
       <use x="63.623047" xlink:href="#DejaVuSans-30"/>
      </g>
     </g>
    </g>
    <g id="xtick_9">
     <g id="line2d_9">
      <g>
       <use style="stroke:#000000;stroke-width:0.8;" x="437.565625" xlink:href="#m9d9f01dcb0" y="224.64"/>
      </g>
     </g>
     <g id="text_9">
      <!-- 80 -->
      <g transform="translate(431.203125 239.238438)scale(0.1 -0.1)">
       <defs>
        <path d="M 2034 2216 
Q 1584 2216 1326 1975 
Q 1069 1734 1069 1313 
Q 1069 891 1326 650 
Q 1584 409 2034 409 
Q 2484 409 2743 651 
Q 3003 894 3003 1313 
Q 3003 1734 2745 1975 
Q 2488 2216 2034 2216 
z
M 1403 2484 
Q 997 2584 770 2862 
Q 544 3141 544 3541 
Q 544 4100 942 4425 
Q 1341 4750 2034 4750 
Q 2731 4750 3128 4425 
Q 3525 4100 3525 3541 
Q 3525 3141 3298 2862 
Q 3072 2584 2669 2484 
Q 3125 2378 3379 2068 
Q 3634 1759 3634 1313 
Q 3634 634 3220 271 
Q 2806 -91 2034 -91 
Q 1263 -91 848 271 
Q 434 634 434 1313 
Q 434 1759 690 2068 
Q 947 2378 1403 2484 
z
M 1172 3481 
Q 1172 3119 1398 2916 
Q 1625 2713 2034 2713 
Q 2441 2713 2670 2916 
Q 2900 3119 2900 3481 
Q 2900 3844 2670 4047 
Q 2441 4250 2034 4250 
Q 1625 4250 1398 4047 
Q 1172 3844 1172 3481 
z
" id="DejaVuSans-38" transform="scale(0.015625)"/>
       </defs>
       <use xlink:href="#DejaVuSans-38"/>
       <use x="63.623047" xlink:href="#DejaVuSans-30"/>
      </g>
     </g>
    </g>
    <g id="text_10">
     <!-- Duration (in days) -->
     <g transform="translate(197.110156 252.916563)scale(0.1 -0.1)">
      <defs>
       <path d="M 1259 4147 
L 1259 519 
L 2022 519 
Q 2988 519 3436 956 
Q 3884 1394 3884 2338 
Q 3884 3275 3436 3711 
Q 2988 4147 2022 4147 
L 1259 4147 
z
M 628 4666 
L 1925 4666 
Q 3281 4666 3915 4102 
Q 4550 3538 4550 2338 
Q 4550 1131 3912 565 
Q 3275 0 1925 0 
L 628 0 
L 628 4666 
z
" id="DejaVuSans-44" transform="scale(0.015625)"/>
       <path d="M 544 1381 
L 544 3500 
L 1119 3500 
L 1119 1403 
Q 1119 906 1312 657 
Q 1506 409 1894 409 
Q 2359 409 2629 706 
Q 2900 1003 2900 1516 
L 2900 3500 
L 3475 3500 
L 3475 0 
L 2900 0 
L 2900 538 
Q 2691 219 2414 64 
Q 2138 -91 1772 -91 
Q 1169 -91 856 284 
Q 544 659 544 1381 
z
M 1991 3584 
L 1991 3584 
z
" id="DejaVuSans-75" transform="scale(0.015625)"/>
       <path d="M 2631 2963 
Q 2534 3019 2420 3045 
Q 2306 3072 2169 3072 
Q 1681 3072 1420 2755 
Q 1159 2438 1159 1844 
L 1159 0 
L 581 0 
L 581 3500 
L 1159 3500 
L 1159 2956 
Q 1341 3275 1631 3429 
Q 1922 3584 2338 3584 
Q 2397 3584 2469 3576 
Q 2541 3569 2628 3553 
L 2631 2963 
z
" id="DejaVuSans-72" transform="scale(0.015625)"/>
       <path d="M 2194 1759 
Q 1497 1759 1228 1600 
Q 959 1441 959 1056 
Q 959 750 1161 570 
Q 1363 391 1709 391 
Q 2188 391 2477 730 
Q 2766 1069 2766 1631 
L 2766 1759 
L 2194 1759 
z
M 3341 1997 
L 3341 0 
L 2766 0 
L 2766 531 
Q 2569 213 2275 61 
Q 1981 -91 1556 -91 
Q 1019 -91 701 211 
Q 384 513 384 1019 
Q 384 1609 779 1909 
Q 1175 2209 1959 2209 
L 2766 2209 
L 2766 2266 
Q 2766 2663 2505 2880 
Q 2244 3097 1772 3097 
Q 1472 3097 1187 3025 
Q 903 2953 641 2809 
L 641 3341 
Q 956 3463 1253 3523 
Q 1550 3584 1831 3584 
Q 2591 3584 2966 3190 
Q 3341 2797 3341 1997 
z
" id="DejaVuSans-61" transform="scale(0.015625)"/>
       <path d="M 1172 4494 
L 1172 3500 
L 2356 3500 
L 2356 3053 
L 1172 3053 
L 1172 1153 
Q 1172 725 1289 603 
Q 1406 481 1766 481 
L 2356 481 
L 2356 0 
L 1766 0 
Q 1100 0 847 248 
Q 594 497 594 1153 
L 594 3053 
L 172 3053 
L 172 3500 
L 594 3500 
L 594 4494 
L 1172 4494 
z
" id="DejaVuSans-74" transform="scale(0.015625)"/>
       <path d="M 603 3500 
L 1178 3500 
L 1178 0 
L 603 0 
L 603 3500 
z
M 603 4863 
L 1178 4863 
L 1178 4134 
L 603 4134 
L 603 4863 
z
" id="DejaVuSans-69" transform="scale(0.015625)"/>
       <path d="M 1959 3097 
Q 1497 3097 1228 2736 
Q 959 2375 959 1747 
Q 959 1119 1226 758 
Q 1494 397 1959 397 
Q 2419 397 2687 759 
Q 2956 1122 2956 1747 
Q 2956 2369 2687 2733 
Q 2419 3097 1959 3097 
z
M 1959 3584 
Q 2709 3584 3137 3096 
Q 3566 2609 3566 1747 
Q 3566 888 3137 398 
Q 2709 -91 1959 -91 
Q 1206 -91 779 398 
Q 353 888 353 1747 
Q 353 2609 779 3096 
Q 1206 3584 1959 3584 
z
" id="DejaVuSans-6f" transform="scale(0.015625)"/>
       <path d="M 3513 2113 
L 3513 0 
L 2938 0 
L 2938 2094 
Q 2938 2591 2744 2837 
Q 2550 3084 2163 3084 
Q 1697 3084 1428 2787 
Q 1159 2491 1159 1978 
L 1159 0 
L 581 0 
L 581 3500 
L 1159 3500 
L 1159 2956 
Q 1366 3272 1645 3428 
Q 1925 3584 2291 3584 
Q 2894 3584 3203 3211 
Q 3513 2838 3513 2113 
z
" id="DejaVuSans-6e" transform="scale(0.015625)"/>
       <path id="DejaVuSans-20" transform="scale(0.015625)"/>
       <path d="M 1984 4856 
Q 1566 4138 1362 3434 
Q 1159 2731 1159 2009 
Q 1159 1288 1364 580 
Q 1569 -128 1984 -844 
L 1484 -844 
Q 1016 -109 783 600 
Q 550 1309 550 2009 
Q 550 2706 781 3412 
Q 1013 4119 1484 4856 
L 1984 4856 
z
" id="DejaVuSans-28" transform="scale(0.015625)"/>
       <path d="M 2906 2969 
L 2906 4863 
L 3481 4863 
L 3481 0 
L 2906 0 
L 2906 525 
Q 2725 213 2448 61 
Q 2172 -91 1784 -91 
Q 1150 -91 751 415 
Q 353 922 353 1747 
Q 353 2572 751 3078 
Q 1150 3584 1784 3584 
Q 2172 3584 2448 3432 
Q 2725 3281 2906 2969 
z
M 947 1747 
Q 947 1113 1208 752 
Q 1469 391 1925 391 
Q 2381 391 2643 752 
Q 2906 1113 2906 1747 
Q 2906 2381 2643 2742 
Q 2381 3103 1925 3103 
Q 1469 3103 1208 2742 
Q 947 2381 947 1747 
z
" id="DejaVuSans-64" transform="scale(0.015625)"/>
       <path d="M 2059 -325 
Q 1816 -950 1584 -1140 
Q 1353 -1331 966 -1331 
L 506 -1331 
L 506 -850 
L 844 -850 
Q 1081 -850 1212 -737 
Q 1344 -625 1503 -206 
L 1606 56 
L 191 3500 
L 800 3500 
L 1894 763 
L 2988 3500 
L 3597 3500 
L 2059 -325 
z
" id="DejaVuSans-79" transform="scale(0.015625)"/>
       <path d="M 2834 3397 
L 2834 2853 
Q 2591 2978 2328 3040 
Q 2066 3103 1784 3103 
Q 1356 3103 1142 2972 
Q 928 2841 928 2578 
Q 928 2378 1081 2264 
Q 1234 2150 1697 2047 
L 1894 2003 
Q 2506 1872 2764 1633 
Q 3022 1394 3022 966 
Q 3022 478 2636 193 
Q 2250 -91 1575 -91 
Q 1294 -91 989 -36 
Q 684 19 347 128 
L 347 722 
Q 666 556 975 473 
Q 1284 391 1588 391 
Q 1994 391 2212 530 
Q 2431 669 2431 922 
Q 2431 1156 2273 1281 
Q 2116 1406 1581 1522 
L 1381 1569 
Q 847 1681 609 1914 
Q 372 2147 372 2553 
Q 372 3047 722 3315 
Q 1072 3584 1716 3584 
Q 2034 3584 2315 3537 
Q 2597 3491 2834 3397 
z
" id="DejaVuSans-73" transform="scale(0.015625)"/>
       <path d="M 513 4856 
L 1013 4856 
Q 1481 4119 1714 3412 
Q 1947 2706 1947 2009 
Q 1947 1309 1714 600 
Q 1481 -109 1013 -844 
L 513 -844 
Q 928 -128 1133 580 
Q 1338 1288 1338 2009 
Q 1338 2731 1133 3434 
Q 928 4138 513 4856 
z
" id="DejaVuSans-29" transform="scale(0.015625)"/>
      </defs>
      <use xlink:href="#DejaVuSans-44"/>
      <use x="77.001953" xlink:href="#DejaVuSans-75"/>
      <use x="140.380859" xlink:href="#DejaVuSans-72"/>
      <use x="181.494141" xlink:href="#DejaVuSans-61"/>
      <use x="242.773438" xlink:href="#DejaVuSans-74"/>
      <use x="281.982422" xlink:href="#DejaVuSans-69"/>
      <use x="309.765625" xlink:href="#DejaVuSans-6f"/>
      <use x="370.947266" xlink:href="#DejaVuSans-6e"/>
      <use x="434.326172" xlink:href="#DejaVuSans-20"/>
      <use x="466.113281" xlink:href="#DejaVuSans-28"/>
      <use x="505.126953" xlink:href="#DejaVuSans-69"/>
      <use x="532.910156" xlink:href="#DejaVuSans-6e"/>
      <use x="596.289062" xlink:href="#DejaVuSans-20"/>
      <use x="628.076172" xlink:href="#DejaVuSans-64"/>
      <use x="691.552734" xlink:href="#DejaVuSans-61"/>
      <use x="752.832031" xlink:href="#DejaVuSans-79"/>
      <use x="812.011719" xlink:href="#DejaVuSans-73"/>
      <use x="864.111328" xlink:href="#DejaVuSans-29"/>
     </g>
    </g>
   </g>
   <g id="matplotlib.axis_2">
    <g id="ytick_1">
     <g id="line2d_10">
      <defs>
       <path d="M 0 0 
L -3.5 0 
" id="m75d595f2eb" style="stroke:#000000;stroke-width:0.8;"/>
      </defs>
      <g>
       <use style="stroke:#000000;stroke-width:0.8;" x="46.965625" xlink:href="#m75d595f2eb" y="224.64"/>
      </g>
     </g>
     <g id="text_11">
      <!-- 0 -->
      <g transform="translate(33.603125 228.439219)scale(0.1 -0.1)">
       <use xlink:href="#DejaVuSans-30"/>
      </g>
     </g>
    </g>
    <g id="ytick_2">
     <g id="line2d_11">
      <g>
       <use style="stroke:#000000;stroke-width:0.8;" x="46.965625" xlink:href="#m75d595f2eb" y="180.858665"/>
      </g>
     </g>
     <g id="text_12">
      <!-- 100 -->
      <g transform="translate(20.878125 184.657884)scale(0.1 -0.1)">
       <use xlink:href="#DejaVuSans-31"/>
       <use x="63.623047" xlink:href="#DejaVuSans-30"/>
       <use x="127.246094" xlink:href="#DejaVuSans-30"/>
      </g>
     </g>
    </g>
    <g id="ytick_3">
     <g id="line2d_12">
      <g>
       <use style="stroke:#000000;stroke-width:0.8;" x="46.965625" xlink:href="#m75d595f2eb" y="137.07733"/>
      </g>
     </g>
     <g id="text_13">
      <!-- 200 -->
      <g transform="translate(20.878125 140.876549)scale(0.1 -0.1)">
       <use xlink:href="#DejaVuSans-32"/>
       <use x="63.623047" xlink:href="#DejaVuSans-30"/>
       <use x="127.246094" xlink:href="#DejaVuSans-30"/>
      </g>
     </g>
    </g>
    <g id="ytick_4">
     <g id="line2d_13">
      <g>
       <use style="stroke:#000000;stroke-width:0.8;" x="46.965625" xlink:href="#m75d595f2eb" y="93.295995"/>
      </g>
     </g>
     <g id="text_14">
      <!-- 300 -->
      <g transform="translate(20.878125 97.095214)scale(0.1 -0.1)">
       <use xlink:href="#DejaVuSans-33"/>
       <use x="63.623047" xlink:href="#DejaVuSans-30"/>
       <use x="127.246094" xlink:href="#DejaVuSans-30"/>
      </g>
     </g>
    </g>
    <g id="ytick_5">
     <g id="line2d_14">
      <g>
       <use style="stroke:#000000;stroke-width:0.8;" x="46.965625" xlink:href="#m75d595f2eb" y="49.51466"/>
      </g>
     </g>
     <g id="text_15">
      <!-- 400 -->
      <g transform="translate(20.878125 53.313879)scale(0.1 -0.1)">
       <use xlink:href="#DejaVuSans-34"/>
       <use x="63.623047" xlink:href="#DejaVuSans-30"/>
       <use x="127.246094" xlink:href="#DejaVuSans-30"/>
      </g>
     </g>
    </g>
    <g id="text_16">
     <!-- Count -->
     <g transform="translate(14.798437 130.768438)rotate(-90)scale(0.1 -0.1)">
      <defs>
       <path d="M 4122 4306 
L 4122 3641 
Q 3803 3938 3442 4084 
Q 3081 4231 2675 4231 
Q 1875 4231 1450 3742 
Q 1025 3253 1025 2328 
Q 1025 1406 1450 917 
Q 1875 428 2675 428 
Q 3081 428 3442 575 
Q 3803 722 4122 1019 
L 4122 359 
Q 3791 134 3420 21 
Q 3050 -91 2638 -91 
Q 1578 -91 968 557 
Q 359 1206 359 2328 
Q 359 3453 968 4101 
Q 1578 4750 2638 4750 
Q 3056 4750 3426 4639 
Q 3797 4528 4122 4306 
z
" id="DejaVuSans-43" transform="scale(0.015625)"/>
      </defs>
      <use xlink:href="#DejaVuSans-43"/>
      <use x="69.824219" xlink:href="#DejaVuSans-6f"/>
      <use x="131.005859" xlink:href="#DejaVuSans-75"/>
      <use x="194.384766" xlink:href="#DejaVuSans-6e"/>
      <use x="257.763672" xlink:href="#DejaVuSans-74"/>
     </g>
    </g>
   </g>
   <g id="patch_96">
    <path d="M 46.965625 224.64 
L 46.965625 7.2 
" style="fill:none;stroke:#000000;stroke-linecap:square;stroke-linejoin:miter;stroke-width:0.8;"/>
   </g>
   <g id="patch_97">
    <path d="M 46.965625 224.64 
L 437.565625 224.64 
" style="fill:none;stroke:#000000;stroke-linecap:square;stroke-linejoin:miter;stroke-width:0.8;"/>
   </g>
  </g>
 </g>
 <defs>
  <clipPath id="ped198395d8">
   <rect height="217.44" width="390.6" x="46.965625" y="7.2"/>
  </clipPath>
 </defs>
</svg>
