<?xml version="1.0" encoding="utf-8" standalone="no"?>
<!DOCTYPE svg PUBLIC "-//W3C//DTD SVG 1.1//EN"
  "http://www.w3.org/Graphics/SVG/1.1/DTD/svg11.dtd">
<!-- Created with matplotlib (https://matplotlib.org/) -->
<svg height="329.18125pt" version="1.1" viewBox="0 0 605.803125 329.18125" width="605.803125pt" xmlns="http://www.w3.org/2000/svg" xmlns:xlink="http://www.w3.org/1999/xlink">
 <metadata>
  <rdf:RDF xmlns:cc="http://creativecommons.org/ns#" xmlns:dc="http://purl.org/dc/elements/1.1/" xmlns:rdf="http://www.w3.org/1999/02/22-rdf-syntax-ns#">
   <cc:Work>
    <dc:type rdf:resource="http://purl.org/dc/dcmitype/StillImage"/>
    <dc:date>2021-03-21T00:42:28.804968</dc:date>
    <dc:format>image/svg+xml</dc:format>
    <dc:creator>
     <cc:Agent>
      <dc:title>Matplotlib v3.3.4, https://matplotlib.org/</dc:title>
     </cc:Agent>
    </dc:creator>
   </cc:Work>
  </rdf:RDF>
 </metadata>
 <defs>
  <style type="text/css">*{stroke-linecap:butt;stroke-linejoin:round;}</style>
 </defs>
 <g id="figure_1">
  <g id="patch_1">
   <path d="M 0 329.18125 
L 605.803125 329.18125 
L 605.803125 0 
L 0 0 
z
" style="fill:none;"/>
  </g>
  <g id="axes_1">
   <g id="patch_2">
    <path d="M 40.603125 252 
L 598.603125 252 
L 598.603125 7.2 
L 40.603125 7.2 
z
" style="fill:#ffffff;"/>
   </g>
   <g id="PolyCollection_1">
    <path clip-path="url(#p012229c02c)" d="M 65.966761 216.595041 
L 65.966761 228.733884 
L 65.966761 216.595041 
L 65.966761 216.595041 
z
" style="fill:#1f77b4;fill-opacity:0.2;stroke:#1f77b4;stroke-opacity:0.2;"/>
    <path clip-path="url(#p012229c02c)" d="M 68.857204 143.761983 
L 68.857204 163.993388 
L 68.857204 143.761983 
L 68.857204 143.761983 
z
" style="fill:#1f77b4;fill-opacity:0.2;stroke:#1f77b4;stroke-opacity:0.2;"/>
    <path clip-path="url(#p012229c02c)" d="M 71.747647 91.160331 
L 71.747647 119.484298 
L 73.192869 236.826446 
L 74.63809 232.780165 
L 76.083311 87.11405 
L 77.528533 216.595041 
L 78.973754 212.717355 
L 80.418976 216.595041 
L 81.864197 171.445289 
L 83.309419 176.132231 
L 84.75464 139.715702 
L 86.199862 168.039669 
L 87.645083 212.54876 
L 89.090304 232.780165 
L 89.090304 139.715702 
L 89.090304 139.715702 
L 87.645083 188.271074 
L 86.199862 155.900826 
L 84.75464 70.928926 
L 83.309419 159.947107 
L 81.864197 39.199339 
L 80.418976 95.206612 
L 78.973754 95.206612 
L 77.528533 103.299174 
L 76.083311 34.512397 
L 74.63809 18.327273 
L 73.192869 228.733884 
L 71.747647 91.160331 
z
" style="fill:#1f77b4;fill-opacity:0.2;stroke:#1f77b4;stroke-opacity:0.2;"/>
    <path clip-path="url(#p012229c02c)" d="M 94.87119 99.252893 
L 94.87119 236.826446 
L 96.316412 232.780165 
L 96.316412 60.138843 
L 96.316412 60.138843 
L 94.87119 99.252893 
z
" style="fill:#1f77b4;fill-opacity:0.2;stroke:#1f77b4;stroke-opacity:0.2;"/>
    <path clip-path="url(#p012229c02c)" d="M 103.542519 151.854545 
L 103.542519 159.947107 
L 104.98774 228.733884 
L 106.432962 228.733884 
L 107.878183 228.733884 
L 107.878183 143.357355 
L 107.878183 143.357355 
L 106.432962 217.943802 
L 104.98774 103.299174 
L 103.542519 151.854545 
z
" style="fill:#1f77b4;fill-opacity:0.2;stroke:#1f77b4;stroke-opacity:0.2;"/>
    <path clip-path="url(#p012229c02c)" d="M 110.768626 95.206612 
L 110.768626 208.502479 
L 110.768626 95.206612 
L 110.768626 95.206612 
z
" style="fill:#1f77b4;fill-opacity:0.2;stroke:#1f77b4;stroke-opacity:0.2;"/>
    <path clip-path="url(#p012229c02c)" d="M 117.994733 109.368595 
L 117.994733 236.826446 
L 119.439955 232.780165 
L 119.439955 100.601653 
L 119.439955 100.601653 
L 117.994733 109.368595 
z
" style="fill:#1f77b4;fill-opacity:0.2;stroke:#1f77b4;stroke-opacity:0.2;"/>
    <path clip-path="url(#p012229c02c)" d="M 122.330398 168.039669 
L 122.330398 216.595041 
L 123.775619 228.733884 
L 123.775619 180.178512 
L 123.775619 180.178512 
L 122.330398 168.039669 
z
" style="fill:#1f77b4;fill-opacity:0.2;stroke:#1f77b4;stroke-opacity:0.2;"/>
    <path clip-path="url(#p012229c02c)" d="M 126.666062 190.294215 
L 126.666062 220.641322 
L 128.111284 204.456198 
L 128.111284 177.480992 
L 128.111284 177.480992 
L 126.666062 190.294215 
z
" style="fill:#1f77b4;fill-opacity:0.2;stroke:#1f77b4;stroke-opacity:0.2;"/>
    <path clip-path="url(#p012229c02c)" d="M 131.001726 79.021488 
L 131.001726 220.641322 
L 132.446948 219.993917 
L 132.446948 182.140959 
L 132.446948 182.140959 
L 131.001726 79.021488 
z
" style="fill:#1f77b4;fill-opacity:0.2;stroke:#1f77b4;stroke-opacity:0.2;"/>
    <path clip-path="url(#p012229c02c)" d="M 135.337391 116.365289 
L 135.337391 202.213884 
L 136.782612 236.826446 
L 138.227834 232.780165 
L 141.118277 228.253388 
L 142.563498 62.836364 
L 144.008719 228.733884 
L 145.453941 204.4851 
L 146.899162 216.595041 
L 148.344384 196.363636 
L 148.344384 43.616529 
L 148.344384 43.616529 
L 146.899162 159.947107 
L 145.453941 106.463943 
L 144.008719 169.759339 
L 142.563498 46.65124 
L 141.118277 206.959835 
L 138.227834 172.08595 
L 136.782612 182.876033 
L 135.337391 116.365289 
z
" style="fill:#1f77b4;fill-opacity:0.2;stroke:#1f77b4;stroke-opacity:0.2;"/>
    <path clip-path="url(#p012229c02c)" d="M 151.234827 135.416529 
L 151.234827 220.641322 
L 152.680048 229.264959 
L 154.12527 207.733686 
L 155.570491 218.365289 
L 157.015712 209.745266 
L 157.015712 137.316836 
L 157.015712 137.316836 
L 155.570491 126.902479 
L 154.12527 125.371636 
L 152.680048 135.669421 
L 151.234827 135.416529 
z
" style="fill:#1f77b4;fill-opacity:0.2;stroke:#1f77b4;stroke-opacity:0.2;"/>
    <path clip-path="url(#p012229c02c)" d="M 159.906155 182.201653 
L 159.906155 230.757025 
L 161.351377 224.687603 
L 162.796598 224.687603 
L 164.24182 208.343518 
L 165.687041 217.606612 
L 167.132263 236.826446 
L 168.577484 216.595041 
L 170.022705 225.749752 
L 171.467927 216.595041 
L 172.913148 215.516033 
L 174.35837 215.826248 
L 175.803591 195.402645 
L 177.248813 232.780165 
L 178.694034 233.629884 
L 180.139256 224.991074 
L 181.584477 218.254017 
L 183.029698 206.155636 
L 184.47492 220.641322 
L 185.920141 213.014083 
L 187.365363 196.889653 
L 188.810584 200.409917 
L 190.255806 211.055207 
L 191.701027 221.630413 
L 193.146249 214.156033 
L 194.59147 180.469339 
L 196.036691 200.752295 
L 197.481913 226.747528 
L 198.927134 226.15438 
L 200.372356 197.559128 
L 201.817577 217.606612 
L 203.262799 218.820496 
L 204.70802 212.245289 
L 206.153242 208.105633 
L 207.598463 210.53157 
L 209.043684 210.706257 
L 210.488906 182.715868 
L 211.934127 210.239008 
L 213.379349 203.950413 
L 214.82457 204.908033 
L 216.269792 203.614998 
L 217.715013 176.554711 
L 219.160235 194.184162 
L 220.605456 204.373434 
L 222.050677 187.103878 
L 223.495899 195.697686 
L 224.94112 209.673771 
L 226.386342 191.472914 
L 227.831563 189.836033 
L 229.276785 199.63438 
L 230.722006 204.135868 
L 232.167228 180.461752 
L 233.612449 186.883778 
L 235.05767 174.690744 
L 236.502892 184.085266 
L 237.948113 207.832314 
L 239.393335 199.527092 
L 240.838556 194.446051 
L 242.283778 171.828 
L 243.728999 196.869421 
L 245.174221 193.467548 
L 246.619442 196.464793 
L 248.064663 191.609256 
L 249.509885 183.263802 
L 250.955106 194.982623 
L 252.400328 173.867438 
L 253.845549 192.884959 
L 255.290771 197.863399 
L 256.735992 208.335868 
L 258.181214 201.289544 
L 259.626435 201.927273 
L 261.071656 197.79615 
L 262.516878 196.661488 
L 263.962099 200.087479 
L 265.407321 203.419339 
L 266.852542 201.43988 
L 268.297764 183.575054 
L 269.742985 189.679491 
L 271.188207 199.898512 
L 272.633428 189.042397 
L 274.078649 208.772231 
L 275.523871 205.813388 
L 276.969092 208.067064 
L 278.414314 214.517107 
L 279.859535 200.446702 
L 281.304757 209.581488 
L 282.749978 185.614887 
L 284.1952 212.960132 
L 285.640421 216.443306 
L 287.085642 199.488856 
L 288.530864 177.023377 
L 289.976085 192.585641 
L 291.421307 201.872479 
L 292.866528 202.700826 
L 294.31175 191.057107 
L 295.756971 214.478525 
L 297.202193 192.734122 
L 298.647414 196.818843 
L 300.092635 204.593058 
L 301.537857 200.647416 
L 302.983078 204.888415 
L 304.4283 194.483306 
L 305.873521 215.283891 
L 307.318743 208.720766 
L 308.763964 205.946579 
L 310.209186 222.841488 
L 311.654407 212.166612 
L 313.099628 211.330059 
L 314.54485 202.326281 
L 315.990071 211.643405 
L 317.435293 205.236553 
L 318.880514 221.5132 
L 320.325736 200.808223 
L 321.770957 200.966281 
L 323.216179 218.033719 
L 324.6614 199.859174 
L 326.106622 202.787107 
L 327.551843 192.068076 
L 328.997064 200.808223 
L 330.442286 205.265455 
L 331.887507 190.85395 
L 333.332729 203.417653 
L 334.77795 211.878595 
L 336.223172 195.227919 
L 337.668393 211.656739 
L 339.113615 207.30124 
L 340.558836 197.763863 
L 342.004057 217.020966 
L 343.449279 202.295773 
L 344.8945 217.808926 
L 346.339722 188.597889 
L 347.784943 194.618678 
L 349.230165 200.642579 
L 350.675386 210.576198 
L 352.120608 184.996116 
L 353.565829 197.740496 
L 355.01105 202.180165 
L 356.456272 196.700826 
L 357.901493 203.301322 
L 359.346715 215.006876 
L 360.791936 208.253477 
L 362.237158 210.923926 
L 363.682379 209.412893 
L 365.127601 219.730909 
L 366.572822 203.710165 
L 368.018043 209.792231 
L 369.463265 194.358347 
L 370.908486 174.976912 
L 372.353708 203.444628 
L 373.798929 198.652314 
L 375.244151 218.638413 
L 376.689372 188.48117 
L 378.134594 199.709044 
L 379.579815 208.350744 
L 381.025036 202.46281 
L 382.470258 214.26843 
L 383.915479 206.479339 
L 385.360701 211.731723 
L 386.805922 213.320083 
L 388.251144 191.399161 
L 389.696365 210.772893 
L 391.141587 192.95405 
L 392.586808 220.555728 
L 394.032029 208.853157 
L 395.477251 211.32568 
L 396.922472 227.389941 
L 398.367694 193.581818 
L 399.812915 214.986645 
L 401.258137 198.262276 
L 402.703358 205.421081 
L 404.14858 181.028231 
L 405.593801 191.777851 
L 407.039022 212.314835 
L 408.484244 197.193124 
L 409.929465 214.629705 
L 411.374687 201.67049 
L 412.819908 183.719008 
L 414.26513 228.541686 
L 415.710351 202.439802 
L 417.155573 196.540661 
L 418.600794 204.12238 
L 420.046015 208.327754 
L 421.491237 200.588887 
L 422.936458 211.451207 
L 424.38168 186.259174 
L 425.826901 190.924501 
L 427.272123 203.675041 
L 428.717344 208.310813 
L 430.162566 203.545785 
L 431.607787 198.827532 
L 433.053008 205.436643 
L 434.49823 208.025596 
L 435.943451 215.988099 
L 437.388673 174.730484 
L 438.833894 199.099934 
L 440.279116 172.765148 
L 441.724337 213.717686 
L 443.169559 187.285893 
L 444.61478 192.656231 
L 446.060001 196.786657 
L 447.505223 209.751549 
L 448.950444 200.520708 
L 450.395666 195.836555 
L 451.840887 213.587919 
L 453.286109 200.561653 
L 454.73133 197.26281 
L 456.176552 209.325223 
L 457.621773 200.734685 
L 459.066994 198.055207 
L 460.512216 196.014185 
L 461.957437 197.95576 
L 463.402659 190.066612 
L 464.84788 194.670942 
L 466.293102 198.862215 
L 467.738323 206.64119 
L 469.183545 200.29686 
L 470.628766 195.786198 
L 472.073987 215.246281 
L 473.519209 208.104595 
L 474.96443 204.242645 
L 476.409652 191.48281 
L 477.854873 210.641228 
L 479.300095 205.210278 
L 480.745316 208.502479 
L 482.190538 201.01686 
L 483.635759 200.098665 
L 485.08098 189.631074 
L 486.526202 201.102044 
L 487.971423 215.529917 
L 489.416645 208.090626 
L 490.861866 213.128727 
L 492.307088 203.272661 
L 493.752309 228.184746 
L 495.197531 215.60876 
L 496.642752 207.713455 
L 498.087973 214.748926 
L 499.533195 199.796653 
L 500.978416 217.030017 
L 502.423638 224.181818 
L 503.868859 206.465851 
L 505.314081 227.772893 
L 506.759302 214.285289 
L 508.204524 218.259534 
L 509.649745 218.229526 
L 511.094966 206.356505 
L 512.540188 221.172397 
L 513.985409 219.832066 
L 515.430631 208.359174 
L 516.875852 215.600331 
L 518.321074 208.856529 
L 519.766295 207.25747 
L 521.211517 220.291871 
L 522.656738 218.896364 
L 524.101959 210.770083 
L 525.547181 221.996826 
L 526.992402 209.873719 
L 528.437624 202.292994 
L 529.882845 213.1268 
L 531.328067 213.733743 
L 532.773288 218.795207 
L 534.21851 203.455868 
L 535.663731 211.463621 
L 537.108953 215.057455 
L 538.554174 225.699174 
L 539.999395 219.730909 
L 541.444617 206.668165 
L 542.889838 211.547306 
L 544.33506 208.249587 
L 545.780281 214.25157 
L 547.225503 218.054593 
L 548.670724 219.823636 
L 550.115946 221.863636 
L 551.561167 221.009166 
L 553.006388 232.566612 
L 554.45161 230.318678 
L 555.896831 219.003843 
L 557.342053 219.895289 
L 558.787274 225.423291 
L 560.232496 223.78843 
L 561.677717 226.036364 
L 563.122939 232.27438 
L 564.56816 227.998197 
L 566.013381 238.175207 
L 567.458603 236.01719 
L 568.903824 240.063471 
L 570.349046 232.105785 
L 573.239489 240.872727 
L 573.239489 236.826446 
L 573.239489 236.826446 
L 570.349046 228.733884 
L 568.903824 232.780165 
L 567.458603 227.074909 
L 566.013381 227.705455 
L 564.56816 219.151555 
L 563.122939 221.89314 
L 561.677717 214.560661 
L 560.232496 212.099174 
L 558.787274 212.162524 
L 557.342053 202.938843 
L 555.896831 207.35814 
L 554.45161 215.909421 
L 553.006388 207.367273 
L 551.561167 201.283546 
L 550.115946 198.015868 
L 548.670724 194.163471 
L 547.225503 185.958914 
L 545.780281 197.021157 
L 544.33506 189.76314 
L 542.889838 184.588959 
L 541.444617 185.431934 
L 539.999395 193.945064 
L 538.554174 200.650165 
L 537.108953 163.993388 
L 535.663731 175.516093 
L 534.21851 170.905785 
L 532.773288 182.024628 
L 531.328067 186.385218 
L 529.882845 170.92987 
L 528.437624 182.030464 
L 526.992402 186.214215 
L 525.547181 160.634975 
L 524.101959 169.38843 
L 522.656738 188.43124 
L 521.211517 180.70269 
L 519.766295 167.526103 
L 518.321074 174.749752 
L 516.875852 165.561322 
L 515.430631 175.440992 
L 513.985409 180.987769 
L 512.540188 195.352066 
L 511.094966 171.327273 
L 509.649745 193.877303 
L 508.204524 166.338392 
L 506.759302 172.372562 
L 505.314081 207.828099 
L 503.868859 160.189884 
L 502.423638 198.386777 
L 500.978416 187.977719 
L 499.533195 164.075579 
L 498.087973 187.082479 
L 496.642752 148.000463 
L 495.197531 162.690992 
L 493.752309 165.395136 
L 492.307088 162.981818 
L 490.861866 164.49243 
L 489.416645 138.834191 
L 487.971423 192.507769 
L 486.526202 165.8994 
L 485.08098 148.662479 
L 483.635759 149.535715 
L 482.190538 147.743235 
L 480.745316 165.187041 
L 479.300095 124.192697 
L 477.854873 175.067674 
L 476.409652 155.273653 
L 474.96443 163.285289 
L 473.519209 170.325818 
L 472.073987 183.692033 
L 470.628766 163.639339 
L 469.183545 152.294876 
L 467.738323 148.98843 
L 466.293102 139.584198 
L 464.84788 116.375405 
L 463.402659 115.185124 
L 461.957437 152.382321 
L 460.512216 138.409857 
L 459.066994 151.601653 
L 457.621773 147.584654 
L 456.176552 185.674711 
L 454.73133 143.761983 
L 453.286109 166.139362 
L 451.840887 170.421458 
L 450.395666 155.352449 
L 448.950444 171.011759 
L 447.505223 165.968149 
L 446.060001 151.661427 
L 444.61478 151.368992 
L 443.169559 151.199224 
L 441.724337 166.904463 
L 440.279116 135.298512 
L 438.833894 168.939967 
L 437.388673 107.682645 
L 435.943451 179.968417 
L 434.49823 138.270602 
L 433.053008 170.039466 
L 431.607787 134.759008 
L 430.162566 161.154248 
L 428.717344 167.454023 
L 427.272123 179.599669 
L 425.826901 156.196516 
L 424.38168 149.584132 
L 422.936458 175.616331 
L 421.491237 140.275957 
L 420.046015 162.522014 
L 418.600794 167.918281 
L 417.155573 152.579504 
L 415.710351 155.219702 
L 414.26513 176.051306 
L 412.819908 141.612397 
L 411.374687 145.948531 
L 409.929465 148.010579 
L 408.484244 146.022843 
L 407.039022 180.115289 
L 405.593801 139.992198 
L 404.14858 107.122909 
L 402.703358 170.350718 
L 401.258137 143.995423 
L 399.812915 176.526744 
L 398.367694 151.576364 
L 396.922472 183.805714 
L 395.477251 113.470053 
L 394.032029 147.518281 
L 392.586808 176.412359 
L 391.141587 145.392397 
L 389.696365 161.037355 
L 388.251144 140.960712 
L 386.805922 176.119587 
L 385.360701 135.591608 
L 383.915479 185.630876 
L 382.470258 177.937495 
L 381.025036 172.050248 
L 379.579815 151.642116 
L 378.134594 158.68987 
L 376.689372 103.376987 
L 375.244151 196.363636 
L 373.798929 157.114711 
L 372.353708 72.130165 
L 370.908486 134.359704 
L 369.463265 152.044959 
L 368.018043 153.540496 
L 366.572822 158.15157 
L 365.127601 185.254756 
L 363.682379 156.264992 
L 362.237158 164.372727 
L 360.791936 150.298284 
L 359.346715 177.816496 
L 357.901493 116.255702 
L 356.456272 136.225785 
L 355.01105 169.158719 
L 353.565829 151.961322 
L 352.120608 108.148388 
L 350.675386 168.71405 
L 349.230165 130.308099 
L 347.784943 135.751612 
L 346.339722 82.258512 
L 344.8945 165.207273 
L 343.449279 165.59745 
L 342.004057 181.248647 
L 340.558836 153.563567 
L 339.113615 164.341116 
L 337.668393 179.580766 
L 336.223172 138.556995 
L 334.77795 196.098099 
L 333.332729 162.489521 
L 331.887507 131.737785 
L 330.442286 161.864033 
L 328.997064 119.591777 
L 327.551843 148.74758 
L 326.106622 133.435537 
L 324.6614 164.184463 
L 323.216179 166.151405 
L 321.770957 171.833058 
L 320.325736 155.489876 
L 318.880514 191.782668 
L 317.435293 161.368123 
L 315.990071 177.219669 
L 314.54485 165.758017 
L 313.099628 188.049492 
L 311.654407 176.941488 
L 310.209186 117.284132 
L 308.763964 168.07676 
L 307.318743 161.17164 
L 305.873521 181.442975 
L 304.4283 110.505124 
L 302.983078 132.078347 
L 301.537857 166.487129 
L 300.092635 128.969256 
L 298.647414 149.390649 
L 297.202193 124.663537 
L 295.756971 188.025963 
L 294.31175 143.934793 
L 292.866528 158.334545 
L 291.421307 165.670909 
L 289.976085 138.726123 
L 288.530864 108.462999 
L 287.085642 162.268395 
L 285.640421 166.466678 
L 284.1952 182.849058 
L 282.749978 129.263898 
L 281.304757 160.318017 
L 279.859535 140.920391 
L 278.414314 187.322727 
L 276.969092 155.733697 
L 275.523871 150.531074 
L 274.078649 167.351802 
L 272.633428 127.949876 
L 271.188207 150.34281 
L 269.742985 148.341284 
L 268.297764 147.613732 
L 266.852542 146.888655 
L 265.407321 167.236033 
L 263.962099 164.328471 
L 262.516878 106.024793 
L 261.071656 130.135153 
L 259.626435 146.207345 
L 258.181214 159.762386 
L 256.735992 173.627107 
L 255.290771 131.543974 
L 253.845549 156.906777 
L 252.400328 79.662149 
L 250.955106 138.352282 
L 249.509885 127.189091 
L 248.064663 153.934334 
L 246.619442 134.710629 
L 245.174221 153.386887 
L 243.728999 113.808264 
L 242.283778 91.195736 
L 240.838556 155.254301 
L 239.393335 175.506897 
L 237.948113 161.422314 
L 236.502892 133.478849 
L 235.05767 109.667008 
L 233.612449 146.196978 
L 232.167228 108.028264 
L 230.722006 178.218595 
L 229.276785 169.675041 
L 227.831563 127.142479 
L 226.386342 147.755487 
L 224.94112 149.480017 
L 223.495899 164.570826 
L 222.050677 20.68501 
L 220.605456 109.515733 
L 219.160235 158.526311 
L 217.715013 100.335868 
L 216.269792 163.657973 
L 214.82457 63.342149 
L 213.379349 146.278264 
L 211.934127 178.408264 
L 210.488906 107.033554 
L 209.043684 163.386446 
L 207.598463 174.394711 
L 206.153242 166.172155 
L 204.70802 172.389421 
L 203.262799 189.189269 
L 201.817577 168.02281 
L 200.372356 105.552216 
L 198.927134 196.748033 
L 197.481913 127.57686 
L 196.036691 153.36412 
L 194.59147 32.792727 
L 193.146249 148.471405 
L 191.701027 171.670083 
L 190.255806 167.795702 
L 188.810584 186.922314 
L 187.365363 130.328331 
L 185.920141 137.672331 
L 184.47492 172.142149 
L 183.029698 104.280397 
L 181.584477 159.097388 
L 180.139256 196.941677 
L 178.694034 215.360926 
L 177.248813 196.363636 
L 175.803591 156.141074 
L 174.35837 122.721322 
L 172.913148 176.132231 
L 171.467927 168.039669 
L 170.022705 162.57719 
L 168.577484 208.502479 
L 167.132263 188.271074 
L 165.687041 110.380165 
L 164.24182 129.802314 
L 162.796598 123.530579 
L 161.351377 147.808264 
L 159.906155 182.201653 
z
" style="fill:#1f77b4;fill-opacity:0.2;stroke:#1f77b4;stroke-opacity:0.2;"/>
   </g>
   <g id="matplotlib.axis_1">
    <g id="xtick_1">
     <g id="line2d_1">
      <defs>
       <path d="M 0 0 
L 0 3.5 
" id="m814125b643" style="stroke:#000000;stroke-width:0.8;"/>
      </defs>
      <g>
       <use style="stroke:#000000;stroke-width:0.8;" x="41.397997" xlink:href="#m814125b643" y="252"/>
      </g>
     </g>
     <g id="text_1">
      <!-- Mar 2020 -->
      <g transform="translate(44.157372 306.495312)rotate(-90)scale(0.1 -0.1)">
       <defs>
        <path d="M 9.8125 72.90625 
L 24.515625 72.90625 
L 43.109375 23.296875 
L 61.8125 72.90625 
L 76.515625 72.90625 
L 76.515625 0 
L 66.890625 0 
L 66.890625 64.015625 
L 48.09375 14.015625 
L 38.1875 14.015625 
L 19.390625 64.015625 
L 19.390625 0 
L 9.8125 0 
z
" id="DejaVuSans-77"/>
        <path d="M 34.28125 27.484375 
Q 23.390625 27.484375 19.1875 25 
Q 14.984375 22.515625 14.984375 16.5 
Q 14.984375 11.71875 18.140625 8.90625 
Q 21.296875 6.109375 26.703125 6.109375 
Q 34.1875 6.109375 38.703125 11.40625 
Q 43.21875 16.703125 43.21875 25.484375 
L 43.21875 27.484375 
z
M 52.203125 31.203125 
L 52.203125 0 
L 43.21875 0 
L 43.21875 8.296875 
Q 40.140625 3.328125 35.546875 0.953125 
Q 30.953125 -1.421875 24.3125 -1.421875 
Q 15.921875 -1.421875 10.953125 3.296875 
Q 6 8.015625 6 15.921875 
Q 6 25.140625 12.171875 29.828125 
Q 18.359375 34.515625 30.609375 34.515625 
L 43.21875 34.515625 
L 43.21875 35.40625 
Q 43.21875 41.609375 39.140625 45 
Q 35.0625 48.390625 27.6875 48.390625 
Q 23 48.390625 18.546875 47.265625 
Q 14.109375 46.140625 10.015625 43.890625 
L 10.015625 52.203125 
Q 14.9375 54.109375 19.578125 55.046875 
Q 24.21875 56 28.609375 56 
Q 40.484375 56 46.34375 49.84375 
Q 52.203125 43.703125 52.203125 31.203125 
z
" id="DejaVuSans-97"/>
        <path d="M 41.109375 46.296875 
Q 39.59375 47.171875 37.8125 47.578125 
Q 36.03125 48 33.890625 48 
Q 26.265625 48 22.1875 43.046875 
Q 18.109375 38.09375 18.109375 28.8125 
L 18.109375 0 
L 9.078125 0 
L 9.078125 54.6875 
L 18.109375 54.6875 
L 18.109375 46.1875 
Q 20.953125 51.171875 25.484375 53.578125 
Q 30.03125 56 36.53125 56 
Q 37.453125 56 38.578125 55.875 
Q 39.703125 55.765625 41.0625 55.515625 
z
" id="DejaVuSans-114"/>
        <path id="DejaVuSans-32"/>
        <path d="M 19.1875 8.296875 
L 53.609375 8.296875 
L 53.609375 0 
L 7.328125 0 
L 7.328125 8.296875 
Q 12.9375 14.109375 22.625 23.890625 
Q 32.328125 33.6875 34.8125 36.53125 
Q 39.546875 41.84375 41.421875 45.53125 
Q 43.3125 49.21875 43.3125 52.78125 
Q 43.3125 58.59375 39.234375 62.25 
Q 35.15625 65.921875 28.609375 65.921875 
Q 23.96875 65.921875 18.8125 64.3125 
Q 13.671875 62.703125 7.8125 59.421875 
L 7.8125 69.390625 
Q 13.765625 71.78125 18.9375 73 
Q 24.125 74.21875 28.421875 74.21875 
Q 39.75 74.21875 46.484375 68.546875 
Q 53.21875 62.890625 53.21875 53.421875 
Q 53.21875 48.921875 51.53125 44.890625 
Q 49.859375 40.875 45.40625 35.40625 
Q 44.1875 33.984375 37.640625 27.21875 
Q 31.109375 20.453125 19.1875 8.296875 
z
" id="DejaVuSans-50"/>
        <path d="M 31.78125 66.40625 
Q 24.171875 66.40625 20.328125 58.90625 
Q 16.5 51.421875 16.5 36.375 
Q 16.5 21.390625 20.328125 13.890625 
Q 24.171875 6.390625 31.78125 6.390625 
Q 39.453125 6.390625 43.28125 13.890625 
Q 47.125 21.390625 47.125 36.375 
Q 47.125 51.421875 43.28125 58.90625 
Q 39.453125 66.40625 31.78125 66.40625 
z
M 31.78125 74.21875 
Q 44.046875 74.21875 50.515625 64.515625 
Q 56.984375 54.828125 56.984375 36.375 
Q 56.984375 17.96875 50.515625 8.265625 
Q 44.046875 -1.421875 31.78125 -1.421875 
Q 19.53125 -1.421875 13.0625 8.265625 
Q 6.59375 17.96875 6.59375 36.375 
Q 6.59375 54.828125 13.0625 64.515625 
Q 19.53125 74.21875 31.78125 74.21875 
z
" id="DejaVuSans-48"/>
       </defs>
       <use xlink:href="#DejaVuSans-77"/>
       <use x="86.279297" xlink:href="#DejaVuSans-97"/>
       <use x="147.558594" xlink:href="#DejaVuSans-114"/>
       <use x="188.671875" xlink:href="#DejaVuSans-32"/>
       <use x="220.458984" xlink:href="#DejaVuSans-50"/>
       <use x="284.082031" xlink:href="#DejaVuSans-48"/>
       <use x="347.705078" xlink:href="#DejaVuSans-50"/>
       <use x="411.328125" xlink:href="#DejaVuSans-48"/>
      </g>
     </g>
    </g>
    <g id="xtick_2">
     <g id="line2d_2">
      <g>
       <use style="stroke:#000000;stroke-width:0.8;" x="86.199862" xlink:href="#m814125b643" y="252"/>
      </g>
     </g>
     <g id="text_2">
      <!-- Apr 2020 -->
      <g transform="translate(88.959237 304.928125)rotate(-90)scale(0.1 -0.1)">
       <defs>
        <path d="M 34.1875 63.1875 
L 20.796875 26.90625 
L 47.609375 26.90625 
z
M 28.609375 72.90625 
L 39.796875 72.90625 
L 67.578125 0 
L 57.328125 0 
L 50.6875 18.703125 
L 17.828125 18.703125 
L 11.1875 0 
L 0.78125 0 
z
" id="DejaVuSans-65"/>
        <path d="M 18.109375 8.203125 
L 18.109375 -20.796875 
L 9.078125 -20.796875 
L 9.078125 54.6875 
L 18.109375 54.6875 
L 18.109375 46.390625 
Q 20.953125 51.265625 25.265625 53.625 
Q 29.59375 56 35.59375 56 
Q 45.5625 56 51.78125 48.09375 
Q 58.015625 40.1875 58.015625 27.296875 
Q 58.015625 14.40625 51.78125 6.484375 
Q 45.5625 -1.421875 35.59375 -1.421875 
Q 29.59375 -1.421875 25.265625 0.953125 
Q 20.953125 3.328125 18.109375 8.203125 
z
M 48.6875 27.296875 
Q 48.6875 37.203125 44.609375 42.84375 
Q 40.53125 48.484375 33.40625 48.484375 
Q 26.265625 48.484375 22.1875 42.84375 
Q 18.109375 37.203125 18.109375 27.296875 
Q 18.109375 17.390625 22.1875 11.75 
Q 26.265625 6.109375 33.40625 6.109375 
Q 40.53125 6.109375 44.609375 11.75 
Q 48.6875 17.390625 48.6875 27.296875 
z
" id="DejaVuSans-112"/>
       </defs>
       <use xlink:href="#DejaVuSans-65"/>
       <use x="68.408203" xlink:href="#DejaVuSans-112"/>
       <use x="131.884766" xlink:href="#DejaVuSans-114"/>
       <use x="172.998047" xlink:href="#DejaVuSans-32"/>
       <use x="204.785156" xlink:href="#DejaVuSans-50"/>
       <use x="268.408203" xlink:href="#DejaVuSans-48"/>
       <use x="332.03125" xlink:href="#DejaVuSans-50"/>
       <use x="395.654297" xlink:href="#DejaVuSans-48"/>
      </g>
     </g>
    </g>
    <g id="xtick_3">
     <g id="line2d_3">
      <g>
       <use style="stroke:#000000;stroke-width:0.8;" x="129.556505" xlink:href="#m814125b643" y="252"/>
      </g>
     </g>
     <g id="text_3">
      <!-- May 2020 -->
      <g transform="translate(132.31588 308.303125)rotate(-90)scale(0.1 -0.1)">
       <defs>
        <path d="M 32.171875 -5.078125 
Q 28.375 -14.84375 24.75 -17.8125 
Q 21.140625 -20.796875 15.09375 -20.796875 
L 7.90625 -20.796875 
L 7.90625 -13.28125 
L 13.1875 -13.28125 
Q 16.890625 -13.28125 18.9375 -11.515625 
Q 21 -9.765625 23.484375 -3.21875 
L 25.09375 0.875 
L 2.984375 54.6875 
L 12.5 54.6875 
L 29.59375 11.921875 
L 46.6875 54.6875 
L 56.203125 54.6875 
z
" id="DejaVuSans-121"/>
       </defs>
       <use xlink:href="#DejaVuSans-77"/>
       <use x="86.279297" xlink:href="#DejaVuSans-97"/>
       <use x="147.558594" xlink:href="#DejaVuSans-121"/>
       <use x="206.738281" xlink:href="#DejaVuSans-32"/>
       <use x="238.525391" xlink:href="#DejaVuSans-50"/>
       <use x="302.148438" xlink:href="#DejaVuSans-48"/>
       <use x="365.771484" xlink:href="#DejaVuSans-50"/>
       <use x="429.394531" xlink:href="#DejaVuSans-48"/>
      </g>
     </g>
    </g>
    <g id="xtick_4">
     <g id="line2d_4">
      <g>
       <use style="stroke:#000000;stroke-width:0.8;" x="174.35837" xlink:href="#m814125b643" y="252"/>
      </g>
     </g>
     <g id="text_4">
      <!-- Jun 2020 -->
      <g transform="translate(177.117745 303.253125)rotate(-90)scale(0.1 -0.1)">
       <defs>
        <path d="M 9.8125 72.90625 
L 19.671875 72.90625 
L 19.671875 5.078125 
Q 19.671875 -8.109375 14.671875 -14.0625 
Q 9.671875 -20.015625 -1.421875 -20.015625 
L -5.171875 -20.015625 
L -5.171875 -11.71875 
L -2.09375 -11.71875 
Q 4.4375 -11.71875 7.125 -8.046875 
Q 9.8125 -4.390625 9.8125 5.078125 
z
" id="DejaVuSans-74"/>
        <path d="M 8.5 21.578125 
L 8.5 54.6875 
L 17.484375 54.6875 
L 17.484375 21.921875 
Q 17.484375 14.15625 20.5 10.265625 
Q 23.53125 6.390625 29.59375 6.390625 
Q 36.859375 6.390625 41.078125 11.03125 
Q 45.3125 15.671875 45.3125 23.6875 
L 45.3125 54.6875 
L 54.296875 54.6875 
L 54.296875 0 
L 45.3125 0 
L 45.3125 8.40625 
Q 42.046875 3.421875 37.71875 1 
Q 33.40625 -1.421875 27.6875 -1.421875 
Q 18.265625 -1.421875 13.375 4.4375 
Q 8.5 10.296875 8.5 21.578125 
z
M 31.109375 56 
z
" id="DejaVuSans-117"/>
        <path d="M 54.890625 33.015625 
L 54.890625 0 
L 45.90625 0 
L 45.90625 32.71875 
Q 45.90625 40.484375 42.875 44.328125 
Q 39.84375 48.1875 33.796875 48.1875 
Q 26.515625 48.1875 22.3125 43.546875 
Q 18.109375 38.921875 18.109375 30.90625 
L 18.109375 0 
L 9.078125 0 
L 9.078125 54.6875 
L 18.109375 54.6875 
L 18.109375 46.1875 
Q 21.34375 51.125 25.703125 53.5625 
Q 30.078125 56 35.796875 56 
Q 45.21875 56 50.046875 50.171875 
Q 54.890625 44.34375 54.890625 33.015625 
z
" id="DejaVuSans-110"/>
       </defs>
       <use xlink:href="#DejaVuSans-74"/>
       <use x="29.492188" xlink:href="#DejaVuSans-117"/>
       <use x="92.871094" xlink:href="#DejaVuSans-110"/>
       <use x="156.25" xlink:href="#DejaVuSans-32"/>
       <use x="188.037109" xlink:href="#DejaVuSans-50"/>
       <use x="251.660156" xlink:href="#DejaVuSans-48"/>
       <use x="315.283203" xlink:href="#DejaVuSans-50"/>
       <use x="378.90625" xlink:href="#DejaVuSans-48"/>
      </g>
     </g>
    </g>
    <g id="xtick_5">
     <g id="line2d_5">
      <g>
       <use style="stroke:#000000;stroke-width:0.8;" x="217.715013" xlink:href="#m814125b643" y="252"/>
      </g>
     </g>
     <g id="text_5">
      <!-- Jul 2020 -->
      <g transform="translate(220.474388 299.69375)rotate(-90)scale(0.1 -0.1)">
       <defs>
        <path d="M 9.421875 75.984375 
L 18.40625 75.984375 
L 18.40625 0 
L 9.421875 0 
z
" id="DejaVuSans-108"/>
       </defs>
       <use xlink:href="#DejaVuSans-74"/>
       <use x="29.492188" xlink:href="#DejaVuSans-117"/>
       <use x="92.871094" xlink:href="#DejaVuSans-108"/>
       <use x="120.654297" xlink:href="#DejaVuSans-32"/>
       <use x="152.441406" xlink:href="#DejaVuSans-50"/>
       <use x="216.064453" xlink:href="#DejaVuSans-48"/>
       <use x="279.6875" xlink:href="#DejaVuSans-50"/>
       <use x="343.310547" xlink:href="#DejaVuSans-48"/>
      </g>
     </g>
    </g>
    <g id="xtick_6">
     <g id="line2d_6">
      <g>
       <use style="stroke:#000000;stroke-width:0.8;" x="262.516878" xlink:href="#m814125b643" y="252"/>
      </g>
     </g>
     <g id="text_6">
      <!-- Aug 2020 -->
      <g transform="translate(265.276253 307.154687)rotate(-90)scale(0.1 -0.1)">
       <defs>
        <path d="M 45.40625 27.984375 
Q 45.40625 37.75 41.375 43.109375 
Q 37.359375 48.484375 30.078125 48.484375 
Q 22.859375 48.484375 18.828125 43.109375 
Q 14.796875 37.75 14.796875 27.984375 
Q 14.796875 18.265625 18.828125 12.890625 
Q 22.859375 7.515625 30.078125 7.515625 
Q 37.359375 7.515625 41.375 12.890625 
Q 45.40625 18.265625 45.40625 27.984375 
z
M 54.390625 6.78125 
Q 54.390625 -7.171875 48.1875 -13.984375 
Q 42 -20.796875 29.203125 -20.796875 
Q 24.46875 -20.796875 20.265625 -20.09375 
Q 16.0625 -19.390625 12.109375 -17.921875 
L 12.109375 -9.1875 
Q 16.0625 -11.328125 19.921875 -12.34375 
Q 23.78125 -13.375 27.78125 -13.375 
Q 36.625 -13.375 41.015625 -8.765625 
Q 45.40625 -4.15625 45.40625 5.171875 
L 45.40625 9.625 
Q 42.625 4.78125 38.28125 2.390625 
Q 33.9375 0 27.875 0 
Q 17.828125 0 11.671875 7.65625 
Q 5.515625 15.328125 5.515625 27.984375 
Q 5.515625 40.671875 11.671875 48.328125 
Q 17.828125 56 27.875 56 
Q 33.9375 56 38.28125 53.609375 
Q 42.625 51.21875 45.40625 46.390625 
L 45.40625 54.6875 
L 54.390625 54.6875 
z
" id="DejaVuSans-103"/>
       </defs>
       <use xlink:href="#DejaVuSans-65"/>
       <use x="68.408203" xlink:href="#DejaVuSans-117"/>
       <use x="131.787109" xlink:href="#DejaVuSans-103"/>
       <use x="195.263672" xlink:href="#DejaVuSans-32"/>
       <use x="227.050781" xlink:href="#DejaVuSans-50"/>
       <use x="290.673828" xlink:href="#DejaVuSans-48"/>
       <use x="354.296875" xlink:href="#DejaVuSans-50"/>
       <use x="417.919922" xlink:href="#DejaVuSans-48"/>
      </g>
     </g>
    </g>
    <g id="xtick_7">
     <g id="line2d_7">
      <g>
       <use style="stroke:#000000;stroke-width:0.8;" x="307.318743" xlink:href="#m814125b643" y="252"/>
      </g>
     </g>
     <g id="text_7">
      <!-- Sep 2020 -->
      <g transform="translate(310.078118 306.478125)rotate(-90)scale(0.1 -0.1)">
       <defs>
        <path d="M 53.515625 70.515625 
L 53.515625 60.890625 
Q 47.90625 63.578125 42.921875 64.890625 
Q 37.9375 66.21875 33.296875 66.21875 
Q 25.25 66.21875 20.875 63.09375 
Q 16.5 59.96875 16.5 54.203125 
Q 16.5 49.359375 19.40625 46.890625 
Q 22.3125 44.4375 30.421875 42.921875 
L 36.375 41.703125 
Q 47.40625 39.59375 52.65625 34.296875 
Q 57.90625 29 57.90625 20.125 
Q 57.90625 9.515625 50.796875 4.046875 
Q 43.703125 -1.421875 29.984375 -1.421875 
Q 24.8125 -1.421875 18.96875 -0.25 
Q 13.140625 0.921875 6.890625 3.21875 
L 6.890625 13.375 
Q 12.890625 10.015625 18.65625 8.296875 
Q 24.421875 6.59375 29.984375 6.59375 
Q 38.421875 6.59375 43.015625 9.90625 
Q 47.609375 13.234375 47.609375 19.390625 
Q 47.609375 24.75 44.3125 27.78125 
Q 41.015625 30.8125 33.5 32.328125 
L 27.484375 33.5 
Q 16.453125 35.6875 11.515625 40.375 
Q 6.59375 45.0625 6.59375 53.421875 
Q 6.59375 63.09375 13.40625 68.65625 
Q 20.21875 74.21875 32.171875 74.21875 
Q 37.3125 74.21875 42.625 73.28125 
Q 47.953125 72.359375 53.515625 70.515625 
z
" id="DejaVuSans-83"/>
        <path d="M 56.203125 29.59375 
L 56.203125 25.203125 
L 14.890625 25.203125 
Q 15.484375 15.921875 20.484375 11.0625 
Q 25.484375 6.203125 34.421875 6.203125 
Q 39.59375 6.203125 44.453125 7.46875 
Q 49.3125 8.734375 54.109375 11.28125 
L 54.109375 2.78125 
Q 49.265625 0.734375 44.1875 -0.34375 
Q 39.109375 -1.421875 33.890625 -1.421875 
Q 20.796875 -1.421875 13.15625 6.1875 
Q 5.515625 13.8125 5.515625 26.8125 
Q 5.515625 40.234375 12.765625 48.109375 
Q 20.015625 56 32.328125 56 
Q 43.359375 56 49.78125 48.890625 
Q 56.203125 41.796875 56.203125 29.59375 
z
M 47.21875 32.234375 
Q 47.125 39.59375 43.09375 43.984375 
Q 39.0625 48.390625 32.421875 48.390625 
Q 24.90625 48.390625 20.390625 44.140625 
Q 15.875 39.890625 15.1875 32.171875 
z
" id="DejaVuSans-101"/>
       </defs>
       <use xlink:href="#DejaVuSans-83"/>
       <use x="63.476562" xlink:href="#DejaVuSans-101"/>
       <use x="125" xlink:href="#DejaVuSans-112"/>
       <use x="188.476562" xlink:href="#DejaVuSans-32"/>
       <use x="220.263672" xlink:href="#DejaVuSans-50"/>
       <use x="283.886719" xlink:href="#DejaVuSans-48"/>
       <use x="347.509766" xlink:href="#DejaVuSans-50"/>
       <use x="411.132812" xlink:href="#DejaVuSans-48"/>
      </g>
     </g>
    </g>
    <g id="xtick_8">
     <g id="line2d_8">
      <g>
       <use style="stroke:#000000;stroke-width:0.8;" x="350.675386" xlink:href="#m814125b643" y="252"/>
      </g>
     </g>
     <g id="text_8">
      <!-- Oct 2020 -->
      <g transform="translate(353.434761 304.91875)rotate(-90)scale(0.1 -0.1)">
       <defs>
        <path d="M 39.40625 66.21875 
Q 28.65625 66.21875 22.328125 58.203125 
Q 16.015625 50.203125 16.015625 36.375 
Q 16.015625 22.609375 22.328125 14.59375 
Q 28.65625 6.59375 39.40625 6.59375 
Q 50.140625 6.59375 56.421875 14.59375 
Q 62.703125 22.609375 62.703125 36.375 
Q 62.703125 50.203125 56.421875 58.203125 
Q 50.140625 66.21875 39.40625 66.21875 
z
M 39.40625 74.21875 
Q 54.734375 74.21875 63.90625 63.9375 
Q 73.09375 53.65625 73.09375 36.375 
Q 73.09375 19.140625 63.90625 8.859375 
Q 54.734375 -1.421875 39.40625 -1.421875 
Q 24.03125 -1.421875 14.8125 8.828125 
Q 5.609375 19.09375 5.609375 36.375 
Q 5.609375 53.65625 14.8125 63.9375 
Q 24.03125 74.21875 39.40625 74.21875 
z
" id="DejaVuSans-79"/>
        <path d="M 48.78125 52.59375 
L 48.78125 44.1875 
Q 44.96875 46.296875 41.140625 47.34375 
Q 37.3125 48.390625 33.40625 48.390625 
Q 24.65625 48.390625 19.8125 42.84375 
Q 14.984375 37.3125 14.984375 27.296875 
Q 14.984375 17.28125 19.8125 11.734375 
Q 24.65625 6.203125 33.40625 6.203125 
Q 37.3125 6.203125 41.140625 7.25 
Q 44.96875 8.296875 48.78125 10.40625 
L 48.78125 2.09375 
Q 45.015625 0.34375 40.984375 -0.53125 
Q 36.96875 -1.421875 32.421875 -1.421875 
Q 20.0625 -1.421875 12.78125 6.34375 
Q 5.515625 14.109375 5.515625 27.296875 
Q 5.515625 40.671875 12.859375 48.328125 
Q 20.21875 56 33.015625 56 
Q 37.15625 56 41.109375 55.140625 
Q 45.0625 54.296875 48.78125 52.59375 
z
" id="DejaVuSans-99"/>
        <path d="M 18.3125 70.21875 
L 18.3125 54.6875 
L 36.8125 54.6875 
L 36.8125 47.703125 
L 18.3125 47.703125 
L 18.3125 18.015625 
Q 18.3125 11.328125 20.140625 9.421875 
Q 21.96875 7.515625 27.59375 7.515625 
L 36.8125 7.515625 
L 36.8125 0 
L 27.59375 0 
Q 17.1875 0 13.234375 3.875 
Q 9.28125 7.765625 9.28125 18.015625 
L 9.28125 47.703125 
L 2.6875 47.703125 
L 2.6875 54.6875 
L 9.28125 54.6875 
L 9.28125 70.21875 
z
" id="DejaVuSans-116"/>
       </defs>
       <use xlink:href="#DejaVuSans-79"/>
       <use x="78.710938" xlink:href="#DejaVuSans-99"/>
       <use x="133.691406" xlink:href="#DejaVuSans-116"/>
       <use x="172.900391" xlink:href="#DejaVuSans-32"/>
       <use x="204.6875" xlink:href="#DejaVuSans-50"/>
       <use x="268.310547" xlink:href="#DejaVuSans-48"/>
       <use x="331.933594" xlink:href="#DejaVuSans-50"/>
       <use x="395.556641" xlink:href="#DejaVuSans-48"/>
      </g>
     </g>
    </g>
    <g id="xtick_9">
     <g id="line2d_9">
      <g>
       <use style="stroke:#000000;stroke-width:0.8;" x="395.477251" xlink:href="#m814125b643" y="252"/>
      </g>
     </g>
     <g id="text_9">
      <!-- Nov 2020 -->
      <g transform="translate(398.236626 307.146875)rotate(-90)scale(0.1 -0.1)">
       <defs>
        <path d="M 9.8125 72.90625 
L 23.09375 72.90625 
L 55.421875 11.921875 
L 55.421875 72.90625 
L 64.984375 72.90625 
L 64.984375 0 
L 51.703125 0 
L 19.390625 60.984375 
L 19.390625 0 
L 9.8125 0 
z
" id="DejaVuSans-78"/>
        <path d="M 30.609375 48.390625 
Q 23.390625 48.390625 19.1875 42.75 
Q 14.984375 37.109375 14.984375 27.296875 
Q 14.984375 17.484375 19.15625 11.84375 
Q 23.34375 6.203125 30.609375 6.203125 
Q 37.796875 6.203125 41.984375 11.859375 
Q 46.1875 17.53125 46.1875 27.296875 
Q 46.1875 37.015625 41.984375 42.703125 
Q 37.796875 48.390625 30.609375 48.390625 
z
M 30.609375 56 
Q 42.328125 56 49.015625 48.375 
Q 55.71875 40.765625 55.71875 27.296875 
Q 55.71875 13.875 49.015625 6.21875 
Q 42.328125 -1.421875 30.609375 -1.421875 
Q 18.84375 -1.421875 12.171875 6.21875 
Q 5.515625 13.875 5.515625 27.296875 
Q 5.515625 40.765625 12.171875 48.375 
Q 18.84375 56 30.609375 56 
z
" id="DejaVuSans-111"/>
        <path d="M 2.984375 54.6875 
L 12.5 54.6875 
L 29.59375 8.796875 
L 46.6875 54.6875 
L 56.203125 54.6875 
L 35.6875 0 
L 23.484375 0 
z
" id="DejaVuSans-118"/>
       </defs>
       <use xlink:href="#DejaVuSans-78"/>
       <use x="74.804688" xlink:href="#DejaVuSans-111"/>
       <use x="135.986328" xlink:href="#DejaVuSans-118"/>
       <use x="195.166016" xlink:href="#DejaVuSans-32"/>
       <use x="226.953125" xlink:href="#DejaVuSans-50"/>
       <use x="290.576172" xlink:href="#DejaVuSans-48"/>
       <use x="354.199219" xlink:href="#DejaVuSans-50"/>
       <use x="417.822266" xlink:href="#DejaVuSans-48"/>
      </g>
     </g>
    </g>
    <g id="xtick_10">
     <g id="line2d_10">
      <g>
       <use style="stroke:#000000;stroke-width:0.8;" x="438.833894" xlink:href="#m814125b643" y="252"/>
      </g>
     </g>
     <g id="text_10">
      <!-- Dec 2020 -->
      <g transform="translate(441.593269 306.979687)rotate(-90)scale(0.1 -0.1)">
       <defs>
        <path d="M 19.671875 64.796875 
L 19.671875 8.109375 
L 31.59375 8.109375 
Q 46.6875 8.109375 53.6875 14.9375 
Q 60.6875 21.78125 60.6875 36.53125 
Q 60.6875 51.171875 53.6875 57.984375 
Q 46.6875 64.796875 31.59375 64.796875 
z
M 9.8125 72.90625 
L 30.078125 72.90625 
Q 51.265625 72.90625 61.171875 64.09375 
Q 71.09375 55.28125 71.09375 36.53125 
Q 71.09375 17.671875 61.125 8.828125 
Q 51.171875 0 30.078125 0 
L 9.8125 0 
z
" id="DejaVuSans-68"/>
       </defs>
       <use xlink:href="#DejaVuSans-68"/>
       <use x="77.001953" xlink:href="#DejaVuSans-101"/>
       <use x="138.525391" xlink:href="#DejaVuSans-99"/>
       <use x="193.505859" xlink:href="#DejaVuSans-32"/>
       <use x="225.292969" xlink:href="#DejaVuSans-50"/>
       <use x="288.916016" xlink:href="#DejaVuSans-48"/>
       <use x="352.539062" xlink:href="#DejaVuSans-50"/>
       <use x="416.162109" xlink:href="#DejaVuSans-48"/>
      </g>
     </g>
    </g>
    <g id="xtick_11">
     <g id="line2d_11">
      <g>
       <use style="stroke:#000000;stroke-width:0.8;" x="483.635759" xlink:href="#m814125b643" y="252"/>
      </g>
     </g>
     <g id="text_11">
      <!-- Jan 2021 -->
      <g transform="translate(486.395134 303.04375)rotate(-90)scale(0.1 -0.1)">
       <defs>
        <path d="M 12.40625 8.296875 
L 28.515625 8.296875 
L 28.515625 63.921875 
L 10.984375 60.40625 
L 10.984375 69.390625 
L 28.421875 72.90625 
L 38.28125 72.90625 
L 38.28125 8.296875 
L 54.390625 8.296875 
L 54.390625 0 
L 12.40625 0 
z
" id="DejaVuSans-49"/>
       </defs>
       <use xlink:href="#DejaVuSans-74"/>
       <use x="29.492188" xlink:href="#DejaVuSans-97"/>
       <use x="90.771484" xlink:href="#DejaVuSans-110"/>
       <use x="154.150391" xlink:href="#DejaVuSans-32"/>
       <use x="185.9375" xlink:href="#DejaVuSans-50"/>
       <use x="249.560547" xlink:href="#DejaVuSans-48"/>
       <use x="313.183594" xlink:href="#DejaVuSans-50"/>
       <use x="376.806641" xlink:href="#DejaVuSans-49"/>
      </g>
     </g>
    </g>
    <g id="xtick_12">
     <g id="line2d_12">
      <g>
       <use style="stroke:#000000;stroke-width:0.8;" x="528.437624" xlink:href="#m814125b643" y="252"/>
      </g>
     </g>
     <g id="text_12">
      <!-- Feb 2021 -->
      <g transform="translate(531.196999 305.33125)rotate(-90)scale(0.1 -0.1)">
       <defs>
        <path d="M 9.8125 72.90625 
L 51.703125 72.90625 
L 51.703125 64.59375 
L 19.671875 64.59375 
L 19.671875 43.109375 
L 48.578125 43.109375 
L 48.578125 34.8125 
L 19.671875 34.8125 
L 19.671875 0 
L 9.8125 0 
z
" id="DejaVuSans-70"/>
        <path d="M 48.6875 27.296875 
Q 48.6875 37.203125 44.609375 42.84375 
Q 40.53125 48.484375 33.40625 48.484375 
Q 26.265625 48.484375 22.1875 42.84375 
Q 18.109375 37.203125 18.109375 27.296875 
Q 18.109375 17.390625 22.1875 11.75 
Q 26.265625 6.109375 33.40625 6.109375 
Q 40.53125 6.109375 44.609375 11.75 
Q 48.6875 17.390625 48.6875 27.296875 
z
M 18.109375 46.390625 
Q 20.953125 51.265625 25.265625 53.625 
Q 29.59375 56 35.59375 56 
Q 45.5625 56 51.78125 48.09375 
Q 58.015625 40.1875 58.015625 27.296875 
Q 58.015625 14.40625 51.78125 6.484375 
Q 45.5625 -1.421875 35.59375 -1.421875 
Q 29.59375 -1.421875 25.265625 0.953125 
Q 20.953125 3.328125 18.109375 8.203125 
L 18.109375 0 
L 9.078125 0 
L 9.078125 75.984375 
L 18.109375 75.984375 
z
" id="DejaVuSans-98"/>
       </defs>
       <use xlink:href="#DejaVuSans-70"/>
       <use x="52.019531" xlink:href="#DejaVuSans-101"/>
       <use x="113.542969" xlink:href="#DejaVuSans-98"/>
       <use x="177.019531" xlink:href="#DejaVuSans-32"/>
       <use x="208.806641" xlink:href="#DejaVuSans-50"/>
       <use x="272.429688" xlink:href="#DejaVuSans-48"/>
       <use x="336.052734" xlink:href="#DejaVuSans-50"/>
       <use x="399.675781" xlink:href="#DejaVuSans-49"/>
      </g>
     </g>
    </g>
    <g id="xtick_13">
     <g id="line2d_13">
      <g>
       <use style="stroke:#000000;stroke-width:0.8;" x="568.903824" xlink:href="#m814125b643" y="252"/>
      </g>
     </g>
     <g id="text_13">
      <!-- Mar 2021 -->
      <g transform="translate(571.663199 306.495312)rotate(-90)scale(0.1 -0.1)">
       <use xlink:href="#DejaVuSans-77"/>
       <use x="86.279297" xlink:href="#DejaVuSans-97"/>
       <use x="147.558594" xlink:href="#DejaVuSans-114"/>
       <use x="188.671875" xlink:href="#DejaVuSans-32"/>
       <use x="220.458984" xlink:href="#DejaVuSans-50"/>
       <use x="284.082031" xlink:href="#DejaVuSans-48"/>
       <use x="347.705078" xlink:href="#DejaVuSans-50"/>
       <use x="411.328125" xlink:href="#DejaVuSans-49"/>
      </g>
     </g>
    </g>
    <g id="text_14">
     <!-- Start date -->
     <g transform="translate(294.525 319.901562)scale(0.1 -0.1)">
      <defs>
       <path d="M 45.40625 46.390625 
L 45.40625 75.984375 
L 54.390625 75.984375 
L 54.390625 0 
L 45.40625 0 
L 45.40625 8.203125 
Q 42.578125 3.328125 38.25 0.953125 
Q 33.9375 -1.421875 27.875 -1.421875 
Q 17.96875 -1.421875 11.734375 6.484375 
Q 5.515625 14.40625 5.515625 27.296875 
Q 5.515625 40.1875 11.734375 48.09375 
Q 17.96875 56 27.875 56 
Q 33.9375 56 38.25 53.625 
Q 42.578125 51.265625 45.40625 46.390625 
z
M 14.796875 27.296875 
Q 14.796875 17.390625 18.875 11.75 
Q 22.953125 6.109375 30.078125 6.109375 
Q 37.203125 6.109375 41.296875 11.75 
Q 45.40625 17.390625 45.40625 27.296875 
Q 45.40625 37.203125 41.296875 42.84375 
Q 37.203125 48.484375 30.078125 48.484375 
Q 22.953125 48.484375 18.875 42.84375 
Q 14.796875 37.203125 14.796875 27.296875 
z
" id="DejaVuSans-100"/>
      </defs>
      <use xlink:href="#DejaVuSans-83"/>
      <use x="63.476562" xlink:href="#DejaVuSans-116"/>
      <use x="102.685547" xlink:href="#DejaVuSans-97"/>
      <use x="163.964844" xlink:href="#DejaVuSans-114"/>
      <use x="205.078125" xlink:href="#DejaVuSans-116"/>
      <use x="244.287109" xlink:href="#DejaVuSans-32"/>
      <use x="276.074219" xlink:href="#DejaVuSans-100"/>
      <use x="339.550781" xlink:href="#DejaVuSans-97"/>
      <use x="400.830078" xlink:href="#DejaVuSans-116"/>
      <use x="440.039062" xlink:href="#DejaVuSans-101"/>
     </g>
    </g>
   </g>
   <g id="matplotlib.axis_2">
    <g id="ytick_1">
     <g id="line2d_14">
      <defs>
       <path d="M 0 0 
L -3.5 0 
" id="md9421065ce" style="stroke:#000000;stroke-width:0.8;"/>
      </defs>
      <g>
       <use style="stroke:#000000;stroke-width:0.8;" x="40.603125" xlink:href="#md9421065ce" y="240.872727"/>
      </g>
     </g>
     <g id="text_15">
      <!-- 0 -->
      <g transform="translate(27.240625 244.671946)scale(0.1 -0.1)">
       <use xlink:href="#DejaVuSans-48"/>
      </g>
     </g>
    </g>
    <g id="ytick_2">
     <g id="line2d_15">
      <g>
       <use style="stroke:#000000;stroke-width:0.8;" x="40.603125" xlink:href="#md9421065ce" y="200.409917"/>
      </g>
     </g>
     <g id="text_16">
      <!-- 10 -->
      <g transform="translate(20.878125 204.209136)scale(0.1 -0.1)">
       <use xlink:href="#DejaVuSans-49"/>
       <use x="63.623047" xlink:href="#DejaVuSans-48"/>
      </g>
     </g>
    </g>
    <g id="ytick_3">
     <g id="line2d_16">
      <g>
       <use style="stroke:#000000;stroke-width:0.8;" x="40.603125" xlink:href="#md9421065ce" y="159.947107"/>
      </g>
     </g>
     <g id="text_17">
      <!-- 20 -->
      <g transform="translate(20.878125 163.746326)scale(0.1 -0.1)">
       <use xlink:href="#DejaVuSans-50"/>
       <use x="63.623047" xlink:href="#DejaVuSans-48"/>
      </g>
     </g>
    </g>
    <g id="ytick_4">
     <g id="line2d_17">
      <g>
       <use style="stroke:#000000;stroke-width:0.8;" x="40.603125" xlink:href="#md9421065ce" y="119.484298"/>
      </g>
     </g>
     <g id="text_18">
      <!-- 30 -->
      <g transform="translate(20.878125 123.283516)scale(0.1 -0.1)">
       <defs>
        <path d="M 40.578125 39.3125 
Q 47.65625 37.796875 51.625 33 
Q 55.609375 28.21875 55.609375 21.1875 
Q 55.609375 10.40625 48.1875 4.484375 
Q 40.765625 -1.421875 27.09375 -1.421875 
Q 22.515625 -1.421875 17.65625 -0.515625 
Q 12.796875 0.390625 7.625 2.203125 
L 7.625 11.71875 
Q 11.71875 9.328125 16.59375 8.109375 
Q 21.484375 6.890625 26.8125 6.890625 
Q 36.078125 6.890625 40.9375 10.546875 
Q 45.796875 14.203125 45.796875 21.1875 
Q 45.796875 27.640625 41.28125 31.265625 
Q 36.765625 34.90625 28.71875 34.90625 
L 20.21875 34.90625 
L 20.21875 43.015625 
L 29.109375 43.015625 
Q 36.375 43.015625 40.234375 45.921875 
Q 44.09375 48.828125 44.09375 54.296875 
Q 44.09375 59.90625 40.109375 62.90625 
Q 36.140625 65.921875 28.71875 65.921875 
Q 24.65625 65.921875 20.015625 65.03125 
Q 15.375 64.15625 9.8125 62.3125 
L 9.8125 71.09375 
Q 15.4375 72.65625 20.34375 73.4375 
Q 25.25 74.21875 29.59375 74.21875 
Q 40.828125 74.21875 47.359375 69.109375 
Q 53.90625 64.015625 53.90625 55.328125 
Q 53.90625 49.265625 50.4375 45.09375 
Q 46.96875 40.921875 40.578125 39.3125 
z
" id="DejaVuSans-51"/>
       </defs>
       <use xlink:href="#DejaVuSans-51"/>
       <use x="63.623047" xlink:href="#DejaVuSans-48"/>
      </g>
     </g>
    </g>
    <g id="ytick_5">
     <g id="line2d_18">
      <g>
       <use style="stroke:#000000;stroke-width:0.8;" x="40.603125" xlink:href="#md9421065ce" y="79.021488"/>
      </g>
     </g>
     <g id="text_19">
      <!-- 40 -->
      <g transform="translate(20.878125 82.820706)scale(0.1 -0.1)">
       <defs>
        <path d="M 37.796875 64.3125 
L 12.890625 25.390625 
L 37.796875 25.390625 
z
M 35.203125 72.90625 
L 47.609375 72.90625 
L 47.609375 25.390625 
L 58.015625 25.390625 
L 58.015625 17.1875 
L 47.609375 17.1875 
L 47.609375 0 
L 37.796875 0 
L 37.796875 17.1875 
L 4.890625 17.1875 
L 4.890625 26.703125 
z
" id="DejaVuSans-52"/>
       </defs>
       <use xlink:href="#DejaVuSans-52"/>
       <use x="63.623047" xlink:href="#DejaVuSans-48"/>
      </g>
     </g>
    </g>
    <g id="ytick_6">
     <g id="line2d_19">
      <g>
       <use style="stroke:#000000;stroke-width:0.8;" x="40.603125" xlink:href="#md9421065ce" y="38.558678"/>
      </g>
     </g>
     <g id="text_20">
      <!-- 50 -->
      <g transform="translate(20.878125 42.357896)scale(0.1 -0.1)">
       <defs>
        <path d="M 10.796875 72.90625 
L 49.515625 72.90625 
L 49.515625 64.59375 
L 19.828125 64.59375 
L 19.828125 46.734375 
Q 21.96875 47.46875 24.109375 47.828125 
Q 26.265625 48.1875 28.421875 48.1875 
Q 40.625 48.1875 47.75 41.5 
Q 54.890625 34.8125 54.890625 23.390625 
Q 54.890625 11.625 47.5625 5.09375 
Q 40.234375 -1.421875 26.90625 -1.421875 
Q 22.3125 -1.421875 17.546875 -0.640625 
Q 12.796875 0.140625 7.71875 1.703125 
L 7.71875 11.625 
Q 12.109375 9.234375 16.796875 8.0625 
Q 21.484375 6.890625 26.703125 6.890625 
Q 35.15625 6.890625 40.078125 11.328125 
Q 45.015625 15.765625 45.015625 23.390625 
Q 45.015625 31 40.078125 35.4375 
Q 35.15625 39.890625 26.703125 39.890625 
Q 22.75 39.890625 18.8125 39.015625 
Q 14.890625 38.140625 10.796875 36.28125 
z
" id="DejaVuSans-53"/>
       </defs>
       <use xlink:href="#DejaVuSans-53"/>
       <use x="63.623047" xlink:href="#DejaVuSans-48"/>
      </g>
     </g>
    </g>
    <g id="text_21">
     <!-- Stay (in days) -->
     <g transform="translate(14.798437 164.197656)rotate(-90)scale(0.1 -0.1)">
      <defs>
       <path d="M 31 75.875 
Q 24.46875 64.65625 21.28125 53.65625 
Q 18.109375 42.671875 18.109375 31.390625 
Q 18.109375 20.125 21.3125 9.0625 
Q 24.515625 -2 31 -13.1875 
L 23.1875 -13.1875 
Q 15.875 -1.703125 12.234375 9.375 
Q 8.59375 20.453125 8.59375 31.390625 
Q 8.59375 42.28125 12.203125 53.3125 
Q 15.828125 64.359375 23.1875 75.875 
z
" id="DejaVuSans-40"/>
       <path d="M 9.421875 54.6875 
L 18.40625 54.6875 
L 18.40625 0 
L 9.421875 0 
z
M 9.421875 75.984375 
L 18.40625 75.984375 
L 18.40625 64.59375 
L 9.421875 64.59375 
z
" id="DejaVuSans-105"/>
       <path d="M 44.28125 53.078125 
L 44.28125 44.578125 
Q 40.484375 46.53125 36.375 47.5 
Q 32.28125 48.484375 27.875 48.484375 
Q 21.1875 48.484375 17.84375 46.4375 
Q 14.5 44.390625 14.5 40.28125 
Q 14.5 37.15625 16.890625 35.375 
Q 19.28125 33.59375 26.515625 31.984375 
L 29.59375 31.296875 
Q 39.15625 29.25 43.1875 25.515625 
Q 47.21875 21.78125 47.21875 15.09375 
Q 47.21875 7.46875 41.1875 3.015625 
Q 35.15625 -1.421875 24.609375 -1.421875 
Q 20.21875 -1.421875 15.453125 -0.5625 
Q 10.6875 0.296875 5.421875 2 
L 5.421875 11.28125 
Q 10.40625 8.6875 15.234375 7.390625 
Q 20.0625 6.109375 24.8125 6.109375 
Q 31.15625 6.109375 34.5625 8.28125 
Q 37.984375 10.453125 37.984375 14.40625 
Q 37.984375 18.0625 35.515625 20.015625 
Q 33.0625 21.96875 24.703125 23.78125 
L 21.578125 24.515625 
Q 13.234375 26.265625 9.515625 29.90625 
Q 5.8125 33.546875 5.8125 39.890625 
Q 5.8125 47.609375 11.28125 51.796875 
Q 16.75 56 26.8125 56 
Q 31.78125 56 36.171875 55.265625 
Q 40.578125 54.546875 44.28125 53.078125 
z
" id="DejaVuSans-115"/>
       <path d="M 8.015625 75.875 
L 15.828125 75.875 
Q 23.140625 64.359375 26.78125 53.3125 
Q 30.421875 42.28125 30.421875 31.390625 
Q 30.421875 20.453125 26.78125 9.375 
Q 23.140625 -1.703125 15.828125 -13.1875 
L 8.015625 -13.1875 
Q 14.5 -2 17.703125 9.0625 
Q 20.90625 20.125 20.90625 31.390625 
Q 20.90625 42.671875 17.703125 53.65625 
Q 14.5 64.65625 8.015625 75.875 
z
" id="DejaVuSans-41"/>
      </defs>
      <use xlink:href="#DejaVuSans-83"/>
      <use x="63.476562" xlink:href="#DejaVuSans-116"/>
      <use x="102.685547" xlink:href="#DejaVuSans-97"/>
      <use x="163.964844" xlink:href="#DejaVuSans-121"/>
      <use x="223.144531" xlink:href="#DejaVuSans-32"/>
      <use x="254.931641" xlink:href="#DejaVuSans-40"/>
      <use x="293.945312" xlink:href="#DejaVuSans-105"/>
      <use x="321.728516" xlink:href="#DejaVuSans-110"/>
      <use x="385.107422" xlink:href="#DejaVuSans-32"/>
      <use x="416.894531" xlink:href="#DejaVuSans-100"/>
      <use x="480.371094" xlink:href="#DejaVuSans-97"/>
      <use x="541.650391" xlink:href="#DejaVuSans-121"/>
      <use x="600.830078" xlink:href="#DejaVuSans-115"/>
      <use x="652.929688" xlink:href="#DejaVuSans-41"/>
     </g>
    </g>
   </g>
   <g id="line2d_20">
    <path clip-path="url(#p012229c02c)" d="M 65.966761 222.664463 
L 67.411983 180.178512 
L 68.857204 153.877686 
L 70.302426 196.363636 
L 71.747647 105.322314 
L 73.192869 232.780165 
L 74.63809 125.553719 
L 76.083311 60.813223 
L 77.528533 159.947107 
L 78.973754 145.110744 
L 80.418976 172.08595 
L 81.864197 102.624793 
L 83.309419 168.039669 
L 84.75464 105.322314 
L 86.199862 161.295868 
L 87.645083 200.409917 
L 89.090304 172.08595 
L 90.535526 176.132231 
L 91.980747 200.409917 
L 93.425969 176.132231 
L 94.87119 168.039669 
L 96.316412 143.761983 
L 97.761633 139.715702 
L 100.652076 200.409917 
L 103.542519 155.900826 
L 104.98774 166.016529 
L 106.432962 223.338843 
L 109.323405 143.761983 
L 110.768626 151.854545 
L 115.104291 74.975207 
L 116.549512 107.345455 
L 117.994733 189.282645 
L 119.439955 163.993388 
L 120.885176 232.780165 
L 122.330398 192.317355 
L 123.775619 207.153719 
L 125.220841 200.409917 
L 126.666062 205.467769 
L 128.111284 190.968595 
L 129.556505 172.08595 
L 131.001726 149.831405 
L 132.446948 199.600661 
L 133.892169 204.456198 
L 135.337391 161.970248 
L 136.782612 209.85124 
L 138.227834 202.433058 
L 141.118277 220.641322 
L 142.563498 54.743802 
L 144.008719 197.712397 
L 145.453941 163.993388 
L 146.899162 188.271074 
L 148.344384 144.773554 
L 149.789605 172.08595 
L 151.234827 185.236364 
L 152.680048 194.340496 
L 154.12527 172.895207 
L 155.570491 170.06281 
L 157.015712 181.912633 
L 158.460934 168.039669 
L 159.906155 206.479339 
L 161.351377 186.247934 
L 162.796598 182.876033 
L 164.24182 173.242031 
L 165.687041 176.132231 
L 167.132263 212.54876 
L 168.577484 212.54876 
L 170.022705 196.363636 
L 171.467927 192.317355 
L 172.913148 195.014876 
L 174.35837 169.658182 
L 175.803591 177.649587 
L 177.248813 212.54876 
L 178.694034 224.687603 
L 181.584477 196.363636 
L 183.029698 166.016529 
L 184.47492 197.712397 
L 185.920141 168.848926 
L 187.365363 163.993388 
L 188.810584 192.317355 
L 190.255806 191.841322 
L 191.701027 203.107438 
L 193.146249 183.775207 
L 194.59147 101.276033 
L 196.036691 176.132231 
L 197.481913 180.546356 
L 198.927134 211.334876 
L 200.372356 152.590233 
L 201.817577 196.026446 
L 203.262799 205.078703 
L 204.70802 192.991736 
L 206.153242 187.959822 
L 207.598463 194.221488 
L 209.043684 188.560094 
L 210.488906 149.831405 
L 211.934127 195.014876 
L 213.379349 180.431405 
L 214.82457 145.380496 
L 216.269792 185.076642 
L 217.715013 134.479339 
L 219.160235 176.316153 
L 220.605456 159.947107 
L 222.050677 122.596821 
L 223.495899 179.672727 
L 224.94112 181.030361 
L 226.386342 171.382249 
L 227.831563 159.947107 
L 229.276785 184.561983 
L 230.722006 191.642975 
L 232.167228 149.426777 
L 233.612449 169.19575 
L 235.05767 138.704132 
L 236.502892 163.853861 
L 237.948113 186.416529 
L 239.393335 190.110293 
L 240.838556 177.011858 
L 242.283778 124.542149 
L 243.728999 158.82314 
L 245.174221 174.333884 
L 246.619442 169.974847 
L 248.064663 173.866314 
L 249.509885 160.284298 
L 250.955106 168.919296 
L 252.400328 134.545455 
L 253.845549 175.233058 
L 255.290771 166.104492 
L 256.735992 194.221488 
L 258.181214 182.11369 
L 261.071656 168.170195 
L 262.516878 155.001653 
L 263.962099 182.201653 
L 265.407321 185.910744 
L 266.852542 174.660856 
L 268.297764 166.639034 
L 269.742985 171.307819 
L 271.188207 175.008264 
L 272.633428 159.441322 
L 274.078649 187.192066 
L 275.523871 185.742149 
L 276.969092 185.808121 
L 278.414314 200.578512 
L 279.859535 171.534185 
L 281.304757 186.652562 
L 282.749978 159.555532 
L 284.1952 198.521653 
L 285.640421 196.768264 
L 287.085642 183.798869 
L 288.530864 145.881464 
L 289.976085 167.160043 
L 291.421307 185.067769 
L 292.866528 183.74876 
L 294.31175 168.882645 
L 295.756971 201.188048 
L 297.202193 163.507835 
L 298.647414 171.50791 
L 300.092635 173.276033 
L 301.537857 184.928494 
L 302.983078 165.464763 
L 304.4283 152.806612 
L 305.873521 201.188048 
L 307.318743 182.095172 
L 308.763964 185.438678 
L 310.209186 178.155372 
L 311.654407 195.91405 
L 313.099628 199.446517 
L 314.54485 184.67438 
L 315.990071 195.959008 
L 317.435293 185.188194 
L 318.880514 206.382999 
L 320.325736 177.396694 
L 323.216179 196.813223 
L 324.6614 181.302479 
L 326.106622 169.72562 
L 327.551843 171.65242 
L 328.997064 165.763636 
L 330.442286 186.247934 
L 331.887507 160.756364 
L 333.332729 188.271074 
L 334.77795 203.950413 
L 336.223172 168.407513 
L 337.668393 193.78873 
L 339.113615 189.535537 
L 340.558836 177.622967 
L 342.004057 200.409917 
L 343.449279 184.802834 
L 344.8945 195.959008 
L 346.339722 151.232041 
L 347.784943 173.603306 
L 349.230165 168.848926 
L 350.675386 189.619835 
L 352.120608 150.084298 
L 353.565829 176.357025 
L 355.01105 187.512397 
L 356.456272 171.74876 
L 357.901493 160.621488 
L 359.346715 195.352066 
L 360.791936 181.423522 
L 362.237158 189.282645 
L 363.682379 181.797025 
L 365.127601 202.249136 
L 366.572822 183.466116 
L 368.018043 185.910744 
L 369.463265 174.942149 
L 370.908486 157.178599 
L 372.353708 152.360331 
L 373.798929 179.419835 
L 375.244151 208.907107 
L 376.689372 147.497012 
L 378.134594 182.201653 
L 379.579815 178.155372 
L 381.025036 186.366942 
L 382.470258 198.231151 
L 383.915479 196.768264 
L 385.360701 175.198474 
L 386.805922 193.834711 
L 388.251144 172.397203 
L 389.696365 188.720661 
L 391.141587 172.323967 
L 392.586808 196.674889 
L 394.032029 180.448264 
L 395.477251 174.293013 
L 396.922472 203.878158 
L 398.367694 173.856198 
L 399.812915 198.589091 
L 401.258137 174.887222 
L 402.703358 190.449841 
L 404.14858 147.808264 
L 405.593801 168.579174 
L 407.039022 193.834711 
L 408.484244 174.513719 
L 409.929465 179.600472 
L 411.374687 176.754736 
L 412.819908 163.740496 
L 414.26513 203.242314 
L 415.710351 177.480992 
L 417.155573 177.143802 
L 418.600794 187.461818 
L 420.046015 183.121262 
L 421.491237 170.529688 
L 422.936458 195.959008 
L 424.38168 166.915702 
L 425.826901 176.132231 
L 427.272123 192.317355 
L 428.717344 189.122923 
L 430.162566 182.876033 
L 431.607787 164.860449 
L 433.053008 188.893579 
L 434.49823 179.311452 
L 435.943451 198.542403 
L 437.388673 141.257143 
L 438.833894 187.664132 
L 440.279116 155.515466 
L 441.724337 191.193388 
L 443.169559 168.215595 
L 444.61478 173.704463 
L 446.060001 173.925169 
L 447.505223 193.196982 
L 450.395666 177.410004 
L 451.840887 190.110293 
L 453.286109 183.935773 
L 454.73133 175.682645 
L 456.176552 197.982149 
L 457.621773 176.98408 
L 459.066994 175.008264 
L 460.512216 167.487904 
L 461.957437 180.354438 
L 463.402659 156.406612 
L 466.293102 174.311405 
L 467.738323 183.415537 
L 469.183545 179.226446 
L 470.628766 181.190083 
L 472.073987 202.298182 
L 473.519209 188.810579 
L 474.96443 181.077686 
L 476.409652 176.334545 
L 477.854873 194.629516 
L 479.300095 170.246732 
L 480.745316 187.73157 
L 482.190538 178.733412 
L 483.635759 176.132231 
L 485.08098 171.186777 
L 486.526202 181.88221 
L 487.971423 205.170248 
L 489.416645 176.132231 
L 490.861866 190.159339 
L 492.307088 184.427107 
L 493.752309 203.878158 
L 495.197531 188.77686 
L 496.642752 180.178512 
L 498.087973 199.735537 
L 499.533195 183.719008 
L 500.978416 203.444628 
L 502.423638 210.019835 
L 503.868859 188.001322 
L 505.314081 217.943802 
L 506.759302 192.991736 
L 508.204524 196.73148 
L 509.649745 205.946933 
L 511.094966 188.849115 
L 512.540188 207.828099 
L 513.985409 203.646942 
L 515.430631 191.305785 
L 516.875852 194.340496 
L 518.321074 193.666116 
L 519.766295 192.006103 
L 521.211517 197.835011 
L 522.656738 204.456198 
L 524.101959 190.968595 
L 525.547181 189.080331 
L 526.992402 198.61157 
L 528.437624 192.317355 
L 529.882845 192.895396 
L 531.328067 199.253837 
L 532.773288 203.107438 
L 534.21851 186.922314 
L 535.663731 193.053043 
L 537.108953 190.698843 
L 538.554174 214.571901 
L 539.999395 206.663261 
L 541.444617 195.55438 
L 542.889838 197.577521 
L 544.33506 198.639669 
L 545.780281 205.130579 
L 547.225503 201.565998 
L 548.670724 206.142149 
L 551.561167 212.916604 
L 553.006388 220.641322 
L 554.45161 223.78843 
L 555.896831 213.054545 
L 557.342053 211.53719 
L 558.787274 219.905635 
L 560.232496 217.494215 
L 561.677717 219.742149 
L 563.122939 227.722314 
L 564.56816 223.584072 
L 566.013381 232.105785 
L 567.458603 231.161653 
L 568.903824 236.826446 
L 570.349046 230.757025 
L 573.239489 238.849587 
L 573.239489 238.849587 
" style="fill:none;stroke:#1f77b4;stroke-linecap:square;stroke-width:0.8;"/>
   </g>
   <g id="line2d_21">
    <path clip-path="url(#p012229c02c)" d="M 40.603125 181.122736 
L 598.603125 181.122736 
" style="fill:none;stroke:#000000;stroke-dasharray:2.96,1.28;stroke-dashoffset:0;stroke-width:0.8;"/>
   </g>
   <g id="patch_3">
    <path d="M 40.603125 252 
L 40.603125 7.2 
" style="fill:none;stroke:#000000;stroke-linecap:square;stroke-linejoin:miter;stroke-width:0.8;"/>
   </g>
   <g id="patch_4">
    <path d="M 40.603125 252 
L 598.603125 252 
" style="fill:none;stroke:#000000;stroke-linecap:square;stroke-linejoin:miter;stroke-width:0.8;"/>
   </g>
   <g id="legend_1">
    <g id="patch_5">
     <path d="M 532.35625 29.878125 
L 591.603125 29.878125 
Q 593.603125 29.878125 593.603125 27.878125 
L 593.603125 14.2 
Q 593.603125 12.2 591.603125 12.2 
L 532.35625 12.2 
Q 530.35625 12.2 530.35625 14.2 
L 530.35625 27.878125 
Q 530.35625 29.878125 532.35625 29.878125 
z
" style="fill:#ffffff;opacity:0.8;stroke:#cccccc;stroke-linejoin:miter;"/>
    </g>
    <g id="line2d_22">
     <path d="M 534.35625 20.298437 
L 554.35625 20.298437 
" style="fill:none;stroke:#000000;stroke-dasharray:2.96,1.28;stroke-dashoffset:0;stroke-width:0.8;"/>
    </g>
    <g id="line2d_23"/>
    <g id="text_22">
     <!-- Mean -->
     <g transform="translate(562.35625 23.798437)scale(0.1 -0.1)">
      <use xlink:href="#DejaVuSans-77"/>
      <use x="86.279297" xlink:href="#DejaVuSans-101"/>
      <use x="147.802734" xlink:href="#DejaVuSans-97"/>
      <use x="209.082031" xlink:href="#DejaVuSans-110"/>
     </g>
    </g>
   </g>
  </g>
 </g>
 <defs>
  <clipPath id="p012229c02c">
   <rect height="244.8" width="558" x="40.603125" y="7.2"/>
  </clipPath>
 </defs>
</svg>
