<?xml version="1.0" encoding="utf-8" standalone="no"?>
<!DOCTYPE svg PUBLIC "-//W3C//DTD SVG 1.1//EN"
  "http://www.w3.org/Graphics/SVG/1.1/DTD/svg11.dtd">
<!-- Created with matplotlib (https://matplotlib.org/) -->
<svg height="329.18125pt" version="1.1" viewBox="0 0 605.803125 329.18125" width="605.803125pt" xmlns="http://www.w3.org/2000/svg" xmlns:xlink="http://www.w3.org/1999/xlink">
 <metadata>
  <rdf:RDF xmlns:cc="http://creativecommons.org/ns#" xmlns:dc="http://purl.org/dc/elements/1.1/" xmlns:rdf="http://www.w3.org/1999/02/22-rdf-syntax-ns#">
   <cc:Work>
    <dc:type rdf:resource="http://purl.org/dc/dcmitype/StillImage"/>
    <dc:date>2021-03-14T22:07:48.734762</dc:date>
    <dc:format>image/svg+xml</dc:format>
    <dc:creator>
     <cc:Agent>
      <dc:title>Matplotlib v3.3.4, https://matplotlib.org/</dc:title>
     </cc:Agent>
    </dc:creator>
   </cc:Work>
  </rdf:RDF>
 </metadata>
 <defs>
  <style type="text/css">*{stroke-linecap:butt;stroke-linejoin:round;}</style>
 </defs>
 <g id="figure_1">
  <g id="patch_1">
   <path d="M 0 329.18125 
L 605.803125 329.18125 
L 605.803125 0 
L 0 0 
z
" style="fill:none;"/>
  </g>
  <g id="axes_1">
   <g id="patch_2">
    <path d="M 40.603125 252 
L 598.603125 252 
L 598.603125 7.2 
L 40.603125 7.2 
z
" style="fill:#ffffff;"/>
   </g>
   <g id="PolyCollection_1">
    <path clip-path="url(#ped8ed4e968)" d="M 71.747647 137.053256 
L 71.747647 156.694778 
L 71.747647 137.053256 
L 71.747647 137.053256 
z
" style="fill:#1f77b4;fill-opacity:0.2;stroke:#1f77b4;stroke-opacity:0.2;"/>
    <path clip-path="url(#ped8ed4e968)" d="M 77.528533 145.471051 
L 77.528533 224.037137 
L 78.973754 232.454932 
L 80.418976 224.037137 
L 81.864197 210.94279 
L 81.864197 100.576144 
L 81.864197 100.576144 
L 80.418976 139.859188 
L 78.973754 139.859188 
L 77.528533 145.471051 
z
" style="fill:#1f77b4;fill-opacity:0.2;stroke:#1f77b4;stroke-opacity:0.2;"/>
    <path clip-path="url(#ped8ed4e968)" d="M 86.199862 179.142231 
L 86.199862 189.430647 
L 86.199862 179.142231 
L 86.199862 179.142231 
z
" style="fill:#1f77b4;fill-opacity:0.2;stroke:#1f77b4;stroke-opacity:0.2;"/>
    <path clip-path="url(#ped8ed4e968)" d="M 89.090304 170.724436 
L 89.090304 214.684032 
L 89.090304 170.724436 
L 89.090304 170.724436 
z
" style="fill:#1f77b4;fill-opacity:0.2;stroke:#1f77b4;stroke-opacity:0.2;"/>
    <path clip-path="url(#ped8ed4e968)" d="M 94.87119 142.665119 
L 94.87119 238.066796 
L 96.316412 235.260864 
L 96.316412 224.037137 
L 96.316412 224.037137 
L 94.87119 142.665119 
z
" style="fill:#1f77b4;fill-opacity:0.2;stroke:#1f77b4;stroke-opacity:0.2;"/>
    <path clip-path="url(#ped8ed4e968)" d="M 106.432962 224.972448 
L 106.432962 233.928046 
L 107.878183 232.454932 
L 107.878183 201.589684 
L 107.878183 201.589684 
L 106.432962 224.972448 
z
" style="fill:#1f77b4;fill-opacity:0.2;stroke:#1f77b4;stroke-opacity:0.2;"/>
    <path clip-path="url(#ped8ed4e968)" d="M 119.439955 103.382076 
L 119.439955 224.037137 
L 119.439955 103.382076 
L 119.439955 103.382076 
z
" style="fill:#1f77b4;fill-opacity:0.2;stroke:#1f77b4;stroke-opacity:0.2;"/>
    <path clip-path="url(#ped8ed4e968)" d="M 123.775619 221.231206 
L 123.775619 232.454932 
L 123.775619 221.231206 
L 123.775619 221.231206 
z
" style="fill:#1f77b4;fill-opacity:0.2;stroke:#1f77b4;stroke-opacity:0.2;"/>
    <path clip-path="url(#ped8ed4e968)" d="M 126.666062 204.395616 
L 126.666062 226.843069 
L 128.111284 221.231206 
L 128.111284 194.948979 
L 128.111284 194.948979 
L 126.666062 204.395616 
z
" style="fill:#1f77b4;fill-opacity:0.2;stroke:#1f77b4;stroke-opacity:0.2;"/>
    <path clip-path="url(#ped8ed4e968)" d="M 132.446948 204.395616 
L 132.446948 229.649001 
L 135.337391 226.843069 
L 136.782612 238.066796 
L 136.782612 238.066796 
L 136.782612 238.066796 
L 135.337391 138.315925 
L 132.446948 204.395616 
z
" style="fill:#1f77b4;fill-opacity:0.2;stroke:#1f77b4;stroke-opacity:0.2;"/>
    <path clip-path="url(#ped8ed4e968)" d="M 141.118277 232.454932 
L 141.118277 232.454932 
L 141.118277 232.454932 
L 141.118277 232.454932 
z
" style="fill:#1f77b4;fill-opacity:0.2;stroke:#1f77b4;stroke-opacity:0.2;"/>
    <path clip-path="url(#ped8ed4e968)" d="M 145.453941 108.292456 
L 145.453941 222.634172 
L 145.453941 108.292456 
L 145.453941 108.292456 
z
" style="fill:#1f77b4;fill-opacity:0.2;stroke:#1f77b4;stroke-opacity:0.2;"/>
    <path clip-path="url(#ped8ed4e968)" d="M 151.234827 153.888846 
L 151.234827 233.483774 
L 151.234827 153.888846 
L 151.234827 153.888846 
z
" style="fill:#1f77b4;fill-opacity:0.2;stroke:#1f77b4;stroke-opacity:0.2;"/>
    <path clip-path="url(#ped8ed4e968)" d="M 155.570491 149.399355 
L 155.570491 221.231206 
L 157.015712 235.260864 
L 157.015712 163.744681 
L 157.015712 163.744681 
L 155.570491 149.399355 
z
" style="fill:#1f77b4;fill-opacity:0.2;stroke:#1f77b4;stroke-opacity:0.2;"/>
    <path clip-path="url(#ped8ed4e968)" d="M 159.906155 200.888201 
L 159.906155 233.857898 
L 159.906155 200.888201 
L 159.906155 200.888201 
z
" style="fill:#1f77b4;fill-opacity:0.2;stroke:#1f77b4;stroke-opacity:0.2;"/>
    <path clip-path="url(#ped8ed4e968)" d="M 164.24182 154.269651 
L 164.24182 221.672138 
L 165.687041 235.260864 
L 165.687041 154.824156 
L 165.687041 154.824156 
L 164.24182 154.269651 
z
" style="fill:#1f77b4;fill-opacity:0.2;stroke:#1f77b4;stroke-opacity:0.2;"/>
    <path clip-path="url(#ped8ed4e968)" d="M 168.577484 218.425274 
L 168.577484 224.037137 
L 168.577484 218.425274 
L 168.577484 218.425274 
z
" style="fill:#1f77b4;fill-opacity:0.2;stroke:#1f77b4;stroke-opacity:0.2;"/>
    <path clip-path="url(#ped8ed4e968)" d="M 172.913148 197.310638 
L 172.913148 219.360585 
L 174.35837 200.654374 
L 175.803591 221.669632 
L 175.803591 186.823469 
L 175.803591 186.823469 
L 174.35837 142.665119 
L 172.913148 197.310638 
z
" style="fill:#1f77b4;fill-opacity:0.2;stroke:#1f77b4;stroke-opacity:0.2;"/>
    <path clip-path="url(#ped8ed4e968)" d="M 178.694034 221.231206 
L 178.694034 233.156415 
L 180.139256 240.872727 
L 181.584477 224.892946 
L 183.029698 221.231206 
L 184.47492 227.137692 
L 185.920141 198.783752 
L 187.365363 223.46593 
L 187.365363 161.905793 
L 187.365363 161.905793 
L 185.920141 187.560026 
L 184.47492 170.429813 
L 183.029698 132.563765 
L 181.584477 185.287221 
L 180.139256 212.813411 
L 178.694034 221.231206 
z
" style="fill:#1f77b4;fill-opacity:0.2;stroke:#1f77b4;stroke-opacity:0.2;"/>
    <path clip-path="url(#ped8ed4e968)" d="M 190.255806 189.974296 
L 190.255806 220.541414 
L 191.701027 232.454932 
L 193.146249 222.072985 
L 194.59147 229.649001 
L 196.036691 226.153277 
L 197.481913 230.25403 
L 198.927134 238.066796 
L 200.372356 230.584311 
L 201.817577 230.701225 
L 203.262799 229.482398 
L 204.70802 235.728519 
L 206.153242 228.260064 
L 207.598463 234.727737 
L 209.043684 226.620933 
L 210.488906 209.267025 
L 211.934127 226.251819 
L 213.379349 220.048706 
L 214.82457 218.113504 
L 216.269792 226.723817 
L 217.715013 209.858414 
L 219.160235 204.560671 
L 220.605456 190.365957 
L 222.050677 215.84983 
L 223.495899 221.097924 
L 224.94112 225.720696 
L 226.386342 228.877369 
L 227.831563 225.486869 
L 229.276785 230.718762 
L 230.722006 223.904635 
L 232.167228 202.792226 
L 233.612449 215.619342 
L 235.05767 221.169826 
L 236.502892 197.575043 
L 237.948113 225.907758 
L 239.393335 217.520361 
L 240.838556 220.459574 
L 242.283778 213.430716 
L 243.728999 218.588953 
L 245.174221 223.281095 
L 246.619442 222.558178 
L 248.064663 205.722588 
L 249.509885 204.395616 
L 250.955106 225.450124 
L 252.400328 218.214829 
L 253.845549 219.386306 
L 255.290771 232.121728 
L 256.735992 219.694958 
L 258.181214 210.396483 
L 259.626435 210.932161 
L 261.071656 214.216377 
L 262.516878 224.159897 
L 263.962099 231.823598 
L 265.407321 224.870664 
L 266.852542 221.511799 
L 268.297764 208.832495 
L 269.742985 221.607 
L 271.188207 231.765141 
L 272.633428 225.15951 
L 274.078649 218.258672 
L 275.523871 230.450695 
L 276.969092 229.138831 
L 278.414314 219.946952 
L 279.859535 228.959209 
L 281.304757 223.676375 
L 282.749978 220.344331 
L 284.1952 229.666538 
L 285.640421 226.162631 
L 287.085642 234.92766 
L 288.530864 205.857038 
L 289.976085 205.979798 
L 291.421307 229.879488 
L 292.866528 214.372262 
L 294.31175 203.226478 
L 295.756971 222.348568 
L 297.202193 210.364066 
L 298.647414 226.271861 
L 300.092635 225.003625 
L 301.537857 221.283817 
L 302.983078 223.335654 
L 304.4283 198.783752 
L 305.873521 230.574958 
L 307.318743 214.286525 
L 308.763964 212.065162 
L 310.209186 234.92766 
L 311.654407 224.988036 
L 313.099628 221.083115 
L 314.54485 217.316931 
L 315.990071 218.127144 
L 317.435293 220.012379 
L 318.880514 229.971683 
L 320.325736 213.172921 
L 321.770957 214.141552 
L 323.216179 228.71369 
L 324.6614 224.037137 
L 326.106622 223.846735 
L 327.551843 215.1853 
L 328.997064 213.067698 
L 330.442286 231.770986 
L 331.887507 232.454932 
L 333.332729 219.836034 
L 334.77795 228.281109 
L 336.223172 221.060846 
L 337.668393 229.649001 
L 339.113615 234.433114 
L 340.558836 223.703933 
L 342.004057 230.017279 
L 343.449279 231.33256 
L 344.8945 229.649001 
L 346.339722 221.792392 
L 347.784943 218.292772 
L 349.230165 219.875005 
L 350.675386 228.023899 
L 352.120608 199.249282 
L 353.565829 212.848485 
L 355.01105 218.425274 
L 355.01105 207.201547 
L 355.01105 207.201547 
L 353.565829 177.555126 
L 352.120608 133.564973 
L 350.675386 186.846851 
L 349.230165 142.150698 
L 347.784943 202.345727 
L 346.339722 79.251064 
L 344.8945 221.231206 
L 343.449279 177.346435 
L 342.004057 210.007479 
L 340.558836 170.119407 
L 339.113615 220.375397 
L 337.668393 159.500709 
L 336.223172 153.277554 
L 334.77795 215.619342 
L 333.332729 193.569396 
L 331.887507 123.023598 
L 330.442286 214.900322 
L 328.997064 151.34597 
L 327.551843 184.62695 
L 326.106622 176.616892 
L 324.6614 186.237229 
L 323.216179 216.554653 
L 321.770957 188.682398 
L 320.325736 164.577692 
L 318.880514 203.80637 
L 317.435293 185.455577 
L 315.990071 187.726628 
L 314.54485 185.434533 
L 313.099628 189.680063 
L 311.654407 199.407293 
L 310.209186 220.862927 
L 308.763964 176.584156 
L 307.318743 187.217079 
L 305.873521 181.934133 
L 304.4283 88.871401 
L 302.983078 170.934881 
L 301.537857 194.171502 
L 300.092635 193.257626 
L 298.647414 202.982629 
L 297.202193 156.870148 
L 295.756971 193.26709 
L 294.31175 154.198668 
L 292.866528 182.213167 
L 291.421307 195.957778 
L 289.976085 166.860434 
L 288.530864 137.707973 
L 287.085642 195.074662 
L 285.640421 163.008124 
L 284.1952 203.325854 
L 282.749978 195.060882 
L 281.304757 177.308354 
L 279.859535 168.538147 
L 278.414314 204.271507 
L 276.969092 188.688776 
L 275.523871 213.805508 
L 274.078649 183.351128 
L 272.633428 133.630019 
L 271.188207 219.804857 
L 269.742985 187.950852 
L 268.297764 169.666366 
L 266.852542 166.394373 
L 265.407321 192.425016 
L 263.962099 188.561233 
L 262.516878 121.112057 
L 261.071656 173.039329 
L 259.626435 190.608288 
L 258.181214 163.735115 
L 256.735992 194.560825 
L 255.290771 219.091683 
L 253.845549 191.860116 
L 252.400328 148.049001 
L 250.955106 201.339154 
L 249.509885 139.859188 
L 248.064663 163.849903 
L 246.619442 160.99136 
L 245.174221 175.097013 
L 243.728999 91.31657 
L 242.283778 163.863933 
L 240.838556 193.94352 
L 239.393335 190.885055 
L 237.948113 207.037868 
L 236.502892 152.297019 
L 235.05767 148.443585 
L 233.612449 176.336299 
L 232.167228 153.177342 
L 230.722006 202.345727 
L 229.276785 202.606834 
L 227.831563 116.476424 
L 226.386342 188.495336 
L 224.94112 157.583323 
L 223.495899 192.463391 
L 222.050677 25.587621 
L 220.605456 50.332431 
L 219.160235 173.749065 
L 217.715013 122.304578 
L 216.269792 190.899084 
L 214.82457 34.901755 
L 213.379349 151.062872 
L 211.934127 193.171889 
L 210.488906 143.748521 
L 209.043684 169.075951 
L 207.598463 202.866383 
L 206.153242 184.52962 
L 204.70802 202.747131 
L 203.262799 205.763507 
L 201.817577 194.820374 
L 200.372356 142.665119 
L 198.927134 229.649001 
L 197.481913 160.018053 
L 196.036691 189.091597 
L 194.59147 18.327273 
L 193.146249 173.069393 
L 191.701027 185.581844 
L 190.255806 189.974296 
z
" style="fill:#1f77b4;fill-opacity:0.2;stroke:#1f77b4;stroke-opacity:0.2;"/>
    <path clip-path="url(#ped8ed4e968)" d="M 357.901493 131.912388 
L 357.901493 218.425274 
L 359.346715 227.149171 
L 360.791936 235.260864 
L 362.237158 226.843069 
L 363.682379 222.166516 
L 365.127601 233.016119 
L 366.572822 214.239759 
L 368.018043 221.231206 
L 369.463265 215.647402 
L 370.908486 217.981002 
L 372.353708 216.741715 
L 373.798929 222.0329 
L 375.244151 232.454932 
L 376.689372 227.579626 
L 378.134594 236.66383 
L 379.579815 226.843069 
L 381.025036 217.275921 
L 382.470258 227.993501 
L 383.915479 211.985661 
L 385.360701 231.25239 
L 386.805922 224.64843 
L 388.251144 201.589684 
L 389.696365 221.231206 
L 391.141587 214.226398 
L 392.586808 231.863682 
L 394.032029 226.843069 
L 395.477251 229.649001 
L 396.922472 226.843069 
L 398.367694 224.422953 
L 399.812915 231.893746 
L 401.258137 218.694176 
L 402.703358 225.454133 
L 404.14858 219.138448 
L 405.593801 221.441651 
L 407.039022 225.264732 
L 408.484244 232.256179 
L 409.929465 225.463486 
L 411.374687 226.843069 
L 412.819908 208.850032 
L 414.26513 232.01066 
L 415.710351 234.226177 
L 417.155573 228.316183 
L 418.600794 224.839946 
L 420.046015 210.007479 
L 421.491237 215.011391 
L 422.936458 222.879691 
L 424.38168 215.639385 
L 424.38168 178.911744 
L 424.38168 178.911744 
L 422.936458 171.425919 
L 421.491237 171.480479 
L 420.046015 193.171889 
L 418.600794 205.019156 
L 417.155573 195.252955 
L 415.710351 215.180916 
L 414.26513 181.457124 
L 412.819908 150.100838 
L 411.374687 208.090092 
L 409.929465 155.958221 
L 408.484244 191.277885 
L 407.039022 204.617752 
L 405.593801 168.429585 
L 404.14858 135.849044 
L 402.703358 178.328511 
L 401.258137 167.20533 
L 399.812915 218.958401 
L 398.367694 197.713991 
L 396.922472 219.360585 
L 395.477251 210.007479 
L 394.032029 127.314335 
L 392.586808 207.9832 
L 391.141587 172.147444 
L 389.696365 171.414227 
L 388.251144 157.81715 
L 386.805922 192.139707 
L 385.360701 215.980105 
L 383.915479 205.517988 
L 382.470258 218.425274 
L 381.025036 196.296186 
L 379.579815 224.037137 
L 378.134594 207.90303 
L 376.689372 148.943391 
L 375.244151 219.360585 
L 373.798929 205.999005 
L 372.353708 93.322811 
L 370.908486 190.120438 
L 369.463265 157.255964 
L 368.018043 192.941402 
L 366.572822 198.070578 
L 365.127601 206.584242 
L 363.682379 165.580228 
L 362.237158 201.55461 
L 360.791936 221.231206 
L 359.346715 189.294602 
L 357.901493 131.912388 
z
" style="fill:#1f77b4;fill-opacity:0.2;stroke:#1f77b4;stroke-opacity:0.2;"/>
    <path clip-path="url(#ped8ed4e968)" d="M 427.272123 197.603986 
L 427.272123 219.834617 
L 428.717344 226.162631 
L 430.162566 228.737073 
L 431.607787 209.840877 
L 433.053008 218.737044 
L 434.49823 214.1852 
L 435.943451 207.201547 
L 437.388673 218.203138 
L 438.833894 216.608433 
L 440.279116 203.878272 
L 441.724337 228.298646 
L 443.169559 204.395616 
L 444.61478 224.037137 
L 446.060001 226.281883 
L 447.505223 224.198478 
L 448.950444 229.087814 
L 450.395666 229.649001 
L 451.840887 198.783752 
L 453.286109 230.771373 
L 454.73133 199.372998 
L 456.176552 215.619342 
L 457.621773 232.121728 
L 459.066994 229.649001 
L 460.512216 226.071438 
L 461.957437 229.66303 
L 463.402659 203.062798 
L 464.84788 224.037137 
L 466.293102 222.520181 
L 467.738323 229.458598 
L 469.183545 223.569482 
L 470.628766 219.579532 
L 472.073987 230.718762 
L 473.519209 226.141586 
L 474.96443 211.480593 
L 476.409652 222.903073 
L 477.854873 226.729078 
L 479.300095 228.246035 
L 480.745316 237.131485 
L 482.190538 224.037137 
L 483.635759 222.166516 
L 485.08098 232.454932 
L 486.526202 223.101827 
L 487.971423 226.672709 
L 489.416645 227.77838 
L 490.861866 231.462835 
L 492.307088 235.962347 
L 493.752309 232.454932 
L 495.197531 226.843069 
L 496.642752 229.649001 
L 498.087973 231.051966 
L 499.533195 234.699678 
L 500.978416 234.9943 
L 502.423638 229.649001 
L 503.868859 222.634172 
L 505.314081 235.664217 
L 505.314081 222.230819 
L 505.314081 222.230819 
L 503.868859 185.455577 
L 502.423638 215.619342 
L 500.978416 218.397215 
L 499.533195 190.927144 
L 498.087973 200.186718 
L 496.642752 207.201547 
L 495.197531 167.918504 
L 493.752309 224.037137 
L 492.307088 170.724436 
L 490.861866 198.783752 
L 489.416645 212.813411 
L 487.971423 200.767947 
L 486.526202 193.861681 
L 485.08098 201.589684 
L 483.635759 173.530368 
L 482.190538 202.256093 
L 480.745316 223.452568 
L 479.300095 198.783752 
L 477.854873 203.343391 
L 476.409652 168.935654 
L 474.96443 173.530368 
L 473.519209 197.380787 
L 472.073987 224.73862 
L 470.628766 183.599836 
L 469.183545 157.267655 
L 467.738323 209.586589 
L 466.293102 182.281367 
L 464.84788 166.796132 
L 463.402659 104.785042 
L 461.957437 205.917834 
L 460.512216 187.037811 
L 459.066994 198.582076 
L 457.621773 218.056995 
L 456.176552 215.619342 
L 454.73133 157.494468 
L 453.286109 208.029297 
L 451.840887 195.977821 
L 450.395666 188.303598 
L 448.950444 174.091554 
L 447.505223 214.349658 
L 446.060001 193.999639 
L 444.61478 213.701956 
L 443.169559 155.385343 
L 441.724337 193.434945 
L 440.279116 149.408124 
L 438.833894 182.789942 
L 437.388673 138.292542 
L 435.943451 198.783752 
L 434.49823 145.393108 
L 433.053008 187.217079 
L 431.607787 143.49813 
L 430.162566 166.959811 
L 428.717344 187.5951 
L 427.272123 197.603986 
z
" style="fill:#1f77b4;fill-opacity:0.2;stroke:#1f77b4;stroke-opacity:0.2;"/>
    <path clip-path="url(#ped8ed4e968)" d="M 508.204524 210.007479 
L 508.204524 230.420632 
L 509.649745 231.371531 
L 511.094966 227.404255 
L 512.540188 233.390243 
L 513.985409 229.649001 
L 515.430631 229.649001 
L 516.875852 215.619342 
L 518.321074 233.016119 
L 519.766295 230.851543 
L 521.211517 234.325553 
L 522.656738 224.329422 
L 524.101959 224.037137 
L 524.101959 224.037137 
L 524.101959 224.037137 
L 522.656738 209.539824 
L 521.211517 187.560026 
L 519.766295 216.421037 
L 518.321074 204.367556 
L 516.875852 195.977821 
L 515.430631 226.843069 
L 513.985409 187.560026 
L 512.540188 204.395616 
L 511.094966 212.518788 
L 509.649745 217.014514 
L 508.204524 210.007479 
z
" style="fill:#1f77b4;fill-opacity:0.2;stroke:#1f77b4;stroke-opacity:0.2;"/>
    <path clip-path="url(#ped8ed4e968)" d="M 526.992402 215.619342 
L 526.992402 224.972448 
L 528.437624 221.231206 
L 529.882845 223.405803 
L 531.328067 232.823211 
L 532.773288 238.066796 
L 534.21851 229.345025 
L 535.663731 224.037137 
L 537.108953 226.843069 
L 538.554174 238.066796 
L 538.554174 201.589684 
L 538.554174 201.589684 
L 537.108953 181.948162 
L 535.663731 206.616978 
L 534.21851 210.007479 
L 532.773288 205.966937 
L 531.328067 216.320825 
L 529.882845 202.99265 
L 528.437624 208.136858 
L 526.992402 215.619342 
z
" style="fill:#1f77b4;fill-opacity:0.2;stroke:#1f77b4;stroke-opacity:0.2;"/>
    <path clip-path="url(#ped8ed4e968)" d="M 541.444617 208.090092 
L 541.444617 224.037137 
L 542.889838 221.231206 
L 544.33506 229.89452 
L 545.780281 227.427638 
L 548.670724 232.454932 
L 550.115946 235.260864 
L 550.115946 215.923318 
L 550.115946 215.923318 
L 548.670724 226.843069 
L 545.780281 213.748721 
L 544.33506 219.360585 
L 542.889838 211.784569 
L 541.444617 208.090092 
z
" style="fill:#1f77b4;fill-opacity:0.2;stroke:#1f77b4;stroke-opacity:0.2;"/>
    <path clip-path="url(#ped8ed4e968)" d="M 553.006388 238.066796 
L 553.006388 238.066796 
L 554.45161 238.066796 
L 558.787274 235.260864 
L 558.787274 221.231206 
L 558.787274 221.231206 
L 554.45161 218.425274 
L 553.006388 238.066796 
z
" style="fill:#1f77b4;fill-opacity:0.2;stroke:#1f77b4;stroke-opacity:0.2;"/>
   </g>
   <g id="PolyCollection_2">
    <path clip-path="url(#ped8ed4e968)" d="M 68.857204 173.530368 
L 68.857204 187.560026 
L 68.857204 173.530368 
L 68.857204 173.530368 
z
" style="fill:#ff7f0e;fill-opacity:0.2;stroke:#ff7f0e;stroke-opacity:0.2;"/>
    <path clip-path="url(#ped8ed4e968)" d="M 81.864197 27.69207 
L 81.864197 188.495336 
L 81.864197 27.69207 
L 81.864197 27.69207 
z
" style="fill:#ff7f0e;fill-opacity:0.2;stroke:#ff7f0e;stroke-opacity:0.2;"/>
    <path clip-path="url(#ped8ed4e968)" d="M 87.645083 201.589684 
L 87.645083 226.843069 
L 87.645083 201.589684 
L 87.645083 201.589684 
z
" style="fill:#ff7f0e;fill-opacity:0.2;stroke:#ff7f0e;stroke-opacity:0.2;"/>
    <path clip-path="url(#ped8ed4e968)" d="M 103.542519 179.142231 
L 103.542519 184.754094 
L 103.542519 179.142231 
L 103.542519 179.142231 
z
" style="fill:#ff7f0e;fill-opacity:0.2;stroke:#ff7f0e;stroke-opacity:0.2;"/>
    <path clip-path="url(#ped8ed4e968)" d="M 110.768626 139.859188 
L 110.768626 218.425274 
L 110.768626 139.859188 
L 110.768626 139.859188 
z
" style="fill:#ff7f0e;fill-opacity:0.2;stroke:#ff7f0e;stroke-opacity:0.2;"/>
    <path clip-path="url(#ped8ed4e968)" d="M 117.994733 120.217666 
L 117.994733 233.390243 
L 117.994733 120.217666 
L 117.994733 120.217666 
z
" style="fill:#ff7f0e;fill-opacity:0.2;stroke:#ff7f0e;stroke-opacity:0.2;"/>
    <path clip-path="url(#ped8ed4e968)" d="M 126.666062 207.201547 
L 126.666062 226.843069 
L 126.666062 207.201547 
L 126.666062 207.201547 
z
" style="fill:#ff7f0e;fill-opacity:0.2;stroke:#ff7f0e;stroke-opacity:0.2;"/>
    <path clip-path="url(#ped8ed4e968)" d="M 132.446948 195.977821 
L 132.446948 223.288889 
L 132.446948 195.977821 
L 132.446948 195.977821 
z
" style="fill:#ff7f0e;fill-opacity:0.2;stroke:#ff7f0e;stroke-opacity:0.2;"/>
    <path clip-path="url(#ped8ed4e968)" d="M 135.337391 162.306641 
L 135.337391 187.560026 
L 135.337391 162.306641 
L 135.337391 162.306641 
z
" style="fill:#ff7f0e;fill-opacity:0.2;stroke:#ff7f0e;stroke-opacity:0.2;"/>
    <path clip-path="url(#ped8ed4e968)" d="M 141.118277 212.813411 
L 141.118277 229.649001 
L 141.118277 212.813411 
L 141.118277 212.813411 
z
" style="fill:#ff7f0e;fill-opacity:0.2;stroke:#ff7f0e;stroke-opacity:0.2;"/>
    <path clip-path="url(#ped8ed4e968)" d="M 144.008719 212.813411 
L 144.008719 232.454932 
L 145.453941 214.684032 
L 145.453941 195.977821 
L 145.453941 195.977821 
L 144.008719 212.813411 
z
" style="fill:#ff7f0e;fill-opacity:0.2;stroke:#ff7f0e;stroke-opacity:0.2;"/>
    <path clip-path="url(#ped8ed4e968)" d="M 148.344384 138.456222 
L 148.344384 211.410445 
L 148.344384 138.456222 
L 148.344384 138.456222 
z
" style="fill:#ff7f0e;fill-opacity:0.2;stroke:#ff7f0e;stroke-opacity:0.2;"/>
    <path clip-path="url(#ped8ed4e968)" d="M 152.680048 160.27234 
L 152.680048 226.398796 
L 154.12527 210.007479 
L 154.12527 141.262153 
L 154.12527 141.262153 
L 152.680048 160.27234 
z
" style="fill:#ff7f0e;fill-opacity:0.2;stroke:#ff7f0e;stroke-opacity:0.2;"/>
    <path clip-path="url(#ped8ed4e968)" d="M 157.015712 179.142231 
L 157.015712 204.395616 
L 157.015712 179.142231 
L 157.015712 179.142231 
z
" style="fill:#ff7f0e;fill-opacity:0.2;stroke:#ff7f0e;stroke-opacity:0.2;"/>
    <path clip-path="url(#ped8ed4e968)" d="M 162.796598 159.500709 
L 162.796598 212.813411 
L 162.796598 159.500709 
L 162.796598 159.500709 
z
" style="fill:#ff7f0e;fill-opacity:0.2;stroke:#ff7f0e;stroke-opacity:0.2;"/>
    <path clip-path="url(#ped8ed4e968)" d="M 170.022705 176.574803 
L 170.022705 231.893746 
L 170.022705 176.574803 
L 170.022705 176.574803 
z
" style="fill:#ff7f0e;fill-opacity:0.2;stroke:#ff7f0e;stroke-opacity:0.2;"/>
    <path clip-path="url(#ped8ed4e968)" d="M 174.35837 218.425274 
L 174.35837 224.037137 
L 175.803591 210.708962 
L 177.248813 218.425274 
L 177.248813 210.007479 
L 177.248813 210.007479 
L 175.803591 174.23185 
L 174.35837 218.425274 
z
" style="fill:#ff7f0e;fill-opacity:0.2;stroke:#ff7f0e;stroke-opacity:0.2;"/>
    <path clip-path="url(#ped8ed4e968)" d="M 180.139256 203.694133 
L 180.139256 225.440103 
L 183.029698 226.843069 
L 184.47492 228.947518 
L 185.920141 238.066796 
L 187.365363 184.754094 
L 188.810584 212.813411 
L 190.255806 227.965442 
L 191.701027 237.768665 
L 193.146249 215.619342 
L 194.59147 209.305996 
L 196.036691 214.877775 
L 197.481913 240.872727 
L 198.927134 225.685622 
L 200.372356 204.597292 
L 201.817577 235.699291 
L 203.262799 229.382437 
L 204.70802 211.8781 
L 206.153242 211.410445 
L 207.598463 217.156759 
L 209.043684 222.186976 
L 210.488906 197.848442 
L 211.934127 214.019961 
L 213.379349 225.034802 
L 214.82457 224.282656 
L 216.269792 209.890565 
L 217.715013 203.787664 
L 219.160235 227.993501 
L 220.605456 231.292475 
L 222.050677 204.220245 
L 223.495899 211.630911 
L 224.94112 226.309942 
L 226.386342 207.13641 
L 227.831563 209.548327 
L 229.276785 207.468988 
L 230.722006 213.374597 
L 232.167228 210.14238 
L 233.612449 206.654391 
L 235.05767 186.928691 
L 236.502892 208.797421 
L 237.948113 215.825111 
L 239.393335 215.408897 
L 240.838556 211.250106 
L 242.283778 186.521831 
L 243.728999 214.847711 
L 245.174221 207.61854 
L 246.619442 212.826165 
L 248.064663 216.720131 
L 249.509885 209.674275 
L 250.955106 198.130496 
L 252.400328 196.033939 
L 253.845549 203.027724 
L 255.290771 206.266237 
L 256.735992 229.057751 
L 258.181214 220.529723 
L 259.626435 221.476725 
L 261.071656 218.059764 
L 262.516878 220.712108 
L 263.962099 206.262896 
L 265.407321 212.562354 
L 266.852542 210.262564 
L 268.297764 203.528783 
L 269.742985 198.187492 
L 271.188207 198.672684 
L 272.633428 204.40837 
L 274.078649 219.838261 
L 275.523871 215.549194 
L 276.969092 212.93617 
L 278.414314 229.674509 
L 279.859535 202.859368 
L 281.304757 226.080206 
L 282.749978 195.994326 
L 284.1952 221.27129 
L 285.640421 229.67706 
L 287.085642 200.44818 
L 288.530864 196.289591 
L 289.976085 223.966989 
L 291.421307 213.758349 
L 292.866528 225.291038 
L 294.31175 211.445519 
L 295.756971 229.77176 
L 297.202193 221.015365 
L 298.647414 192.179792 
L 300.092635 217.943005 
L 301.537857 211.602184 
L 302.983078 213.129078 
L 304.4283 223.917885 
L 305.873521 226.150355 
L 307.318743 219.561676 
L 308.763964 222.28343 
L 310.209186 229.131657 
L 311.654407 222.641966 
L 313.099628 224.627552 
L 314.54485 219.863314 
L 315.990071 226.533247 
L 317.435293 220.265318 
L 318.880514 229.929594 
L 320.325736 218.609413 
L 321.770957 227.295844 
L 323.216179 221.231206 
L 324.6614 209.146568 
L 326.106622 212.813411 
L 327.551843 213.193381 
L 328.997064 224.572018 
L 330.442286 213.053084 
L 331.887507 208.861724 
L 333.332729 219.851623 
L 334.77795 213.883172 
L 336.223172 212.457993 
L 337.668393 221.248743 
L 339.113615 214.369427 
L 340.558836 208.100721 
L 342.004057 223.878135 
L 343.449279 213.140769 
L 344.8945 220.469596 
L 346.339722 206.272083 
L 347.784943 213.274385 
L 349.230165 226.843069 
L 350.675386 214.999699 
L 352.120608 221.231206 
L 353.565829 218.291992 
L 355.01105 216.811863 
L 356.456272 208.999894 
L 357.901493 224.065197 
L 359.346715 226.843069 
L 360.791936 212.086419 
L 362.237158 217.279519 
L 363.682379 218.425274 
L 365.127601 227.579626 
L 366.572822 221.939703 
L 368.018043 234.699678 
L 369.463265 214.239759 
L 370.908486 196.587571 
L 372.353708 218.425274 
L 373.798929 209.383939 
L 375.244151 219.863314 
L 376.689372 198.464188 
L 378.134594 208.33795 
L 379.579815 215.821019 
L 381.025036 211.778723 
L 382.470258 223.204126 
L 383.915479 223.770574 
L 385.360701 206.20778 
L 386.805922 229.02546 
L 388.251144 222.669246 
L 389.696365 229.789297 
L 391.141587 216.250677 
L 392.586808 225.977907 
L 394.032029 219.212494 
L 395.477251 225.642754 
L 396.922472 235.260864 
L 398.367694 200.221792 
L 399.812915 218.149357 
L 401.258137 217.683706 
L 402.703358 221.766086 
L 404.14858 199.469647 
L 405.593801 205.903804 
L 407.039022 220.417485 
L 408.484244 206.690467 
L 409.929465 221.248743 
L 411.374687 210.007479 
L 412.819908 210.288072 
L 414.26513 235.260864 
L 415.710351 208.70017 
L 417.155573 207.365227 
L 418.600794 211.684661 
L 420.046015 219.012766 
L 421.491237 221.038298 
L 422.936458 221.136004 
L 424.38168 206.378899 
L 425.826901 207.680894 
L 427.272123 219.437414 
L 428.717344 220.623254 
L 430.162566 216.601418 
L 431.607787 225.217967 
L 433.053008 221.599484 
L 434.49823 240.872727 
L 435.943451 223.660887 
L 437.388673 195.809465 
L 438.833894 215.233527 
L 440.279116 200.111174 
L 441.724337 224.037137 
L 443.169559 205.893282 
L 444.61478 205.208511 
L 446.060001 203.799355 
L 447.505223 219.833636 
L 448.950444 212.839716 
L 450.395666 208.509312 
L 451.840887 221.410474 
L 453.286109 207.069045 
L 454.73133 221.599484 
L 456.176552 219.979328 
L 457.621773 211.06438 
L 459.066994 201.33715 
L 460.512216 204.789525 
L 461.957437 206.348976 
L 463.402659 209.563207 
L 464.84788 207.71363 
L 466.293102 210.486826 
L 467.738323 209.358607 
L 469.183545 219.279808 
L 470.628766 216.072608 
L 472.073987 224.572815 
L 473.519209 222.908388 
L 474.96443 220.120524 
L 476.409652 205.70338 
L 477.854873 219.844428 
L 479.300095 206.45998 
L 480.745316 213.117387 
L 482.190538 207.90303 
L 483.635759 210.435384 
L 485.08098 204.290393 
L 486.526202 210.482329 
L 487.971423 228.393346 
L 489.416645 211.225508 
L 490.861866 213.514894 
L 492.307088 211.243843 
L 493.752309 234.699678 
L 495.197531 228.316183 
L 496.642752 220.890485 
L 498.087973 219.679175 
L 499.533195 211.57625 
L 500.978416 220.955289 
L 502.423638 229.204728 
L 503.868859 216.142266 
L 505.314081 218.425274 
L 506.759302 222.970883 
L 508.204524 230.109975 
L 509.649745 224.31773 
L 511.094966 211.122057 
L 512.540188 227.77838 
L 513.985409 224.037137 
L 515.430631 210.021509 
L 516.875852 232.121728 
L 518.321074 215.639385 
L 519.766295 201.122029 
L 521.211517 220.582334 
L 522.656738 229.450247 
L 524.101959 214.551529 
L 525.547181 226.141586 
L 526.992402 216.800172 
L 528.437624 212.960722 
L 529.882845 227.123662 
L 531.328067 219.708988 
L 532.773288 227.514488 
L 534.21851 208.40576 
L 535.663731 218.776015 
L 537.108953 223.101827 
L 538.554174 236.972482 
L 539.999395 228.540658 
L 541.444617 215.48684 
L 542.889838 220.028664 
L 544.33506 208.751825 
L 545.780281 221.706655 
L 547.225503 227.704891 
L 548.670724 222.220297 
L 550.115946 227.037925 
L 551.561167 226.871128 
L 553.006388 232.68542 
L 554.45161 234.268767 
L 555.896831 225.440103 
L 557.342053 225.440103 
L 558.787274 231.683301 
L 560.232496 228.430174 
L 561.677717 231.519622 
L 563.122939 235.260864 
L 564.56816 231.179509 
L 566.013381 239.002106 
L 567.458603 237.505609 
L 568.903824 240.311541 
L 570.349046 234.793209 
L 573.239489 240.872727 
L 573.239489 238.066796 
L 573.239489 238.066796 
L 570.349046 232.922588 
L 568.903824 235.527427 
L 567.458603 230.771373 
L 566.013381 231.519622 
L 564.56816 225.688811 
L 563.122939 227.711154 
L 561.677717 222.166516 
L 560.232496 218.758478 
L 558.787274 220.295895 
L 557.342053 215.619342 
L 555.896831 217.715023 
L 554.45161 224.437985 
L 553.006388 215.5993 
L 551.561167 212.932663 
L 550.115946 206.578007 
L 548.670724 204.100993 
L 547.225503 201.910362 
L 545.780281 207.513318 
L 544.33506 198.208536 
L 542.889838 195.576973 
L 541.444617 195.814141 
L 539.999395 210.140761 
L 538.554174 213.935783 
L 537.108953 186.390888 
L 535.663731 187.726628 
L 534.21851 185.198367 
L 532.773288 193.953541 
L 531.328067 194.132921 
L 529.882845 162.306641 
L 528.437624 196.377666 
L 526.992402 194.1072 
L 525.547181 181.948162 
L 524.101959 182.408023 
L 522.656738 197.380787 
L 521.211517 192.119665 
L 519.766295 168.269246 
L 518.321074 181.888035 
L 516.875852 185.455577 
L 515.430631 188.920903 
L 513.985409 210.007479 
L 512.540188 200.654374 
L 511.094966 182.719794 
L 509.649745 198.341818 
L 508.204524 183.551552 
L 506.759302 188.121212 
L 505.314081 215.619342 
L 503.868859 185.092081 
L 502.423638 207.64582 
L 500.978416 198.194507 
L 499.533195 181.182908 
L 498.087973 196.328562 
L 496.642752 163.809819 
L 495.197531 177.290316 
L 493.752309 178.552985 
L 492.307088 184.98646 
L 490.861866 165.445777 
L 489.416645 160.846281 
L 487.971423 207.468111 
L 486.526202 180.496632 
L 485.08098 172.109865 
L 483.635759 172.071283 
L 482.190538 159.947905 
L 480.745316 177.14885 
L 479.300095 141.171963 
L 477.854873 186.151664 
L 476.409652 180.029106 
L 474.96443 184.952848 
L 473.519209 185.723416 
L 472.073987 196.098986 
L 470.628766 173.14725 
L 469.183545 172.86077 
L 467.738323 145.181689 
L 466.293102 144.272684 
L 464.84788 150.823366 
L 463.402659 157.483946 
L 461.957437 161.718474 
L 460.512216 145.870357 
L 459.066994 154.302721 
L 457.621773 165.6457 
L 456.176552 197.15955 
L 454.73133 210.007479 
L 453.286109 180.849173 
L 451.840887 192.69644 
L 450.395666 173.630579 
L 448.950444 191.124436 
L 447.505223 174.927937 
L 446.060001 162.750913 
L 444.61478 171.611605 
L 443.169559 175.547131 
L 441.724337 165.147647 
L 440.279116 167.988652 
L 438.833894 195.963791 
L 437.388673 129.472564 
L 435.943451 200.945595 
L 434.49823 203.273243 
L 433.053008 179.142231 
L 431.607787 136.234859 
L 430.162566 182.719794 
L 428.717344 179.555326 
L 427.272123 191.358055 
L 425.826901 182.883473 
L 424.38168 166.120157 
L 422.936458 204.691241 
L 421.491237 163.709607 
L 420.046015 182.544423 
L 418.600794 174.582592 
L 417.155573 175.993352 
L 415.710351 164.647043 
L 414.26513 184.754094 
L 412.819908 164.965261 
L 411.374687 170.14922 
L 409.929465 176.502901 
L 408.484244 160.18716 
L 407.039022 186.97078 
L 405.593801 166.682141 
L 404.14858 131.885665 
L 402.703358 184.868085 
L 401.258137 172.899033 
L 399.812915 188.546778 
L 398.367694 160.903675 
L 396.922472 180.545197 
L 395.477251 145.517816 
L 394.032029 189.570943 
L 392.586808 171.367462 
L 391.141587 168.598943 
L 389.696365 207.201547 
L 388.251144 174.398453 
L 386.805922 177.092342 
L 385.360701 107.81311 
L 383.915479 193.705016 
L 382.470258 179.273759 
L 381.025036 160.903675 
L 379.579815 169.417924 
L 378.134594 169.868627 
L 376.689372 120.911355 
L 375.244151 198.783752 
L 373.798929 160.093073 
L 372.353708 198.783752 
L 370.908486 155.070575 
L 369.463265 175.564668 
L 368.018043 141.542747 
L 366.572822 173.018285 
L 365.127601 190.833613 
L 363.682379 173.530368 
L 362.237158 181.112229 
L 360.791936 176.368185 
L 359.346715 177.240433 
L 357.901493 159.500709 
L 356.456272 167.10861 
L 355.01105 186.846851 
L 353.565829 164.214674 
L 352.120608 180.124307 
L 350.675386 174.886568 
L 349.230165 176.336299 
L 347.784943 130.800037 
L 346.339722 162.473243 
L 344.8945 184.754094 
L 343.449279 190.350369 
L 342.004057 197.642674 
L 340.558836 185.264264 
L 339.113615 174.671872 
L 337.668393 194.908059 
L 336.223172 169.938775 
L 334.77795 205.798582 
L 333.332729 177.423598 
L 331.887507 168.029572 
L 330.442286 168.2634 
L 328.997064 135.922115 
L 327.551843 146.739566 
L 326.106622 146.158504 
L 324.6614 181.693078 
L 323.216179 147.41182 
L 321.770957 183.752887 
L 320.325736 190.53256 
L 318.880514 191.188606 
L 317.435293 174.739077 
L 315.990071 200.420546 
L 314.54485 185.420503 
L 313.099628 203.892886 
L 311.654407 184.582621 
L 310.209186 123.803997 
L 308.763964 190.585755 
L 307.318743 176.188988 
L 305.873521 206.934107 
L 304.4283 181.835925 
L 302.983078 134.728341 
L 301.537857 184.155495 
L 300.092635 124.961444 
L 298.647414 141.783255 
L 297.202193 138.326717 
L 295.756971 212.345755 
L 294.31175 180.299678 
L 292.866528 180.308446 
L 291.421307 179.880851 
L 289.976085 165.998992 
L 288.530864 156.531098 
L 287.085642 174.805791 
L 285.640421 208.32392 
L 284.1952 179.733481 
L 282.749978 118.959123 
L 281.304757 164.58646 
L 279.859535 164.831979 
L 278.414314 195.818393 
L 276.969092 163.317945 
L 275.523871 170.258156 
L 274.078649 185.094814 
L 272.633428 160.763378 
L 271.188207 156.326499 
L 269.742985 161.716226 
L 268.297764 165.713844 
L 266.852542 175.787867 
L 265.407321 183.340052 
L 263.962099 178.263707 
L 262.516878 150.23412 
L 261.071656 155.432108 
L 259.626435 137.070793 
L 258.181214 198.415474 
L 256.735992 188.642314 
L 255.290771 121.241831 
L 253.845549 160.184655 
L 252.400328 106.601883 
L 250.955106 153.963378 
L 249.509885 169.637137 
L 248.064663 186.572554 
L 246.619442 175.398863 
L 245.174221 171.710409 
L 243.728999 176.17262 
L 242.283778 76.908111 
L 240.838556 163.088293 
L 239.393335 198.772061 
L 237.948113 171.748601 
L 236.502892 179.115925 
L 235.05767 131.996733 
L 233.612449 169.440722 
L 232.167228 126.147895 
L 230.722006 191.843748 
L 229.276785 175.275306 
L 227.831563 160.954692 
L 226.386342 153.773602 
L 224.94112 177.016738 
L 223.495899 175.294096 
L 222.050677 167.158564 
L 220.605456 194.564834 
L 219.160235 184.459471 
L 217.715013 126.078945 
L 216.269792 169.399413 
L 214.82457 199.473544 
L 213.379349 197.848442 
L 211.934127 195.683198 
L 210.488906 174.722888 
L 209.043684 185.069761 
L 207.598463 187.080679 
L 206.153242 183.000387 
L 204.70802 177.739265 
L 203.262799 199.344939 
L 201.817577 167.480077 
L 200.372356 148.610187 
L 198.927134 200.163335 
L 197.481913 145.471051 
L 196.036691 157.877277 
L 194.59147 138.456222 
L 193.146249 193.171889 
L 191.701027 174.529981 
L 190.255806 202.97862 
L 188.810584 201.589684 
L 187.365363 151.082914 
L 185.920141 147.856093 
L 184.47492 198.783752 
L 183.029698 145.891941 
L 180.139256 203.694133 
z
" style="fill:#ff7f0e;fill-opacity:0.2;stroke:#ff7f0e;stroke-opacity:0.2;"/>
   </g>
   <g id="matplotlib.axis_1">
    <g id="xtick_1">
     <g id="line2d_1">
      <defs>
       <path d="M 0 0 
L 0 3.5 
" id="m657ab9e8ec" style="stroke:#000000;stroke-width:0.8;"/>
      </defs>
      <g>
       <use style="stroke:#000000;stroke-width:0.8;" x="41.397997" xlink:href="#m657ab9e8ec" y="252"/>
      </g>
     </g>
     <g id="text_1">
      <!-- Mar 2020 -->
      <g transform="translate(44.157372 306.495312)rotate(-90)scale(0.1 -0.1)">
       <defs>
        <path d="M 9.8125 72.90625 
L 24.515625 72.90625 
L 43.109375 23.296875 
L 61.8125 72.90625 
L 76.515625 72.90625 
L 76.515625 0 
L 66.890625 0 
L 66.890625 64.015625 
L 48.09375 14.015625 
L 38.1875 14.015625 
L 19.390625 64.015625 
L 19.390625 0 
L 9.8125 0 
z
" id="DejaVuSans-77"/>
        <path d="M 34.28125 27.484375 
Q 23.390625 27.484375 19.1875 25 
Q 14.984375 22.515625 14.984375 16.5 
Q 14.984375 11.71875 18.140625 8.90625 
Q 21.296875 6.109375 26.703125 6.109375 
Q 34.1875 6.109375 38.703125 11.40625 
Q 43.21875 16.703125 43.21875 25.484375 
L 43.21875 27.484375 
z
M 52.203125 31.203125 
L 52.203125 0 
L 43.21875 0 
L 43.21875 8.296875 
Q 40.140625 3.328125 35.546875 0.953125 
Q 30.953125 -1.421875 24.3125 -1.421875 
Q 15.921875 -1.421875 10.953125 3.296875 
Q 6 8.015625 6 15.921875 
Q 6 25.140625 12.171875 29.828125 
Q 18.359375 34.515625 30.609375 34.515625 
L 43.21875 34.515625 
L 43.21875 35.40625 
Q 43.21875 41.609375 39.140625 45 
Q 35.0625 48.390625 27.6875 48.390625 
Q 23 48.390625 18.546875 47.265625 
Q 14.109375 46.140625 10.015625 43.890625 
L 10.015625 52.203125 
Q 14.9375 54.109375 19.578125 55.046875 
Q 24.21875 56 28.609375 56 
Q 40.484375 56 46.34375 49.84375 
Q 52.203125 43.703125 52.203125 31.203125 
z
" id="DejaVuSans-97"/>
        <path d="M 41.109375 46.296875 
Q 39.59375 47.171875 37.8125 47.578125 
Q 36.03125 48 33.890625 48 
Q 26.265625 48 22.1875 43.046875 
Q 18.109375 38.09375 18.109375 28.8125 
L 18.109375 0 
L 9.078125 0 
L 9.078125 54.6875 
L 18.109375 54.6875 
L 18.109375 46.1875 
Q 20.953125 51.171875 25.484375 53.578125 
Q 30.03125 56 36.53125 56 
Q 37.453125 56 38.578125 55.875 
Q 39.703125 55.765625 41.0625 55.515625 
z
" id="DejaVuSans-114"/>
        <path id="DejaVuSans-32"/>
        <path d="M 19.1875 8.296875 
L 53.609375 8.296875 
L 53.609375 0 
L 7.328125 0 
L 7.328125 8.296875 
Q 12.9375 14.109375 22.625 23.890625 
Q 32.328125 33.6875 34.8125 36.53125 
Q 39.546875 41.84375 41.421875 45.53125 
Q 43.3125 49.21875 43.3125 52.78125 
Q 43.3125 58.59375 39.234375 62.25 
Q 35.15625 65.921875 28.609375 65.921875 
Q 23.96875 65.921875 18.8125 64.3125 
Q 13.671875 62.703125 7.8125 59.421875 
L 7.8125 69.390625 
Q 13.765625 71.78125 18.9375 73 
Q 24.125 74.21875 28.421875 74.21875 
Q 39.75 74.21875 46.484375 68.546875 
Q 53.21875 62.890625 53.21875 53.421875 
Q 53.21875 48.921875 51.53125 44.890625 
Q 49.859375 40.875 45.40625 35.40625 
Q 44.1875 33.984375 37.640625 27.21875 
Q 31.109375 20.453125 19.1875 8.296875 
z
" id="DejaVuSans-50"/>
        <path d="M 31.78125 66.40625 
Q 24.171875 66.40625 20.328125 58.90625 
Q 16.5 51.421875 16.5 36.375 
Q 16.5 21.390625 20.328125 13.890625 
Q 24.171875 6.390625 31.78125 6.390625 
Q 39.453125 6.390625 43.28125 13.890625 
Q 47.125 21.390625 47.125 36.375 
Q 47.125 51.421875 43.28125 58.90625 
Q 39.453125 66.40625 31.78125 66.40625 
z
M 31.78125 74.21875 
Q 44.046875 74.21875 50.515625 64.515625 
Q 56.984375 54.828125 56.984375 36.375 
Q 56.984375 17.96875 50.515625 8.265625 
Q 44.046875 -1.421875 31.78125 -1.421875 
Q 19.53125 -1.421875 13.0625 8.265625 
Q 6.59375 17.96875 6.59375 36.375 
Q 6.59375 54.828125 13.0625 64.515625 
Q 19.53125 74.21875 31.78125 74.21875 
z
" id="DejaVuSans-48"/>
       </defs>
       <use xlink:href="#DejaVuSans-77"/>
       <use x="86.279297" xlink:href="#DejaVuSans-97"/>
       <use x="147.558594" xlink:href="#DejaVuSans-114"/>
       <use x="188.671875" xlink:href="#DejaVuSans-32"/>
       <use x="220.458984" xlink:href="#DejaVuSans-50"/>
       <use x="284.082031" xlink:href="#DejaVuSans-48"/>
       <use x="347.705078" xlink:href="#DejaVuSans-50"/>
       <use x="411.328125" xlink:href="#DejaVuSans-48"/>
      </g>
     </g>
    </g>
    <g id="xtick_2">
     <g id="line2d_2">
      <g>
       <use style="stroke:#000000;stroke-width:0.8;" x="86.199862" xlink:href="#m657ab9e8ec" y="252"/>
      </g>
     </g>
     <g id="text_2">
      <!-- Apr 2020 -->
      <g transform="translate(88.959237 304.928125)rotate(-90)scale(0.1 -0.1)">
       <defs>
        <path d="M 34.1875 63.1875 
L 20.796875 26.90625 
L 47.609375 26.90625 
z
M 28.609375 72.90625 
L 39.796875 72.90625 
L 67.578125 0 
L 57.328125 0 
L 50.6875 18.703125 
L 17.828125 18.703125 
L 11.1875 0 
L 0.78125 0 
z
" id="DejaVuSans-65"/>
        <path d="M 18.109375 8.203125 
L 18.109375 -20.796875 
L 9.078125 -20.796875 
L 9.078125 54.6875 
L 18.109375 54.6875 
L 18.109375 46.390625 
Q 20.953125 51.265625 25.265625 53.625 
Q 29.59375 56 35.59375 56 
Q 45.5625 56 51.78125 48.09375 
Q 58.015625 40.1875 58.015625 27.296875 
Q 58.015625 14.40625 51.78125 6.484375 
Q 45.5625 -1.421875 35.59375 -1.421875 
Q 29.59375 -1.421875 25.265625 0.953125 
Q 20.953125 3.328125 18.109375 8.203125 
z
M 48.6875 27.296875 
Q 48.6875 37.203125 44.609375 42.84375 
Q 40.53125 48.484375 33.40625 48.484375 
Q 26.265625 48.484375 22.1875 42.84375 
Q 18.109375 37.203125 18.109375 27.296875 
Q 18.109375 17.390625 22.1875 11.75 
Q 26.265625 6.109375 33.40625 6.109375 
Q 40.53125 6.109375 44.609375 11.75 
Q 48.6875 17.390625 48.6875 27.296875 
z
" id="DejaVuSans-112"/>
       </defs>
       <use xlink:href="#DejaVuSans-65"/>
       <use x="68.408203" xlink:href="#DejaVuSans-112"/>
       <use x="131.884766" xlink:href="#DejaVuSans-114"/>
       <use x="172.998047" xlink:href="#DejaVuSans-32"/>
       <use x="204.785156" xlink:href="#DejaVuSans-50"/>
       <use x="268.408203" xlink:href="#DejaVuSans-48"/>
       <use x="332.03125" xlink:href="#DejaVuSans-50"/>
       <use x="395.654297" xlink:href="#DejaVuSans-48"/>
      </g>
     </g>
    </g>
    <g id="xtick_3">
     <g id="line2d_3">
      <g>
       <use style="stroke:#000000;stroke-width:0.8;" x="129.556505" xlink:href="#m657ab9e8ec" y="252"/>
      </g>
     </g>
     <g id="text_3">
      <!-- May 2020 -->
      <g transform="translate(132.31588 308.303125)rotate(-90)scale(0.1 -0.1)">
       <defs>
        <path d="M 32.171875 -5.078125 
Q 28.375 -14.84375 24.75 -17.8125 
Q 21.140625 -20.796875 15.09375 -20.796875 
L 7.90625 -20.796875 
L 7.90625 -13.28125 
L 13.1875 -13.28125 
Q 16.890625 -13.28125 18.9375 -11.515625 
Q 21 -9.765625 23.484375 -3.21875 
L 25.09375 0.875 
L 2.984375 54.6875 
L 12.5 54.6875 
L 29.59375 11.921875 
L 46.6875 54.6875 
L 56.203125 54.6875 
z
" id="DejaVuSans-121"/>
       </defs>
       <use xlink:href="#DejaVuSans-77"/>
       <use x="86.279297" xlink:href="#DejaVuSans-97"/>
       <use x="147.558594" xlink:href="#DejaVuSans-121"/>
       <use x="206.738281" xlink:href="#DejaVuSans-32"/>
       <use x="238.525391" xlink:href="#DejaVuSans-50"/>
       <use x="302.148438" xlink:href="#DejaVuSans-48"/>
       <use x="365.771484" xlink:href="#DejaVuSans-50"/>
       <use x="429.394531" xlink:href="#DejaVuSans-48"/>
      </g>
     </g>
    </g>
    <g id="xtick_4">
     <g id="line2d_4">
      <g>
       <use style="stroke:#000000;stroke-width:0.8;" x="174.35837" xlink:href="#m657ab9e8ec" y="252"/>
      </g>
     </g>
     <g id="text_4">
      <!-- Jun 2020 -->
      <g transform="translate(177.117745 303.253125)rotate(-90)scale(0.1 -0.1)">
       <defs>
        <path d="M 9.8125 72.90625 
L 19.671875 72.90625 
L 19.671875 5.078125 
Q 19.671875 -8.109375 14.671875 -14.0625 
Q 9.671875 -20.015625 -1.421875 -20.015625 
L -5.171875 -20.015625 
L -5.171875 -11.71875 
L -2.09375 -11.71875 
Q 4.4375 -11.71875 7.125 -8.046875 
Q 9.8125 -4.390625 9.8125 5.078125 
z
" id="DejaVuSans-74"/>
        <path d="M 8.5 21.578125 
L 8.5 54.6875 
L 17.484375 54.6875 
L 17.484375 21.921875 
Q 17.484375 14.15625 20.5 10.265625 
Q 23.53125 6.390625 29.59375 6.390625 
Q 36.859375 6.390625 41.078125 11.03125 
Q 45.3125 15.671875 45.3125 23.6875 
L 45.3125 54.6875 
L 54.296875 54.6875 
L 54.296875 0 
L 45.3125 0 
L 45.3125 8.40625 
Q 42.046875 3.421875 37.71875 1 
Q 33.40625 -1.421875 27.6875 -1.421875 
Q 18.265625 -1.421875 13.375 4.4375 
Q 8.5 10.296875 8.5 21.578125 
z
M 31.109375 56 
z
" id="DejaVuSans-117"/>
        <path d="M 54.890625 33.015625 
L 54.890625 0 
L 45.90625 0 
L 45.90625 32.71875 
Q 45.90625 40.484375 42.875 44.328125 
Q 39.84375 48.1875 33.796875 48.1875 
Q 26.515625 48.1875 22.3125 43.546875 
Q 18.109375 38.921875 18.109375 30.90625 
L 18.109375 0 
L 9.078125 0 
L 9.078125 54.6875 
L 18.109375 54.6875 
L 18.109375 46.1875 
Q 21.34375 51.125 25.703125 53.5625 
Q 30.078125 56 35.796875 56 
Q 45.21875 56 50.046875 50.171875 
Q 54.890625 44.34375 54.890625 33.015625 
z
" id="DejaVuSans-110"/>
       </defs>
       <use xlink:href="#DejaVuSans-74"/>
       <use x="29.492188" xlink:href="#DejaVuSans-117"/>
       <use x="92.871094" xlink:href="#DejaVuSans-110"/>
       <use x="156.25" xlink:href="#DejaVuSans-32"/>
       <use x="188.037109" xlink:href="#DejaVuSans-50"/>
       <use x="251.660156" xlink:href="#DejaVuSans-48"/>
       <use x="315.283203" xlink:href="#DejaVuSans-50"/>
       <use x="378.90625" xlink:href="#DejaVuSans-48"/>
      </g>
     </g>
    </g>
    <g id="xtick_5">
     <g id="line2d_5">
      <g>
       <use style="stroke:#000000;stroke-width:0.8;" x="217.715013" xlink:href="#m657ab9e8ec" y="252"/>
      </g>
     </g>
     <g id="text_5">
      <!-- Jul 2020 -->
      <g transform="translate(220.474388 299.69375)rotate(-90)scale(0.1 -0.1)">
       <defs>
        <path d="M 9.421875 75.984375 
L 18.40625 75.984375 
L 18.40625 0 
L 9.421875 0 
z
" id="DejaVuSans-108"/>
       </defs>
       <use xlink:href="#DejaVuSans-74"/>
       <use x="29.492188" xlink:href="#DejaVuSans-117"/>
       <use x="92.871094" xlink:href="#DejaVuSans-108"/>
       <use x="120.654297" xlink:href="#DejaVuSans-32"/>
       <use x="152.441406" xlink:href="#DejaVuSans-50"/>
       <use x="216.064453" xlink:href="#DejaVuSans-48"/>
       <use x="279.6875" xlink:href="#DejaVuSans-50"/>
       <use x="343.310547" xlink:href="#DejaVuSans-48"/>
      </g>
     </g>
    </g>
    <g id="xtick_6">
     <g id="line2d_6">
      <g>
       <use style="stroke:#000000;stroke-width:0.8;" x="262.516878" xlink:href="#m657ab9e8ec" y="252"/>
      </g>
     </g>
     <g id="text_6">
      <!-- Aug 2020 -->
      <g transform="translate(265.276253 307.154687)rotate(-90)scale(0.1 -0.1)">
       <defs>
        <path d="M 45.40625 27.984375 
Q 45.40625 37.75 41.375 43.109375 
Q 37.359375 48.484375 30.078125 48.484375 
Q 22.859375 48.484375 18.828125 43.109375 
Q 14.796875 37.75 14.796875 27.984375 
Q 14.796875 18.265625 18.828125 12.890625 
Q 22.859375 7.515625 30.078125 7.515625 
Q 37.359375 7.515625 41.375 12.890625 
Q 45.40625 18.265625 45.40625 27.984375 
z
M 54.390625 6.78125 
Q 54.390625 -7.171875 48.1875 -13.984375 
Q 42 -20.796875 29.203125 -20.796875 
Q 24.46875 -20.796875 20.265625 -20.09375 
Q 16.0625 -19.390625 12.109375 -17.921875 
L 12.109375 -9.1875 
Q 16.0625 -11.328125 19.921875 -12.34375 
Q 23.78125 -13.375 27.78125 -13.375 
Q 36.625 -13.375 41.015625 -8.765625 
Q 45.40625 -4.15625 45.40625 5.171875 
L 45.40625 9.625 
Q 42.625 4.78125 38.28125 2.390625 
Q 33.9375 0 27.875 0 
Q 17.828125 0 11.671875 7.65625 
Q 5.515625 15.328125 5.515625 27.984375 
Q 5.515625 40.671875 11.671875 48.328125 
Q 17.828125 56 27.875 56 
Q 33.9375 56 38.28125 53.609375 
Q 42.625 51.21875 45.40625 46.390625 
L 45.40625 54.6875 
L 54.390625 54.6875 
z
" id="DejaVuSans-103"/>
       </defs>
       <use xlink:href="#DejaVuSans-65"/>
       <use x="68.408203" xlink:href="#DejaVuSans-117"/>
       <use x="131.787109" xlink:href="#DejaVuSans-103"/>
       <use x="195.263672" xlink:href="#DejaVuSans-32"/>
       <use x="227.050781" xlink:href="#DejaVuSans-50"/>
       <use x="290.673828" xlink:href="#DejaVuSans-48"/>
       <use x="354.296875" xlink:href="#DejaVuSans-50"/>
       <use x="417.919922" xlink:href="#DejaVuSans-48"/>
      </g>
     </g>
    </g>
    <g id="xtick_7">
     <g id="line2d_7">
      <g>
       <use style="stroke:#000000;stroke-width:0.8;" x="307.318743" xlink:href="#m657ab9e8ec" y="252"/>
      </g>
     </g>
     <g id="text_7">
      <!-- Sep 2020 -->
      <g transform="translate(310.078118 306.478125)rotate(-90)scale(0.1 -0.1)">
       <defs>
        <path d="M 53.515625 70.515625 
L 53.515625 60.890625 
Q 47.90625 63.578125 42.921875 64.890625 
Q 37.9375 66.21875 33.296875 66.21875 
Q 25.25 66.21875 20.875 63.09375 
Q 16.5 59.96875 16.5 54.203125 
Q 16.5 49.359375 19.40625 46.890625 
Q 22.3125 44.4375 30.421875 42.921875 
L 36.375 41.703125 
Q 47.40625 39.59375 52.65625 34.296875 
Q 57.90625 29 57.90625 20.125 
Q 57.90625 9.515625 50.796875 4.046875 
Q 43.703125 -1.421875 29.984375 -1.421875 
Q 24.8125 -1.421875 18.96875 -0.25 
Q 13.140625 0.921875 6.890625 3.21875 
L 6.890625 13.375 
Q 12.890625 10.015625 18.65625 8.296875 
Q 24.421875 6.59375 29.984375 6.59375 
Q 38.421875 6.59375 43.015625 9.90625 
Q 47.609375 13.234375 47.609375 19.390625 
Q 47.609375 24.75 44.3125 27.78125 
Q 41.015625 30.8125 33.5 32.328125 
L 27.484375 33.5 
Q 16.453125 35.6875 11.515625 40.375 
Q 6.59375 45.0625 6.59375 53.421875 
Q 6.59375 63.09375 13.40625 68.65625 
Q 20.21875 74.21875 32.171875 74.21875 
Q 37.3125 74.21875 42.625 73.28125 
Q 47.953125 72.359375 53.515625 70.515625 
z
" id="DejaVuSans-83"/>
        <path d="M 56.203125 29.59375 
L 56.203125 25.203125 
L 14.890625 25.203125 
Q 15.484375 15.921875 20.484375 11.0625 
Q 25.484375 6.203125 34.421875 6.203125 
Q 39.59375 6.203125 44.453125 7.46875 
Q 49.3125 8.734375 54.109375 11.28125 
L 54.109375 2.78125 
Q 49.265625 0.734375 44.1875 -0.34375 
Q 39.109375 -1.421875 33.890625 -1.421875 
Q 20.796875 -1.421875 13.15625 6.1875 
Q 5.515625 13.8125 5.515625 26.8125 
Q 5.515625 40.234375 12.765625 48.109375 
Q 20.015625 56 32.328125 56 
Q 43.359375 56 49.78125 48.890625 
Q 56.203125 41.796875 56.203125 29.59375 
z
M 47.21875 32.234375 
Q 47.125 39.59375 43.09375 43.984375 
Q 39.0625 48.390625 32.421875 48.390625 
Q 24.90625 48.390625 20.390625 44.140625 
Q 15.875 39.890625 15.1875 32.171875 
z
" id="DejaVuSans-101"/>
       </defs>
       <use xlink:href="#DejaVuSans-83"/>
       <use x="63.476562" xlink:href="#DejaVuSans-101"/>
       <use x="125" xlink:href="#DejaVuSans-112"/>
       <use x="188.476562" xlink:href="#DejaVuSans-32"/>
       <use x="220.263672" xlink:href="#DejaVuSans-50"/>
       <use x="283.886719" xlink:href="#DejaVuSans-48"/>
       <use x="347.509766" xlink:href="#DejaVuSans-50"/>
       <use x="411.132812" xlink:href="#DejaVuSans-48"/>
      </g>
     </g>
    </g>
    <g id="xtick_8">
     <g id="line2d_8">
      <g>
       <use style="stroke:#000000;stroke-width:0.8;" x="350.675386" xlink:href="#m657ab9e8ec" y="252"/>
      </g>
     </g>
     <g id="text_8">
      <!-- Oct 2020 -->
      <g transform="translate(353.434761 304.91875)rotate(-90)scale(0.1 -0.1)">
       <defs>
        <path d="M 39.40625 66.21875 
Q 28.65625 66.21875 22.328125 58.203125 
Q 16.015625 50.203125 16.015625 36.375 
Q 16.015625 22.609375 22.328125 14.59375 
Q 28.65625 6.59375 39.40625 6.59375 
Q 50.140625 6.59375 56.421875 14.59375 
Q 62.703125 22.609375 62.703125 36.375 
Q 62.703125 50.203125 56.421875 58.203125 
Q 50.140625 66.21875 39.40625 66.21875 
z
M 39.40625 74.21875 
Q 54.734375 74.21875 63.90625 63.9375 
Q 73.09375 53.65625 73.09375 36.375 
Q 73.09375 19.140625 63.90625 8.859375 
Q 54.734375 -1.421875 39.40625 -1.421875 
Q 24.03125 -1.421875 14.8125 8.828125 
Q 5.609375 19.09375 5.609375 36.375 
Q 5.609375 53.65625 14.8125 63.9375 
Q 24.03125 74.21875 39.40625 74.21875 
z
" id="DejaVuSans-79"/>
        <path d="M 48.78125 52.59375 
L 48.78125 44.1875 
Q 44.96875 46.296875 41.140625 47.34375 
Q 37.3125 48.390625 33.40625 48.390625 
Q 24.65625 48.390625 19.8125 42.84375 
Q 14.984375 37.3125 14.984375 27.296875 
Q 14.984375 17.28125 19.8125 11.734375 
Q 24.65625 6.203125 33.40625 6.203125 
Q 37.3125 6.203125 41.140625 7.25 
Q 44.96875 8.296875 48.78125 10.40625 
L 48.78125 2.09375 
Q 45.015625 0.34375 40.984375 -0.53125 
Q 36.96875 -1.421875 32.421875 -1.421875 
Q 20.0625 -1.421875 12.78125 6.34375 
Q 5.515625 14.109375 5.515625 27.296875 
Q 5.515625 40.671875 12.859375 48.328125 
Q 20.21875 56 33.015625 56 
Q 37.15625 56 41.109375 55.140625 
Q 45.0625 54.296875 48.78125 52.59375 
z
" id="DejaVuSans-99"/>
        <path d="M 18.3125 70.21875 
L 18.3125 54.6875 
L 36.8125 54.6875 
L 36.8125 47.703125 
L 18.3125 47.703125 
L 18.3125 18.015625 
Q 18.3125 11.328125 20.140625 9.421875 
Q 21.96875 7.515625 27.59375 7.515625 
L 36.8125 7.515625 
L 36.8125 0 
L 27.59375 0 
Q 17.1875 0 13.234375 3.875 
Q 9.28125 7.765625 9.28125 18.015625 
L 9.28125 47.703125 
L 2.6875 47.703125 
L 2.6875 54.6875 
L 9.28125 54.6875 
L 9.28125 70.21875 
z
" id="DejaVuSans-116"/>
       </defs>
       <use xlink:href="#DejaVuSans-79"/>
       <use x="78.710938" xlink:href="#DejaVuSans-99"/>
       <use x="133.691406" xlink:href="#DejaVuSans-116"/>
       <use x="172.900391" xlink:href="#DejaVuSans-32"/>
       <use x="204.6875" xlink:href="#DejaVuSans-50"/>
       <use x="268.310547" xlink:href="#DejaVuSans-48"/>
       <use x="331.933594" xlink:href="#DejaVuSans-50"/>
       <use x="395.556641" xlink:href="#DejaVuSans-48"/>
      </g>
     </g>
    </g>
    <g id="xtick_9">
     <g id="line2d_9">
      <g>
       <use style="stroke:#000000;stroke-width:0.8;" x="395.477251" xlink:href="#m657ab9e8ec" y="252"/>
      </g>
     </g>
     <g id="text_9">
      <!-- Nov 2020 -->
      <g transform="translate(398.236626 307.146875)rotate(-90)scale(0.1 -0.1)">
       <defs>
        <path d="M 9.8125 72.90625 
L 23.09375 72.90625 
L 55.421875 11.921875 
L 55.421875 72.90625 
L 64.984375 72.90625 
L 64.984375 0 
L 51.703125 0 
L 19.390625 60.984375 
L 19.390625 0 
L 9.8125 0 
z
" id="DejaVuSans-78"/>
        <path d="M 30.609375 48.390625 
Q 23.390625 48.390625 19.1875 42.75 
Q 14.984375 37.109375 14.984375 27.296875 
Q 14.984375 17.484375 19.15625 11.84375 
Q 23.34375 6.203125 30.609375 6.203125 
Q 37.796875 6.203125 41.984375 11.859375 
Q 46.1875 17.53125 46.1875 27.296875 
Q 46.1875 37.015625 41.984375 42.703125 
Q 37.796875 48.390625 30.609375 48.390625 
z
M 30.609375 56 
Q 42.328125 56 49.015625 48.375 
Q 55.71875 40.765625 55.71875 27.296875 
Q 55.71875 13.875 49.015625 6.21875 
Q 42.328125 -1.421875 30.609375 -1.421875 
Q 18.84375 -1.421875 12.171875 6.21875 
Q 5.515625 13.875 5.515625 27.296875 
Q 5.515625 40.765625 12.171875 48.375 
Q 18.84375 56 30.609375 56 
z
" id="DejaVuSans-111"/>
        <path d="M 2.984375 54.6875 
L 12.5 54.6875 
L 29.59375 8.796875 
L 46.6875 54.6875 
L 56.203125 54.6875 
L 35.6875 0 
L 23.484375 0 
z
" id="DejaVuSans-118"/>
       </defs>
       <use xlink:href="#DejaVuSans-78"/>
       <use x="74.804688" xlink:href="#DejaVuSans-111"/>
       <use x="135.986328" xlink:href="#DejaVuSans-118"/>
       <use x="195.166016" xlink:href="#DejaVuSans-32"/>
       <use x="226.953125" xlink:href="#DejaVuSans-50"/>
       <use x="290.576172" xlink:href="#DejaVuSans-48"/>
       <use x="354.199219" xlink:href="#DejaVuSans-50"/>
       <use x="417.822266" xlink:href="#DejaVuSans-48"/>
      </g>
     </g>
    </g>
    <g id="xtick_10">
     <g id="line2d_10">
      <g>
       <use style="stroke:#000000;stroke-width:0.8;" x="438.833894" xlink:href="#m657ab9e8ec" y="252"/>
      </g>
     </g>
     <g id="text_10">
      <!-- Dec 2020 -->
      <g transform="translate(441.593269 306.979687)rotate(-90)scale(0.1 -0.1)">
       <defs>
        <path d="M 19.671875 64.796875 
L 19.671875 8.109375 
L 31.59375 8.109375 
Q 46.6875 8.109375 53.6875 14.9375 
Q 60.6875 21.78125 60.6875 36.53125 
Q 60.6875 51.171875 53.6875 57.984375 
Q 46.6875 64.796875 31.59375 64.796875 
z
M 9.8125 72.90625 
L 30.078125 72.90625 
Q 51.265625 72.90625 61.171875 64.09375 
Q 71.09375 55.28125 71.09375 36.53125 
Q 71.09375 17.671875 61.125 8.828125 
Q 51.171875 0 30.078125 0 
L 9.8125 0 
z
" id="DejaVuSans-68"/>
       </defs>
       <use xlink:href="#DejaVuSans-68"/>
       <use x="77.001953" xlink:href="#DejaVuSans-101"/>
       <use x="138.525391" xlink:href="#DejaVuSans-99"/>
       <use x="193.505859" xlink:href="#DejaVuSans-32"/>
       <use x="225.292969" xlink:href="#DejaVuSans-50"/>
       <use x="288.916016" xlink:href="#DejaVuSans-48"/>
       <use x="352.539062" xlink:href="#DejaVuSans-50"/>
       <use x="416.162109" xlink:href="#DejaVuSans-48"/>
      </g>
     </g>
    </g>
    <g id="xtick_11">
     <g id="line2d_11">
      <g>
       <use style="stroke:#000000;stroke-width:0.8;" x="483.635759" xlink:href="#m657ab9e8ec" y="252"/>
      </g>
     </g>
     <g id="text_11">
      <!-- Jan 2021 -->
      <g transform="translate(486.395134 303.04375)rotate(-90)scale(0.1 -0.1)">
       <defs>
        <path d="M 12.40625 8.296875 
L 28.515625 8.296875 
L 28.515625 63.921875 
L 10.984375 60.40625 
L 10.984375 69.390625 
L 28.421875 72.90625 
L 38.28125 72.90625 
L 38.28125 8.296875 
L 54.390625 8.296875 
L 54.390625 0 
L 12.40625 0 
z
" id="DejaVuSans-49"/>
       </defs>
       <use xlink:href="#DejaVuSans-74"/>
       <use x="29.492188" xlink:href="#DejaVuSans-97"/>
       <use x="90.771484" xlink:href="#DejaVuSans-110"/>
       <use x="154.150391" xlink:href="#DejaVuSans-32"/>
       <use x="185.9375" xlink:href="#DejaVuSans-50"/>
       <use x="249.560547" xlink:href="#DejaVuSans-48"/>
       <use x="313.183594" xlink:href="#DejaVuSans-50"/>
       <use x="376.806641" xlink:href="#DejaVuSans-49"/>
      </g>
     </g>
    </g>
    <g id="xtick_12">
     <g id="line2d_12">
      <g>
       <use style="stroke:#000000;stroke-width:0.8;" x="528.437624" xlink:href="#m657ab9e8ec" y="252"/>
      </g>
     </g>
     <g id="text_12">
      <!-- Feb 2021 -->
      <g transform="translate(531.196999 305.33125)rotate(-90)scale(0.1 -0.1)">
       <defs>
        <path d="M 9.8125 72.90625 
L 51.703125 72.90625 
L 51.703125 64.59375 
L 19.671875 64.59375 
L 19.671875 43.109375 
L 48.578125 43.109375 
L 48.578125 34.8125 
L 19.671875 34.8125 
L 19.671875 0 
L 9.8125 0 
z
" id="DejaVuSans-70"/>
        <path d="M 48.6875 27.296875 
Q 48.6875 37.203125 44.609375 42.84375 
Q 40.53125 48.484375 33.40625 48.484375 
Q 26.265625 48.484375 22.1875 42.84375 
Q 18.109375 37.203125 18.109375 27.296875 
Q 18.109375 17.390625 22.1875 11.75 
Q 26.265625 6.109375 33.40625 6.109375 
Q 40.53125 6.109375 44.609375 11.75 
Q 48.6875 17.390625 48.6875 27.296875 
z
M 18.109375 46.390625 
Q 20.953125 51.265625 25.265625 53.625 
Q 29.59375 56 35.59375 56 
Q 45.5625 56 51.78125 48.09375 
Q 58.015625 40.1875 58.015625 27.296875 
Q 58.015625 14.40625 51.78125 6.484375 
Q 45.5625 -1.421875 35.59375 -1.421875 
Q 29.59375 -1.421875 25.265625 0.953125 
Q 20.953125 3.328125 18.109375 8.203125 
L 18.109375 0 
L 9.078125 0 
L 9.078125 75.984375 
L 18.109375 75.984375 
z
" id="DejaVuSans-98"/>
       </defs>
       <use xlink:href="#DejaVuSans-70"/>
       <use x="52.019531" xlink:href="#DejaVuSans-101"/>
       <use x="113.542969" xlink:href="#DejaVuSans-98"/>
       <use x="177.019531" xlink:href="#DejaVuSans-32"/>
       <use x="208.806641" xlink:href="#DejaVuSans-50"/>
       <use x="272.429688" xlink:href="#DejaVuSans-48"/>
       <use x="336.052734" xlink:href="#DejaVuSans-50"/>
       <use x="399.675781" xlink:href="#DejaVuSans-49"/>
      </g>
     </g>
    </g>
    <g id="xtick_13">
     <g id="line2d_13">
      <g>
       <use style="stroke:#000000;stroke-width:0.8;" x="568.903824" xlink:href="#m657ab9e8ec" y="252"/>
      </g>
     </g>
     <g id="text_13">
      <!-- Mar 2021 -->
      <g transform="translate(571.663199 306.495312)rotate(-90)scale(0.1 -0.1)">
       <use xlink:href="#DejaVuSans-77"/>
       <use x="86.279297" xlink:href="#DejaVuSans-97"/>
       <use x="147.558594" xlink:href="#DejaVuSans-114"/>
       <use x="188.671875" xlink:href="#DejaVuSans-32"/>
       <use x="220.458984" xlink:href="#DejaVuSans-50"/>
       <use x="284.082031" xlink:href="#DejaVuSans-48"/>
       <use x="347.705078" xlink:href="#DejaVuSans-50"/>
       <use x="411.328125" xlink:href="#DejaVuSans-49"/>
      </g>
     </g>
    </g>
    <g id="text_14">
     <!-- Start date -->
     <g transform="translate(294.525 319.901562)scale(0.1 -0.1)">
      <defs>
       <path d="M 45.40625 46.390625 
L 45.40625 75.984375 
L 54.390625 75.984375 
L 54.390625 0 
L 45.40625 0 
L 45.40625 8.203125 
Q 42.578125 3.328125 38.25 0.953125 
Q 33.9375 -1.421875 27.875 -1.421875 
Q 17.96875 -1.421875 11.734375 6.484375 
Q 5.515625 14.40625 5.515625 27.296875 
Q 5.515625 40.1875 11.734375 48.09375 
Q 17.96875 56 27.875 56 
Q 33.9375 56 38.25 53.625 
Q 42.578125 51.265625 45.40625 46.390625 
z
M 14.796875 27.296875 
Q 14.796875 17.390625 18.875 11.75 
Q 22.953125 6.109375 30.078125 6.109375 
Q 37.203125 6.109375 41.296875 11.75 
Q 45.40625 17.390625 45.40625 27.296875 
Q 45.40625 37.203125 41.296875 42.84375 
Q 37.203125 48.484375 30.078125 48.484375 
Q 22.953125 48.484375 18.875 42.84375 
Q 14.796875 37.203125 14.796875 27.296875 
z
" id="DejaVuSans-100"/>
      </defs>
      <use xlink:href="#DejaVuSans-83"/>
      <use x="63.476562" xlink:href="#DejaVuSans-116"/>
      <use x="102.685547" xlink:href="#DejaVuSans-97"/>
      <use x="163.964844" xlink:href="#DejaVuSans-114"/>
      <use x="205.078125" xlink:href="#DejaVuSans-116"/>
      <use x="244.287109" xlink:href="#DejaVuSans-32"/>
      <use x="276.074219" xlink:href="#DejaVuSans-100"/>
      <use x="339.550781" xlink:href="#DejaVuSans-97"/>
      <use x="400.830078" xlink:href="#DejaVuSans-116"/>
      <use x="440.039062" xlink:href="#DejaVuSans-101"/>
     </g>
    </g>
   </g>
   <g id="matplotlib.axis_2">
    <g id="ytick_1">
     <g id="line2d_14">
      <defs>
       <path d="M 0 0 
L -3.5 0 
" id="mf6a811dd14" style="stroke:#000000;stroke-width:0.8;"/>
      </defs>
      <g>
       <use style="stroke:#000000;stroke-width:0.8;" x="40.603125" xlink:href="#mf6a811dd14" y="240.872727"/>
      </g>
     </g>
     <g id="text_15">
      <!-- 0 -->
      <g transform="translate(27.240625 244.671946)scale(0.1 -0.1)">
       <use xlink:href="#DejaVuSans-48"/>
      </g>
     </g>
    </g>
    <g id="ytick_2">
     <g id="line2d_15">
      <g>
       <use style="stroke:#000000;stroke-width:0.8;" x="40.603125" xlink:href="#mf6a811dd14" y="212.813411"/>
      </g>
     </g>
     <g id="text_16">
      <!-- 10 -->
      <g transform="translate(20.878125 216.612629)scale(0.1 -0.1)">
       <use xlink:href="#DejaVuSans-49"/>
       <use x="63.623047" xlink:href="#DejaVuSans-48"/>
      </g>
     </g>
    </g>
    <g id="ytick_3">
     <g id="line2d_16">
      <g>
       <use style="stroke:#000000;stroke-width:0.8;" x="40.603125" xlink:href="#mf6a811dd14" y="184.754094"/>
      </g>
     </g>
     <g id="text_17">
      <!-- 20 -->
      <g transform="translate(20.878125 188.553313)scale(0.1 -0.1)">
       <use xlink:href="#DejaVuSans-50"/>
       <use x="63.623047" xlink:href="#DejaVuSans-48"/>
      </g>
     </g>
    </g>
    <g id="ytick_4">
     <g id="line2d_17">
      <g>
       <use style="stroke:#000000;stroke-width:0.8;" x="40.603125" xlink:href="#mf6a811dd14" y="156.694778"/>
      </g>
     </g>
     <g id="text_18">
      <!-- 30 -->
      <g transform="translate(20.878125 160.493996)scale(0.1 -0.1)">
       <defs>
        <path d="M 40.578125 39.3125 
Q 47.65625 37.796875 51.625 33 
Q 55.609375 28.21875 55.609375 21.1875 
Q 55.609375 10.40625 48.1875 4.484375 
Q 40.765625 -1.421875 27.09375 -1.421875 
Q 22.515625 -1.421875 17.65625 -0.515625 
Q 12.796875 0.390625 7.625 2.203125 
L 7.625 11.71875 
Q 11.71875 9.328125 16.59375 8.109375 
Q 21.484375 6.890625 26.8125 6.890625 
Q 36.078125 6.890625 40.9375 10.546875 
Q 45.796875 14.203125 45.796875 21.1875 
Q 45.796875 27.640625 41.28125 31.265625 
Q 36.765625 34.90625 28.71875 34.90625 
L 20.21875 34.90625 
L 20.21875 43.015625 
L 29.109375 43.015625 
Q 36.375 43.015625 40.234375 45.921875 
Q 44.09375 48.828125 44.09375 54.296875 
Q 44.09375 59.90625 40.109375 62.90625 
Q 36.140625 65.921875 28.71875 65.921875 
Q 24.65625 65.921875 20.015625 65.03125 
Q 15.375 64.15625 9.8125 62.3125 
L 9.8125 71.09375 
Q 15.4375 72.65625 20.34375 73.4375 
Q 25.25 74.21875 29.59375 74.21875 
Q 40.828125 74.21875 47.359375 69.109375 
Q 53.90625 64.015625 53.90625 55.328125 
Q 53.90625 49.265625 50.4375 45.09375 
Q 46.96875 40.921875 40.578125 39.3125 
z
" id="DejaVuSans-51"/>
       </defs>
       <use xlink:href="#DejaVuSans-51"/>
       <use x="63.623047" xlink:href="#DejaVuSans-48"/>
      </g>
     </g>
    </g>
    <g id="ytick_5">
     <g id="line2d_18">
      <g>
       <use style="stroke:#000000;stroke-width:0.8;" x="40.603125" xlink:href="#mf6a811dd14" y="128.635461"/>
      </g>
     </g>
     <g id="text_19">
      <!-- 40 -->
      <g transform="translate(20.878125 132.43468)scale(0.1 -0.1)">
       <defs>
        <path d="M 37.796875 64.3125 
L 12.890625 25.390625 
L 37.796875 25.390625 
z
M 35.203125 72.90625 
L 47.609375 72.90625 
L 47.609375 25.390625 
L 58.015625 25.390625 
L 58.015625 17.1875 
L 47.609375 17.1875 
L 47.609375 0 
L 37.796875 0 
L 37.796875 17.1875 
L 4.890625 17.1875 
L 4.890625 26.703125 
z
" id="DejaVuSans-52"/>
       </defs>
       <use xlink:href="#DejaVuSans-52"/>
       <use x="63.623047" xlink:href="#DejaVuSans-48"/>
      </g>
     </g>
    </g>
    <g id="ytick_6">
     <g id="line2d_19">
      <g>
       <use style="stroke:#000000;stroke-width:0.8;" x="40.603125" xlink:href="#mf6a811dd14" y="100.576144"/>
      </g>
     </g>
     <g id="text_20">
      <!-- 50 -->
      <g transform="translate(20.878125 104.375363)scale(0.1 -0.1)">
       <defs>
        <path d="M 10.796875 72.90625 
L 49.515625 72.90625 
L 49.515625 64.59375 
L 19.828125 64.59375 
L 19.828125 46.734375 
Q 21.96875 47.46875 24.109375 47.828125 
Q 26.265625 48.1875 28.421875 48.1875 
Q 40.625 48.1875 47.75 41.5 
Q 54.890625 34.8125 54.890625 23.390625 
Q 54.890625 11.625 47.5625 5.09375 
Q 40.234375 -1.421875 26.90625 -1.421875 
Q 22.3125 -1.421875 17.546875 -0.640625 
Q 12.796875 0.140625 7.71875 1.703125 
L 7.71875 11.625 
Q 12.109375 9.234375 16.796875 8.0625 
Q 21.484375 6.890625 26.703125 6.890625 
Q 35.15625 6.890625 40.078125 11.328125 
Q 45.015625 15.765625 45.015625 23.390625 
Q 45.015625 31 40.078125 35.4375 
Q 35.15625 39.890625 26.703125 39.890625 
Q 22.75 39.890625 18.8125 39.015625 
Q 14.890625 38.140625 10.796875 36.28125 
z
" id="DejaVuSans-53"/>
       </defs>
       <use xlink:href="#DejaVuSans-53"/>
       <use x="63.623047" xlink:href="#DejaVuSans-48"/>
      </g>
     </g>
    </g>
    <g id="ytick_7">
     <g id="line2d_20">
      <g>
       <use style="stroke:#000000;stroke-width:0.8;" x="40.603125" xlink:href="#mf6a811dd14" y="72.516828"/>
      </g>
     </g>
     <g id="text_21">
      <!-- 60 -->
      <g transform="translate(20.878125 76.316047)scale(0.1 -0.1)">
       <defs>
        <path d="M 33.015625 40.375 
Q 26.375 40.375 22.484375 35.828125 
Q 18.609375 31.296875 18.609375 23.390625 
Q 18.609375 15.53125 22.484375 10.953125 
Q 26.375 6.390625 33.015625 6.390625 
Q 39.65625 6.390625 43.53125 10.953125 
Q 47.40625 15.53125 47.40625 23.390625 
Q 47.40625 31.296875 43.53125 35.828125 
Q 39.65625 40.375 33.015625 40.375 
z
M 52.59375 71.296875 
L 52.59375 62.3125 
Q 48.875 64.0625 45.09375 64.984375 
Q 41.3125 65.921875 37.59375 65.921875 
Q 27.828125 65.921875 22.671875 59.328125 
Q 17.53125 52.734375 16.796875 39.40625 
Q 19.671875 43.65625 24.015625 45.921875 
Q 28.375 48.1875 33.59375 48.1875 
Q 44.578125 48.1875 50.953125 41.515625 
Q 57.328125 34.859375 57.328125 23.390625 
Q 57.328125 12.15625 50.6875 5.359375 
Q 44.046875 -1.421875 33.015625 -1.421875 
Q 20.359375 -1.421875 13.671875 8.265625 
Q 6.984375 17.96875 6.984375 36.375 
Q 6.984375 53.65625 15.1875 63.9375 
Q 23.390625 74.21875 37.203125 74.21875 
Q 40.921875 74.21875 44.703125 73.484375 
Q 48.484375 72.75 52.59375 71.296875 
z
" id="DejaVuSans-54"/>
       </defs>
       <use xlink:href="#DejaVuSans-54"/>
       <use x="63.623047" xlink:href="#DejaVuSans-48"/>
      </g>
     </g>
    </g>
    <g id="ytick_8">
     <g id="line2d_21">
      <g>
       <use style="stroke:#000000;stroke-width:0.8;" x="40.603125" xlink:href="#mf6a811dd14" y="44.457511"/>
      </g>
     </g>
     <g id="text_22">
      <!-- 70 -->
      <g transform="translate(20.878125 48.25673)scale(0.1 -0.1)">
       <defs>
        <path d="M 8.203125 72.90625 
L 55.078125 72.90625 
L 55.078125 68.703125 
L 28.609375 0 
L 18.3125 0 
L 43.21875 64.59375 
L 8.203125 64.59375 
z
" id="DejaVuSans-55"/>
       </defs>
       <use xlink:href="#DejaVuSans-55"/>
       <use x="63.623047" xlink:href="#DejaVuSans-48"/>
      </g>
     </g>
    </g>
    <g id="ytick_9">
     <g id="line2d_22">
      <g>
       <use style="stroke:#000000;stroke-width:0.8;" x="40.603125" xlink:href="#mf6a811dd14" y="16.398195"/>
      </g>
     </g>
     <g id="text_23">
      <!-- 80 -->
      <g transform="translate(20.878125 20.197413)scale(0.1 -0.1)">
       <defs>
        <path d="M 31.78125 34.625 
Q 24.75 34.625 20.71875 30.859375 
Q 16.703125 27.09375 16.703125 20.515625 
Q 16.703125 13.921875 20.71875 10.15625 
Q 24.75 6.390625 31.78125 6.390625 
Q 38.8125 6.390625 42.859375 10.171875 
Q 46.921875 13.96875 46.921875 20.515625 
Q 46.921875 27.09375 42.890625 30.859375 
Q 38.875 34.625 31.78125 34.625 
z
M 21.921875 38.8125 
Q 15.578125 40.375 12.03125 44.71875 
Q 8.5 49.078125 8.5 55.328125 
Q 8.5 64.0625 14.71875 69.140625 
Q 20.953125 74.21875 31.78125 74.21875 
Q 42.671875 74.21875 48.875 69.140625 
Q 55.078125 64.0625 55.078125 55.328125 
Q 55.078125 49.078125 51.53125 44.71875 
Q 48 40.375 41.703125 38.8125 
Q 48.828125 37.15625 52.796875 32.3125 
Q 56.78125 27.484375 56.78125 20.515625 
Q 56.78125 9.90625 50.3125 4.234375 
Q 43.84375 -1.421875 31.78125 -1.421875 
Q 19.734375 -1.421875 13.25 4.234375 
Q 6.78125 9.90625 6.78125 20.515625 
Q 6.78125 27.484375 10.78125 32.3125 
Q 14.796875 37.15625 21.921875 38.8125 
z
M 18.3125 54.390625 
Q 18.3125 48.734375 21.84375 45.5625 
Q 25.390625 42.390625 31.78125 42.390625 
Q 38.140625 42.390625 41.71875 45.5625 
Q 45.3125 48.734375 45.3125 54.390625 
Q 45.3125 60.0625 41.71875 63.234375 
Q 38.140625 66.40625 31.78125 66.40625 
Q 25.390625 66.40625 21.84375 63.234375 
Q 18.3125 60.0625 18.3125 54.390625 
z
" id="DejaVuSans-56"/>
       </defs>
       <use xlink:href="#DejaVuSans-56"/>
       <use x="63.623047" xlink:href="#DejaVuSans-48"/>
      </g>
     </g>
    </g>
    <g id="text_24">
     <!-- Stay (in days) -->
     <g transform="translate(14.798437 164.197656)rotate(-90)scale(0.1 -0.1)">
      <defs>
       <path d="M 31 75.875 
Q 24.46875 64.65625 21.28125 53.65625 
Q 18.109375 42.671875 18.109375 31.390625 
Q 18.109375 20.125 21.3125 9.0625 
Q 24.515625 -2 31 -13.1875 
L 23.1875 -13.1875 
Q 15.875 -1.703125 12.234375 9.375 
Q 8.59375 20.453125 8.59375 31.390625 
Q 8.59375 42.28125 12.203125 53.3125 
Q 15.828125 64.359375 23.1875 75.875 
z
" id="DejaVuSans-40"/>
       <path d="M 9.421875 54.6875 
L 18.40625 54.6875 
L 18.40625 0 
L 9.421875 0 
z
M 9.421875 75.984375 
L 18.40625 75.984375 
L 18.40625 64.59375 
L 9.421875 64.59375 
z
" id="DejaVuSans-105"/>
       <path d="M 44.28125 53.078125 
L 44.28125 44.578125 
Q 40.484375 46.53125 36.375 47.5 
Q 32.28125 48.484375 27.875 48.484375 
Q 21.1875 48.484375 17.84375 46.4375 
Q 14.5 44.390625 14.5 40.28125 
Q 14.5 37.15625 16.890625 35.375 
Q 19.28125 33.59375 26.515625 31.984375 
L 29.59375 31.296875 
Q 39.15625 29.25 43.1875 25.515625 
Q 47.21875 21.78125 47.21875 15.09375 
Q 47.21875 7.46875 41.1875 3.015625 
Q 35.15625 -1.421875 24.609375 -1.421875 
Q 20.21875 -1.421875 15.453125 -0.5625 
Q 10.6875 0.296875 5.421875 2 
L 5.421875 11.28125 
Q 10.40625 8.6875 15.234375 7.390625 
Q 20.0625 6.109375 24.8125 6.109375 
Q 31.15625 6.109375 34.5625 8.28125 
Q 37.984375 10.453125 37.984375 14.40625 
Q 37.984375 18.0625 35.515625 20.015625 
Q 33.0625 21.96875 24.703125 23.78125 
L 21.578125 24.515625 
Q 13.234375 26.265625 9.515625 29.90625 
Q 5.8125 33.546875 5.8125 39.890625 
Q 5.8125 47.609375 11.28125 51.796875 
Q 16.75 56 26.8125 56 
Q 31.78125 56 36.171875 55.265625 
Q 40.578125 54.546875 44.28125 53.078125 
z
" id="DejaVuSans-115"/>
       <path d="M 8.015625 75.875 
L 15.828125 75.875 
Q 23.140625 64.359375 26.78125 53.3125 
Q 30.421875 42.28125 30.421875 31.390625 
Q 30.421875 20.453125 26.78125 9.375 
Q 23.140625 -1.703125 15.828125 -13.1875 
L 8.015625 -13.1875 
Q 14.5 -2 17.703125 9.0625 
Q 20.90625 20.125 20.90625 31.390625 
Q 20.90625 42.671875 17.703125 53.65625 
Q 14.5 64.65625 8.015625 75.875 
z
" id="DejaVuSans-41"/>
      </defs>
      <use xlink:href="#DejaVuSans-83"/>
      <use x="63.476562" xlink:href="#DejaVuSans-116"/>
      <use x="102.685547" xlink:href="#DejaVuSans-97"/>
      <use x="163.964844" xlink:href="#DejaVuSans-121"/>
      <use x="223.144531" xlink:href="#DejaVuSans-32"/>
      <use x="254.931641" xlink:href="#DejaVuSans-40"/>
      <use x="293.945312" xlink:href="#DejaVuSans-105"/>
      <use x="321.728516" xlink:href="#DejaVuSans-110"/>
      <use x="385.107422" xlink:href="#DejaVuSans-32"/>
      <use x="416.894531" xlink:href="#DejaVuSans-100"/>
      <use x="480.371094" xlink:href="#DejaVuSans-97"/>
      <use x="541.650391" xlink:href="#DejaVuSans-121"/>
      <use x="600.830078" xlink:href="#DejaVuSans-115"/>
      <use x="652.929688" xlink:href="#DejaVuSans-41"/>
     </g>
    </g>
   </g>
   <g id="line2d_23">
    <path clip-path="url(#ped8ed4e968)" d="M 65.966761 232.454932 
L 67.411983 198.783752 
L 71.747647 146.874017 
L 73.192869 238.066796 
L 74.63809 235.260864 
L 76.083311 97.770213 
L 77.528533 184.754094 
L 78.973754 174.465678 
L 80.418976 181.948162 
L 81.864197 167.918504 
L 83.309419 195.977821 
L 84.75464 123.023598 
L 86.199862 185.689405 
L 87.645083 210.007479 
L 89.090304 193.171889 
L 90.535526 195.977821 
L 93.425969 195.977821 
L 94.87119 190.365957 
L 96.316412 229.649001 
L 97.761633 170.724436 
L 100.652076 212.813411 
L 104.98774 232.454932 
L 106.432962 228.71369 
L 107.878183 217.022308 
L 116.549512 148.276983 
L 117.994733 238.066796 
L 119.439955 163.709607 
L 120.885176 235.260864 
L 122.330398 224.037137 
L 123.775619 226.843069 
L 125.220841 212.813411 
L 126.666062 215.619342 
L 128.111284 206.266237 
L 131.001726 226.843069 
L 132.446948 217.022308 
L 135.337391 191.768923 
L 136.782612 238.066796 
L 138.227834 235.260864 
L 141.118277 232.454932 
L 142.563498 106.188008 
L 144.008719 187.560026 
L 145.453941 174.23185 
L 146.899162 184.754094 
L 149.789605 193.171889 
L 151.234827 204.395616 
L 152.680048 235.260864 
L 154.12527 226.843069 
L 155.570491 188.121212 
L 157.015712 205.798582 
L 158.460934 190.365957 
L 159.906155 217.022308 
L 161.351377 229.649001 
L 162.796598 229.649001 
L 164.24182 193.973584 
L 165.687041 187.560026 
L 168.577484 221.231206 
L 170.022705 229.649001 
L 171.467927 224.037137 
L 172.913148 209.072168 
L 174.35837 171.659746 
L 175.803591 206.500064 
L 177.248813 235.260864 
L 178.694034 227.544552 
L 180.139256 227.77838 
L 181.584477 210.007479 
L 183.029698 183.631721 
L 184.47492 207.201547 
L 185.920141 193.171889 
L 187.365363 194.775279 
L 188.810584 207.201547 
L 190.255806 203.92796 
L 191.701027 215.058156 
L 193.146249 200.387142 
L 194.59147 118.8147 
L 196.036691 208.136858 
L 197.481913 195.977821 
L 198.927134 233.857898 
L 200.372356 186.624715 
L 201.817577 213.865635 
L 203.262799 217.37305 
L 204.70802 219.82824 
L 206.153242 208.885106 
L 207.598463 221.231206 
L 209.043684 202.99265 
L 210.488906 174.153908 
L 211.934127 212.813411 
L 213.379349 184.754094 
L 214.82457 149.212293 
L 216.269792 213.374597 
L 217.715013 166.86628 
L 219.160235 191.851451 
L 220.605456 138.456222 
L 222.050677 137.454103 
L 223.495899 206.079175 
L 224.94112 197.536672 
L 226.386342 208.760398 
L 227.831563 175.868644 
L 229.276785 216.671567 
L 230.722006 213.436951 
L 232.167228 182.34901 
L 233.612449 195.977821 
L 235.05767 186.858543 
L 236.502892 175.904617 
L 237.948113 214.995802 
L 239.393335 203.273243 
L 240.838556 206.266237 
L 242.283778 189.243585 
L 243.728999 170.100895 
L 245.174221 201.901454 
L 246.619442 190.833613 
L 248.064663 184.754094 
L 249.509885 172.127402 
L 250.955106 215.218495 
L 252.400328 187.560026 
L 253.845549 204.395616 
L 255.290771 225.790845 
L 258.181214 186.284602 
L 259.626435 201.334599 
L 261.071656 192.704234 
L 262.516878 171.77666 
L 263.962099 217.66002 
L 265.407321 209.01715 
L 266.852542 193.937143 
L 268.297764 191.535096 
L 269.742985 204.596039 
L 271.188207 225.440103 
L 272.633428 185.31528 
L 275.523871 222.0329 
L 276.969092 214.088834 
L 278.414314 210.439161 
L 279.859535 202.524995 
L 281.304757 205.19731 
L 282.749978 207.602395 
L 284.1952 218.425274 
L 285.640421 202.15087 
L 287.085642 218.425274 
L 288.530864 171.425919 
L 289.976085 184.286439 
L 291.421307 214.015953 
L 292.866528 198.783752 
L 294.31175 184.754094 
L 295.756971 206.8007 
L 297.202193 183.584956 
L 298.647414 214.817648 
L 300.092635 212.501641 
L 301.537857 208.253772 
L 302.983078 202.99265 
L 304.4283 144.268509 
L 305.873521 206.640361 
L 307.318743 201.901454 
L 308.763964 195.04251 
L 310.209186 226.843069 
L 311.654407 214.372262 
L 313.099628 206.578007 
L 314.54485 202.15087 
L 315.990071 202.641908 
L 317.435293 204.044874 
L 318.880514 218.705867 
L 320.325736 190.015216 
L 321.770957 201.402622 
L 323.216179 221.231206 
L 324.6614 206.399853 
L 326.106622 201.589684 
L 327.551843 200.888201 
L 328.997064 185.455577 
L 330.442286 224.387879 
L 331.887507 178.20692 
L 333.332729 208.136858 
L 334.77795 220.529723 
L 336.223172 187.960873 
L 337.668393 202.524995 
L 339.113615 226.843069 
L 340.558836 197.731528 
L 342.004057 220.529723 
L 343.449279 203.273243 
L 344.8945 225.907758 
L 346.339722 169.040877 
L 347.784943 210.631019 
L 349.230165 186.624715 
L 350.675386 213.281066 
L 352.120608 167.408335 
L 353.565829 197.380787 
L 355.01105 212.813411 
L 356.456272 232.454932 
L 357.901493 177.939689 
L 359.346715 211.282903 
L 360.791936 228.246035 
L 362.237158 215.619342 
L 363.682379 198.783752 
L 365.127601 221.231206 
L 366.572822 205.798582 
L 368.018043 207.201547 
L 369.463265 190.365957 
L 370.908486 204.395616 
L 372.353708 163.429014 
L 373.798929 214.4168 
L 375.244151 225.907758 
L 376.689372 199.485235 
L 378.134594 225.440103 
L 379.579815 225.440103 
L 381.025036 208.280752 
L 382.470258 223.475951 
L 383.915479 208.885106 
L 385.360701 224.838832 
L 386.805922 209.606632 
L 388.251144 185.31528 
L 389.696365 197.848442 
L 391.141587 195.977821 
L 392.586808 221.231206 
L 394.032029 185.689405 
L 395.477251 219.82824 
L 396.922472 222.166516 
L 398.367694 209.305996 
L 399.812915 225.15951 
L 401.258137 194.1072 
L 402.703358 205.517988 
L 404.14858 189.430647 
L 405.593801 193.973584 
L 407.039022 215.619342 
L 408.484244 216.086998 
L 409.929465 196.445476 
L 411.374687 215.619342 
L 412.819908 185.221749 
L 414.26513 212.813411 
L 415.710351 225.440103 
L 417.155573 213.748721 
L 418.600794 215.307572 
L 420.046015 199.719063 
L 421.491237 190.989498 
L 422.936458 201.122029 
L 424.38168 194.775279 
L 425.826901 221.231206 
L 427.272123 209.752394 
L 428.717344 208.32392 
L 430.162566 203.92796 
L 431.607787 181.948162 
L 433.053008 205.642696 
L 434.49823 185.065864 
L 435.943451 202.99265 
L 437.388673 185.689405 
L 438.833894 201.589684 
L 440.279116 176.687041 
L 441.724337 213.164152 
L 443.169559 183.818784 
L 444.61478 218.425274 
L 446.060001 210.007479 
L 447.505223 218.98646 
L 448.950444 206.079175 
L 450.395666 211.691038 
L 451.840887 197.380787 
L 453.286109 218.98646 
L 454.73133 179.142231 
L 456.176552 215.619342 
L 457.621773 224.037137 
L 459.066994 218.425274 
L 460.512216 206.578007 
L 461.957437 216.741715 
L 463.402659 166.515538 
L 464.84788 199.906125 
L 466.293102 204.746357 
L 467.738323 220.028664 
L 469.183545 195.977821 
L 470.628766 206.436293 
L 472.073987 227.544552 
L 473.519209 209.305996 
L 474.96443 196.913131 
L 476.409652 200.186718 
L 477.854873 215.619342 
L 479.300095 217.022308 
L 480.745316 231.519622 
L 482.190538 215.151687 
L 483.635759 202.524995 
L 485.08098 217.022308 
L 486.526202 209.539824 
L 487.971423 213.615105 
L 489.416645 222.166516 
L 490.861866 218.826121 
L 492.307088 211.410445 
L 493.752309 228.246035 
L 495.197531 200.654374 
L 496.642752 221.231206 
L 498.087973 215.619342 
L 499.533195 216.180529 
L 500.978416 227.404255 
L 502.423638 222.634172 
L 503.868859 210.007479 
L 505.314081 228.947518 
L 506.759302 226.843069 
L 508.204524 219.82824 
L 509.649745 223.413597 
L 511.094966 221.231206 
L 512.540188 223.101827 
L 513.985409 208.604513 
L 515.430631 228.246035 
L 516.875852 205.798582 
L 518.321074 220.108833 
L 519.766295 223.63629 
L 521.211517 218.425274 
L 522.656738 216.554653 
L 524.101959 224.037137 
L 525.547181 224.037137 
L 526.992402 220.295895 
L 528.437624 213.748721 
L 529.882845 214.917859 
L 531.328067 224.037137 
L 532.773288 223.475951 
L 534.21851 218.425274 
L 535.663731 215.619342 
L 537.108953 204.395616 
L 538.554174 217.489963 
L 539.999395 193.171889 
L 541.444617 217.022308 
L 542.889838 217.489963 
L 544.33506 224.504793 
L 545.780281 219.360585 
L 548.670724 229.649001 
L 550.115946 226.843069 
L 551.561167 235.260864 
L 553.006388 238.066796 
L 554.45161 228.246035 
L 558.787274 228.246035 
L 560.232496 232.454932 
L 560.232496 232.454932 
" style="fill:none;stroke:#1f77b4;stroke-linecap:square;stroke-width:0.8;"/>
   </g>
   <g id="line2d_24">
    <path clip-path="url(#ped8ed4e968)" d="M 65.966761 224.037137 
L 68.857204 180.545197 
L 70.302426 210.007479 
L 73.192869 232.454932 
L 74.63809 86.546486 
L 76.083311 134.247324 
L 80.418976 215.619342 
L 81.864197 122.088287 
L 83.309419 184.754094 
L 84.75464 170.724436 
L 87.645083 214.216377 
L 91.980747 212.813411 
L 96.316412 61.293101 
L 103.542519 181.948162 
L 104.98774 145.471051 
L 107.878183 167.918504 
L 110.768626 179.142231 
L 115.104291 125.829529 
L 117.994733 194.1072 
L 119.439955 235.260864 
L 122.330398 190.365957 
L 123.775619 198.783752 
L 126.666062 217.022308 
L 129.556505 193.171889 
L 131.001726 128.635461 
L 132.446948 209.072168 
L 133.892169 215.619342 
L 135.337391 174.933333 
L 136.782612 181.948162 
L 138.227834 193.171889 
L 141.118277 221.231206 
L 142.563498 117.411734 
L 144.008719 222.634172 
L 145.453941 205.330926 
L 146.899162 224.037137 
L 148.344384 174.23185 
L 151.234827 195.977821 
L 152.680048 199.719063 
L 154.12527 185.455577 
L 155.570491 210.007479 
L 157.015712 192.236579 
L 161.351377 176.336299 
L 162.796598 186.15706 
L 167.132263 238.066796 
L 171.467927 190.365957 
L 174.35837 221.231206 
L 175.803591 187.560026 
L 177.248813 214.216377 
L 178.694034 238.066796 
L 180.139256 213.514894 
L 183.029698 194.294262 
L 184.47492 215.619342 
L 185.920141 189.430647 
L 187.365363 170.724436 
L 188.810584 207.201547 
L 190.255806 213.935783 
L 191.701027 214.216377 
L 193.146249 204.395616 
L 194.59147 169.32147 
L 196.036691 185.555789 
L 197.481913 207.201547 
L 198.927134 211.410445 
L 200.372356 177.037782 
L 201.817577 201.589684 
L 203.262799 213.935783 
L 204.70802 195.510165 
L 206.153242 201.238943 
L 207.598463 203.226478 
L 209.043684 205.798582 
L 210.488906 188.495336 
L 211.934127 203.834429 
L 213.379349 210.007479 
L 214.82457 212.813411 
L 217.715013 167.294964 
L 219.160235 210.568665 
L 220.605456 211.210021 
L 222.050677 183.818784 
L 223.495899 192.971465 
L 224.94112 201.028498 
L 226.386342 182.34901 
L 227.831563 189.600703 
L 229.276785 194.399484 
L 230.722006 202.712057 
L 232.167228 174.825413 
L 233.612449 189.243585 
L 235.05767 158.799226 
L 236.502892 196.854674 
L 237.948113 195.977821 
L 239.393335 207.669203 
L 240.838556 190.365957 
L 242.283778 131.160799 
L 243.728999 197.848442 
L 245.174221 191.145383 
L 246.619442 192.66172 
L 248.064663 203.316411 
L 250.955106 180.369826 
L 252.400328 150.802321 
L 253.845549 184.052611 
L 255.290771 169.415001 
L 256.735992 211.610869 
L 258.181214 212.813411 
L 259.626435 189.430647 
L 261.071656 189.036832 
L 262.516878 188.962992 
L 263.962099 191.034036 
L 265.407321 197.159266 
L 266.852542 195.977821 
L 269.742985 178.674576 
L 271.188207 180.077541 
L 272.633428 183.98884 
L 274.078649 203.593921 
L 275.523871 194.657382 
L 276.969092 192.236579 
L 278.414314 215.874427 
L 279.859535 181.106383 
L 281.304757 201.589684 
L 282.749978 165.442682 
L 284.1952 203.593921 
L 285.640421 218.425274 
L 287.085642 188.835449 
L 288.530864 179.765771 
L 289.976085 195.722736 
L 291.421307 197.298259 
L 292.866528 204.044874 
L 294.31175 197.146959 
L 295.756971 220.997378 
L 297.202193 190.581798 
L 298.647414 170.724436 
L 300.092635 173.179626 
L 301.537857 198.783752 
L 302.983078 180.344773 
L 304.4283 204.676209 
L 305.873521 217.54842 
L 307.318743 198.503159 
L 308.763964 209.820417 
L 310.209186 182.649645 
L 311.654407 205.019156 
L 313.099628 216.320825 
L 314.54485 201.589684 
L 315.990071 214.450204 
L 317.435293 201.158002 
L 318.880514 215.364258 
L 320.325736 203.694133 
L 321.770957 206.691378 
L 323.216179 188.495336 
L 324.6614 195.212567 
L 326.106622 177.458672 
L 327.551843 182.18199 
L 328.997064 192.119665 
L 330.442286 188.729164 
L 331.887507 187.092371 
L 334.77795 210.007479 
L 336.223172 191.862454 
L 337.668393 210.358221 
L 339.113615 195.467651 
L 340.558836 196.48799 
L 342.004057 210.755727 
L 343.449279 201.277914 
L 344.8945 202.792226 
L 346.339722 184.754094 
L 347.784943 173.12952 
L 349.230165 197.380787 
L 350.675386 197.380787 
L 352.120608 201.028498 
L 353.565829 195.136041 
L 355.01105 200.888201 
L 356.456272 189.345619 
L 357.901493 195.416634 
L 359.346715 206.889777 
L 360.791936 194.447313 
L 362.237158 201.589684 
L 363.682379 200.387142 
L 365.127601 208.136858 
L 366.572822 198.222566 
L 368.018043 196.539007 
L 369.463265 197.146959 
L 370.908486 172.882845 
L 372.353708 206.266237 
L 373.798929 185.689405 
L 375.244151 207.90303 
L 376.689372 165.736113 
L 378.134594 190.085364 
L 379.579815 190.365957 
L 381.025036 186.15706 
L 382.470258 203.694133 
L 383.915479 211.691038 
L 385.360701 160.903675 
L 386.805922 207.201547 
L 388.251144 198.433011 
L 389.696365 218.425274 
L 391.141587 191.48833 
L 392.586808 197.380787 
L 394.032029 207.825088 
L 395.477251 189.118877 
L 396.922472 210.007479 
L 398.367694 179.492972 
L 399.812915 207.014485 
L 401.258137 195.977821 
L 402.703358 206.149323 
L 404.14858 167.606734 
L 405.593801 187.910767 
L 407.039022 203.834429 
L 408.484244 185.756213 
L 409.929465 199.835977 
L 411.374687 190.646551 
L 412.819908 188.682398 
L 414.26513 217.723791 
L 415.710351 186.539687 
L 417.155573 190.989498 
L 418.600794 194.447313 
L 420.046015 201.238943 
L 421.491237 194.574855 
L 422.936458 213.414682 
L 424.38168 186.284602 
L 425.826901 193.873372 
L 427.272123 203.193074 
L 428.717344 201.277914 
L 430.162566 198.471982 
L 431.607787 196.445476 
L 433.053008 202.99265 
L 434.49823 221.792392 
L 435.943451 213.068495 
L 437.388673 166.234945 
L 438.833894 206.359768 
L 440.279116 184.754094 
L 441.724337 201.028498 
L 443.169559 191.48833 
L 444.61478 190.035848 
L 446.060001 181.480507 
L 447.505223 199.215434 
L 448.950444 201.414313 
L 450.395666 191.5685 
L 451.840887 207.513318 
L 453.286109 191.613038 
L 454.73133 216.320825 
L 456.176552 210.439161 
L 457.621773 189.243585 
L 459.066994 176.616892 
L 460.512216 178.494708 
L 461.957437 185.185776 
L 463.402659 187.560026 
L 464.84788 182.509349 
L 466.293102 188.027681 
L 467.738323 184.403353 
L 469.183545 199.293922 
L 470.628766 193.603571 
L 472.073987 209.242225 
L 473.519209 203.120192 
L 474.96443 200.654374 
L 476.409652 194.374431 
L 477.854873 204.611457 
L 479.300095 177.538841 
L 480.745316 197.146959 
L 482.190538 184.754094 
L 483.635759 194.013669 
L 485.08098 189.489104 
L 486.526202 195.546139 
L 487.971423 217.864088 
L 489.416645 188.835449 
L 492.307088 199.309865 
L 493.752309 210.007479 
L 495.197531 207.201547 
L 496.642752 189.163415 
L 498.087973 210.708962 
L 499.533195 194.447313 
L 500.978416 210.755727 
L 502.423638 218.425274 
L 503.868859 202.099853 
L 505.314081 217.022308 
L 506.759302 203.834429 
L 508.204524 204.796463 
L 509.649745 210.568665 
L 511.094966 195.666051 
L 512.540188 216.242883 
L 513.985409 219.360585 
L 515.430631 202.15087 
L 516.875852 210.007479 
L 518.321074 199.585447 
L 519.766295 187.560026 
L 521.211517 208.253772 
L 522.656738 214.684032 
L 524.101959 200.342603 
L 525.547181 200.186718 
L 526.992402 207.201547 
L 528.437624 205.237395 
L 529.882845 197.848442 
L 531.328067 207.201547 
L 532.773288 208.40409 
L 534.21851 195.977821 
L 535.663731 204.746357 
L 537.108953 207.201547 
L 538.554174 225.720696 
L 539.999395 219.547647 
L 541.444617 204.395616 
L 542.889838 208.003242 
L 544.33506 203.834429 
L 545.780281 214.995802 
L 547.225503 213.615105 
L 548.670724 214.216377 
L 550.115946 216.554653 
L 553.006388 223.63629 
L 554.45161 229.248153 
L 555.896831 221.581947 
L 557.342053 220.529723 
L 558.787274 225.907758 
L 560.232496 223.686396 
L 561.677717 226.219529 
L 563.122939 231.753449 
L 564.56816 228.883747 
L 566.013381 234.793209 
L 567.458603 234.138491 
L 568.903824 238.066796 
L 570.349046 233.857898 
L 573.239489 239.469761 
L 573.239489 239.469761 
" style="fill:none;stroke:#ff7f0e;stroke-linecap:square;stroke-width:0.8;"/>
   </g>
   <g id="line2d_25"/>
   <g id="line2d_26"/>
   <g id="line2d_27">
    <path clip-path="url(#ped8ed4e968)" d="M 40.603125 199.438533 
L 598.603125 199.438533 
" style="fill:none;stroke:#000000;stroke-dasharray:2.96,1.28;stroke-dashoffset:0;stroke-width:0.8;"/>
   </g>
   <g id="patch_3">
    <path d="M 40.603125 252 
L 40.603125 7.2 
" style="fill:none;stroke:#000000;stroke-linecap:square;stroke-linejoin:miter;stroke-width:0.8;"/>
   </g>
   <g id="patch_4">
    <path d="M 40.603125 252 
L 598.603125 252 
" style="fill:none;stroke:#000000;stroke-linecap:square;stroke-linejoin:miter;stroke-width:0.8;"/>
   </g>
   <g id="legend_1">
    <g id="patch_5">
     <path d="M 506.078125 59.234375 
L 591.603125 59.234375 
Q 593.603125 59.234375 593.603125 57.234375 
L 593.603125 14.2 
Q 593.603125 12.2 591.603125 12.2 
L 506.078125 12.2 
Q 504.078125 12.2 504.078125 14.2 
L 504.078125 57.234375 
Q 504.078125 59.234375 506.078125 59.234375 
z
" style="fill:#ffffff;opacity:0.8;stroke:#cccccc;stroke-linejoin:miter;"/>
    </g>
    <g id="line2d_28">
     <path d="M 508.078125 20.298437 
L 528.078125 20.298437 
" style="fill:none;stroke:#1f77b4;stroke-linecap:square;stroke-width:1.5;"/>
    </g>
    <g id="line2d_29"/>
    <g id="text_25">
     <!-- RECOVERY -->
     <g transform="translate(536.078125 23.798437)scale(0.1 -0.1)">
      <defs>
       <path d="M 44.390625 34.1875 
Q 47.5625 33.109375 50.5625 29.59375 
Q 53.5625 26.078125 56.59375 19.921875 
L 66.609375 0 
L 56 0 
L 46.6875 18.703125 
Q 43.0625 26.03125 39.671875 28.421875 
Q 36.28125 30.8125 30.421875 30.8125 
L 19.671875 30.8125 
L 19.671875 0 
L 9.8125 0 
L 9.8125 72.90625 
L 32.078125 72.90625 
Q 44.578125 72.90625 50.734375 67.671875 
Q 56.890625 62.453125 56.890625 51.90625 
Q 56.890625 45.015625 53.6875 40.46875 
Q 50.484375 35.9375 44.390625 34.1875 
z
M 19.671875 64.796875 
L 19.671875 38.921875 
L 32.078125 38.921875 
Q 39.203125 38.921875 42.84375 42.21875 
Q 46.484375 45.515625 46.484375 51.90625 
Q 46.484375 58.296875 42.84375 61.546875 
Q 39.203125 64.796875 32.078125 64.796875 
z
" id="DejaVuSans-82"/>
       <path d="M 9.8125 72.90625 
L 55.90625 72.90625 
L 55.90625 64.59375 
L 19.671875 64.59375 
L 19.671875 43.015625 
L 54.390625 43.015625 
L 54.390625 34.71875 
L 19.671875 34.71875 
L 19.671875 8.296875 
L 56.78125 8.296875 
L 56.78125 0 
L 9.8125 0 
z
" id="DejaVuSans-69"/>
       <path d="M 64.40625 67.28125 
L 64.40625 56.890625 
Q 59.421875 61.53125 53.78125 63.8125 
Q 48.140625 66.109375 41.796875 66.109375 
Q 29.296875 66.109375 22.65625 58.46875 
Q 16.015625 50.828125 16.015625 36.375 
Q 16.015625 21.96875 22.65625 14.328125 
Q 29.296875 6.6875 41.796875 6.6875 
Q 48.140625 6.6875 53.78125 8.984375 
Q 59.421875 11.28125 64.40625 15.921875 
L 64.40625 5.609375 
Q 59.234375 2.09375 53.4375 0.328125 
Q 47.65625 -1.421875 41.21875 -1.421875 
Q 24.65625 -1.421875 15.125 8.703125 
Q 5.609375 18.84375 5.609375 36.375 
Q 5.609375 53.953125 15.125 64.078125 
Q 24.65625 74.21875 41.21875 74.21875 
Q 47.75 74.21875 53.53125 72.484375 
Q 59.328125 70.75 64.40625 67.28125 
z
" id="DejaVuSans-67"/>
       <path d="M 28.609375 0 
L 0.78125 72.90625 
L 11.078125 72.90625 
L 34.1875 11.53125 
L 57.328125 72.90625 
L 67.578125 72.90625 
L 39.796875 0 
z
" id="DejaVuSans-86"/>
       <path d="M -0.203125 72.90625 
L 10.40625 72.90625 
L 30.609375 42.921875 
L 50.6875 72.90625 
L 61.28125 72.90625 
L 35.5 34.71875 
L 35.5 0 
L 25.59375 0 
L 25.59375 34.71875 
z
" id="DejaVuSans-89"/>
      </defs>
      <use xlink:href="#DejaVuSans-82"/>
      <use x="69.482422" xlink:href="#DejaVuSans-69"/>
      <use x="132.666016" xlink:href="#DejaVuSans-67"/>
      <use x="202.490234" xlink:href="#DejaVuSans-79"/>
      <use x="279.451172" xlink:href="#DejaVuSans-86"/>
      <use x="347.859375" xlink:href="#DejaVuSans-69"/>
      <use x="411.042969" xlink:href="#DejaVuSans-82"/>
      <use x="474.150391" xlink:href="#DejaVuSans-89"/>
     </g>
    </g>
    <g id="line2d_30">
     <path d="M 508.078125 34.976562 
L 528.078125 34.976562 
" style="fill:none;stroke:#ff7f0e;stroke-linecap:square;stroke-width:1.5;"/>
    </g>
    <g id="line2d_31"/>
    <g id="text_26">
     <!-- DEATH -->
     <g transform="translate(536.078125 38.476562)scale(0.1 -0.1)">
      <defs>
       <path d="M -0.296875 72.90625 
L 61.375 72.90625 
L 61.375 64.59375 
L 35.5 64.59375 
L 35.5 0 
L 25.59375 0 
L 25.59375 64.59375 
L -0.296875 64.59375 
z
" id="DejaVuSans-84"/>
       <path d="M 9.8125 72.90625 
L 19.671875 72.90625 
L 19.671875 43.015625 
L 55.515625 43.015625 
L 55.515625 72.90625 
L 65.375 72.90625 
L 65.375 0 
L 55.515625 0 
L 55.515625 34.71875 
L 19.671875 34.71875 
L 19.671875 0 
L 9.8125 0 
z
" id="DejaVuSans-72"/>
      </defs>
      <use xlink:href="#DejaVuSans-68"/>
      <use x="77.001953" xlink:href="#DejaVuSans-69"/>
      <use x="140.185547" xlink:href="#DejaVuSans-65"/>
      <use x="200.84375" xlink:href="#DejaVuSans-84"/>
      <use x="261.927734" xlink:href="#DejaVuSans-72"/>
     </g>
    </g>
    <g id="line2d_32">
     <path d="M 508.078125 49.654687 
L 528.078125 49.654687 
" style="fill:none;stroke:#000000;stroke-dasharray:2.96,1.28;stroke-dashoffset:0;stroke-width:0.8;"/>
    </g>
    <g id="line2d_33"/>
    <g id="text_27">
     <!-- Mean -->
     <g transform="translate(536.078125 53.154687)scale(0.1 -0.1)">
      <use xlink:href="#DejaVuSans-77"/>
      <use x="86.279297" xlink:href="#DejaVuSans-101"/>
      <use x="147.802734" xlink:href="#DejaVuSans-97"/>
      <use x="209.082031" xlink:href="#DejaVuSans-110"/>
     </g>
    </g>
   </g>
  </g>
 </g>
 <defs>
  <clipPath id="ped8ed4e968">
   <rect height="244.8" width="558" x="40.603125" y="7.2"/>
  </clipPath>
 </defs>
</svg>
