<?xml version="1.0" encoding="utf-8" standalone="no"?>
<!DOCTYPE svg PUBLIC "-//W3C//DTD SVG 1.1//EN"
  "http://www.w3.org/Graphics/SVG/1.1/DTD/svg11.dtd">
<!-- Created with matplotlib (https://matplotlib.org/) -->
<svg height="329.18125pt" version="1.1" viewBox="0 0 605.803125 329.18125" width="605.803125pt" xmlns="http://www.w3.org/2000/svg" xmlns:xlink="http://www.w3.org/1999/xlink">
 <metadata>
  <rdf:RDF xmlns:cc="http://creativecommons.org/ns#" xmlns:dc="http://purl.org/dc/elements/1.1/" xmlns:rdf="http://www.w3.org/1999/02/22-rdf-syntax-ns#">
   <cc:Work>
    <dc:type rdf:resource="http://purl.org/dc/dcmitype/StillImage"/>
    <dc:date>2021-03-21T00:37:58.986993</dc:date>
    <dc:format>image/svg+xml</dc:format>
    <dc:creator>
     <cc:Agent>
      <dc:title>Matplotlib v3.3.4, https://matplotlib.org/</dc:title>
     </cc:Agent>
    </dc:creator>
   </cc:Work>
  </rdf:RDF>
 </metadata>
 <defs>
  <style type="text/css">*{stroke-linecap:butt;stroke-linejoin:round;}</style>
 </defs>
 <g id="figure_1">
  <g id="patch_1">
   <path d="M 0 329.18125 
L 605.803125 329.18125 
L 605.803125 0 
L 0 0 
z
" style="fill:none;"/>
  </g>
  <g id="axes_1">
   <g id="patch_2">
    <path d="M 40.603125 252 
L 598.603125 252 
L 598.603125 7.2 
L 40.603125 7.2 
z
" style="fill:#ffffff;"/>
   </g>
   <g id="PolyCollection_1">
    <path clip-path="url(#p35f6df46aa)" d="M 71.747647 141.665717 
L 71.747647 160.434611 
L 71.747647 141.665717 
L 71.747647 141.665717 
z
" style="fill:#1f77b4;fill-opacity:0.2;stroke:#1f77b4;stroke-opacity:0.2;"/>
    <path clip-path="url(#p35f6df46aa)" d="M 77.528533 149.709529 
L 77.528533 224.785104 
L 78.973754 210.484995 
L 80.418976 224.785104 
L 81.864197 212.272508 
L 81.864197 130.046878 
L 81.864197 130.046878 
L 80.418976 144.346988 
L 78.973754 138.71632 
L 77.528533 149.709529 
z
" style="fill:#1f77b4;fill-opacity:0.2;stroke:#1f77b4;stroke-opacity:0.2;"/>
    <path clip-path="url(#p35f6df46aa)" d="M 86.199862 184.566046 
L 86.199862 191.716101 
L 86.199862 184.566046 
L 86.199862 184.566046 
z
" style="fill:#1f77b4;fill-opacity:0.2;stroke:#1f77b4;stroke-opacity:0.2;"/>
    <path clip-path="url(#p35f6df46aa)" d="M 89.090304 173.840964 
L 89.090304 235.510186 
L 89.090304 173.840964 
L 89.090304 173.840964 
z
" style="fill:#1f77b4;fill-opacity:0.2;stroke:#1f77b4;stroke-opacity:0.2;"/>
    <path clip-path="url(#p35f6df46aa)" d="M 94.87119 147.028258 
L 94.87119 238.191457 
L 96.316412 235.510186 
L 96.316412 224.785104 
L 96.316412 224.785104 
L 94.87119 147.028258 
z
" style="fill:#1f77b4;fill-opacity:0.2;stroke:#1f77b4;stroke-opacity:0.2;"/>
    <path clip-path="url(#p35f6df46aa)" d="M 106.432962 225.209639 
L 106.432962 235.510186 
L 107.878183 232.828916 
L 107.878183 203.33494 
L 107.878183 203.33494 
L 106.432962 225.209639 
z
" style="fill:#1f77b4;fill-opacity:0.2;stroke:#1f77b4;stroke-opacity:0.2;"/>
    <path clip-path="url(#p35f6df46aa)" d="M 119.439955 109.490471 
L 119.439955 224.785104 
L 119.439955 109.490471 
L 119.439955 109.490471 
z
" style="fill:#1f77b4;fill-opacity:0.2;stroke:#1f77b4;stroke-opacity:0.2;"/>
    <path clip-path="url(#p35f6df46aa)" d="M 123.775619 222.103834 
L 123.775619 232.828916 
L 123.775619 222.103834 
L 123.775619 222.103834 
z
" style="fill:#1f77b4;fill-opacity:0.2;stroke:#1f77b4;stroke-opacity:0.2;"/>
    <path clip-path="url(#p35f6df46aa)" d="M 126.666062 206.01621 
L 126.666062 227.466375 
L 128.111284 222.103834 
L 128.111284 195.291128 
L 128.111284 195.291128 
L 126.666062 206.01621 
z
" style="fill:#1f77b4;fill-opacity:0.2;stroke:#1f77b4;stroke-opacity:0.2;"/>
    <path clip-path="url(#p35f6df46aa)" d="M 132.446948 206.01621 
L 132.446948 230.147645 
L 135.337391 228.874042 
L 136.782612 238.191457 
L 136.782612 238.191457 
L 136.782612 238.191457 
L 135.337391 149.877108 
L 132.446948 206.01621 
z
" style="fill:#1f77b4;fill-opacity:0.2;stroke:#1f77b4;stroke-opacity:0.2;"/>
    <path clip-path="url(#p35f6df46aa)" d="M 141.118277 232.828916 
L 141.118277 232.828916 
L 141.118277 232.828916 
L 141.118277 232.828916 
z
" style="fill:#1f77b4;fill-opacity:0.2;stroke:#1f77b4;stroke-opacity:0.2;"/>
    <path clip-path="url(#p35f6df46aa)" d="M 145.453941 135.398248 
L 145.453941 223.796386 
L 145.453941 135.398248 
L 145.453941 135.398248 
z
" style="fill:#1f77b4;fill-opacity:0.2;stroke:#1f77b4;stroke-opacity:0.2;"/>
    <path clip-path="url(#p35f6df46aa)" d="M 151.234827 157.753341 
L 151.234827 231.935159 
L 151.234827 157.753341 
L 151.234827 157.753341 
z
" style="fill:#1f77b4;fill-opacity:0.2;stroke:#1f77b4;stroke-opacity:0.2;"/>
    <path clip-path="url(#p35f6df46aa)" d="M 155.570491 151.546199 
L 155.570491 223.511501 
L 157.015712 235.510186 
L 157.015712 179.840307 
L 157.015712 179.840307 
L 155.570491 151.546199 
z
" style="fill:#1f77b4;fill-opacity:0.2;stroke:#1f77b4;stroke-opacity:0.2;"/>
    <path clip-path="url(#p35f6df46aa)" d="M 159.906155 201.994304 
L 159.906155 231.940745 
L 159.906155 201.994304 
L 159.906155 201.994304 
z
" style="fill:#1f77b4;fill-opacity:0.2;stroke:#1f77b4;stroke-opacity:0.2;"/>
    <path clip-path="url(#p35f6df46aa)" d="M 164.24182 156.767016 
L 164.24182 221.759099 
L 165.687041 235.510186 
L 165.687041 141.665717 
L 165.687041 141.665717 
L 164.24182 156.767016 
z
" style="fill:#1f77b4;fill-opacity:0.2;stroke:#1f77b4;stroke-opacity:0.2;"/>
    <path clip-path="url(#p35f6df46aa)" d="M 168.577484 219.422563 
L 168.577484 224.785104 
L 168.577484 219.422563 
L 168.577484 219.422563 
z
" style="fill:#1f77b4;fill-opacity:0.2;stroke:#1f77b4;stroke-opacity:0.2;"/>
    <path clip-path="url(#p35f6df46aa)" d="M 172.913148 197.972399 
L 172.913148 227.466375 
L 174.35837 230.147645 
L 175.803591 225.170537 
L 175.803591 188.587952 
L 175.803591 188.587952 
L 174.35837 147.028258 
L 172.913148 197.972399 
z
" style="fill:#1f77b4;fill-opacity:0.2;stroke:#1f77b4;stroke-opacity:0.2;"/>
    <path clip-path="url(#p35f6df46aa)" d="M 178.694034 222.103834 
L 178.694034 233.85115 
L 180.139256 239.174589 
L 181.584477 226.6754 
L 183.029698 219.167842 
L 184.47492 226.983746 
L 185.920141 200.653669 
L 187.365363 224.986199 
L 187.365363 168.20072 
L 187.365363 168.20072 
L 185.920141 189.928587 
L 184.47492 173.023176 
L 183.029698 135.968018 
L 181.584477 187.67632 
L 180.139256 219.422563 
L 178.694034 222.103834 
z
" style="fill:#1f77b4;fill-opacity:0.2;stroke:#1f77b4;stroke-opacity:0.2;"/>
    <path clip-path="url(#p35f6df46aa)" d="M 190.255806 190.459255 
L 190.255806 219.891785 
L 191.701027 233.110449 
L 193.146249 224.785104 
L 194.59147 234.169551 
L 196.036691 227.019496 
L 197.481913 232.828916 
L 198.927134 238.191457 
L 200.372356 240.872727 
L 201.817577 228.80701 
L 203.262799 226.796057 
L 204.70802 236.191676 
L 206.153242 228.820416 
L 207.598463 234.182957 
L 209.043684 227.254107 
L 210.488906 206.64184 
L 211.934127 227.504678 
L 213.379349 210.047692 
L 214.82457 220.16736 
L 216.269792 228.284162 
L 217.715013 212.602081 
L 219.160235 207.857612 
L 220.605456 194.369441 
L 222.050677 214.443061 
L 223.495899 219.576736 
L 224.94112 224.047755 
L 226.386342 227.779189 
L 227.831563 228.147864 
L 229.276785 230.817963 
L 230.722006 225.693757 
L 232.167228 207.165326 
L 233.612449 220.763198 
L 235.05767 226.125739 
L 236.502892 195.646912 
L 237.948113 228.278204 
L 239.393335 217.954567 
L 240.838556 220.83023 
L 242.283778 213.84552 
L 243.728999 224.673384 
L 245.174221 224.941512 
L 246.619442 231.393319 
L 248.064663 203.899124 
L 249.509885 209.669441 
L 250.955106 225.771429 
L 252.400328 221.659748 
L 253.845549 223.102607 
L 255.290771 230.993921 
L 256.735992 218.644995 
L 258.181214 211.171562 
L 259.626435 213.94424 
L 261.071656 210.943045 
L 262.516878 215.266594 
L 263.962099 232.981261 
L 265.407321 223.996495 
L 266.852542 223.822284 
L 268.297764 212.764074 
L 269.742985 220.016273 
L 271.188207 232.382037 
L 272.633428 225.857612 
L 274.078649 219.263363 
L 275.523871 230.952026 
L 276.969092 230.763119 
L 278.414314 220.572416 
L 279.859535 226.58379 
L 281.304757 228.251604 
L 282.749978 218.704366 
L 284.1952 230.658762 
L 285.640421 227.365827 
L 287.085642 233.164074 
L 288.530864 203.446659 
L 289.976085 202.686966 
L 291.421307 230.387044 
L 292.866528 215.706024 
L 294.31175 205.485542 
L 295.756971 218.876733 
L 297.202193 213.540526 
L 298.647414 228.634642 
L 300.092635 226.773713 
L 301.537857 222.154107 
L 302.983078 224.290745 
L 304.4283 196.641339 
L 305.873521 229.551062 
L 307.318743 214.529244 
L 308.763964 213.438861 
L 310.209186 235.510186 
L 311.654407 225.991676 
L 313.099628 222.036802 
L 314.54485 218.376867 
L 315.990071 217.512158 
L 317.435293 218.115444 
L 318.880514 229.497437 
L 320.325736 213.917579 
L 321.770957 214.998467 
L 323.216179 228.360131 
L 324.6614 225.38839 
L 326.106622 227.102488 
L 327.551843 216.908872 
L 328.997064 214.73034 
L 330.442286 232.493757 
L 331.887507 232.828916 
L 333.332729 222.260241 
L 334.77795 229.477327 
L 336.223172 215.63048 
L 337.668393 226.572618 
L 339.113615 234.20977 
L 340.558836 220.268839 
L 342.004057 231.840197 
L 343.449279 231.246966 
L 344.8945 232.828916 
L 346.339722 223.712596 
L 347.784943 218.70011 
L 349.230165 219.020372 
L 350.675386 228.80701 
L 352.120608 201.689615 
L 353.565829 213.758379 
L 355.01105 219.422563 
L 355.01105 208.697481 
L 355.01105 208.697481 
L 353.565829 180.653067 
L 352.120608 130.672508 
L 350.675386 189.928587 
L 349.230165 145.218401 
L 347.784943 200.482366 
L 346.339722 92.839781 
L 344.8945 222.103834 
L 343.449279 176.951238 
L 342.004057 206.01621 
L 340.558836 177.351752 
L 339.113615 221.567579 
L 337.668393 181.884775 
L 336.223172 152.754686 
L 334.77795 215.400657 
L 333.332729 193.287623 
L 331.887507 128.259365 
L 330.442286 214.219222 
L 328.997064 157.719825 
L 327.551843 189.505449 
L 326.106622 176.685026 
L 324.6614 185.341699 
L 323.216179 216.27207 
L 321.770957 190.549748 
L 320.325736 171.159693 
L 318.880514 205.748083 
L 317.435293 192.09874 
L 315.990071 187.071358 
L 314.54485 186.38931 
L 313.099628 189.965827 
L 311.654407 204.966046 
L 310.209186 221.751917 
L 308.763964 176.969113 
L 307.318743 187.247317 
L 305.873521 177.809244 
L 304.4283 89.486278 
L 302.983078 167.053998 
L 301.537857 193.598576 
L 300.092635 201.547426 
L 298.647414 206.01621 
L 297.202193 154.910077 
L 295.756971 192.571554 
L 294.31175 158.027054 
L 292.866528 181.259146 
L 291.421307 199.667345 
L 289.976085 168.327601 
L 288.530864 129.851369 
L 287.085642 194.939211 
L 285.640421 175.315663 
L 284.1952 204.910186 
L 282.749978 198.154342 
L 281.304757 184.326647 
L 279.859535 174.595071 
L 278.414314 203.845412 
L 276.969092 182.42103 
L 275.523871 212.872602 
L 274.078649 188.378478 
L 272.633428 135.230668 
L 271.188207 216.741292 
L 269.742985 192.0353 
L 268.297764 175.667579 
L 266.852542 167.052474 
L 265.407321 194.029354 
L 263.962099 198.179588 
L 262.516878 103.306791 
L 261.071656 173.371742 
L 259.626435 192.317355 
L 258.181214 169.53265 
L 256.735992 197.295378 
L 255.290771 221.433516 
L 253.845549 193.541599 
L 252.400328 157.879025 
L 250.955106 205.049038 
L 249.509885 133.621906 
L 248.064663 167.305367 
L 246.619442 158.580066 
L 245.174221 182.279518 
L 243.728999 98.46747 
L 242.283778 165.153647 
L 240.838556 195.857174 
L 239.393335 190.055947 
L 237.948113 206.909967 
L 236.502892 154.236751 
L 235.05767 158.390142 
L 233.612449 167.774589 
L 232.167228 161.286872 
L 230.722006 205.390581 
L 229.276785 204.658817 
L 227.831563 124.125739 
L 226.386342 188.677327 
L 224.94112 163.01161 
L 223.495899 190.82011 
L 222.050677 28.994899 
L 220.605456 63.741292 
L 219.160235 174.124863 
L 217.715013 119.369277 
L 216.269792 194.573888 
L 214.82457 68.049945 
L 213.379349 148.502957 
L 211.934127 198.317133 
L 210.488906 143.140416 
L 209.043684 173.751588 
L 207.598463 208.134414 
L 206.153242 181.066988 
L 204.70802 203.759474 
L 203.262799 204.114184 
L 201.817577 194.411336 
L 200.372356 130.136254 
L 198.927134 230.147645 
L 197.481913 159.077218 
L 196.036691 192.799781 
L 194.59147 18.327273 
L 193.146249 171.925771 
L 191.701027 199.299628 
L 190.255806 190.459255 
z
" style="fill:#1f77b4;fill-opacity:0.2;stroke:#1f77b4;stroke-opacity:0.2;"/>
    <path clip-path="url(#p35f6df46aa)" d="M 357.901493 139.559005 
L 357.901493 218.69479 
L 359.346715 228.965449 
L 360.791936 235.510186 
L 362.237158 227.147974 
L 363.682379 222.99759 
L 365.127601 232.828916 
L 366.572822 215.400657 
L 368.018043 223.10931 
L 369.463265 215.159343 
L 370.908486 218.975685 
L 372.353708 217.813801 
L 373.798929 222.103834 
L 375.244151 234.169551 
L 376.689372 228.170208 
L 378.134594 236.532421 
L 379.579815 227.466375 
L 381.025036 218.41193 
L 382.470258 229.892924 
L 383.915479 214.596276 
L 385.360701 232.828916 
L 386.805922 229.965702 
L 388.251144 203.33494 
L 389.696365 222.103834 
L 391.141587 220.207792 
L 392.586808 231.497856 
L 394.032029 226.617306 
L 395.477251 230.147645 
L 396.922472 227.466375 
L 398.367694 225.170537 
L 399.812915 231.501687 
L 401.258137 219.891785 
L 402.703358 228.284162 
L 404.14858 220.550931 
L 405.593801 220.993021 
L 407.039022 225.466594 
L 408.484244 232.404381 
L 409.929465 224.595181 
L 411.374687 227.466375 
L 412.819908 218.148959 
L 414.26513 231.935159 
L 415.710351 233.532749 
L 417.155573 227.466375 
L 418.600794 223.891347 
L 420.046015 211.378751 
L 421.491237 213.963198 
L 422.936458 221.91391 
L 424.38168 212.968362 
L 424.38168 178.035237 
L 424.38168 178.035237 
L 422.936458 181.884775 
L 421.491237 171.144797 
L 420.046015 195.291128 
L 418.600794 205.628916 
L 417.155573 192.609858 
L 415.710351 216.070975 
L 414.26513 185.202848 
L 412.819908 158.859365 
L 411.374687 209.54655 
L 409.929465 154.602848 
L 408.484244 193.928149 
L 407.039022 206.228478 
L 405.593801 166.103583 
L 404.14858 141.833297 
L 402.703358 186.174808 
L 401.258137 166.646221 
L 399.812915 219.932004 
L 398.367694 195.27437 
L 396.922472 219.847097 
L 395.477251 211.378751 
L 394.032029 143.877766 
L 392.586808 210.229635 
L 391.141587 178.619371 
L 389.696365 178.075137 
L 388.251144 166.601533 
L 386.805922 191.259646 
L 385.360701 217.488218 
L 383.915479 206.270931 
L 382.470258 219.958817 
L 381.025036 199.612099 
L 379.579815 224.785104 
L 378.134594 209.367798 
L 376.689372 152.3908 
L 375.244151 218.741073 
L 373.798929 208.29529 
L 372.353708 90.641139 
L 370.908486 194.352683 
L 369.463265 155.07207 
L 368.018043 194.12286 
L 366.572822 199.29069 
L 365.127601 209.997897 
L 363.682379 168.925301 
L 362.237158 203.301424 
L 360.791936 222.103834 
L 359.346715 188.264981 
L 357.901493 139.559005 
z
" style="fill:#1f77b4;fill-opacity:0.2;stroke:#1f77b4;stroke-opacity:0.2;"/>
    <path clip-path="url(#p35f6df46aa)" d="M 427.272123 201.080235 
L 427.272123 218.575525 
L 428.717344 226.139146 
L 430.162566 227.04184 
L 431.607787 204.181216 
L 433.053008 220.331216 
L 434.49823 210.671194 
L 435.943451 208.697481 
L 437.388673 223.891347 
L 438.833894 216.473165 
L 440.279116 203.753888 
L 441.724337 229.318127 
L 443.169559 206.01621 
L 444.61478 223.936035 
L 446.060001 227.493187 
L 447.505223 224.12149 
L 448.950444 226.983746 
L 450.395666 229.892924 
L 451.840887 200.653669 
L 453.286109 231.78322 
L 454.73133 200.962015 
L 456.176552 216.741292 
L 457.621773 232.510515 
L 459.066994 230.993921 
L 460.512216 229.298576 
L 461.957437 229.10195 
L 463.402659 206.720044 
L 464.84788 227.466375 
L 466.293102 224.324261 
L 467.738323 231.957503 
L 469.183545 225.723549 
L 470.628766 219.422563 
L 472.073987 231.48828 
L 473.519209 226.159255 
L 474.96443 214.060022 
L 476.409652 223.042278 
L 477.854873 225.63138 
L 479.300095 232.192114 
L 480.745316 238.191457 
L 482.190538 225.231982 
L 483.635759 232.828916 
L 485.08098 232.828916 
L 486.526202 223.67908 
L 487.971423 223.252949 
L 489.416645 229.298576 
L 490.861866 230.34874 
L 492.307088 235.225301 
L 493.752309 232.828916 
L 495.197531 221.210077 
L 496.642752 229.253888 
L 498.087973 231.48828 
L 499.533195 235.510186 
L 500.978416 236.609507 
L 502.423638 230.147645 
L 503.868859 223.796386 
L 505.314081 236.180504 
L 505.314081 221.751917 
L 505.314081 221.751917 
L 503.868859 193.682366 
L 502.423638 216.741292 
L 500.978416 219.422563 
L 499.533195 190.920657 
L 498.087973 201.642388 
L 496.642752 208.697481 
L 495.197531 183.672289 
L 493.752309 224.785104 
L 492.307088 171.830011 
L 490.861866 204.934126 
L 489.416645 214.060022 
L 487.971423 206.581192 
L 486.526202 198.631544 
L 485.08098 203.33494 
L 483.635759 176.522234 
L 482.190538 202.206572 
L 480.745316 226.572618 
L 479.300095 203.33494 
L 477.854873 205.823494 
L 476.409652 175.818401 
L 474.96443 176.522234 
L 473.519209 197.972399 
L 472.073987 226.125739 
L 470.628766 188.557483 
L 469.183545 163.629792 
L 467.738323 213.676983 
L 466.293102 188.009803 
L 464.84788 167.942169 
L 463.402659 114.853012 
L 461.957437 205.734677 
L 460.512216 184.052136 
L 459.066994 205.664294 
L 457.621773 219.422563 
L 456.176552 216.741292 
L 454.73133 161.198773 
L 453.286109 209.488456 
L 451.840887 197.972399 
L 450.395666 192.837766 
L 448.950444 177.058488 
L 447.505223 215.668784 
L 446.060001 195.545849 
L 444.61478 214.909091 
L 443.169559 166.690909 
L 441.724337 199.313034 
L 440.279116 155.901588 
L 438.833894 181.650164 
L 437.388673 157.306462 
L 435.943451 200.653669 
L 434.49823 155.921139 
L 433.053008 192.892881 
L 431.607787 158.230942 
L 430.162566 174.924644 
L 428.717344 190.551982 
L 427.272123 201.080235 
z
" style="fill:#1f77b4;fill-opacity:0.2;stroke:#1f77b4;stroke-opacity:0.2;"/>
    <path clip-path="url(#p35f6df46aa)" d="M 508.204524 206.686528 
L 508.204524 231.203395 
L 509.649745 231.793647 
L 511.094966 230.683899 
L 512.540188 233.722673 
L 513.985409 230.147645 
L 515.430631 230.147645 
L 516.875852 216.741292 
L 518.321074 233.110449 
L 519.766295 231.296761 
L 521.211517 234.616429 
L 522.656738 225.231982 
L 524.101959 224.785104 
L 524.101959 224.785104 
L 524.101959 224.785104 
L 522.656738 208.909748 
L 521.211517 189.928587 
L 519.766295 218.0532 
L 518.321074 206.01621 
L 516.875852 197.972399 
L 515.430631 227.466375 
L 513.985409 189.928587 
L 512.540188 209.837021 
L 511.094966 215.668784 
L 509.649745 217.620153 
L 508.204524 206.686528 
z
" style="fill:#1f77b4;fill-opacity:0.2;stroke:#1f77b4;stroke-opacity:0.2;"/>
    <path clip-path="url(#p35f6df46aa)" d="M 526.992402 216.741292 
L 526.992402 225.678861 
L 528.437624 222.103834 
L 529.882845 226.477656 
L 531.328067 233.180832 
L 532.773288 238.47299 
L 534.21851 232.828916 
L 535.663731 224.785104 
L 537.108953 227.466375 
L 538.554174 238.191457 
L 538.554174 203.33494 
L 538.554174 203.33494 
L 537.108953 184.566046 
L 535.663731 210.484995 
L 534.21851 211.803286 
L 532.773288 202.798686 
L 531.328067 217.41161 
L 529.882845 205.312377 
L 528.437624 206.01621 
L 526.992402 216.741292 
z
" style="fill:#1f77b4;fill-opacity:0.2;stroke:#1f77b4;stroke-opacity:0.2;"/>
    <path clip-path="url(#p35f6df46aa)" d="M 541.444617 210.484995 
L 541.444617 226.36035 
L 542.889838 222.103834 
L 544.33506 229.723111 
L 545.780281 228.024973 
L 548.670724 232.828916 
L 550.115946 235.510186 
L 550.115946 214.060022 
L 550.115946 214.060022 
L 548.670724 227.466375 
L 545.780281 214.953779 
L 544.33506 220.31632 
L 542.889838 211.378751 
L 541.444617 210.484995 
z
" style="fill:#1f77b4;fill-opacity:0.2;stroke:#1f77b4;stroke-opacity:0.2;"/>
    <path clip-path="url(#p35f6df46aa)" d="M 553.006388 238.191457 
L 553.006388 238.191457 
L 554.45161 238.191457 
L 558.787274 235.510186 
L 558.787274 222.103834 
L 558.787274 222.103834 
L 554.45161 219.422563 
L 553.006388 238.191457 
z
" style="fill:#1f77b4;fill-opacity:0.2;stroke:#1f77b4;stroke-opacity:0.2;"/>
   </g>
   <g id="PolyCollection_2">
    <path clip-path="url(#p35f6df46aa)" d="M 68.857204 176.522234 
L 68.857204 189.928587 
L 68.857204 176.522234 
L 68.857204 176.522234 
z
" style="fill:#ff7f0e;fill-opacity:0.2;stroke:#ff7f0e;stroke-opacity:0.2;"/>
    <path clip-path="url(#p35f6df46aa)" d="M 81.864197 37.163198 
L 81.864197 190.822344 
L 81.864197 37.163198 
L 81.864197 37.163198 
z
" style="fill:#ff7f0e;fill-opacity:0.2;stroke:#ff7f0e;stroke-opacity:0.2;"/>
    <path clip-path="url(#p35f6df46aa)" d="M 87.645083 203.33494 
L 87.645083 227.466375 
L 87.645083 203.33494 
L 87.645083 203.33494 
z
" style="fill:#ff7f0e;fill-opacity:0.2;stroke:#ff7f0e;stroke-opacity:0.2;"/>
    <path clip-path="url(#p35f6df46aa)" d="M 103.542519 181.884775 
L 103.542519 187.247317 
L 103.542519 181.884775 
L 103.542519 181.884775 
z
" style="fill:#ff7f0e;fill-opacity:0.2;stroke:#ff7f0e;stroke-opacity:0.2;"/>
    <path clip-path="url(#p35f6df46aa)" d="M 110.768626 144.346988 
L 110.768626 219.422563 
L 110.768626 144.346988 
L 110.768626 144.346988 
z
" style="fill:#ff7f0e;fill-opacity:0.2;stroke:#ff7f0e;stroke-opacity:0.2;"/>
    <path clip-path="url(#p35f6df46aa)" d="M 117.994733 158.647097 
L 117.994733 238.191457 
L 117.994733 158.647097 
L 117.994733 158.647097 
z
" style="fill:#ff7f0e;fill-opacity:0.2;stroke:#ff7f0e;stroke-opacity:0.2;"/>
    <path clip-path="url(#p35f6df46aa)" d="M 126.666062 208.697481 
L 126.666062 227.466375 
L 126.666062 208.697481 
L 126.666062 208.697481 
z
" style="fill:#ff7f0e;fill-opacity:0.2;stroke:#ff7f0e;stroke-opacity:0.2;"/>
    <path clip-path="url(#p35f6df46aa)" d="M 132.446948 197.972399 
L 132.446948 227.466375 
L 132.446948 197.972399 
L 132.446948 197.972399 
z
" style="fill:#ff7f0e;fill-opacity:0.2;stroke:#ff7f0e;stroke-opacity:0.2;"/>
    <path clip-path="url(#p35f6df46aa)" d="M 135.337391 165.797152 
L 135.337391 189.928587 
L 135.337391 165.797152 
L 135.337391 165.797152 
z
" style="fill:#ff7f0e;fill-opacity:0.2;stroke:#ff7f0e;stroke-opacity:0.2;"/>
    <path clip-path="url(#p35f6df46aa)" d="M 141.118277 214.060022 
L 141.118277 230.147645 
L 141.118277 214.060022 
L 141.118277 214.060022 
z
" style="fill:#ff7f0e;fill-opacity:0.2;stroke:#ff7f0e;stroke-opacity:0.2;"/>
    <path clip-path="url(#p35f6df46aa)" d="M 144.008719 214.060022 
L 144.008719 232.828916 
L 145.453941 220.539759 
L 145.453941 197.972399 
L 145.453941 197.972399 
L 144.008719 214.060022 
z
" style="fill:#ff7f0e;fill-opacity:0.2;stroke:#ff7f0e;stroke-opacity:0.2;"/>
    <path clip-path="url(#p35f6df46aa)" d="M 148.344384 110.79759 
L 148.344384 212.719387 
L 148.344384 110.79759 
L 148.344384 110.79759 
z
" style="fill:#ff7f0e;fill-opacity:0.2;stroke:#ff7f0e;stroke-opacity:0.2;"/>
    <path clip-path="url(#p35f6df46aa)" d="M 152.680048 163.853231 
L 152.680048 227.04184 
L 154.12527 214.47897 
L 154.12527 151.720482 
L 154.12527 151.720482 
L 152.680048 163.853231 
z
" style="fill:#ff7f0e;fill-opacity:0.2;stroke:#ff7f0e;stroke-opacity:0.2;"/>
    <path clip-path="url(#p35f6df46aa)" d="M 157.015712 184.007448 
L 157.015712 206.01621 
L 157.015712 184.007448 
L 157.015712 184.007448 
z
" style="fill:#ff7f0e;fill-opacity:0.2;stroke:#ff7f0e;stroke-opacity:0.2;"/>
    <path clip-path="url(#p35f6df46aa)" d="M 162.796598 163.115882 
L 162.796598 214.060022 
L 162.796598 163.115882 
L 162.796598 163.115882 
z
" style="fill:#ff7f0e;fill-opacity:0.2;stroke:#ff7f0e;stroke-opacity:0.2;"/>
    <path clip-path="url(#p35f6df46aa)" d="M 170.022705 182.313779 
L 170.022705 232.037941 
L 170.022705 182.313779 
L 170.022705 182.313779 
z
" style="fill:#ff7f0e;fill-opacity:0.2;stroke:#ff7f0e;stroke-opacity:0.2;"/>
    <path clip-path="url(#p35f6df46aa)" d="M 174.35837 219.422563 
L 174.35837 224.785104 
L 175.803591 210.038116 
L 177.248813 219.422563 
L 177.248813 211.378751 
L 177.248813 211.378751 
L 175.803591 175.432968 
L 174.35837 219.422563 
z
" style="fill:#ff7f0e;fill-opacity:0.2;stroke:#ff7f0e;stroke-opacity:0.2;"/>
    <path clip-path="url(#p35f6df46aa)" d="M 180.139256 205.664294 
L 180.139256 226.125739 
L 183.029698 230.147645 
L 184.47492 234.521468 
L 185.920141 238.191457 
L 187.365363 185.973713 
L 188.810584 214.060022 
L 190.255806 226.93012 
L 191.701027 236.532421 
L 193.146249 216.741292 
L 194.59147 196.631763 
L 196.036691 208.371898 
L 197.481913 240.872727 
L 198.927134 227.276451 
L 200.372356 202.999781 
L 201.817577 232.577547 
L 203.262799 228.538883 
L 204.70802 210.954217 
L 206.153242 216.741292 
L 207.598463 221.137459 
L 209.043684 225.488938 
L 210.488906 199.759912 
L 211.934127 211.432377 
L 213.379349 221.068565 
L 214.82457 228.170208 
L 216.269792 209.084775 
L 217.715013 200.057831 
L 219.160235 226.6754 
L 220.605456 231.354217 
L 222.050677 205.144797 
L 223.495899 215.477265 
L 224.94112 225.743658 
L 226.386342 206.60992 
L 227.831563 215.327532 
L 229.276785 207.612404 
L 230.722006 213.277985 
L 232.167228 205.980116 
L 233.612449 210.99667 
L 235.05767 189.17448 
L 236.502892 214.315581 
L 237.948113 217.550142 
L 239.393335 217.305476 
L 240.838556 209.473134 
L 242.283778 192.241183 
L 243.728999 215.6092 
L 245.174221 207.997371 
L 246.619442 214.724246 
L 248.064663 219.768034 
L 249.509885 214.97333 
L 250.955106 205.195071 
L 252.400328 192.750624 
L 253.845549 209.753231 
L 255.290771 201.292705 
L 256.735992 229.218776 
L 258.181214 225.019715 
L 259.626435 218.210405 
L 261.071656 213.851871 
L 262.516878 222.016692 
L 263.962099 208.50277 
L 265.407321 217.528034 
L 266.852542 214.919247 
L 268.297764 207.605821 
L 269.742985 203.698028 
L 271.188207 202.357393 
L 272.633428 205.681051 
L 274.078649 222.486872 
L 275.523871 215.802848 
L 276.969092 213.741621 
L 278.414314 228.222005 
L 279.859535 201.994304 
L 281.304757 227.466375 
L 282.749978 200.070099 
L 284.1952 225.771429 
L 285.640421 228.947777 
L 287.085642 206.064961 
L 288.530864 202.612486 
L 289.976085 226.796057 
L 291.421307 212.423658 
L 292.866528 228.011008 
L 294.31175 213.177437 
L 295.756971 232.393209 
L 297.202193 219.778347 
L 298.647414 201.170771 
L 300.092635 210.214074 
L 301.537857 216.486572 
L 302.983078 212.666719 
L 304.4283 228.310975 
L 305.873521 227.835049 
L 307.318743 223.705893 
L 308.763964 226.496648 
L 310.209186 224.961062 
L 311.654407 225.97678 
L 313.099628 225.019715 
L 314.54485 219.104162 
L 315.990071 227.935597 
L 317.435293 219.561783 
L 318.880514 231.274998 
L 320.325736 220.444797 
L 321.770957 227.734502 
L 323.216179 230.549836 
L 324.6614 209.684676 
L 326.106622 218.765652 
L 327.551843 209.155531 
L 328.997064 229.351643 
L 330.442286 217.86966 
L 331.887507 210.457065 
L 333.332729 220.785542 
L 334.77795 215.400657 
L 336.223172 213.005389 
L 337.668393 223.813143 
L 339.113615 211.939381 
L 340.558836 208.094195 
L 342.004057 222.99759 
L 343.449279 215.862432 
L 344.8945 226.738601 
L 346.339722 203.351698 
L 347.784943 213.514192 
L 349.230165 223.645564 
L 350.675386 218.148959 
L 352.120608 221.031325 
L 353.565829 219.335422 
L 355.01105 214.741512 
L 356.456272 208.130758 
L 357.901493 228.029441 
L 359.346715 226.133187 
L 360.791936 210.659683 
L 362.237158 222.159693 
L 363.682379 224.019027 
L 365.127601 229.041621 
L 366.572822 221.172092 
L 368.018043 232.426725 
L 369.463265 220.126396 
L 370.908486 199.374909 
L 372.353708 219.422563 
L 373.798929 208.585761 
L 375.244151 220.092881 
L 376.689372 196.639211 
L 378.134594 209.374502 
L 379.579815 213.230504 
L 381.025036 216.908872 
L 382.470258 225.312979 
L 383.915479 226.6754 
L 385.360701 210.127492 
L 386.805922 229.827382 
L 388.251144 226.318456 
L 389.696365 232.828916 
L 391.141587 215.30011 
L 392.586808 227.064184 
L 394.032029 220.31632 
L 395.477251 223.608324 
L 396.922472 235.510186 
L 398.367694 208.395838 
L 399.812915 221.925082 
L 401.258137 221.577155 
L 402.703358 224.785104 
L 404.14858 202.217744 
L 405.593801 207.867963 
L 407.039022 218.376867 
L 408.484244 205.288437 
L 409.929465 220.763198 
L 411.374687 210.601183 
L 412.819908 210.44701 
L 414.26513 235.510186 
L 415.710351 213.877208 
L 417.155573 210.358379 
L 418.600794 209.568894 
L 420.046015 220.17667 
L 421.491237 226.125739 
L 422.936458 222.304929 
L 424.38168 211.019217 
L 425.826901 206.144688 
L 427.272123 219.805602 
L 428.717344 222.856079 
L 430.162566 216.927492 
L 431.607787 227.511062 
L 433.053008 226.192771 
L 434.49823 233.36517 
L 435.943451 225.065419 
L 437.388673 198.977875 
L 438.833894 216.091084 
L 440.279116 206.232774 
L 441.724337 227.0977 
L 443.169559 207.474151 
L 444.61478 206.57218 
L 446.060001 201.122892 
L 447.505223 222.634931 
L 448.950444 213.289157 
L 450.395666 208.098983 
L 451.840887 224.8 
L 453.286109 207.803724 
L 454.73133 222.103834 
L 456.176552 219.943348 
L 457.621773 212.545104 
L 459.066994 200.680482 
L 460.512216 209.326548 
L 461.957437 208.955295 
L 463.402659 205.720153 
L 464.84788 206.552464 
L 466.293102 211.965279 
L 467.738323 213.389704 
L 469.183545 224.925261 
L 470.628766 212.538917 
L 472.073987 222.719307 
L 473.519209 221.037419 
L 474.96443 223.232202 
L 476.409652 211.464935 
L 477.854873 221.180858 
L 479.300095 209.080519 
L 480.745316 214.752683 
L 482.190538 206.929518 
L 483.635759 215.00517 
L 485.08098 210.184748 
L 486.526202 210.553745 
L 487.971423 228.424929 
L 489.416645 211.415314 
L 490.861866 217.688116 
L 492.307088 212.568565 
L 493.752309 236.582694 
L 495.197531 231.555312 
L 496.642752 216.434862 
L 498.087973 221.768675 
L 499.533195 209.08139 
L 500.978416 221.567579 
L 502.423638 228.63943 
L 503.868859 218.575525 
L 505.314081 219.422563 
L 506.759302 224.785104 
L 508.204524 226.719449 
L 509.649745 222.653494 
L 511.094966 211.095728 
L 512.540188 229.708215 
L 513.985409 224.785104 
L 515.430631 215.440876 
L 516.875852 231.48828 
L 518.321074 219.441715 
L 519.766295 202.720482 
L 521.211517 223.829901 
L 522.656738 226.405038 
L 524.101959 216.741292 
L 525.547181 228.80701 
L 526.992402 217.892004 
L 528.437624 215.936911 
L 529.882845 222.103834 
L 531.328067 223.176342 
L 532.773288 225.38839 
L 534.21851 212.317196 
L 535.663731 220.779956 
L 537.108953 223.891347 
L 538.554174 237.118949 
L 539.999395 230.683899 
L 541.444617 213.650383 
L 542.889838 224.641465 
L 544.33506 211.392158 
L 545.780281 222.260241 
L 547.225503 229.620967 
L 548.670724 225.857612 
L 550.115946 226.729025 
L 551.561167 228.156802 
L 553.006388 232.263934 
L 554.45161 235.510186 
L 555.896831 225.71098 
L 557.342053 226.125739 
L 558.787274 231.056298 
L 560.232496 227.801533 
L 561.677717 231.339321 
L 563.122939 236.021303 
L 564.56816 232.713134 
L 566.013381 239.554436 
L 567.458603 237.655203 
L 568.903824 240.336473 
L 570.349046 235.063308 
L 573.239489 240.872727 
L 573.239489 238.191457 
L 573.239489 238.191457 
L 570.349046 233.275794 
L 568.903824 235.510186 
L 567.458603 231.220153 
L 566.013381 231.041402 
L 564.56816 226.491367 
L 563.122939 228.295893 
L 561.677717 222.386857 
L 560.232496 220.428039 
L 558.787274 221.947426 
L 557.342053 216.406134 
L 555.896831 218.831846 
L 554.45161 224.785104 
L 553.006388 216.157159 
L 551.561167 213.791895 
L 550.115946 210.626506 
L 548.670724 207.330033 
L 547.225503 204.101017 
L 545.780281 208.697481 
L 544.33506 200.512903 
L 542.889838 198.154342 
L 541.444617 197.190361 
L 539.999395 212.310493 
L 538.554174 210.815685 
L 537.108953 188.811391 
L 535.663731 188.395235 
L 534.21851 186.35356 
L 532.773288 195.836958 
L 531.328067 192.261292 
L 529.882845 165.797152 
L 528.437624 198.508653 
L 526.992402 195.268784 
L 525.547181 181.499343 
L 524.101959 184.394743 
L 522.656738 198.866156 
L 521.211517 190.8 
L 519.766295 178.075137 
L 518.321074 185.897105 
L 516.875852 187.917634 
L 515.430631 191.128456 
L 513.985409 215.847536 
L 512.540188 202.902957 
L 511.094966 179.642935 
L 509.649745 201.290471 
L 508.204524 183.014739 
L 506.759302 191.483724 
L 505.314081 216.741292 
L 503.868859 184.285731 
L 502.423638 210.038116 
L 500.978416 198.951062 
L 499.533195 184.182137 
L 498.087973 201.131271 
L 496.642752 161.26772 
L 495.197531 183.493538 
L 493.752309 187.220504 
L 492.307088 188.085214 
L 490.861866 175.6592 
L 489.416645 162.34197 
L 487.971423 208.007054 
L 486.526202 184.10198 
L 485.08098 174.758461 
L 483.635759 171.206616 
L 482.190538 168.302464 
L 480.745316 178.415882 
L 479.300095 143.025505 
L 477.854873 187.371067 
L 476.409652 180.242497 
L 474.96443 188.800219 
L 473.519209 185.8884 
L 472.073987 192.561107 
L 470.628766 175.135193 
L 469.183545 184.066355 
L 467.738323 149.709529 
L 466.293102 152.13943 
L 464.84788 156.399299 
L 463.402659 155.15586 
L 461.957437 164.32761 
L 460.512216 156.918022 
L 459.066994 160.293844 
L 457.621773 169.215772 
L 456.176552 201.968523 
L 454.73133 212.333954 
L 453.286109 180.022782 
L 451.840887 191.969332 
L 450.395666 176.694602 
L 448.950444 191.738445 
L 447.505223 181.235083 
L 446.060001 166.903176 
L 444.61478 172.555531 
L 443.169559 175.77483 
L 441.724337 177.742212 
L 440.279116 173.840964 
L 438.833894 200.244775 
L 437.388673 129.975378 
L 435.943451 203.438534 
L 434.49823 204.943702 
L 433.053008 182.839978 
L 431.607787 155.027382 
L 430.162566 178.89069 
L 428.717344 185.146988 
L 427.272123 192.753497 
L 425.826901 184.107996 
L 424.38168 166.954974 
L 422.936458 206.279549 
L 421.491237 167.137788 
L 420.046015 182.714294 
L 418.600794 178.588031 
L 417.155573 176.961665 
L 415.710351 163.688699 
L 414.26513 186.8954 
L 412.819908 170.301687 
L 411.374687 175.168193 
L 409.929465 174.60345 
L 408.484244 168.631638 
L 407.039022 190.116276 
L 405.593801 169.307941 
L 404.14858 139.476013 
L 402.703358 188.730394 
L 401.258137 175.315663 
L 399.812915 192.131698 
L 398.367694 155.566429 
L 396.922472 183.225411 
L 395.477251 150.119168 
L 394.032029 196.378532 
L 392.586808 172.031106 
L 391.141587 169.356539 
L 389.696365 209.971084 
L 388.251144 182.16966 
L 386.805922 182.718949 
L 385.360701 109.970865 
L 383.915479 199.581161 
L 382.470258 185.236364 
L 381.025036 166.048521 
L 379.579815 171.461336 
L 378.134594 177.058488 
L 376.689372 121.086966 
L 375.244151 200.653669 
L 373.798929 155.407229 
L 372.353708 199.246002 
L 370.908486 157.536776 
L 369.463265 177.12552 
L 368.018043 145.95575 
L 366.572822 178.104184 
L 365.127601 193.503614 
L 363.682379 183.723361 
L 362.237158 183.756079 
L 360.791936 175.98598 
L 359.346715 180.648412 
L 357.901493 168.478423 
L 356.456272 167.619197 
L 355.01105 187.755641 
L 353.565829 164.570471 
L 352.120608 180.276013 
L 350.675386 182.9908 
L 349.230165 179.840307 
L 347.784943 134.177312 
L 346.339722 166.46747 
L 344.8945 184.853325 
L 343.449279 190.919168 
L 342.004057 200.524074 
L 340.558836 185.656836 
L 339.113615 178.472249 
L 337.668393 198.801917 
L 336.223172 172.299233 
L 334.77795 206.686528 
L 333.332729 182.946112 
L 331.887507 160.993209 
L 330.442286 162.42322 
L 328.997064 146.60931 
L 327.551843 150.089376 
L 326.106622 147.282979 
L 324.6614 180.221169 
L 323.216179 151.564074 
L 321.770957 188.685453 
L 320.325736 192.769058 
L 318.880514 196.36973 
L 317.435293 185.695273 
L 315.990071 200.162103 
L 314.54485 184.566046 
L 313.099628 205.228587 
L 311.654407 191.343702 
L 310.209186 120.96966 
L 308.763964 195.094502 
L 307.318743 178.794611 
L 305.873521 208.471249 
L 304.4283 172.051216 
L 302.983078 134.095916 
L 301.537857 187.408193 
L 300.092635 129.088883 
L 298.647414 144.91197 
L 297.202193 146.229034 
L 295.756971 212.942826 
L 294.31175 184.426396 
L 292.866528 185.630175 
L 291.421307 183.197809 
L 289.976085 168.917176 
L 288.530864 157.380942 
L 287.085642 180.538046 
L 285.640421 208.965608 
L 284.1952 185.897105 
L 282.749978 130.313691 
L 281.304757 174.812924 
L 279.859535 165.629573 
L 278.414314 199.550692 
L 276.969092 165.283242 
L 275.523871 170.004381 
L 274.078649 185.035268 
L 272.633428 155.309728 
L 271.188207 154.077766 
L 269.742985 159.216867 
L 268.297764 172.835487 
L 266.852542 182.031027 
L 265.407321 179.616279 
L 263.962099 178.379972 
L 262.516878 152.987382 
L 261.071656 146.414389 
L 259.626435 154.887733 
L 258.181214 203.558379 
L 256.735992 188.961414 
L 255.290771 130.88701 
L 253.845549 164.950876 
L 252.400328 100.608762 
L 250.955106 154.774617 
L 249.509885 174.972125 
L 248.064663 189.809992 
L 246.619442 174.432062 
L 245.174221 176.890909 
L 243.728999 180.194085 
L 242.283778 87.591194 
L 240.838556 165.145987 
L 239.393335 200.525192 
L 237.948113 173.027645 
L 236.502892 185.856407 
L 235.05767 129.555312 
L 233.612449 172.446703 
L 232.167228 125.825596 
L 230.722006 194.379496 
L 229.276785 184.029792 
L 227.831563 163.231664 
L 226.386342 156.910656 
L 224.94112 176.991457 
L 223.495899 175.880645 
L 222.050677 169.517415 
L 220.605456 195.271976 
L 219.160235 185.893275 
L 217.715013 136.280832 
L 216.269792 173.088719 
L 214.82457 203.781818 
L 213.379349 197.972399 
L 211.934127 198.227119 
L 210.488906 173.840964 
L 209.043684 187.389759 
L 207.598463 185.593866 
L 206.153242 187.322727 
L 204.70802 176.287623 
L 203.262799 198.200307 
L 201.817577 161.104929 
L 200.372356 154.301205 
L 198.927134 201.547426 
L 197.481913 163.294633 
L 196.036691 163.297825 
L 194.59147 143.006353 
L 193.146249 195.291128 
L 191.701027 185.856407 
L 190.255806 200.881577 
L 188.810584 203.33494 
L 187.365363 158.892881 
L 185.920141 151.988609 
L 184.47492 204.675575 
L 183.029698 145.044118 
L 180.139256 205.664294 
z
" style="fill:#ff7f0e;fill-opacity:0.2;stroke:#ff7f0e;stroke-opacity:0.2;"/>
   </g>
   <g id="matplotlib.axis_1">
    <g id="xtick_1">
     <g id="line2d_1">
      <defs>
       <path d="M 0 0 
L 0 3.5 
" id="md490283791" style="stroke:#000000;stroke-width:0.8;"/>
      </defs>
      <g>
       <use style="stroke:#000000;stroke-width:0.8;" x="41.397997" xlink:href="#md490283791" y="252"/>
      </g>
     </g>
     <g id="text_1">
      <!-- Mar 2020 -->
      <g transform="translate(44.157372 306.495312)rotate(-90)scale(0.1 -0.1)">
       <defs>
        <path d="M 9.8125 72.90625 
L 24.515625 72.90625 
L 43.109375 23.296875 
L 61.8125 72.90625 
L 76.515625 72.90625 
L 76.515625 0 
L 66.890625 0 
L 66.890625 64.015625 
L 48.09375 14.015625 
L 38.1875 14.015625 
L 19.390625 64.015625 
L 19.390625 0 
L 9.8125 0 
z
" id="DejaVuSans-77"/>
        <path d="M 34.28125 27.484375 
Q 23.390625 27.484375 19.1875 25 
Q 14.984375 22.515625 14.984375 16.5 
Q 14.984375 11.71875 18.140625 8.90625 
Q 21.296875 6.109375 26.703125 6.109375 
Q 34.1875 6.109375 38.703125 11.40625 
Q 43.21875 16.703125 43.21875 25.484375 
L 43.21875 27.484375 
z
M 52.203125 31.203125 
L 52.203125 0 
L 43.21875 0 
L 43.21875 8.296875 
Q 40.140625 3.328125 35.546875 0.953125 
Q 30.953125 -1.421875 24.3125 -1.421875 
Q 15.921875 -1.421875 10.953125 3.296875 
Q 6 8.015625 6 15.921875 
Q 6 25.140625 12.171875 29.828125 
Q 18.359375 34.515625 30.609375 34.515625 
L 43.21875 34.515625 
L 43.21875 35.40625 
Q 43.21875 41.609375 39.140625 45 
Q 35.0625 48.390625 27.6875 48.390625 
Q 23 48.390625 18.546875 47.265625 
Q 14.109375 46.140625 10.015625 43.890625 
L 10.015625 52.203125 
Q 14.9375 54.109375 19.578125 55.046875 
Q 24.21875 56 28.609375 56 
Q 40.484375 56 46.34375 49.84375 
Q 52.203125 43.703125 52.203125 31.203125 
z
" id="DejaVuSans-97"/>
        <path d="M 41.109375 46.296875 
Q 39.59375 47.171875 37.8125 47.578125 
Q 36.03125 48 33.890625 48 
Q 26.265625 48 22.1875 43.046875 
Q 18.109375 38.09375 18.109375 28.8125 
L 18.109375 0 
L 9.078125 0 
L 9.078125 54.6875 
L 18.109375 54.6875 
L 18.109375 46.1875 
Q 20.953125 51.171875 25.484375 53.578125 
Q 30.03125 56 36.53125 56 
Q 37.453125 56 38.578125 55.875 
Q 39.703125 55.765625 41.0625 55.515625 
z
" id="DejaVuSans-114"/>
        <path id="DejaVuSans-32"/>
        <path d="M 19.1875 8.296875 
L 53.609375 8.296875 
L 53.609375 0 
L 7.328125 0 
L 7.328125 8.296875 
Q 12.9375 14.109375 22.625 23.890625 
Q 32.328125 33.6875 34.8125 36.53125 
Q 39.546875 41.84375 41.421875 45.53125 
Q 43.3125 49.21875 43.3125 52.78125 
Q 43.3125 58.59375 39.234375 62.25 
Q 35.15625 65.921875 28.609375 65.921875 
Q 23.96875 65.921875 18.8125 64.3125 
Q 13.671875 62.703125 7.8125 59.421875 
L 7.8125 69.390625 
Q 13.765625 71.78125 18.9375 73 
Q 24.125 74.21875 28.421875 74.21875 
Q 39.75 74.21875 46.484375 68.546875 
Q 53.21875 62.890625 53.21875 53.421875 
Q 53.21875 48.921875 51.53125 44.890625 
Q 49.859375 40.875 45.40625 35.40625 
Q 44.1875 33.984375 37.640625 27.21875 
Q 31.109375 20.453125 19.1875 8.296875 
z
" id="DejaVuSans-50"/>
        <path d="M 31.78125 66.40625 
Q 24.171875 66.40625 20.328125 58.90625 
Q 16.5 51.421875 16.5 36.375 
Q 16.5 21.390625 20.328125 13.890625 
Q 24.171875 6.390625 31.78125 6.390625 
Q 39.453125 6.390625 43.28125 13.890625 
Q 47.125 21.390625 47.125 36.375 
Q 47.125 51.421875 43.28125 58.90625 
Q 39.453125 66.40625 31.78125 66.40625 
z
M 31.78125 74.21875 
Q 44.046875 74.21875 50.515625 64.515625 
Q 56.984375 54.828125 56.984375 36.375 
Q 56.984375 17.96875 50.515625 8.265625 
Q 44.046875 -1.421875 31.78125 -1.421875 
Q 19.53125 -1.421875 13.0625 8.265625 
Q 6.59375 17.96875 6.59375 36.375 
Q 6.59375 54.828125 13.0625 64.515625 
Q 19.53125 74.21875 31.78125 74.21875 
z
" id="DejaVuSans-48"/>
       </defs>
       <use xlink:href="#DejaVuSans-77"/>
       <use x="86.279297" xlink:href="#DejaVuSans-97"/>
       <use x="147.558594" xlink:href="#DejaVuSans-114"/>
       <use x="188.671875" xlink:href="#DejaVuSans-32"/>
       <use x="220.458984" xlink:href="#DejaVuSans-50"/>
       <use x="284.082031" xlink:href="#DejaVuSans-48"/>
       <use x="347.705078" xlink:href="#DejaVuSans-50"/>
       <use x="411.328125" xlink:href="#DejaVuSans-48"/>
      </g>
     </g>
    </g>
    <g id="xtick_2">
     <g id="line2d_2">
      <g>
       <use style="stroke:#000000;stroke-width:0.8;" x="86.199862" xlink:href="#md490283791" y="252"/>
      </g>
     </g>
     <g id="text_2">
      <!-- Apr 2020 -->
      <g transform="translate(88.959237 304.928125)rotate(-90)scale(0.1 -0.1)">
       <defs>
        <path d="M 34.1875 63.1875 
L 20.796875 26.90625 
L 47.609375 26.90625 
z
M 28.609375 72.90625 
L 39.796875 72.90625 
L 67.578125 0 
L 57.328125 0 
L 50.6875 18.703125 
L 17.828125 18.703125 
L 11.1875 0 
L 0.78125 0 
z
" id="DejaVuSans-65"/>
        <path d="M 18.109375 8.203125 
L 18.109375 -20.796875 
L 9.078125 -20.796875 
L 9.078125 54.6875 
L 18.109375 54.6875 
L 18.109375 46.390625 
Q 20.953125 51.265625 25.265625 53.625 
Q 29.59375 56 35.59375 56 
Q 45.5625 56 51.78125 48.09375 
Q 58.015625 40.1875 58.015625 27.296875 
Q 58.015625 14.40625 51.78125 6.484375 
Q 45.5625 -1.421875 35.59375 -1.421875 
Q 29.59375 -1.421875 25.265625 0.953125 
Q 20.953125 3.328125 18.109375 8.203125 
z
M 48.6875 27.296875 
Q 48.6875 37.203125 44.609375 42.84375 
Q 40.53125 48.484375 33.40625 48.484375 
Q 26.265625 48.484375 22.1875 42.84375 
Q 18.109375 37.203125 18.109375 27.296875 
Q 18.109375 17.390625 22.1875 11.75 
Q 26.265625 6.109375 33.40625 6.109375 
Q 40.53125 6.109375 44.609375 11.75 
Q 48.6875 17.390625 48.6875 27.296875 
z
" id="DejaVuSans-112"/>
       </defs>
       <use xlink:href="#DejaVuSans-65"/>
       <use x="68.408203" xlink:href="#DejaVuSans-112"/>
       <use x="131.884766" xlink:href="#DejaVuSans-114"/>
       <use x="172.998047" xlink:href="#DejaVuSans-32"/>
       <use x="204.785156" xlink:href="#DejaVuSans-50"/>
       <use x="268.408203" xlink:href="#DejaVuSans-48"/>
       <use x="332.03125" xlink:href="#DejaVuSans-50"/>
       <use x="395.654297" xlink:href="#DejaVuSans-48"/>
      </g>
     </g>
    </g>
    <g id="xtick_3">
     <g id="line2d_3">
      <g>
       <use style="stroke:#000000;stroke-width:0.8;" x="129.556505" xlink:href="#md490283791" y="252"/>
      </g>
     </g>
     <g id="text_3">
      <!-- May 2020 -->
      <g transform="translate(132.31588 308.303125)rotate(-90)scale(0.1 -0.1)">
       <defs>
        <path d="M 32.171875 -5.078125 
Q 28.375 -14.84375 24.75 -17.8125 
Q 21.140625 -20.796875 15.09375 -20.796875 
L 7.90625 -20.796875 
L 7.90625 -13.28125 
L 13.1875 -13.28125 
Q 16.890625 -13.28125 18.9375 -11.515625 
Q 21 -9.765625 23.484375 -3.21875 
L 25.09375 0.875 
L 2.984375 54.6875 
L 12.5 54.6875 
L 29.59375 11.921875 
L 46.6875 54.6875 
L 56.203125 54.6875 
z
" id="DejaVuSans-121"/>
       </defs>
       <use xlink:href="#DejaVuSans-77"/>
       <use x="86.279297" xlink:href="#DejaVuSans-97"/>
       <use x="147.558594" xlink:href="#DejaVuSans-121"/>
       <use x="206.738281" xlink:href="#DejaVuSans-32"/>
       <use x="238.525391" xlink:href="#DejaVuSans-50"/>
       <use x="302.148438" xlink:href="#DejaVuSans-48"/>
       <use x="365.771484" xlink:href="#DejaVuSans-50"/>
       <use x="429.394531" xlink:href="#DejaVuSans-48"/>
      </g>
     </g>
    </g>
    <g id="xtick_4">
     <g id="line2d_4">
      <g>
       <use style="stroke:#000000;stroke-width:0.8;" x="174.35837" xlink:href="#md490283791" y="252"/>
      </g>
     </g>
     <g id="text_4">
      <!-- Jun 2020 -->
      <g transform="translate(177.117745 303.253125)rotate(-90)scale(0.1 -0.1)">
       <defs>
        <path d="M 9.8125 72.90625 
L 19.671875 72.90625 
L 19.671875 5.078125 
Q 19.671875 -8.109375 14.671875 -14.0625 
Q 9.671875 -20.015625 -1.421875 -20.015625 
L -5.171875 -20.015625 
L -5.171875 -11.71875 
L -2.09375 -11.71875 
Q 4.4375 -11.71875 7.125 -8.046875 
Q 9.8125 -4.390625 9.8125 5.078125 
z
" id="DejaVuSans-74"/>
        <path d="M 8.5 21.578125 
L 8.5 54.6875 
L 17.484375 54.6875 
L 17.484375 21.921875 
Q 17.484375 14.15625 20.5 10.265625 
Q 23.53125 6.390625 29.59375 6.390625 
Q 36.859375 6.390625 41.078125 11.03125 
Q 45.3125 15.671875 45.3125 23.6875 
L 45.3125 54.6875 
L 54.296875 54.6875 
L 54.296875 0 
L 45.3125 0 
L 45.3125 8.40625 
Q 42.046875 3.421875 37.71875 1 
Q 33.40625 -1.421875 27.6875 -1.421875 
Q 18.265625 -1.421875 13.375 4.4375 
Q 8.5 10.296875 8.5 21.578125 
z
M 31.109375 56 
z
" id="DejaVuSans-117"/>
        <path d="M 54.890625 33.015625 
L 54.890625 0 
L 45.90625 0 
L 45.90625 32.71875 
Q 45.90625 40.484375 42.875 44.328125 
Q 39.84375 48.1875 33.796875 48.1875 
Q 26.515625 48.1875 22.3125 43.546875 
Q 18.109375 38.921875 18.109375 30.90625 
L 18.109375 0 
L 9.078125 0 
L 9.078125 54.6875 
L 18.109375 54.6875 
L 18.109375 46.1875 
Q 21.34375 51.125 25.703125 53.5625 
Q 30.078125 56 35.796875 56 
Q 45.21875 56 50.046875 50.171875 
Q 54.890625 44.34375 54.890625 33.015625 
z
" id="DejaVuSans-110"/>
       </defs>
       <use xlink:href="#DejaVuSans-74"/>
       <use x="29.492188" xlink:href="#DejaVuSans-117"/>
       <use x="92.871094" xlink:href="#DejaVuSans-110"/>
       <use x="156.25" xlink:href="#DejaVuSans-32"/>
       <use x="188.037109" xlink:href="#DejaVuSans-50"/>
       <use x="251.660156" xlink:href="#DejaVuSans-48"/>
       <use x="315.283203" xlink:href="#DejaVuSans-50"/>
       <use x="378.90625" xlink:href="#DejaVuSans-48"/>
      </g>
     </g>
    </g>
    <g id="xtick_5">
     <g id="line2d_5">
      <g>
       <use style="stroke:#000000;stroke-width:0.8;" x="217.715013" xlink:href="#md490283791" y="252"/>
      </g>
     </g>
     <g id="text_5">
      <!-- Jul 2020 -->
      <g transform="translate(220.474388 299.69375)rotate(-90)scale(0.1 -0.1)">
       <defs>
        <path d="M 9.421875 75.984375 
L 18.40625 75.984375 
L 18.40625 0 
L 9.421875 0 
z
" id="DejaVuSans-108"/>
       </defs>
       <use xlink:href="#DejaVuSans-74"/>
       <use x="29.492188" xlink:href="#DejaVuSans-117"/>
       <use x="92.871094" xlink:href="#DejaVuSans-108"/>
       <use x="120.654297" xlink:href="#DejaVuSans-32"/>
       <use x="152.441406" xlink:href="#DejaVuSans-50"/>
       <use x="216.064453" xlink:href="#DejaVuSans-48"/>
       <use x="279.6875" xlink:href="#DejaVuSans-50"/>
       <use x="343.310547" xlink:href="#DejaVuSans-48"/>
      </g>
     </g>
    </g>
    <g id="xtick_6">
     <g id="line2d_6">
      <g>
       <use style="stroke:#000000;stroke-width:0.8;" x="262.516878" xlink:href="#md490283791" y="252"/>
      </g>
     </g>
     <g id="text_6">
      <!-- Aug 2020 -->
      <g transform="translate(265.276253 307.154687)rotate(-90)scale(0.1 -0.1)">
       <defs>
        <path d="M 45.40625 27.984375 
Q 45.40625 37.75 41.375 43.109375 
Q 37.359375 48.484375 30.078125 48.484375 
Q 22.859375 48.484375 18.828125 43.109375 
Q 14.796875 37.75 14.796875 27.984375 
Q 14.796875 18.265625 18.828125 12.890625 
Q 22.859375 7.515625 30.078125 7.515625 
Q 37.359375 7.515625 41.375 12.890625 
Q 45.40625 18.265625 45.40625 27.984375 
z
M 54.390625 6.78125 
Q 54.390625 -7.171875 48.1875 -13.984375 
Q 42 -20.796875 29.203125 -20.796875 
Q 24.46875 -20.796875 20.265625 -20.09375 
Q 16.0625 -19.390625 12.109375 -17.921875 
L 12.109375 -9.1875 
Q 16.0625 -11.328125 19.921875 -12.34375 
Q 23.78125 -13.375 27.78125 -13.375 
Q 36.625 -13.375 41.015625 -8.765625 
Q 45.40625 -4.15625 45.40625 5.171875 
L 45.40625 9.625 
Q 42.625 4.78125 38.28125 2.390625 
Q 33.9375 0 27.875 0 
Q 17.828125 0 11.671875 7.65625 
Q 5.515625 15.328125 5.515625 27.984375 
Q 5.515625 40.671875 11.671875 48.328125 
Q 17.828125 56 27.875 56 
Q 33.9375 56 38.28125 53.609375 
Q 42.625 51.21875 45.40625 46.390625 
L 45.40625 54.6875 
L 54.390625 54.6875 
z
" id="DejaVuSans-103"/>
       </defs>
       <use xlink:href="#DejaVuSans-65"/>
       <use x="68.408203" xlink:href="#DejaVuSans-117"/>
       <use x="131.787109" xlink:href="#DejaVuSans-103"/>
       <use x="195.263672" xlink:href="#DejaVuSans-32"/>
       <use x="227.050781" xlink:href="#DejaVuSans-50"/>
       <use x="290.673828" xlink:href="#DejaVuSans-48"/>
       <use x="354.296875" xlink:href="#DejaVuSans-50"/>
       <use x="417.919922" xlink:href="#DejaVuSans-48"/>
      </g>
     </g>
    </g>
    <g id="xtick_7">
     <g id="line2d_7">
      <g>
       <use style="stroke:#000000;stroke-width:0.8;" x="307.318743" xlink:href="#md490283791" y="252"/>
      </g>
     </g>
     <g id="text_7">
      <!-- Sep 2020 -->
      <g transform="translate(310.078118 306.478125)rotate(-90)scale(0.1 -0.1)">
       <defs>
        <path d="M 53.515625 70.515625 
L 53.515625 60.890625 
Q 47.90625 63.578125 42.921875 64.890625 
Q 37.9375 66.21875 33.296875 66.21875 
Q 25.25 66.21875 20.875 63.09375 
Q 16.5 59.96875 16.5 54.203125 
Q 16.5 49.359375 19.40625 46.890625 
Q 22.3125 44.4375 30.421875 42.921875 
L 36.375 41.703125 
Q 47.40625 39.59375 52.65625 34.296875 
Q 57.90625 29 57.90625 20.125 
Q 57.90625 9.515625 50.796875 4.046875 
Q 43.703125 -1.421875 29.984375 -1.421875 
Q 24.8125 -1.421875 18.96875 -0.25 
Q 13.140625 0.921875 6.890625 3.21875 
L 6.890625 13.375 
Q 12.890625 10.015625 18.65625 8.296875 
Q 24.421875 6.59375 29.984375 6.59375 
Q 38.421875 6.59375 43.015625 9.90625 
Q 47.609375 13.234375 47.609375 19.390625 
Q 47.609375 24.75 44.3125 27.78125 
Q 41.015625 30.8125 33.5 32.328125 
L 27.484375 33.5 
Q 16.453125 35.6875 11.515625 40.375 
Q 6.59375 45.0625 6.59375 53.421875 
Q 6.59375 63.09375 13.40625 68.65625 
Q 20.21875 74.21875 32.171875 74.21875 
Q 37.3125 74.21875 42.625 73.28125 
Q 47.953125 72.359375 53.515625 70.515625 
z
" id="DejaVuSans-83"/>
        <path d="M 56.203125 29.59375 
L 56.203125 25.203125 
L 14.890625 25.203125 
Q 15.484375 15.921875 20.484375 11.0625 
Q 25.484375 6.203125 34.421875 6.203125 
Q 39.59375 6.203125 44.453125 7.46875 
Q 49.3125 8.734375 54.109375 11.28125 
L 54.109375 2.78125 
Q 49.265625 0.734375 44.1875 -0.34375 
Q 39.109375 -1.421875 33.890625 -1.421875 
Q 20.796875 -1.421875 13.15625 6.1875 
Q 5.515625 13.8125 5.515625 26.8125 
Q 5.515625 40.234375 12.765625 48.109375 
Q 20.015625 56 32.328125 56 
Q 43.359375 56 49.78125 48.890625 
Q 56.203125 41.796875 56.203125 29.59375 
z
M 47.21875 32.234375 
Q 47.125 39.59375 43.09375 43.984375 
Q 39.0625 48.390625 32.421875 48.390625 
Q 24.90625 48.390625 20.390625 44.140625 
Q 15.875 39.890625 15.1875 32.171875 
z
" id="DejaVuSans-101"/>
       </defs>
       <use xlink:href="#DejaVuSans-83"/>
       <use x="63.476562" xlink:href="#DejaVuSans-101"/>
       <use x="125" xlink:href="#DejaVuSans-112"/>
       <use x="188.476562" xlink:href="#DejaVuSans-32"/>
       <use x="220.263672" xlink:href="#DejaVuSans-50"/>
       <use x="283.886719" xlink:href="#DejaVuSans-48"/>
       <use x="347.509766" xlink:href="#DejaVuSans-50"/>
       <use x="411.132812" xlink:href="#DejaVuSans-48"/>
      </g>
     </g>
    </g>
    <g id="xtick_8">
     <g id="line2d_8">
      <g>
       <use style="stroke:#000000;stroke-width:0.8;" x="350.675386" xlink:href="#md490283791" y="252"/>
      </g>
     </g>
     <g id="text_8">
      <!-- Oct 2020 -->
      <g transform="translate(353.434761 304.91875)rotate(-90)scale(0.1 -0.1)">
       <defs>
        <path d="M 39.40625 66.21875 
Q 28.65625 66.21875 22.328125 58.203125 
Q 16.015625 50.203125 16.015625 36.375 
Q 16.015625 22.609375 22.328125 14.59375 
Q 28.65625 6.59375 39.40625 6.59375 
Q 50.140625 6.59375 56.421875 14.59375 
Q 62.703125 22.609375 62.703125 36.375 
Q 62.703125 50.203125 56.421875 58.203125 
Q 50.140625 66.21875 39.40625 66.21875 
z
M 39.40625 74.21875 
Q 54.734375 74.21875 63.90625 63.9375 
Q 73.09375 53.65625 73.09375 36.375 
Q 73.09375 19.140625 63.90625 8.859375 
Q 54.734375 -1.421875 39.40625 -1.421875 
Q 24.03125 -1.421875 14.8125 8.828125 
Q 5.609375 19.09375 5.609375 36.375 
Q 5.609375 53.65625 14.8125 63.9375 
Q 24.03125 74.21875 39.40625 74.21875 
z
" id="DejaVuSans-79"/>
        <path d="M 48.78125 52.59375 
L 48.78125 44.1875 
Q 44.96875 46.296875 41.140625 47.34375 
Q 37.3125 48.390625 33.40625 48.390625 
Q 24.65625 48.390625 19.8125 42.84375 
Q 14.984375 37.3125 14.984375 27.296875 
Q 14.984375 17.28125 19.8125 11.734375 
Q 24.65625 6.203125 33.40625 6.203125 
Q 37.3125 6.203125 41.140625 7.25 
Q 44.96875 8.296875 48.78125 10.40625 
L 48.78125 2.09375 
Q 45.015625 0.34375 40.984375 -0.53125 
Q 36.96875 -1.421875 32.421875 -1.421875 
Q 20.0625 -1.421875 12.78125 6.34375 
Q 5.515625 14.109375 5.515625 27.296875 
Q 5.515625 40.671875 12.859375 48.328125 
Q 20.21875 56 33.015625 56 
Q 37.15625 56 41.109375 55.140625 
Q 45.0625 54.296875 48.78125 52.59375 
z
" id="DejaVuSans-99"/>
        <path d="M 18.3125 70.21875 
L 18.3125 54.6875 
L 36.8125 54.6875 
L 36.8125 47.703125 
L 18.3125 47.703125 
L 18.3125 18.015625 
Q 18.3125 11.328125 20.140625 9.421875 
Q 21.96875 7.515625 27.59375 7.515625 
L 36.8125 7.515625 
L 36.8125 0 
L 27.59375 0 
Q 17.1875 0 13.234375 3.875 
Q 9.28125 7.765625 9.28125 18.015625 
L 9.28125 47.703125 
L 2.6875 47.703125 
L 2.6875 54.6875 
L 9.28125 54.6875 
L 9.28125 70.21875 
z
" id="DejaVuSans-116"/>
       </defs>
       <use xlink:href="#DejaVuSans-79"/>
       <use x="78.710938" xlink:href="#DejaVuSans-99"/>
       <use x="133.691406" xlink:href="#DejaVuSans-116"/>
       <use x="172.900391" xlink:href="#DejaVuSans-32"/>
       <use x="204.6875" xlink:href="#DejaVuSans-50"/>
       <use x="268.310547" xlink:href="#DejaVuSans-48"/>
       <use x="331.933594" xlink:href="#DejaVuSans-50"/>
       <use x="395.556641" xlink:href="#DejaVuSans-48"/>
      </g>
     </g>
    </g>
    <g id="xtick_9">
     <g id="line2d_9">
      <g>
       <use style="stroke:#000000;stroke-width:0.8;" x="395.477251" xlink:href="#md490283791" y="252"/>
      </g>
     </g>
     <g id="text_9">
      <!-- Nov 2020 -->
      <g transform="translate(398.236626 307.146875)rotate(-90)scale(0.1 -0.1)">
       <defs>
        <path d="M 9.8125 72.90625 
L 23.09375 72.90625 
L 55.421875 11.921875 
L 55.421875 72.90625 
L 64.984375 72.90625 
L 64.984375 0 
L 51.703125 0 
L 19.390625 60.984375 
L 19.390625 0 
L 9.8125 0 
z
" id="DejaVuSans-78"/>
        <path d="M 30.609375 48.390625 
Q 23.390625 48.390625 19.1875 42.75 
Q 14.984375 37.109375 14.984375 27.296875 
Q 14.984375 17.484375 19.15625 11.84375 
Q 23.34375 6.203125 30.609375 6.203125 
Q 37.796875 6.203125 41.984375 11.859375 
Q 46.1875 17.53125 46.1875 27.296875 
Q 46.1875 37.015625 41.984375 42.703125 
Q 37.796875 48.390625 30.609375 48.390625 
z
M 30.609375 56 
Q 42.328125 56 49.015625 48.375 
Q 55.71875 40.765625 55.71875 27.296875 
Q 55.71875 13.875 49.015625 6.21875 
Q 42.328125 -1.421875 30.609375 -1.421875 
Q 18.84375 -1.421875 12.171875 6.21875 
Q 5.515625 13.875 5.515625 27.296875 
Q 5.515625 40.765625 12.171875 48.375 
Q 18.84375 56 30.609375 56 
z
" id="DejaVuSans-111"/>
        <path d="M 2.984375 54.6875 
L 12.5 54.6875 
L 29.59375 8.796875 
L 46.6875 54.6875 
L 56.203125 54.6875 
L 35.6875 0 
L 23.484375 0 
z
" id="DejaVuSans-118"/>
       </defs>
       <use xlink:href="#DejaVuSans-78"/>
       <use x="74.804688" xlink:href="#DejaVuSans-111"/>
       <use x="135.986328" xlink:href="#DejaVuSans-118"/>
       <use x="195.166016" xlink:href="#DejaVuSans-32"/>
       <use x="226.953125" xlink:href="#DejaVuSans-50"/>
       <use x="290.576172" xlink:href="#DejaVuSans-48"/>
       <use x="354.199219" xlink:href="#DejaVuSans-50"/>
       <use x="417.822266" xlink:href="#DejaVuSans-48"/>
      </g>
     </g>
    </g>
    <g id="xtick_10">
     <g id="line2d_10">
      <g>
       <use style="stroke:#000000;stroke-width:0.8;" x="438.833894" xlink:href="#md490283791" y="252"/>
      </g>
     </g>
     <g id="text_10">
      <!-- Dec 2020 -->
      <g transform="translate(441.593269 306.979687)rotate(-90)scale(0.1 -0.1)">
       <defs>
        <path d="M 19.671875 64.796875 
L 19.671875 8.109375 
L 31.59375 8.109375 
Q 46.6875 8.109375 53.6875 14.9375 
Q 60.6875 21.78125 60.6875 36.53125 
Q 60.6875 51.171875 53.6875 57.984375 
Q 46.6875 64.796875 31.59375 64.796875 
z
M 9.8125 72.90625 
L 30.078125 72.90625 
Q 51.265625 72.90625 61.171875 64.09375 
Q 71.09375 55.28125 71.09375 36.53125 
Q 71.09375 17.671875 61.125 8.828125 
Q 51.171875 0 30.078125 0 
L 9.8125 0 
z
" id="DejaVuSans-68"/>
       </defs>
       <use xlink:href="#DejaVuSans-68"/>
       <use x="77.001953" xlink:href="#DejaVuSans-101"/>
       <use x="138.525391" xlink:href="#DejaVuSans-99"/>
       <use x="193.505859" xlink:href="#DejaVuSans-32"/>
       <use x="225.292969" xlink:href="#DejaVuSans-50"/>
       <use x="288.916016" xlink:href="#DejaVuSans-48"/>
       <use x="352.539062" xlink:href="#DejaVuSans-50"/>
       <use x="416.162109" xlink:href="#DejaVuSans-48"/>
      </g>
     </g>
    </g>
    <g id="xtick_11">
     <g id="line2d_11">
      <g>
       <use style="stroke:#000000;stroke-width:0.8;" x="483.635759" xlink:href="#md490283791" y="252"/>
      </g>
     </g>
     <g id="text_11">
      <!-- Jan 2021 -->
      <g transform="translate(486.395134 303.04375)rotate(-90)scale(0.1 -0.1)">
       <defs>
        <path d="M 12.40625 8.296875 
L 28.515625 8.296875 
L 28.515625 63.921875 
L 10.984375 60.40625 
L 10.984375 69.390625 
L 28.421875 72.90625 
L 38.28125 72.90625 
L 38.28125 8.296875 
L 54.390625 8.296875 
L 54.390625 0 
L 12.40625 0 
z
" id="DejaVuSans-49"/>
       </defs>
       <use xlink:href="#DejaVuSans-74"/>
       <use x="29.492188" xlink:href="#DejaVuSans-97"/>
       <use x="90.771484" xlink:href="#DejaVuSans-110"/>
       <use x="154.150391" xlink:href="#DejaVuSans-32"/>
       <use x="185.9375" xlink:href="#DejaVuSans-50"/>
       <use x="249.560547" xlink:href="#DejaVuSans-48"/>
       <use x="313.183594" xlink:href="#DejaVuSans-50"/>
       <use x="376.806641" xlink:href="#DejaVuSans-49"/>
      </g>
     </g>
    </g>
    <g id="xtick_12">
     <g id="line2d_12">
      <g>
       <use style="stroke:#000000;stroke-width:0.8;" x="528.437624" xlink:href="#md490283791" y="252"/>
      </g>
     </g>
     <g id="text_12">
      <!-- Feb 2021 -->
      <g transform="translate(531.196999 305.33125)rotate(-90)scale(0.1 -0.1)">
       <defs>
        <path d="M 9.8125 72.90625 
L 51.703125 72.90625 
L 51.703125 64.59375 
L 19.671875 64.59375 
L 19.671875 43.109375 
L 48.578125 43.109375 
L 48.578125 34.8125 
L 19.671875 34.8125 
L 19.671875 0 
L 9.8125 0 
z
" id="DejaVuSans-70"/>
        <path d="M 48.6875 27.296875 
Q 48.6875 37.203125 44.609375 42.84375 
Q 40.53125 48.484375 33.40625 48.484375 
Q 26.265625 48.484375 22.1875 42.84375 
Q 18.109375 37.203125 18.109375 27.296875 
Q 18.109375 17.390625 22.1875 11.75 
Q 26.265625 6.109375 33.40625 6.109375 
Q 40.53125 6.109375 44.609375 11.75 
Q 48.6875 17.390625 48.6875 27.296875 
z
M 18.109375 46.390625 
Q 20.953125 51.265625 25.265625 53.625 
Q 29.59375 56 35.59375 56 
Q 45.5625 56 51.78125 48.09375 
Q 58.015625 40.1875 58.015625 27.296875 
Q 58.015625 14.40625 51.78125 6.484375 
Q 45.5625 -1.421875 35.59375 -1.421875 
Q 29.59375 -1.421875 25.265625 0.953125 
Q 20.953125 3.328125 18.109375 8.203125 
L 18.109375 0 
L 9.078125 0 
L 9.078125 75.984375 
L 18.109375 75.984375 
z
" id="DejaVuSans-98"/>
       </defs>
       <use xlink:href="#DejaVuSans-70"/>
       <use x="52.019531" xlink:href="#DejaVuSans-101"/>
       <use x="113.542969" xlink:href="#DejaVuSans-98"/>
       <use x="177.019531" xlink:href="#DejaVuSans-32"/>
       <use x="208.806641" xlink:href="#DejaVuSans-50"/>
       <use x="272.429688" xlink:href="#DejaVuSans-48"/>
       <use x="336.052734" xlink:href="#DejaVuSans-50"/>
       <use x="399.675781" xlink:href="#DejaVuSans-49"/>
      </g>
     </g>
    </g>
    <g id="xtick_13">
     <g id="line2d_13">
      <g>
       <use style="stroke:#000000;stroke-width:0.8;" x="568.903824" xlink:href="#md490283791" y="252"/>
      </g>
     </g>
     <g id="text_13">
      <!-- Mar 2021 -->
      <g transform="translate(571.663199 306.495312)rotate(-90)scale(0.1 -0.1)">
       <use xlink:href="#DejaVuSans-77"/>
       <use x="86.279297" xlink:href="#DejaVuSans-97"/>
       <use x="147.558594" xlink:href="#DejaVuSans-114"/>
       <use x="188.671875" xlink:href="#DejaVuSans-32"/>
       <use x="220.458984" xlink:href="#DejaVuSans-50"/>
       <use x="284.082031" xlink:href="#DejaVuSans-48"/>
       <use x="347.705078" xlink:href="#DejaVuSans-50"/>
       <use x="411.328125" xlink:href="#DejaVuSans-49"/>
      </g>
     </g>
    </g>
    <g id="text_14">
     <!-- Start date -->
     <g transform="translate(294.525 319.901562)scale(0.1 -0.1)">
      <defs>
       <path d="M 45.40625 46.390625 
L 45.40625 75.984375 
L 54.390625 75.984375 
L 54.390625 0 
L 45.40625 0 
L 45.40625 8.203125 
Q 42.578125 3.328125 38.25 0.953125 
Q 33.9375 -1.421875 27.875 -1.421875 
Q 17.96875 -1.421875 11.734375 6.484375 
Q 5.515625 14.40625 5.515625 27.296875 
Q 5.515625 40.1875 11.734375 48.09375 
Q 17.96875 56 27.875 56 
Q 33.9375 56 38.25 53.625 
Q 42.578125 51.265625 45.40625 46.390625 
z
M 14.796875 27.296875 
Q 14.796875 17.390625 18.875 11.75 
Q 22.953125 6.109375 30.078125 6.109375 
Q 37.203125 6.109375 41.296875 11.75 
Q 45.40625 17.390625 45.40625 27.296875 
Q 45.40625 37.203125 41.296875 42.84375 
Q 37.203125 48.484375 30.078125 48.484375 
Q 22.953125 48.484375 18.875 42.84375 
Q 14.796875 37.203125 14.796875 27.296875 
z
" id="DejaVuSans-100"/>
      </defs>
      <use xlink:href="#DejaVuSans-83"/>
      <use x="63.476562" xlink:href="#DejaVuSans-116"/>
      <use x="102.685547" xlink:href="#DejaVuSans-97"/>
      <use x="163.964844" xlink:href="#DejaVuSans-114"/>
      <use x="205.078125" xlink:href="#DejaVuSans-116"/>
      <use x="244.287109" xlink:href="#DejaVuSans-32"/>
      <use x="276.074219" xlink:href="#DejaVuSans-100"/>
      <use x="339.550781" xlink:href="#DejaVuSans-97"/>
      <use x="400.830078" xlink:href="#DejaVuSans-116"/>
      <use x="440.039062" xlink:href="#DejaVuSans-101"/>
     </g>
    </g>
   </g>
   <g id="matplotlib.axis_2">
    <g id="ytick_1">
     <g id="line2d_14">
      <defs>
       <path d="M 0 0 
L -3.5 0 
" id="mdd219b7ba7" style="stroke:#000000;stroke-width:0.8;"/>
      </defs>
      <g>
       <use style="stroke:#000000;stroke-width:0.8;" x="40.603125" xlink:href="#mdd219b7ba7" y="240.872727"/>
      </g>
     </g>
     <g id="text_15">
      <!-- 0 -->
      <g transform="translate(27.240625 244.671946)scale(0.1 -0.1)">
       <use xlink:href="#DejaVuSans-48"/>
      </g>
     </g>
    </g>
    <g id="ytick_2">
     <g id="line2d_15">
      <g>
       <use style="stroke:#000000;stroke-width:0.8;" x="40.603125" xlink:href="#mdd219b7ba7" y="187.247317"/>
      </g>
     </g>
     <g id="text_16">
      <!-- 20 -->
      <g transform="translate(20.878125 191.046535)scale(0.1 -0.1)">
       <use xlink:href="#DejaVuSans-50"/>
       <use x="63.623047" xlink:href="#DejaVuSans-48"/>
      </g>
     </g>
    </g>
    <g id="ytick_3">
     <g id="line2d_16">
      <g>
       <use style="stroke:#000000;stroke-width:0.8;" x="40.603125" xlink:href="#mdd219b7ba7" y="133.621906"/>
      </g>
     </g>
     <g id="text_17">
      <!-- 40 -->
      <g transform="translate(20.878125 137.421125)scale(0.1 -0.1)">
       <defs>
        <path d="M 37.796875 64.3125 
L 12.890625 25.390625 
L 37.796875 25.390625 
z
M 35.203125 72.90625 
L 47.609375 72.90625 
L 47.609375 25.390625 
L 58.015625 25.390625 
L 58.015625 17.1875 
L 47.609375 17.1875 
L 47.609375 0 
L 37.796875 0 
L 37.796875 17.1875 
L 4.890625 17.1875 
L 4.890625 26.703125 
z
" id="DejaVuSans-52"/>
       </defs>
       <use xlink:href="#DejaVuSans-52"/>
       <use x="63.623047" xlink:href="#DejaVuSans-48"/>
      </g>
     </g>
    </g>
    <g id="ytick_4">
     <g id="line2d_17">
      <g>
       <use style="stroke:#000000;stroke-width:0.8;" x="40.603125" xlink:href="#mdd219b7ba7" y="79.996495"/>
      </g>
     </g>
     <g id="text_18">
      <!-- 60 -->
      <g transform="translate(20.878125 83.795714)scale(0.1 -0.1)">
       <defs>
        <path d="M 33.015625 40.375 
Q 26.375 40.375 22.484375 35.828125 
Q 18.609375 31.296875 18.609375 23.390625 
Q 18.609375 15.53125 22.484375 10.953125 
Q 26.375 6.390625 33.015625 6.390625 
Q 39.65625 6.390625 43.53125 10.953125 
Q 47.40625 15.53125 47.40625 23.390625 
Q 47.40625 31.296875 43.53125 35.828125 
Q 39.65625 40.375 33.015625 40.375 
z
M 52.59375 71.296875 
L 52.59375 62.3125 
Q 48.875 64.0625 45.09375 64.984375 
Q 41.3125 65.921875 37.59375 65.921875 
Q 27.828125 65.921875 22.671875 59.328125 
Q 17.53125 52.734375 16.796875 39.40625 
Q 19.671875 43.65625 24.015625 45.921875 
Q 28.375 48.1875 33.59375 48.1875 
Q 44.578125 48.1875 50.953125 41.515625 
Q 57.328125 34.859375 57.328125 23.390625 
Q 57.328125 12.15625 50.6875 5.359375 
Q 44.046875 -1.421875 33.015625 -1.421875 
Q 20.359375 -1.421875 13.671875 8.265625 
Q 6.984375 17.96875 6.984375 36.375 
Q 6.984375 53.65625 15.1875 63.9375 
Q 23.390625 74.21875 37.203125 74.21875 
Q 40.921875 74.21875 44.703125 73.484375 
Q 48.484375 72.75 52.59375 71.296875 
z
" id="DejaVuSans-54"/>
       </defs>
       <use xlink:href="#DejaVuSans-54"/>
       <use x="63.623047" xlink:href="#DejaVuSans-48"/>
      </g>
     </g>
    </g>
    <g id="ytick_5">
     <g id="line2d_18">
      <g>
       <use style="stroke:#000000;stroke-width:0.8;" x="40.603125" xlink:href="#mdd219b7ba7" y="26.371084"/>
      </g>
     </g>
     <g id="text_19">
      <!-- 80 -->
      <g transform="translate(20.878125 30.170303)scale(0.1 -0.1)">
       <defs>
        <path d="M 31.78125 34.625 
Q 24.75 34.625 20.71875 30.859375 
Q 16.703125 27.09375 16.703125 20.515625 
Q 16.703125 13.921875 20.71875 10.15625 
Q 24.75 6.390625 31.78125 6.390625 
Q 38.8125 6.390625 42.859375 10.171875 
Q 46.921875 13.96875 46.921875 20.515625 
Q 46.921875 27.09375 42.890625 30.859375 
Q 38.875 34.625 31.78125 34.625 
z
M 21.921875 38.8125 
Q 15.578125 40.375 12.03125 44.71875 
Q 8.5 49.078125 8.5 55.328125 
Q 8.5 64.0625 14.71875 69.140625 
Q 20.953125 74.21875 31.78125 74.21875 
Q 42.671875 74.21875 48.875 69.140625 
Q 55.078125 64.0625 55.078125 55.328125 
Q 55.078125 49.078125 51.53125 44.71875 
Q 48 40.375 41.703125 38.8125 
Q 48.828125 37.15625 52.796875 32.3125 
Q 56.78125 27.484375 56.78125 20.515625 
Q 56.78125 9.90625 50.3125 4.234375 
Q 43.84375 -1.421875 31.78125 -1.421875 
Q 19.734375 -1.421875 13.25 4.234375 
Q 6.78125 9.90625 6.78125 20.515625 
Q 6.78125 27.484375 10.78125 32.3125 
Q 14.796875 37.15625 21.921875 38.8125 
z
M 18.3125 54.390625 
Q 18.3125 48.734375 21.84375 45.5625 
Q 25.390625 42.390625 31.78125 42.390625 
Q 38.140625 42.390625 41.71875 45.5625 
Q 45.3125 48.734375 45.3125 54.390625 
Q 45.3125 60.0625 41.71875 63.234375 
Q 38.140625 66.40625 31.78125 66.40625 
Q 25.390625 66.40625 21.84375 63.234375 
Q 18.3125 60.0625 18.3125 54.390625 
z
" id="DejaVuSans-56"/>
       </defs>
       <use xlink:href="#DejaVuSans-56"/>
       <use x="63.623047" xlink:href="#DejaVuSans-48"/>
      </g>
     </g>
    </g>
    <g id="text_20">
     <!-- Stay (in days) -->
     <g transform="translate(14.798437 164.197656)rotate(-90)scale(0.1 -0.1)">
      <defs>
       <path d="M 31 75.875 
Q 24.46875 64.65625 21.28125 53.65625 
Q 18.109375 42.671875 18.109375 31.390625 
Q 18.109375 20.125 21.3125 9.0625 
Q 24.515625 -2 31 -13.1875 
L 23.1875 -13.1875 
Q 15.875 -1.703125 12.234375 9.375 
Q 8.59375 20.453125 8.59375 31.390625 
Q 8.59375 42.28125 12.203125 53.3125 
Q 15.828125 64.359375 23.1875 75.875 
z
" id="DejaVuSans-40"/>
       <path d="M 9.421875 54.6875 
L 18.40625 54.6875 
L 18.40625 0 
L 9.421875 0 
z
M 9.421875 75.984375 
L 18.40625 75.984375 
L 18.40625 64.59375 
L 9.421875 64.59375 
z
" id="DejaVuSans-105"/>
       <path d="M 44.28125 53.078125 
L 44.28125 44.578125 
Q 40.484375 46.53125 36.375 47.5 
Q 32.28125 48.484375 27.875 48.484375 
Q 21.1875 48.484375 17.84375 46.4375 
Q 14.5 44.390625 14.5 40.28125 
Q 14.5 37.15625 16.890625 35.375 
Q 19.28125 33.59375 26.515625 31.984375 
L 29.59375 31.296875 
Q 39.15625 29.25 43.1875 25.515625 
Q 47.21875 21.78125 47.21875 15.09375 
Q 47.21875 7.46875 41.1875 3.015625 
Q 35.15625 -1.421875 24.609375 -1.421875 
Q 20.21875 -1.421875 15.453125 -0.5625 
Q 10.6875 0.296875 5.421875 2 
L 5.421875 11.28125 
Q 10.40625 8.6875 15.234375 7.390625 
Q 20.0625 6.109375 24.8125 6.109375 
Q 31.15625 6.109375 34.5625 8.28125 
Q 37.984375 10.453125 37.984375 14.40625 
Q 37.984375 18.0625 35.515625 20.015625 
Q 33.0625 21.96875 24.703125 23.78125 
L 21.578125 24.515625 
Q 13.234375 26.265625 9.515625 29.90625 
Q 5.8125 33.546875 5.8125 39.890625 
Q 5.8125 47.609375 11.28125 51.796875 
Q 16.75 56 26.8125 56 
Q 31.78125 56 36.171875 55.265625 
Q 40.578125 54.546875 44.28125 53.078125 
z
" id="DejaVuSans-115"/>
       <path d="M 8.015625 75.875 
L 15.828125 75.875 
Q 23.140625 64.359375 26.78125 53.3125 
Q 30.421875 42.28125 30.421875 31.390625 
Q 30.421875 20.453125 26.78125 9.375 
Q 23.140625 -1.703125 15.828125 -13.1875 
L 8.015625 -13.1875 
Q 14.5 -2 17.703125 9.0625 
Q 20.90625 20.125 20.90625 31.390625 
Q 20.90625 42.671875 17.703125 53.65625 
Q 14.5 64.65625 8.015625 75.875 
z
" id="DejaVuSans-41"/>
      </defs>
      <use xlink:href="#DejaVuSans-83"/>
      <use x="63.476562" xlink:href="#DejaVuSans-116"/>
      <use x="102.685547" xlink:href="#DejaVuSans-97"/>
      <use x="163.964844" xlink:href="#DejaVuSans-121"/>
      <use x="223.144531" xlink:href="#DejaVuSans-32"/>
      <use x="254.931641" xlink:href="#DejaVuSans-40"/>
      <use x="293.945312" xlink:href="#DejaVuSans-105"/>
      <use x="321.728516" xlink:href="#DejaVuSans-110"/>
      <use x="385.107422" xlink:href="#DejaVuSans-32"/>
      <use x="416.894531" xlink:href="#DejaVuSans-100"/>
      <use x="480.371094" xlink:href="#DejaVuSans-97"/>
      <use x="541.650391" xlink:href="#DejaVuSans-121"/>
      <use x="600.830078" xlink:href="#DejaVuSans-115"/>
      <use x="652.929688" xlink:href="#DejaVuSans-41"/>
     </g>
    </g>
   </g>
   <g id="line2d_19">
    <path clip-path="url(#p35f6df46aa)" d="M 65.966761 232.828916 
L 67.411983 200.653669 
L 71.747647 151.050164 
L 73.192869 238.191457 
L 74.63809 235.510186 
L 76.083311 104.12793 
L 77.528533 187.247317 
L 78.973754 177.415991 
L 80.418976 184.566046 
L 81.864197 171.159693 
L 83.309419 197.972399 
L 84.75464 128.259365 
L 86.199862 188.141073 
L 87.645083 211.378751 
L 89.090304 195.291128 
L 90.535526 197.972399 
L 93.425969 197.972399 
L 94.87119 192.609858 
L 96.316412 230.147645 
L 97.761633 173.840964 
L 100.652076 214.060022 
L 104.98774 232.828916 
L 106.432962 229.253888 
L 107.878183 218.081928 
L 116.549512 152.3908 
L 117.994733 238.191457 
L 119.439955 167.137788 
L 120.885176 235.510186 
L 122.330398 224.785104 
L 123.775619 227.466375 
L 125.220841 214.060022 
L 126.666062 216.741292 
L 128.111284 207.803724 
L 131.001726 227.466375 
L 132.446948 218.081928 
L 135.337391 193.950493 
L 136.782612 238.191457 
L 138.227834 235.510186 
L 141.118277 232.828916 
L 142.563498 112.171742 
L 144.008719 189.928587 
L 145.453941 177.192552 
L 146.899162 187.247317 
L 149.789605 195.291128 
L 151.234827 206.01621 
L 152.680048 235.510186 
L 154.12527 227.466375 
L 155.570491 190.464841 
L 157.015712 207.356846 
L 158.460934 192.609858 
L 159.906155 218.081928 
L 161.351377 230.147645 
L 162.796598 230.147645 
L 164.24182 196.057205 
L 165.687041 189.928587 
L 168.577484 222.103834 
L 170.022705 230.147645 
L 171.467927 224.785104 
L 172.913148 210.484995 
L 174.35837 174.734721 
L 175.803591 208.027163 
L 177.248813 235.510186 
L 178.694034 228.136692 
L 180.139256 228.360131 
L 181.584477 211.378751 
L 183.029698 186.174808 
L 184.47492 208.697481 
L 185.920141 195.291128 
L 187.365363 196.823283 
L 188.810584 208.697481 
L 190.255806 205.569332 
L 191.701027 216.205038 
L 193.146249 202.185824 
L 194.59147 124.237459 
L 196.036691 209.591238 
L 197.481913 197.972399 
L 198.927134 234.169551 
L 200.372356 189.03483 
L 201.817577 215.065498 
L 203.262799 218.417087 
L 204.70802 220.763198 
L 206.153242 210.306243 
L 207.598463 222.103834 
L 209.043684 204.675575 
L 210.488906 177.118072 
L 211.934127 214.060022 
L 213.379349 187.247317 
L 214.82457 153.284556 
L 216.269792 214.596276 
L 217.715013 170.154217 
L 219.160235 194.029354 
L 220.605456 143.006353 
L 222.050677 142.048756 
L 223.495899 207.624973 
L 224.94112 199.461993 
L 226.386342 210.187076 
L 227.831563 178.756627 
L 229.276785 217.746769 
L 230.722006 214.65586 
L 232.167228 184.949085 
L 233.612449 197.972399 
L 235.05767 189.258269 
L 236.502892 178.791002 
L 237.948113 216.145455 
L 239.393335 204.943702 
L 240.838556 207.803724 
L 242.283778 191.537349 
L 243.728999 173.245126 
L 245.174221 203.632859 
L 246.619442 193.056736 
L 248.064663 187.247317 
L 249.509885 175.181599 
L 250.955106 216.358254 
L 252.400328 189.928587 
L 253.845549 206.01621 
L 255.290771 226.460898 
L 258.181214 188.709828 
L 259.626435 203.091188 
L 261.071656 194.84425 
L 262.516878 174.84644 
L 263.962099 218.691307 
L 265.407321 210.432421 
L 266.852542 196.022384 
L 268.297764 193.727054 
L 269.742985 206.20773 
L 271.188207 226.125739 
L 272.633428 187.783571 
L 275.523871 222.869911 
L 276.969092 215.278781 
L 278.414314 211.791255 
L 279.859535 204.228697 
L 281.304757 206.782288 
L 282.749978 209.080519 
L 284.1952 219.422563 
L 285.640421 203.871194 
L 287.085642 219.422563 
L 288.530864 174.511281 
L 289.976085 186.800438 
L 291.421307 215.209138 
L 292.866528 200.653669 
L 294.31175 187.247317 
L 295.756971 208.314442 
L 297.202193 186.13012 
L 298.647414 215.975215 
L 300.092635 213.762103 
L 301.537857 209.702957 
L 302.983078 204.675575 
L 304.4283 148.560413 
L 305.873521 208.161227 
L 307.318743 203.632859 
L 308.763964 197.078642 
L 310.209186 227.466375 
L 311.654407 215.549617 
L 313.099628 208.101643 
L 314.54485 203.871194 
L 315.990071 204.340416 
L 317.435293 205.681051 
L 318.880514 219.69069 
L 320.325736 192.274699 
L 321.770957 203.156188 
L 323.216179 222.103834 
L 324.6614 207.931404 
L 326.106622 203.33494 
L 327.551843 202.664622 
L 328.997064 187.917634 
L 330.442286 225.120263 
L 331.887507 180.991019 
L 333.332729 209.591238 
L 334.77795 221.433516 
L 336.223172 190.311626 
L 337.668393 204.228697 
L 339.113615 227.466375 
L 340.558836 199.648193 
L 342.004057 221.433516 
L 343.449279 204.943702 
L 344.8945 226.572618 
L 346.339722 172.232202 
L 347.784943 211.974589 
L 349.230165 189.03483 
L 350.675386 214.5069 
L 352.120608 170.67219 
L 353.565829 199.313034 
L 355.01105 214.060022 
L 356.456272 232.828916 
L 357.901493 180.73566 
L 359.346715 212.597511 
L 360.791936 228.80701 
L 362.237158 216.741292 
L 363.682379 200.653669 
L 365.127601 222.103834 
L 366.572822 207.356846 
L 368.018043 208.697481 
L 369.463265 192.609858 
L 370.908486 206.01621 
L 372.353708 166.86966 
L 373.798929 215.592176 
L 375.244151 226.572618 
L 376.689372 201.323987 
L 378.134594 226.125739 
L 379.579815 226.125739 
L 381.025036 209.728739 
L 382.470258 224.24885 
L 383.915479 210.306243 
L 385.360701 225.551181 
L 386.805922 210.995713 
L 388.251144 187.783571 
L 389.696365 199.759912 
L 391.141587 197.972399 
L 392.586808 222.103834 
L 394.032029 188.141073 
L 395.477251 220.763198 
L 396.922472 222.99759 
L 398.367694 210.708434 
L 399.812915 225.857612 
L 401.258137 196.184885 
L 402.703358 207.088719 
L 404.14858 191.716101 
L 405.593801 196.057205 
L 407.039022 216.741292 
L 408.484244 217.188171 
L 409.929465 198.419277 
L 411.374687 216.741292 
L 412.819908 187.694195 
L 414.26513 214.060022 
L 415.710351 226.125739 
L 417.155573 214.953779 
L 418.600794 216.443373 
L 420.046015 201.547426 
L 421.491237 193.205696 
L 422.936458 202.888061 
L 424.38168 196.823283 
L 425.826901 222.103834 
L 427.272123 211.135 
L 428.717344 209.769989 
L 430.162566 205.569332 
L 431.607787 184.566046 
L 433.053008 207.207886 
L 434.49823 187.545235 
L 435.943451 204.675575 
L 437.388673 188.141073 
L 438.833894 203.33494 
L 440.279116 179.538664 
L 441.724337 214.395181 
L 443.169559 186.35356 
L 444.61478 219.422563 
L 446.060001 211.378751 
L 447.505223 219.958817 
L 448.950444 207.624973 
L 450.395666 212.987514 
L 451.840887 199.313034 
L 453.286109 219.958817 
L 454.73133 181.884775 
L 456.176552 216.741292 
L 457.621773 224.785104 
L 459.066994 219.422563 
L 460.512216 208.101643 
L 461.957437 217.813801 
L 463.402659 169.819058 
L 464.84788 201.726177 
L 466.293102 206.351369 
L 467.738323 220.954718 
L 469.183545 197.972399 
L 470.628766 207.966225 
L 472.073987 228.136692 
L 473.519209 210.708434 
L 474.96443 198.866156 
L 476.409652 201.994304 
L 477.854873 216.741292 
L 479.300095 218.081928 
L 480.745316 231.935159 
L 482.190538 216.294414 
L 483.635759 204.228697 
L 485.08098 218.081928 
L 486.526202 210.931873 
L 487.971423 214.826099 
L 489.416645 222.99759 
L 490.861866 219.805602 
L 492.307088 212.719387 
L 493.752309 228.80701 
L 495.197531 202.441183 
L 496.642752 222.103834 
L 498.087973 216.741292 
L 499.533195 217.277547 
L 500.978416 228.002629 
L 502.423638 223.444469 
L 503.868859 211.378751 
L 505.314081 229.477327 
L 506.759302 227.466375 
L 508.204524 220.763198 
L 509.649745 224.189266 
L 511.094966 222.103834 
L 512.540188 223.891347 
L 513.985409 210.038116 
L 515.430631 228.80701 
L 516.875852 207.356846 
L 518.321074 221.031325 
L 519.766295 224.402065 
L 521.211517 219.422563 
L 522.656738 217.635049 
L 524.101959 224.785104 
L 525.547181 224.785104 
L 526.992402 221.210077 
L 528.437624 214.953779 
L 529.882845 216.070975 
L 531.328067 224.785104 
L 532.773288 224.24885 
L 534.21851 219.422563 
L 535.663731 216.741292 
L 537.108953 206.01621 
L 538.554174 218.528806 
L 539.999395 195.291128 
L 541.444617 218.081928 
L 542.889838 218.528806 
L 544.33506 225.231982 
L 545.780281 220.31632 
L 548.670724 230.147645 
L 550.115946 227.466375 
L 551.561167 235.510186 
L 553.006388 238.191457 
L 554.45161 228.80701 
L 558.787274 228.80701 
L 560.232496 232.828916 
L 560.232496 232.828916 
" style="fill:none;stroke:#1f77b4;stroke-linecap:square;stroke-width:0.8;"/>
   </g>
   <g id="line2d_20">
    <path clip-path="url(#p35f6df46aa)" d="M 65.966761 224.785104 
L 68.857204 183.225411 
L 70.302426 211.378751 
L 73.192869 232.828916 
L 74.63809 93.402848 
L 76.083311 138.984447 
L 80.418976 216.741292 
L 81.864197 127.365608 
L 83.309419 187.247317 
L 84.75464 173.840964 
L 87.645083 215.400657 
L 91.980747 214.060022 
L 96.316412 69.271413 
L 103.542519 184.566046 
L 104.98774 149.709529 
L 107.878183 171.159693 
L 110.768626 181.884775 
L 115.104291 130.940635 
L 117.994733 196.184885 
L 119.439955 235.510186 
L 122.330398 192.609858 
L 123.775619 200.653669 
L 126.666062 218.081928 
L 129.556505 195.291128 
L 131.001726 133.621906 
L 132.446948 210.484995 
L 133.892169 216.741292 
L 135.337391 177.86287 
L 136.782612 184.566046 
L 138.227834 195.291128 
L 141.118277 222.103834 
L 142.563498 122.896824 
L 144.008719 223.444469 
L 145.453941 206.909967 
L 146.899162 224.785104 
L 148.344384 177.192552 
L 151.234827 197.972399 
L 152.680048 201.547426 
L 154.12527 187.917634 
L 155.570491 211.378751 
L 157.015712 194.397371 
L 161.351377 179.203505 
L 162.796598 188.587952 
L 167.132263 238.191457 
L 171.467927 192.609858 
L 174.35837 222.103834 
L 175.803591 189.928587 
L 177.248813 215.400657 
L 178.694034 238.191457 
L 180.139256 214.73034 
L 183.029698 196.363636 
L 184.47492 216.741292 
L 185.920141 191.716101 
L 187.365363 173.840964 
L 188.810584 208.697481 
L 190.255806 215.13253 
L 191.701027 215.400657 
L 193.146249 206.01621 
L 194.59147 172.500329 
L 196.036691 188.013394 
L 197.481913 208.697481 
L 198.927134 212.719387 
L 200.372356 179.873823 
L 201.817577 203.33494 
L 203.262799 215.13253 
L 204.70802 197.52552 
L 206.153242 202.999781 
L 207.598463 204.899014 
L 209.043684 207.356846 
L 210.488906 190.822344 
L 211.934127 205.479956 
L 213.379349 211.378751 
L 214.82457 214.060022 
L 217.715013 170.563855 
L 219.160235 211.915005 
L 220.605456 212.527867 
L 222.050677 186.35356 
L 223.495899 195.099609 
L 224.94112 202.798686 
L 226.386342 184.949085 
L 227.831563 191.878602 
L 229.276785 196.464184 
L 230.722006 204.407448 
L 232.167228 177.759744 
L 233.612449 191.537349 
L 235.05767 162.445564 
L 236.502892 198.810296 
L 237.948113 197.972399 
L 239.393335 209.144359 
L 240.838556 192.609858 
L 242.283778 136.035049 
L 243.728999 199.759912 
L 245.174221 193.354655 
L 246.619442 194.803624 
L 248.064663 204.984952 
L 250.955106 183.057831 
L 252.400328 154.803943 
L 253.845549 186.576999 
L 255.290771 172.589704 
L 256.735992 212.910906 
L 258.181214 214.060022 
L 259.626435 191.716101 
L 261.071656 191.339782 
L 262.516878 191.269222 
L 263.962099 193.248255 
L 265.407321 199.101355 
L 266.852542 197.972399 
L 269.742985 181.437897 
L 271.188207 182.778532 
L 272.633428 186.516061 
L 274.078649 205.250133 
L 275.523871 196.710624 
L 276.969092 194.397371 
L 278.414314 216.985044 
L 279.859535 183.761665 
L 281.304757 203.33494 
L 282.749978 168.793866 
L 284.1952 205.250133 
L 285.640421 219.422563 
L 287.085642 191.147346 
L 288.530864 182.480613 
L 289.976085 197.728647 
L 291.421307 199.234173 
L 292.866528 205.681051 
L 294.31175 199.089595 
L 295.756971 221.880394 
L 297.202193 192.816109 
L 298.647414 173.840964 
L 300.092635 176.187076 
L 301.537857 200.653669 
L 302.983078 183.033891 
L 304.4283 206.284337 
L 305.873521 218.584666 
L 307.318743 200.385542 
L 308.763964 211.2 
L 310.209186 185.236364 
L 311.654407 206.612048 
L 313.099628 217.41161 
L 314.54485 203.33494 
L 315.990071 215.624096 
L 317.435293 202.922437 
L 318.880514 216.497541 
L 320.325736 205.345893 
L 321.770957 208.209977 
L 323.216179 190.822344 
L 324.6614 197.241143 
L 326.106622 180.276013 
L 327.551843 184.789485 
L 328.997064 194.285652 
L 330.442286 191.045783 
L 331.887507 189.481709 
L 334.77795 211.378751 
L 336.223172 194.039869 
L 337.668393 211.71391 
L 339.113615 197.484895 
L 340.558836 198.459902 
L 342.004057 212.093757 
L 343.449279 203.037021 
L 344.8945 204.484056 
L 346.339722 187.247317 
L 347.784943 176.139196 
L 349.230165 199.313034 
L 350.675386 199.313034 
L 352.120608 202.798686 
L 353.565829 197.168018 
L 355.01105 202.664622 
L 356.456272 191.63485 
L 357.901493 197.436145 
L 359.346715 208.399562 
L 360.791936 196.509887 
L 362.237158 203.33494 
L 363.682379 202.185824 
L 365.127601 209.591238 
L 366.572822 200.117415 
L 368.018043 198.508653 
L 369.463265 199.089595 
L 370.908486 175.90348 
L 372.353708 207.803724 
L 373.798929 188.141073 
L 375.244151 209.367798 
L 376.689372 169.074261 
L 378.134594 192.341731 
L 379.579815 192.609858 
L 381.025036 188.587952 
L 382.470258 205.345893 
L 383.915479 212.987514 
L 385.360701 164.456517 
L 386.805922 208.697481 
L 388.251144 200.31851 
L 389.696365 219.422563 
L 391.141587 193.682366 
L 392.586808 199.313034 
L 394.032029 209.293319 
L 395.477251 191.418182 
L 396.922472 211.378751 
L 398.367694 182.219934 
L 399.812915 208.518729 
L 401.258137 197.972399 
L 402.703358 207.692004 
L 404.14858 170.861774 
L 405.593801 190.263746 
L 407.039022 205.479956 
L 408.484244 188.204913 
L 409.929465 201.659146 
L 411.374687 192.877985 
L 412.819908 191.001095 
L 414.26513 218.752245 
L 415.710351 188.95358 
L 417.155573 193.205696 
L 418.600794 196.509887 
L 420.046015 202.999781 
L 421.491237 196.631763 
L 422.936458 214.63458 
L 424.38168 188.709828 
L 425.826901 195.961446 
L 427.272123 204.867094 
L 428.717344 203.037021 
L 430.162566 200.35575 
L 431.607787 198.419277 
L 433.053008 204.675575 
L 434.49823 222.640088 
L 435.943451 214.303774 
L 437.388673 169.550931 
L 438.833894 207.8931 
L 440.279116 187.247317 
L 441.724337 202.798686 
L 443.169559 193.682366 
L 444.61478 192.294414 
L 446.060001 184.119168 
L 447.505223 201.066172 
L 448.950444 203.16736 
L 450.395666 193.758974 
L 451.840887 208.9954 
L 453.286109 193.801533 
L 454.73133 217.41161 
L 456.176552 211.791255 
L 457.621773 191.537349 
L 459.066994 179.471632 
L 460.512216 181.266021 
L 461.957437 187.65982 
L 463.402659 189.928587 
L 464.84788 185.1023 
L 466.293102 190.375465 
L 467.738323 186.912158 
L 469.183545 201.141173 
L 470.628766 195.703631 
L 472.073987 210.647496 
L 473.519209 204.797451 
L 474.96443 202.441183 
L 476.409652 196.440244 
L 477.854873 206.222462 
L 479.300095 180.352621 
L 480.745316 199.089595 
L 482.190538 187.247317 
L 483.635759 196.095509 
L 485.08098 191.771961 
L 486.526202 197.559896 
L 487.971423 218.886309 
L 489.416645 191.147346 
L 492.307088 201.156407 
L 493.752309 211.378751 
L 495.197531 208.697481 
L 496.642752 191.460742 
L 498.087973 212.049069 
L 499.533195 196.509887 
L 500.978416 212.093757 
L 502.423638 219.422563 
L 503.868859 203.822443 
L 505.314081 218.081928 
L 506.759302 205.479956 
L 508.204524 206.399249 
L 509.649745 211.915005 
L 511.094966 197.67448 
L 512.540188 217.33713 
L 513.985409 220.31632 
L 515.430631 203.871194 
L 516.875852 211.378751 
L 518.321074 201.419747 
L 519.766295 189.928587 
L 521.211517 209.702957 
L 522.656738 215.847536 
L 524.101959 202.143264 
L 525.547181 201.994304 
L 526.992402 208.697481 
L 528.437624 206.820591 
L 529.882845 199.759912 
L 531.328067 208.697481 
L 532.773288 209.846597 
L 534.21851 197.972399 
L 535.663731 206.351369 
L 537.108953 208.697481 
L 538.554174 226.393866 
L 539.999395 220.495071 
L 541.444617 206.01621 
L 542.889838 209.463558 
L 544.33506 205.479956 
L 545.780281 216.145455 
L 547.225503 214.826099 
L 548.670724 215.400657 
L 550.115946 217.635049 
L 553.006388 224.402065 
L 554.45161 229.764606 
L 555.896831 222.438992 
L 557.342053 221.433516 
L 558.787274 226.572618 
L 560.232496 224.449945 
L 561.677717 226.870537 
L 563.122939 232.158598 
L 564.56816 229.41639 
L 566.013381 235.063308 
L 567.458603 234.437678 
L 568.903824 238.191457 
L 570.349046 234.169551 
L 573.239489 239.532092 
L 573.239489 239.532092 
" style="fill:none;stroke:#ff7f0e;stroke-linecap:square;stroke-width:0.8;"/>
   </g>
   <g id="line2d_21"/>
   <g id="line2d_22"/>
   <g id="line2d_23">
    <path clip-path="url(#p35f6df46aa)" d="M 40.603125 201.27936 
L 598.603125 201.27936 
" style="fill:none;stroke:#000000;stroke-dasharray:2.96,1.28;stroke-dashoffset:0;stroke-width:0.8;"/>
   </g>
   <g id="patch_3">
    <path d="M 40.603125 252 
L 40.603125 7.2 
" style="fill:none;stroke:#000000;stroke-linecap:square;stroke-linejoin:miter;stroke-width:0.8;"/>
   </g>
   <g id="patch_4">
    <path d="M 40.603125 252 
L 598.603125 252 
" style="fill:none;stroke:#000000;stroke-linecap:square;stroke-linejoin:miter;stroke-width:0.8;"/>
   </g>
   <g id="legend_1">
    <g id="patch_5">
     <path d="M 506.078125 59.234375 
L 591.603125 59.234375 
Q 593.603125 59.234375 593.603125 57.234375 
L 593.603125 14.2 
Q 593.603125 12.2 591.603125 12.2 
L 506.078125 12.2 
Q 504.078125 12.2 504.078125 14.2 
L 504.078125 57.234375 
Q 504.078125 59.234375 506.078125 59.234375 
z
" style="fill:#ffffff;opacity:0.8;stroke:#cccccc;stroke-linejoin:miter;"/>
    </g>
    <g id="line2d_24">
     <path d="M 508.078125 20.298437 
L 528.078125 20.298437 
" style="fill:none;stroke:#1f77b4;stroke-linecap:square;stroke-width:1.5;"/>
    </g>
    <g id="line2d_25"/>
    <g id="text_21">
     <!-- RECOVERY -->
     <g transform="translate(536.078125 23.798437)scale(0.1 -0.1)">
      <defs>
       <path d="M 44.390625 34.1875 
Q 47.5625 33.109375 50.5625 29.59375 
Q 53.5625 26.078125 56.59375 19.921875 
L 66.609375 0 
L 56 0 
L 46.6875 18.703125 
Q 43.0625 26.03125 39.671875 28.421875 
Q 36.28125 30.8125 30.421875 30.8125 
L 19.671875 30.8125 
L 19.671875 0 
L 9.8125 0 
L 9.8125 72.90625 
L 32.078125 72.90625 
Q 44.578125 72.90625 50.734375 67.671875 
Q 56.890625 62.453125 56.890625 51.90625 
Q 56.890625 45.015625 53.6875 40.46875 
Q 50.484375 35.9375 44.390625 34.1875 
z
M 19.671875 64.796875 
L 19.671875 38.921875 
L 32.078125 38.921875 
Q 39.203125 38.921875 42.84375 42.21875 
Q 46.484375 45.515625 46.484375 51.90625 
Q 46.484375 58.296875 42.84375 61.546875 
Q 39.203125 64.796875 32.078125 64.796875 
z
" id="DejaVuSans-82"/>
       <path d="M 9.8125 72.90625 
L 55.90625 72.90625 
L 55.90625 64.59375 
L 19.671875 64.59375 
L 19.671875 43.015625 
L 54.390625 43.015625 
L 54.390625 34.71875 
L 19.671875 34.71875 
L 19.671875 8.296875 
L 56.78125 8.296875 
L 56.78125 0 
L 9.8125 0 
z
" id="DejaVuSans-69"/>
       <path d="M 64.40625 67.28125 
L 64.40625 56.890625 
Q 59.421875 61.53125 53.78125 63.8125 
Q 48.140625 66.109375 41.796875 66.109375 
Q 29.296875 66.109375 22.65625 58.46875 
Q 16.015625 50.828125 16.015625 36.375 
Q 16.015625 21.96875 22.65625 14.328125 
Q 29.296875 6.6875 41.796875 6.6875 
Q 48.140625 6.6875 53.78125 8.984375 
Q 59.421875 11.28125 64.40625 15.921875 
L 64.40625 5.609375 
Q 59.234375 2.09375 53.4375 0.328125 
Q 47.65625 -1.421875 41.21875 -1.421875 
Q 24.65625 -1.421875 15.125 8.703125 
Q 5.609375 18.84375 5.609375 36.375 
Q 5.609375 53.953125 15.125 64.078125 
Q 24.65625 74.21875 41.21875 74.21875 
Q 47.75 74.21875 53.53125 72.484375 
Q 59.328125 70.75 64.40625 67.28125 
z
" id="DejaVuSans-67"/>
       <path d="M 28.609375 0 
L 0.78125 72.90625 
L 11.078125 72.90625 
L 34.1875 11.53125 
L 57.328125 72.90625 
L 67.578125 72.90625 
L 39.796875 0 
z
" id="DejaVuSans-86"/>
       <path d="M -0.203125 72.90625 
L 10.40625 72.90625 
L 30.609375 42.921875 
L 50.6875 72.90625 
L 61.28125 72.90625 
L 35.5 34.71875 
L 35.5 0 
L 25.59375 0 
L 25.59375 34.71875 
z
" id="DejaVuSans-89"/>
      </defs>
      <use xlink:href="#DejaVuSans-82"/>
      <use x="69.482422" xlink:href="#DejaVuSans-69"/>
      <use x="132.666016" xlink:href="#DejaVuSans-67"/>
      <use x="202.490234" xlink:href="#DejaVuSans-79"/>
      <use x="279.451172" xlink:href="#DejaVuSans-86"/>
      <use x="347.859375" xlink:href="#DejaVuSans-69"/>
      <use x="411.042969" xlink:href="#DejaVuSans-82"/>
      <use x="474.150391" xlink:href="#DejaVuSans-89"/>
     </g>
    </g>
    <g id="line2d_26">
     <path d="M 508.078125 34.976562 
L 528.078125 34.976562 
" style="fill:none;stroke:#ff7f0e;stroke-linecap:square;stroke-width:1.5;"/>
    </g>
    <g id="line2d_27"/>
    <g id="text_22">
     <!-- DEATH -->
     <g transform="translate(536.078125 38.476562)scale(0.1 -0.1)">
      <defs>
       <path d="M -0.296875 72.90625 
L 61.375 72.90625 
L 61.375 64.59375 
L 35.5 64.59375 
L 35.5 0 
L 25.59375 0 
L 25.59375 64.59375 
L -0.296875 64.59375 
z
" id="DejaVuSans-84"/>
       <path d="M 9.8125 72.90625 
L 19.671875 72.90625 
L 19.671875 43.015625 
L 55.515625 43.015625 
L 55.515625 72.90625 
L 65.375 72.90625 
L 65.375 0 
L 55.515625 0 
L 55.515625 34.71875 
L 19.671875 34.71875 
L 19.671875 0 
L 9.8125 0 
z
" id="DejaVuSans-72"/>
      </defs>
      <use xlink:href="#DejaVuSans-68"/>
      <use x="77.001953" xlink:href="#DejaVuSans-69"/>
      <use x="140.185547" xlink:href="#DejaVuSans-65"/>
      <use x="200.84375" xlink:href="#DejaVuSans-84"/>
      <use x="261.927734" xlink:href="#DejaVuSans-72"/>
     </g>
    </g>
    <g id="line2d_28">
     <path d="M 508.078125 49.654687 
L 528.078125 49.654687 
" style="fill:none;stroke:#000000;stroke-dasharray:2.96,1.28;stroke-dashoffset:0;stroke-width:0.8;"/>
    </g>
    <g id="line2d_29"/>
    <g id="text_23">
     <!-- Mean -->
     <g transform="translate(536.078125 53.154687)scale(0.1 -0.1)">
      <use xlink:href="#DejaVuSans-77"/>
      <use x="86.279297" xlink:href="#DejaVuSans-101"/>
      <use x="147.802734" xlink:href="#DejaVuSans-97"/>
      <use x="209.082031" xlink:href="#DejaVuSans-110"/>
     </g>
    </g>
   </g>
  </g>
 </g>
 <defs>
  <clipPath id="p35f6df46aa">
   <rect height="244.8" width="558" x="40.603125" y="7.2"/>
  </clipPath>
 </defs>
</svg>
