<?xml version="1.0" encoding="utf-8" standalone="no"?>
<!DOCTYPE svg PUBLIC "-//W3C//DTD SVG 1.1//EN"
  "http://www.w3.org/Graphics/SVG/1.1/DTD/svg11.dtd">
<svg height="329.18125pt" version="1.1" viewBox="0 0 605.803125 329.18125" width="605.803125pt" xmlns="http://www.w3.org/2000/svg" xmlns:xlink="http://www.w3.org/1999/xlink">
 <metadata>
  <rdf:RDF xmlns:cc="http://creativecommons.org/ns#" xmlns:dc="http://purl.org/dc/elements/1.1/" xmlns:rdf="http://www.w3.org/1999/02/22-rdf-syntax-ns#">
   <cc:Work>
    <dc:type rdf:resource="http://purl.org/dc/dcmitype/StillImage"/>
    <dc:date>2021-03-29T19:47:45.142219</dc:date>
    <dc:format>image/svg+xml</dc:format>
    <dc:creator>
     <cc:Agent>
      <dc:title>Matplotlib v3.4.0, https://matplotlib.org/</dc:title>
     </cc:Agent>
    </dc:creator>
   </cc:Work>
  </rdf:RDF>
 </metadata>
 <defs>
  <style type="text/css">*{stroke-linecap:butt;stroke-linejoin:round;}</style>
 </defs>
 <g id="figure_1">
  <g id="patch_1">
   <path d="M 0 329.18125 
L 605.803125 329.18125 
L 605.803125 0 
L 0 0 
z
" style="fill:none;"/>
  </g>
  <g id="axes_1">
   <g id="patch_2">
    <path d="M 40.603125 252 
L 598.603125 252 
L 598.603125 7.2 
L 40.603125 7.2 
z
" style="fill:#ffffff;"/>
   </g>
   <g id="PolyCollection_1">
    <path clip-path="url(#pc3d6060539)" d="M 71.747647 143.210082 
L 71.747647 161.686798 
L 71.747647 143.210082 
L 71.747647 143.210082 
z
" style="fill:#1f77b4;fill-opacity:0.2;stroke:#1f77b4;stroke-opacity:0.2;"/>
    <path clip-path="url(#pc3d6060539)" d="M 77.528533 151.128674 
L 77.528533 225.035541 
L 78.973754 232.954134 
L 80.418976 225.035541 
L 81.864197 230.314603 
L 81.864197 131.772114 
L 81.864197 131.772114 
L 80.418976 145.849613 
L 78.973754 140.306597 
L 77.528533 151.128674 
z
" style="fill:#1f77b4;fill-opacity:0.2;stroke:#1f77b4;stroke-opacity:0.2;"/>
    <path clip-path="url(#pc3d6060539)" d="M 86.199862 182.803046 
L 86.199862 192.481326 
L 86.199862 182.803046 
L 86.199862 182.803046 
z
" style="fill:#1f77b4;fill-opacity:0.2;stroke:#1f77b4;stroke-opacity:0.2;"/>
    <path clip-path="url(#pc3d6060539)" d="M 89.090304 174.884453 
L 89.090304 235.593665 
L 89.090304 174.884453 
L 89.090304 174.884453 
z
" style="fill:#1f77b4;fill-opacity:0.2;stroke:#1f77b4;stroke-opacity:0.2;"/>
    <path clip-path="url(#pc3d6060539)" d="M 94.87119 148.489143 
L 94.87119 238.233196 
L 96.316412 235.593665 
L 96.316412 225.035541 
L 96.316412 225.035541 
L 94.87119 148.489143 
z
" style="fill:#1f77b4;fill-opacity:0.2;stroke:#1f77b4;stroke-opacity:0.2;"/>
    <path clip-path="url(#pc3d6060539)" d="M 106.432962 225.035541 
L 106.432962 234.339888 
L 107.878183 232.954134 
L 107.878183 203.919294 
L 107.878183 203.919294 
L 106.432962 225.035541 
z
" style="fill:#1f77b4;fill-opacity:0.2;stroke:#1f77b4;stroke-opacity:0.2;"/>
    <path clip-path="url(#pc3d6060539)" d="M 119.439955 111.53571 
L 119.439955 225.035541 
L 119.439955 111.53571 
L 119.439955 111.53571 
z
" style="fill:#1f77b4;fill-opacity:0.2;stroke:#1f77b4;stroke-opacity:0.2;"/>
    <path clip-path="url(#pc3d6060539)" d="M 123.775619 222.396011 
L 123.775619 232.954134 
L 123.775619 222.396011 
L 123.775619 222.396011 
z
" style="fill:#1f77b4;fill-opacity:0.2;stroke:#1f77b4;stroke-opacity:0.2;"/>
    <path clip-path="url(#pc3d6060539)" d="M 126.666062 206.558825 
L 126.666062 227.675072 
L 128.111284 219.888456 
L 128.111284 196.000701 
L 128.111284 196.000701 
L 126.666062 206.558825 
z
" style="fill:#1f77b4;fill-opacity:0.2;stroke:#1f77b4;stroke-opacity:0.2;"/>
    <path clip-path="url(#pc3d6060539)" d="M 132.446948 206.558825 
L 132.446948 230.314603 
L 135.337391 227.675072 
L 136.782612 238.233196 
L 136.782612 238.233196 
L 136.782612 238.233196 
L 135.337391 139.250785 
L 132.446948 206.558825 
z
" style="fill:#1f77b4;fill-opacity:0.2;stroke:#1f77b4;stroke-opacity:0.2;"/>
    <path clip-path="url(#pc3d6060539)" d="M 141.118277 232.954134 
L 141.118277 232.954134 
L 141.118277 232.954134 
L 141.118277 232.954134 
z
" style="fill:#1f77b4;fill-opacity:0.2;stroke:#1f77b4;stroke-opacity:0.2;"/>
    <path clip-path="url(#pc3d6060539)" d="M 145.453941 110.644868 
L 145.453941 223.715776 
L 145.453941 110.644868 
L 145.453941 110.644868 
z
" style="fill:#1f77b4;fill-opacity:0.2;stroke:#1f77b4;stroke-opacity:0.2;"/>
    <path clip-path="url(#pc3d6060539)" d="M 151.234827 169.495411 
L 151.234827 235.593665 
L 151.234827 169.495411 
L 151.234827 169.495411 
z
" style="fill:#1f77b4;fill-opacity:0.2;stroke:#1f77b4;stroke-opacity:0.2;"/>
    <path clip-path="url(#pc3d6060539)" d="M 155.570491 158.717326 
L 155.570491 219.75648 
L 157.015712 235.593665 
L 157.015712 155.087971 
L 157.015712 155.087971 
L 155.570491 158.717326 
z
" style="fill:#1f77b4;fill-opacity:0.2;stroke:#1f77b4;stroke-opacity:0.2;"/>
    <path clip-path="url(#pc3d6060539)" d="M 159.906155 202.599528 
L 159.906155 234.2739 
L 159.906155 202.599528 
L 159.906155 202.599528 
z
" style="fill:#1f77b4;fill-opacity:0.2;stroke:#1f77b4;stroke-opacity:0.2;"/>
    <path clip-path="url(#pc3d6060539)" d="M 164.24182 152.797235 
L 164.24182 222.867355 
L 165.687041 228.906854 
L 165.687041 159.927111 
L 165.687041 159.927111 
L 164.24182 152.797235 
z
" style="fill:#1f77b4;fill-opacity:0.2;stroke:#1f77b4;stroke-opacity:0.2;"/>
    <path clip-path="url(#pc3d6060539)" d="M 168.577484 219.75648 
L 168.577484 225.035541 
L 168.577484 219.75648 
L 168.577484 219.75648 
z
" style="fill:#1f77b4;fill-opacity:0.2;stroke:#1f77b4;stroke-opacity:0.2;"/>
    <path clip-path="url(#pc3d6060539)" d="M 172.913148 198.640232 
L 172.913148 227.675072 
L 174.35837 230.314603 
L 175.803591 224.375659 
L 175.803591 192.041404 
L 175.803591 192.041404 
L 174.35837 148.489143 
L 172.913148 198.640232 
z
" style="fill:#1f77b4;fill-opacity:0.2;stroke:#1f77b4;stroke-opacity:0.2;"/>
    <path clip-path="url(#pc3d6060539)" d="M 178.694034 221.703134 
L 178.694034 236.253548 
L 180.139256 240.872727 
L 181.584477 226.61926 
L 183.029698 222.396011 
L 184.47492 229.285186 
L 185.920141 201.279763 
L 187.365363 226.74181 
L 187.365363 167.408924 
L 187.365363 167.408924 
L 185.920141 190.721639 
L 184.47492 176.692532 
L 183.029698 138.577705 
L 181.584477 187.026296 
L 180.139256 216.984972 
L 178.694034 221.703134 
z
" style="fill:#1f77b4;fill-opacity:0.2;stroke:#1f77b4;stroke-opacity:0.2;"/>
    <path clip-path="url(#pc3d6060539)" d="M 190.255806 191.705964 
L 190.255806 223.528809 
L 191.701027 231.370416 
L 193.146249 227.675072 
L 194.59147 183.462929 
L 196.036691 230.314603 
L 197.481913 234.77706 
L 198.927134 238.233196 
L 200.372356 231.194447 
L 201.817577 230.520817 
L 203.262799 229.357773 
L 204.70802 236.033587 
L 206.153242 229.813093 
L 207.598463 234.287098 
L 209.043684 230.105641 
L 210.488906 210.092863 
L 211.934127 227.675072 
L 213.379349 221.283637 
L 214.82457 224.756924 
L 216.269792 227.939026 
L 217.715013 211.540939 
L 219.160235 209.140131 
L 220.605456 196.660584 
L 222.050677 216.77758 
L 223.495899 218.892033 
L 224.94112 228.364283 
L 226.386342 227.579756 
L 227.831563 229.874682 
L 229.276785 232.327246 
L 230.722006 227.704401 
L 232.167228 205.644416 
L 233.612449 217.116949 
L 235.05767 225.571696 
L 236.502892 198.650384 
L 237.948113 225.776077 
L 239.393335 218.476307 
L 240.838556 220.357706 
L 242.283778 214.807359 
L 243.728999 224.170362 
L 245.174221 225.776077 
L 246.619442 219.107595 
L 248.064663 203.292405 
L 249.509885 218.436714 
L 250.955106 226.939775 
L 252.400328 219.904953 
L 253.845549 218.199156 
L 255.290771 232.137529 
L 256.735992 218.172761 
L 258.181214 209.918228 
L 259.626435 216.649032 
L 261.071656 215.483739 
L 262.516878 221.645394 
L 263.962099 232.13228 
L 265.407321 227.290788 
L 266.852542 222.168051 
L 268.297764 207.218707 
L 269.742985 217.046247 
L 271.188207 232.745172 
L 272.633428 229.311582 
L 274.078649 222.742449 
L 275.523871 230.691679 
L 276.969092 231.640368 
L 278.414314 220.675239 
L 279.859535 228.13699 
L 281.304757 226.166769 
L 282.749978 221.448607 
L 284.1952 229.654721 
L 285.640421 230.466376 
L 287.085642 233.614017 
L 288.530864 206.24538 
L 289.976085 210.875558 
L 291.421307 230.154346 
L 292.866528 216.559714 
L 294.31175 210.01771 
L 295.756971 222.136771 
L 297.202193 215.318768 
L 298.647414 227.533669 
L 300.092635 225.512123 
L 301.537857 222.445502 
L 302.983078 226.215082 
L 304.4283 215.429534 
L 305.873521 230.242016 
L 307.318743 218.150765 
L 308.763964 213.355617 
L 310.209186 234.306894 
L 311.654407 226.949201 
L 313.099628 222.117393 
L 314.54485 219.004213 
L 315.990071 217.653103 
L 317.435293 221.076245 
L 318.880514 229.687715 
L 320.325736 213.00093 
L 321.770957 214.662185 
L 323.216179 228.598908 
L 324.6614 225.412617 
L 326.106622 227.675072 
L 327.551843 216.787007 
L 328.997064 221.422683 
L 330.442286 232.954134 
L 331.887507 232.954134 
L 333.332729 222.117393 
L 334.77795 229.654721 
L 336.223172 214.392576 
L 337.668393 230.314603 
L 339.113615 233.759191 
L 340.558836 217.620109 
L 342.004057 232.327246 
L 343.449279 230.84251 
L 344.8945 230.314603 
L 346.339722 222.923917 
L 347.784943 219.32389 
L 349.230165 220.493349 
L 350.675386 228.345953 
L 352.120608 199.04216 
L 353.565829 216.630285 
L 355.01105 219.75648 
L 355.01105 209.198356 
L 355.01105 209.198356 
L 353.565829 181.780228 
L 352.120608 138.158979 
L 350.675386 189.357881 
L 349.230165 148.632118 
L 347.784943 204.197911 
L 346.339722 96.200035 
L 344.8945 222.396011 
L 343.449279 175.940266 
L 342.004057 206.872269 
L 340.558836 176.938338 
L 339.113615 221.868104 
L 337.668393 164.326329 
L 336.223172 157.897186 
L 334.77795 215.797183 
L 333.332729 196.946533 
L 331.887507 130.012427 
L 330.442286 218.230501 
L 328.997064 151.928782 
L 327.551843 187.702675 
L 326.106622 170.086163 
L 324.6614 189.694107 
L 323.216179 217.534874 
L 321.770957 193.009232 
L 320.325736 165.802817 
L 318.880514 206.948156 
L 317.435293 191.10932 
L 315.990071 190.358703 
L 314.54485 189.527251 
L 313.099628 192.173381 
L 311.654407 202.284251 
L 310.209186 221.076245 
L 308.763964 181.461284 
L 307.318743 189.225905 
L 305.873521 181.443688 
L 304.4283 91.27731 
L 302.983078 173.894629 
L 301.537857 197.477188 
L 300.092635 203.332731 
L 298.647414 206.162895 
L 297.202193 158.574351 
L 295.756971 195.524643 
L 294.31175 162.049734 
L 292.866528 182.355792 
L 291.421307 202.015061 
L 289.976085 168.984002 
L 288.530864 144.727812 
L 287.085642 196.000701 
L 285.640421 169.084084 
L 284.1952 206.682553 
L 282.749978 198.164174 
L 281.304757 181.473854 
L 279.859535 177.260031 
L 278.414314 205.330428 
L 276.969092 190.66165 
L 275.523871 214.062634 
L 274.078649 189.558596 
L 272.633428 142.101479 
L 271.188207 218.645677 
L 269.742985 190.297429 
L 268.297764 175.951264 
L 266.852542 171.741012 
L 265.407321 191.800741 
L 263.962099 197.07451 
L 262.516878 121.310223 
L 261.071656 171.794002 
L 259.626435 195.256833 
L 258.181214 166.755898 
L 256.735992 195.321022 
L 255.290771 220.746304 
L 253.845549 194.252012 
L 252.400328 153.842442 
L 250.955106 205.031668 
L 249.509885 140.306597 
L 248.064663 172.211928 
L 246.619442 148.153703 
L 245.174221 183.066999 
L 243.728999 103.88107 
L 242.283778 170.634808 
L 240.838556 193.207197 
L 239.393335 190.708441 
L 237.948113 206.558825 
L 236.502892 155.722474 
L 235.05767 147.260112 
L 233.612449 169.605391 
L 232.167228 165.636668 
L 230.722006 203.626013 
L 229.276785 201.873657 
L 227.831563 110.996806 
L 226.386342 190.860948 
L 224.94112 159.560509 
L 223.495899 192.140387 
L 222.050677 27.212122 
L 220.605456 69.963097 
L 219.160235 176.472053 
L 217.715013 124.246701 
L 216.269792 194.54236 
L 214.82457 46.735225 
L 213.379349 151.50575 
L 211.934127 195.42566 
L 210.488906 138.07766 
L 209.043684 171.167114 
L 207.598463 205.450222 
L 206.153242 179.635609 
L 204.70802 206.096907 
L 203.262799 207.862093 
L 201.817577 195.142853 
L 200.372356 148.489143 
L 198.927134 230.314603 
L 197.481913 152.242227 
L 196.036691 195.098861 
L 194.59147 18.327273 
L 193.146249 179.550767 
L 191.701027 189.13792 
L 190.255806 191.705964 
z
" style="fill:#1f77b4;fill-opacity:0.2;stroke:#1f77b4;stroke-opacity:0.2;"/>
    <path clip-path="url(#pc3d6060539)" d="M 357.901493 139.165943 
L 357.901493 218.248176 
L 359.346715 229.240794 
L 360.791936 235.593665 
L 362.237158 227.675072 
L 363.682379 223.275854 
L 365.127601 232.954134 
L 366.572822 216.028142 
L 368.018043 221.839824 
L 369.463265 217.724041 
L 370.908486 217.996792 
L 372.353708 221.340198 
L 373.798929 222.396011 
L 375.244151 232.745172 
L 376.689372 228.367949 
L 378.134594 236.599987 
L 379.579815 227.675072 
L 381.025036 220.715848 
L 382.470258 228.730885 
L 383.915479 214.477418 
L 385.360701 232.397947 
L 386.805922 225.610582 
L 388.251144 203.919294 
L 389.696365 217.996792 
L 391.141587 216.871849 
L 392.586808 231.445831 
L 394.032029 231.095465 
L 395.477251 230.314603 
L 396.922472 227.675072 
L 398.367694 222.742449 
L 399.812915 232.175473 
L 401.258137 222.187048 
L 402.703358 227.952223 
L 404.14858 220.449356 
L 405.593801 219.775333 
L 407.039022 225.728418 
L 408.484244 233.185093 
L 409.929465 224.59562 
L 411.374687 223.275854 
L 412.819908 213.828533 
L 414.26513 231.656365 
L 415.710351 234.620338 
L 417.155573 230.314603 
L 418.600794 224.896233 
L 420.046015 208.318512 
L 421.491237 212.189824 
L 422.936458 224.59562 
L 424.38168 213.006822 
L 424.38168 174.667635 
L 424.38168 174.667635 
L 422.936458 168.494589 
L 421.491237 171.167114 
L 420.046015 193.36117 
L 418.600794 205.788962 
L 417.155573 193.36117 
L 415.710351 217.397399 
L 414.26513 192.030406 
L 412.819908 161.158892 
L 411.374687 210.034207 
L 409.929465 160.993921 
L 408.484244 194.010055 
L 407.039022 205.0081 
L 405.593801 163.119687 
L 404.14858 141.846324 
L 402.703358 187.554202 
L 401.258137 168.93451 
L 399.812915 220.812292 
L 398.367694 195.448049 
L 396.922472 219.75648 
L 395.477251 211.837887 
L 394.032029 138.09599 
L 392.586808 211.083735 
L 391.141587 175.742301 
L 389.696365 169.341438 
L 388.251144 161.158892 
L 386.805922 189.967487 
L 385.360701 219.558515 
L 383.915479 206.80958 
L 382.470258 219.75648 
L 381.025036 200.340699 
L 379.579815 225.035541 
L 378.134594 209.858238 
L 376.689372 153.768205 
L 375.244151 217.325911 
L 373.798929 208.444204 
L 372.353708 84.612494 
L 370.908486 193.36117 
L 369.463265 155.021983 
L 368.018043 195.802736 
L 366.572822 198.59624 
L 365.127601 210.254168 
L 363.682379 161.686798 
L 362.237158 206.558825 
L 360.791936 222.396011 
L 359.346715 190.925603 
L 357.901493 139.165943 
z
" style="fill:#1f77b4;fill-opacity:0.2;stroke:#1f77b4;stroke-opacity:0.2;"/>
    <path clip-path="url(#pc3d6060539)" d="M 427.272123 202.593529 
L 427.272123 219.288563 
L 428.717344 226.05836 
L 430.162566 227.026188 
L 431.607787 209.404569 
L 433.053008 218.876636 
L 434.49823 214.954 
L 435.943451 209.198356 
L 437.388673 224.59562 
L 438.833894 218.85244 
L 440.279116 204.142004 
L 441.724337 228.19473 
L 443.169559 206.558825 
L 444.61478 225.035541 
L 446.060001 226.61926 
L 447.505223 224.507635 
L 448.950444 233.838377 
L 450.395666 227.675072 
L 451.840887 201.279763 
L 453.286109 232.201868 
L 454.73133 203.919294 
L 456.176552 217.116949 
L 457.621773 232.64069 
L 459.066994 230.817764 
L 460.512216 226.670584 
L 461.957437 229.008036 
L 463.402659 207.251702 
L 464.84788 225.563448 
L 466.293102 221.909347 
L 467.738323 232.199983 
L 469.183545 224.408653 
L 470.628766 220.122415 
L 472.073987 230.974486 
L 473.519209 227.01519 
L 474.96443 211.837887 
L 476.409652 224.155698 
L 477.854873 225.208761 
L 479.300095 232.954134 
L 480.745316 237.353353 
L 482.190538 224.155698 
L 483.635759 228.356951 
L 485.08098 232.954134 
L 486.526202 224.155698 
L 487.971423 225.412617 
L 489.416645 230.314603 
L 490.861866 231.068755 
L 492.307088 234.2739 
L 493.752309 232.954134 
L 495.197531 221.516167 
L 496.642752 230.314603 
L 498.087973 227.675072 
L 499.533195 236.398722 
L 500.978416 235.065759 
L 502.423638 230.314603 
L 503.868859 224.062214 
L 505.314081 236.599987 
L 505.314081 222.396011 
L 505.314081 222.396011 
L 503.868859 199.959997 
L 502.423638 217.116949 
L 500.978416 218.700667 
L 499.533195 199.9468 
L 498.087973 197.980349 
L 496.642752 215.357261 
L 495.197531 184.562733 
L 493.752309 225.035541 
L 492.307088 183.034005 
L 490.861866 201.83595 
L 489.416645 214.477418 
L 487.971423 205.408743 
L 486.526202 195.285828 
L 485.08098 203.919294 
L 483.635759 181.703241 
L 482.190538 205.448022 
L 480.745316 224.485639 
L 479.300095 200.586886 
L 477.854873 207.37543 
L 476.409652 180.328486 
L 474.96443 177.523984 
L 473.519209 197.947355 
L 472.073987 225.695424 
L 470.628766 187.716173 
L 469.183545 165.415136 
L 467.738323 213.34619 
L 466.293102 193.971561 
L 464.84788 173.94742 
L 463.402659 137.93102 
L 461.957437 205.865948 
L 460.512216 185.134632 
L 459.066994 203.086192 
L 457.621773 218.436714 
L 456.176552 217.116949 
L 454.73133 165.606502 
L 453.286109 210.782074 
L 451.840887 198.640232 
L 450.395666 193.58553 
L 448.950444 175.003232 
L 447.505223 215.797183 
L 446.060001 196.251456 
L 444.61478 216.237105 
L 443.169559 167.845704 
L 441.724337 202.096368 
L 440.279116 158.874048 
L 438.833894 181.997989 
L 437.388673 147.378341 
L 435.943451 201.279763 
L 434.49823 169.451419 
L 433.053008 191.528162 
L 431.607787 154.238372 
L 430.162566 174.884453 
L 428.717344 189.263298 
L 427.272123 202.593529 
z
" style="fill:#1f77b4;fill-opacity:0.2;stroke:#1f77b4;stroke-opacity:0.2;"/>
    <path clip-path="url(#pc3d6060539)" d="M 508.204524 207.218707 
L 508.204524 231.353919 
L 509.649745 230.48324 
L 511.094966 228.480129 
L 512.540188 234.757814 
L 513.985409 230.314603 
L 515.430631 230.314603 
L 516.875852 217.116949 
L 518.321074 233.482041 
L 519.766295 230.691679 
L 521.211517 235.17574 
L 522.656738 225.057538 
L 524.101959 225.035541 
L 524.101959 225.035541 
L 524.101959 225.035541 
L 522.656738 209.84724 
L 521.211517 197.408451 
L 519.766295 217.494024 
L 518.321074 207.086731 
L 516.875852 198.640232 
L 515.430631 227.675072 
L 513.985409 190.721639 
L 512.540188 210.320156 
L 511.094966 216.061136 
L 509.649745 216.163785 
L 508.204524 207.218707 
z
" style="fill:#1f77b4;fill-opacity:0.2;stroke:#1f77b4;stroke-opacity:0.2;"/>
    <path clip-path="url(#pc3d6060539)" d="M 526.992402 217.116949 
L 526.992402 228.224975 
L 528.437624 220.636323 
L 529.882845 226.355307 
L 531.328067 233.99345 
L 532.773288 239.064649 
L 534.21851 226.795229 
L 535.663731 224.19969 
L 537.108953 227.675072 
L 538.554174 238.233196 
L 538.554174 207.438668 
L 538.554174 207.438668 
L 537.108953 185.442577 
L 535.663731 206.558825 
L 534.21851 212.71773 
L 532.773288 201.728483 
L 531.328067 219.75648 
L 529.882845 206.492836 
L 528.437624 208.230528 
L 526.992402 217.116949 
z
" style="fill:#1f77b4;fill-opacity:0.2;stroke:#1f77b4;stroke-opacity:0.2;"/>
    <path clip-path="url(#pc3d6060539)" d="M 541.444617 211.815891 
L 541.444617 225.2665 
L 542.889838 222.396011 
L 544.33506 229.874682 
L 545.780281 228.224975 
L 548.670724 232.954134 
L 550.115946 234.713822 
L 550.115946 214.477418 
L 550.115946 214.477418 
L 548.670724 227.675072 
L 545.780281 214.895343 
L 544.33506 220.845286 
L 542.889838 211.837887 
L 541.444617 211.815891 
z
" style="fill:#1f77b4;fill-opacity:0.2;stroke:#1f77b4;stroke-opacity:0.2;"/>
    <path clip-path="url(#pc3d6060539)" d="M 553.006388 238.233196 
L 553.006388 238.233196 
L 554.45161 238.233196 
L 558.787274 235.593665 
L 558.787274 222.396011 
L 558.787274 222.396011 
L 554.45161 219.75648 
L 553.006388 238.233196 
z
" style="fill:#1f77b4;fill-opacity:0.2;stroke:#1f77b4;stroke-opacity:0.2;"/>
   </g>
   <g id="PolyCollection_2">
    <path clip-path="url(#pc3d6060539)" d="M 68.857204 177.523984 
L 68.857204 190.721639 
L 68.857204 177.523984 
L 68.857204 177.523984 
z
" style="fill:#ff7f0e;fill-opacity:0.2;stroke:#ff7f0e;stroke-opacity:0.2;"/>
    <path clip-path="url(#pc3d6060539)" d="M 81.864197 66.663684 
L 81.864197 191.601483 
L 81.864197 66.663684 
L 81.864197 66.663684 
z
" style="fill:#ff7f0e;fill-opacity:0.2;stroke:#ff7f0e;stroke-opacity:0.2;"/>
    <path clip-path="url(#pc3d6060539)" d="M 87.645083 203.919294 
L 87.645083 227.675072 
L 87.645083 203.919294 
L 87.645083 203.919294 
z
" style="fill:#ff7f0e;fill-opacity:0.2;stroke:#ff7f0e;stroke-opacity:0.2;"/>
    <path clip-path="url(#pc3d6060539)" d="M 103.542519 182.803046 
L 103.542519 188.082108 
L 103.542519 182.803046 
L 103.542519 182.803046 
z
" style="fill:#ff7f0e;fill-opacity:0.2;stroke:#ff7f0e;stroke-opacity:0.2;"/>
    <path clip-path="url(#pc3d6060539)" d="M 110.768626 145.849613 
L 110.768626 219.75648 
L 110.768626 145.849613 
L 110.768626 145.849613 
z
" style="fill:#ff7f0e;fill-opacity:0.2;stroke:#ff7f0e;stroke-opacity:0.2;"/>
    <path clip-path="url(#pc3d6060539)" d="M 117.994733 127.372896 
L 117.994733 238.233196 
L 117.994733 127.372896 
L 117.994733 127.372896 
z
" style="fill:#ff7f0e;fill-opacity:0.2;stroke:#ff7f0e;stroke-opacity:0.2;"/>
    <path clip-path="url(#pc3d6060539)" d="M 126.666062 209.198356 
L 126.666062 227.675072 
L 126.666062 209.198356 
L 126.666062 209.198356 
z
" style="fill:#ff7f0e;fill-opacity:0.2;stroke:#ff7f0e;stroke-opacity:0.2;"/>
    <path clip-path="url(#pc3d6060539)" d="M 132.446948 199.894009 
L 132.446948 224.331667 
L 132.446948 199.894009 
L 132.446948 199.894009 
z
" style="fill:#ff7f0e;fill-opacity:0.2;stroke:#ff7f0e;stroke-opacity:0.2;"/>
    <path clip-path="url(#pc3d6060539)" d="M 135.337391 166.96586 
L 135.337391 190.721639 
L 135.337391 166.96586 
L 135.337391 166.96586 
z
" style="fill:#ff7f0e;fill-opacity:0.2;stroke:#ff7f0e;stroke-opacity:0.2;"/>
    <path clip-path="url(#pc3d6060539)" d="M 141.118277 214.477418 
L 141.118277 230.314603 
L 141.118277 214.477418 
L 141.118277 214.477418 
z
" style="fill:#ff7f0e;fill-opacity:0.2;stroke:#ff7f0e;stroke-opacity:0.2;"/>
    <path clip-path="url(#pc3d6060539)" d="M 144.008719 214.477418 
L 144.008719 232.954134 
L 145.453941 225.035541 
L 145.453941 198.640232 
L 145.453941 198.640232 
L 144.008719 214.477418 
z
" style="fill:#ff7f0e;fill-opacity:0.2;stroke:#ff7f0e;stroke-opacity:0.2;"/>
    <path clip-path="url(#pc3d6060539)" d="M 148.344384 112.195593 
L 148.344384 212.530764 
L 148.344384 112.195593 
L 148.344384 112.195593 
z
" style="fill:#ff7f0e;fill-opacity:0.2;stroke:#ff7f0e;stroke-opacity:0.2;"/>
    <path clip-path="url(#pc3d6060539)" d="M 152.680048 153.768205 
L 152.680048 227.675072 
L 154.12527 217.149943 
L 154.12527 147.169378 
L 154.12527 147.169378 
L 152.680048 153.768205 
z
" style="fill:#ff7f0e;fill-opacity:0.2;stroke:#ff7f0e;stroke-opacity:0.2;"/>
    <path clip-path="url(#pc3d6060539)" d="M 157.015712 182.803046 
L 157.015712 203.03945 
L 157.015712 182.803046 
L 157.015712 182.803046 
z
" style="fill:#ff7f0e;fill-opacity:0.2;stroke:#ff7f0e;stroke-opacity:0.2;"/>
    <path clip-path="url(#pc3d6060539)" d="M 162.796598 164.326329 
L 162.796598 214.477418 
L 162.796598 164.326329 
L 162.796598 164.326329 
z
" style="fill:#ff7f0e;fill-opacity:0.2;stroke:#ff7f0e;stroke-opacity:0.2;"/>
    <path clip-path="url(#pc3d6060539)" d="M 170.022705 181.470083 
L 170.022705 228.730885 
L 170.022705 181.470083 
L 170.022705 181.470083 
z
" style="fill:#ff7f0e;fill-opacity:0.2;stroke:#ff7f0e;stroke-opacity:0.2;"/>
    <path clip-path="url(#pc3d6060539)" d="M 174.35837 219.75648 
L 174.35837 225.035541 
L 175.803591 212.497769 
L 177.248813 219.75648 
L 177.248813 211.837887 
L 177.248813 211.837887 
L 175.803591 174.884453 
L 174.35837 219.75648 
z
" style="fill:#ff7f0e;fill-opacity:0.2;stroke:#ff7f0e;stroke-opacity:0.2;"/>
    <path clip-path="url(#pc3d6060539)" d="M 180.139256 204.859627 
L 180.139256 226.355307 
L 183.029698 225.035541 
L 184.47492 234.2739 
L 185.920141 231.128459 
L 187.365363 186.828331 
L 188.810584 214.477418 
L 190.255806 227.978619 
L 191.701027 236.599987 
L 193.146249 217.116949 
L 194.59147 197.320466 
L 196.036691 210.367291 
L 197.481913 240.036876 
L 198.927134 226.795229 
L 200.372356 208.794178 
L 201.817577 232.706678 
L 203.262799 229.786697 
L 204.70802 211.837887 
L 206.153242 215.797183 
L 207.598463 221.653642 
L 209.043684 226.528526 
L 210.488906 200.399919 
L 211.934127 213.949511 
L 213.379349 224.016389 
L 214.82457 224.59562 
L 216.269792 209.843574 
L 217.715013 213.025676 
L 219.160235 227.952223 
L 220.605456 227.891891 
L 222.050677 205.030096 
L 223.495899 212.313945 
L 224.94112 225.715221 
L 226.386342 205.168358 
L 227.831563 212.077844 
L 229.276785 210.134564 
L 230.722006 215.568424 
L 232.167228 209.675502 
L 233.612449 212.629746 
L 235.05767 186.668859 
L 236.502892 214.485666 
L 237.948113 220.645122 
L 239.393335 217.232428 
L 240.838556 211.885021 
L 242.283778 199.022964 
L 243.728999 216.391078 
L 245.174221 207.87859 
L 246.619442 216.787007 
L 248.064663 220.974725 
L 249.509885 212.390538 
L 250.955106 202.624274 
L 252.400328 197.74939 
L 253.845549 208.571467 
L 255.290771 205.925337 
L 256.735992 231.66265 
L 258.181214 222.857928 
L 259.626435 223.226363 
L 261.071656 216.561258 
L 262.516878 219.974241 
L 263.962099 209.031814 
L 265.407321 217.84282 
L 266.852542 213.289629 
L 268.297764 207.987 
L 269.742985 200.438412 
L 271.188207 204.485693 
L 272.633428 205.497013 
L 274.078649 225.610582 
L 275.523871 216.977209 
L 276.969092 211.178004 
L 278.414314 229.846687 
L 279.859535 203.919294 
L 281.304757 227.675072 
L 282.749978 200.437442 
L 284.1952 222.971051 
L 285.640421 229.133413 
L 287.085642 202.605527 
L 288.530864 200.847173 
L 289.976085 221.232217 
L 291.421307 214.966507 
L 292.866528 222.618721 
L 294.31175 212.321801 
L 295.756971 230.116639 
L 297.202193 222.299566 
L 298.647414 198.376279 
L 300.092635 214.85685 
L 301.537857 216.087532 
L 302.983078 218.658246 
L 304.4283 225.200512 
L 305.873521 228.603033 
L 307.318743 220.964065 
L 308.763964 223.838954 
L 310.209186 229.077323 
L 311.654407 223.459155 
L 313.099628 226.701745 
L 314.54485 218.436714 
L 315.990071 225.695424 
L 317.435293 221.604151 
L 318.880514 230.224619 
L 320.325736 217.620109 
L 321.770957 226.979196 
L 323.216179 238.233196 
L 324.6614 213.439602 
L 326.106622 213.975907 
L 327.551843 209.357827 
L 328.997064 224.7056 
L 330.442286 210.320156 
L 331.887507 211.293483 
L 333.332729 219.591509 
L 334.77795 215.1373 
L 336.223172 212.022654 
L 337.668393 222.082566 
L 339.113615 213.757546 
L 340.558836 211.202 
L 342.004057 227.191158 
L 343.449279 215.357261 
L 344.8945 221.839824 
L 346.339722 207.078482 
L 347.784943 211.658776 
L 349.230165 228.367949 
L 350.675386 218.480706 
L 352.120608 219.228573 
L 353.565829 219.505724 
L 355.01105 218.238749 
L 356.456272 209.954221 
L 357.901493 224.111706 
L 359.346715 227.829045 
L 360.791936 215.81518 
L 362.237158 219.651998 
L 363.682379 222.113204 
L 365.127601 228.554916 
L 366.572822 222.05947 
L 368.018043 231.898322 
L 369.463265 215.357261 
L 370.908486 190.868844 
L 372.353708 219.75648 
L 373.798929 210.2615 
L 375.244151 221.736128 
L 376.689372 201.294427 
L 378.134594 208.030363 
L 379.579815 210.848063 
L 381.025036 217.281919 
L 382.470258 225.868643 
L 383.915479 224.507635 
L 385.360701 209.198356 
L 386.805922 227.396455 
L 388.251144 219.426538 
L 389.696365 232.954134 
L 391.141587 212.405386 
L 392.586808 229.962666 
L 394.032029 221.112905 
L 395.477251 221.809448 
L 396.922472 235.593665 
L 398.367694 202.978961 
L 399.812915 220.552738 
L 401.258137 217.691989 
L 402.703358 226.041863 
L 404.14858 202.467552 
L 405.593801 206.92176 
L 407.039022 218.575289 
L 408.484244 209.485876 
L 409.929465 223.088887 
L 411.374687 214.919539 
L 412.819908 209.944023 
L 414.26513 235.280221 
L 415.710351 211.975862 
L 417.155573 211.434625 
L 418.600794 212.49177 
L 420.046015 223.559054 
L 421.491237 226.355307 
L 422.936458 222.961624 
L 424.38168 209.564291 
L 425.826901 207.334187 
L 427.272123 219.040035 
L 428.717344 223.136546 
L 430.162566 224.676272 
L 431.607787 223.29785 
L 433.053008 225.480962 
L 434.49823 237.177384 
L 435.943451 224.453645 
L 437.388673 202.665517 
L 438.833894 219.241771 
L 440.279116 205.746661 
L 441.724337 226.757835 
L 443.169559 208.482383 
L 444.61478 207.121666 
L 446.060001 209.869236 
L 447.505223 219.75648 
L 448.950444 214.023748 
L 450.395666 209.773396 
L 451.840887 222.872592 
L 453.286109 210.386145 
L 454.73133 223.055893 
L 456.176552 221.091473 
L 457.621773 215.753191 
L 459.066994 198.290494 
L 460.512216 200.777237 
L 461.957437 212.350565 
L 463.402659 213.075167 
L 464.84788 210.669894 
L 466.293102 214.823856 
L 467.738323 212.167828 
L 469.183545 223.607795 
L 470.628766 214.071336 
L 472.073987 222.408008 
L 473.519209 223.847753 
L 474.96443 217.347908 
L 476.409652 212.144261 
L 477.854873 220.705695 
L 479.300095 210.320156 
L 480.745316 214.592897 
L 482.190538 210.551115 
L 483.635759 216.351485 
L 485.08098 207.973448 
L 486.526202 211.751594 
L 487.971423 230.063848 
L 489.416645 210.422138 
L 490.861866 216.960226 
L 492.307088 212.4689 
L 493.752309 232.729774 
L 495.197531 230.314603 
L 496.642752 226.261038 
L 498.087973 221.579406 
L 499.533195 211.267988 
L 500.978416 222.699557 
L 502.423638 228.389945 
L 503.868859 217.848819 
L 505.314081 219.75648 
L 506.759302 221.920895 
L 508.204524 227.156593 
L 509.649745 218.977818 
L 511.094966 211.698578 
L 512.540188 228.723553 
L 513.985409 225.035541 
L 515.430631 215.975351 
L 516.875852 230.974486 
L 518.321074 217.135802 
L 519.766295 207.438668 
L 521.211517 224.548878 
L 522.656738 230.754525 
L 524.101959 214.338109 
L 525.547181 227.01519 
L 526.992402 217.996792 
L 528.437624 214.741371 
L 529.882845 227.939026 
L 531.328067 219.505724 
L 532.773288 223.923168 
L 534.21851 213.641566 
L 535.663731 221.579406 
L 537.108953 230.314603 
L 538.554174 237.70529 
L 539.999395 228.730885 
L 541.444617 216.017144 
L 542.889838 224.696173 
L 544.33506 210.518121 
L 545.780281 222.410675 
L 547.225503 226.22333 
L 548.670724 224.243682 
L 550.115946 223.444491 
L 551.561167 228.077601 
L 553.006388 231.822907 
L 554.45161 234.104216 
L 555.896831 225.963502 
L 557.342053 227.394622 
L 558.787274 231.78101 
L 560.232496 228.005014 
L 561.677717 231.34842 
L 563.122939 236.426767 
L 564.56816 233.194092 
L 566.013381 238.464155 
L 567.458603 237.70529 
L 568.903824 240.344821 
L 570.349046 235.384702 
L 573.239489 240.872727 
L 573.239489 238.233196 
L 573.239489 238.233196 
L 570.349046 233.394056 
L 568.903824 235.316515 
L 567.458603 230.816114 
L 566.013381 231.634369 
L 564.56816 226.349308 
L 563.122939 227.831795 
L 561.677717 222.396011 
L 560.232496 221.736128 
L 558.787274 221.068913 
L 557.342053 215.953905 
L 555.896831 219.339929 
L 554.45161 224.460501 
L 553.006388 216.164832 
L 551.561167 214.741371 
L 550.115946 209.154364 
L 548.670724 207.337486 
L 547.225503 205.031668 
L 545.780281 208.303848 
L 544.33506 200.461508 
L 542.889838 201.081798 
L 541.444617 197.005189 
L 539.999395 213.546983 
L 538.554174 214.675382 
L 537.108953 194.241014 
L 535.663731 192.511571 
L 534.21851 186.740346 
L 532.773288 196.877402 
L 531.328067 193.394164 
L 529.882845 172.398895 
L 528.437624 199.128545 
L 526.992402 196.209664 
L 525.547181 184.403262 
L 524.101959 185.229948 
L 522.656738 200.124968 
L 521.211517 188.412049 
L 519.766295 172.640852 
L 518.321074 182.963303 
L 516.875852 197.320466 
L 515.430631 192.668293 
L 513.985409 216.237105 
L 512.540188 206.096907 
L 511.094966 181.710573 
L 509.649745 202.30918 
L 508.204524 179.69217 
L 506.759302 191.249545 
L 505.314081 217.116949 
L 503.868859 183.258965 
L 502.423638 209.638278 
L 500.978416 202.14201 
L 499.533195 181.327308 
L 498.087973 200.100222 
L 496.642752 165.146469 
L 495.197531 186.696354 
L 493.752309 188.610014 
L 492.307088 187.587196 
L 490.861866 167.92269 
L 489.416645 167.433777 
L 487.971423 211.422161 
L 486.526202 182.579701 
L 485.08098 176.422805 
L 483.635759 175.122011 
L 482.190538 166.446203 
L 480.745316 179.355159 
L 479.300095 141.862035 
L 477.854873 184.473057 
L 476.409652 184.768554 
L 474.96443 189.170914 
L 473.519209 186.984303 
L 472.073987 197.428447 
L 470.628766 176.605224 
L 469.183545 181.813222 
L 467.738323 143.754485 
L 466.293102 158.981279 
L 464.84788 159.687354 
L 463.402659 165.613101 
L 461.957437 167.138445 
L 460.512216 152.768229 
L 459.066994 154.632652 
L 457.621773 165.984835 
L 456.176552 200.873681 
L 454.73133 213.157652 
L 453.286109 182.649073 
L 451.840887 192.481326 
L 450.395666 177.882206 
L 448.950444 193.006483 
L 447.505223 173.508851 
L 446.060001 171.112123 
L 444.61478 178.595323 
L 443.169559 178.16407 
L 441.724337 177.26663 
L 440.279116 170.173906 
L 438.833894 199.656451 
L 437.388673 133.59339 
L 435.943451 201.837664 
L 434.49823 205.503012 
L 433.053008 182.803046 
L 431.607787 154.098147 
L 430.162566 182.047847 
L 428.717344 176.512164 
L 427.272123 192.229942 
L 425.826901 185.662538 
L 424.38168 168.837528 
L 422.936458 207.115012 
L 421.491237 159.70715 
L 420.046015 184.576481 
L 418.600794 179.941555 
L 417.155573 178.836418 
L 415.710351 163.294513 
L 414.26513 188.082108 
L 412.819908 168.536381 
L 411.374687 173.426112 
L 409.929465 177.062066 
L 408.484244 169.657239 
L 407.039022 193.36117 
L 405.593801 167.543258 
L 404.14858 142.058953 
L 402.703358 192.701287 
L 401.258137 175.977973 
L 399.812915 196.528607 
L 398.367694 158.758569 
L 396.922472 184.122812 
L 395.477251 146.905425 
L 394.032029 194.072377 
L 392.586808 172.59686 
L 391.141587 167.968882 
L 389.696365 211.837887 
L 388.251144 174.348298 
L 386.805922 176.937422 
L 385.360701 117.254694 
L 383.915479 194.892098 
L 382.470258 185.096139 
L 381.025036 165.646095 
L 379.579815 171.255098 
L 378.134594 177.121456 
L 376.689372 123.149646 
L 375.244151 198.640232 
L 373.798929 171.460395 
L 372.353708 199.894009 
L 370.908486 160.12846 
L 369.463265 182.467606 
L 368.018043 154.216926 
L 366.572822 173.247944 
L 365.127601 190.721639 
L 363.682379 180.144661 
L 362.237158 181.659249 
L 360.791936 178.345838 
L 359.346715 175.353703 
L 357.901493 161.554822 
L 356.456272 175.796291 
L 355.01105 189.280895 
L 353.565829 166.022228 
L 352.120608 185.891297 
L 350.675386 182.341128 
L 349.230165 176.699131 
L 347.784943 141.701778 
L 346.339722 167.262807 
L 344.8945 184.61301 
L 343.449279 191.139565 
L 342.004057 196.242658 
L 340.558836 185.658539 
L 339.113615 181.111347 
L 337.668393 199.126895 
L 336.223172 170.73599 
L 334.77795 207.87859 
L 333.332729 176.369189 
L 331.887507 167.559755 
L 330.442286 164.617777 
L 328.997064 164.920224 
L 327.551843 143.985444 
L 326.106622 148.211993 
L 324.6614 181.087351 
L 323.216179 160.806955 
L 321.770957 189.017942 
L 320.325736 191.868185 
L 318.880514 195.112859 
L 317.435293 179.107703 
L 315.990071 202.148608 
L 314.54485 188.01612 
L 313.099628 209.302837 
L 311.654407 188.734659 
L 310.209186 128.544188 
L 308.763964 192.679291 
L 307.318743 180.123922 
L 305.873521 208.286893 
L 304.4283 184.419759 
L 302.983078 142.399368 
L 301.537857 187.576198 
L 300.092635 126.663522 
L 298.647414 150.751599 
L 297.202193 155.981351 
L 295.756971 211.062524 
L 294.31175 185.327098 
L 292.866528 182.803046 
L 291.421307 184.347948 
L 289.976085 175.304379 
L 288.530864 160.638318 
L 287.085642 178.61579 
L 285.640421 209.05978 
L 284.1952 186.6775 
L 282.749978 133.552504 
L 281.304757 181.747234 
L 279.859535 162.953773 
L 278.414314 196.258655 
L 276.969092 166.954862 
L 275.523871 173.789824 
L 274.078649 186.554951 
L 272.633428 161.158892 
L 271.188207 162.786603 
L 269.742985 162.324685 
L 268.297764 170.618783 
L 266.852542 179.665604 
L 265.407321 178.433928 
L 263.962099 179.676459 
L 262.516878 149.478968 
L 261.071656 154.237069 
L 259.626435 148.868576 
L 258.181214 204.117259 
L 256.735992 194.435836 
L 255.290771 125.32286 
L 253.845549 166.792641 
L 252.400328 108.011936 
L 250.955106 161.505331 
L 249.509885 176.360941 
L 248.064663 190.08206 
L 246.619442 181.237324 
L 245.174221 176.559822 
L 243.728999 180.302824 
L 242.283778 80.613605 
L 240.838556 164.514867 
L 239.393335 201.593207 
L 237.948113 174.831663 
L 236.502892 184.931168 
L 235.05767 143.171588 
L 233.612449 175.412359 
L 232.167228 127.474416 
L 230.722006 195.771942 
L 229.276785 181.788476 
L 227.831563 164.554289 
L 226.386342 170.340689 
L 224.94112 179.332063 
L 223.495899 177.514557 
L 222.050677 167.823708 
L 220.605456 198.781635 
L 219.160235 196.752967 
L 217.715013 138.47359 
L 216.269792 172.464883 
L 214.82457 199.959997 
L 213.379349 200.524564 
L 211.934127 197.835175 
L 210.488906 174.884453 
L 209.043684 185.599299 
L 207.598463 180.30649 
L 206.153242 188.032617 
L 204.70802 179.492634 
L 203.262799 202.863481 
L 201.817577 171.832495 
L 200.372356 146.212548 
L 198.927134 202.786495 
L 197.481913 151.128674 
L 196.036691 170.538654 
L 194.59147 142.104778 
L 193.146249 196.000701 
L 191.701027 185.673536 
L 190.255806 200.751857 
L 188.810584 203.919294 
L 187.365363 160.169068 
L 185.920141 145.849613 
L 184.47492 201.279763 
L 183.029698 154.296112 
L 180.139256 204.859627 
z
" style="fill:#ff7f0e;fill-opacity:0.2;stroke:#ff7f0e;stroke-opacity:0.2;"/>
   </g>
   <g id="matplotlib.axis_1">
    <g id="xtick_1">
     <g id="line2d_1">
      <defs>
       <path d="M 0 0 
L 0 3.5 
" id="m67a07a1b54" style="stroke:#000000;stroke-width:0.8;"/>
      </defs>
      <g>
       <use style="stroke:#000000;stroke-width:0.8;" x="41.397997" xlink:href="#m67a07a1b54" y="252"/>
      </g>
     </g>
     <g id="text_1">
      <!-- Mar 2020 -->
      <g transform="translate(44.157372 306.495312)rotate(-90)scale(0.1 -0.1)">
       <defs>
        <path d="M 628 4666 
L 1569 4666 
L 2759 1491 
L 3956 4666 
L 4897 4666 
L 4897 0 
L 4281 0 
L 4281 4097 
L 3078 897 
L 2444 897 
L 1241 4097 
L 1241 0 
L 628 0 
L 628 4666 
z
" id="DejaVuSans-4d" transform="scale(0.015625)"/>
        <path d="M 2194 1759 
Q 1497 1759 1228 1600 
Q 959 1441 959 1056 
Q 959 750 1161 570 
Q 1363 391 1709 391 
Q 2188 391 2477 730 
Q 2766 1069 2766 1631 
L 2766 1759 
L 2194 1759 
z
M 3341 1997 
L 3341 0 
L 2766 0 
L 2766 531 
Q 2569 213 2275 61 
Q 1981 -91 1556 -91 
Q 1019 -91 701 211 
Q 384 513 384 1019 
Q 384 1609 779 1909 
Q 1175 2209 1959 2209 
L 2766 2209 
L 2766 2266 
Q 2766 2663 2505 2880 
Q 2244 3097 1772 3097 
Q 1472 3097 1187 3025 
Q 903 2953 641 2809 
L 641 3341 
Q 956 3463 1253 3523 
Q 1550 3584 1831 3584 
Q 2591 3584 2966 3190 
Q 3341 2797 3341 1997 
z
" id="DejaVuSans-61" transform="scale(0.015625)"/>
        <path d="M 2631 2963 
Q 2534 3019 2420 3045 
Q 2306 3072 2169 3072 
Q 1681 3072 1420 2755 
Q 1159 2438 1159 1844 
L 1159 0 
L 581 0 
L 581 3500 
L 1159 3500 
L 1159 2956 
Q 1341 3275 1631 3429 
Q 1922 3584 2338 3584 
Q 2397 3584 2469 3576 
Q 2541 3569 2628 3553 
L 2631 2963 
z
" id="DejaVuSans-72" transform="scale(0.015625)"/>
        <path id="DejaVuSans-20" transform="scale(0.015625)"/>
        <path d="M 1228 531 
L 3431 531 
L 3431 0 
L 469 0 
L 469 531 
Q 828 903 1448 1529 
Q 2069 2156 2228 2338 
Q 2531 2678 2651 2914 
Q 2772 3150 2772 3378 
Q 2772 3750 2511 3984 
Q 2250 4219 1831 4219 
Q 1534 4219 1204 4116 
Q 875 4013 500 3803 
L 500 4441 
Q 881 4594 1212 4672 
Q 1544 4750 1819 4750 
Q 2544 4750 2975 4387 
Q 3406 4025 3406 3419 
Q 3406 3131 3298 2873 
Q 3191 2616 2906 2266 
Q 2828 2175 2409 1742 
Q 1991 1309 1228 531 
z
" id="DejaVuSans-32" transform="scale(0.015625)"/>
        <path d="M 2034 4250 
Q 1547 4250 1301 3770 
Q 1056 3291 1056 2328 
Q 1056 1369 1301 889 
Q 1547 409 2034 409 
Q 2525 409 2770 889 
Q 3016 1369 3016 2328 
Q 3016 3291 2770 3770 
Q 2525 4250 2034 4250 
z
M 2034 4750 
Q 2819 4750 3233 4129 
Q 3647 3509 3647 2328 
Q 3647 1150 3233 529 
Q 2819 -91 2034 -91 
Q 1250 -91 836 529 
Q 422 1150 422 2328 
Q 422 3509 836 4129 
Q 1250 4750 2034 4750 
z
" id="DejaVuSans-30" transform="scale(0.015625)"/>
       </defs>
       <use xlink:href="#DejaVuSans-4d"/>
       <use x="86.279297" xlink:href="#DejaVuSans-61"/>
       <use x="147.558594" xlink:href="#DejaVuSans-72"/>
       <use x="188.671875" xlink:href="#DejaVuSans-20"/>
       <use x="220.458984" xlink:href="#DejaVuSans-32"/>
       <use x="284.082031" xlink:href="#DejaVuSans-30"/>
       <use x="347.705078" xlink:href="#DejaVuSans-32"/>
       <use x="411.328125" xlink:href="#DejaVuSans-30"/>
      </g>
     </g>
    </g>
    <g id="xtick_2">
     <g id="line2d_2">
      <g>
       <use style="stroke:#000000;stroke-width:0.8;" x="86.199862" xlink:href="#m67a07a1b54" y="252"/>
      </g>
     </g>
     <g id="text_2">
      <!-- Apr 2020 -->
      <g transform="translate(88.959237 304.928125)rotate(-90)scale(0.1 -0.1)">
       <defs>
        <path d="M 2188 4044 
L 1331 1722 
L 3047 1722 
L 2188 4044 
z
M 1831 4666 
L 2547 4666 
L 4325 0 
L 3669 0 
L 3244 1197 
L 1141 1197 
L 716 0 
L 50 0 
L 1831 4666 
z
" id="DejaVuSans-41" transform="scale(0.015625)"/>
        <path d="M 1159 525 
L 1159 -1331 
L 581 -1331 
L 581 3500 
L 1159 3500 
L 1159 2969 
Q 1341 3281 1617 3432 
Q 1894 3584 2278 3584 
Q 2916 3584 3314 3078 
Q 3713 2572 3713 1747 
Q 3713 922 3314 415 
Q 2916 -91 2278 -91 
Q 1894 -91 1617 61 
Q 1341 213 1159 525 
z
M 3116 1747 
Q 3116 2381 2855 2742 
Q 2594 3103 2138 3103 
Q 1681 3103 1420 2742 
Q 1159 2381 1159 1747 
Q 1159 1113 1420 752 
Q 1681 391 2138 391 
Q 2594 391 2855 752 
Q 3116 1113 3116 1747 
z
" id="DejaVuSans-70" transform="scale(0.015625)"/>
       </defs>
       <use xlink:href="#DejaVuSans-41"/>
       <use x="68.408203" xlink:href="#DejaVuSans-70"/>
       <use x="131.884766" xlink:href="#DejaVuSans-72"/>
       <use x="172.998047" xlink:href="#DejaVuSans-20"/>
       <use x="204.785156" xlink:href="#DejaVuSans-32"/>
       <use x="268.408203" xlink:href="#DejaVuSans-30"/>
       <use x="332.03125" xlink:href="#DejaVuSans-32"/>
       <use x="395.654297" xlink:href="#DejaVuSans-30"/>
      </g>
     </g>
    </g>
    <g id="xtick_3">
     <g id="line2d_3">
      <g>
       <use style="stroke:#000000;stroke-width:0.8;" x="129.556505" xlink:href="#m67a07a1b54" y="252"/>
      </g>
     </g>
     <g id="text_3">
      <!-- May 2020 -->
      <g transform="translate(132.31588 308.303125)rotate(-90)scale(0.1 -0.1)">
       <defs>
        <path d="M 2059 -325 
Q 1816 -950 1584 -1140 
Q 1353 -1331 966 -1331 
L 506 -1331 
L 506 -850 
L 844 -850 
Q 1081 -850 1212 -737 
Q 1344 -625 1503 -206 
L 1606 56 
L 191 3500 
L 800 3500 
L 1894 763 
L 2988 3500 
L 3597 3500 
L 2059 -325 
z
" id="DejaVuSans-79" transform="scale(0.015625)"/>
       </defs>
       <use xlink:href="#DejaVuSans-4d"/>
       <use x="86.279297" xlink:href="#DejaVuSans-61"/>
       <use x="147.558594" xlink:href="#DejaVuSans-79"/>
       <use x="206.738281" xlink:href="#DejaVuSans-20"/>
       <use x="238.525391" xlink:href="#DejaVuSans-32"/>
       <use x="302.148438" xlink:href="#DejaVuSans-30"/>
       <use x="365.771484" xlink:href="#DejaVuSans-32"/>
       <use x="429.394531" xlink:href="#DejaVuSans-30"/>
      </g>
     </g>
    </g>
    <g id="xtick_4">
     <g id="line2d_4">
      <g>
       <use style="stroke:#000000;stroke-width:0.8;" x="174.35837" xlink:href="#m67a07a1b54" y="252"/>
      </g>
     </g>
     <g id="text_4">
      <!-- Jun 2020 -->
      <g transform="translate(177.117745 303.253125)rotate(-90)scale(0.1 -0.1)">
       <defs>
        <path d="M 628 4666 
L 1259 4666 
L 1259 325 
Q 1259 -519 939 -900 
Q 619 -1281 -91 -1281 
L -331 -1281 
L -331 -750 
L -134 -750 
Q 284 -750 456 -515 
Q 628 -281 628 325 
L 628 4666 
z
" id="DejaVuSans-4a" transform="scale(0.015625)"/>
        <path d="M 544 1381 
L 544 3500 
L 1119 3500 
L 1119 1403 
Q 1119 906 1312 657 
Q 1506 409 1894 409 
Q 2359 409 2629 706 
Q 2900 1003 2900 1516 
L 2900 3500 
L 3475 3500 
L 3475 0 
L 2900 0 
L 2900 538 
Q 2691 219 2414 64 
Q 2138 -91 1772 -91 
Q 1169 -91 856 284 
Q 544 659 544 1381 
z
M 1991 3584 
L 1991 3584 
z
" id="DejaVuSans-75" transform="scale(0.015625)"/>
        <path d="M 3513 2113 
L 3513 0 
L 2938 0 
L 2938 2094 
Q 2938 2591 2744 2837 
Q 2550 3084 2163 3084 
Q 1697 3084 1428 2787 
Q 1159 2491 1159 1978 
L 1159 0 
L 581 0 
L 581 3500 
L 1159 3500 
L 1159 2956 
Q 1366 3272 1645 3428 
Q 1925 3584 2291 3584 
Q 2894 3584 3203 3211 
Q 3513 2838 3513 2113 
z
" id="DejaVuSans-6e" transform="scale(0.015625)"/>
       </defs>
       <use xlink:href="#DejaVuSans-4a"/>
       <use x="29.492188" xlink:href="#DejaVuSans-75"/>
       <use x="92.871094" xlink:href="#DejaVuSans-6e"/>
       <use x="156.25" xlink:href="#DejaVuSans-20"/>
       <use x="188.037109" xlink:href="#DejaVuSans-32"/>
       <use x="251.660156" xlink:href="#DejaVuSans-30"/>
       <use x="315.283203" xlink:href="#DejaVuSans-32"/>
       <use x="378.90625" xlink:href="#DejaVuSans-30"/>
      </g>
     </g>
    </g>
    <g id="xtick_5">
     <g id="line2d_5">
      <g>
       <use style="stroke:#000000;stroke-width:0.8;" x="217.715013" xlink:href="#m67a07a1b54" y="252"/>
      </g>
     </g>
     <g id="text_5">
      <!-- Jul 2020 -->
      <g transform="translate(220.474388 299.69375)rotate(-90)scale(0.1 -0.1)">
       <defs>
        <path d="M 603 4863 
L 1178 4863 
L 1178 0 
L 603 0 
L 603 4863 
z
" id="DejaVuSans-6c" transform="scale(0.015625)"/>
       </defs>
       <use xlink:href="#DejaVuSans-4a"/>
       <use x="29.492188" xlink:href="#DejaVuSans-75"/>
       <use x="92.871094" xlink:href="#DejaVuSans-6c"/>
       <use x="120.654297" xlink:href="#DejaVuSans-20"/>
       <use x="152.441406" xlink:href="#DejaVuSans-32"/>
       <use x="216.064453" xlink:href="#DejaVuSans-30"/>
       <use x="279.6875" xlink:href="#DejaVuSans-32"/>
       <use x="343.310547" xlink:href="#DejaVuSans-30"/>
      </g>
     </g>
    </g>
    <g id="xtick_6">
     <g id="line2d_6">
      <g>
       <use style="stroke:#000000;stroke-width:0.8;" x="262.516878" xlink:href="#m67a07a1b54" y="252"/>
      </g>
     </g>
     <g id="text_6">
      <!-- Aug 2020 -->
      <g transform="translate(265.276253 307.154687)rotate(-90)scale(0.1 -0.1)">
       <defs>
        <path d="M 2906 1791 
Q 2906 2416 2648 2759 
Q 2391 3103 1925 3103 
Q 1463 3103 1205 2759 
Q 947 2416 947 1791 
Q 947 1169 1205 825 
Q 1463 481 1925 481 
Q 2391 481 2648 825 
Q 2906 1169 2906 1791 
z
M 3481 434 
Q 3481 -459 3084 -895 
Q 2688 -1331 1869 -1331 
Q 1566 -1331 1297 -1286 
Q 1028 -1241 775 -1147 
L 775 -588 
Q 1028 -725 1275 -790 
Q 1522 -856 1778 -856 
Q 2344 -856 2625 -561 
Q 2906 -266 2906 331 
L 2906 616 
Q 2728 306 2450 153 
Q 2172 0 1784 0 
Q 1141 0 747 490 
Q 353 981 353 1791 
Q 353 2603 747 3093 
Q 1141 3584 1784 3584 
Q 2172 3584 2450 3431 
Q 2728 3278 2906 2969 
L 2906 3500 
L 3481 3500 
L 3481 434 
z
" id="DejaVuSans-67" transform="scale(0.015625)"/>
       </defs>
       <use xlink:href="#DejaVuSans-41"/>
       <use x="68.408203" xlink:href="#DejaVuSans-75"/>
       <use x="131.787109" xlink:href="#DejaVuSans-67"/>
       <use x="195.263672" xlink:href="#DejaVuSans-20"/>
       <use x="227.050781" xlink:href="#DejaVuSans-32"/>
       <use x="290.673828" xlink:href="#DejaVuSans-30"/>
       <use x="354.296875" xlink:href="#DejaVuSans-32"/>
       <use x="417.919922" xlink:href="#DejaVuSans-30"/>
      </g>
     </g>
    </g>
    <g id="xtick_7">
     <g id="line2d_7">
      <g>
       <use style="stroke:#000000;stroke-width:0.8;" x="307.318743" xlink:href="#m67a07a1b54" y="252"/>
      </g>
     </g>
     <g id="text_7">
      <!-- Sep 2020 -->
      <g transform="translate(310.078118 306.478125)rotate(-90)scale(0.1 -0.1)">
       <defs>
        <path d="M 3425 4513 
L 3425 3897 
Q 3066 4069 2747 4153 
Q 2428 4238 2131 4238 
Q 1616 4238 1336 4038 
Q 1056 3838 1056 3469 
Q 1056 3159 1242 3001 
Q 1428 2844 1947 2747 
L 2328 2669 
Q 3034 2534 3370 2195 
Q 3706 1856 3706 1288 
Q 3706 609 3251 259 
Q 2797 -91 1919 -91 
Q 1588 -91 1214 -16 
Q 841 59 441 206 
L 441 856 
Q 825 641 1194 531 
Q 1563 422 1919 422 
Q 2459 422 2753 634 
Q 3047 847 3047 1241 
Q 3047 1584 2836 1778 
Q 2625 1972 2144 2069 
L 1759 2144 
Q 1053 2284 737 2584 
Q 422 2884 422 3419 
Q 422 4038 858 4394 
Q 1294 4750 2059 4750 
Q 2388 4750 2728 4690 
Q 3069 4631 3425 4513 
z
" id="DejaVuSans-53" transform="scale(0.015625)"/>
        <path d="M 3597 1894 
L 3597 1613 
L 953 1613 
Q 991 1019 1311 708 
Q 1631 397 2203 397 
Q 2534 397 2845 478 
Q 3156 559 3463 722 
L 3463 178 
Q 3153 47 2828 -22 
Q 2503 -91 2169 -91 
Q 1331 -91 842 396 
Q 353 884 353 1716 
Q 353 2575 817 3079 
Q 1281 3584 2069 3584 
Q 2775 3584 3186 3129 
Q 3597 2675 3597 1894 
z
M 3022 2063 
Q 3016 2534 2758 2815 
Q 2500 3097 2075 3097 
Q 1594 3097 1305 2825 
Q 1016 2553 972 2059 
L 3022 2063 
z
" id="DejaVuSans-65" transform="scale(0.015625)"/>
       </defs>
       <use xlink:href="#DejaVuSans-53"/>
       <use x="63.476562" xlink:href="#DejaVuSans-65"/>
       <use x="125" xlink:href="#DejaVuSans-70"/>
       <use x="188.476562" xlink:href="#DejaVuSans-20"/>
       <use x="220.263672" xlink:href="#DejaVuSans-32"/>
       <use x="283.886719" xlink:href="#DejaVuSans-30"/>
       <use x="347.509766" xlink:href="#DejaVuSans-32"/>
       <use x="411.132812" xlink:href="#DejaVuSans-30"/>
      </g>
     </g>
    </g>
    <g id="xtick_8">
     <g id="line2d_8">
      <g>
       <use style="stroke:#000000;stroke-width:0.8;" x="350.675386" xlink:href="#m67a07a1b54" y="252"/>
      </g>
     </g>
     <g id="text_8">
      <!-- Oct 2020 -->
      <g transform="translate(353.434761 304.91875)rotate(-90)scale(0.1 -0.1)">
       <defs>
        <path d="M 2522 4238 
Q 1834 4238 1429 3725 
Q 1025 3213 1025 2328 
Q 1025 1447 1429 934 
Q 1834 422 2522 422 
Q 3209 422 3611 934 
Q 4013 1447 4013 2328 
Q 4013 3213 3611 3725 
Q 3209 4238 2522 4238 
z
M 2522 4750 
Q 3503 4750 4090 4092 
Q 4678 3434 4678 2328 
Q 4678 1225 4090 567 
Q 3503 -91 2522 -91 
Q 1538 -91 948 565 
Q 359 1222 359 2328 
Q 359 3434 948 4092 
Q 1538 4750 2522 4750 
z
" id="DejaVuSans-4f" transform="scale(0.015625)"/>
        <path d="M 3122 3366 
L 3122 2828 
Q 2878 2963 2633 3030 
Q 2388 3097 2138 3097 
Q 1578 3097 1268 2742 
Q 959 2388 959 1747 
Q 959 1106 1268 751 
Q 1578 397 2138 397 
Q 2388 397 2633 464 
Q 2878 531 3122 666 
L 3122 134 
Q 2881 22 2623 -34 
Q 2366 -91 2075 -91 
Q 1284 -91 818 406 
Q 353 903 353 1747 
Q 353 2603 823 3093 
Q 1294 3584 2113 3584 
Q 2378 3584 2631 3529 
Q 2884 3475 3122 3366 
z
" id="DejaVuSans-63" transform="scale(0.015625)"/>
        <path d="M 1172 4494 
L 1172 3500 
L 2356 3500 
L 2356 3053 
L 1172 3053 
L 1172 1153 
Q 1172 725 1289 603 
Q 1406 481 1766 481 
L 2356 481 
L 2356 0 
L 1766 0 
Q 1100 0 847 248 
Q 594 497 594 1153 
L 594 3053 
L 172 3053 
L 172 3500 
L 594 3500 
L 594 4494 
L 1172 4494 
z
" id="DejaVuSans-74" transform="scale(0.015625)"/>
       </defs>
       <use xlink:href="#DejaVuSans-4f"/>
       <use x="78.710938" xlink:href="#DejaVuSans-63"/>
       <use x="133.691406" xlink:href="#DejaVuSans-74"/>
       <use x="172.900391" xlink:href="#DejaVuSans-20"/>
       <use x="204.6875" xlink:href="#DejaVuSans-32"/>
       <use x="268.310547" xlink:href="#DejaVuSans-30"/>
       <use x="331.933594" xlink:href="#DejaVuSans-32"/>
       <use x="395.556641" xlink:href="#DejaVuSans-30"/>
      </g>
     </g>
    </g>
    <g id="xtick_9">
     <g id="line2d_9">
      <g>
       <use style="stroke:#000000;stroke-width:0.8;" x="395.477251" xlink:href="#m67a07a1b54" y="252"/>
      </g>
     </g>
     <g id="text_9">
      <!-- Nov 2020 -->
      <g transform="translate(398.236626 307.146875)rotate(-90)scale(0.1 -0.1)">
       <defs>
        <path d="M 628 4666 
L 1478 4666 
L 3547 763 
L 3547 4666 
L 4159 4666 
L 4159 0 
L 3309 0 
L 1241 3903 
L 1241 0 
L 628 0 
L 628 4666 
z
" id="DejaVuSans-4e" transform="scale(0.015625)"/>
        <path d="M 1959 3097 
Q 1497 3097 1228 2736 
Q 959 2375 959 1747 
Q 959 1119 1226 758 
Q 1494 397 1959 397 
Q 2419 397 2687 759 
Q 2956 1122 2956 1747 
Q 2956 2369 2687 2733 
Q 2419 3097 1959 3097 
z
M 1959 3584 
Q 2709 3584 3137 3096 
Q 3566 2609 3566 1747 
Q 3566 888 3137 398 
Q 2709 -91 1959 -91 
Q 1206 -91 779 398 
Q 353 888 353 1747 
Q 353 2609 779 3096 
Q 1206 3584 1959 3584 
z
" id="DejaVuSans-6f" transform="scale(0.015625)"/>
        <path d="M 191 3500 
L 800 3500 
L 1894 563 
L 2988 3500 
L 3597 3500 
L 2284 0 
L 1503 0 
L 191 3500 
z
" id="DejaVuSans-76" transform="scale(0.015625)"/>
       </defs>
       <use xlink:href="#DejaVuSans-4e"/>
       <use x="74.804688" xlink:href="#DejaVuSans-6f"/>
       <use x="135.986328" xlink:href="#DejaVuSans-76"/>
       <use x="195.166016" xlink:href="#DejaVuSans-20"/>
       <use x="226.953125" xlink:href="#DejaVuSans-32"/>
       <use x="290.576172" xlink:href="#DejaVuSans-30"/>
       <use x="354.199219" xlink:href="#DejaVuSans-32"/>
       <use x="417.822266" xlink:href="#DejaVuSans-30"/>
      </g>
     </g>
    </g>
    <g id="xtick_10">
     <g id="line2d_10">
      <g>
       <use style="stroke:#000000;stroke-width:0.8;" x="438.833894" xlink:href="#m67a07a1b54" y="252"/>
      </g>
     </g>
     <g id="text_10">
      <!-- Dec 2020 -->
      <g transform="translate(441.593269 306.979687)rotate(-90)scale(0.1 -0.1)">
       <defs>
        <path d="M 1259 4147 
L 1259 519 
L 2022 519 
Q 2988 519 3436 956 
Q 3884 1394 3884 2338 
Q 3884 3275 3436 3711 
Q 2988 4147 2022 4147 
L 1259 4147 
z
M 628 4666 
L 1925 4666 
Q 3281 4666 3915 4102 
Q 4550 3538 4550 2338 
Q 4550 1131 3912 565 
Q 3275 0 1925 0 
L 628 0 
L 628 4666 
z
" id="DejaVuSans-44" transform="scale(0.015625)"/>
       </defs>
       <use xlink:href="#DejaVuSans-44"/>
       <use x="77.001953" xlink:href="#DejaVuSans-65"/>
       <use x="138.525391" xlink:href="#DejaVuSans-63"/>
       <use x="193.505859" xlink:href="#DejaVuSans-20"/>
       <use x="225.292969" xlink:href="#DejaVuSans-32"/>
       <use x="288.916016" xlink:href="#DejaVuSans-30"/>
       <use x="352.539062" xlink:href="#DejaVuSans-32"/>
       <use x="416.162109" xlink:href="#DejaVuSans-30"/>
      </g>
     </g>
    </g>
    <g id="xtick_11">
     <g id="line2d_11">
      <g>
       <use style="stroke:#000000;stroke-width:0.8;" x="483.635759" xlink:href="#m67a07a1b54" y="252"/>
      </g>
     </g>
     <g id="text_11">
      <!-- Jan 2021 -->
      <g transform="translate(486.395134 303.04375)rotate(-90)scale(0.1 -0.1)">
       <defs>
        <path d="M 794 531 
L 1825 531 
L 1825 4091 
L 703 3866 
L 703 4441 
L 1819 4666 
L 2450 4666 
L 2450 531 
L 3481 531 
L 3481 0 
L 794 0 
L 794 531 
z
" id="DejaVuSans-31" transform="scale(0.015625)"/>
       </defs>
       <use xlink:href="#DejaVuSans-4a"/>
       <use x="29.492188" xlink:href="#DejaVuSans-61"/>
       <use x="90.771484" xlink:href="#DejaVuSans-6e"/>
       <use x="154.150391" xlink:href="#DejaVuSans-20"/>
       <use x="185.9375" xlink:href="#DejaVuSans-32"/>
       <use x="249.560547" xlink:href="#DejaVuSans-30"/>
       <use x="313.183594" xlink:href="#DejaVuSans-32"/>
       <use x="376.806641" xlink:href="#DejaVuSans-31"/>
      </g>
     </g>
    </g>
    <g id="xtick_12">
     <g id="line2d_12">
      <g>
       <use style="stroke:#000000;stroke-width:0.8;" x="528.437624" xlink:href="#m67a07a1b54" y="252"/>
      </g>
     </g>
     <g id="text_12">
      <!-- Feb 2021 -->
      <g transform="translate(531.196999 305.33125)rotate(-90)scale(0.1 -0.1)">
       <defs>
        <path d="M 628 4666 
L 3309 4666 
L 3309 4134 
L 1259 4134 
L 1259 2759 
L 3109 2759 
L 3109 2228 
L 1259 2228 
L 1259 0 
L 628 0 
L 628 4666 
z
" id="DejaVuSans-46" transform="scale(0.015625)"/>
        <path d="M 3116 1747 
Q 3116 2381 2855 2742 
Q 2594 3103 2138 3103 
Q 1681 3103 1420 2742 
Q 1159 2381 1159 1747 
Q 1159 1113 1420 752 
Q 1681 391 2138 391 
Q 2594 391 2855 752 
Q 3116 1113 3116 1747 
z
M 1159 2969 
Q 1341 3281 1617 3432 
Q 1894 3584 2278 3584 
Q 2916 3584 3314 3078 
Q 3713 2572 3713 1747 
Q 3713 922 3314 415 
Q 2916 -91 2278 -91 
Q 1894 -91 1617 61 
Q 1341 213 1159 525 
L 1159 0 
L 581 0 
L 581 4863 
L 1159 4863 
L 1159 2969 
z
" id="DejaVuSans-62" transform="scale(0.015625)"/>
       </defs>
       <use xlink:href="#DejaVuSans-46"/>
       <use x="52.019531" xlink:href="#DejaVuSans-65"/>
       <use x="113.542969" xlink:href="#DejaVuSans-62"/>
       <use x="177.019531" xlink:href="#DejaVuSans-20"/>
       <use x="208.806641" xlink:href="#DejaVuSans-32"/>
       <use x="272.429688" xlink:href="#DejaVuSans-30"/>
       <use x="336.052734" xlink:href="#DejaVuSans-32"/>
       <use x="399.675781" xlink:href="#DejaVuSans-31"/>
      </g>
     </g>
    </g>
    <g id="xtick_13">
     <g id="line2d_13">
      <g>
       <use style="stroke:#000000;stroke-width:0.8;" x="568.903824" xlink:href="#m67a07a1b54" y="252"/>
      </g>
     </g>
     <g id="text_13">
      <!-- Mar 2021 -->
      <g transform="translate(571.663199 306.495312)rotate(-90)scale(0.1 -0.1)">
       <use xlink:href="#DejaVuSans-4d"/>
       <use x="86.279297" xlink:href="#DejaVuSans-61"/>
       <use x="147.558594" xlink:href="#DejaVuSans-72"/>
       <use x="188.671875" xlink:href="#DejaVuSans-20"/>
       <use x="220.458984" xlink:href="#DejaVuSans-32"/>
       <use x="284.082031" xlink:href="#DejaVuSans-30"/>
       <use x="347.705078" xlink:href="#DejaVuSans-32"/>
       <use x="411.328125" xlink:href="#DejaVuSans-31"/>
      </g>
     </g>
    </g>
    <g id="text_14">
     <!-- Start date -->
     <g transform="translate(294.525 319.901562)scale(0.1 -0.1)">
      <defs>
       <path d="M 2906 2969 
L 2906 4863 
L 3481 4863 
L 3481 0 
L 2906 0 
L 2906 525 
Q 2725 213 2448 61 
Q 2172 -91 1784 -91 
Q 1150 -91 751 415 
Q 353 922 353 1747 
Q 353 2572 751 3078 
Q 1150 3584 1784 3584 
Q 2172 3584 2448 3432 
Q 2725 3281 2906 2969 
z
M 947 1747 
Q 947 1113 1208 752 
Q 1469 391 1925 391 
Q 2381 391 2643 752 
Q 2906 1113 2906 1747 
Q 2906 2381 2643 2742 
Q 2381 3103 1925 3103 
Q 1469 3103 1208 2742 
Q 947 2381 947 1747 
z
" id="DejaVuSans-64" transform="scale(0.015625)"/>
      </defs>
      <use xlink:href="#DejaVuSans-53"/>
      <use x="63.476562" xlink:href="#DejaVuSans-74"/>
      <use x="102.685547" xlink:href="#DejaVuSans-61"/>
      <use x="163.964844" xlink:href="#DejaVuSans-72"/>
      <use x="205.078125" xlink:href="#DejaVuSans-74"/>
      <use x="244.287109" xlink:href="#DejaVuSans-20"/>
      <use x="276.074219" xlink:href="#DejaVuSans-64"/>
      <use x="339.550781" xlink:href="#DejaVuSans-61"/>
      <use x="400.830078" xlink:href="#DejaVuSans-74"/>
      <use x="440.039062" xlink:href="#DejaVuSans-65"/>
     </g>
    </g>
   </g>
   <g id="matplotlib.axis_2">
    <g id="ytick_1">
     <g id="line2d_14">
      <defs>
       <path d="M 0 0 
L -3.5 0 
" id="mfc194814d6" style="stroke:#000000;stroke-width:0.8;"/>
      </defs>
      <g>
       <use style="stroke:#000000;stroke-width:0.8;" x="40.603125" xlink:href="#mfc194814d6" y="240.872727"/>
      </g>
     </g>
     <g id="text_15">
      <!-- 0 -->
      <g transform="translate(27.240625 244.671946)scale(0.1 -0.1)">
       <use xlink:href="#DejaVuSans-30"/>
      </g>
     </g>
    </g>
    <g id="ytick_2">
     <g id="line2d_15">
      <g>
       <use style="stroke:#000000;stroke-width:0.8;" x="40.603125" xlink:href="#mfc194814d6" y="188.082108"/>
      </g>
     </g>
     <g id="text_16">
      <!-- 20 -->
      <g transform="translate(20.878125 191.881327)scale(0.1 -0.1)">
       <use xlink:href="#DejaVuSans-32"/>
       <use x="63.623047" xlink:href="#DejaVuSans-30"/>
      </g>
     </g>
    </g>
    <g id="ytick_3">
     <g id="line2d_16">
      <g>
       <use style="stroke:#000000;stroke-width:0.8;" x="40.603125" xlink:href="#mfc194814d6" y="135.291489"/>
      </g>
     </g>
     <g id="text_17">
      <!-- 40 -->
      <g transform="translate(20.878125 139.090707)scale(0.1 -0.1)">
       <defs>
        <path d="M 2419 4116 
L 825 1625 
L 2419 1625 
L 2419 4116 
z
M 2253 4666 
L 3047 4666 
L 3047 1625 
L 3713 1625 
L 3713 1100 
L 3047 1100 
L 3047 0 
L 2419 0 
L 2419 1100 
L 313 1100 
L 313 1709 
L 2253 4666 
z
" id="DejaVuSans-34" transform="scale(0.015625)"/>
       </defs>
       <use xlink:href="#DejaVuSans-34"/>
       <use x="63.623047" xlink:href="#DejaVuSans-30"/>
      </g>
     </g>
    </g>
    <g id="ytick_4">
     <g id="line2d_17">
      <g>
       <use style="stroke:#000000;stroke-width:0.8;" x="40.603125" xlink:href="#mfc194814d6" y="82.500869"/>
      </g>
     </g>
     <g id="text_18">
      <!-- 60 -->
      <g transform="translate(20.878125 86.300088)scale(0.1 -0.1)">
       <defs>
        <path d="M 2113 2584 
Q 1688 2584 1439 2293 
Q 1191 2003 1191 1497 
Q 1191 994 1439 701 
Q 1688 409 2113 409 
Q 2538 409 2786 701 
Q 3034 994 3034 1497 
Q 3034 2003 2786 2293 
Q 2538 2584 2113 2584 
z
M 3366 4563 
L 3366 3988 
Q 3128 4100 2886 4159 
Q 2644 4219 2406 4219 
Q 1781 4219 1451 3797 
Q 1122 3375 1075 2522 
Q 1259 2794 1537 2939 
Q 1816 3084 2150 3084 
Q 2853 3084 3261 2657 
Q 3669 2231 3669 1497 
Q 3669 778 3244 343 
Q 2819 -91 2113 -91 
Q 1303 -91 875 529 
Q 447 1150 447 2328 
Q 447 3434 972 4092 
Q 1497 4750 2381 4750 
Q 2619 4750 2861 4703 
Q 3103 4656 3366 4563 
z
" id="DejaVuSans-36" transform="scale(0.015625)"/>
       </defs>
       <use xlink:href="#DejaVuSans-36"/>
       <use x="63.623047" xlink:href="#DejaVuSans-30"/>
      </g>
     </g>
    </g>
    <g id="ytick_5">
     <g id="line2d_18">
      <g>
       <use style="stroke:#000000;stroke-width:0.8;" x="40.603125" xlink:href="#mfc194814d6" y="29.71025"/>
      </g>
     </g>
     <g id="text_19">
      <!-- 80 -->
      <g transform="translate(20.878125 33.509469)scale(0.1 -0.1)">
       <defs>
        <path d="M 2034 2216 
Q 1584 2216 1326 1975 
Q 1069 1734 1069 1313 
Q 1069 891 1326 650 
Q 1584 409 2034 409 
Q 2484 409 2743 651 
Q 3003 894 3003 1313 
Q 3003 1734 2745 1975 
Q 2488 2216 2034 2216 
z
M 1403 2484 
Q 997 2584 770 2862 
Q 544 3141 544 3541 
Q 544 4100 942 4425 
Q 1341 4750 2034 4750 
Q 2731 4750 3128 4425 
Q 3525 4100 3525 3541 
Q 3525 3141 3298 2862 
Q 3072 2584 2669 2484 
Q 3125 2378 3379 2068 
Q 3634 1759 3634 1313 
Q 3634 634 3220 271 
Q 2806 -91 2034 -91 
Q 1263 -91 848 271 
Q 434 634 434 1313 
Q 434 1759 690 2068 
Q 947 2378 1403 2484 
z
M 1172 3481 
Q 1172 3119 1398 2916 
Q 1625 2713 2034 2713 
Q 2441 2713 2670 2916 
Q 2900 3119 2900 3481 
Q 2900 3844 2670 4047 
Q 2441 4250 2034 4250 
Q 1625 4250 1398 4047 
Q 1172 3844 1172 3481 
z
" id="DejaVuSans-38" transform="scale(0.015625)"/>
       </defs>
       <use xlink:href="#DejaVuSans-38"/>
       <use x="63.623047" xlink:href="#DejaVuSans-30"/>
      </g>
     </g>
    </g>
    <g id="text_20">
     <!-- Stay (in days) -->
     <g transform="translate(14.798437 164.197656)rotate(-90)scale(0.1 -0.1)">
      <defs>
       <path d="M 1984 4856 
Q 1566 4138 1362 3434 
Q 1159 2731 1159 2009 
Q 1159 1288 1364 580 
Q 1569 -128 1984 -844 
L 1484 -844 
Q 1016 -109 783 600 
Q 550 1309 550 2009 
Q 550 2706 781 3412 
Q 1013 4119 1484 4856 
L 1984 4856 
z
" id="DejaVuSans-28" transform="scale(0.015625)"/>
       <path d="M 603 3500 
L 1178 3500 
L 1178 0 
L 603 0 
L 603 3500 
z
M 603 4863 
L 1178 4863 
L 1178 4134 
L 603 4134 
L 603 4863 
z
" id="DejaVuSans-69" transform="scale(0.015625)"/>
       <path d="M 2834 3397 
L 2834 2853 
Q 2591 2978 2328 3040 
Q 2066 3103 1784 3103 
Q 1356 3103 1142 2972 
Q 928 2841 928 2578 
Q 928 2378 1081 2264 
Q 1234 2150 1697 2047 
L 1894 2003 
Q 2506 1872 2764 1633 
Q 3022 1394 3022 966 
Q 3022 478 2636 193 
Q 2250 -91 1575 -91 
Q 1294 -91 989 -36 
Q 684 19 347 128 
L 347 722 
Q 666 556 975 473 
Q 1284 391 1588 391 
Q 1994 391 2212 530 
Q 2431 669 2431 922 
Q 2431 1156 2273 1281 
Q 2116 1406 1581 1522 
L 1381 1569 
Q 847 1681 609 1914 
Q 372 2147 372 2553 
Q 372 3047 722 3315 
Q 1072 3584 1716 3584 
Q 2034 3584 2315 3537 
Q 2597 3491 2834 3397 
z
" id="DejaVuSans-73" transform="scale(0.015625)"/>
       <path d="M 513 4856 
L 1013 4856 
Q 1481 4119 1714 3412 
Q 1947 2706 1947 2009 
Q 1947 1309 1714 600 
Q 1481 -109 1013 -844 
L 513 -844 
Q 928 -128 1133 580 
Q 1338 1288 1338 2009 
Q 1338 2731 1133 3434 
Q 928 4138 513 4856 
z
" id="DejaVuSans-29" transform="scale(0.015625)"/>
      </defs>
      <use xlink:href="#DejaVuSans-53"/>
      <use x="63.476562" xlink:href="#DejaVuSans-74"/>
      <use x="102.685547" xlink:href="#DejaVuSans-61"/>
      <use x="163.964844" xlink:href="#DejaVuSans-79"/>
      <use x="223.144531" xlink:href="#DejaVuSans-20"/>
      <use x="254.931641" xlink:href="#DejaVuSans-28"/>
      <use x="293.945312" xlink:href="#DejaVuSans-69"/>
      <use x="321.728516" xlink:href="#DejaVuSans-6e"/>
      <use x="385.107422" xlink:href="#DejaVuSans-20"/>
      <use x="416.894531" xlink:href="#DejaVuSans-64"/>
      <use x="480.371094" xlink:href="#DejaVuSans-61"/>
      <use x="541.650391" xlink:href="#DejaVuSans-79"/>
      <use x="600.830078" xlink:href="#DejaVuSans-73"/>
      <use x="652.929688" xlink:href="#DejaVuSans-29"/>
     </g>
    </g>
   </g>
   <g id="line2d_19">
    <path clip-path="url(#pc3d6060539)" d="M 65.966761 232.954134 
L 67.411983 201.279763 
L 71.747647 152.44844 
L 73.192869 238.233196 
L 74.63809 235.593665 
L 76.083311 106.256648 
L 77.528533 188.082108 
L 78.973754 178.403828 
L 80.418976 185.442577 
L 81.864197 172.244922 
L 83.309419 198.640232 
L 84.75464 130.012427 
L 86.199862 188.961952 
L 87.645083 211.837887 
L 89.090304 196.000701 
L 90.535526 198.640232 
L 93.425969 198.640232 
L 94.87119 193.36117 
L 96.316412 230.314603 
L 97.761633 174.884453 
L 100.652076 214.477418 
L 104.98774 232.954134 
L 106.432962 229.43476 
L 107.878183 218.436714 
L 116.549512 153.768205 
L 117.994733 238.233196 
L 119.439955 168.285626 
L 120.885176 235.593665 
L 122.330398 225.035541 
L 123.775619 227.675072 
L 125.220841 214.477418 
L 126.666062 217.116949 
L 128.111284 208.318512 
L 131.001726 227.675072 
L 132.446948 218.436714 
L 135.337391 194.680935 
L 136.782612 238.233196 
L 138.227834 235.593665 
L 141.118277 232.954134 
L 142.563498 114.175241 
L 144.008719 190.721639 
L 145.453941 178.183867 
L 146.899162 188.082108 
L 149.789605 196.000701 
L 151.234827 206.558825 
L 152.680048 235.593665 
L 154.12527 227.675072 
L 155.570491 191.249545 
L 157.015712 207.87859 
L 158.460934 193.36117 
L 159.906155 218.436714 
L 161.351377 230.314603 
L 162.796598 230.314603 
L 164.24182 196.754853 
L 165.687041 190.721639 
L 168.577484 222.396011 
L 170.022705 230.314603 
L 171.467927 225.035541 
L 172.913148 210.958043 
L 174.35837 175.764297 
L 175.803591 208.538473 
L 177.248813 235.593665 
L 178.694034 228.334955 
L 180.139256 228.554916 
L 181.584477 211.837887 
L 183.029698 187.026296 
L 184.47492 209.198356 
L 185.920141 196.000701 
L 187.365363 197.509004 
L 188.810584 209.198356 
L 190.255806 206.118903 
L 191.701027 216.589042 
L 193.146249 202.788066 
L 194.59147 126.05313 
L 196.036691 210.078199 
L 197.481913 198.640232 
L 198.927134 234.2739 
L 200.372356 189.841795 
L 201.817577 215.467242 
L 203.262799 218.766655 
L 204.70802 221.076245 
L 206.153242 210.782074 
L 207.598463 222.396011 
L 209.043684 205.239059 
L 210.488906 178.110547 
L 211.934127 214.477418 
L 213.379349 188.082108 
L 214.82457 154.648049 
L 216.269792 215.005324 
L 217.715013 171.255098 
L 219.160235 194.758569 
L 220.605456 144.529847 
L 222.050677 143.587157 
L 223.495899 208.142543 
L 224.94112 200.106638 
L 226.386342 210.664762 
L 227.831563 179.723593 
L 229.276785 218.106773 
L 230.722006 215.06398 
L 232.167228 185.819653 
L 233.612449 198.640232 
L 235.05767 190.061756 
L 236.502892 179.757433 
L 237.948113 216.530386 
L 239.393335 205.503012 
L 240.838556 208.318512 
L 242.283778 192.305358 
L 243.728999 174.297891 
L 245.174221 204.212575 
L 246.619442 193.801092 
L 248.064663 188.082108 
L 249.509885 176.204219 
L 250.955106 216.739873 
L 252.400328 190.721639 
L 253.845549 206.558825 
L 255.290771 226.685248 
L 258.181214 189.521852 
L 259.626435 203.679336 
L 261.071656 195.560779 
L 262.516878 175.874277 
L 263.962099 219.036607 
L 265.407321 210.906287 
L 266.852542 196.720573 
L 268.297764 194.460974 
L 269.742985 206.747363 
L 271.188207 226.355307 
L 272.633428 188.610014 
L 275.523871 223.150162 
L 276.969092 215.677204 
L 278.414314 212.243968 
L 279.859535 204.799137 
L 281.304757 207.312976 
L 282.749978 209.575432 
L 284.1952 219.75648 
L 285.640421 204.4472 
L 287.085642 219.75648 
L 288.530864 175.544336 
L 289.976085 187.642186 
L 291.421307 215.608645 
L 292.866528 201.279763 
L 294.31175 188.082108 
L 295.756971 208.82128 
L 297.202193 186.982303 
L 298.647414 216.362797 
L 300.092635 214.184136 
L 301.537857 210.18818 
L 302.983078 205.239059 
L 304.4283 149.997447 
L 305.873521 208.670449 
L 307.318743 204.212575 
L 308.763964 197.760388 
L 310.209186 227.675072 
L 311.654407 215.943824 
L 313.099628 208.611793 
L 314.54485 204.4472 
L 315.990071 204.909118 
L 317.435293 206.228883 
L 318.880514 220.020433 
L 320.325736 193.031229 
L 321.770957 203.743325 
L 323.216179 222.396011 
L 324.6614 208.444204 
L 326.106622 203.919294 
L 327.551843 203.259411 
L 328.997064 188.741991 
L 330.442286 225.365483 
L 331.887507 181.923202 
L 333.332729 210.078199 
L 334.77795 221.736128 
L 336.223172 191.098715 
L 337.668393 204.799137 
L 339.113615 227.675072 
L 340.558836 200.289939 
L 342.004057 221.736128 
L 343.449279 205.503012 
L 344.8945 226.795229 
L 346.339722 173.300735 
L 347.784943 212.424449 
L 349.230165 189.841795 
L 350.675386 214.917339 
L 352.120608 171.765007 
L 353.565829 199.959997 
L 355.01105 214.477418 
L 356.456272 232.954134 
L 357.901493 181.671818 
L 359.346715 213.037673 
L 360.791936 228.994838 
L 362.237158 217.116949 
L 363.682379 201.279763 
L 365.127601 222.396011 
L 366.572822 207.87859 
L 368.018043 209.198356 
L 369.463265 193.36117 
L 370.908486 206.558825 
L 372.353708 168.021673 
L 373.798929 215.985721 
L 375.244151 226.795229 
L 376.689372 201.939646 
L 378.134594 226.355307 
L 379.579815 226.355307 
L 381.025036 210.21356 
L 382.470258 224.507635 
L 383.915479 210.782074 
L 385.360701 225.789693 
L 386.805922 211.460811 
L 388.251144 188.610014 
L 389.696365 200.399919 
L 391.141587 198.640232 
L 392.586808 222.396011 
L 394.032029 188.961952 
L 395.477251 221.076245 
L 396.922472 223.275854 
L 398.367694 211.178004 
L 399.812915 226.091354 
L 401.258137 196.880545 
L 402.703358 207.614637 
L 404.14858 192.481326 
L 405.593801 196.754853 
L 407.039022 217.116949 
L 408.484244 217.55687 
L 409.929465 199.080154 
L 411.374687 217.116949 
L 412.819908 188.52203 
L 414.26513 214.477418 
L 415.710351 226.355307 
L 417.155573 215.357261 
L 418.600794 216.823667 
L 420.046015 202.159606 
L 421.491237 193.947732 
L 422.936458 203.479372 
L 424.38168 197.509004 
L 425.826901 222.396011 
L 427.272123 211.597929 
L 428.717344 210.254168 
L 430.162566 206.118903 
L 431.607787 185.442577 
L 433.053008 207.73195 
L 434.49823 188.375389 
L 435.943451 205.239059 
L 437.388673 188.961952 
L 438.833894 203.919294 
L 440.279116 180.493456 
L 441.724337 214.807359 
L 443.169559 187.202264 
L 444.61478 219.75648 
L 446.060001 211.837887 
L 447.505223 220.284386 
L 448.950444 208.142543 
L 450.395666 213.421605 
L 451.840887 199.959997 
L 453.286109 220.284386 
L 454.73133 182.803046 
L 456.176552 217.116949 
L 457.621773 225.035541 
L 459.066994 219.75648 
L 460.512216 208.611793 
L 461.957437 218.172761 
L 463.402659 170.925157 
L 464.84788 202.335575 
L 466.293102 206.888766 
L 467.738323 221.264783 
L 469.183545 198.640232 
L 470.628766 208.478484 
L 472.073987 228.334955 
L 473.519209 211.178004 
L 474.96443 199.520075 
L 476.409652 202.599528 
L 477.854873 217.116949 
L 479.300095 218.436714 
L 480.745316 232.074291 
L 482.190538 216.677027 
L 483.635759 204.799137 
L 485.08098 218.436714 
L 486.526202 211.397965 
L 487.971423 215.231569 
L 489.416645 223.275854 
L 490.861866 220.133555 
L 492.307088 213.157652 
L 493.752309 228.994838 
L 495.197531 203.03945 
L 496.642752 222.396011 
L 498.087973 217.116949 
L 499.533195 217.644855 
L 500.978416 228.202979 
L 502.423638 223.715776 
L 503.868859 211.837887 
L 505.314081 229.654721 
L 506.759302 227.675072 
L 508.204524 221.076245 
L 509.649745 224.448979 
L 511.094966 222.396011 
L 512.540188 224.155698 
L 513.985409 210.518121 
L 515.430631 228.994838 
L 516.875852 207.87859 
L 518.321074 221.340198 
L 519.766295 224.658466 
L 521.211517 219.75648 
L 522.656738 217.996792 
L 524.101959 225.035541 
L 525.547181 225.035541 
L 526.992402 221.516167 
L 528.437624 215.357261 
L 529.882845 216.457066 
L 531.328067 225.035541 
L 532.773288 224.507635 
L 534.21851 219.75648 
L 535.663731 217.116949 
L 537.108953 206.558825 
L 538.554174 218.876636 
L 539.999395 196.000701 
L 541.444617 218.436714 
L 542.889838 218.876636 
L 544.33506 225.475463 
L 545.780281 220.636323 
L 548.670724 230.314603 
L 550.115946 227.675072 
L 551.561167 235.593665 
L 553.006388 238.233196 
L 554.45161 228.994838 
L 558.787274 228.994838 
L 560.232496 232.954134 
L 560.232496 232.954134 
" style="fill:none;stroke:#1f77b4;stroke-linecap:square;stroke-width:0.8;"/>
   </g>
   <g id="line2d_20">
    <path clip-path="url(#pc3d6060539)" d="M 65.966761 225.035541 
L 68.857204 184.122812 
L 70.302426 211.837887 
L 73.192869 232.954134 
L 74.63809 95.698524 
L 76.083311 140.570551 
L 80.418976 217.116949 
L 81.864197 129.132583 
L 83.309419 188.082108 
L 84.75464 174.884453 
L 87.645083 215.797183 
L 91.980747 214.477418 
L 96.316412 71.942745 
L 103.542519 185.442577 
L 104.98774 151.128674 
L 107.878183 172.244922 
L 110.768626 182.803046 
L 115.104291 132.651958 
L 117.994733 196.880545 
L 119.439955 235.593665 
L 122.330398 193.36117 
L 123.775619 201.279763 
L 126.666062 218.436714 
L 129.556505 196.000701 
L 131.001726 135.291489 
L 132.446948 210.958043 
L 133.892169 217.116949 
L 135.337391 178.84375 
L 136.782612 185.442577 
L 138.227834 196.000701 
L 141.118277 222.396011 
L 142.563498 124.733365 
L 144.008719 223.715776 
L 145.453941 207.438668 
L 146.899162 225.035541 
L 148.344384 178.183867 
L 151.234827 198.640232 
L 152.680048 202.159606 
L 154.12527 188.741991 
L 155.570491 211.837887 
L 157.015712 195.120857 
L 161.351377 180.163515 
L 162.796598 189.401873 
L 167.132263 238.233196 
L 171.467927 193.36117 
L 174.35837 222.396011 
L 175.803591 190.721639 
L 177.248813 215.797183 
L 178.694034 238.233196 
L 180.139256 215.1373 
L 183.029698 197.056513 
L 184.47492 217.116949 
L 185.920141 192.481326 
L 187.365363 174.884453 
L 188.810584 209.198356 
L 190.255806 215.53323 
L 191.701027 215.797183 
L 193.146249 206.558825 
L 194.59147 173.564688 
L 196.036691 188.83626 
L 197.481913 209.198356 
L 198.927134 213.157652 
L 200.372356 180.823398 
L 201.817577 203.919294 
L 203.262799 215.53323 
L 204.70802 198.20031 
L 206.153242 203.589352 
L 207.598463 205.45902 
L 209.043684 207.87859 
L 210.488906 191.601483 
L 211.934127 206.030919 
L 213.379349 211.837887 
L 214.82457 214.477418 
L 217.715013 171.65836 
L 219.160235 212.365793 
L 220.605456 212.969114 
L 222.050677 187.202264 
L 223.495899 195.812163 
L 224.94112 203.391388 
L 226.386342 185.819653 
L 227.831563 192.641298 
L 229.276785 197.155496 
L 230.722006 204.975106 
L 232.167228 178.742229 
L 233.612449 192.305358 
L 235.05767 163.666447 
L 236.502892 199.465085 
L 237.948113 198.640232 
L 239.393335 209.638278 
L 240.838556 193.36117 
L 242.283778 137.667067 
L 243.728999 200.399919 
L 245.174221 194.094373 
L 246.619442 195.520786 
L 248.064663 205.543621 
L 250.955106 183.957841 
L 252.400328 156.143783 
L 253.845549 187.422225 
L 255.290771 173.652672 
L 256.735992 213.34619 
L 258.181214 214.477418 
L 259.626435 192.481326 
L 261.071656 192.110866 
L 262.516878 192.041404 
L 263.962099 193.98963 
L 265.407321 199.751613 
L 266.852542 198.640232 
L 269.742985 182.363124 
L 271.188207 183.68289 
L 272.633428 187.362236 
L 274.078649 205.804673 
L 275.523871 197.3981 
L 276.969092 195.120857 
L 278.414314 217.356906 
L 279.859535 184.650718 
L 281.304757 203.919294 
L 282.749978 169.915924 
L 284.1952 205.804673 
L 285.640421 219.75648 
L 287.085642 191.921426 
L 288.530864 183.389608 
L 289.976085 198.400274 
L 291.421307 199.882364 
L 292.866528 206.228883 
L 294.31175 199.740036 
L 295.756971 222.17605 
L 297.202193 193.564211 
L 298.647414 174.884453 
L 300.092635 177.194043 
L 301.537857 201.279763 
L 302.983078 183.934274 
L 304.4283 206.822778 
L 305.873521 218.931626 
L 307.318743 201.01581 
L 308.763964 211.661918 
L 310.209186 186.10246 
L 311.654407 207.145387 
L 313.099628 217.776831 
L 314.54485 203.919294 
L 315.990071 216.017144 
L 317.435293 203.513212 
L 318.880514 216.876991 
L 320.325736 205.898942 
L 321.770957 208.718441 
L 323.216179 191.601483 
L 324.6614 197.92036 
L 326.106622 181.219327 
L 327.551843 185.662538 
L 328.997064 195.010877 
L 330.442286 191.821443 
L 331.887507 190.281717 
L 334.77795 211.837887 
L 336.223172 194.76892 
L 337.668393 212.167828 
L 339.113615 198.160317 
L 340.558836 199.120147 
L 342.004057 212.541762 
L 343.449279 203.626013 
L 344.8945 205.050521 
L 346.339722 188.082108 
L 347.784943 177.146908 
L 349.230165 199.959997 
L 350.675386 199.959997 
L 352.120608 203.391388 
L 353.565829 197.848373 
L 355.01105 203.259411 
L 356.456272 192.40134 
L 357.901493 198.112326 
L 359.346715 208.905074 
L 360.791936 197.200488 
L 362.237158 203.919294 
L 363.682379 202.788066 
L 365.127601 210.078199 
L 366.572822 200.751857 
L 368.018043 199.168138 
L 369.463265 199.740036 
L 370.908486 176.914862 
L 372.353708 208.318512 
L 373.798929 188.961952 
L 375.244151 209.858238 
L 376.689372 170.191954 
L 378.134594 193.097217 
L 379.579815 193.36117 
L 381.025036 189.401873 
L 382.470258 205.898942 
L 383.915479 213.421605 
L 385.360701 165.646095 
L 386.805922 209.198356 
L 388.251144 200.949821 
L 389.696365 219.75648 
L 391.141587 194.416982 
L 392.586808 199.959997 
L 394.032029 209.784918 
L 395.477251 192.188045 
L 396.922472 211.837887 
L 398.367694 183.132987 
L 399.812915 209.022387 
L 401.258137 198.640232 
L 402.703358 208.208532 
L 404.14858 171.951641 
L 405.593801 191.05158 
L 407.039022 206.030919 
L 408.484244 189.024798 
L 409.929465 202.269587 
L 411.374687 193.625123 
L 412.819908 191.777451 
L 414.26513 219.096597 
L 415.710351 189.761809 
L 417.155573 193.947732 
L 418.600794 197.200488 
L 420.046015 203.589352 
L 421.491237 197.320466 
L 422.936458 215.043031 
L 424.38168 189.521852 
L 425.826901 196.660584 
L 427.272123 205.427597 
L 428.717344 203.626013 
L 430.162566 200.986482 
L 431.607787 199.080154 
L 433.053008 205.239059 
L 434.49823 222.923917 
L 435.943451 214.717375 
L 437.388673 170.661204 
L 438.833894 208.406496 
L 440.279116 188.082108 
L 441.724337 203.391388 
L 443.169559 194.416982 
L 444.61478 193.050637 
L 446.060001 185.002655 
L 447.505223 201.685844 
L 448.950444 203.754323 
L 450.395666 194.492397 
L 451.840887 209.491637 
L 453.286109 194.534295 
L 454.73133 217.776831 
L 456.176552 212.243968 
L 457.621773 192.305358 
L 459.066994 180.427468 
L 460.512216 182.193923 
L 461.957437 188.48819 
L 463.402659 190.721639 
L 464.84788 185.970483 
L 466.293102 191.161561 
L 467.738323 187.752167 
L 469.183545 201.759678 
L 470.628766 196.406783 
L 472.073987 211.118015 
L 473.519209 205.359038 
L 474.96443 203.03945 
L 476.409652 197.131928 
L 477.854873 206.761866 
L 479.300095 181.294743 
L 480.745316 199.740036 
L 482.190538 188.082108 
L 483.635759 196.79256 
L 485.08098 192.536316 
L 486.526202 198.23415 
L 487.971423 219.228573 
L 489.416645 191.921426 
L 492.307088 201.774675 
L 493.752309 211.837887 
L 495.197531 209.198356 
L 496.642752 192.229942 
L 498.087973 212.497769 
L 499.533195 197.200488 
L 500.978416 212.541762 
L 502.423638 219.75648 
L 503.868859 204.399208 
L 505.314081 218.436714 
L 506.759302 206.030919 
L 508.204524 206.935901 
L 509.649745 212.365793 
L 511.094966 198.346951 
L 512.540188 217.703511 
L 513.985409 220.636323 
L 515.430631 204.4472 
L 516.875852 211.837887 
L 518.321074 202.033914 
L 519.766295 190.721639 
L 521.211517 210.18818 
L 522.656738 216.237105 
L 524.101959 202.746169 
L 525.547181 202.599528 
L 526.992402 209.198356 
L 528.437624 207.350684 
L 529.882845 200.399919 
L 531.328067 209.198356 
L 532.773288 210.329583 
L 534.21851 198.640232 
L 535.663731 206.888766 
L 537.108953 209.198356 
L 538.554174 226.61926 
L 539.999395 220.812292 
L 541.444617 206.558825 
L 542.889838 209.952507 
L 544.33506 206.030919 
L 545.780281 216.530386 
L 547.225503 215.231569 
L 548.670724 215.797183 
L 550.115946 217.996792 
L 553.006388 224.658466 
L 554.45161 229.937528 
L 555.896831 222.725952 
L 557.342053 221.736128 
L 558.787274 226.795229 
L 560.232496 224.7056 
L 561.677717 227.08851 
L 563.122939 232.294252 
L 564.56816 229.594731 
L 566.013381 235.153744 
L 567.458603 234.537853 
L 568.903824 238.233196 
L 570.349046 234.2739 
L 573.239489 239.552962 
L 573.239489 239.552962 
" style="fill:none;stroke:#ff7f0e;stroke-linecap:square;stroke-width:0.8;"/>
   </g>
   <g id="line2d_21"/>
   <g id="line2d_22"/>
   <g id="line2d_23">
    <path clip-path="url(#pc3d6060539)" d="M 40.603125 201.895713 
L 598.603125 201.895713 
" style="fill:none;stroke:#000000;stroke-dasharray:2.96,1.28;stroke-dashoffset:0;stroke-width:0.8;"/>
   </g>
   <g id="patch_3">
    <path d="M 40.603125 252 
L 40.603125 7.2 
" style="fill:none;stroke:#000000;stroke-linecap:square;stroke-linejoin:miter;stroke-width:0.8;"/>
   </g>
   <g id="patch_4">
    <path d="M 40.603125 252 
L 598.603125 252 
" style="fill:none;stroke:#000000;stroke-linecap:square;stroke-linejoin:miter;stroke-width:0.8;"/>
   </g>
   <g id="legend_1">
    <g id="patch_5">
     <path d="M 506.078125 59.234375 
L 591.603125 59.234375 
Q 593.603125 59.234375 593.603125 57.234375 
L 593.603125 14.2 
Q 593.603125 12.2 591.603125 12.2 
L 506.078125 12.2 
Q 504.078125 12.2 504.078125 14.2 
L 504.078125 57.234375 
Q 504.078125 59.234375 506.078125 59.234375 
z
" style="fill:#ffffff;opacity:0.8;stroke:#cccccc;stroke-linejoin:miter;"/>
    </g>
    <g id="line2d_24">
     <path d="M 508.078125 20.298437 
L 528.078125 20.298437 
" style="fill:none;stroke:#1f77b4;stroke-linecap:square;stroke-width:1.5;"/>
    </g>
    <g id="line2d_25"/>
    <g id="text_21">
     <!-- RECOVERY -->
     <g transform="translate(536.078125 23.798437)scale(0.1 -0.1)">
      <defs>
       <path d="M 2841 2188 
Q 3044 2119 3236 1894 
Q 3428 1669 3622 1275 
L 4263 0 
L 3584 0 
L 2988 1197 
Q 2756 1666 2539 1819 
Q 2322 1972 1947 1972 
L 1259 1972 
L 1259 0 
L 628 0 
L 628 4666 
L 2053 4666 
Q 2853 4666 3247 4331 
Q 3641 3997 3641 3322 
Q 3641 2881 3436 2590 
Q 3231 2300 2841 2188 
z
M 1259 4147 
L 1259 2491 
L 2053 2491 
Q 2509 2491 2742 2702 
Q 2975 2913 2975 3322 
Q 2975 3731 2742 3939 
Q 2509 4147 2053 4147 
L 1259 4147 
z
" id="DejaVuSans-52" transform="scale(0.015625)"/>
       <path d="M 628 4666 
L 3578 4666 
L 3578 4134 
L 1259 4134 
L 1259 2753 
L 3481 2753 
L 3481 2222 
L 1259 2222 
L 1259 531 
L 3634 531 
L 3634 0 
L 628 0 
L 628 4666 
z
" id="DejaVuSans-45" transform="scale(0.015625)"/>
       <path d="M 4122 4306 
L 4122 3641 
Q 3803 3938 3442 4084 
Q 3081 4231 2675 4231 
Q 1875 4231 1450 3742 
Q 1025 3253 1025 2328 
Q 1025 1406 1450 917 
Q 1875 428 2675 428 
Q 3081 428 3442 575 
Q 3803 722 4122 1019 
L 4122 359 
Q 3791 134 3420 21 
Q 3050 -91 2638 -91 
Q 1578 -91 968 557 
Q 359 1206 359 2328 
Q 359 3453 968 4101 
Q 1578 4750 2638 4750 
Q 3056 4750 3426 4639 
Q 3797 4528 4122 4306 
z
" id="DejaVuSans-43" transform="scale(0.015625)"/>
       <path d="M 1831 0 
L 50 4666 
L 709 4666 
L 2188 738 
L 3669 4666 
L 4325 4666 
L 2547 0 
L 1831 0 
z
" id="DejaVuSans-56" transform="scale(0.015625)"/>
       <path d="M -13 4666 
L 666 4666 
L 1959 2747 
L 3244 4666 
L 3922 4666 
L 2272 2222 
L 2272 0 
L 1638 0 
L 1638 2222 
L -13 4666 
z
" id="DejaVuSans-59" transform="scale(0.015625)"/>
      </defs>
      <use xlink:href="#DejaVuSans-52"/>
      <use x="69.482422" xlink:href="#DejaVuSans-45"/>
      <use x="132.666016" xlink:href="#DejaVuSans-43"/>
      <use x="202.490234" xlink:href="#DejaVuSans-4f"/>
      <use x="279.451172" xlink:href="#DejaVuSans-56"/>
      <use x="347.859375" xlink:href="#DejaVuSans-45"/>
      <use x="411.042969" xlink:href="#DejaVuSans-52"/>
      <use x="474.150391" xlink:href="#DejaVuSans-59"/>
     </g>
    </g>
    <g id="line2d_26">
     <path d="M 508.078125 34.976562 
L 528.078125 34.976562 
" style="fill:none;stroke:#ff7f0e;stroke-linecap:square;stroke-width:1.5;"/>
    </g>
    <g id="line2d_27"/>
    <g id="text_22">
     <!-- DEATH -->
     <g transform="translate(536.078125 38.476562)scale(0.1 -0.1)">
      <defs>
       <path d="M -19 4666 
L 3928 4666 
L 3928 4134 
L 2272 4134 
L 2272 0 
L 1638 0 
L 1638 4134 
L -19 4134 
L -19 4666 
z
" id="DejaVuSans-54" transform="scale(0.015625)"/>
       <path d="M 628 4666 
L 1259 4666 
L 1259 2753 
L 3553 2753 
L 3553 4666 
L 4184 4666 
L 4184 0 
L 3553 0 
L 3553 2222 
L 1259 2222 
L 1259 0 
L 628 0 
L 628 4666 
z
" id="DejaVuSans-48" transform="scale(0.015625)"/>
      </defs>
      <use xlink:href="#DejaVuSans-44"/>
      <use x="77.001953" xlink:href="#DejaVuSans-45"/>
      <use x="140.185547" xlink:href="#DejaVuSans-41"/>
      <use x="200.84375" xlink:href="#DejaVuSans-54"/>
      <use x="261.927734" xlink:href="#DejaVuSans-48"/>
     </g>
    </g>
    <g id="line2d_28">
     <path d="M 508.078125 49.654687 
L 528.078125 49.654687 
" style="fill:none;stroke:#000000;stroke-dasharray:2.96,1.28;stroke-dashoffset:0;stroke-width:0.8;"/>
    </g>
    <g id="line2d_29"/>
    <g id="text_23">
     <!-- Mean -->
     <g transform="translate(536.078125 53.154687)scale(0.1 -0.1)">
      <use xlink:href="#DejaVuSans-4d"/>
      <use x="86.279297" xlink:href="#DejaVuSans-65"/>
      <use x="147.802734" xlink:href="#DejaVuSans-61"/>
      <use x="209.082031" xlink:href="#DejaVuSans-6e"/>
     </g>
    </g>
   </g>
  </g>
 </g>
 <defs>
  <clipPath id="pc3d6060539">
   <rect height="244.8" width="558" x="40.603125" y="7.2"/>
  </clipPath>
 </defs>
</svg>
