<?xml version="1.0" encoding="utf-8" standalone="no"?>
<!DOCTYPE svg PUBLIC "-//W3C//DTD SVG 1.1//EN"
  "http://www.w3.org/Graphics/SVG/1.1/DTD/svg11.dtd">
<!-- Created with matplotlib (https://matplotlib.org/) -->
<svg height="329.18125pt" version="1.1" viewBox="0 0 605.803125 329.18125" width="605.803125pt" xmlns="http://www.w3.org/2000/svg" xmlns:xlink="http://www.w3.org/1999/xlink">
 <metadata>
  <rdf:RDF xmlns:cc="http://creativecommons.org/ns#" xmlns:dc="http://purl.org/dc/elements/1.1/" xmlns:rdf="http://www.w3.org/1999/02/22-rdf-syntax-ns#">
   <cc:Work>
    <dc:type rdf:resource="http://purl.org/dc/dcmitype/StillImage"/>
    <dc:date>2021-03-14T22:04:27.367887</dc:date>
    <dc:format>image/svg+xml</dc:format>
    <dc:creator>
     <cc:Agent>
      <dc:title>Matplotlib v3.3.4, https://matplotlib.org/</dc:title>
     </cc:Agent>
    </dc:creator>
   </cc:Work>
  </rdf:RDF>
 </metadata>
 <defs>
  <style type="text/css">*{stroke-linecap:butt;stroke-linejoin:round;}</style>
 </defs>
 <g id="figure_1">
  <g id="patch_1">
   <path d="M 0 329.18125 
L 605.803125 329.18125 
L 605.803125 0 
L 0 0 
z
" style="fill:none;"/>
  </g>
  <g id="axes_1">
   <g id="patch_2">
    <path d="M 40.603125 252 
L 598.603125 252 
L 598.603125 7.2 
L 40.603125 7.2 
z
" style="fill:#ffffff;"/>
   </g>
   <g id="PolyCollection_1">
    <path clip-path="url(#p31fd19bd8e)" d="M 71.747647 144.566507 
L 71.747647 162.786603 
L 71.747647 144.566507 
L 71.747647 144.566507 
z
" style="fill:#1f77b4;fill-opacity:0.2;stroke:#1f77b4;stroke-opacity:0.2;"/>
    <path clip-path="url(#p31fd19bd8e)" d="M 77.528533 152.37512 
L 77.528533 225.255502 
L 78.973754 233.064115 
L 80.418976 225.255502 
L 81.864197 213.108772 
L 81.864197 121.444338 
L 81.864197 121.444338 
L 80.418976 147.169378 
L 78.973754 141.703349 
L 77.528533 152.37512 
z
" style="fill:#1f77b4;fill-opacity:0.2;stroke:#1f77b4;stroke-opacity:0.2;"/>
    <path clip-path="url(#p31fd19bd8e)" d="M 86.199862 186.21244 
L 86.199862 194.021053 
L 86.199862 186.21244 
L 86.199862 186.21244 
z
" style="fill:#1f77b4;fill-opacity:0.2;stroke:#1f77b4;stroke-opacity:0.2;"/>
    <path clip-path="url(#p31fd19bd8e)" d="M 89.090304 176.213078 
L 89.090304 235.666986 
L 89.090304 176.213078 
L 89.090304 176.213078 
z
" style="fill:#1f77b4;fill-opacity:0.2;stroke:#1f77b4;stroke-opacity:0.2;"/>
    <path clip-path="url(#p31fd19bd8e)" d="M 94.87119 149.772249 
L 94.87119 238.269856 
L 96.316412 235.666986 
L 96.316412 225.255502 
L 96.316412 225.255502 
L 94.87119 149.772249 
z
" style="fill:#1f77b4;fill-opacity:0.2;stroke:#1f77b4;stroke-opacity:0.2;"/>
    <path clip-path="url(#p31fd19bd8e)" d="M 106.432962 225.255502 
L 106.432962 233.064115 
L 107.878183 233.064115 
L 107.878183 204.432536 
L 107.878183 204.432536 
L 106.432962 225.255502 
z
" style="fill:#1f77b4;fill-opacity:0.2;stroke:#1f77b4;stroke-opacity:0.2;"/>
    <path clip-path="url(#p31fd19bd8e)" d="M 119.439955 113.332057 
L 119.439955 225.255502 
L 119.439955 113.332057 
L 119.439955 113.332057 
z
" style="fill:#1f77b4;fill-opacity:0.2;stroke:#1f77b4;stroke-opacity:0.2;"/>
    <path clip-path="url(#p31fd19bd8e)" d="M 123.775619 222.652632 
L 123.775619 233.064115 
L 123.775619 222.652632 
L 123.775619 222.652632 
z
" style="fill:#1f77b4;fill-opacity:0.2;stroke:#1f77b4;stroke-opacity:0.2;"/>
    <path clip-path="url(#p31fd19bd8e)" d="M 126.666062 207.035407 
L 126.666062 227.858373 
L 128.111284 220.179904 
L 128.111284 200.094418 
L 128.111284 200.094418 
L 126.666062 207.035407 
z
" style="fill:#1f77b4;fill-opacity:0.2;stroke:#1f77b4;stroke-opacity:0.2;"/>
    <path clip-path="url(#p31fd19bd8e)" d="M 132.446948 207.035407 
L 132.446948 230.461244 
L 135.337391 230.461244 
L 136.782612 238.269856 
L 136.782612 238.269856 
L 136.782612 238.269856 
L 135.337391 145.737799 
L 132.446948 207.035407 
z
" style="fill:#1f77b4;fill-opacity:0.2;stroke:#1f77b4;stroke-opacity:0.2;"/>
    <path clip-path="url(#p31fd19bd8e)" d="M 141.118277 233.064115 
L 141.118277 233.064115 
L 141.118277 233.064115 
L 141.118277 233.064115 
z
" style="fill:#1f77b4;fill-opacity:0.2;stroke:#1f77b4;stroke-opacity:0.2;"/>
    <path clip-path="url(#p31fd19bd8e)" d="M 145.453941 134.155024 
L 145.453941 223.644976 
L 145.453941 134.155024 
L 145.453941 134.155024 
z
" style="fill:#1f77b4;fill-opacity:0.2;stroke:#1f77b4;stroke-opacity:0.2;"/>
    <path clip-path="url(#p31fd19bd8e)" d="M 151.234827 160.183732 
L 151.234827 232.196491 
L 151.234827 160.183732 
L 151.234827 160.183732 
z
" style="fill:#1f77b4;fill-opacity:0.2;stroke:#1f77b4;stroke-opacity:0.2;"/>
    <path clip-path="url(#p31fd19bd8e)" d="M 155.570491 161.22488 
L 155.570491 226.62201 
L 157.015712 235.666986 
L 157.015712 157.580861 
L 157.015712 157.580861 
L 155.570491 161.22488 
z
" style="fill:#1f77b4;fill-opacity:0.2;stroke:#1f77b4;stroke-opacity:0.2;"/>
    <path clip-path="url(#p31fd19bd8e)" d="M 159.906155 201.048804 
L 159.906155 234.36555 
L 159.906155 201.048804 
L 159.906155 201.048804 
z
" style="fill:#1f77b4;fill-opacity:0.2;stroke:#1f77b4;stroke-opacity:0.2;"/>
    <path clip-path="url(#p31fd19bd8e)" d="M 164.24182 168.485031 
L 164.24182 224.139986 
L 165.687041 235.666986 
L 165.687041 144.566507 
L 165.687041 144.566507 
L 164.24182 168.485031 
z
" style="fill:#1f77b4;fill-opacity:0.2;stroke:#1f77b4;stroke-opacity:0.2;"/>
    <path clip-path="url(#p31fd19bd8e)" d="M 168.577484 220.049761 
L 168.577484 225.255502 
L 168.577484 220.049761 
L 168.577484 220.049761 
z
" style="fill:#1f77b4;fill-opacity:0.2;stroke:#1f77b4;stroke-opacity:0.2;"/>
    <path clip-path="url(#p31fd19bd8e)" d="M 172.913148 199.226794 
L 172.913148 227.858373 
L 174.35837 203.564912 
L 175.803591 225.629665 
L 175.803591 190.734928 
L 175.803591 190.734928 
L 174.35837 149.772249 
L 172.913148 199.226794 
z
" style="fill:#1f77b4;fill-opacity:0.2;stroke:#1f77b4;stroke-opacity:0.2;"/>
    <path clip-path="url(#p31fd19bd8e)" d="M 178.694034 221.969378 
L 178.694034 235.390431 
L 180.139256 240.872727 
L 181.584477 227.858373 
L 183.029698 223.745837 
L 184.47492 231.502392 
L 185.920141 201.829665 
L 187.365363 223.591524 
L 187.365363 165.937936 
L 187.365363 165.937936 
L 185.920141 191.418182 
L 184.47492 174.759809 
L 183.029698 134.922871 
L 181.584477 198.432919 
L 180.139256 214.844019 
L 178.694034 221.969378 
z
" style="fill:#1f77b4;fill-opacity:0.2;stroke:#1f77b4;stroke-opacity:0.2;"/>
    <path clip-path="url(#p31fd19bd8e)" d="M 190.255806 193.223923 
L 190.255806 224.452951 
L 191.701027 232.296268 
L 193.146249 227.969925 
L 194.59147 212.420096 
L 196.036691 226.43764 
L 197.481913 234.36555 
L 198.927134 238.269856 
L 200.372356 231.328868 
L 201.817577 232.738756 
L 203.262799 229.159809 
L 204.70802 232.988198 
L 206.153242 229.94067 
L 207.598463 235.666986 
L 209.043684 229.38756 
L 210.488906 219.312281 
L 211.934127 227.68175 
L 213.379349 223.061654 
L 214.82457 223.231047 
L 216.269792 227.884402 
L 217.715013 218.707656 
L 219.160235 208.880383 
L 220.605456 198.982775 
L 222.050677 209.852085 
L 223.495899 220.062775 
L 224.94112 224.402339 
L 226.386342 230.244338 
L 227.831563 227.467943 
L 229.276785 231.608134 
L 230.722006 224.706007 
L 232.167228 207.621053 
L 233.612449 220.049761 
L 235.05767 221.229187 
L 236.502892 203.851895 
L 237.948113 227.294418 
L 239.393335 217.075981 
L 240.838556 220.780011 
L 242.283778 214.746411 
L 243.728999 224.554173 
L 245.174221 224.554173 
L 246.619442 227.023285 
L 248.064663 206.178628 
L 249.509885 218.748325 
L 250.955106 227.486535 
L 252.400328 223.352153 
L 253.845549 219.555215 
L 255.290771 232.258852 
L 256.735992 218.25378 
L 258.181214 212.956938 
L 259.626435 216.861244 
L 261.071656 215.435088 
L 262.516878 215.169378 
L 263.962099 233.336233 
L 265.407321 226.874641 
L 266.852542 219.197912 
L 268.297764 215.614035 
L 269.742985 221.815995 
L 271.188207 232.630303 
L 272.633428 227.389856 
L 274.078649 220.220574 
L 275.523871 229.736159 
L 276.969092 232.354241 
L 278.414314 219.153773 
L 279.859535 229.181499 
L 281.304757 225.85974 
L 282.749978 220.81203 
L 284.1952 229.810526 
L 285.640421 228.28134 
L 287.085642 233.7311 
L 288.530864 209.969059 
L 289.976085 207.490909 
L 291.421307 229.540943 
L 292.866528 217.186603 
L 294.31175 210.082935 
L 295.756971 223.396309 
L 297.202193 214.648804 
L 298.647414 227.133288 
L 300.092635 227.872834 
L 301.537857 224.604785 
L 302.983078 224.930144 
L 304.4283 214.388517 
L 305.873521 231.639043 
L 307.318743 218.90739 
L 308.763964 211.299777 
L 310.209186 235.016268 
L 311.654407 225.588091 
L 313.099628 223.672089 
L 314.54485 220.706986 
L 315.990071 218.59378 
L 317.435293 221.847368 
L 318.880514 231.378756 
L 320.325736 212.737321 
L 321.770957 214.49697 
L 323.216179 227.858373 
L 324.6614 223.963363 
L 326.106622 226.761449 
L 327.551843 218.540909 
L 328.997064 217.650239 
L 330.442286 232.738756 
L 331.887507 233.064115 
L 333.332729 221.539181 
L 334.77795 229.810526 
L 336.223172 217.270267 
L 337.668393 230.461244 
L 339.113615 233.584689 
L 340.558836 224.157416 
L 342.004057 231.111962 
L 343.449279 230.981818 
L 344.8945 230.461244 
L 346.339722 224.760957 
L 347.784943 218.770016 
L 349.230165 222.012759 
L 350.675386 228.953748 
L 352.120608 202.622358 
L 353.565829 218.642584 
L 355.01105 220.049761 
L 355.01105 209.638278 
L 355.01105 209.638278 
L 353.565829 183.902392 
L 352.120608 135.438712 
L 350.675386 196.569697 
L 349.230165 159.316108 
L 347.784943 206.305157 
L 346.339722 128.025263 
L 344.8945 222.652632 
L 343.449279 176.295502 
L 342.004057 207.686124 
L 340.558836 176.679426 
L 339.113615 222.37933 
L 337.668393 165.389474 
L 336.223172 155.470677 
L 334.77795 217.44689 
L 333.332729 198.055502 
L 331.887507 148.904625 
L 330.442286 218.422967 
L 328.997064 155.392823 
L 327.551843 187.745694 
L 326.106622 175.958988 
L 324.6614 191.92946 
L 323.216179 216.123764 
L 321.770957 189.30118 
L 320.325736 168.594258 
L 318.880514 210.529761 
L 317.435293 190.116746 
L 315.990071 191.044019 
L 314.54485 186.941244 
L 313.099628 196.12504 
L 311.654407 205.726741 
L 310.209186 222.001914 
L 308.763964 178.56 
L 307.318743 186.132908 
L 305.873521 188.613589 
L 304.4283 90.770745 
L 302.983078 175.304785 
L 301.537857 198.681818 
L 300.092635 200.383626 
L 298.647414 207.546685 
L 297.202193 159.104625 
L 295.756971 195.968558 
L 294.31175 164.467624 
L 292.866528 186.776396 
L 291.421307 200.676965 
L 289.976085 168.529187 
L 288.530864 142.261882 
L 287.085642 196.436842 
L 285.640421 176.341053 
L 284.1952 211.094258 
L 282.749978 200.314422 
L 281.304757 186.918934 
L 279.859535 175.464753 
L 278.414314 206.024291 
L 276.969092 195.979121 
L 275.523871 214.806835 
L 274.078649 188.815311 
L 272.633428 146.297416 
L 271.188207 217.44689 
L 269.742985 194.318524 
L 268.297764 176.429984 
L 266.852542 164.513963 
L 265.407321 193.152153 
L 263.962099 195.854893 
L 262.516878 130.397129 
L 261.071656 168.849123 
L 259.626435 193.99739 
L 258.181214 169.412092 
L 256.735992 195.036172 
L 255.290771 221.8311 
L 253.845549 195.309474 
L 252.400328 158.662679 
L 250.955106 205.510868 
L 249.509885 141.703349 
L 248.064663 163.448166 
L 246.619442 160.904944 
L 245.174221 175.757576 
L 243.728999 112.421053 
L 242.283778 173.41933 
L 240.838556 195.727379 
L 239.393335 191.528804 
L 237.948113 206.746199 
L 236.502892 153.676555 
L 235.05767 148.714833 
L 233.612449 181.006699 
L 232.167228 163.316473 
L 230.722006 205.437533 
L 229.276785 200.837321 
L 227.831563 126.758533 
L 226.386342 195.452632 
L 224.94112 170.428921 
L 223.495899 198.432919 
L 222.050677 42.394532 
L 220.605456 65.829665 
L 219.160235 181.217225 
L 217.715013 132.682775 
L 216.269792 195.673876 
L 214.82457 45.556194 
L 213.379349 152.691183 
L 211.934127 193.61203 
L 210.488906 142.10101 
L 209.043684 168.426156 
L 207.598463 203.391388 
L 206.153242 175.436555 
L 204.70802 205.072408 
L 203.262799 207.515311 
L 201.817577 197.754545 
L 200.372356 149.772249 
L 198.927134 230.461244 
L 197.481913 145.770335 
L 196.036691 195.712919 
L 194.59147 18.327273 
L 193.146249 178.95229 
L 191.701027 189.335885 
L 190.255806 193.223923 
z
" style="fill:#1f77b4;fill-opacity:0.2;stroke:#1f77b4;stroke-opacity:0.2;"/>
    <path clip-path="url(#p31fd19bd8e)" d="M 357.901493 146.425701 
L 357.901493 216.87054 
L 359.346715 227.036103 
L 360.791936 235.666986 
L 362.237158 227.858373 
L 363.682379 227.858373 
L 365.127601 233.85799 
L 366.572822 216.579266 
L 368.018043 224.902256 
L 369.463265 217.472919 
L 370.908486 223.357576 
L 372.353708 218.488038 
L 373.798929 225.645933 
L 375.244151 234.799362 
L 376.689372 228.541627 
L 378.134594 237.310048 
L 379.579815 227.858373 
L 381.025036 220.049761 
L 382.470258 228.652249 
L 383.915479 214.596746 
L 385.360701 232.143814 
L 386.805922 228.83445 
L 388.251144 204.432536 
L 389.696365 222.652632 
L 391.141587 214.685988 
L 392.586808 231.028298 
L 394.032029 227.880064 
L 395.477251 230.461244 
L 396.922472 227.858373 
L 398.367694 222.172727 
L 399.812915 232.322297 
L 401.258137 220.277512 
L 402.703358 228.652249 
L 404.14858 220.277512 
L 405.593801 216.526589 
L 407.039022 227.880064 
L 408.484244 233.725678 
L 409.929465 229.821372 
L 411.374687 223.520255 
L 412.819908 217.034769 
L 414.26513 231.78437 
L 415.710351 235.016268 
L 417.155573 230.461244 
L 418.600794 224.098671 
L 420.046015 212.241148 
L 421.491237 215.921318 
L 422.936458 224.61563 
L 424.38168 213.784279 
L 424.38168 179.937662 
L 424.38168 179.937662 
L 422.936458 178.12185 
L 421.491237 168.982881 
L 420.046015 195.257416 
L 418.600794 204.302392 
L 417.155573 194.021053 
L 415.710351 215.494737 
L 414.26513 193.120893 
L 412.819908 170.139713 
L 411.374687 210.46252 
L 409.929465 159.435407 
L 408.484244 194.411483 
L 407.039022 208.109091 
L 405.593801 168.150376 
L 404.14858 131.877512 
L 402.703358 188.54201 
L 401.258137 163.318022 
L 399.812915 222.132057 
L 398.367694 196.249761 
L 396.922472 220.461882 
L 395.477251 212.241148 
L 394.032029 141.280383 
L 392.586808 210.930417 
L 391.141587 174.843472 
L 389.696365 170.486762 
L 388.251144 163.007847 
L 386.805922 195.489815 
L 385.360701 219.854545 
L 383.915479 207.555981 
L 382.470258 220.297033 
L 381.025036 197.670077 
L 379.579815 225.255502 
L 378.134594 210.288995 
L 376.689372 154.97799 
L 375.244151 217.652951 
L 373.798929 208.857416 
L 372.353708 107.553684 
L 370.908486 191.396491 
L 369.463265 159.663158 
L 368.018043 196.252085 
L 366.572822 200.072727 
L 365.127601 210.679426 
L 363.682379 162.786603 
L 362.237158 207.035407 
L 360.791936 222.652632 
L 359.346715 193.914572 
L 357.901493 146.425701 
z
" style="fill:#1f77b4;fill-opacity:0.2;stroke:#1f77b4;stroke-opacity:0.2;"/>
    <path clip-path="url(#p31fd19bd8e)" d="M 427.272123 201.817834 
L 427.272123 222.30361 
L 428.717344 228.938565 
L 430.162566 226.556938 
L 431.607787 209.638278 
L 433.053008 221.249973 
L 434.49823 215.574269 
L 435.943451 209.638278 
L 437.388673 225.081978 
L 438.833894 219.939139 
L 440.279116 200.886124 
L 441.724337 229.070335 
L 443.169559 212.241148 
L 444.61478 225.255502 
L 446.060001 223.771866 
L 447.505223 224.214354 
L 448.950444 232.022967 
L 450.395666 230.213971 
L 451.840887 201.829665 
L 453.286109 231.528421 
L 454.73133 203.391388 
L 456.176552 217.44689 
L 457.621773 232.413397 
L 459.066994 231.437321 
L 460.512216 225.833918 
L 461.957437 229.569761 
L 463.402659 207.035407 
L 464.84788 222.704689 
L 466.293102 222.839713 
L 467.738323 229.931374 
L 469.183545 222.880383 
L 470.628766 221.593736 
L 472.073987 231.762679 
L 473.519209 228.574163 
L 474.96443 214.844019 
L 476.409652 222.012759 
L 477.854873 229.037799 
L 479.300095 231.762679 
L 480.745316 238.269856 
L 482.190538 225.049442 
L 483.635759 223.520255 
L 485.08098 233.064115 
L 486.526202 224.181818 
L 487.971423 226.742857 
L 489.416645 228.725997 
L 490.861866 231.948599 
L 492.307088 235.390431 
L 493.752309 233.064115 
L 495.197531 227.858373 
L 496.642752 230.461244 
L 498.087973 229.810526 
L 499.533195 235.940287 
L 500.978416 236.981435 
L 502.423638 230.461244 
L 503.868859 224.604785 
L 505.314081 237.310048 
L 505.314081 222.652632 
L 505.314081 222.652632 
L 503.868859 189.466029 
L 502.423638 217.44689 
L 500.978416 219.008612 
L 499.533195 190.377033 
L 498.087973 200.430622 
L 496.642752 209.638278 
L 495.197531 185.344817 
L 493.752309 225.255502 
L 492.307088 173.848804 
L 490.861866 209.619686 
L 489.416645 214.844019 
L 487.971423 205.52946 
L 486.526202 199.226794 
L 485.08098 204.432536 
L 483.635759 178.403828 
L 482.190538 204.866348 
L 480.745316 222.652632 
L 479.300095 207.653589 
L 477.854873 205.717703 
L 476.409652 178.750877 
L 474.96443 187.947687 
L 473.519209 200.52823 
L 472.073987 225.90622 
L 470.628766 188.069943 
L 469.183545 163.936204 
L 467.738323 213.338072 
L 466.293102 192.857895 
L 464.84788 171.063732 
L 463.402659 116.488038 
L 461.957437 206.215502 
L 460.512216 182.53227 
L 459.066994 205.652632 
L 457.621773 219.366507 
L 456.176552 217.44689 
L 454.73133 164.348325 
L 453.286109 210.158852 
L 451.840887 199.226794 
L 450.395666 197.144498 
L 448.950444 174.928995 
L 447.505223 215.48823 
L 446.060001 197.144498 
L 444.61478 216.579266 
L 443.169559 154.97799 
L 441.724337 203.423923 
L 440.279116 154.555024 
L 438.833894 187.22756 
L 437.388673 149.956619 
L 435.943451 201.829665 
L 434.49823 161.463477 
L 433.053008 196.320255 
L 431.607787 153.578947 
L 430.162566 177.286762 
L 428.717344 188.340287 
L 427.272123 201.817834 
z
" style="fill:#1f77b4;fill-opacity:0.2;stroke:#1f77b4;stroke-opacity:0.2;"/>
    <path clip-path="url(#p31fd19bd8e)" d="M 508.204524 208.922488 
L 508.204524 230.152153 
L 509.649745 230.172036 
L 511.094966 230.213971 
L 512.540188 233.931738 
L 513.985409 230.461244 
L 515.430631 230.461244 
L 516.875852 217.44689 
L 518.321074 233.337416 
L 519.766295 230.089405 
L 521.211517 235.666986 
L 522.656738 225.049442 
L 524.101959 225.255502 
L 524.101959 225.255502 
L 524.101959 225.255502 
L 522.656738 210.27815 
L 521.211517 191.418182 
L 519.766295 218.171975 
L 518.321074 208.27177 
L 516.875852 199.226794 
L 515.430631 227.858373 
L 513.985409 191.418182 
L 512.540188 207.035407 
L 511.094966 215.091292 
L 509.649745 217.295056 
L 508.204524 208.922488 
z
" style="fill:#1f77b4;fill-opacity:0.2;stroke:#1f77b4;stroke-opacity:0.2;"/>
    <path clip-path="url(#p31fd19bd8e)" d="M 526.992402 217.44689 
L 526.992402 230.461244 
L 528.437624 220.917384 
L 529.882845 226.556938 
L 531.328067 234.398086 
L 532.773288 238.022584 
L 534.21851 233.064115 
L 535.663731 225.255502 
L 537.108953 227.858373 
L 538.554174 238.269856 
L 538.554174 207.90303 
L 538.554174 207.90303 
L 537.108953 186.21244 
L 535.663731 209.096013 
L 534.21851 212.65327 
L 532.773288 203.63866 
L 531.328067 218.715789 
L 529.882845 206.352153 
L 528.437624 208.683892 
L 526.992402 217.44689 
z
" style="fill:#1f77b4;fill-opacity:0.2;stroke:#1f77b4;stroke-opacity:0.2;"/>
    <path clip-path="url(#p31fd19bd8e)" d="M 541.444617 209.844338 
L 541.444617 225.689314 
L 542.889838 222.652632 
L 544.33506 230.688995 
L 545.780281 230.461244 
L 548.670724 233.064115 
L 550.115946 235.666986 
L 550.115946 220.917384 
L 550.115946 220.917384 
L 548.670724 227.858373 
L 545.780281 214.844019 
L 544.33506 220.689633 
L 542.889838 215.711643 
L 541.444617 209.844338 
z
" style="fill:#1f77b4;fill-opacity:0.2;stroke:#1f77b4;stroke-opacity:0.2;"/>
    <path clip-path="url(#p31fd19bd8e)" d="M 553.006388 238.269856 
L 553.006388 238.269856 
L 554.45161 238.269856 
L 558.787274 235.666986 
L 558.787274 222.652632 
L 558.787274 222.652632 
L 554.45161 220.049761 
L 553.006388 238.269856 
z
" style="fill:#1f77b4;fill-opacity:0.2;stroke:#1f77b4;stroke-opacity:0.2;"/>
   </g>
   <g id="PolyCollection_2">
    <path clip-path="url(#p31fd19bd8e)" d="M 68.857204 178.403828 
L 68.857204 191.418182 
L 68.857204 178.403828 
L 68.857204 178.403828 
z
" style="fill:#ff7f0e;fill-opacity:0.2;stroke:#ff7f0e;stroke-opacity:0.2;"/>
    <path clip-path="url(#p31fd19bd8e)" d="M 81.864197 19.628708 
L 81.864197 204.432536 
L 81.864197 19.628708 
L 81.864197 19.628708 
z
" style="fill:#ff7f0e;fill-opacity:0.2;stroke:#ff7f0e;stroke-opacity:0.2;"/>
    <path clip-path="url(#p31fd19bd8e)" d="M 87.645083 204.432536 
L 87.645083 227.858373 
L 87.645083 204.432536 
L 87.645083 204.432536 
z
" style="fill:#ff7f0e;fill-opacity:0.2;stroke:#ff7f0e;stroke-opacity:0.2;"/>
    <path clip-path="url(#p31fd19bd8e)" d="M 103.542519 183.609569 
L 103.542519 188.815311 
L 103.542519 183.609569 
L 103.542519 183.609569 
z
" style="fill:#ff7f0e;fill-opacity:0.2;stroke:#ff7f0e;stroke-opacity:0.2;"/>
    <path clip-path="url(#p31fd19bd8e)" d="M 110.768626 147.169378 
L 110.768626 220.049761 
L 110.768626 147.169378 
L 110.768626 147.169378 
z
" style="fill:#ff7f0e;fill-opacity:0.2;stroke:#ff7f0e;stroke-opacity:0.2;"/>
    <path clip-path="url(#p31fd19bd8e)" d="M 117.994733 144.197767 
L 117.994733 233.931738 
L 117.994733 144.197767 
L 117.994733 144.197767 
z
" style="fill:#ff7f0e;fill-opacity:0.2;stroke:#ff7f0e;stroke-opacity:0.2;"/>
    <path clip-path="url(#p31fd19bd8e)" d="M 126.666062 209.638278 
L 126.666062 227.858373 
L 126.666062 209.638278 
L 126.666062 209.638278 
z
" style="fill:#ff7f0e;fill-opacity:0.2;stroke:#ff7f0e;stroke-opacity:0.2;"/>
    <path clip-path="url(#p31fd19bd8e)" d="M 132.446948 201.829665 
L 132.446948 227.858373 
L 132.446948 201.829665 
L 132.446948 201.829665 
z
" style="fill:#ff7f0e;fill-opacity:0.2;stroke:#ff7f0e;stroke-opacity:0.2;"/>
    <path clip-path="url(#p31fd19bd8e)" d="M 135.337391 167.992344 
L 135.337391 191.418182 
L 135.337391 167.992344 
L 135.337391 167.992344 
z
" style="fill:#ff7f0e;fill-opacity:0.2;stroke:#ff7f0e;stroke-opacity:0.2;"/>
    <path clip-path="url(#p31fd19bd8e)" d="M 141.118277 214.844019 
L 141.118277 230.461244 
L 141.118277 214.844019 
L 141.118277 214.844019 
z
" style="fill:#ff7f0e;fill-opacity:0.2;stroke:#ff7f0e;stroke-opacity:0.2;"/>
    <path clip-path="url(#p31fd19bd8e)" d="M 144.008719 214.844019 
L 144.008719 233.064115 
L 145.453941 221.13429 
L 145.453941 199.226794 
L 145.453941 199.226794 
L 144.008719 214.844019 
z
" style="fill:#ff7f0e;fill-opacity:0.2;stroke:#ff7f0e;stroke-opacity:0.2;"/>
    <path clip-path="url(#p31fd19bd8e)" d="M 148.344384 113.982775 
L 148.344384 212.241148 
L 148.344384 113.982775 
L 148.344384 113.982775 
z
" style="fill:#ff7f0e;fill-opacity:0.2;stroke:#ff7f0e;stroke-opacity:0.2;"/>
    <path clip-path="url(#p31fd19bd8e)" d="M 152.680048 166.105263 
L 152.680048 227.858373 
L 154.12527 213.542584 
L 154.12527 149.088995 
L 154.12527 149.088995 
L 152.680048 166.105263 
z
" style="fill:#ff7f0e;fill-opacity:0.2;stroke:#ff7f0e;stroke-opacity:0.2;"/>
    <path clip-path="url(#p31fd19bd8e)" d="M 157.015712 185.670175 
L 157.015712 207.035407 
L 157.015712 185.670175 
L 157.015712 185.670175 
z
" style="fill:#ff7f0e;fill-opacity:0.2;stroke:#ff7f0e;stroke-opacity:0.2;"/>
    <path clip-path="url(#p31fd19bd8e)" d="M 162.796598 165.389474 
L 162.796598 214.844019 
L 162.796598 165.389474 
L 162.796598 165.389474 
z
" style="fill:#ff7f0e;fill-opacity:0.2;stroke:#ff7f0e;stroke-opacity:0.2;"/>
    <path clip-path="url(#p31fd19bd8e)" d="M 170.022705 183.284211 
L 170.022705 227.858373 
L 170.022705 183.284211 
L 170.022705 183.284211 
z
" style="fill:#ff7f0e;fill-opacity:0.2;stroke:#ff7f0e;stroke-opacity:0.2;"/>
    <path clip-path="url(#p31fd19bd8e)" d="M 174.35837 220.049761 
L 174.35837 225.255502 
L 175.803591 211.964593 
L 177.248813 220.049761 
L 177.248813 212.241148 
L 177.248813 212.241148 
L 175.803591 173.848804 
L 174.35837 220.049761 
z
" style="fill:#ff7f0e;fill-opacity:0.2;stroke:#ff7f0e;stroke-opacity:0.2;"/>
    <path clip-path="url(#p31fd19bd8e)" d="M 180.139256 203.1311 
L 180.139256 226.556938 
L 183.029698 222.652632 
L 184.47492 234.36555 
L 185.920141 223.520255 
L 187.365363 186.21244 
L 188.810584 214.844019 
L 190.255806 228.157703 
L 191.701027 237.993301 
L 193.146249 217.44689 
L 194.59147 209.117703 
L 196.036691 211.72987 
L 197.481913 240.872727 
L 198.927134 223.975758 
L 200.372356 208.588995 
L 201.817577 234.36555 
L 203.262799 229.172823 
L 204.70802 212.4689 
L 206.153242 216.145455 
L 207.598463 218.965231 
L 209.043684 226.727751 
L 210.488906 201.417544 
L 211.934127 213.802871 
L 213.379349 223.549176 
L 214.82457 227.652313 
L 216.269792 211.706114 
L 217.715013 208.785114 
L 219.160235 227.6111 
L 220.605456 229.736159 
L 222.050677 203.792663 
L 223.495899 212.524675 
L 224.94112 223.661244 
L 226.386342 208.532057 
L 227.831563 218.440713 
L 229.276785 208.743541 
L 230.722006 215.90252 
L 232.167228 214.628782 
L 233.612449 210.894163 
L 235.05767 191.277193 
L 236.502892 210.297129 
L 237.948113 223.364083 
L 239.393335 217.34386 
L 240.838556 210.205332 
L 242.283778 197.892823 
L 243.728999 216.7311 
L 245.174221 212.277299 
L 246.619442 215.204872 
L 248.064663 219.669341 
L 249.509885 207.377033 
L 250.955106 203.480861 
L 252.400328 197.801722 
L 253.845549 208.523923 
L 255.290771 207.469219 
L 256.735992 231.595352 
L 258.181214 224.089633 
L 259.626435 219.8437 
L 261.071656 221.453941 
L 262.516878 219.008612 
L 263.962099 208.222192 
L 265.407321 215.946814 
L 266.852542 214.702044 
L 268.297764 207.444429 
L 269.742985 196.737799 
L 271.188207 210.755343 
L 272.633428 204.917616 
L 274.078649 225.078879 
L 275.523871 218.227751 
L 276.969092 216.394896 
L 278.414314 230.597303 
L 279.859535 203.417416 
L 281.304757 226.231579 
L 282.749978 204.857416 
L 284.1952 224.70704 
L 285.640421 231.502392 
L 287.085642 204.817051 
L 288.530864 198.662839 
L 289.976085 222.552066 
L 291.421307 217.423923 
L 292.866528 228.850718 
L 294.31175 215.413397 
L 295.756971 229.843062 
L 297.202193 225.240486 
L 298.647414 200.788517 
L 300.092635 214.705742 
L 301.537857 216.119426 
L 302.983078 216.34067 
L 304.4283 224.747943 
L 305.873521 226.154306 
L 307.318743 223.732823 
L 308.763964 226.734801 
L 310.209186 229.330622 
L 311.654407 224.539713 
L 313.099628 227.755343 
L 314.54485 222.03445 
L 315.990071 229.707496 
L 317.435293 221.586456 
L 318.880514 230.822097 
L 320.325736 218.610048 
L 321.770957 223.250109 
L 323.216179 222.652632 
L 324.6614 209.886733 
L 326.106622 215.390622 
L 327.551843 212.702073 
L 328.997064 225.320574 
L 330.442286 212.696651 
L 331.887507 209.421372 
L 333.332729 220.917384 
L 334.77795 216.145455 
L 336.223172 215.139011 
L 337.668393 221.351196 
L 339.113615 215.116137 
L 340.558836 213.424271 
L 342.004057 224.157959 
L 343.449279 217.020308 
L 344.8945 221.397676 
L 346.339722 206.742584 
L 347.784943 213.375256 
L 349.230165 220.049761 
L 350.675386 218.563955 
L 352.120608 221.116938 
L 353.565829 216.29512 
L 355.01105 216.703987 
L 356.456272 209.898565 
L 357.901493 225.828134 
L 359.346715 227.583626 
L 360.791936 213.560331 
L 362.237158 224.442105 
L 363.682379 225.311278 
L 365.127601 225.255502 
L 366.572822 221.800191 
L 368.018043 232.022967 
L 369.463265 215.8689 
L 370.908486 196.148399 
L 372.353708 220.049761 
L 373.798929 210.975864 
L 375.244151 218.748325 
L 376.689372 204.157788 
L 378.134594 208.414928 
L 379.579815 211.915789 
L 381.025036 217.609569 
L 382.470258 223.335885 
L 383.915479 227.858373 
L 385.360701 211.416906 
L 386.805922 229.470707 
L 388.251144 227.443541 
L 389.696365 233.064115 
L 391.141587 217.108517 
L 392.586808 226.600319 
L 394.032029 222.529718 
L 395.477251 229.998511 
L 396.922472 235.666986 
L 398.367694 205.457416 
L 399.812915 220.249314 
L 401.258137 217.716473 
L 402.703358 222.050718 
L 404.14858 210.939713 
L 405.593801 205.579426 
L 407.039022 219.802488 
L 408.484244 209.126999 
L 409.929465 224.157416 
L 411.374687 213.679234 
L 412.819908 209.254354 
L 414.26513 235.666986 
L 415.710351 209.413484 
L 417.155573 208.387453 
L 418.600794 212.140583 
L 420.046015 224.295694 
L 421.491237 232.413397 
L 422.936458 222.661928 
L 424.38168 207.905002 
L 425.826901 210.939713 
L 427.272123 220.086945 
L 428.717344 219.941308 
L 430.162566 217.186603 
L 431.607787 224.821691 
L 433.053008 226.62201 
L 434.49823 237.228708 
L 435.943451 226.48595 
L 437.388673 198.49799 
L 438.833894 216.802679 
L 440.279116 201.639455 
L 441.724337 227.539522 
L 443.169559 208.785837 
L 444.61478 209.580861 
L 446.060001 211.416906 
L 447.505223 221.386235 
L 448.950444 215.905502 
L 450.395666 206.212714 
L 451.840887 226.867836 
L 453.286109 209.36353 
L 454.73133 222.652632 
L 456.176552 223.158189 
L 457.621773 211.425582 
L 459.066994 201.706029 
L 460.512216 203.631653 
L 461.957437 205.453662 
L 463.402659 212.045933 
L 464.84788 206.651483 
L 466.293102 212.821372 
L 467.738323 215.836364 
L 469.183545 222.25037 
L 470.628766 216.63099 
L 472.073987 223.971814 
L 473.519209 221.605568 
L 474.96443 215.939394 
L 476.409652 213.756391 
L 477.854873 220.460213 
L 479.300095 212.454956 
L 480.745316 213.141308 
L 482.190538 211.468421 
L 483.635759 212.130526 
L 485.08098 208.019617 
L 486.526202 213.387413 
L 487.971423 229.296459 
L 489.416645 212.140583 
L 490.861866 221.058373 
L 492.307088 214.038756 
L 493.752309 233.85799 
L 495.197531 231.827751 
L 496.642752 218.618182 
L 498.087973 221.367464 
L 499.533195 211.803393 
L 500.978416 223.446507 
L 502.423638 227.858373 
L 503.868859 221.120487 
L 505.314081 220.049761 
L 506.759302 226.348708 
L 508.204524 231.028298 
L 509.649745 221.884785 
L 511.094966 210.795109 
L 512.540188 230.931207 
L 513.985409 225.255502 
L 515.430631 216.29512 
L 516.875852 231.111962 
L 518.321074 216.331374 
L 519.766295 205.777352 
L 521.211517 223.474163 
L 522.656738 229.159809 
L 524.101959 221.799468 
L 525.547181 229.159809 
L 526.992402 218.314514 
L 528.437624 216.405742 
L 529.882845 222.652632 
L 531.328067 223.049569 
L 532.773288 226.073548 
L 534.21851 210.733652 
L 535.663731 217.943062 
L 537.108953 230.461244 
L 538.554174 237.50201 
L 539.999395 232.543541 
L 541.444617 215.010314 
L 542.889838 221.732331 
L 544.33506 210.939713 
L 545.780281 222.652632 
L 547.225503 228.602051 
L 548.670724 226.446316 
L 550.115946 223.823923 
L 551.561167 229.172823 
L 553.006388 234.198223 
L 554.45161 234.179631 
L 555.896831 226.402392 
L 557.342053 226.898565 
L 558.787274 231.480702 
L 560.232496 227.858373 
L 561.677717 231.936204 
L 563.122939 236.163158 
L 564.56816 232.839321 
L 566.013381 238.269856 
L 567.458603 237.749282 
L 568.903824 240.352153 
L 570.349046 235.233174 
L 573.239489 240.872727 
L 573.239489 238.269856 
L 573.239489 238.269856 
L 570.349046 233.270175 
L 568.903824 235.393684 
L 567.458603 232.543541 
L 566.013381 230.895056 
L 564.56816 226.911875 
L 563.122939 228.338278 
L 561.677717 223.809463 
L 560.232496 221.025837 
L 558.787274 222.500797 
L 557.342053 216.267464 
L 555.896831 218.911005 
L 554.45161 224.688448 
L 553.006388 216.136159 
L 551.561167 213.503541 
L 550.115946 207.584902 
L 548.670724 207.282679 
L 547.225503 204.023513 
L 545.780281 209.016481 
L 544.33506 201.569378 
L 542.889838 198.854956 
L 541.444617 197.903668 
L 539.999395 212.228134 
L 538.554174 215.53378 
L 537.108953 186.21244 
L 535.663731 194.826316 
L 534.21851 187.080064 
L 532.773288 194.76473 
L 531.328067 194.736842 
L 529.882845 179.271451 
L 528.437624 200.131292 
L 526.992402 196.602233 
L 525.547181 185.18756 
L 524.101959 187.947687 
L 522.656738 201.146411 
L 521.211517 199.877512 
L 519.766295 176.419139 
L 518.321074 183.693233 
L 516.875852 189.466029 
L 515.430631 190.630813 
L 513.985409 216.579266 
L 512.540188 207.020946 
L 511.094966 185.192982 
L 509.649745 200.638852 
L 508.204524 185.803418 
L 506.759302 195.010144 
L 505.314081 217.44689 
L 503.868859 186.188778 
L 502.423638 209.410526 
L 500.978416 200.150813 
L 499.533195 181.343889 
L 498.087973 200.32488 
L 496.642752 161.280656 
L 495.197531 188.815311 
L 493.752309 188.685167 
L 492.307088 188.481818 
L 490.861866 172.230144 
L 489.416645 165.50187 
L 487.971423 209.091675 
L 486.526202 184.810894 
L 485.08098 175.211244 
L 483.635759 178.488421 
L 482.190538 165.047847 
L 480.745316 183.81563 
L 479.300095 152.319344 
L 477.854873 188.114538 
L 476.409652 185.096924 
L 474.96443 187.058373 
L 473.519209 186.792171 
L 472.073987 197.872118 
L 470.628766 178.679131 
L 469.183545 179.924141 
L 467.738323 151.382775 
L 466.293102 162.341946 
L 464.84788 164.966507 
L 463.402659 161.349601 
L 461.957437 171.376077 
L 460.512216 154.342289 
L 459.066994 159.77378 
L 457.621773 168.322041 
L 456.176552 202.370261 
L 454.73133 213.542584 
L 453.286109 183.219139 
L 451.840887 193.977671 
L 450.395666 177.279016 
L 448.950444 193.935646 
L 447.505223 173.082959 
L 446.060001 171.87496 
L 444.61478 175.77799 
L 443.169559 180.570718 
L 441.724337 177.844211 
L 440.279116 175.095179 
L 438.833894 199.461053 
L 437.388673 130.771292 
L 435.943451 205.680731 
L 434.49823 205.994258 
L 433.053008 185.561722 
L 431.607787 137.625518 
L 430.162566 186.19798 
L 428.717344 181.679107 
L 427.272123 194.941353 
L 425.826901 188.896651 
L 424.38168 168.690387 
L 422.936458 206.714696 
L 421.491237 168.610526 
L 420.046015 187.017703 
L 418.600794 182.751805 
L 417.155573 177.630197 
L 415.710351 169.276033 
L 414.26513 188.815311 
L 412.819908 168.630048 
L 411.374687 170.582201 
L 409.929465 174.31244 
L 408.484244 167.797129 
L 407.039022 194.7889 
L 405.593801 167.805263 
L 404.14858 139.086018 
L 402.703358 188.473684 
L 401.258137 172.872727 
L 399.812915 195.994896 
L 398.367694 155.303349 
L 396.922472 184.911005 
L 395.477251 153.401808 
L 394.032029 195.177884 
L 392.586808 176.234769 
L 391.141587 167.38067 
L 389.696365 209.638278 
L 388.251144 176.833971 
L 386.805922 177.998937 
L 385.360701 120.099522 
L 383.915479 198.927464 
L 382.470258 187.822967 
L 381.025036 164.982775 
L 379.579815 174.930622 
L 378.134594 177.349665 
L 376.689372 133.988729 
L 375.244151 203.781818 
L 373.798929 167.688676 
L 372.353708 200.463158 
L 370.908486 160.574163 
L 369.463265 178.073046 
L 368.018043 153.936842 
L 366.572822 171.623349 
L 365.127601 191.396491 
L 363.682379 182.22447 
L 362.237158 181.364593 
L 360.791936 180.160766 
L 359.346715 183.370973 
L 357.901493 170.595215 
L 356.456272 171.222271 
L 355.01105 189.238278 
L 353.565829 171.76 
L 352.120608 182.542392 
L 350.675386 181.830941 
L 349.230165 181.006699 
L 347.784943 127.164457 
L 346.339722 170.221053 
L 344.8945 181.006699 
L 343.449279 192.987135 
L 342.004057 196.858182 
L 340.558836 187.271335 
L 339.113615 186.313006 
L 337.668393 200.357416 
L 336.223172 169.757959 
L 334.77795 208.336842 
L 333.332729 180.464434 
L 331.887507 169.272089 
L 330.442286 159.842105 
L 328.997064 145.290431 
L 327.551843 151.919617 
L 326.106622 144.163062 
L 324.6614 182.189822 
L 323.216179 161.918979 
L 321.770957 185.591301 
L 320.325736 193.337799 
L 318.880514 195.180513 
L 317.435293 182.102908 
L 315.990071 200.197448 
L 314.54485 190.702392 
L 313.099628 208.418182 
L 311.654407 186.154599 
L 310.209186 133.268421 
L 308.763964 194.754195 
L 307.318743 173.666603 
L 305.873521 211.016986 
L 304.4283 174.844402 
L 302.983078 145.240465 
L 301.537857 188.069155 
L 300.092635 134.984689 
L 298.647414 144.083117 
L 297.202193 151.303938 
L 295.756971 214.513238 
L 294.31175 182.611802 
L 292.866528 183.438756 
L 291.421307 185.745455 
L 289.976085 169.72562 
L 288.530864 166.445082 
L 287.085642 180.645846 
L 285.640421 206.378182 
L 284.1952 187.095557 
L 282.749978 139.226794 
L 281.304757 175.288517 
L 279.859535 170.198278 
L 278.414314 196.937451 
L 276.969092 175.003828 
L 275.523871 173.458373 
L 274.078649 184.316063 
L 272.633428 163.313093 
L 271.188207 162.721531 
L 269.742985 165.264753 
L 268.297764 170.195489 
L 266.852542 178.244106 
L 265.407321 180.523798 
L 263.962099 176.55393 
L 262.516878 149.173589 
L 261.071656 155.392395 
L 259.626435 157.786922 
L 258.181214 204.958533 
L 256.735992 195.647847 
L 255.290771 141.395343 
L 253.845549 168.220096 
L 252.400328 114.099904 
L 250.955106 163.453589 
L 249.509885 176.264593 
L 248.064663 191.903717 
L 246.619442 178.119878 
L 245.174221 176.335991 
L 243.728999 182.575651 
L 242.283778 77.497033 
L 240.838556 177.26972 
L 239.393335 201.135566 
L 237.948113 177.510175 
L 236.502892 187.257656 
L 235.05767 138.916108 
L 233.612449 173.978947 
L 232.167228 138.454766 
L 230.722006 195.665199 
L 229.276785 188.567225 
L 227.831563 166.868378 
L 226.386342 167.964457 
L 224.94112 179.405933 
L 223.495899 179.589064 
L 222.050677 169.499841 
L 220.605456 200.518934 
L 219.160235 189.062584 
L 217.715013 139.194471 
L 216.269792 174.174163 
L 214.82457 205.300159 
L 213.379349 201.64891 
L 211.934127 198.185646 
L 210.488906 183.609569 
L 209.043684 189.77512 
L 207.598463 192.605742 
L 206.153242 191.86555 
L 204.70802 179.455821 
L 203.262799 202.350239 
L 201.817577 172.791388 
L 200.372356 141.898565 
L 198.927134 201.395853 
L 197.481913 165.562998 
L 196.036691 171.143677 
L 194.59147 145.867943 
L 193.146249 196.623923 
L 191.701027 177.75311 
L 190.255806 204.159234 
L 188.810584 204.432536 
L 187.365363 161.289952 
L 185.920141 147.169378 
L 184.47492 201.488038 
L 183.029698 142.640383 
L 180.139256 203.1311 
z
" style="fill:#ff7f0e;fill-opacity:0.2;stroke:#ff7f0e;stroke-opacity:0.2;"/>
   </g>
   <g id="matplotlib.axis_1">
    <g id="xtick_1">
     <g id="line2d_1">
      <defs>
       <path d="M 0 0 
L 0 3.5 
" id="m304b930c14" style="stroke:#000000;stroke-width:0.8;"/>
      </defs>
      <g>
       <use style="stroke:#000000;stroke-width:0.8;" x="41.397997" xlink:href="#m304b930c14" y="252"/>
      </g>
     </g>
     <g id="text_1">
      <!-- Mar 2020 -->
      <g transform="translate(44.157372 306.495312)rotate(-90)scale(0.1 -0.1)">
       <defs>
        <path d="M 9.8125 72.90625 
L 24.515625 72.90625 
L 43.109375 23.296875 
L 61.8125 72.90625 
L 76.515625 72.90625 
L 76.515625 0 
L 66.890625 0 
L 66.890625 64.015625 
L 48.09375 14.015625 
L 38.1875 14.015625 
L 19.390625 64.015625 
L 19.390625 0 
L 9.8125 0 
z
" id="DejaVuSans-77"/>
        <path d="M 34.28125 27.484375 
Q 23.390625 27.484375 19.1875 25 
Q 14.984375 22.515625 14.984375 16.5 
Q 14.984375 11.71875 18.140625 8.90625 
Q 21.296875 6.109375 26.703125 6.109375 
Q 34.1875 6.109375 38.703125 11.40625 
Q 43.21875 16.703125 43.21875 25.484375 
L 43.21875 27.484375 
z
M 52.203125 31.203125 
L 52.203125 0 
L 43.21875 0 
L 43.21875 8.296875 
Q 40.140625 3.328125 35.546875 0.953125 
Q 30.953125 -1.421875 24.3125 -1.421875 
Q 15.921875 -1.421875 10.953125 3.296875 
Q 6 8.015625 6 15.921875 
Q 6 25.140625 12.171875 29.828125 
Q 18.359375 34.515625 30.609375 34.515625 
L 43.21875 34.515625 
L 43.21875 35.40625 
Q 43.21875 41.609375 39.140625 45 
Q 35.0625 48.390625 27.6875 48.390625 
Q 23 48.390625 18.546875 47.265625 
Q 14.109375 46.140625 10.015625 43.890625 
L 10.015625 52.203125 
Q 14.9375 54.109375 19.578125 55.046875 
Q 24.21875 56 28.609375 56 
Q 40.484375 56 46.34375 49.84375 
Q 52.203125 43.703125 52.203125 31.203125 
z
" id="DejaVuSans-97"/>
        <path d="M 41.109375 46.296875 
Q 39.59375 47.171875 37.8125 47.578125 
Q 36.03125 48 33.890625 48 
Q 26.265625 48 22.1875 43.046875 
Q 18.109375 38.09375 18.109375 28.8125 
L 18.109375 0 
L 9.078125 0 
L 9.078125 54.6875 
L 18.109375 54.6875 
L 18.109375 46.1875 
Q 20.953125 51.171875 25.484375 53.578125 
Q 30.03125 56 36.53125 56 
Q 37.453125 56 38.578125 55.875 
Q 39.703125 55.765625 41.0625 55.515625 
z
" id="DejaVuSans-114"/>
        <path id="DejaVuSans-32"/>
        <path d="M 19.1875 8.296875 
L 53.609375 8.296875 
L 53.609375 0 
L 7.328125 0 
L 7.328125 8.296875 
Q 12.9375 14.109375 22.625 23.890625 
Q 32.328125 33.6875 34.8125 36.53125 
Q 39.546875 41.84375 41.421875 45.53125 
Q 43.3125 49.21875 43.3125 52.78125 
Q 43.3125 58.59375 39.234375 62.25 
Q 35.15625 65.921875 28.609375 65.921875 
Q 23.96875 65.921875 18.8125 64.3125 
Q 13.671875 62.703125 7.8125 59.421875 
L 7.8125 69.390625 
Q 13.765625 71.78125 18.9375 73 
Q 24.125 74.21875 28.421875 74.21875 
Q 39.75 74.21875 46.484375 68.546875 
Q 53.21875 62.890625 53.21875 53.421875 
Q 53.21875 48.921875 51.53125 44.890625 
Q 49.859375 40.875 45.40625 35.40625 
Q 44.1875 33.984375 37.640625 27.21875 
Q 31.109375 20.453125 19.1875 8.296875 
z
" id="DejaVuSans-50"/>
        <path d="M 31.78125 66.40625 
Q 24.171875 66.40625 20.328125 58.90625 
Q 16.5 51.421875 16.5 36.375 
Q 16.5 21.390625 20.328125 13.890625 
Q 24.171875 6.390625 31.78125 6.390625 
Q 39.453125 6.390625 43.28125 13.890625 
Q 47.125 21.390625 47.125 36.375 
Q 47.125 51.421875 43.28125 58.90625 
Q 39.453125 66.40625 31.78125 66.40625 
z
M 31.78125 74.21875 
Q 44.046875 74.21875 50.515625 64.515625 
Q 56.984375 54.828125 56.984375 36.375 
Q 56.984375 17.96875 50.515625 8.265625 
Q 44.046875 -1.421875 31.78125 -1.421875 
Q 19.53125 -1.421875 13.0625 8.265625 
Q 6.59375 17.96875 6.59375 36.375 
Q 6.59375 54.828125 13.0625 64.515625 
Q 19.53125 74.21875 31.78125 74.21875 
z
" id="DejaVuSans-48"/>
       </defs>
       <use xlink:href="#DejaVuSans-77"/>
       <use x="86.279297" xlink:href="#DejaVuSans-97"/>
       <use x="147.558594" xlink:href="#DejaVuSans-114"/>
       <use x="188.671875" xlink:href="#DejaVuSans-32"/>
       <use x="220.458984" xlink:href="#DejaVuSans-50"/>
       <use x="284.082031" xlink:href="#DejaVuSans-48"/>
       <use x="347.705078" xlink:href="#DejaVuSans-50"/>
       <use x="411.328125" xlink:href="#DejaVuSans-48"/>
      </g>
     </g>
    </g>
    <g id="xtick_2">
     <g id="line2d_2">
      <g>
       <use style="stroke:#000000;stroke-width:0.8;" x="86.199862" xlink:href="#m304b930c14" y="252"/>
      </g>
     </g>
     <g id="text_2">
      <!-- Apr 2020 -->
      <g transform="translate(88.959237 304.928125)rotate(-90)scale(0.1 -0.1)">
       <defs>
        <path d="M 34.1875 63.1875 
L 20.796875 26.90625 
L 47.609375 26.90625 
z
M 28.609375 72.90625 
L 39.796875 72.90625 
L 67.578125 0 
L 57.328125 0 
L 50.6875 18.703125 
L 17.828125 18.703125 
L 11.1875 0 
L 0.78125 0 
z
" id="DejaVuSans-65"/>
        <path d="M 18.109375 8.203125 
L 18.109375 -20.796875 
L 9.078125 -20.796875 
L 9.078125 54.6875 
L 18.109375 54.6875 
L 18.109375 46.390625 
Q 20.953125 51.265625 25.265625 53.625 
Q 29.59375 56 35.59375 56 
Q 45.5625 56 51.78125 48.09375 
Q 58.015625 40.1875 58.015625 27.296875 
Q 58.015625 14.40625 51.78125 6.484375 
Q 45.5625 -1.421875 35.59375 -1.421875 
Q 29.59375 -1.421875 25.265625 0.953125 
Q 20.953125 3.328125 18.109375 8.203125 
z
M 48.6875 27.296875 
Q 48.6875 37.203125 44.609375 42.84375 
Q 40.53125 48.484375 33.40625 48.484375 
Q 26.265625 48.484375 22.1875 42.84375 
Q 18.109375 37.203125 18.109375 27.296875 
Q 18.109375 17.390625 22.1875 11.75 
Q 26.265625 6.109375 33.40625 6.109375 
Q 40.53125 6.109375 44.609375 11.75 
Q 48.6875 17.390625 48.6875 27.296875 
z
" id="DejaVuSans-112"/>
       </defs>
       <use xlink:href="#DejaVuSans-65"/>
       <use x="68.408203" xlink:href="#DejaVuSans-112"/>
       <use x="131.884766" xlink:href="#DejaVuSans-114"/>
       <use x="172.998047" xlink:href="#DejaVuSans-32"/>
       <use x="204.785156" xlink:href="#DejaVuSans-50"/>
       <use x="268.408203" xlink:href="#DejaVuSans-48"/>
       <use x="332.03125" xlink:href="#DejaVuSans-50"/>
       <use x="395.654297" xlink:href="#DejaVuSans-48"/>
      </g>
     </g>
    </g>
    <g id="xtick_3">
     <g id="line2d_3">
      <g>
       <use style="stroke:#000000;stroke-width:0.8;" x="129.556505" xlink:href="#m304b930c14" y="252"/>
      </g>
     </g>
     <g id="text_3">
      <!-- May 2020 -->
      <g transform="translate(132.31588 308.303125)rotate(-90)scale(0.1 -0.1)">
       <defs>
        <path d="M 32.171875 -5.078125 
Q 28.375 -14.84375 24.75 -17.8125 
Q 21.140625 -20.796875 15.09375 -20.796875 
L 7.90625 -20.796875 
L 7.90625 -13.28125 
L 13.1875 -13.28125 
Q 16.890625 -13.28125 18.9375 -11.515625 
Q 21 -9.765625 23.484375 -3.21875 
L 25.09375 0.875 
L 2.984375 54.6875 
L 12.5 54.6875 
L 29.59375 11.921875 
L 46.6875 54.6875 
L 56.203125 54.6875 
z
" id="DejaVuSans-121"/>
       </defs>
       <use xlink:href="#DejaVuSans-77"/>
       <use x="86.279297" xlink:href="#DejaVuSans-97"/>
       <use x="147.558594" xlink:href="#DejaVuSans-121"/>
       <use x="206.738281" xlink:href="#DejaVuSans-32"/>
       <use x="238.525391" xlink:href="#DejaVuSans-50"/>
       <use x="302.148438" xlink:href="#DejaVuSans-48"/>
       <use x="365.771484" xlink:href="#DejaVuSans-50"/>
       <use x="429.394531" xlink:href="#DejaVuSans-48"/>
      </g>
     </g>
    </g>
    <g id="xtick_4">
     <g id="line2d_4">
      <g>
       <use style="stroke:#000000;stroke-width:0.8;" x="174.35837" xlink:href="#m304b930c14" y="252"/>
      </g>
     </g>
     <g id="text_4">
      <!-- Jun 2020 -->
      <g transform="translate(177.117745 303.253125)rotate(-90)scale(0.1 -0.1)">
       <defs>
        <path d="M 9.8125 72.90625 
L 19.671875 72.90625 
L 19.671875 5.078125 
Q 19.671875 -8.109375 14.671875 -14.0625 
Q 9.671875 -20.015625 -1.421875 -20.015625 
L -5.171875 -20.015625 
L -5.171875 -11.71875 
L -2.09375 -11.71875 
Q 4.4375 -11.71875 7.125 -8.046875 
Q 9.8125 -4.390625 9.8125 5.078125 
z
" id="DejaVuSans-74"/>
        <path d="M 8.5 21.578125 
L 8.5 54.6875 
L 17.484375 54.6875 
L 17.484375 21.921875 
Q 17.484375 14.15625 20.5 10.265625 
Q 23.53125 6.390625 29.59375 6.390625 
Q 36.859375 6.390625 41.078125 11.03125 
Q 45.3125 15.671875 45.3125 23.6875 
L 45.3125 54.6875 
L 54.296875 54.6875 
L 54.296875 0 
L 45.3125 0 
L 45.3125 8.40625 
Q 42.046875 3.421875 37.71875 1 
Q 33.40625 -1.421875 27.6875 -1.421875 
Q 18.265625 -1.421875 13.375 4.4375 
Q 8.5 10.296875 8.5 21.578125 
z
M 31.109375 56 
z
" id="DejaVuSans-117"/>
        <path d="M 54.890625 33.015625 
L 54.890625 0 
L 45.90625 0 
L 45.90625 32.71875 
Q 45.90625 40.484375 42.875 44.328125 
Q 39.84375 48.1875 33.796875 48.1875 
Q 26.515625 48.1875 22.3125 43.546875 
Q 18.109375 38.921875 18.109375 30.90625 
L 18.109375 0 
L 9.078125 0 
L 9.078125 54.6875 
L 18.109375 54.6875 
L 18.109375 46.1875 
Q 21.34375 51.125 25.703125 53.5625 
Q 30.078125 56 35.796875 56 
Q 45.21875 56 50.046875 50.171875 
Q 54.890625 44.34375 54.890625 33.015625 
z
" id="DejaVuSans-110"/>
       </defs>
       <use xlink:href="#DejaVuSans-74"/>
       <use x="29.492188" xlink:href="#DejaVuSans-117"/>
       <use x="92.871094" xlink:href="#DejaVuSans-110"/>
       <use x="156.25" xlink:href="#DejaVuSans-32"/>
       <use x="188.037109" xlink:href="#DejaVuSans-50"/>
       <use x="251.660156" xlink:href="#DejaVuSans-48"/>
       <use x="315.283203" xlink:href="#DejaVuSans-50"/>
       <use x="378.90625" xlink:href="#DejaVuSans-48"/>
      </g>
     </g>
    </g>
    <g id="xtick_5">
     <g id="line2d_5">
      <g>
       <use style="stroke:#000000;stroke-width:0.8;" x="217.715013" xlink:href="#m304b930c14" y="252"/>
      </g>
     </g>
     <g id="text_5">
      <!-- Jul 2020 -->
      <g transform="translate(220.474388 299.69375)rotate(-90)scale(0.1 -0.1)">
       <defs>
        <path d="M 9.421875 75.984375 
L 18.40625 75.984375 
L 18.40625 0 
L 9.421875 0 
z
" id="DejaVuSans-108"/>
       </defs>
       <use xlink:href="#DejaVuSans-74"/>
       <use x="29.492188" xlink:href="#DejaVuSans-117"/>
       <use x="92.871094" xlink:href="#DejaVuSans-108"/>
       <use x="120.654297" xlink:href="#DejaVuSans-32"/>
       <use x="152.441406" xlink:href="#DejaVuSans-50"/>
       <use x="216.064453" xlink:href="#DejaVuSans-48"/>
       <use x="279.6875" xlink:href="#DejaVuSans-50"/>
       <use x="343.310547" xlink:href="#DejaVuSans-48"/>
      </g>
     </g>
    </g>
    <g id="xtick_6">
     <g id="line2d_6">
      <g>
       <use style="stroke:#000000;stroke-width:0.8;" x="262.516878" xlink:href="#m304b930c14" y="252"/>
      </g>
     </g>
     <g id="text_6">
      <!-- Aug 2020 -->
      <g transform="translate(265.276253 307.154687)rotate(-90)scale(0.1 -0.1)">
       <defs>
        <path d="M 45.40625 27.984375 
Q 45.40625 37.75 41.375 43.109375 
Q 37.359375 48.484375 30.078125 48.484375 
Q 22.859375 48.484375 18.828125 43.109375 
Q 14.796875 37.75 14.796875 27.984375 
Q 14.796875 18.265625 18.828125 12.890625 
Q 22.859375 7.515625 30.078125 7.515625 
Q 37.359375 7.515625 41.375 12.890625 
Q 45.40625 18.265625 45.40625 27.984375 
z
M 54.390625 6.78125 
Q 54.390625 -7.171875 48.1875 -13.984375 
Q 42 -20.796875 29.203125 -20.796875 
Q 24.46875 -20.796875 20.265625 -20.09375 
Q 16.0625 -19.390625 12.109375 -17.921875 
L 12.109375 -9.1875 
Q 16.0625 -11.328125 19.921875 -12.34375 
Q 23.78125 -13.375 27.78125 -13.375 
Q 36.625 -13.375 41.015625 -8.765625 
Q 45.40625 -4.15625 45.40625 5.171875 
L 45.40625 9.625 
Q 42.625 4.78125 38.28125 2.390625 
Q 33.9375 0 27.875 0 
Q 17.828125 0 11.671875 7.65625 
Q 5.515625 15.328125 5.515625 27.984375 
Q 5.515625 40.671875 11.671875 48.328125 
Q 17.828125 56 27.875 56 
Q 33.9375 56 38.28125 53.609375 
Q 42.625 51.21875 45.40625 46.390625 
L 45.40625 54.6875 
L 54.390625 54.6875 
z
" id="DejaVuSans-103"/>
       </defs>
       <use xlink:href="#DejaVuSans-65"/>
       <use x="68.408203" xlink:href="#DejaVuSans-117"/>
       <use x="131.787109" xlink:href="#DejaVuSans-103"/>
       <use x="195.263672" xlink:href="#DejaVuSans-32"/>
       <use x="227.050781" xlink:href="#DejaVuSans-50"/>
       <use x="290.673828" xlink:href="#DejaVuSans-48"/>
       <use x="354.296875" xlink:href="#DejaVuSans-50"/>
       <use x="417.919922" xlink:href="#DejaVuSans-48"/>
      </g>
     </g>
    </g>
    <g id="xtick_7">
     <g id="line2d_7">
      <g>
       <use style="stroke:#000000;stroke-width:0.8;" x="307.318743" xlink:href="#m304b930c14" y="252"/>
      </g>
     </g>
     <g id="text_7">
      <!-- Sep 2020 -->
      <g transform="translate(310.078118 306.478125)rotate(-90)scale(0.1 -0.1)">
       <defs>
        <path d="M 53.515625 70.515625 
L 53.515625 60.890625 
Q 47.90625 63.578125 42.921875 64.890625 
Q 37.9375 66.21875 33.296875 66.21875 
Q 25.25 66.21875 20.875 63.09375 
Q 16.5 59.96875 16.5 54.203125 
Q 16.5 49.359375 19.40625 46.890625 
Q 22.3125 44.4375 30.421875 42.921875 
L 36.375 41.703125 
Q 47.40625 39.59375 52.65625 34.296875 
Q 57.90625 29 57.90625 20.125 
Q 57.90625 9.515625 50.796875 4.046875 
Q 43.703125 -1.421875 29.984375 -1.421875 
Q 24.8125 -1.421875 18.96875 -0.25 
Q 13.140625 0.921875 6.890625 3.21875 
L 6.890625 13.375 
Q 12.890625 10.015625 18.65625 8.296875 
Q 24.421875 6.59375 29.984375 6.59375 
Q 38.421875 6.59375 43.015625 9.90625 
Q 47.609375 13.234375 47.609375 19.390625 
Q 47.609375 24.75 44.3125 27.78125 
Q 41.015625 30.8125 33.5 32.328125 
L 27.484375 33.5 
Q 16.453125 35.6875 11.515625 40.375 
Q 6.59375 45.0625 6.59375 53.421875 
Q 6.59375 63.09375 13.40625 68.65625 
Q 20.21875 74.21875 32.171875 74.21875 
Q 37.3125 74.21875 42.625 73.28125 
Q 47.953125 72.359375 53.515625 70.515625 
z
" id="DejaVuSans-83"/>
        <path d="M 56.203125 29.59375 
L 56.203125 25.203125 
L 14.890625 25.203125 
Q 15.484375 15.921875 20.484375 11.0625 
Q 25.484375 6.203125 34.421875 6.203125 
Q 39.59375 6.203125 44.453125 7.46875 
Q 49.3125 8.734375 54.109375 11.28125 
L 54.109375 2.78125 
Q 49.265625 0.734375 44.1875 -0.34375 
Q 39.109375 -1.421875 33.890625 -1.421875 
Q 20.796875 -1.421875 13.15625 6.1875 
Q 5.515625 13.8125 5.515625 26.8125 
Q 5.515625 40.234375 12.765625 48.109375 
Q 20.015625 56 32.328125 56 
Q 43.359375 56 49.78125 48.890625 
Q 56.203125 41.796875 56.203125 29.59375 
z
M 47.21875 32.234375 
Q 47.125 39.59375 43.09375 43.984375 
Q 39.0625 48.390625 32.421875 48.390625 
Q 24.90625 48.390625 20.390625 44.140625 
Q 15.875 39.890625 15.1875 32.171875 
z
" id="DejaVuSans-101"/>
       </defs>
       <use xlink:href="#DejaVuSans-83"/>
       <use x="63.476562" xlink:href="#DejaVuSans-101"/>
       <use x="125" xlink:href="#DejaVuSans-112"/>
       <use x="188.476562" xlink:href="#DejaVuSans-32"/>
       <use x="220.263672" xlink:href="#DejaVuSans-50"/>
       <use x="283.886719" xlink:href="#DejaVuSans-48"/>
       <use x="347.509766" xlink:href="#DejaVuSans-50"/>
       <use x="411.132812" xlink:href="#DejaVuSans-48"/>
      </g>
     </g>
    </g>
    <g id="xtick_8">
     <g id="line2d_8">
      <g>
       <use style="stroke:#000000;stroke-width:0.8;" x="350.675386" xlink:href="#m304b930c14" y="252"/>
      </g>
     </g>
     <g id="text_8">
      <!-- Oct 2020 -->
      <g transform="translate(353.434761 304.91875)rotate(-90)scale(0.1 -0.1)">
       <defs>
        <path d="M 39.40625 66.21875 
Q 28.65625 66.21875 22.328125 58.203125 
Q 16.015625 50.203125 16.015625 36.375 
Q 16.015625 22.609375 22.328125 14.59375 
Q 28.65625 6.59375 39.40625 6.59375 
Q 50.140625 6.59375 56.421875 14.59375 
Q 62.703125 22.609375 62.703125 36.375 
Q 62.703125 50.203125 56.421875 58.203125 
Q 50.140625 66.21875 39.40625 66.21875 
z
M 39.40625 74.21875 
Q 54.734375 74.21875 63.90625 63.9375 
Q 73.09375 53.65625 73.09375 36.375 
Q 73.09375 19.140625 63.90625 8.859375 
Q 54.734375 -1.421875 39.40625 -1.421875 
Q 24.03125 -1.421875 14.8125 8.828125 
Q 5.609375 19.09375 5.609375 36.375 
Q 5.609375 53.65625 14.8125 63.9375 
Q 24.03125 74.21875 39.40625 74.21875 
z
" id="DejaVuSans-79"/>
        <path d="M 48.78125 52.59375 
L 48.78125 44.1875 
Q 44.96875 46.296875 41.140625 47.34375 
Q 37.3125 48.390625 33.40625 48.390625 
Q 24.65625 48.390625 19.8125 42.84375 
Q 14.984375 37.3125 14.984375 27.296875 
Q 14.984375 17.28125 19.8125 11.734375 
Q 24.65625 6.203125 33.40625 6.203125 
Q 37.3125 6.203125 41.140625 7.25 
Q 44.96875 8.296875 48.78125 10.40625 
L 48.78125 2.09375 
Q 45.015625 0.34375 40.984375 -0.53125 
Q 36.96875 -1.421875 32.421875 -1.421875 
Q 20.0625 -1.421875 12.78125 6.34375 
Q 5.515625 14.109375 5.515625 27.296875 
Q 5.515625 40.671875 12.859375 48.328125 
Q 20.21875 56 33.015625 56 
Q 37.15625 56 41.109375 55.140625 
Q 45.0625 54.296875 48.78125 52.59375 
z
" id="DejaVuSans-99"/>
        <path d="M 18.3125 70.21875 
L 18.3125 54.6875 
L 36.8125 54.6875 
L 36.8125 47.703125 
L 18.3125 47.703125 
L 18.3125 18.015625 
Q 18.3125 11.328125 20.140625 9.421875 
Q 21.96875 7.515625 27.59375 7.515625 
L 36.8125 7.515625 
L 36.8125 0 
L 27.59375 0 
Q 17.1875 0 13.234375 3.875 
Q 9.28125 7.765625 9.28125 18.015625 
L 9.28125 47.703125 
L 2.6875 47.703125 
L 2.6875 54.6875 
L 9.28125 54.6875 
L 9.28125 70.21875 
z
" id="DejaVuSans-116"/>
       </defs>
       <use xlink:href="#DejaVuSans-79"/>
       <use x="78.710938" xlink:href="#DejaVuSans-99"/>
       <use x="133.691406" xlink:href="#DejaVuSans-116"/>
       <use x="172.900391" xlink:href="#DejaVuSans-32"/>
       <use x="204.6875" xlink:href="#DejaVuSans-50"/>
       <use x="268.310547" xlink:href="#DejaVuSans-48"/>
       <use x="331.933594" xlink:href="#DejaVuSans-50"/>
       <use x="395.556641" xlink:href="#DejaVuSans-48"/>
      </g>
     </g>
    </g>
    <g id="xtick_9">
     <g id="line2d_9">
      <g>
       <use style="stroke:#000000;stroke-width:0.8;" x="395.477251" xlink:href="#m304b930c14" y="252"/>
      </g>
     </g>
     <g id="text_9">
      <!-- Nov 2020 -->
      <g transform="translate(398.236626 307.146875)rotate(-90)scale(0.1 -0.1)">
       <defs>
        <path d="M 9.8125 72.90625 
L 23.09375 72.90625 
L 55.421875 11.921875 
L 55.421875 72.90625 
L 64.984375 72.90625 
L 64.984375 0 
L 51.703125 0 
L 19.390625 60.984375 
L 19.390625 0 
L 9.8125 0 
z
" id="DejaVuSans-78"/>
        <path d="M 30.609375 48.390625 
Q 23.390625 48.390625 19.1875 42.75 
Q 14.984375 37.109375 14.984375 27.296875 
Q 14.984375 17.484375 19.15625 11.84375 
Q 23.34375 6.203125 30.609375 6.203125 
Q 37.796875 6.203125 41.984375 11.859375 
Q 46.1875 17.53125 46.1875 27.296875 
Q 46.1875 37.015625 41.984375 42.703125 
Q 37.796875 48.390625 30.609375 48.390625 
z
M 30.609375 56 
Q 42.328125 56 49.015625 48.375 
Q 55.71875 40.765625 55.71875 27.296875 
Q 55.71875 13.875 49.015625 6.21875 
Q 42.328125 -1.421875 30.609375 -1.421875 
Q 18.84375 -1.421875 12.171875 6.21875 
Q 5.515625 13.875 5.515625 27.296875 
Q 5.515625 40.765625 12.171875 48.375 
Q 18.84375 56 30.609375 56 
z
" id="DejaVuSans-111"/>
        <path d="M 2.984375 54.6875 
L 12.5 54.6875 
L 29.59375 8.796875 
L 46.6875 54.6875 
L 56.203125 54.6875 
L 35.6875 0 
L 23.484375 0 
z
" id="DejaVuSans-118"/>
       </defs>
       <use xlink:href="#DejaVuSans-78"/>
       <use x="74.804688" xlink:href="#DejaVuSans-111"/>
       <use x="135.986328" xlink:href="#DejaVuSans-118"/>
       <use x="195.166016" xlink:href="#DejaVuSans-32"/>
       <use x="226.953125" xlink:href="#DejaVuSans-50"/>
       <use x="290.576172" xlink:href="#DejaVuSans-48"/>
       <use x="354.199219" xlink:href="#DejaVuSans-50"/>
       <use x="417.822266" xlink:href="#DejaVuSans-48"/>
      </g>
     </g>
    </g>
    <g id="xtick_10">
     <g id="line2d_10">
      <g>
       <use style="stroke:#000000;stroke-width:0.8;" x="438.833894" xlink:href="#m304b930c14" y="252"/>
      </g>
     </g>
     <g id="text_10">
      <!-- Dec 2020 -->
      <g transform="translate(441.593269 306.979687)rotate(-90)scale(0.1 -0.1)">
       <defs>
        <path d="M 19.671875 64.796875 
L 19.671875 8.109375 
L 31.59375 8.109375 
Q 46.6875 8.109375 53.6875 14.9375 
Q 60.6875 21.78125 60.6875 36.53125 
Q 60.6875 51.171875 53.6875 57.984375 
Q 46.6875 64.796875 31.59375 64.796875 
z
M 9.8125 72.90625 
L 30.078125 72.90625 
Q 51.265625 72.90625 61.171875 64.09375 
Q 71.09375 55.28125 71.09375 36.53125 
Q 71.09375 17.671875 61.125 8.828125 
Q 51.171875 0 30.078125 0 
L 9.8125 0 
z
" id="DejaVuSans-68"/>
       </defs>
       <use xlink:href="#DejaVuSans-68"/>
       <use x="77.001953" xlink:href="#DejaVuSans-101"/>
       <use x="138.525391" xlink:href="#DejaVuSans-99"/>
       <use x="193.505859" xlink:href="#DejaVuSans-32"/>
       <use x="225.292969" xlink:href="#DejaVuSans-50"/>
       <use x="288.916016" xlink:href="#DejaVuSans-48"/>
       <use x="352.539062" xlink:href="#DejaVuSans-50"/>
       <use x="416.162109" xlink:href="#DejaVuSans-48"/>
      </g>
     </g>
    </g>
    <g id="xtick_11">
     <g id="line2d_11">
      <g>
       <use style="stroke:#000000;stroke-width:0.8;" x="483.635759" xlink:href="#m304b930c14" y="252"/>
      </g>
     </g>
     <g id="text_11">
      <!-- Jan 2021 -->
      <g transform="translate(486.395134 303.04375)rotate(-90)scale(0.1 -0.1)">
       <defs>
        <path d="M 12.40625 8.296875 
L 28.515625 8.296875 
L 28.515625 63.921875 
L 10.984375 60.40625 
L 10.984375 69.390625 
L 28.421875 72.90625 
L 38.28125 72.90625 
L 38.28125 8.296875 
L 54.390625 8.296875 
L 54.390625 0 
L 12.40625 0 
z
" id="DejaVuSans-49"/>
       </defs>
       <use xlink:href="#DejaVuSans-74"/>
       <use x="29.492188" xlink:href="#DejaVuSans-97"/>
       <use x="90.771484" xlink:href="#DejaVuSans-110"/>
       <use x="154.150391" xlink:href="#DejaVuSans-32"/>
       <use x="185.9375" xlink:href="#DejaVuSans-50"/>
       <use x="249.560547" xlink:href="#DejaVuSans-48"/>
       <use x="313.183594" xlink:href="#DejaVuSans-50"/>
       <use x="376.806641" xlink:href="#DejaVuSans-49"/>
      </g>
     </g>
    </g>
    <g id="xtick_12">
     <g id="line2d_12">
      <g>
       <use style="stroke:#000000;stroke-width:0.8;" x="528.437624" xlink:href="#m304b930c14" y="252"/>
      </g>
     </g>
     <g id="text_12">
      <!-- Feb 2021 -->
      <g transform="translate(531.196999 305.33125)rotate(-90)scale(0.1 -0.1)">
       <defs>
        <path d="M 9.8125 72.90625 
L 51.703125 72.90625 
L 51.703125 64.59375 
L 19.671875 64.59375 
L 19.671875 43.109375 
L 48.578125 43.109375 
L 48.578125 34.8125 
L 19.671875 34.8125 
L 19.671875 0 
L 9.8125 0 
z
" id="DejaVuSans-70"/>
        <path d="M 48.6875 27.296875 
Q 48.6875 37.203125 44.609375 42.84375 
Q 40.53125 48.484375 33.40625 48.484375 
Q 26.265625 48.484375 22.1875 42.84375 
Q 18.109375 37.203125 18.109375 27.296875 
Q 18.109375 17.390625 22.1875 11.75 
Q 26.265625 6.109375 33.40625 6.109375 
Q 40.53125 6.109375 44.609375 11.75 
Q 48.6875 17.390625 48.6875 27.296875 
z
M 18.109375 46.390625 
Q 20.953125 51.265625 25.265625 53.625 
Q 29.59375 56 35.59375 56 
Q 45.5625 56 51.78125 48.09375 
Q 58.015625 40.1875 58.015625 27.296875 
Q 58.015625 14.40625 51.78125 6.484375 
Q 45.5625 -1.421875 35.59375 -1.421875 
Q 29.59375 -1.421875 25.265625 0.953125 
Q 20.953125 3.328125 18.109375 8.203125 
L 18.109375 0 
L 9.078125 0 
L 9.078125 75.984375 
L 18.109375 75.984375 
z
" id="DejaVuSans-98"/>
       </defs>
       <use xlink:href="#DejaVuSans-70"/>
       <use x="52.019531" xlink:href="#DejaVuSans-101"/>
       <use x="113.542969" xlink:href="#DejaVuSans-98"/>
       <use x="177.019531" xlink:href="#DejaVuSans-32"/>
       <use x="208.806641" xlink:href="#DejaVuSans-50"/>
       <use x="272.429688" xlink:href="#DejaVuSans-48"/>
       <use x="336.052734" xlink:href="#DejaVuSans-50"/>
       <use x="399.675781" xlink:href="#DejaVuSans-49"/>
      </g>
     </g>
    </g>
    <g id="xtick_13">
     <g id="line2d_13">
      <g>
       <use style="stroke:#000000;stroke-width:0.8;" x="568.903824" xlink:href="#m304b930c14" y="252"/>
      </g>
     </g>
     <g id="text_13">
      <!-- Mar 2021 -->
      <g transform="translate(571.663199 306.495312)rotate(-90)scale(0.1 -0.1)">
       <use xlink:href="#DejaVuSans-77"/>
       <use x="86.279297" xlink:href="#DejaVuSans-97"/>
       <use x="147.558594" xlink:href="#DejaVuSans-114"/>
       <use x="188.671875" xlink:href="#DejaVuSans-32"/>
       <use x="220.458984" xlink:href="#DejaVuSans-50"/>
       <use x="284.082031" xlink:href="#DejaVuSans-48"/>
       <use x="347.705078" xlink:href="#DejaVuSans-50"/>
       <use x="411.328125" xlink:href="#DejaVuSans-49"/>
      </g>
     </g>
    </g>
    <g id="text_14">
     <!-- Start date -->
     <g transform="translate(294.525 319.901562)scale(0.1 -0.1)">
      <defs>
       <path d="M 45.40625 46.390625 
L 45.40625 75.984375 
L 54.390625 75.984375 
L 54.390625 0 
L 45.40625 0 
L 45.40625 8.203125 
Q 42.578125 3.328125 38.25 0.953125 
Q 33.9375 -1.421875 27.875 -1.421875 
Q 17.96875 -1.421875 11.734375 6.484375 
Q 5.515625 14.40625 5.515625 27.296875 
Q 5.515625 40.1875 11.734375 48.09375 
Q 17.96875 56 27.875 56 
Q 33.9375 56 38.25 53.625 
Q 42.578125 51.265625 45.40625 46.390625 
z
M 14.796875 27.296875 
Q 14.796875 17.390625 18.875 11.75 
Q 22.953125 6.109375 30.078125 6.109375 
Q 37.203125 6.109375 41.296875 11.75 
Q 45.40625 17.390625 45.40625 27.296875 
Q 45.40625 37.203125 41.296875 42.84375 
Q 37.203125 48.484375 30.078125 48.484375 
Q 22.953125 48.484375 18.875 42.84375 
Q 14.796875 37.203125 14.796875 27.296875 
z
" id="DejaVuSans-100"/>
      </defs>
      <use xlink:href="#DejaVuSans-83"/>
      <use x="63.476562" xlink:href="#DejaVuSans-116"/>
      <use x="102.685547" xlink:href="#DejaVuSans-97"/>
      <use x="163.964844" xlink:href="#DejaVuSans-114"/>
      <use x="205.078125" xlink:href="#DejaVuSans-116"/>
      <use x="244.287109" xlink:href="#DejaVuSans-32"/>
      <use x="276.074219" xlink:href="#DejaVuSans-100"/>
      <use x="339.550781" xlink:href="#DejaVuSans-97"/>
      <use x="400.830078" xlink:href="#DejaVuSans-116"/>
      <use x="440.039062" xlink:href="#DejaVuSans-101"/>
     </g>
    </g>
   </g>
   <g id="matplotlib.axis_2">
    <g id="ytick_1">
     <g id="line2d_14">
      <defs>
       <path d="M 0 0 
L -3.5 0 
" id="mfb47a35c6e" style="stroke:#000000;stroke-width:0.8;"/>
      </defs>
      <g>
       <use style="stroke:#000000;stroke-width:0.8;" x="40.603125" xlink:href="#mfb47a35c6e" y="240.872727"/>
      </g>
     </g>
     <g id="text_15">
      <!-- 0 -->
      <g transform="translate(27.240625 244.671946)scale(0.1 -0.1)">
       <use xlink:href="#DejaVuSans-48"/>
      </g>
     </g>
    </g>
    <g id="ytick_2">
     <g id="line2d_15">
      <g>
       <use style="stroke:#000000;stroke-width:0.8;" x="40.603125" xlink:href="#mfb47a35c6e" y="188.815311"/>
      </g>
     </g>
     <g id="text_16">
      <!-- 20 -->
      <g transform="translate(20.878125 192.61453)scale(0.1 -0.1)">
       <use xlink:href="#DejaVuSans-50"/>
       <use x="63.623047" xlink:href="#DejaVuSans-48"/>
      </g>
     </g>
    </g>
    <g id="ytick_3">
     <g id="line2d_16">
      <g>
       <use style="stroke:#000000;stroke-width:0.8;" x="40.603125" xlink:href="#mfb47a35c6e" y="136.757895"/>
      </g>
     </g>
     <g id="text_17">
      <!-- 40 -->
      <g transform="translate(20.878125 140.557113)scale(0.1 -0.1)">
       <defs>
        <path d="M 37.796875 64.3125 
L 12.890625 25.390625 
L 37.796875 25.390625 
z
M 35.203125 72.90625 
L 47.609375 72.90625 
L 47.609375 25.390625 
L 58.015625 25.390625 
L 58.015625 17.1875 
L 47.609375 17.1875 
L 47.609375 0 
L 37.796875 0 
L 37.796875 17.1875 
L 4.890625 17.1875 
L 4.890625 26.703125 
z
" id="DejaVuSans-52"/>
       </defs>
       <use xlink:href="#DejaVuSans-52"/>
       <use x="63.623047" xlink:href="#DejaVuSans-48"/>
      </g>
     </g>
    </g>
    <g id="ytick_4">
     <g id="line2d_17">
      <g>
       <use style="stroke:#000000;stroke-width:0.8;" x="40.603125" xlink:href="#mfb47a35c6e" y="84.700478"/>
      </g>
     </g>
     <g id="text_18">
      <!-- 60 -->
      <g transform="translate(20.878125 88.499697)scale(0.1 -0.1)">
       <defs>
        <path d="M 33.015625 40.375 
Q 26.375 40.375 22.484375 35.828125 
Q 18.609375 31.296875 18.609375 23.390625 
Q 18.609375 15.53125 22.484375 10.953125 
Q 26.375 6.390625 33.015625 6.390625 
Q 39.65625 6.390625 43.53125 10.953125 
Q 47.40625 15.53125 47.40625 23.390625 
Q 47.40625 31.296875 43.53125 35.828125 
Q 39.65625 40.375 33.015625 40.375 
z
M 52.59375 71.296875 
L 52.59375 62.3125 
Q 48.875 64.0625 45.09375 64.984375 
Q 41.3125 65.921875 37.59375 65.921875 
Q 27.828125 65.921875 22.671875 59.328125 
Q 17.53125 52.734375 16.796875 39.40625 
Q 19.671875 43.65625 24.015625 45.921875 
Q 28.375 48.1875 33.59375 48.1875 
Q 44.578125 48.1875 50.953125 41.515625 
Q 57.328125 34.859375 57.328125 23.390625 
Q 57.328125 12.15625 50.6875 5.359375 
Q 44.046875 -1.421875 33.015625 -1.421875 
Q 20.359375 -1.421875 13.671875 8.265625 
Q 6.984375 17.96875 6.984375 36.375 
Q 6.984375 53.65625 15.1875 63.9375 
Q 23.390625 74.21875 37.203125 74.21875 
Q 40.921875 74.21875 44.703125 73.484375 
Q 48.484375 72.75 52.59375 71.296875 
z
" id="DejaVuSans-54"/>
       </defs>
       <use xlink:href="#DejaVuSans-54"/>
       <use x="63.623047" xlink:href="#DejaVuSans-48"/>
      </g>
     </g>
    </g>
    <g id="ytick_5">
     <g id="line2d_18">
      <g>
       <use style="stroke:#000000;stroke-width:0.8;" x="40.603125" xlink:href="#mfb47a35c6e" y="32.643062"/>
      </g>
     </g>
     <g id="text_19">
      <!-- 80 -->
      <g transform="translate(20.878125 36.442281)scale(0.1 -0.1)">
       <defs>
        <path d="M 31.78125 34.625 
Q 24.75 34.625 20.71875 30.859375 
Q 16.703125 27.09375 16.703125 20.515625 
Q 16.703125 13.921875 20.71875 10.15625 
Q 24.75 6.390625 31.78125 6.390625 
Q 38.8125 6.390625 42.859375 10.171875 
Q 46.921875 13.96875 46.921875 20.515625 
Q 46.921875 27.09375 42.890625 30.859375 
Q 38.875 34.625 31.78125 34.625 
z
M 21.921875 38.8125 
Q 15.578125 40.375 12.03125 44.71875 
Q 8.5 49.078125 8.5 55.328125 
Q 8.5 64.0625 14.71875 69.140625 
Q 20.953125 74.21875 31.78125 74.21875 
Q 42.671875 74.21875 48.875 69.140625 
Q 55.078125 64.0625 55.078125 55.328125 
Q 55.078125 49.078125 51.53125 44.71875 
Q 48 40.375 41.703125 38.8125 
Q 48.828125 37.15625 52.796875 32.3125 
Q 56.78125 27.484375 56.78125 20.515625 
Q 56.78125 9.90625 50.3125 4.234375 
Q 43.84375 -1.421875 31.78125 -1.421875 
Q 19.734375 -1.421875 13.25 4.234375 
Q 6.78125 9.90625 6.78125 20.515625 
Q 6.78125 27.484375 10.78125 32.3125 
Q 14.796875 37.15625 21.921875 38.8125 
z
M 18.3125 54.390625 
Q 18.3125 48.734375 21.84375 45.5625 
Q 25.390625 42.390625 31.78125 42.390625 
Q 38.140625 42.390625 41.71875 45.5625 
Q 45.3125 48.734375 45.3125 54.390625 
Q 45.3125 60.0625 41.71875 63.234375 
Q 38.140625 66.40625 31.78125 66.40625 
Q 25.390625 66.40625 21.84375 63.234375 
Q 18.3125 60.0625 18.3125 54.390625 
z
" id="DejaVuSans-56"/>
       </defs>
       <use xlink:href="#DejaVuSans-56"/>
       <use x="63.623047" xlink:href="#DejaVuSans-48"/>
      </g>
     </g>
    </g>
    <g id="text_20">
     <!-- Stay (in days) -->
     <g transform="translate(14.798437 164.197656)rotate(-90)scale(0.1 -0.1)">
      <defs>
       <path d="M 31 75.875 
Q 24.46875 64.65625 21.28125 53.65625 
Q 18.109375 42.671875 18.109375 31.390625 
Q 18.109375 20.125 21.3125 9.0625 
Q 24.515625 -2 31 -13.1875 
L 23.1875 -13.1875 
Q 15.875 -1.703125 12.234375 9.375 
Q 8.59375 20.453125 8.59375 31.390625 
Q 8.59375 42.28125 12.203125 53.3125 
Q 15.828125 64.359375 23.1875 75.875 
z
" id="DejaVuSans-40"/>
       <path d="M 9.421875 54.6875 
L 18.40625 54.6875 
L 18.40625 0 
L 9.421875 0 
z
M 9.421875 75.984375 
L 18.40625 75.984375 
L 18.40625 64.59375 
L 9.421875 64.59375 
z
" id="DejaVuSans-105"/>
       <path d="M 44.28125 53.078125 
L 44.28125 44.578125 
Q 40.484375 46.53125 36.375 47.5 
Q 32.28125 48.484375 27.875 48.484375 
Q 21.1875 48.484375 17.84375 46.4375 
Q 14.5 44.390625 14.5 40.28125 
Q 14.5 37.15625 16.890625 35.375 
Q 19.28125 33.59375 26.515625 31.984375 
L 29.59375 31.296875 
Q 39.15625 29.25 43.1875 25.515625 
Q 47.21875 21.78125 47.21875 15.09375 
Q 47.21875 7.46875 41.1875 3.015625 
Q 35.15625 -1.421875 24.609375 -1.421875 
Q 20.21875 -1.421875 15.453125 -0.5625 
Q 10.6875 0.296875 5.421875 2 
L 5.421875 11.28125 
Q 10.40625 8.6875 15.234375 7.390625 
Q 20.0625 6.109375 24.8125 6.109375 
Q 31.15625 6.109375 34.5625 8.28125 
Q 37.984375 10.453125 37.984375 14.40625 
Q 37.984375 18.0625 35.515625 20.015625 
Q 33.0625 21.96875 24.703125 23.78125 
L 21.578125 24.515625 
Q 13.234375 26.265625 9.515625 29.90625 
Q 5.8125 33.546875 5.8125 39.890625 
Q 5.8125 47.609375 11.28125 51.796875 
Q 16.75 56 26.8125 56 
Q 31.78125 56 36.171875 55.265625 
Q 40.578125 54.546875 44.28125 53.078125 
z
" id="DejaVuSans-115"/>
       <path d="M 8.015625 75.875 
L 15.828125 75.875 
Q 23.140625 64.359375 26.78125 53.3125 
Q 30.421875 42.28125 30.421875 31.390625 
Q 30.421875 20.453125 26.78125 9.375 
Q 23.140625 -1.703125 15.828125 -13.1875 
L 8.015625 -13.1875 
Q 14.5 -2 17.703125 9.0625 
Q 20.90625 20.125 20.90625 31.390625 
Q 20.90625 42.671875 17.703125 53.65625 
Q 14.5 64.65625 8.015625 75.875 
z
" id="DejaVuSans-41"/>
      </defs>
      <use xlink:href="#DejaVuSans-83"/>
      <use x="63.476562" xlink:href="#DejaVuSans-116"/>
      <use x="102.685547" xlink:href="#DejaVuSans-97"/>
      <use x="163.964844" xlink:href="#DejaVuSans-121"/>
      <use x="223.144531" xlink:href="#DejaVuSans-32"/>
      <use x="254.931641" xlink:href="#DejaVuSans-40"/>
      <use x="293.945312" xlink:href="#DejaVuSans-105"/>
      <use x="321.728516" xlink:href="#DejaVuSans-110"/>
      <use x="385.107422" xlink:href="#DejaVuSans-32"/>
      <use x="416.894531" xlink:href="#DejaVuSans-100"/>
      <use x="480.371094" xlink:href="#DejaVuSans-97"/>
      <use x="541.650391" xlink:href="#DejaVuSans-121"/>
      <use x="600.830078" xlink:href="#DejaVuSans-115"/>
      <use x="652.929688" xlink:href="#DejaVuSans-41"/>
     </g>
    </g>
   </g>
   <g id="line2d_19">
    <path clip-path="url(#p31fd19bd8e)" d="M 65.966761 233.064115 
L 67.411983 201.829665 
L 71.747647 153.676555 
L 73.192869 238.269856 
L 74.63809 235.666986 
L 76.083311 108.126316 
L 77.528533 188.815311 
L 78.973754 179.271451 
L 80.418976 186.21244 
L 81.864197 173.198086 
L 83.309419 199.226794 
L 84.75464 131.552153 
L 86.199862 189.682935 
L 87.645083 212.241148 
L 89.090304 196.623923 
L 90.535526 199.226794 
L 93.425969 199.226794 
L 94.87119 194.021053 
L 96.316412 230.461244 
L 97.761633 175.800957 
L 100.652076 214.844019 
L 104.98774 233.064115 
L 106.432962 229.59362 
L 107.878183 218.748325 
L 116.549512 154.97799 
L 117.994733 238.269856 
L 119.439955 169.29378 
L 120.885176 235.666986 
L 122.330398 225.255502 
L 123.775619 227.858373 
L 125.220841 214.844019 
L 126.666062 217.44689 
L 128.111284 208.770654 
L 131.001726 227.858373 
L 132.446948 218.748325 
L 135.337391 195.322488 
L 136.782612 238.269856 
L 138.227834 235.666986 
L 141.118277 233.064115 
L 142.563498 115.934928 
L 144.008719 191.418182 
L 145.453941 179.054545 
L 146.899162 188.815311 
L 149.789605 196.623923 
L 151.234827 207.035407 
L 152.680048 235.666986 
L 154.12527 227.858373 
L 155.570491 191.938756 
L 157.015712 208.336842 
L 158.460934 194.021053 
L 159.906155 218.748325 
L 161.351377 230.461244 
L 162.796598 230.461244 
L 164.24182 197.367601 
L 165.687041 191.418182 
L 168.577484 222.652632 
L 170.022705 230.461244 
L 171.467927 225.255502 
L 172.913148 211.373525 
L 174.35837 176.668581 
L 175.803591 208.98756 
L 177.248813 235.666986 
L 178.694034 228.509091 
L 180.139256 228.725997 
L 181.584477 212.241148 
L 183.029698 187.774163 
L 184.47492 209.638278 
L 185.920141 196.623923 
L 187.365363 198.111278 
L 188.810584 209.638278 
L 190.255806 206.601595 
L 191.701027 216.926316 
L 193.146249 203.31702 
L 194.59147 127.647847 
L 196.036691 210.505901 
L 197.481913 199.226794 
L 198.927134 234.36555 
L 200.372356 190.550558 
L 201.817577 215.820096 
L 203.262799 219.073684 
L 204.70802 221.351196 
L 206.153242 211.2 
L 207.598463 222.652632 
L 209.043684 205.733971 
L 210.488906 178.982243 
L 211.934127 214.844019 
L 213.379349 188.815311 
L 214.82457 155.845614 
L 216.269792 215.364593 
L 217.715013 172.22201 
L 219.160235 195.399043 
L 220.605456 145.867943 
L 222.050677 144.938346 
L 223.495899 208.597129 
L 224.94112 200.672834 
L 226.386342 211.084317 
L 227.831563 180.572887 
L 229.276785 218.422967 
L 230.722006 215.422435 
L 232.167228 186.584279 
L 233.612449 199.226794 
L 235.05767 190.767464 
L 236.502892 180.606257 
L 237.948113 216.868474 
L 239.393335 205.994258 
L 240.838556 208.770654 
L 242.283778 192.979904 
L 243.728999 175.222541 
L 245.174221 204.721744 
L 246.619442 194.454864 
L 248.064663 188.815311 
L 249.509885 177.102392 
L 250.955106 217.075051 
L 252.400328 191.418182 
L 253.845549 207.035407 
L 255.290771 226.882297 
L 258.181214 190.235059 
L 259.626435 204.195911 
L 261.071656 196.190112 
L 262.516878 176.777033 
L 263.962099 219.339887 
L 265.407321 211.322488 
L 266.852542 197.333797 
L 268.297764 195.105582 
L 269.742985 207.221326 
L 271.188207 226.556938 
L 272.633428 189.335885 
L 275.523871 223.396309 
L 276.969092 216.027142 
L 278.414314 212.64159 
L 279.859535 205.300159 
L 281.304757 207.779084 
L 282.749978 210.010116 
L 284.1952 220.049761 
L 285.640421 204.95311 
L 287.085642 220.049761 
L 288.530864 176.451675 
L 289.976085 188.381499 
L 291.421307 215.959535 
L 292.866528 201.829665 
L 294.31175 188.815311 
L 295.756971 209.266439 
L 297.202193 187.730781 
L 298.647414 216.703213 
L 300.092635 214.554811 
L 301.537857 210.614354 
L 302.983078 205.733971 
L 304.4283 151.259604 
L 305.873521 209.117703 
L 307.318743 204.721744 
L 308.763964 198.359171 
L 310.209186 227.858373 
L 311.654407 216.290058 
L 313.099628 209.059862 
L 314.54485 204.95311 
L 315.990071 205.408612 
L 317.435293 206.710048 
L 318.880514 220.310048 
L 320.325736 193.695694 
L 321.770957 204.259011 
L 323.216179 222.652632 
L 324.6614 208.8946 
L 326.106622 204.432536 
L 327.551843 203.781818 
L 328.997064 189.466029 
L 330.442286 225.580861 
L 331.887507 182.741946 
L 333.332729 210.505901 
L 334.77795 222.001914 
L 336.223172 191.790021 
L 337.668393 205.300159 
L 339.113615 227.858373 
L 340.558836 200.853589 
L 342.004057 222.001914 
L 343.449279 205.994258 
L 344.8945 226.99075 
L 346.339722 174.239234 
L 347.784943 212.819564 
L 349.230165 190.550558 
L 350.675386 215.277831 
L 352.120608 172.724837 
L 353.565829 200.52823 
L 355.01105 214.844019 
L 356.456272 233.064115 
L 357.901493 182.494053 
L 359.346715 213.424271 
L 360.791936 229.159809 
L 362.237158 217.44689 
L 363.682379 201.829665 
L 365.127601 222.652632 
L 366.572822 208.336842 
L 368.018043 209.638278 
L 369.463265 194.021053 
L 370.908486 207.035407 
L 372.353708 169.033493 
L 373.798929 216.331374 
L 375.244151 226.99075 
L 376.689372 202.480383 
L 378.134594 226.556938 
L 379.579815 226.556938 
L 381.025036 210.639382 
L 382.470258 224.734928 
L 383.915479 211.2 
L 385.360701 225.99918 
L 386.805922 211.86931 
L 388.251144 189.335885 
L 389.696365 200.962041 
L 391.141587 199.226794 
L 392.586808 222.652632 
L 394.032029 189.682935 
L 395.477251 221.351196 
L 396.922472 223.520255 
L 398.367694 211.590431 
L 399.812915 226.296651 
L 401.258137 197.491547 
L 402.703358 208.076555 
L 404.14858 193.153429 
L 405.593801 197.367601 
L 407.039022 217.44689 
L 408.484244 217.880702 
L 409.929465 199.660606 
L 411.374687 217.44689 
L 412.819908 189.249123 
L 414.26513 214.844019 
L 415.710351 226.556938 
L 417.155573 215.711643 
L 418.600794 217.157682 
L 420.046015 202.697289 
L 421.491237 194.599468 
L 422.936458 203.998724 
L 424.38168 198.111278 
L 425.826901 222.652632 
L 427.272123 212.004524 
L 428.717344 210.679426 
L 430.162566 206.601595 
L 431.607787 186.21244 
L 433.053008 208.192238 
L 434.49823 189.104519 
L 435.943451 205.733971 
L 437.388673 189.682935 
L 438.833894 204.432536 
L 440.279116 181.332057 
L 441.724337 215.169378 
L 443.169559 187.947687 
L 444.61478 220.049761 
L 446.060001 212.241148 
L 447.505223 220.570335 
L 448.950444 208.597129 
L 450.395666 213.802871 
L 451.840887 200.52823 
L 453.286109 220.570335 
L 454.73133 183.609569 
L 456.176552 217.44689 
L 457.621773 225.255502 
L 459.066994 220.049761 
L 460.512216 209.059862 
L 461.957437 218.488038 
L 463.402659 171.896651 
L 464.84788 202.870813 
L 466.293102 207.360766 
L 467.738323 221.537116 
L 469.183545 199.226794 
L 470.628766 208.928404 
L 472.073987 228.509091 
L 473.519209 211.590431 
L 474.96443 200.094418 
L 476.409652 203.1311 
L 477.854873 217.44689 
L 479.300095 218.748325 
L 480.745316 232.196491 
L 482.190538 217.013078 
L 483.635759 205.300159 
L 485.08098 218.748325 
L 486.526202 211.807337 
L 487.971423 215.587697 
L 489.416645 223.520255 
L 490.861866 220.421599 
L 492.307088 213.542584 
L 493.752309 229.159809 
L 495.197531 203.564912 
L 496.642752 222.652632 
L 498.087973 217.44689 
L 499.533195 217.967464 
L 500.978416 228.378947 
L 502.423638 223.954067 
L 503.868859 212.241148 
L 505.314081 229.810526 
L 506.759302 227.858373 
L 508.204524 221.351196 
L 509.649745 224.677087 
L 511.094966 222.652632 
L 512.540188 224.387879 
L 513.985409 210.939713 
L 515.430631 229.159809 
L 516.875852 208.336842 
L 518.321074 221.611483 
L 519.766295 224.883664 
L 521.211517 220.049761 
L 522.656738 218.314514 
L 524.101959 225.255502 
L 525.547181 225.255502 
L 526.992402 221.785008 
L 528.437624 215.711643 
L 529.882845 216.796172 
L 531.328067 225.255502 
L 532.773288 224.734928 
L 534.21851 220.049761 
L 535.663731 217.44689 
L 537.108953 207.035407 
L 538.554174 219.182137 
L 539.999395 196.623923 
L 541.444617 218.748325 
L 542.889838 219.182137 
L 544.33506 225.689314 
L 545.780281 220.917384 
L 548.670724 230.461244 
L 550.115946 227.858373 
L 551.561167 235.666986 
L 553.006388 238.269856 
L 554.45161 229.159809 
L 558.787274 229.159809 
L 560.232496 233.064115 
L 560.232496 233.064115 
" style="fill:none;stroke:#1f77b4;stroke-linecap:square;stroke-width:0.8;"/>
   </g>
   <g id="line2d_20">
    <path clip-path="url(#p31fd19bd8e)" d="M 65.966761 225.255502 
L 68.857204 184.911005 
L 70.302426 212.241148 
L 73.192869 233.064115 
L 74.63809 97.714833 
L 76.083311 141.963636 
L 80.418976 217.44689 
L 81.864197 130.68453 
L 83.309419 188.815311 
L 84.75464 175.800957 
L 87.645083 216.145455 
L 91.980747 214.844019 
L 96.316412 74.288995 
L 103.542519 186.21244 
L 104.98774 152.37512 
L 107.878183 173.198086 
L 110.768626 183.609569 
L 115.104291 134.155024 
L 117.994733 197.491547 
L 119.439955 235.666986 
L 122.330398 194.021053 
L 123.775619 201.829665 
L 126.666062 218.748325 
L 129.556505 196.623923 
L 131.001726 136.757895 
L 132.446948 211.373525 
L 133.892169 217.44689 
L 135.337391 179.705263 
L 136.782612 186.21244 
L 138.227834 196.623923 
L 141.118277 222.652632 
L 142.563498 126.346411 
L 144.008719 223.954067 
L 145.453941 207.90303 
L 146.899162 225.255502 
L 148.344384 179.054545 
L 151.234827 199.226794 
L 152.680048 202.697289 
L 154.12527 189.466029 
L 155.570491 212.241148 
L 157.015712 195.7563 
L 161.351377 181.006699 
L 162.796598 190.116746 
L 167.132263 238.269856 
L 171.467927 194.021053 
L 174.35837 222.652632 
L 175.803591 191.418182 
L 177.248813 216.145455 
L 178.694034 238.269856 
L 180.139256 215.494737 
L 183.029698 197.665072 
L 184.47492 217.44689 
L 185.920141 193.153429 
L 187.365363 175.800957 
L 188.810584 209.638278 
L 190.255806 215.885167 
L 191.701027 216.145455 
L 193.146249 207.035407 
L 194.59147 174.499522 
L 196.036691 189.558988 
L 197.481913 209.638278 
L 198.927134 213.542584 
L 200.372356 181.657416 
L 201.817577 204.432536 
L 203.262799 215.885167 
L 204.70802 198.792982 
L 206.153242 204.107177 
L 207.598463 205.950877 
L 209.043684 208.336842 
L 210.488906 192.285805 
L 211.934127 206.514833 
L 213.379349 212.241148 
L 214.82457 214.844019 
L 217.715013 172.61967 
L 219.160235 212.761722 
L 220.605456 213.356664 
L 222.050677 187.947687 
L 223.495899 196.438004 
L 224.94112 203.911962 
L 226.386342 186.584279 
L 227.831563 193.311179 
L 229.276785 197.762679 
L 230.722006 205.473684 
L 232.167228 179.605153 
L 233.612449 192.979904 
L 235.05767 164.738756 
L 236.502892 200.040191 
L 237.948113 199.226794 
L 239.393335 210.072089 
L 240.838556 194.021053 
L 242.283778 139.100478 
L 243.728999 200.962041 
L 245.174221 194.744072 
L 246.619442 196.150674 
L 248.064663 206.034303 
L 250.955106 184.748325 
L 252.400328 157.320574 
L 253.845549 188.164593 
L 255.290771 174.586284 
L 256.735992 213.728503 
L 258.181214 214.844019 
L 259.626435 193.153429 
L 261.071656 192.788114 
L 262.516878 192.719617 
L 263.962099 194.640784 
L 265.407321 200.32274 
L 266.852542 199.226794 
L 269.742985 183.175758 
L 271.188207 184.477193 
L 272.633428 188.105437 
L 274.078649 206.291729 
L 275.523871 198.001914 
L 276.969092 195.7563 
L 278.414314 217.683515 
L 279.859535 185.431579 
L 281.304757 204.432536 
L 282.749978 170.901435 
L 284.1952 206.291729 
L 285.640421 220.049761 
L 287.085642 192.601305 
L 288.530864 184.187985 
L 289.976085 198.99017 
L 291.421307 200.451675 
L 292.866528 206.710048 
L 294.31175 200.311324 
L 295.756971 222.435726 
L 297.202193 194.221273 
L 298.647414 175.800957 
L 300.092635 178.078469 
L 301.537857 201.829665 
L 302.983078 184.725085 
L 304.4283 207.295694 
L 305.873521 219.236364 
L 307.318743 201.569378 
L 308.763964 212.067624 
L 310.209186 186.863158 
L 311.654407 207.613822 
L 313.099628 218.097608 
L 314.54485 204.432536 
L 315.990071 216.36236 
L 317.435293 204.032094 
L 318.880514 217.210265 
L 320.325736 206.384689 
L 321.770957 209.165028 
L 323.216179 192.285805 
L 324.6614 198.51692 
L 326.106622 182.047847 
L 327.551843 186.429346 
L 328.997064 195.647847 
L 330.442286 192.502711 
L 331.887507 190.98437 
L 334.77795 212.241148 
L 336.223172 195.40925 
L 337.668393 212.566507 
L 339.113615 198.753545 
L 340.558836 199.700043 
L 342.004057 212.935247 
L 343.449279 204.143328 
L 344.8945 205.548052 
L 346.339722 188.815311 
L 347.784943 178.031989 
L 349.230165 200.52823 
L 350.675386 200.52823 
L 352.120608 203.911962 
L 353.565829 198.445933 
L 355.01105 203.781818 
L 356.456272 193.074554 
L 357.901493 198.70622 
L 359.346715 209.34907 
L 360.791936 197.807047 
L 362.237158 204.432536 
L 363.682379 203.31702 
L 365.127601 210.505901 
L 366.572822 201.309091 
L 368.018043 199.747368 
L 369.463265 200.311324 
L 370.908486 177.803165 
L 372.353708 208.770654 
L 373.798929 189.682935 
L 375.244151 210.288995 
L 376.689372 171.173631 
L 378.134594 193.760766 
L 379.579815 194.021053 
L 381.025036 190.116746 
L 382.470258 206.384689 
L 383.915479 213.802871 
L 385.360701 166.690909 
L 386.805922 209.638278 
L 388.251144 201.504306 
L 389.696365 220.049761 
L 391.141587 195.062201 
L 392.586808 200.52823 
L 394.032029 210.216693 
L 395.477251 192.864221 
L 396.922472 212.241148 
L 398.367694 183.934928 
L 399.812915 209.464753 
L 401.258137 199.226794 
L 402.703358 208.662201 
L 404.14858 172.908878 
L 405.593801 191.743541 
L 407.039022 206.514833 
L 408.484244 189.744908 
L 409.929465 202.805742 
L 411.374687 194.28134 
L 412.819908 192.45933 
L 414.26513 219.399043 
L 415.710351 190.471683 
L 417.155573 194.599468 
L 418.600794 197.807047 
L 420.046015 204.107177 
L 421.491237 197.925359 
L 422.936458 215.401777 
L 424.38168 190.235059 
L 425.826901 197.274641 
L 427.272123 205.919891 
L 428.717344 204.143328 
L 430.162566 201.540457 
L 431.607787 199.660606 
L 433.053008 205.733971 
L 434.49823 223.173206 
L 435.943451 215.080644 
L 437.388673 171.636364 
L 438.833894 208.857416 
L 440.279116 188.815311 
L 441.724337 203.911962 
L 443.169559 195.062201 
L 444.61478 193.714833 
L 446.060001 185.778628 
L 447.505223 202.230107 
L 448.950444 204.269856 
L 450.395666 195.136569 
L 451.840887 209.927485 
L 453.286109 195.177884 
L 454.73133 218.097608 
L 456.176552 212.64159 
L 457.621773 192.979904 
L 459.066994 181.266986 
L 460.512216 183.008907 
L 461.957437 189.215753 
L 463.402659 191.418182 
L 464.84788 186.733014 
L 466.293102 191.851994 
L 467.738323 188.489952 
L 469.183545 202.302914 
L 470.628766 197.024365 
L 472.073987 211.531274 
L 473.519209 205.852284 
L 474.96443 203.564912 
L 476.409652 197.73944 
L 477.854873 207.235628 
L 479.300095 182.122215 
L 480.745316 200.311324 
L 482.190538 188.815311 
L 483.635759 197.404785 
L 485.08098 193.207656 
L 486.526202 198.826353 
L 487.971423 219.529187 
L 489.416645 192.601305 
L 492.307088 202.317703 
L 493.752309 212.241148 
L 495.197531 209.638278 
L 496.642752 192.905537 
L 498.087973 212.891866 
L 499.533195 197.807047 
L 500.978416 212.935247 
L 502.423638 220.049761 
L 503.868859 204.905785 
L 505.314081 218.748325 
L 506.759302 206.514833 
L 508.204524 207.407245 
L 509.649745 212.761722 
L 511.094966 198.937586 
L 512.540188 218.025306 
L 513.985409 220.917384 
L 515.430631 204.95311 
L 516.875852 212.241148 
L 518.321074 202.573342 
L 519.766295 191.418182 
L 521.211517 210.614354 
L 522.656738 216.579266 
L 524.101959 203.275704 
L 525.547181 203.1311 
L 526.992402 209.638278 
L 528.437624 207.816268 
L 529.882845 200.962041 
L 531.328067 209.638278 
L 532.773288 210.753794 
L 534.21851 199.226794 
L 535.663731 207.360766 
L 537.108953 209.638278 
L 538.554174 226.817225 
L 539.999395 221.090909 
L 541.444617 207.035407 
L 542.889838 210.381955 
L 544.33506 206.514833 
L 545.780281 216.868474 
L 547.225503 215.587697 
L 548.670724 216.145455 
L 550.115946 218.314514 
L 553.006388 224.883664 
L 554.45161 230.089405 
L 555.896831 222.97799 
L 557.342053 222.001914 
L 558.787274 226.99075 
L 560.232496 224.930144 
L 561.677717 227.279957 
L 563.122939 232.413397 
L 564.56816 229.75137 
L 566.013381 235.233174 
L 567.458603 234.625837 
L 568.903824 238.269856 
L 570.349046 234.36555 
L 573.239489 239.571292 
L 573.239489 239.571292 
" style="fill:none;stroke:#ff7f0e;stroke-linecap:square;stroke-width:0.8;"/>
   </g>
   <g id="line2d_21"/>
   <g id="line2d_22"/>
   <g id="line2d_23">
    <path clip-path="url(#p31fd19bd8e)" d="M 40.603125 202.43706 
L 598.603125 202.43706 
" style="fill:none;stroke:#000000;stroke-dasharray:2.96,1.28;stroke-dashoffset:0;stroke-width:0.8;"/>
   </g>
   <g id="patch_3">
    <path d="M 40.603125 252 
L 40.603125 7.2 
" style="fill:none;stroke:#000000;stroke-linecap:square;stroke-linejoin:miter;stroke-width:0.8;"/>
   </g>
   <g id="patch_4">
    <path d="M 40.603125 252 
L 598.603125 252 
" style="fill:none;stroke:#000000;stroke-linecap:square;stroke-linejoin:miter;stroke-width:0.8;"/>
   </g>
   <g id="legend_1">
    <g id="patch_5">
     <path d="M 506.078125 59.234375 
L 591.603125 59.234375 
Q 593.603125 59.234375 593.603125 57.234375 
L 593.603125 14.2 
Q 593.603125 12.2 591.603125 12.2 
L 506.078125 12.2 
Q 504.078125 12.2 504.078125 14.2 
L 504.078125 57.234375 
Q 504.078125 59.234375 506.078125 59.234375 
z
" style="fill:#ffffff;opacity:0.8;stroke:#cccccc;stroke-linejoin:miter;"/>
    </g>
    <g id="line2d_24">
     <path d="M 508.078125 20.298437 
L 528.078125 20.298437 
" style="fill:none;stroke:#1f77b4;stroke-linecap:square;stroke-width:1.5;"/>
    </g>
    <g id="line2d_25"/>
    <g id="text_21">
     <!-- RECOVERY -->
     <g transform="translate(536.078125 23.798437)scale(0.1 -0.1)">
      <defs>
       <path d="M 44.390625 34.1875 
Q 47.5625 33.109375 50.5625 29.59375 
Q 53.5625 26.078125 56.59375 19.921875 
L 66.609375 0 
L 56 0 
L 46.6875 18.703125 
Q 43.0625 26.03125 39.671875 28.421875 
Q 36.28125 30.8125 30.421875 30.8125 
L 19.671875 30.8125 
L 19.671875 0 
L 9.8125 0 
L 9.8125 72.90625 
L 32.078125 72.90625 
Q 44.578125 72.90625 50.734375 67.671875 
Q 56.890625 62.453125 56.890625 51.90625 
Q 56.890625 45.015625 53.6875 40.46875 
Q 50.484375 35.9375 44.390625 34.1875 
z
M 19.671875 64.796875 
L 19.671875 38.921875 
L 32.078125 38.921875 
Q 39.203125 38.921875 42.84375 42.21875 
Q 46.484375 45.515625 46.484375 51.90625 
Q 46.484375 58.296875 42.84375 61.546875 
Q 39.203125 64.796875 32.078125 64.796875 
z
" id="DejaVuSans-82"/>
       <path d="M 9.8125 72.90625 
L 55.90625 72.90625 
L 55.90625 64.59375 
L 19.671875 64.59375 
L 19.671875 43.015625 
L 54.390625 43.015625 
L 54.390625 34.71875 
L 19.671875 34.71875 
L 19.671875 8.296875 
L 56.78125 8.296875 
L 56.78125 0 
L 9.8125 0 
z
" id="DejaVuSans-69"/>
       <path d="M 64.40625 67.28125 
L 64.40625 56.890625 
Q 59.421875 61.53125 53.78125 63.8125 
Q 48.140625 66.109375 41.796875 66.109375 
Q 29.296875 66.109375 22.65625 58.46875 
Q 16.015625 50.828125 16.015625 36.375 
Q 16.015625 21.96875 22.65625 14.328125 
Q 29.296875 6.6875 41.796875 6.6875 
Q 48.140625 6.6875 53.78125 8.984375 
Q 59.421875 11.28125 64.40625 15.921875 
L 64.40625 5.609375 
Q 59.234375 2.09375 53.4375 0.328125 
Q 47.65625 -1.421875 41.21875 -1.421875 
Q 24.65625 -1.421875 15.125 8.703125 
Q 5.609375 18.84375 5.609375 36.375 
Q 5.609375 53.953125 15.125 64.078125 
Q 24.65625 74.21875 41.21875 74.21875 
Q 47.75 74.21875 53.53125 72.484375 
Q 59.328125 70.75 64.40625 67.28125 
z
" id="DejaVuSans-67"/>
       <path d="M 28.609375 0 
L 0.78125 72.90625 
L 11.078125 72.90625 
L 34.1875 11.53125 
L 57.328125 72.90625 
L 67.578125 72.90625 
L 39.796875 0 
z
" id="DejaVuSans-86"/>
       <path d="M -0.203125 72.90625 
L 10.40625 72.90625 
L 30.609375 42.921875 
L 50.6875 72.90625 
L 61.28125 72.90625 
L 35.5 34.71875 
L 35.5 0 
L 25.59375 0 
L 25.59375 34.71875 
z
" id="DejaVuSans-89"/>
      </defs>
      <use xlink:href="#DejaVuSans-82"/>
      <use x="69.482422" xlink:href="#DejaVuSans-69"/>
      <use x="132.666016" xlink:href="#DejaVuSans-67"/>
      <use x="202.490234" xlink:href="#DejaVuSans-79"/>
      <use x="279.451172" xlink:href="#DejaVuSans-86"/>
      <use x="347.859375" xlink:href="#DejaVuSans-69"/>
      <use x="411.042969" xlink:href="#DejaVuSans-82"/>
      <use x="474.150391" xlink:href="#DejaVuSans-89"/>
     </g>
    </g>
    <g id="line2d_26">
     <path d="M 508.078125 34.976562 
L 528.078125 34.976562 
" style="fill:none;stroke:#ff7f0e;stroke-linecap:square;stroke-width:1.5;"/>
    </g>
    <g id="line2d_27"/>
    <g id="text_22">
     <!-- DEATH -->
     <g transform="translate(536.078125 38.476562)scale(0.1 -0.1)">
      <defs>
       <path d="M -0.296875 72.90625 
L 61.375 72.90625 
L 61.375 64.59375 
L 35.5 64.59375 
L 35.5 0 
L 25.59375 0 
L 25.59375 64.59375 
L -0.296875 64.59375 
z
" id="DejaVuSans-84"/>
       <path d="M 9.8125 72.90625 
L 19.671875 72.90625 
L 19.671875 43.015625 
L 55.515625 43.015625 
L 55.515625 72.90625 
L 65.375 72.90625 
L 65.375 0 
L 55.515625 0 
L 55.515625 34.71875 
L 19.671875 34.71875 
L 19.671875 0 
L 9.8125 0 
z
" id="DejaVuSans-72"/>
      </defs>
      <use xlink:href="#DejaVuSans-68"/>
      <use x="77.001953" xlink:href="#DejaVuSans-69"/>
      <use x="140.185547" xlink:href="#DejaVuSans-65"/>
      <use x="200.84375" xlink:href="#DejaVuSans-84"/>
      <use x="261.927734" xlink:href="#DejaVuSans-72"/>
     </g>
    </g>
    <g id="line2d_28">
     <path d="M 508.078125 49.654687 
L 528.078125 49.654687 
" style="fill:none;stroke:#000000;stroke-dasharray:2.96,1.28;stroke-dashoffset:0;stroke-width:0.8;"/>
    </g>
    <g id="line2d_29"/>
    <g id="text_23">
     <!-- Mean -->
     <g transform="translate(536.078125 53.154687)scale(0.1 -0.1)">
      <use xlink:href="#DejaVuSans-77"/>
      <use x="86.279297" xlink:href="#DejaVuSans-101"/>
      <use x="147.802734" xlink:href="#DejaVuSans-97"/>
      <use x="209.082031" xlink:href="#DejaVuSans-110"/>
     </g>
    </g>
   </g>
  </g>
 </g>
 <defs>
  <clipPath id="p31fd19bd8e">
   <rect height="244.8" width="558" x="40.603125" y="7.2"/>
  </clipPath>
 </defs>
</svg>
