<?xml version="1.0" encoding="utf-8" standalone="no"?>
<!DOCTYPE svg PUBLIC "-//W3C//DTD SVG 1.1//EN"
  "http://www.w3.org/Graphics/SVG/1.1/DTD/svg11.dtd">
<!-- Created with matplotlib (https://matplotlib.org/) -->
<svg height="262.19625pt" version="1.1" viewBox="0 0 451.128125 262.19625" width="451.128125pt" xmlns="http://www.w3.org/2000/svg" xmlns:xlink="http://www.w3.org/1999/xlink">
 <metadata>
  <rdf:RDF xmlns:cc="http://creativecommons.org/ns#" xmlns:dc="http://purl.org/dc/elements/1.1/" xmlns:rdf="http://www.w3.org/1999/02/22-rdf-syntax-ns#">
   <cc:Work>
    <dc:type rdf:resource="http://purl.org/dc/dcmitype/StillImage"/>
    <dc:date>2021-03-21T00:37:52.281530</dc:date>
    <dc:format>image/svg+xml</dc:format>
    <dc:creator>
     <cc:Agent>
      <dc:title>Matplotlib v3.3.4, https://matplotlib.org/</dc:title>
     </cc:Agent>
    </dc:creator>
   </cc:Work>
  </rdf:RDF>
 </metadata>
 <defs>
  <style type="text/css">*{stroke-linecap:butt;stroke-linejoin:round;}</style>
 </defs>
 <g id="figure_1">
  <g id="patch_1">
   <path d="M 0 262.19625 
L 451.128125 262.19625 
L 451.128125 0 
L 0 0 
z
" style="fill:none;"/>
  </g>
  <g id="axes_1">
   <g id="patch_2">
    <path d="M 46.965625 224.64 
L 437.565625 224.64 
L 437.565625 7.2 
L 46.965625 7.2 
z
" style="fill:#ffffff;"/>
   </g>
   <g id="patch_3">
    <path clip-path="url(#p1601244347)" d="M 46.965625 224.64 
L 55.838125 224.64 
L 55.838125 74.470021 
L 46.965625 74.470021 
z
" style="fill:#1f77b4;fill-opacity:0.75;stroke:#4c4c4c;stroke-linejoin:miter;stroke-width:0.5;"/>
   </g>
   <g id="patch_4">
    <path clip-path="url(#p1601244347)" d="M 55.838125 224.64 
L 64.710625 224.64 
L 64.710625 17.554286 
L 55.838125 17.554286 
z
" style="fill:#1f77b4;fill-opacity:0.75;stroke:#4c4c4c;stroke-linejoin:miter;stroke-width:0.5;"/>
   </g>
   <g id="patch_5">
    <path clip-path="url(#p1601244347)" d="M 64.710625 224.64 
L 73.583125 224.64 
L 73.583125 33.75338 
L 64.710625 33.75338 
z
" style="fill:#1f77b4;fill-opacity:0.75;stroke:#4c4c4c;stroke-linejoin:miter;stroke-width:0.5;"/>
   </g>
   <g id="patch_6">
    <path clip-path="url(#p1601244347)" d="M 73.583125 224.64 
L 82.455625 224.64 
L 82.455625 26.310553 
L 73.583125 26.310553 
z
" style="fill:#1f77b4;fill-opacity:0.75;stroke:#4c4c4c;stroke-linejoin:miter;stroke-width:0.5;"/>
   </g>
   <g id="patch_7">
    <path clip-path="url(#p1601244347)" d="M 82.455625 224.64 
L 91.328125 224.64 
L 91.328125 64.400314 
L 82.455625 64.400314 
z
" style="fill:#1f77b4;fill-opacity:0.75;stroke:#4c4c4c;stroke-linejoin:miter;stroke-width:0.5;"/>
   </g>
   <g id="patch_8">
    <path clip-path="url(#p1601244347)" d="M 91.328125 224.64 
L 100.200625 224.64 
L 100.200625 158.530184 
L 91.328125 158.530184 
z
" style="fill:#1f77b4;fill-opacity:0.75;stroke:#4c4c4c;stroke-linejoin:miter;stroke-width:0.5;"/>
   </g>
   <g id="patch_9">
    <path clip-path="url(#p1601244347)" d="M 100.200625 224.64 
L 109.073125 224.64 
L 109.073125 95.485062 
L 100.200625 95.485062 
z
" style="fill:#1f77b4;fill-opacity:0.75;stroke:#4c4c4c;stroke-linejoin:miter;stroke-width:0.5;"/>
   </g>
   <g id="patch_10">
    <path clip-path="url(#p1601244347)" d="M 109.073125 224.64 
L 117.945625 224.64 
L 117.945625 109.057276 
L 109.073125 109.057276 
z
" style="fill:#1f77b4;fill-opacity:0.75;stroke:#4c4c4c;stroke-linejoin:miter;stroke-width:0.5;"/>
   </g>
   <g id="patch_11">
    <path clip-path="url(#p1601244347)" d="M 117.945625 224.64 
L 126.818125 224.64 
L 126.818125 129.634503 
L 117.945625 129.634503 
z
" style="fill:#1f77b4;fill-opacity:0.75;stroke:#4c4c4c;stroke-linejoin:miter;stroke-width:0.5;"/>
   </g>
   <g id="patch_12">
    <path clip-path="url(#p1601244347)" d="M 126.818125 224.64 
L 135.690625 224.64 
L 135.690625 129.19669 
L 126.818125 129.19669 
z
" style="fill:#1f77b4;fill-opacity:0.75;stroke:#4c4c4c;stroke-linejoin:miter;stroke-width:0.5;"/>
   </g>
   <g id="patch_13">
    <path clip-path="url(#p1601244347)" d="M 135.690625 224.64 
L 144.563125 224.64 
L 144.563125 188.301492 
L 135.690625 188.301492 
z
" style="fill:#1f77b4;fill-opacity:0.75;stroke:#4c4c4c;stroke-linejoin:miter;stroke-width:0.5;"/>
   </g>
   <g id="patch_14">
    <path clip-path="url(#p1601244347)" d="M 144.563125 224.64 
L 153.435625 224.64 
L 153.435625 151.525171 
L 144.563125 151.525171 
z
" style="fill:#1f77b4;fill-opacity:0.75;stroke:#4c4c4c;stroke-linejoin:miter;stroke-width:0.5;"/>
   </g>
   <g id="patch_15">
    <path clip-path="url(#p1601244347)" d="M 153.435625 224.64 
L 162.308125 224.64 
L 162.308125 174.729278 
L 153.435625 174.729278 
z
" style="fill:#1f77b4;fill-opacity:0.75;stroke:#4c4c4c;stroke-linejoin:miter;stroke-width:0.5;"/>
   </g>
   <g id="patch_16">
    <path clip-path="url(#p1601244347)" d="M 162.308125 224.64 
L 171.180625 224.64 
L 171.180625 173.853651 
L 162.308125 173.853651 
z
" style="fill:#1f77b4;fill-opacity:0.75;stroke:#4c4c4c;stroke-linejoin:miter;stroke-width:0.5;"/>
   </g>
   <g id="patch_17">
    <path clip-path="url(#p1601244347)" d="M 171.180625 224.64 
L 180.053125 224.64 
L 180.053125 184.361172 
L 171.180625 184.361172 
z
" style="fill:#1f77b4;fill-opacity:0.75;stroke:#4c4c4c;stroke-linejoin:miter;stroke-width:0.5;"/>
   </g>
   <g id="patch_18">
    <path clip-path="url(#p1601244347)" d="M 180.053125 224.64 
L 188.925625 224.64 
L 188.925625 186.112425 
L 180.053125 186.112425 
z
" style="fill:#1f77b4;fill-opacity:0.75;stroke:#4c4c4c;stroke-linejoin:miter;stroke-width:0.5;"/>
   </g>
   <g id="patch_19">
    <path clip-path="url(#p1601244347)" d="M 188.925625 224.64 
L 197.798125 224.64 
L 197.798125 209.754346 
L 188.925625 209.754346 
z
" style="fill:#1f77b4;fill-opacity:0.75;stroke:#4c4c4c;stroke-linejoin:miter;stroke-width:0.5;"/>
   </g>
   <g id="patch_20">
    <path clip-path="url(#p1601244347)" d="M 197.798125 224.64 
L 206.670625 224.64 
L 206.670625 193.993066 
L 197.798125 193.993066 
z
" style="fill:#1f77b4;fill-opacity:0.75;stroke:#4c4c4c;stroke-linejoin:miter;stroke-width:0.5;"/>
   </g>
   <g id="patch_21">
    <path clip-path="url(#p1601244347)" d="M 206.670625 224.64 
L 215.543125 224.64 
L 215.543125 199.246826 
L 206.670625 199.246826 
z
" style="fill:#1f77b4;fill-opacity:0.75;stroke:#4c4c4c;stroke-linejoin:miter;stroke-width:0.5;"/>
   </g>
   <g id="patch_22">
    <path clip-path="url(#p1601244347)" d="M 215.543125 224.64 
L 224.415625 224.64 
L 224.415625 203.624959 
L 215.543125 203.624959 
z
" style="fill:#1f77b4;fill-opacity:0.75;stroke:#4c4c4c;stroke-linejoin:miter;stroke-width:0.5;"/>
   </g>
   <g id="patch_23">
    <path clip-path="url(#p1601244347)" d="M 224.415625 224.64 
L 233.288125 224.64 
L 233.288125 208.878719 
L 224.415625 208.878719 
z
" style="fill:#1f77b4;fill-opacity:0.75;stroke:#4c4c4c;stroke-linejoin:miter;stroke-width:0.5;"/>
   </g>
   <g id="patch_24">
    <path clip-path="url(#p1601244347)" d="M 233.288125 224.64 
L 242.160625 224.64 
L 242.160625 218.510613 
L 233.288125 218.510613 
z
" style="fill:#1f77b4;fill-opacity:0.75;stroke:#4c4c4c;stroke-linejoin:miter;stroke-width:0.5;"/>
   </g>
   <g id="patch_25">
    <path clip-path="url(#p1601244347)" d="M 242.160625 224.64 
L 251.033125 224.64 
L 251.033125 211.5056 
L 242.160625 211.5056 
z
" style="fill:#1f77b4;fill-opacity:0.75;stroke:#4c4c4c;stroke-linejoin:miter;stroke-width:0.5;"/>
   </g>
   <g id="patch_26">
    <path clip-path="url(#p1601244347)" d="M 251.033125 224.64 
L 259.905625 224.64 
L 259.905625 209.316533 
L 251.033125 209.316533 
z
" style="fill:#1f77b4;fill-opacity:0.75;stroke:#4c4c4c;stroke-linejoin:miter;stroke-width:0.5;"/>
   </g>
   <g id="patch_27">
    <path clip-path="url(#p1601244347)" d="M 259.905625 224.64 
L 268.778125 224.64 
L 268.778125 213.694666 
L 259.905625 213.694666 
z
" style="fill:#1f77b4;fill-opacity:0.75;stroke:#4c4c4c;stroke-linejoin:miter;stroke-width:0.5;"/>
   </g>
   <g id="patch_28">
    <path clip-path="url(#p1601244347)" d="M 268.778125 224.64 
L 277.650625 224.64 
L 277.650625 210.629973 
L 268.778125 210.629973 
z
" style="fill:#1f77b4;fill-opacity:0.75;stroke:#4c4c4c;stroke-linejoin:miter;stroke-width:0.5;"/>
   </g>
   <g id="patch_29">
    <path clip-path="url(#p1601244347)" d="M 277.650625 224.64 
L 286.523125 224.64 
L 286.523125 214.13248 
L 277.650625 214.13248 
z
" style="fill:#1f77b4;fill-opacity:0.75;stroke:#4c4c4c;stroke-linejoin:miter;stroke-width:0.5;"/>
   </g>
   <g id="patch_30">
    <path clip-path="url(#p1601244347)" d="M 286.523125 224.64 
L 295.395625 224.64 
L 295.395625 219.38624 
L 286.523125 219.38624 
z
" style="fill:#1f77b4;fill-opacity:0.75;stroke:#4c4c4c;stroke-linejoin:miter;stroke-width:0.5;"/>
   </g>
   <g id="patch_31">
    <path clip-path="url(#p1601244347)" d="M 295.395625 224.64 
L 304.268125 224.64 
L 304.268125 218.0728 
L 295.395625 218.0728 
z
" style="fill:#1f77b4;fill-opacity:0.75;stroke:#4c4c4c;stroke-linejoin:miter;stroke-width:0.5;"/>
   </g>
   <g id="patch_32">
    <path clip-path="url(#p1601244347)" d="M 304.268125 224.64 
L 313.140625 224.64 
L 313.140625 217.634986 
L 304.268125 217.634986 
z
" style="fill:#1f77b4;fill-opacity:0.75;stroke:#4c4c4c;stroke-linejoin:miter;stroke-width:0.5;"/>
   </g>
   <g id="patch_33">
    <path clip-path="url(#p1601244347)" d="M 313.140625 224.64 
L 322.013125 224.64 
L 322.013125 218.510613 
L 313.140625 218.510613 
z
" style="fill:#1f77b4;fill-opacity:0.75;stroke:#4c4c4c;stroke-linejoin:miter;stroke-width:0.5;"/>
   </g>
   <g id="patch_34">
    <path clip-path="url(#p1601244347)" d="M 322.013125 224.64 
L 330.885625 224.64 
L 330.885625 221.575307 
L 322.013125 221.575307 
z
" style="fill:#1f77b4;fill-opacity:0.75;stroke:#4c4c4c;stroke-linejoin:miter;stroke-width:0.5;"/>
   </g>
   <g id="patch_35">
    <path clip-path="url(#p1601244347)" d="M 330.885625 224.64 
L 339.758125 224.64 
L 339.758125 221.137493 
L 330.885625 221.137493 
z
" style="fill:#1f77b4;fill-opacity:0.75;stroke:#4c4c4c;stroke-linejoin:miter;stroke-width:0.5;"/>
   </g>
   <g id="patch_36">
    <path clip-path="url(#p1601244347)" d="M 339.758125 224.64 
L 348.630625 224.64 
L 348.630625 221.575307 
L 339.758125 221.575307 
z
" style="fill:#1f77b4;fill-opacity:0.75;stroke:#4c4c4c;stroke-linejoin:miter;stroke-width:0.5;"/>
   </g>
   <g id="patch_37">
    <path clip-path="url(#p1601244347)" d="M 348.630625 224.64 
L 357.503125 224.64 
L 357.503125 218.948426 
L 348.630625 218.948426 
z
" style="fill:#1f77b4;fill-opacity:0.75;stroke:#4c4c4c;stroke-linejoin:miter;stroke-width:0.5;"/>
   </g>
   <g id="patch_38">
    <path clip-path="url(#p1601244347)" d="M 357.503125 224.64 
L 366.375625 224.64 
L 366.375625 222.888747 
L 357.503125 222.888747 
z
" style="fill:#1f77b4;fill-opacity:0.75;stroke:#4c4c4c;stroke-linejoin:miter;stroke-width:0.5;"/>
   </g>
   <g id="patch_39">
    <path clip-path="url(#p1601244347)" d="M 366.375625 224.64 
L 375.248125 224.64 
L 375.248125 221.575307 
L 366.375625 221.575307 
z
" style="fill:#1f77b4;fill-opacity:0.75;stroke:#4c4c4c;stroke-linejoin:miter;stroke-width:0.5;"/>
   </g>
   <g id="patch_40">
    <path clip-path="url(#p1601244347)" d="M 375.248125 224.64 
L 384.120625 224.64 
L 384.120625 222.888747 
L 375.248125 222.888747 
z
" style="fill:#1f77b4;fill-opacity:0.75;stroke:#4c4c4c;stroke-linejoin:miter;stroke-width:0.5;"/>
   </g>
   <g id="patch_41">
    <path clip-path="url(#p1601244347)" d="M 384.120625 224.64 
L 392.993125 224.64 
L 392.993125 222.888747 
L 384.120625 222.888747 
z
" style="fill:#1f77b4;fill-opacity:0.75;stroke:#4c4c4c;stroke-linejoin:miter;stroke-width:0.5;"/>
   </g>
   <g id="patch_42">
    <path clip-path="url(#p1601244347)" d="M 392.993125 224.64 
L 401.865625 224.64 
L 401.865625 223.32656 
L 392.993125 223.32656 
z
" style="fill:#1f77b4;fill-opacity:0.75;stroke:#4c4c4c;stroke-linejoin:miter;stroke-width:0.5;"/>
   </g>
   <g id="patch_43">
    <path clip-path="url(#p1601244347)" d="M 401.865625 224.64 
L 410.738125 224.64 
L 410.738125 222.888747 
L 401.865625 222.888747 
z
" style="fill:#1f77b4;fill-opacity:0.75;stroke:#4c4c4c;stroke-linejoin:miter;stroke-width:0.5;"/>
   </g>
   <g id="patch_44">
    <path clip-path="url(#p1601244347)" d="M 410.738125 224.64 
L 419.610625 224.64 
L 419.610625 222.888747 
L 410.738125 222.888747 
z
" style="fill:#1f77b4;fill-opacity:0.75;stroke:#4c4c4c;stroke-linejoin:miter;stroke-width:0.5;"/>
   </g>
   <g id="patch_45">
    <path clip-path="url(#p1601244347)" d="M 419.610625 224.64 
L 428.483125 224.64 
L 428.483125 223.764373 
L 419.610625 223.764373 
z
" style="fill:#1f77b4;fill-opacity:0.75;stroke:#4c4c4c;stroke-linejoin:miter;stroke-width:0.5;"/>
   </g>
   <g id="patch_46">
    <path clip-path="url(#p1601244347)" d="M 428.483125 224.64 
L 437.355625 224.64 
L 437.355625 224.202187 
L 428.483125 224.202187 
z
" style="fill:#1f77b4;fill-opacity:0.75;stroke:#4c4c4c;stroke-linejoin:miter;stroke-width:0.5;"/>
   </g>
   <g id="patch_47">
    <path clip-path="url(#p1601244347)" d="M 437.355625 224.64 
L 446.228125 224.64 
L 446.228125 223.764373 
L 437.355625 223.764373 
z
" style="fill:#1f77b4;fill-opacity:0.75;stroke:#4c4c4c;stroke-linejoin:miter;stroke-width:0.5;"/>
   </g>
   <g id="patch_48">
    <path clip-path="url(#p1601244347)" d="M 446.228125 224.64 
L 455.100625 224.64 
L 455.100625 222.888747 
L 446.228125 222.888747 
z
" style="fill:#1f77b4;fill-opacity:0.75;stroke:#4c4c4c;stroke-linejoin:miter;stroke-width:0.5;"/>
   </g>
   <g id="patch_49">
    <path clip-path="url(#p1601244347)" d="M 455.100625 224.64 
L 463.973125 224.64 
L 463.973125 224.202187 
L 455.100625 224.202187 
z
" style="fill:#1f77b4;fill-opacity:0.75;stroke:#4c4c4c;stroke-linejoin:miter;stroke-width:0.5;"/>
   </g>
   <g id="patch_50">
    <path clip-path="url(#p1601244347)" d="M 463.973125 224.64 
L 472.845625 224.64 
L 472.845625 222.888747 
L 463.973125 222.888747 
z
" style="fill:#1f77b4;fill-opacity:0.75;stroke:#4c4c4c;stroke-linejoin:miter;stroke-width:0.5;"/>
   </g>
   <g id="patch_51">
    <path clip-path="url(#p1601244347)" d="M 472.845625 224.64 
L 481.718125 224.64 
L 481.718125 223.764373 
L 472.845625 223.764373 
z
" style="fill:#1f77b4;fill-opacity:0.75;stroke:#4c4c4c;stroke-linejoin:miter;stroke-width:0.5;"/>
   </g>
   <g id="patch_52">
    <path clip-path="url(#p1601244347)" d="M 481.718125 224.64 
L 490.590625 224.64 
L 490.590625 224.64 
L 481.718125 224.64 
z
" style="fill:#1f77b4;fill-opacity:0.75;stroke:#4c4c4c;stroke-linejoin:miter;stroke-width:0.5;"/>
   </g>
   <g id="patch_53">
    <path clip-path="url(#p1601244347)" d="M 490.590625 224.64 
L 499.463125 224.64 
L 499.463125 224.202187 
L 490.590625 224.202187 
z
" style="fill:#1f77b4;fill-opacity:0.75;stroke:#4c4c4c;stroke-linejoin:miter;stroke-width:0.5;"/>
   </g>
   <g id="patch_54">
    <path clip-path="url(#p1601244347)" d="M 499.463125 224.64 
L 508.335625 224.64 
L 508.335625 224.202187 
L 499.463125 224.202187 
z
" style="fill:#1f77b4;fill-opacity:0.75;stroke:#4c4c4c;stroke-linejoin:miter;stroke-width:0.5;"/>
   </g>
   <g id="patch_55">
    <path clip-path="url(#p1601244347)" d="M 508.335625 224.64 
L 517.208125 224.64 
L 517.208125 224.64 
L 508.335625 224.64 
z
" style="fill:#1f77b4;fill-opacity:0.75;stroke:#4c4c4c;stroke-linejoin:miter;stroke-width:0.5;"/>
   </g>
   <g id="patch_56">
    <path clip-path="url(#p1601244347)" d="M 517.208125 224.64 
L 526.080625 224.64 
L 526.080625 224.64 
L 517.208125 224.64 
z
" style="fill:#1f77b4;fill-opacity:0.75;stroke:#4c4c4c;stroke-linejoin:miter;stroke-width:0.5;"/>
   </g>
   <g id="patch_57">
    <path clip-path="url(#p1601244347)" d="M 526.080625 224.64 
L 534.953125 224.64 
L 534.953125 224.64 
L 526.080625 224.64 
z
" style="fill:#1f77b4;fill-opacity:0.75;stroke:#4c4c4c;stroke-linejoin:miter;stroke-width:0.5;"/>
   </g>
   <g id="patch_58">
    <path clip-path="url(#p1601244347)" d="M 534.953125 224.64 
L 543.825625 224.64 
L 543.825625 223.764373 
L 534.953125 223.764373 
z
" style="fill:#1f77b4;fill-opacity:0.75;stroke:#4c4c4c;stroke-linejoin:miter;stroke-width:0.5;"/>
   </g>
   <g id="patch_59">
    <path clip-path="url(#p1601244347)" d="M 543.825625 224.64 
L 552.698125 224.64 
L 552.698125 224.64 
L 543.825625 224.64 
z
" style="fill:#1f77b4;fill-opacity:0.75;stroke:#4c4c4c;stroke-linejoin:miter;stroke-width:0.5;"/>
   </g>
   <g id="patch_60">
    <path clip-path="url(#p1601244347)" d="M 552.698125 224.64 
L 561.570625 224.64 
L 561.570625 224.64 
L 552.698125 224.64 
z
" style="fill:#1f77b4;fill-opacity:0.75;stroke:#4c4c4c;stroke-linejoin:miter;stroke-width:0.5;"/>
   </g>
   <g id="patch_61">
    <path clip-path="url(#p1601244347)" d="M 561.570625 224.64 
L 570.443125 224.64 
L 570.443125 224.64 
L 561.570625 224.64 
z
" style="fill:#1f77b4;fill-opacity:0.75;stroke:#4c4c4c;stroke-linejoin:miter;stroke-width:0.5;"/>
   </g>
   <g id="patch_62">
    <path clip-path="url(#p1601244347)" d="M 570.443125 224.64 
L 579.315625 224.64 
L 579.315625 223.764373 
L 570.443125 223.764373 
z
" style="fill:#1f77b4;fill-opacity:0.75;stroke:#4c4c4c;stroke-linejoin:miter;stroke-width:0.5;"/>
   </g>
   <g id="patch_63">
    <path clip-path="url(#p1601244347)" d="M 579.315625 224.64 
L 588.188125 224.64 
L 588.188125 224.64 
L 579.315625 224.64 
z
" style="fill:#1f77b4;fill-opacity:0.75;stroke:#4c4c4c;stroke-linejoin:miter;stroke-width:0.5;"/>
   </g>
   <g id="patch_64">
    <path clip-path="url(#p1601244347)" d="M 588.188125 224.64 
L 597.060625 224.64 
L 597.060625 224.64 
L 588.188125 224.64 
z
" style="fill:#1f77b4;fill-opacity:0.75;stroke:#4c4c4c;stroke-linejoin:miter;stroke-width:0.5;"/>
   </g>
   <g id="patch_65">
    <path clip-path="url(#p1601244347)" d="M 597.060625 224.64 
L 605.933125 224.64 
L 605.933125 224.64 
L 597.060625 224.64 
z
" style="fill:#1f77b4;fill-opacity:0.75;stroke:#4c4c4c;stroke-linejoin:miter;stroke-width:0.5;"/>
   </g>
   <g id="patch_66">
    <path clip-path="url(#p1601244347)" d="M 605.933125 224.64 
L 614.805625 224.64 
L 614.805625 224.202187 
L 605.933125 224.202187 
z
" style="fill:#1f77b4;fill-opacity:0.75;stroke:#4c4c4c;stroke-linejoin:miter;stroke-width:0.5;"/>
   </g>
   <g id="patch_67">
    <path clip-path="url(#p1601244347)" d="M 614.805625 224.64 
L 623.678125 224.64 
L 623.678125 224.64 
L 614.805625 224.64 
z
" style="fill:#1f77b4;fill-opacity:0.75;stroke:#4c4c4c;stroke-linejoin:miter;stroke-width:0.5;"/>
   </g>
   <g id="patch_68">
    <path clip-path="url(#p1601244347)" d="M 623.678125 224.64 
L 632.550625 224.64 
L 632.550625 224.64 
L 623.678125 224.64 
z
" style="fill:#1f77b4;fill-opacity:0.75;stroke:#4c4c4c;stroke-linejoin:miter;stroke-width:0.5;"/>
   </g>
   <g id="patch_69">
    <path clip-path="url(#p1601244347)" d="M 632.550625 224.64 
L 641.423125 224.64 
L 641.423125 224.64 
L 632.550625 224.64 
z
" style="fill:#1f77b4;fill-opacity:0.75;stroke:#4c4c4c;stroke-linejoin:miter;stroke-width:0.5;"/>
   </g>
   <g id="patch_70">
    <path clip-path="url(#p1601244347)" d="M 641.423125 224.64 
L 650.295625 224.64 
L 650.295625 224.64 
L 641.423125 224.64 
z
" style="fill:#1f77b4;fill-opacity:0.75;stroke:#4c4c4c;stroke-linejoin:miter;stroke-width:0.5;"/>
   </g>
   <g id="patch_71">
    <path clip-path="url(#p1601244347)" d="M 650.295625 224.64 
L 659.168125 224.64 
L 659.168125 224.64 
L 650.295625 224.64 
z
" style="fill:#1f77b4;fill-opacity:0.75;stroke:#4c4c4c;stroke-linejoin:miter;stroke-width:0.5;"/>
   </g>
   <g id="patch_72">
    <path clip-path="url(#p1601244347)" d="M 659.168125 224.64 
L 668.040625 224.64 
L 668.040625 224.202187 
L 659.168125 224.202187 
z
" style="fill:#1f77b4;fill-opacity:0.75;stroke:#4c4c4c;stroke-linejoin:miter;stroke-width:0.5;"/>
   </g>
   <g id="patch_73">
    <path clip-path="url(#p1601244347)" d="M 668.040625 224.64 
L 676.913125 224.64 
L 676.913125 224.64 
L 668.040625 224.64 
z
" style="fill:#1f77b4;fill-opacity:0.75;stroke:#4c4c4c;stroke-linejoin:miter;stroke-width:0.5;"/>
   </g>
   <g id="patch_74">
    <path clip-path="url(#p1601244347)" d="M 676.913125 224.64 
L 685.785625 224.64 
L 685.785625 224.64 
L 676.913125 224.64 
z
" style="fill:#1f77b4;fill-opacity:0.75;stroke:#4c4c4c;stroke-linejoin:miter;stroke-width:0.5;"/>
   </g>
   <g id="patch_75">
    <path clip-path="url(#p1601244347)" d="M 685.785625 224.64 
L 694.658125 224.64 
L 694.658125 224.64 
L 685.785625 224.64 
z
" style="fill:#1f77b4;fill-opacity:0.75;stroke:#4c4c4c;stroke-linejoin:miter;stroke-width:0.5;"/>
   </g>
   <g id="patch_76">
    <path clip-path="url(#p1601244347)" d="M 694.658125 224.64 
L 703.530625 224.64 
L 703.530625 224.64 
L 694.658125 224.64 
z
" style="fill:#1f77b4;fill-opacity:0.75;stroke:#4c4c4c;stroke-linejoin:miter;stroke-width:0.5;"/>
   </g>
   <g id="patch_77">
    <path clip-path="url(#p1601244347)" d="M 703.530625 224.64 
L 712.403125 224.64 
L 712.403125 224.64 
L 703.530625 224.64 
z
" style="fill:#1f77b4;fill-opacity:0.75;stroke:#4c4c4c;stroke-linejoin:miter;stroke-width:0.5;"/>
   </g>
   <g id="patch_78">
    <path clip-path="url(#p1601244347)" d="M 712.403125 224.64 
L 721.275625 224.64 
L 721.275625 224.202187 
L 712.403125 224.202187 
z
" style="fill:#1f77b4;fill-opacity:0.75;stroke:#4c4c4c;stroke-linejoin:miter;stroke-width:0.5;"/>
   </g>
   <g id="patch_79">
    <path clip-path="url(#p1601244347)" d="M 721.275625 224.64 
L 730.148125 224.64 
L 730.148125 224.64 
L 721.275625 224.64 
z
" style="fill:#1f77b4;fill-opacity:0.75;stroke:#4c4c4c;stroke-linejoin:miter;stroke-width:0.5;"/>
   </g>
   <g id="patch_80">
    <path clip-path="url(#p1601244347)" d="M 730.148125 224.64 
L 739.020625 224.64 
L 739.020625 224.64 
L 730.148125 224.64 
z
" style="fill:#1f77b4;fill-opacity:0.75;stroke:#4c4c4c;stroke-linejoin:miter;stroke-width:0.5;"/>
   </g>
   <g id="patch_81">
    <path clip-path="url(#p1601244347)" d="M 739.020625 224.64 
L 747.893125 224.64 
L 747.893125 224.64 
L 739.020625 224.64 
z
" style="fill:#1f77b4;fill-opacity:0.75;stroke:#4c4c4c;stroke-linejoin:miter;stroke-width:0.5;"/>
   </g>
   <g id="patch_82">
    <path clip-path="url(#p1601244347)" d="M 747.893125 224.64 
L 756.765625 224.64 
L 756.765625 224.64 
L 747.893125 224.64 
z
" style="fill:#1f77b4;fill-opacity:0.75;stroke:#4c4c4c;stroke-linejoin:miter;stroke-width:0.5;"/>
   </g>
   <g id="patch_83">
    <path clip-path="url(#p1601244347)" d="M 756.765625 224.64 
L 765.638125 224.64 
L 765.638125 224.64 
L 756.765625 224.64 
z
" style="fill:#1f77b4;fill-opacity:0.75;stroke:#4c4c4c;stroke-linejoin:miter;stroke-width:0.5;"/>
   </g>
   <g id="patch_84">
    <path clip-path="url(#p1601244347)" d="M 765.638125 224.64 
L 774.510625 224.64 
L 774.510625 224.64 
L 765.638125 224.64 
z
" style="fill:#1f77b4;fill-opacity:0.75;stroke:#4c4c4c;stroke-linejoin:miter;stroke-width:0.5;"/>
   </g>
   <g id="patch_85">
    <path clip-path="url(#p1601244347)" d="M 774.510625 224.64 
L 783.383125 224.64 
L 783.383125 224.64 
L 774.510625 224.64 
z
" style="fill:#1f77b4;fill-opacity:0.75;stroke:#4c4c4c;stroke-linejoin:miter;stroke-width:0.5;"/>
   </g>
   <g id="patch_86">
    <path clip-path="url(#p1601244347)" d="M 783.383125 224.64 
L 792.255625 224.64 
L 792.255625 224.64 
L 783.383125 224.64 
z
" style="fill:#1f77b4;fill-opacity:0.75;stroke:#4c4c4c;stroke-linejoin:miter;stroke-width:0.5;"/>
   </g>
   <g id="patch_87">
    <path clip-path="url(#p1601244347)" d="M 792.255625 224.64 
L 801.128125 224.64 
L 801.128125 224.64 
L 792.255625 224.64 
z
" style="fill:#1f77b4;fill-opacity:0.75;stroke:#4c4c4c;stroke-linejoin:miter;stroke-width:0.5;"/>
   </g>
   <g id="patch_88">
    <path clip-path="url(#p1601244347)" d="M 801.128125 224.64 
L 810.000625 224.64 
L 810.000625 224.64 
L 801.128125 224.64 
z
" style="fill:#1f77b4;fill-opacity:0.75;stroke:#4c4c4c;stroke-linejoin:miter;stroke-width:0.5;"/>
   </g>
   <g id="patch_89">
    <path clip-path="url(#p1601244347)" d="M 810.000625 224.64 
L 818.873125 224.64 
L 818.873125 224.64 
L 810.000625 224.64 
z
" style="fill:#1f77b4;fill-opacity:0.75;stroke:#4c4c4c;stroke-linejoin:miter;stroke-width:0.5;"/>
   </g>
   <g id="patch_90">
    <path clip-path="url(#p1601244347)" d="M 818.873125 224.64 
L 827.745625 224.64 
L 827.745625 224.64 
L 818.873125 224.64 
z
" style="fill:#1f77b4;fill-opacity:0.75;stroke:#4c4c4c;stroke-linejoin:miter;stroke-width:0.5;"/>
   </g>
   <g id="patch_91">
    <path clip-path="url(#p1601244347)" d="M 827.745625 224.64 
L 836.618125 224.64 
L 836.618125 224.64 
L 827.745625 224.64 
z
" style="fill:#1f77b4;fill-opacity:0.75;stroke:#4c4c4c;stroke-linejoin:miter;stroke-width:0.5;"/>
   </g>
   <g id="patch_92">
    <path clip-path="url(#p1601244347)" d="M 836.618125 224.64 
L 845.490625 224.64 
L 845.490625 224.202187 
L 836.618125 224.202187 
z
" style="fill:#1f77b4;fill-opacity:0.75;stroke:#4c4c4c;stroke-linejoin:miter;stroke-width:0.5;"/>
   </g>
   <g id="patch_93">
    <path clip-path="url(#p1601244347)" d="M 845.490625 224.64 
L 854.363125 224.64 
L 854.363125 224.64 
L 845.490625 224.64 
z
" style="fill:#1f77b4;fill-opacity:0.75;stroke:#4c4c4c;stroke-linejoin:miter;stroke-width:0.5;"/>
   </g>
   <g id="patch_94">
    <path clip-path="url(#p1601244347)" d="M 854.363125 224.64 
L 863.235625 224.64 
L 863.235625 224.64 
L 854.363125 224.64 
z
" style="fill:#1f77b4;fill-opacity:0.75;stroke:#4c4c4c;stroke-linejoin:miter;stroke-width:0.5;"/>
   </g>
   <g id="patch_95">
    <path clip-path="url(#p1601244347)" d="M 863.235625 224.64 
L 872.108125 224.64 
L 872.108125 224.202187 
L 863.235625 224.202187 
z
" style="fill:#1f77b4;fill-opacity:0.75;stroke:#4c4c4c;stroke-linejoin:miter;stroke-width:0.5;"/>
   </g>
   <g id="matplotlib.axis_1">
    <g id="xtick_1">
     <g id="line2d_1">
      <defs>
       <path d="M 0 0 
L 0 3.5 
" id="m5b43a2b216" style="stroke:#000000;stroke-width:0.8;"/>
      </defs>
      <g>
       <use style="stroke:#000000;stroke-width:0.8;" x="46.965625" xlink:href="#m5b43a2b216" y="224.64"/>
      </g>
     </g>
     <g id="text_1">
      <!-- 0 -->
      <g transform="translate(43.784375 239.238438)scale(0.1 -0.1)">
       <defs>
        <path d="M 31.78125 66.40625 
Q 24.171875 66.40625 20.328125 58.90625 
Q 16.5 51.421875 16.5 36.375 
Q 16.5 21.390625 20.328125 13.890625 
Q 24.171875 6.390625 31.78125 6.390625 
Q 39.453125 6.390625 43.28125 13.890625 
Q 47.125 21.390625 47.125 36.375 
Q 47.125 51.421875 43.28125 58.90625 
Q 39.453125 66.40625 31.78125 66.40625 
z
M 31.78125 74.21875 
Q 44.046875 74.21875 50.515625 64.515625 
Q 56.984375 54.828125 56.984375 36.375 
Q 56.984375 17.96875 50.515625 8.265625 
Q 44.046875 -1.421875 31.78125 -1.421875 
Q 19.53125 -1.421875 13.0625 8.265625 
Q 6.59375 17.96875 6.59375 36.375 
Q 6.59375 54.828125 13.0625 64.515625 
Q 19.53125 74.21875 31.78125 74.21875 
z
" id="DejaVuSans-48"/>
       </defs>
       <use xlink:href="#DejaVuSans-48"/>
      </g>
     </g>
    </g>
    <g id="xtick_2">
     <g id="line2d_2">
      <g>
       <use style="stroke:#000000;stroke-width:0.8;" x="95.790625" xlink:href="#m5b43a2b216" y="224.64"/>
      </g>
     </g>
     <g id="text_2">
      <!-- 10 -->
      <g transform="translate(89.428125 239.238438)scale(0.1 -0.1)">
       <defs>
        <path d="M 12.40625 8.296875 
L 28.515625 8.296875 
L 28.515625 63.921875 
L 10.984375 60.40625 
L 10.984375 69.390625 
L 28.421875 72.90625 
L 38.28125 72.90625 
L 38.28125 8.296875 
L 54.390625 8.296875 
L 54.390625 0 
L 12.40625 0 
z
" id="DejaVuSans-49"/>
       </defs>
       <use xlink:href="#DejaVuSans-49"/>
       <use x="63.623047" xlink:href="#DejaVuSans-48"/>
      </g>
     </g>
    </g>
    <g id="xtick_3">
     <g id="line2d_3">
      <g>
       <use style="stroke:#000000;stroke-width:0.8;" x="144.615625" xlink:href="#m5b43a2b216" y="224.64"/>
      </g>
     </g>
     <g id="text_3">
      <!-- 20 -->
      <g transform="translate(138.253125 239.238438)scale(0.1 -0.1)">
       <defs>
        <path d="M 19.1875 8.296875 
L 53.609375 8.296875 
L 53.609375 0 
L 7.328125 0 
L 7.328125 8.296875 
Q 12.9375 14.109375 22.625 23.890625 
Q 32.328125 33.6875 34.8125 36.53125 
Q 39.546875 41.84375 41.421875 45.53125 
Q 43.3125 49.21875 43.3125 52.78125 
Q 43.3125 58.59375 39.234375 62.25 
Q 35.15625 65.921875 28.609375 65.921875 
Q 23.96875 65.921875 18.8125 64.3125 
Q 13.671875 62.703125 7.8125 59.421875 
L 7.8125 69.390625 
Q 13.765625 71.78125 18.9375 73 
Q 24.125 74.21875 28.421875 74.21875 
Q 39.75 74.21875 46.484375 68.546875 
Q 53.21875 62.890625 53.21875 53.421875 
Q 53.21875 48.921875 51.53125 44.890625 
Q 49.859375 40.875 45.40625 35.40625 
Q 44.1875 33.984375 37.640625 27.21875 
Q 31.109375 20.453125 19.1875 8.296875 
z
" id="DejaVuSans-50"/>
       </defs>
       <use xlink:href="#DejaVuSans-50"/>
       <use x="63.623047" xlink:href="#DejaVuSans-48"/>
      </g>
     </g>
    </g>
    <g id="xtick_4">
     <g id="line2d_4">
      <g>
       <use style="stroke:#000000;stroke-width:0.8;" x="193.440625" xlink:href="#m5b43a2b216" y="224.64"/>
      </g>
     </g>
     <g id="text_4">
      <!-- 30 -->
      <g transform="translate(187.078125 239.238438)scale(0.1 -0.1)">
       <defs>
        <path d="M 40.578125 39.3125 
Q 47.65625 37.796875 51.625 33 
Q 55.609375 28.21875 55.609375 21.1875 
Q 55.609375 10.40625 48.1875 4.484375 
Q 40.765625 -1.421875 27.09375 -1.421875 
Q 22.515625 -1.421875 17.65625 -0.515625 
Q 12.796875 0.390625 7.625 2.203125 
L 7.625 11.71875 
Q 11.71875 9.328125 16.59375 8.109375 
Q 21.484375 6.890625 26.8125 6.890625 
Q 36.078125 6.890625 40.9375 10.546875 
Q 45.796875 14.203125 45.796875 21.1875 
Q 45.796875 27.640625 41.28125 31.265625 
Q 36.765625 34.90625 28.71875 34.90625 
L 20.21875 34.90625 
L 20.21875 43.015625 
L 29.109375 43.015625 
Q 36.375 43.015625 40.234375 45.921875 
Q 44.09375 48.828125 44.09375 54.296875 
Q 44.09375 59.90625 40.109375 62.90625 
Q 36.140625 65.921875 28.71875 65.921875 
Q 24.65625 65.921875 20.015625 65.03125 
Q 15.375 64.15625 9.8125 62.3125 
L 9.8125 71.09375 
Q 15.4375 72.65625 20.34375 73.4375 
Q 25.25 74.21875 29.59375 74.21875 
Q 40.828125 74.21875 47.359375 69.109375 
Q 53.90625 64.015625 53.90625 55.328125 
Q 53.90625 49.265625 50.4375 45.09375 
Q 46.96875 40.921875 40.578125 39.3125 
z
" id="DejaVuSans-51"/>
       </defs>
       <use xlink:href="#DejaVuSans-51"/>
       <use x="63.623047" xlink:href="#DejaVuSans-48"/>
      </g>
     </g>
    </g>
    <g id="xtick_5">
     <g id="line2d_5">
      <g>
       <use style="stroke:#000000;stroke-width:0.8;" x="242.265625" xlink:href="#m5b43a2b216" y="224.64"/>
      </g>
     </g>
     <g id="text_5">
      <!-- 40 -->
      <g transform="translate(235.903125 239.238438)scale(0.1 -0.1)">
       <defs>
        <path d="M 37.796875 64.3125 
L 12.890625 25.390625 
L 37.796875 25.390625 
z
M 35.203125 72.90625 
L 47.609375 72.90625 
L 47.609375 25.390625 
L 58.015625 25.390625 
L 58.015625 17.1875 
L 47.609375 17.1875 
L 47.609375 0 
L 37.796875 0 
L 37.796875 17.1875 
L 4.890625 17.1875 
L 4.890625 26.703125 
z
" id="DejaVuSans-52"/>
       </defs>
       <use xlink:href="#DejaVuSans-52"/>
       <use x="63.623047" xlink:href="#DejaVuSans-48"/>
      </g>
     </g>
    </g>
    <g id="xtick_6">
     <g id="line2d_6">
      <g>
       <use style="stroke:#000000;stroke-width:0.8;" x="291.090625" xlink:href="#m5b43a2b216" y="224.64"/>
      </g>
     </g>
     <g id="text_6">
      <!-- 50 -->
      <g transform="translate(284.728125 239.238438)scale(0.1 -0.1)">
       <defs>
        <path d="M 10.796875 72.90625 
L 49.515625 72.90625 
L 49.515625 64.59375 
L 19.828125 64.59375 
L 19.828125 46.734375 
Q 21.96875 47.46875 24.109375 47.828125 
Q 26.265625 48.1875 28.421875 48.1875 
Q 40.625 48.1875 47.75 41.5 
Q 54.890625 34.8125 54.890625 23.390625 
Q 54.890625 11.625 47.5625 5.09375 
Q 40.234375 -1.421875 26.90625 -1.421875 
Q 22.3125 -1.421875 17.546875 -0.640625 
Q 12.796875 0.140625 7.71875 1.703125 
L 7.71875 11.625 
Q 12.109375 9.234375 16.796875 8.0625 
Q 21.484375 6.890625 26.703125 6.890625 
Q 35.15625 6.890625 40.078125 11.328125 
Q 45.015625 15.765625 45.015625 23.390625 
Q 45.015625 31 40.078125 35.4375 
Q 35.15625 39.890625 26.703125 39.890625 
Q 22.75 39.890625 18.8125 39.015625 
Q 14.890625 38.140625 10.796875 36.28125 
z
" id="DejaVuSans-53"/>
       </defs>
       <use xlink:href="#DejaVuSans-53"/>
       <use x="63.623047" xlink:href="#DejaVuSans-48"/>
      </g>
     </g>
    </g>
    <g id="xtick_7">
     <g id="line2d_7">
      <g>
       <use style="stroke:#000000;stroke-width:0.8;" x="339.915625" xlink:href="#m5b43a2b216" y="224.64"/>
      </g>
     </g>
     <g id="text_7">
      <!-- 60 -->
      <g transform="translate(333.553125 239.238438)scale(0.1 -0.1)">
       <defs>
        <path d="M 33.015625 40.375 
Q 26.375 40.375 22.484375 35.828125 
Q 18.609375 31.296875 18.609375 23.390625 
Q 18.609375 15.53125 22.484375 10.953125 
Q 26.375 6.390625 33.015625 6.390625 
Q 39.65625 6.390625 43.53125 10.953125 
Q 47.40625 15.53125 47.40625 23.390625 
Q 47.40625 31.296875 43.53125 35.828125 
Q 39.65625 40.375 33.015625 40.375 
z
M 52.59375 71.296875 
L 52.59375 62.3125 
Q 48.875 64.0625 45.09375 64.984375 
Q 41.3125 65.921875 37.59375 65.921875 
Q 27.828125 65.921875 22.671875 59.328125 
Q 17.53125 52.734375 16.796875 39.40625 
Q 19.671875 43.65625 24.015625 45.921875 
Q 28.375 48.1875 33.59375 48.1875 
Q 44.578125 48.1875 50.953125 41.515625 
Q 57.328125 34.859375 57.328125 23.390625 
Q 57.328125 12.15625 50.6875 5.359375 
Q 44.046875 -1.421875 33.015625 -1.421875 
Q 20.359375 -1.421875 13.671875 8.265625 
Q 6.984375 17.96875 6.984375 36.375 
Q 6.984375 53.65625 15.1875 63.9375 
Q 23.390625 74.21875 37.203125 74.21875 
Q 40.921875 74.21875 44.703125 73.484375 
Q 48.484375 72.75 52.59375 71.296875 
z
" id="DejaVuSans-54"/>
       </defs>
       <use xlink:href="#DejaVuSans-54"/>
       <use x="63.623047" xlink:href="#DejaVuSans-48"/>
      </g>
     </g>
    </g>
    <g id="xtick_8">
     <g id="line2d_8">
      <g>
       <use style="stroke:#000000;stroke-width:0.8;" x="388.740625" xlink:href="#m5b43a2b216" y="224.64"/>
      </g>
     </g>
     <g id="text_8">
      <!-- 70 -->
      <g transform="translate(382.378125 239.238438)scale(0.1 -0.1)">
       <defs>
        <path d="M 8.203125 72.90625 
L 55.078125 72.90625 
L 55.078125 68.703125 
L 28.609375 0 
L 18.3125 0 
L 43.21875 64.59375 
L 8.203125 64.59375 
z
" id="DejaVuSans-55"/>
       </defs>
       <use xlink:href="#DejaVuSans-55"/>
       <use x="63.623047" xlink:href="#DejaVuSans-48"/>
      </g>
     </g>
    </g>
    <g id="xtick_9">
     <g id="line2d_9">
      <g>
       <use style="stroke:#000000;stroke-width:0.8;" x="437.565625" xlink:href="#m5b43a2b216" y="224.64"/>
      </g>
     </g>
     <g id="text_9">
      <!-- 80 -->
      <g transform="translate(431.203125 239.238438)scale(0.1 -0.1)">
       <defs>
        <path d="M 31.78125 34.625 
Q 24.75 34.625 20.71875 30.859375 
Q 16.703125 27.09375 16.703125 20.515625 
Q 16.703125 13.921875 20.71875 10.15625 
Q 24.75 6.390625 31.78125 6.390625 
Q 38.8125 6.390625 42.859375 10.171875 
Q 46.921875 13.96875 46.921875 20.515625 
Q 46.921875 27.09375 42.890625 30.859375 
Q 38.875 34.625 31.78125 34.625 
z
M 21.921875 38.8125 
Q 15.578125 40.375 12.03125 44.71875 
Q 8.5 49.078125 8.5 55.328125 
Q 8.5 64.0625 14.71875 69.140625 
Q 20.953125 74.21875 31.78125 74.21875 
Q 42.671875 74.21875 48.875 69.140625 
Q 55.078125 64.0625 55.078125 55.328125 
Q 55.078125 49.078125 51.53125 44.71875 
Q 48 40.375 41.703125 38.8125 
Q 48.828125 37.15625 52.796875 32.3125 
Q 56.78125 27.484375 56.78125 20.515625 
Q 56.78125 9.90625 50.3125 4.234375 
Q 43.84375 -1.421875 31.78125 -1.421875 
Q 19.734375 -1.421875 13.25 4.234375 
Q 6.78125 9.90625 6.78125 20.515625 
Q 6.78125 27.484375 10.78125 32.3125 
Q 14.796875 37.15625 21.921875 38.8125 
z
M 18.3125 54.390625 
Q 18.3125 48.734375 21.84375 45.5625 
Q 25.390625 42.390625 31.78125 42.390625 
Q 38.140625 42.390625 41.71875 45.5625 
Q 45.3125 48.734375 45.3125 54.390625 
Q 45.3125 60.0625 41.71875 63.234375 
Q 38.140625 66.40625 31.78125 66.40625 
Q 25.390625 66.40625 21.84375 63.234375 
Q 18.3125 60.0625 18.3125 54.390625 
z
" id="DejaVuSans-56"/>
       </defs>
       <use xlink:href="#DejaVuSans-56"/>
       <use x="63.623047" xlink:href="#DejaVuSans-48"/>
      </g>
     </g>
    </g>
    <g id="text_10">
     <!-- Duration (in days) -->
     <g transform="translate(197.110156 252.916563)scale(0.1 -0.1)">
      <defs>
       <path d="M 19.671875 64.796875 
L 19.671875 8.109375 
L 31.59375 8.109375 
Q 46.6875 8.109375 53.6875 14.9375 
Q 60.6875 21.78125 60.6875 36.53125 
Q 60.6875 51.171875 53.6875 57.984375 
Q 46.6875 64.796875 31.59375 64.796875 
z
M 9.8125 72.90625 
L 30.078125 72.90625 
Q 51.265625 72.90625 61.171875 64.09375 
Q 71.09375 55.28125 71.09375 36.53125 
Q 71.09375 17.671875 61.125 8.828125 
Q 51.171875 0 30.078125 0 
L 9.8125 0 
z
" id="DejaVuSans-68"/>
       <path d="M 8.5 21.578125 
L 8.5 54.6875 
L 17.484375 54.6875 
L 17.484375 21.921875 
Q 17.484375 14.15625 20.5 10.265625 
Q 23.53125 6.390625 29.59375 6.390625 
Q 36.859375 6.390625 41.078125 11.03125 
Q 45.3125 15.671875 45.3125 23.6875 
L 45.3125 54.6875 
L 54.296875 54.6875 
L 54.296875 0 
L 45.3125 0 
L 45.3125 8.40625 
Q 42.046875 3.421875 37.71875 1 
Q 33.40625 -1.421875 27.6875 -1.421875 
Q 18.265625 -1.421875 13.375 4.4375 
Q 8.5 10.296875 8.5 21.578125 
z
M 31.109375 56 
z
" id="DejaVuSans-117"/>
       <path d="M 41.109375 46.296875 
Q 39.59375 47.171875 37.8125 47.578125 
Q 36.03125 48 33.890625 48 
Q 26.265625 48 22.1875 43.046875 
Q 18.109375 38.09375 18.109375 28.8125 
L 18.109375 0 
L 9.078125 0 
L 9.078125 54.6875 
L 18.109375 54.6875 
L 18.109375 46.1875 
Q 20.953125 51.171875 25.484375 53.578125 
Q 30.03125 56 36.53125 56 
Q 37.453125 56 38.578125 55.875 
Q 39.703125 55.765625 41.0625 55.515625 
z
" id="DejaVuSans-114"/>
       <path d="M 34.28125 27.484375 
Q 23.390625 27.484375 19.1875 25 
Q 14.984375 22.515625 14.984375 16.5 
Q 14.984375 11.71875 18.140625 8.90625 
Q 21.296875 6.109375 26.703125 6.109375 
Q 34.1875 6.109375 38.703125 11.40625 
Q 43.21875 16.703125 43.21875 25.484375 
L 43.21875 27.484375 
z
M 52.203125 31.203125 
L 52.203125 0 
L 43.21875 0 
L 43.21875 8.296875 
Q 40.140625 3.328125 35.546875 0.953125 
Q 30.953125 -1.421875 24.3125 -1.421875 
Q 15.921875 -1.421875 10.953125 3.296875 
Q 6 8.015625 6 15.921875 
Q 6 25.140625 12.171875 29.828125 
Q 18.359375 34.515625 30.609375 34.515625 
L 43.21875 34.515625 
L 43.21875 35.40625 
Q 43.21875 41.609375 39.140625 45 
Q 35.0625 48.390625 27.6875 48.390625 
Q 23 48.390625 18.546875 47.265625 
Q 14.109375 46.140625 10.015625 43.890625 
L 10.015625 52.203125 
Q 14.9375 54.109375 19.578125 55.046875 
Q 24.21875 56 28.609375 56 
Q 40.484375 56 46.34375 49.84375 
Q 52.203125 43.703125 52.203125 31.203125 
z
" id="DejaVuSans-97"/>
       <path d="M 18.3125 70.21875 
L 18.3125 54.6875 
L 36.8125 54.6875 
L 36.8125 47.703125 
L 18.3125 47.703125 
L 18.3125 18.015625 
Q 18.3125 11.328125 20.140625 9.421875 
Q 21.96875 7.515625 27.59375 7.515625 
L 36.8125 7.515625 
L 36.8125 0 
L 27.59375 0 
Q 17.1875 0 13.234375 3.875 
Q 9.28125 7.765625 9.28125 18.015625 
L 9.28125 47.703125 
L 2.6875 47.703125 
L 2.6875 54.6875 
L 9.28125 54.6875 
L 9.28125 70.21875 
z
" id="DejaVuSans-116"/>
       <path d="M 9.421875 54.6875 
L 18.40625 54.6875 
L 18.40625 0 
L 9.421875 0 
z
M 9.421875 75.984375 
L 18.40625 75.984375 
L 18.40625 64.59375 
L 9.421875 64.59375 
z
" id="DejaVuSans-105"/>
       <path d="M 30.609375 48.390625 
Q 23.390625 48.390625 19.1875 42.75 
Q 14.984375 37.109375 14.984375 27.296875 
Q 14.984375 17.484375 19.15625 11.84375 
Q 23.34375 6.203125 30.609375 6.203125 
Q 37.796875 6.203125 41.984375 11.859375 
Q 46.1875 17.53125 46.1875 27.296875 
Q 46.1875 37.015625 41.984375 42.703125 
Q 37.796875 48.390625 30.609375 48.390625 
z
M 30.609375 56 
Q 42.328125 56 49.015625 48.375 
Q 55.71875 40.765625 55.71875 27.296875 
Q 55.71875 13.875 49.015625 6.21875 
Q 42.328125 -1.421875 30.609375 -1.421875 
Q 18.84375 -1.421875 12.171875 6.21875 
Q 5.515625 13.875 5.515625 27.296875 
Q 5.515625 40.765625 12.171875 48.375 
Q 18.84375 56 30.609375 56 
z
" id="DejaVuSans-111"/>
       <path d="M 54.890625 33.015625 
L 54.890625 0 
L 45.90625 0 
L 45.90625 32.71875 
Q 45.90625 40.484375 42.875 44.328125 
Q 39.84375 48.1875 33.796875 48.1875 
Q 26.515625 48.1875 22.3125 43.546875 
Q 18.109375 38.921875 18.109375 30.90625 
L 18.109375 0 
L 9.078125 0 
L 9.078125 54.6875 
L 18.109375 54.6875 
L 18.109375 46.1875 
Q 21.34375 51.125 25.703125 53.5625 
Q 30.078125 56 35.796875 56 
Q 45.21875 56 50.046875 50.171875 
Q 54.890625 44.34375 54.890625 33.015625 
z
" id="DejaVuSans-110"/>
       <path id="DejaVuSans-32"/>
       <path d="M 31 75.875 
Q 24.46875 64.65625 21.28125 53.65625 
Q 18.109375 42.671875 18.109375 31.390625 
Q 18.109375 20.125 21.3125 9.0625 
Q 24.515625 -2 31 -13.1875 
L 23.1875 -13.1875 
Q 15.875 -1.703125 12.234375 9.375 
Q 8.59375 20.453125 8.59375 31.390625 
Q 8.59375 42.28125 12.203125 53.3125 
Q 15.828125 64.359375 23.1875 75.875 
z
" id="DejaVuSans-40"/>
       <path d="M 45.40625 46.390625 
L 45.40625 75.984375 
L 54.390625 75.984375 
L 54.390625 0 
L 45.40625 0 
L 45.40625 8.203125 
Q 42.578125 3.328125 38.25 0.953125 
Q 33.9375 -1.421875 27.875 -1.421875 
Q 17.96875 -1.421875 11.734375 6.484375 
Q 5.515625 14.40625 5.515625 27.296875 
Q 5.515625 40.1875 11.734375 48.09375 
Q 17.96875 56 27.875 56 
Q 33.9375 56 38.25 53.625 
Q 42.578125 51.265625 45.40625 46.390625 
z
M 14.796875 27.296875 
Q 14.796875 17.390625 18.875 11.75 
Q 22.953125 6.109375 30.078125 6.109375 
Q 37.203125 6.109375 41.296875 11.75 
Q 45.40625 17.390625 45.40625 27.296875 
Q 45.40625 37.203125 41.296875 42.84375 
Q 37.203125 48.484375 30.078125 48.484375 
Q 22.953125 48.484375 18.875 42.84375 
Q 14.796875 37.203125 14.796875 27.296875 
z
" id="DejaVuSans-100"/>
       <path d="M 32.171875 -5.078125 
Q 28.375 -14.84375 24.75 -17.8125 
Q 21.140625 -20.796875 15.09375 -20.796875 
L 7.90625 -20.796875 
L 7.90625 -13.28125 
L 13.1875 -13.28125 
Q 16.890625 -13.28125 18.9375 -11.515625 
Q 21 -9.765625 23.484375 -3.21875 
L 25.09375 0.875 
L 2.984375 54.6875 
L 12.5 54.6875 
L 29.59375 11.921875 
L 46.6875 54.6875 
L 56.203125 54.6875 
z
" id="DejaVuSans-121"/>
       <path d="M 44.28125 53.078125 
L 44.28125 44.578125 
Q 40.484375 46.53125 36.375 47.5 
Q 32.28125 48.484375 27.875 48.484375 
Q 21.1875 48.484375 17.84375 46.4375 
Q 14.5 44.390625 14.5 40.28125 
Q 14.5 37.15625 16.890625 35.375 
Q 19.28125 33.59375 26.515625 31.984375 
L 29.59375 31.296875 
Q 39.15625 29.25 43.1875 25.515625 
Q 47.21875 21.78125 47.21875 15.09375 
Q 47.21875 7.46875 41.1875 3.015625 
Q 35.15625 -1.421875 24.609375 -1.421875 
Q 20.21875 -1.421875 15.453125 -0.5625 
Q 10.6875 0.296875 5.421875 2 
L 5.421875 11.28125 
Q 10.40625 8.6875 15.234375 7.390625 
Q 20.0625 6.109375 24.8125 6.109375 
Q 31.15625 6.109375 34.5625 8.28125 
Q 37.984375 10.453125 37.984375 14.40625 
Q 37.984375 18.0625 35.515625 20.015625 
Q 33.0625 21.96875 24.703125 23.78125 
L 21.578125 24.515625 
Q 13.234375 26.265625 9.515625 29.90625 
Q 5.8125 33.546875 5.8125 39.890625 
Q 5.8125 47.609375 11.28125 51.796875 
Q 16.75 56 26.8125 56 
Q 31.78125 56 36.171875 55.265625 
Q 40.578125 54.546875 44.28125 53.078125 
z
" id="DejaVuSans-115"/>
       <path d="M 8.015625 75.875 
L 15.828125 75.875 
Q 23.140625 64.359375 26.78125 53.3125 
Q 30.421875 42.28125 30.421875 31.390625 
Q 30.421875 20.453125 26.78125 9.375 
Q 23.140625 -1.703125 15.828125 -13.1875 
L 8.015625 -13.1875 
Q 14.5 -2 17.703125 9.0625 
Q 20.90625 20.125 20.90625 31.390625 
Q 20.90625 42.671875 17.703125 53.65625 
Q 14.5 64.65625 8.015625 75.875 
z
" id="DejaVuSans-41"/>
      </defs>
      <use xlink:href="#DejaVuSans-68"/>
      <use x="77.001953" xlink:href="#DejaVuSans-117"/>
      <use x="140.380859" xlink:href="#DejaVuSans-114"/>
      <use x="181.494141" xlink:href="#DejaVuSans-97"/>
      <use x="242.773438" xlink:href="#DejaVuSans-116"/>
      <use x="281.982422" xlink:href="#DejaVuSans-105"/>
      <use x="309.765625" xlink:href="#DejaVuSans-111"/>
      <use x="370.947266" xlink:href="#DejaVuSans-110"/>
      <use x="434.326172" xlink:href="#DejaVuSans-32"/>
      <use x="466.113281" xlink:href="#DejaVuSans-40"/>
      <use x="505.126953" xlink:href="#DejaVuSans-105"/>
      <use x="532.910156" xlink:href="#DejaVuSans-110"/>
      <use x="596.289062" xlink:href="#DejaVuSans-32"/>
      <use x="628.076172" xlink:href="#DejaVuSans-100"/>
      <use x="691.552734" xlink:href="#DejaVuSans-97"/>
      <use x="752.832031" xlink:href="#DejaVuSans-121"/>
      <use x="812.011719" xlink:href="#DejaVuSans-115"/>
      <use x="864.111328" xlink:href="#DejaVuSans-41"/>
     </g>
    </g>
   </g>
   <g id="matplotlib.axis_2">
    <g id="ytick_1">
     <g id="line2d_10">
      <defs>
       <path d="M 0 0 
L -3.5 0 
" id="md94c34e362" style="stroke:#000000;stroke-width:0.8;"/>
      </defs>
      <g>
       <use style="stroke:#000000;stroke-width:0.8;" x="46.965625" xlink:href="#md94c34e362" y="224.64"/>
      </g>
     </g>
     <g id="text_11">
      <!-- 0 -->
      <g transform="translate(33.603125 228.439219)scale(0.1 -0.1)">
       <use xlink:href="#DejaVuSans-48"/>
      </g>
     </g>
    </g>
    <g id="ytick_2">
     <g id="line2d_11">
      <g>
       <use style="stroke:#000000;stroke-width:0.8;" x="46.965625" xlink:href="#md94c34e362" y="180.858665"/>
      </g>
     </g>
     <g id="text_12">
      <!-- 100 -->
      <g transform="translate(20.878125 184.657884)scale(0.1 -0.1)">
       <use xlink:href="#DejaVuSans-49"/>
       <use x="63.623047" xlink:href="#DejaVuSans-48"/>
       <use x="127.246094" xlink:href="#DejaVuSans-48"/>
      </g>
     </g>
    </g>
    <g id="ytick_3">
     <g id="line2d_12">
      <g>
       <use style="stroke:#000000;stroke-width:0.8;" x="46.965625" xlink:href="#md94c34e362" y="137.07733"/>
      </g>
     </g>
     <g id="text_13">
      <!-- 200 -->
      <g transform="translate(20.878125 140.876549)scale(0.1 -0.1)">
       <use xlink:href="#DejaVuSans-50"/>
       <use x="63.623047" xlink:href="#DejaVuSans-48"/>
       <use x="127.246094" xlink:href="#DejaVuSans-48"/>
      </g>
     </g>
    </g>
    <g id="ytick_4">
     <g id="line2d_13">
      <g>
       <use style="stroke:#000000;stroke-width:0.8;" x="46.965625" xlink:href="#md94c34e362" y="93.295995"/>
      </g>
     </g>
     <g id="text_14">
      <!-- 300 -->
      <g transform="translate(20.878125 97.095214)scale(0.1 -0.1)">
       <use xlink:href="#DejaVuSans-51"/>
       <use x="63.623047" xlink:href="#DejaVuSans-48"/>
       <use x="127.246094" xlink:href="#DejaVuSans-48"/>
      </g>
     </g>
    </g>
    <g id="ytick_5">
     <g id="line2d_14">
      <g>
       <use style="stroke:#000000;stroke-width:0.8;" x="46.965625" xlink:href="#md94c34e362" y="49.51466"/>
      </g>
     </g>
     <g id="text_15">
      <!-- 400 -->
      <g transform="translate(20.878125 53.313879)scale(0.1 -0.1)">
       <use xlink:href="#DejaVuSans-52"/>
       <use x="63.623047" xlink:href="#DejaVuSans-48"/>
       <use x="127.246094" xlink:href="#DejaVuSans-48"/>
      </g>
     </g>
    </g>
    <g id="text_16">
     <!-- Count -->
     <g transform="translate(14.798437 130.768438)rotate(-90)scale(0.1 -0.1)">
      <defs>
       <path d="M 64.40625 67.28125 
L 64.40625 56.890625 
Q 59.421875 61.53125 53.78125 63.8125 
Q 48.140625 66.109375 41.796875 66.109375 
Q 29.296875 66.109375 22.65625 58.46875 
Q 16.015625 50.828125 16.015625 36.375 
Q 16.015625 21.96875 22.65625 14.328125 
Q 29.296875 6.6875 41.796875 6.6875 
Q 48.140625 6.6875 53.78125 8.984375 
Q 59.421875 11.28125 64.40625 15.921875 
L 64.40625 5.609375 
Q 59.234375 2.09375 53.4375 0.328125 
Q 47.65625 -1.421875 41.21875 -1.421875 
Q 24.65625 -1.421875 15.125 8.703125 
Q 5.609375 18.84375 5.609375 36.375 
Q 5.609375 53.953125 15.125 64.078125 
Q 24.65625 74.21875 41.21875 74.21875 
Q 47.75 74.21875 53.53125 72.484375 
Q 59.328125 70.75 64.40625 67.28125 
z
" id="DejaVuSans-67"/>
      </defs>
      <use xlink:href="#DejaVuSans-67"/>
      <use x="69.824219" xlink:href="#DejaVuSans-111"/>
      <use x="131.005859" xlink:href="#DejaVuSans-117"/>
      <use x="194.384766" xlink:href="#DejaVuSans-110"/>
      <use x="257.763672" xlink:href="#DejaVuSans-116"/>
     </g>
    </g>
   </g>
   <g id="patch_96">
    <path d="M 46.965625 224.64 
L 46.965625 7.2 
" style="fill:none;stroke:#000000;stroke-linecap:square;stroke-linejoin:miter;stroke-width:0.8;"/>
   </g>
   <g id="patch_97">
    <path d="M 46.965625 224.64 
L 437.565625 224.64 
" style="fill:none;stroke:#000000;stroke-linecap:square;stroke-linejoin:miter;stroke-width:0.8;"/>
   </g>
  </g>
 </g>
 <defs>
  <clipPath id="p1601244347">
   <rect height="217.44" width="390.6" x="46.965625" y="7.2"/>
  </clipPath>
 </defs>
</svg>
