<?xml version="1.0" encoding="utf-8" standalone="no"?>
<!DOCTYPE svg PUBLIC "-//W3C//DTD SVG 1.1//EN"
  "http://www.w3.org/Graphics/SVG/1.1/DTD/svg11.dtd">
<!-- Created with matplotlib (https://matplotlib.org/) -->
<svg height="329.18125pt" version="1.1" viewBox="0 0 605.803125 329.18125" width="605.803125pt" xmlns="http://www.w3.org/2000/svg" xmlns:xlink="http://www.w3.org/1999/xlink">
 <metadata>
  <rdf:RDF xmlns:cc="http://creativecommons.org/ns#" xmlns:dc="http://purl.org/dc/elements/1.1/" xmlns:rdf="http://www.w3.org/1999/02/22-rdf-syntax-ns#">
   <cc:Work>
    <dc:type rdf:resource="http://purl.org/dc/dcmitype/StillImage"/>
    <dc:date>2021-03-14T22:07:46.372796</dc:date>
    <dc:format>image/svg+xml</dc:format>
    <dc:creator>
     <cc:Agent>
      <dc:title>Matplotlib v3.3.4, https://matplotlib.org/</dc:title>
     </cc:Agent>
    </dc:creator>
   </cc:Work>
  </rdf:RDF>
 </metadata>
 <defs>
  <style type="text/css">*{stroke-linecap:butt;stroke-linejoin:round;}</style>
 </defs>
 <g id="figure_1">
  <g id="patch_1">
   <path d="M 0 329.18125 
L 605.803125 329.18125 
L 605.803125 0 
L 0 0 
z
" style="fill:none;"/>
  </g>
  <g id="axes_1">
   <g id="patch_2">
    <path d="M 40.603125 252 
L 598.603125 252 
L 598.603125 7.2 
L 40.603125 7.2 
z
" style="fill:#ffffff;"/>
   </g>
   <g id="PolyCollection_1">
    <path clip-path="url(#pc924a9fecc)" d="M 65.966761 218.562406 
L 65.966761 229.717567 
L 65.966761 218.562406 
L 65.966761 218.562406 
z
" style="fill:#1f77b4;fill-opacity:0.2;stroke:#1f77b4;stroke-opacity:0.2;"/>
    <path clip-path="url(#pc924a9fecc)" d="M 68.857204 151.631442 
L 68.857204 170.223377 
L 68.857204 151.631442 
L 68.857204 151.631442 
z
" style="fill:#1f77b4;fill-opacity:0.2;stroke:#1f77b4;stroke-opacity:0.2;"/>
    <path clip-path="url(#pc924a9fecc)" d="M 71.747647 103.292413 
L 71.747647 129.321121 
L 73.192869 237.15434 
L 74.63809 233.435954 
L 76.083311 99.574026 
L 77.528533 218.562406 
L 78.973754 198.731009 
L 80.418976 218.562406 
L 81.864197 194.609797 
L 83.309419 181.378537 
L 84.75464 147.913055 
L 86.199862 173.941763 
L 87.645083 222.280793 
L 89.090304 233.435954 
L 89.090304 147.913055 
L 89.090304 147.913055 
L 87.645083 192.533698 
L 86.199862 162.786603 
L 84.75464 84.700478 
L 83.309419 166.50499 
L 81.864197 18.327273 
L 80.418976 140.476282 
L 78.973754 99.202187 
L 77.528533 114.447573 
L 76.083311 51.234997 
L 74.63809 36.361449 
L 73.192869 229.717567 
L 71.747647 103.292413 
z
" style="fill:#1f77b4;fill-opacity:0.2;stroke:#1f77b4;stroke-opacity:0.2;"/>
    <path clip-path="url(#pc924a9fecc)" d="M 94.87119 110.729187 
L 94.87119 237.15434 
L 96.316412 233.435954 
L 96.316412 37.043153 
L 96.316412 37.043153 
L 94.87119 110.729187 
z
" style="fill:#1f77b4;fill-opacity:0.2;stroke:#1f77b4;stroke-opacity:0.2;"/>
    <path clip-path="url(#pc924a9fecc)" d="M 103.542519 159.068216 
L 103.542519 166.50499 
L 104.98774 229.717567 
L 106.432962 233.435954 
L 107.878183 216.083481 
L 107.878183 151.259604 
L 107.878183 151.259604 
L 106.432962 218.562406 
L 104.98774 114.447573 
L 103.542519 159.068216 
z
" style="fill:#1f77b4;fill-opacity:0.2;stroke:#1f77b4;stroke-opacity:0.2;"/>
    <path clip-path="url(#pc924a9fecc)" d="M 110.768626 107.0108 
L 110.768626 211.125632 
L 110.768626 107.0108 
L 110.768626 107.0108 
z
" style="fill:#1f77b4;fill-opacity:0.2;stroke:#1f77b4;stroke-opacity:0.2;"/>
    <path clip-path="url(#pc924a9fecc)" d="M 117.994733 120.025154 
L 117.994733 237.15434 
L 119.439955 231.080975 
L 119.439955 58.67177 
L 119.439955 58.67177 
L 117.994733 120.025154 
z
" style="fill:#1f77b4;fill-opacity:0.2;stroke:#1f77b4;stroke-opacity:0.2;"/>
    <path clip-path="url(#pc924a9fecc)" d="M 122.330398 173.941763 
L 122.330398 218.562406 
L 123.775619 229.717567 
L 123.775619 195.012622 
L 123.775619 195.012622 
L 122.330398 173.941763 
z
" style="fill:#1f77b4;fill-opacity:0.2;stroke:#1f77b4;stroke-opacity:0.2;"/>
    <path clip-path="url(#pc924a9fecc)" d="M 126.666062 194.83445 
L 126.666062 215.773616 
L 128.111284 214.844019 
L 128.111284 177.66015 
L 128.111284 177.66015 
L 126.666062 194.83445 
z
" style="fill:#1f77b4;fill-opacity:0.2;stroke:#1f77b4;stroke-opacity:0.2;"/>
    <path clip-path="url(#pc924a9fecc)" d="M 131.001726 92.137252 
L 131.001726 222.280793 
L 132.446948 220.90499 
L 132.446948 188.071634 
L 132.446948 188.071634 
L 131.001726 92.137252 
z
" style="fill:#1f77b4;fill-opacity:0.2;stroke:#1f77b4;stroke-opacity:0.2;"/>
    <path clip-path="url(#pc924a9fecc)" d="M 135.337391 120.815311 
L 135.337391 204.045204 
L 136.782612 237.15434 
L 138.227834 233.435954 
L 141.118277 229.276008 
L 142.563498 77.263705 
L 144.008719 225.596355 
L 145.453941 212.188029 
L 146.899162 218.562406 
L 148.344384 200.946548 
L 148.344384 59.601367 
L 148.344384 59.601367 
L 146.899162 166.50499 
L 145.453941 123.424822 
L 144.008719 175.522078 
L 142.563498 62.390157 
L 141.118277 212.403828 
L 138.227834 177.66015 
L 136.782612 187.575849 
L 135.337391 120.815311 
z
" style="fill:#1f77b4;fill-opacity:0.2;stroke:#1f77b4;stroke-opacity:0.2;"/>
    <path clip-path="url(#pc924a9fecc)" d="M 151.234827 157.418182 
L 151.234827 225.99918 
L 152.680048 230.647163 
L 154.12527 213.393848 
L 155.570491 215.184871 
L 157.015712 213.330104 
L 157.015712 158.258139 
L 157.015712 158.258139 
L 155.570491 139.081887 
L 154.12527 144.194668 
L 152.680048 157.139303 
L 151.234827 157.418182 
z
" style="fill:#1f77b4;fill-opacity:0.2;stroke:#1f77b4;stroke-opacity:0.2;"/>
    <path clip-path="url(#pc924a9fecc)" d="M 159.906155 186.956118 
L 159.906155 230.647163 
L 161.351377 225.99918 
L 162.796598 222.466712 
L 164.24182 217.274251 
L 165.687041 228.78797 
L 167.132263 237.15434 
L 168.577484 218.562406 
L 170.022705 228.214719 
L 171.467927 218.562406 
L 172.913148 217.570836 
L 174.35837 220.049761 
L 175.803591 199.993712 
L 177.248813 229.903486 
L 178.694034 234.923308 
L 180.139256 227.645894 
L 181.584477 220.830622 
L 183.029698 213.765687 
L 184.47492 221.908954 
L 185.920141 203.335612 
L 187.365363 202.629118 
L 188.810584 203.688859 
L 190.255806 214.302666 
L 191.701027 229.934473 
L 193.146249 215.060925 
L 194.59147 189.768148 
L 196.036691 201.00733 
L 197.481913 228.50064 
L 198.927134 225.841148 
L 200.372356 200.443721 
L 201.817577 225.325222 
L 203.262799 219.584962 
L 204.70802 214.758806 
L 206.153242 207.979305 
L 207.598463 213.116063 
L 209.043684 216.855932 
L 210.488906 195.175302 
L 211.934127 213.767236 
L 213.379349 207.209706 
L 214.82457 212.25974 
L 216.269792 208.703788 
L 217.715013 180.246617 
L 219.160235 198.200012 
L 220.605456 205.71707 
L 222.050677 188.393417 
L 223.495899 201.608886 
L 224.94112 211.536612 
L 226.386342 205.72993 
L 227.831563 194.190567 
L 229.276785 203.173707 
L 230.722006 204.176897 
L 232.167228 187.323308 
L 233.612449 197.201601 
L 235.05767 177.288312 
L 236.502892 191.014288 
L 237.948113 209.126999 
L 239.393335 205.412838 
L 240.838556 198.539701 
L 242.283778 183.177307 
L 243.728999 202.351272 
L 245.174221 195.866474 
L 246.619442 198.446741 
L 248.064663 199.390403 
L 249.509885 190.217453 
L 250.955106 193.835133 
L 252.400328 193.334184 
L 253.845549 197.708453 
L 255.290771 204.602288 
L 256.735992 212.886398 
L 258.181214 206.445315 
L 259.626435 201.142572 
L 261.071656 200.222362 
L 262.516878 201.907131 
L 263.962099 202.875461 
L 265.407321 208.814552 
L 266.852542 201.073311 
L 268.297764 187.242147 
L 269.742985 191.310921 
L 271.188207 201.42684 
L 272.633428 195.357348 
L 274.078649 206.793712 
L 275.523871 208.344589 
L 276.969092 212.10373 
L 278.414314 215.62643 
L 279.859535 204.035345 
L 281.304757 210.512098 
L 282.749978 189.18715 
L 284.1952 213.982593 
L 285.640421 217.767601 
L 287.085642 203.801389 
L 288.530864 181.869896 
L 289.976085 195.051692 
L 291.421307 204.486762 
L 292.866528 208.752427 
L 294.31175 192.95589 
L 295.756971 215.852274 
L 297.202193 200.446425 
L 298.647414 197.453921 
L 300.092635 206.368284 
L 301.537857 200.972819 
L 302.983078 201.614168 
L 304.4283 198.450308 
L 305.873521 217.922414 
L 307.318743 204.324898 
L 308.763964 205.867213 
L 310.209186 223.682935 
L 311.654407 212.375423 
L 313.099628 214.405781 
L 314.54485 208.569241 
L 315.990071 214.871907 
L 317.435293 203.529499 
L 318.880514 222.931511 
L 320.325736 201.957485 
L 321.770957 204.958116 
L 323.216179 218.97556 
L 324.6614 205.06776 
L 326.106622 206.671315 
L 327.551843 196.026326 
L 328.997064 202.416473 
L 330.442286 213.835407 
L 331.887507 193.859923 
L 333.332729 208.80164 
L 334.77795 214.379221 
L 336.223172 198.12818 
L 337.668393 214.345417 
L 339.113615 214.146822 
L 340.558836 197.930251 
L 342.004057 216.933165 
L 343.449279 206.650288 
L 344.8945 221.360492 
L 346.339722 194.578811 
L 347.784943 201.144087 
L 349.230165 204.99959 
L 350.675386 210.536888 
L 352.120608 191.697061 
L 353.565829 202.165353 
L 355.01105 206.965687 
L 356.456272 204.324083 
L 357.901493 195.562634 
L 359.346715 218.901709 
L 360.791936 208.022209 
L 362.237158 214.158442 
L 363.682379 208.150923 
L 365.127601 217.227167 
L 366.572822 207.320096 
L 368.018043 217.663796 
L 369.463265 203.492003 
L 370.908486 181.510638 
L 372.353708 202.631442 
L 373.798929 201.364867 
L 375.244151 222.280793 
L 376.689372 187.878564 
L 378.134594 208.230602 
L 379.579815 209.266439 
L 381.025036 204.804375 
L 382.470258 218.455145 
L 383.915479 211.692686 
L 385.360701 217.418287 
L 386.805922 214.390841 
L 388.251144 202.122846 
L 389.696365 214.47218 
L 391.141587 199.450991 
L 392.586808 223.103128 
L 394.032029 207.785281 
L 395.477251 218.756776 
L 396.922472 223.874387 
L 398.367694 200.44689 
L 399.812915 214.286261 
L 401.258137 204.439687 
L 402.703358 213.60694 
L 404.14858 195.496013 
L 405.593801 195.638551 
L 407.039022 210.684074 
L 408.484244 201.318387 
L 409.929465 208.522761 
L 411.374687 205.419339 
L 412.819908 185.340943 
L 414.26513 226.566234 
L 415.710351 206.93625 
L 417.155573 199.823285 
L 418.600794 204.716063 
L 420.046015 204.381831 
L 421.491237 203.867627 
L 422.936458 213.454272 
L 424.38168 185.94389 
L 425.826901 194.114012 
L 427.272123 205.775287 
L 428.717344 214.35965 
L 430.162566 207.779084 
L 431.607787 202.500303 
L 433.053008 209.573921 
L 434.49823 206.776448 
L 435.943451 213.428172 
L 437.388673 183.166904 
L 438.833894 204.911278 
L 440.279116 182.941145 
L 441.724337 213.625215 
L 443.169559 192.873203 
L 444.61478 196.298565 
L 446.060001 207.922749 
L 447.505223 213.643627 
L 448.950444 202.25905 
L 450.395666 197.734547 
L 451.840887 216.373628 
L 453.286109 203.854858 
L 454.73133 200.187378 
L 456.176552 213.889633 
L 457.621773 205.371918 
L 459.066994 203.905764 
L 460.512216 197.046467 
L 461.957437 203.862653 
L 463.402659 191.075393 
L 464.84788 192.415949 
L 466.293102 201.192891 
L 467.738323 211.398314 
L 469.183545 206.991661 
L 470.628766 205.187833 
L 472.073987 218.574801 
L 473.519209 211.646206 
L 474.96443 205.816602 
L 476.409652 199.92864 
L 477.854873 211.479764 
L 479.300095 207.762182 
L 480.745316 208.150923 
L 482.190538 206.21869 
L 483.635759 200.585436 
L 485.08098 196.458662 
L 486.526202 204.965831 
L 487.971423 220.011483 
L 489.416645 207.686124 
L 490.861866 217.595625 
L 492.307088 208.638961 
L 493.752309 226.835817 
L 495.197531 211.369651 
L 496.642752 210.474915 
L 498.087973 215.006699 
L 499.533195 208.005673 
L 500.978416 218.845933 
L 502.423638 221.815995 
L 503.868859 208.906995 
L 505.314081 230.662657 
L 506.759302 217.090545 
L 508.204524 225.03578 
L 509.649745 219.076131 
L 511.094966 207.294366 
L 512.540188 223.845614 
L 513.985409 222.317977 
L 515.430631 209.444612 
L 516.875852 216.114468 
L 518.321074 211.908043 
L 519.766295 209.845649 
L 521.211517 216.711663 
L 522.656738 220.599772 
L 524.101959 209.738984 
L 525.547181 220.793438 
L 526.992402 213.408309 
L 528.437624 204.847279 
L 529.882845 214.312821 
L 531.328067 216.464173 
L 532.773288 221.970927 
L 534.21851 207.572507 
L 535.663731 209.984764 
L 537.108953 216.442925 
L 538.554174 229.543267 
L 539.999395 226.371018 
L 541.444617 209.142493 
L 542.889838 214.862611 
L 544.33506 208.80164 
L 545.780281 215.169378 
L 547.225503 220.713758 
L 548.670724 218.740579 
L 550.115946 221.20401 
L 551.561167 225.001976 
L 553.006388 232.217149 
L 554.45161 232.000243 
L 555.896831 219.160834 
L 557.342053 222.280793 
L 558.787274 228.703461 
L 560.232496 225.823589 
L 561.677717 227.868702 
L 563.122939 233.923992 
L 564.56816 229.557 
L 566.013381 237.15434 
L 567.458603 237.898018 
L 568.903824 239.385373 
L 570.349046 232.816222 
L 573.239489 240.872727 
L 573.239489 237.15434 
L 573.239489 237.15434 
L 570.349046 229.717567 
L 568.903824 234.923308 
L 567.458603 227.486535 
L 566.013381 227.533014 
L 564.56816 219.914547 
L 563.122939 222.501572 
L 561.677717 216.692884 
L 560.232496 215.040267 
L 558.787274 214.827117 
L 557.342053 206.477649 
L 555.896831 210.428435 
L 554.45161 219.801868 
L 553.006388 211.611088 
L 551.561167 206.19877 
L 550.115946 201.031761 
L 548.670724 197.933105 
L 547.225503 188.204433 
L 545.780281 200.57471 
L 544.33506 194.148872 
L 542.889838 188.443472 
L 541.444617 188.307131 
L 539.999395 194.19007 
L 538.554174 202.027204 
L 537.108953 170.223377 
L 535.663731 178.834823 
L 534.21851 174.923004 
L 532.773288 184.268034 
L 531.328067 183.36389 
L 529.882845 175.402558 
L 528.437624 186.062275 
L 526.992402 189.011559 
L 525.547181 168.308407 
L 524.101959 172.214263 
L 522.656738 194.702757 
L 521.211517 185.595526 
L 519.766295 181.800431 
L 518.321074 178.233402 
L 516.875852 172.376942 
L 515.430631 182.927865 
L 513.985409 187.606835 
L 512.540188 196.011939 
L 511.094966 174.9112 
L 509.649745 198.801137 
L 508.204524 181.843336 
L 506.759302 176.71506 
L 505.314081 209.560811 
L 503.868859 170.589018 
L 502.423638 203.17758 
L 500.978416 194.267396 
L 499.533195 168.352563 
L 498.087973 190.054773 
L 496.642752 143.82283 
L 495.197531 171.152973 
L 493.752309 177.63359 
L 492.307088 171.106494 
L 490.861866 173.3964 
L 489.416645 152.554399 
L 487.971423 195.366234 
L 486.526202 165.849379 
L 485.08098 158.918448 
L 483.635759 152.332215 
L 482.190538 159.818533 
L 480.745316 167.862201 
L 479.300095 146.544013 
L 477.854873 176.323302 
L 476.409652 166.235407 
L 474.96443 170.336994 
L 473.519209 174.846571 
L 472.073987 195.012622 
L 470.628766 165.939485 
L 469.183545 158.521394 
L 467.738323 156.31661 
L 466.293102 147.727136 
L 464.84788 136.014217 
L 463.402659 121.291729 
L 461.957437 156.307718 
L 460.512216 150.279302 
L 459.066994 158.417498 
L 457.621773 157.668928 
L 456.176552 190.9162 
L 454.73133 162.90022 
L 453.286109 170.322976 
L 451.840887 177.592543 
L 450.395666 159.24435 
L 448.950444 174.689868 
L 447.505223 171.682439 
L 446.060001 162.752799 
L 444.61478 159.481887 
L 443.169559 157.06352 
L 441.724337 168.043989 
L 440.279116 143.198672 
L 438.833894 177.934381 
L 437.388673 112.676913 
L 435.943451 189.237205 
L 434.49823 159.420135 
L 433.053008 174.499522 
L 431.607787 137.401972 
L 430.162566 168.723627 
L 428.717344 170.414189 
L 427.272123 184.673441 
L 425.826901 169.079258 
L 424.38168 149.395246 
L 422.936458 182.354614 
L 421.491237 157.623766 
L 420.046015 168.803629 
L 418.600794 176.614354 
L 417.155573 163.406334 
L 415.710351 161.6401 
L 414.26513 175.670813 
L 412.819908 141.150239 
L 411.374687 159.325643 
L 409.929465 150.542486 
L 408.484244 152.779494 
L 407.039022 185.329323 
L 405.593801 150.032536 
L 404.14858 108.826612 
L 402.703358 177.438477 
L 401.258137 153.032988 
L 399.812915 182.010663 
L 398.367694 149.789679 
L 396.922472 182.945572 
L 395.477251 120.456149 
L 394.032029 150.410572 
L 392.586808 182.629917 
L 391.141587 155.995079 
L 389.696365 168.291881 
L 388.251144 152.053336 
L 386.805922 177.195352 
L 385.360701 137.487271 
L 383.915479 189.363773 
L 382.470258 181.378537 
L 381.025036 175.029938 
L 379.579815 159.598086 
L 378.134594 167.959145 
L 376.689372 116.421179 
L 375.244151 201.048804 
L 373.798929 160.67177 
L 372.353708 86.513192 
L 370.908486 143.896219 
L 369.463265 163.732604 
L 368.018043 155.18715 
L 366.572822 165.494053 
L 365.127601 187.285702 
L 363.682379 162.554204 
L 362.237158 172.500889 
L 360.791936 167.212913 
L 359.346715 174.215995 
L 357.901493 121.365322 
L 356.456272 152.793438 
L 355.01105 174.615721 
L 353.565829 154.983155 
L 352.120608 116.382297 
L 350.675386 173.159353 
L 349.230165 147.076418 
L 347.784943 149.749009 
L 346.339722 111.351301 
L 344.8945 178.915106 
L 343.449279 173.662884 
L 342.004057 188.374976 
L 340.558836 163.359039 
L 339.113615 172.314969 
L 337.668393 179.67146 
L 336.223172 145.79611 
L 334.77795 201.585646 
L 333.332729 177.517612 
L 331.887507 130.982 
L 330.442286 164.590021 
L 328.997064 134.526863 
L 327.551843 157.79666 
L 326.106622 136.517749 
L 324.6614 168.519116 
L 323.216179 173.507952 
L 321.770957 176.945076 
L 320.325736 163.094532 
L 318.880514 194.118439 
L 317.435293 170.307483 
L 315.990071 185.626794 
L 314.54485 168.736022 
L 313.099628 190.214133 
L 311.654407 185.391296 
L 310.209186 130.653543 
L 308.763964 170.824516 
L 307.318743 162.385408 
L 305.873521 187.302929 
L 304.4283 116.820779 
L 302.983078 124.546374 
L 301.537857 173.978139 
L 300.092635 150.690909 
L 298.647414 149.579689 
L 297.202193 130.020178 
L 295.756971 193.102182 
L 294.31175 149.749009 
L 292.866528 169.085988 
L 291.421307 172.191023 
L 289.976085 150.447217 
L 288.530864 126.789077 
L 287.085642 172.747966 
L 285.640421 173.658237 
L 284.1952 186.640055 
L 282.749978 128.163623 
L 281.304757 163.821554 
L 279.859535 147.756714 
L 278.414314 191.344589 
L 276.969092 165.518809 
L 275.523871 167.891638 
L 274.078649 174.425154 
L 272.633428 132.51661 
L 271.188207 156.201959 
L 269.742985 153.179578 
L 268.297764 154.516767 
L 266.852542 157.978053 
L 265.407321 170.107177 
L 263.962099 167.373582 
L 262.516878 105.445979 
L 261.071656 138.608092 
L 259.626435 155.386205 
L 258.181214 170.360795 
L 256.735992 181.012167 
L 255.290771 135.521127 
L 253.845549 163.158442 
L 252.400328 98.009205 
L 250.955106 147.415923 
L 249.509885 134.526863 
L 248.064663 162.998551 
L 246.619442 147.731178 
L 245.174221 162.469851 
L 243.728999 109.081735 
L 242.283778 89.901572 
L 240.838556 166.804077 
L 239.393335 181.361635 
L 237.948113 173.260059 
L 236.502892 149.756221 
L 235.05767 110.031989 
L 233.612449 150.276887 
L 232.167228 114.628845 
L 230.722006 187.389929 
L 229.276785 177.114012 
L 227.831563 130.633493 
L 226.386342 149.372118 
L 224.94112 160.995906 
L 223.495899 164.394031 
L 222.050677 48.00286 
L 220.605456 127.597142 
L 219.160235 164.941577 
L 217.715013 107.951333 
L 216.269792 168.031485 
L 214.82457 72.051766 
L 213.379349 161.014559 
L 211.934127 183.222237 
L 210.488906 113.138391 
L 209.043684 160.316532 
L 207.598463 179.513876 
L 206.153242 175.071581 
L 204.70802 178.899613 
L 203.262799 196.101919 
L 201.817577 177.272818 
L 200.372356 125.391462 
L 198.927134 199.031579 
L 197.481913 141.912931 
L 196.036691 159.132573 
L 194.59147 39.870677 
L 193.146249 158.634404 
L 191.701027 182.184188 
L 190.255806 175.035407 
L 188.810584 189.9928 
L 187.365363 137.501572 
L 185.920141 145.682023 
L 184.47492 177.143708 
L 183.029698 122.144634 
L 181.584477 166.50499 
L 180.139256 199.160394 
L 178.694034 217.075051 
L 177.248813 199.970472 
L 175.803591 160.462611 
L 174.35837 120.266849 
L 172.913148 181.378537 
L 171.467927 173.941763 
L 170.022705 165.869765 
L 168.577484 211.125632 
L 167.132263 192.533698 
L 165.687041 131.180314 
L 164.24182 126.917449 
L 162.796598 156.589291 
L 161.351377 155.349829 
L 159.906155 186.956118 
z
" style="fill:#1f77b4;fill-opacity:0.2;stroke:#1f77b4;stroke-opacity:0.2;"/>
   </g>
   <g id="matplotlib.axis_1">
    <g id="xtick_1">
     <g id="line2d_1">
      <defs>
       <path d="M 0 0 
L 0 3.5 
" id="m9159acb26c" style="stroke:#000000;stroke-width:0.8;"/>
      </defs>
      <g>
       <use style="stroke:#000000;stroke-width:0.8;" x="41.397997" xlink:href="#m9159acb26c" y="252"/>
      </g>
     </g>
     <g id="text_1">
      <!-- Mar 2020 -->
      <g transform="translate(44.157372 306.495312)rotate(-90)scale(0.1 -0.1)">
       <defs>
        <path d="M 9.8125 72.90625 
L 24.515625 72.90625 
L 43.109375 23.296875 
L 61.8125 72.90625 
L 76.515625 72.90625 
L 76.515625 0 
L 66.890625 0 
L 66.890625 64.015625 
L 48.09375 14.015625 
L 38.1875 14.015625 
L 19.390625 64.015625 
L 19.390625 0 
L 9.8125 0 
z
" id="DejaVuSans-77"/>
        <path d="M 34.28125 27.484375 
Q 23.390625 27.484375 19.1875 25 
Q 14.984375 22.515625 14.984375 16.5 
Q 14.984375 11.71875 18.140625 8.90625 
Q 21.296875 6.109375 26.703125 6.109375 
Q 34.1875 6.109375 38.703125 11.40625 
Q 43.21875 16.703125 43.21875 25.484375 
L 43.21875 27.484375 
z
M 52.203125 31.203125 
L 52.203125 0 
L 43.21875 0 
L 43.21875 8.296875 
Q 40.140625 3.328125 35.546875 0.953125 
Q 30.953125 -1.421875 24.3125 -1.421875 
Q 15.921875 -1.421875 10.953125 3.296875 
Q 6 8.015625 6 15.921875 
Q 6 25.140625 12.171875 29.828125 
Q 18.359375 34.515625 30.609375 34.515625 
L 43.21875 34.515625 
L 43.21875 35.40625 
Q 43.21875 41.609375 39.140625 45 
Q 35.0625 48.390625 27.6875 48.390625 
Q 23 48.390625 18.546875 47.265625 
Q 14.109375 46.140625 10.015625 43.890625 
L 10.015625 52.203125 
Q 14.9375 54.109375 19.578125 55.046875 
Q 24.21875 56 28.609375 56 
Q 40.484375 56 46.34375 49.84375 
Q 52.203125 43.703125 52.203125 31.203125 
z
" id="DejaVuSans-97"/>
        <path d="M 41.109375 46.296875 
Q 39.59375 47.171875 37.8125 47.578125 
Q 36.03125 48 33.890625 48 
Q 26.265625 48 22.1875 43.046875 
Q 18.109375 38.09375 18.109375 28.8125 
L 18.109375 0 
L 9.078125 0 
L 9.078125 54.6875 
L 18.109375 54.6875 
L 18.109375 46.1875 
Q 20.953125 51.171875 25.484375 53.578125 
Q 30.03125 56 36.53125 56 
Q 37.453125 56 38.578125 55.875 
Q 39.703125 55.765625 41.0625 55.515625 
z
" id="DejaVuSans-114"/>
        <path id="DejaVuSans-32"/>
        <path d="M 19.1875 8.296875 
L 53.609375 8.296875 
L 53.609375 0 
L 7.328125 0 
L 7.328125 8.296875 
Q 12.9375 14.109375 22.625 23.890625 
Q 32.328125 33.6875 34.8125 36.53125 
Q 39.546875 41.84375 41.421875 45.53125 
Q 43.3125 49.21875 43.3125 52.78125 
Q 43.3125 58.59375 39.234375 62.25 
Q 35.15625 65.921875 28.609375 65.921875 
Q 23.96875 65.921875 18.8125 64.3125 
Q 13.671875 62.703125 7.8125 59.421875 
L 7.8125 69.390625 
Q 13.765625 71.78125 18.9375 73 
Q 24.125 74.21875 28.421875 74.21875 
Q 39.75 74.21875 46.484375 68.546875 
Q 53.21875 62.890625 53.21875 53.421875 
Q 53.21875 48.921875 51.53125 44.890625 
Q 49.859375 40.875 45.40625 35.40625 
Q 44.1875 33.984375 37.640625 27.21875 
Q 31.109375 20.453125 19.1875 8.296875 
z
" id="DejaVuSans-50"/>
        <path d="M 31.78125 66.40625 
Q 24.171875 66.40625 20.328125 58.90625 
Q 16.5 51.421875 16.5 36.375 
Q 16.5 21.390625 20.328125 13.890625 
Q 24.171875 6.390625 31.78125 6.390625 
Q 39.453125 6.390625 43.28125 13.890625 
Q 47.125 21.390625 47.125 36.375 
Q 47.125 51.421875 43.28125 58.90625 
Q 39.453125 66.40625 31.78125 66.40625 
z
M 31.78125 74.21875 
Q 44.046875 74.21875 50.515625 64.515625 
Q 56.984375 54.828125 56.984375 36.375 
Q 56.984375 17.96875 50.515625 8.265625 
Q 44.046875 -1.421875 31.78125 -1.421875 
Q 19.53125 -1.421875 13.0625 8.265625 
Q 6.59375 17.96875 6.59375 36.375 
Q 6.59375 54.828125 13.0625 64.515625 
Q 19.53125 74.21875 31.78125 74.21875 
z
" id="DejaVuSans-48"/>
       </defs>
       <use xlink:href="#DejaVuSans-77"/>
       <use x="86.279297" xlink:href="#DejaVuSans-97"/>
       <use x="147.558594" xlink:href="#DejaVuSans-114"/>
       <use x="188.671875" xlink:href="#DejaVuSans-32"/>
       <use x="220.458984" xlink:href="#DejaVuSans-50"/>
       <use x="284.082031" xlink:href="#DejaVuSans-48"/>
       <use x="347.705078" xlink:href="#DejaVuSans-50"/>
       <use x="411.328125" xlink:href="#DejaVuSans-48"/>
      </g>
     </g>
    </g>
    <g id="xtick_2">
     <g id="line2d_2">
      <g>
       <use style="stroke:#000000;stroke-width:0.8;" x="86.199862" xlink:href="#m9159acb26c" y="252"/>
      </g>
     </g>
     <g id="text_2">
      <!-- Apr 2020 -->
      <g transform="translate(88.959237 304.928125)rotate(-90)scale(0.1 -0.1)">
       <defs>
        <path d="M 34.1875 63.1875 
L 20.796875 26.90625 
L 47.609375 26.90625 
z
M 28.609375 72.90625 
L 39.796875 72.90625 
L 67.578125 0 
L 57.328125 0 
L 50.6875 18.703125 
L 17.828125 18.703125 
L 11.1875 0 
L 0.78125 0 
z
" id="DejaVuSans-65"/>
        <path d="M 18.109375 8.203125 
L 18.109375 -20.796875 
L 9.078125 -20.796875 
L 9.078125 54.6875 
L 18.109375 54.6875 
L 18.109375 46.390625 
Q 20.953125 51.265625 25.265625 53.625 
Q 29.59375 56 35.59375 56 
Q 45.5625 56 51.78125 48.09375 
Q 58.015625 40.1875 58.015625 27.296875 
Q 58.015625 14.40625 51.78125 6.484375 
Q 45.5625 -1.421875 35.59375 -1.421875 
Q 29.59375 -1.421875 25.265625 0.953125 
Q 20.953125 3.328125 18.109375 8.203125 
z
M 48.6875 27.296875 
Q 48.6875 37.203125 44.609375 42.84375 
Q 40.53125 48.484375 33.40625 48.484375 
Q 26.265625 48.484375 22.1875 42.84375 
Q 18.109375 37.203125 18.109375 27.296875 
Q 18.109375 17.390625 22.1875 11.75 
Q 26.265625 6.109375 33.40625 6.109375 
Q 40.53125 6.109375 44.609375 11.75 
Q 48.6875 17.390625 48.6875 27.296875 
z
" id="DejaVuSans-112"/>
       </defs>
       <use xlink:href="#DejaVuSans-65"/>
       <use x="68.408203" xlink:href="#DejaVuSans-112"/>
       <use x="131.884766" xlink:href="#DejaVuSans-114"/>
       <use x="172.998047" xlink:href="#DejaVuSans-32"/>
       <use x="204.785156" xlink:href="#DejaVuSans-50"/>
       <use x="268.408203" xlink:href="#DejaVuSans-48"/>
       <use x="332.03125" xlink:href="#DejaVuSans-50"/>
       <use x="395.654297" xlink:href="#DejaVuSans-48"/>
      </g>
     </g>
    </g>
    <g id="xtick_3">
     <g id="line2d_3">
      <g>
       <use style="stroke:#000000;stroke-width:0.8;" x="129.556505" xlink:href="#m9159acb26c" y="252"/>
      </g>
     </g>
     <g id="text_3">
      <!-- May 2020 -->
      <g transform="translate(132.31588 308.303125)rotate(-90)scale(0.1 -0.1)">
       <defs>
        <path d="M 32.171875 -5.078125 
Q 28.375 -14.84375 24.75 -17.8125 
Q 21.140625 -20.796875 15.09375 -20.796875 
L 7.90625 -20.796875 
L 7.90625 -13.28125 
L 13.1875 -13.28125 
Q 16.890625 -13.28125 18.9375 -11.515625 
Q 21 -9.765625 23.484375 -3.21875 
L 25.09375 0.875 
L 2.984375 54.6875 
L 12.5 54.6875 
L 29.59375 11.921875 
L 46.6875 54.6875 
L 56.203125 54.6875 
z
" id="DejaVuSans-121"/>
       </defs>
       <use xlink:href="#DejaVuSans-77"/>
       <use x="86.279297" xlink:href="#DejaVuSans-97"/>
       <use x="147.558594" xlink:href="#DejaVuSans-121"/>
       <use x="206.738281" xlink:href="#DejaVuSans-32"/>
       <use x="238.525391" xlink:href="#DejaVuSans-50"/>
       <use x="302.148438" xlink:href="#DejaVuSans-48"/>
       <use x="365.771484" xlink:href="#DejaVuSans-50"/>
       <use x="429.394531" xlink:href="#DejaVuSans-48"/>
      </g>
     </g>
    </g>
    <g id="xtick_4">
     <g id="line2d_4">
      <g>
       <use style="stroke:#000000;stroke-width:0.8;" x="174.35837" xlink:href="#m9159acb26c" y="252"/>
      </g>
     </g>
     <g id="text_4">
      <!-- Jun 2020 -->
      <g transform="translate(177.117745 303.253125)rotate(-90)scale(0.1 -0.1)">
       <defs>
        <path d="M 9.8125 72.90625 
L 19.671875 72.90625 
L 19.671875 5.078125 
Q 19.671875 -8.109375 14.671875 -14.0625 
Q 9.671875 -20.015625 -1.421875 -20.015625 
L -5.171875 -20.015625 
L -5.171875 -11.71875 
L -2.09375 -11.71875 
Q 4.4375 -11.71875 7.125 -8.046875 
Q 9.8125 -4.390625 9.8125 5.078125 
z
" id="DejaVuSans-74"/>
        <path d="M 8.5 21.578125 
L 8.5 54.6875 
L 17.484375 54.6875 
L 17.484375 21.921875 
Q 17.484375 14.15625 20.5 10.265625 
Q 23.53125 6.390625 29.59375 6.390625 
Q 36.859375 6.390625 41.078125 11.03125 
Q 45.3125 15.671875 45.3125 23.6875 
L 45.3125 54.6875 
L 54.296875 54.6875 
L 54.296875 0 
L 45.3125 0 
L 45.3125 8.40625 
Q 42.046875 3.421875 37.71875 1 
Q 33.40625 -1.421875 27.6875 -1.421875 
Q 18.265625 -1.421875 13.375 4.4375 
Q 8.5 10.296875 8.5 21.578125 
z
M 31.109375 56 
z
" id="DejaVuSans-117"/>
        <path d="M 54.890625 33.015625 
L 54.890625 0 
L 45.90625 0 
L 45.90625 32.71875 
Q 45.90625 40.484375 42.875 44.328125 
Q 39.84375 48.1875 33.796875 48.1875 
Q 26.515625 48.1875 22.3125 43.546875 
Q 18.109375 38.921875 18.109375 30.90625 
L 18.109375 0 
L 9.078125 0 
L 9.078125 54.6875 
L 18.109375 54.6875 
L 18.109375 46.1875 
Q 21.34375 51.125 25.703125 53.5625 
Q 30.078125 56 35.796875 56 
Q 45.21875 56 50.046875 50.171875 
Q 54.890625 44.34375 54.890625 33.015625 
z
" id="DejaVuSans-110"/>
       </defs>
       <use xlink:href="#DejaVuSans-74"/>
       <use x="29.492188" xlink:href="#DejaVuSans-117"/>
       <use x="92.871094" xlink:href="#DejaVuSans-110"/>
       <use x="156.25" xlink:href="#DejaVuSans-32"/>
       <use x="188.037109" xlink:href="#DejaVuSans-50"/>
       <use x="251.660156" xlink:href="#DejaVuSans-48"/>
       <use x="315.283203" xlink:href="#DejaVuSans-50"/>
       <use x="378.90625" xlink:href="#DejaVuSans-48"/>
      </g>
     </g>
    </g>
    <g id="xtick_5">
     <g id="line2d_5">
      <g>
       <use style="stroke:#000000;stroke-width:0.8;" x="217.715013" xlink:href="#m9159acb26c" y="252"/>
      </g>
     </g>
     <g id="text_5">
      <!-- Jul 2020 -->
      <g transform="translate(220.474388 299.69375)rotate(-90)scale(0.1 -0.1)">
       <defs>
        <path d="M 9.421875 75.984375 
L 18.40625 75.984375 
L 18.40625 0 
L 9.421875 0 
z
" id="DejaVuSans-108"/>
       </defs>
       <use xlink:href="#DejaVuSans-74"/>
       <use x="29.492188" xlink:href="#DejaVuSans-117"/>
       <use x="92.871094" xlink:href="#DejaVuSans-108"/>
       <use x="120.654297" xlink:href="#DejaVuSans-32"/>
       <use x="152.441406" xlink:href="#DejaVuSans-50"/>
       <use x="216.064453" xlink:href="#DejaVuSans-48"/>
       <use x="279.6875" xlink:href="#DejaVuSans-50"/>
       <use x="343.310547" xlink:href="#DejaVuSans-48"/>
      </g>
     </g>
    </g>
    <g id="xtick_6">
     <g id="line2d_6">
      <g>
       <use style="stroke:#000000;stroke-width:0.8;" x="262.516878" xlink:href="#m9159acb26c" y="252"/>
      </g>
     </g>
     <g id="text_6">
      <!-- Aug 2020 -->
      <g transform="translate(265.276253 307.154687)rotate(-90)scale(0.1 -0.1)">
       <defs>
        <path d="M 45.40625 27.984375 
Q 45.40625 37.75 41.375 43.109375 
Q 37.359375 48.484375 30.078125 48.484375 
Q 22.859375 48.484375 18.828125 43.109375 
Q 14.796875 37.75 14.796875 27.984375 
Q 14.796875 18.265625 18.828125 12.890625 
Q 22.859375 7.515625 30.078125 7.515625 
Q 37.359375 7.515625 41.375 12.890625 
Q 45.40625 18.265625 45.40625 27.984375 
z
M 54.390625 6.78125 
Q 54.390625 -7.171875 48.1875 -13.984375 
Q 42 -20.796875 29.203125 -20.796875 
Q 24.46875 -20.796875 20.265625 -20.09375 
Q 16.0625 -19.390625 12.109375 -17.921875 
L 12.109375 -9.1875 
Q 16.0625 -11.328125 19.921875 -12.34375 
Q 23.78125 -13.375 27.78125 -13.375 
Q 36.625 -13.375 41.015625 -8.765625 
Q 45.40625 -4.15625 45.40625 5.171875 
L 45.40625 9.625 
Q 42.625 4.78125 38.28125 2.390625 
Q 33.9375 0 27.875 0 
Q 17.828125 0 11.671875 7.65625 
Q 5.515625 15.328125 5.515625 27.984375 
Q 5.515625 40.671875 11.671875 48.328125 
Q 17.828125 56 27.875 56 
Q 33.9375 56 38.28125 53.609375 
Q 42.625 51.21875 45.40625 46.390625 
L 45.40625 54.6875 
L 54.390625 54.6875 
z
" id="DejaVuSans-103"/>
       </defs>
       <use xlink:href="#DejaVuSans-65"/>
       <use x="68.408203" xlink:href="#DejaVuSans-117"/>
       <use x="131.787109" xlink:href="#DejaVuSans-103"/>
       <use x="195.263672" xlink:href="#DejaVuSans-32"/>
       <use x="227.050781" xlink:href="#DejaVuSans-50"/>
       <use x="290.673828" xlink:href="#DejaVuSans-48"/>
       <use x="354.296875" xlink:href="#DejaVuSans-50"/>
       <use x="417.919922" xlink:href="#DejaVuSans-48"/>
      </g>
     </g>
    </g>
    <g id="xtick_7">
     <g id="line2d_7">
      <g>
       <use style="stroke:#000000;stroke-width:0.8;" x="307.318743" xlink:href="#m9159acb26c" y="252"/>
      </g>
     </g>
     <g id="text_7">
      <!-- Sep 2020 -->
      <g transform="translate(310.078118 306.478125)rotate(-90)scale(0.1 -0.1)">
       <defs>
        <path d="M 53.515625 70.515625 
L 53.515625 60.890625 
Q 47.90625 63.578125 42.921875 64.890625 
Q 37.9375 66.21875 33.296875 66.21875 
Q 25.25 66.21875 20.875 63.09375 
Q 16.5 59.96875 16.5 54.203125 
Q 16.5 49.359375 19.40625 46.890625 
Q 22.3125 44.4375 30.421875 42.921875 
L 36.375 41.703125 
Q 47.40625 39.59375 52.65625 34.296875 
Q 57.90625 29 57.90625 20.125 
Q 57.90625 9.515625 50.796875 4.046875 
Q 43.703125 -1.421875 29.984375 -1.421875 
Q 24.8125 -1.421875 18.96875 -0.25 
Q 13.140625 0.921875 6.890625 3.21875 
L 6.890625 13.375 
Q 12.890625 10.015625 18.65625 8.296875 
Q 24.421875 6.59375 29.984375 6.59375 
Q 38.421875 6.59375 43.015625 9.90625 
Q 47.609375 13.234375 47.609375 19.390625 
Q 47.609375 24.75 44.3125 27.78125 
Q 41.015625 30.8125 33.5 32.328125 
L 27.484375 33.5 
Q 16.453125 35.6875 11.515625 40.375 
Q 6.59375 45.0625 6.59375 53.421875 
Q 6.59375 63.09375 13.40625 68.65625 
Q 20.21875 74.21875 32.171875 74.21875 
Q 37.3125 74.21875 42.625 73.28125 
Q 47.953125 72.359375 53.515625 70.515625 
z
" id="DejaVuSans-83"/>
        <path d="M 56.203125 29.59375 
L 56.203125 25.203125 
L 14.890625 25.203125 
Q 15.484375 15.921875 20.484375 11.0625 
Q 25.484375 6.203125 34.421875 6.203125 
Q 39.59375 6.203125 44.453125 7.46875 
Q 49.3125 8.734375 54.109375 11.28125 
L 54.109375 2.78125 
Q 49.265625 0.734375 44.1875 -0.34375 
Q 39.109375 -1.421875 33.890625 -1.421875 
Q 20.796875 -1.421875 13.15625 6.1875 
Q 5.515625 13.8125 5.515625 26.8125 
Q 5.515625 40.234375 12.765625 48.109375 
Q 20.015625 56 32.328125 56 
Q 43.359375 56 49.78125 48.890625 
Q 56.203125 41.796875 56.203125 29.59375 
z
M 47.21875 32.234375 
Q 47.125 39.59375 43.09375 43.984375 
Q 39.0625 48.390625 32.421875 48.390625 
Q 24.90625 48.390625 20.390625 44.140625 
Q 15.875 39.890625 15.1875 32.171875 
z
" id="DejaVuSans-101"/>
       </defs>
       <use xlink:href="#DejaVuSans-83"/>
       <use x="63.476562" xlink:href="#DejaVuSans-101"/>
       <use x="125" xlink:href="#DejaVuSans-112"/>
       <use x="188.476562" xlink:href="#DejaVuSans-32"/>
       <use x="220.263672" xlink:href="#DejaVuSans-50"/>
       <use x="283.886719" xlink:href="#DejaVuSans-48"/>
       <use x="347.509766" xlink:href="#DejaVuSans-50"/>
       <use x="411.132812" xlink:href="#DejaVuSans-48"/>
      </g>
     </g>
    </g>
    <g id="xtick_8">
     <g id="line2d_8">
      <g>
       <use style="stroke:#000000;stroke-width:0.8;" x="350.675386" xlink:href="#m9159acb26c" y="252"/>
      </g>
     </g>
     <g id="text_8">
      <!-- Oct 2020 -->
      <g transform="translate(353.434761 304.91875)rotate(-90)scale(0.1 -0.1)">
       <defs>
        <path d="M 39.40625 66.21875 
Q 28.65625 66.21875 22.328125 58.203125 
Q 16.015625 50.203125 16.015625 36.375 
Q 16.015625 22.609375 22.328125 14.59375 
Q 28.65625 6.59375 39.40625 6.59375 
Q 50.140625 6.59375 56.421875 14.59375 
Q 62.703125 22.609375 62.703125 36.375 
Q 62.703125 50.203125 56.421875 58.203125 
Q 50.140625 66.21875 39.40625 66.21875 
z
M 39.40625 74.21875 
Q 54.734375 74.21875 63.90625 63.9375 
Q 73.09375 53.65625 73.09375 36.375 
Q 73.09375 19.140625 63.90625 8.859375 
Q 54.734375 -1.421875 39.40625 -1.421875 
Q 24.03125 -1.421875 14.8125 8.828125 
Q 5.609375 19.09375 5.609375 36.375 
Q 5.609375 53.65625 14.8125 63.9375 
Q 24.03125 74.21875 39.40625 74.21875 
z
" id="DejaVuSans-79"/>
        <path d="M 48.78125 52.59375 
L 48.78125 44.1875 
Q 44.96875 46.296875 41.140625 47.34375 
Q 37.3125 48.390625 33.40625 48.390625 
Q 24.65625 48.390625 19.8125 42.84375 
Q 14.984375 37.3125 14.984375 27.296875 
Q 14.984375 17.28125 19.8125 11.734375 
Q 24.65625 6.203125 33.40625 6.203125 
Q 37.3125 6.203125 41.140625 7.25 
Q 44.96875 8.296875 48.78125 10.40625 
L 48.78125 2.09375 
Q 45.015625 0.34375 40.984375 -0.53125 
Q 36.96875 -1.421875 32.421875 -1.421875 
Q 20.0625 -1.421875 12.78125 6.34375 
Q 5.515625 14.109375 5.515625 27.296875 
Q 5.515625 40.671875 12.859375 48.328125 
Q 20.21875 56 33.015625 56 
Q 37.15625 56 41.109375 55.140625 
Q 45.0625 54.296875 48.78125 52.59375 
z
" id="DejaVuSans-99"/>
        <path d="M 18.3125 70.21875 
L 18.3125 54.6875 
L 36.8125 54.6875 
L 36.8125 47.703125 
L 18.3125 47.703125 
L 18.3125 18.015625 
Q 18.3125 11.328125 20.140625 9.421875 
Q 21.96875 7.515625 27.59375 7.515625 
L 36.8125 7.515625 
L 36.8125 0 
L 27.59375 0 
Q 17.1875 0 13.234375 3.875 
Q 9.28125 7.765625 9.28125 18.015625 
L 9.28125 47.703125 
L 2.6875 47.703125 
L 2.6875 54.6875 
L 9.28125 54.6875 
L 9.28125 70.21875 
z
" id="DejaVuSans-116"/>
       </defs>
       <use xlink:href="#DejaVuSans-79"/>
       <use x="78.710938" xlink:href="#DejaVuSans-99"/>
       <use x="133.691406" xlink:href="#DejaVuSans-116"/>
       <use x="172.900391" xlink:href="#DejaVuSans-32"/>
       <use x="204.6875" xlink:href="#DejaVuSans-50"/>
       <use x="268.310547" xlink:href="#DejaVuSans-48"/>
       <use x="331.933594" xlink:href="#DejaVuSans-50"/>
       <use x="395.556641" xlink:href="#DejaVuSans-48"/>
      </g>
     </g>
    </g>
    <g id="xtick_9">
     <g id="line2d_9">
      <g>
       <use style="stroke:#000000;stroke-width:0.8;" x="395.477251" xlink:href="#m9159acb26c" y="252"/>
      </g>
     </g>
     <g id="text_9">
      <!-- Nov 2020 -->
      <g transform="translate(398.236626 307.146875)rotate(-90)scale(0.1 -0.1)">
       <defs>
        <path d="M 9.8125 72.90625 
L 23.09375 72.90625 
L 55.421875 11.921875 
L 55.421875 72.90625 
L 64.984375 72.90625 
L 64.984375 0 
L 51.703125 0 
L 19.390625 60.984375 
L 19.390625 0 
L 9.8125 0 
z
" id="DejaVuSans-78"/>
        <path d="M 30.609375 48.390625 
Q 23.390625 48.390625 19.1875 42.75 
Q 14.984375 37.109375 14.984375 27.296875 
Q 14.984375 17.484375 19.15625 11.84375 
Q 23.34375 6.203125 30.609375 6.203125 
Q 37.796875 6.203125 41.984375 11.859375 
Q 46.1875 17.53125 46.1875 27.296875 
Q 46.1875 37.015625 41.984375 42.703125 
Q 37.796875 48.390625 30.609375 48.390625 
z
M 30.609375 56 
Q 42.328125 56 49.015625 48.375 
Q 55.71875 40.765625 55.71875 27.296875 
Q 55.71875 13.875 49.015625 6.21875 
Q 42.328125 -1.421875 30.609375 -1.421875 
Q 18.84375 -1.421875 12.171875 6.21875 
Q 5.515625 13.875 5.515625 27.296875 
Q 5.515625 40.765625 12.171875 48.375 
Q 18.84375 56 30.609375 56 
z
" id="DejaVuSans-111"/>
        <path d="M 2.984375 54.6875 
L 12.5 54.6875 
L 29.59375 8.796875 
L 46.6875 54.6875 
L 56.203125 54.6875 
L 35.6875 0 
L 23.484375 0 
z
" id="DejaVuSans-118"/>
       </defs>
       <use xlink:href="#DejaVuSans-78"/>
       <use x="74.804688" xlink:href="#DejaVuSans-111"/>
       <use x="135.986328" xlink:href="#DejaVuSans-118"/>
       <use x="195.166016" xlink:href="#DejaVuSans-32"/>
       <use x="226.953125" xlink:href="#DejaVuSans-50"/>
       <use x="290.576172" xlink:href="#DejaVuSans-48"/>
       <use x="354.199219" xlink:href="#DejaVuSans-50"/>
       <use x="417.822266" xlink:href="#DejaVuSans-48"/>
      </g>
     </g>
    </g>
    <g id="xtick_10">
     <g id="line2d_10">
      <g>
       <use style="stroke:#000000;stroke-width:0.8;" x="438.833894" xlink:href="#m9159acb26c" y="252"/>
      </g>
     </g>
     <g id="text_10">
      <!-- Dec 2020 -->
      <g transform="translate(441.593269 306.979687)rotate(-90)scale(0.1 -0.1)">
       <defs>
        <path d="M 19.671875 64.796875 
L 19.671875 8.109375 
L 31.59375 8.109375 
Q 46.6875 8.109375 53.6875 14.9375 
Q 60.6875 21.78125 60.6875 36.53125 
Q 60.6875 51.171875 53.6875 57.984375 
Q 46.6875 64.796875 31.59375 64.796875 
z
M 9.8125 72.90625 
L 30.078125 72.90625 
Q 51.265625 72.90625 61.171875 64.09375 
Q 71.09375 55.28125 71.09375 36.53125 
Q 71.09375 17.671875 61.125 8.828125 
Q 51.171875 0 30.078125 0 
L 9.8125 0 
z
" id="DejaVuSans-68"/>
       </defs>
       <use xlink:href="#DejaVuSans-68"/>
       <use x="77.001953" xlink:href="#DejaVuSans-101"/>
       <use x="138.525391" xlink:href="#DejaVuSans-99"/>
       <use x="193.505859" xlink:href="#DejaVuSans-32"/>
       <use x="225.292969" xlink:href="#DejaVuSans-50"/>
       <use x="288.916016" xlink:href="#DejaVuSans-48"/>
       <use x="352.539062" xlink:href="#DejaVuSans-50"/>
       <use x="416.162109" xlink:href="#DejaVuSans-48"/>
      </g>
     </g>
    </g>
    <g id="xtick_11">
     <g id="line2d_11">
      <g>
       <use style="stroke:#000000;stroke-width:0.8;" x="483.635759" xlink:href="#m9159acb26c" y="252"/>
      </g>
     </g>
     <g id="text_11">
      <!-- Jan 2021 -->
      <g transform="translate(486.395134 303.04375)rotate(-90)scale(0.1 -0.1)">
       <defs>
        <path d="M 12.40625 8.296875 
L 28.515625 8.296875 
L 28.515625 63.921875 
L 10.984375 60.40625 
L 10.984375 69.390625 
L 28.421875 72.90625 
L 38.28125 72.90625 
L 38.28125 8.296875 
L 54.390625 8.296875 
L 54.390625 0 
L 12.40625 0 
z
" id="DejaVuSans-49"/>
       </defs>
       <use xlink:href="#DejaVuSans-74"/>
       <use x="29.492188" xlink:href="#DejaVuSans-97"/>
       <use x="90.771484" xlink:href="#DejaVuSans-110"/>
       <use x="154.150391" xlink:href="#DejaVuSans-32"/>
       <use x="185.9375" xlink:href="#DejaVuSans-50"/>
       <use x="249.560547" xlink:href="#DejaVuSans-48"/>
       <use x="313.183594" xlink:href="#DejaVuSans-50"/>
       <use x="376.806641" xlink:href="#DejaVuSans-49"/>
      </g>
     </g>
    </g>
    <g id="xtick_12">
     <g id="line2d_12">
      <g>
       <use style="stroke:#000000;stroke-width:0.8;" x="528.437624" xlink:href="#m9159acb26c" y="252"/>
      </g>
     </g>
     <g id="text_12">
      <!-- Feb 2021 -->
      <g transform="translate(531.196999 305.33125)rotate(-90)scale(0.1 -0.1)">
       <defs>
        <path d="M 9.8125 72.90625 
L 51.703125 72.90625 
L 51.703125 64.59375 
L 19.671875 64.59375 
L 19.671875 43.109375 
L 48.578125 43.109375 
L 48.578125 34.8125 
L 19.671875 34.8125 
L 19.671875 0 
L 9.8125 0 
z
" id="DejaVuSans-70"/>
        <path d="M 48.6875 27.296875 
Q 48.6875 37.203125 44.609375 42.84375 
Q 40.53125 48.484375 33.40625 48.484375 
Q 26.265625 48.484375 22.1875 42.84375 
Q 18.109375 37.203125 18.109375 27.296875 
Q 18.109375 17.390625 22.1875 11.75 
Q 26.265625 6.109375 33.40625 6.109375 
Q 40.53125 6.109375 44.609375 11.75 
Q 48.6875 17.390625 48.6875 27.296875 
z
M 18.109375 46.390625 
Q 20.953125 51.265625 25.265625 53.625 
Q 29.59375 56 35.59375 56 
Q 45.5625 56 51.78125 48.09375 
Q 58.015625 40.1875 58.015625 27.296875 
Q 58.015625 14.40625 51.78125 6.484375 
Q 45.5625 -1.421875 35.59375 -1.421875 
Q 29.59375 -1.421875 25.265625 0.953125 
Q 20.953125 3.328125 18.109375 8.203125 
L 18.109375 0 
L 9.078125 0 
L 9.078125 75.984375 
L 18.109375 75.984375 
z
" id="DejaVuSans-98"/>
       </defs>
       <use xlink:href="#DejaVuSans-70"/>
       <use x="52.019531" xlink:href="#DejaVuSans-101"/>
       <use x="113.542969" xlink:href="#DejaVuSans-98"/>
       <use x="177.019531" xlink:href="#DejaVuSans-32"/>
       <use x="208.806641" xlink:href="#DejaVuSans-50"/>
       <use x="272.429688" xlink:href="#DejaVuSans-48"/>
       <use x="336.052734" xlink:href="#DejaVuSans-50"/>
       <use x="399.675781" xlink:href="#DejaVuSans-49"/>
      </g>
     </g>
    </g>
    <g id="xtick_13">
     <g id="line2d_13">
      <g>
       <use style="stroke:#000000;stroke-width:0.8;" x="568.903824" xlink:href="#m9159acb26c" y="252"/>
      </g>
     </g>
     <g id="text_13">
      <!-- Mar 2021 -->
      <g transform="translate(571.663199 306.495312)rotate(-90)scale(0.1 -0.1)">
       <use xlink:href="#DejaVuSans-77"/>
       <use x="86.279297" xlink:href="#DejaVuSans-97"/>
       <use x="147.558594" xlink:href="#DejaVuSans-114"/>
       <use x="188.671875" xlink:href="#DejaVuSans-32"/>
       <use x="220.458984" xlink:href="#DejaVuSans-50"/>
       <use x="284.082031" xlink:href="#DejaVuSans-48"/>
       <use x="347.705078" xlink:href="#DejaVuSans-50"/>
       <use x="411.328125" xlink:href="#DejaVuSans-49"/>
      </g>
     </g>
    </g>
    <g id="text_14">
     <!-- Start date -->
     <g transform="translate(294.525 319.901562)scale(0.1 -0.1)">
      <defs>
       <path d="M 45.40625 46.390625 
L 45.40625 75.984375 
L 54.390625 75.984375 
L 54.390625 0 
L 45.40625 0 
L 45.40625 8.203125 
Q 42.578125 3.328125 38.25 0.953125 
Q 33.9375 -1.421875 27.875 -1.421875 
Q 17.96875 -1.421875 11.734375 6.484375 
Q 5.515625 14.40625 5.515625 27.296875 
Q 5.515625 40.1875 11.734375 48.09375 
Q 17.96875 56 27.875 56 
Q 33.9375 56 38.25 53.625 
Q 42.578125 51.265625 45.40625 46.390625 
z
M 14.796875 27.296875 
Q 14.796875 17.390625 18.875 11.75 
Q 22.953125 6.109375 30.078125 6.109375 
Q 37.203125 6.109375 41.296875 11.75 
Q 45.40625 17.390625 45.40625 27.296875 
Q 45.40625 37.203125 41.296875 42.84375 
Q 37.203125 48.484375 30.078125 48.484375 
Q 22.953125 48.484375 18.875 42.84375 
Q 14.796875 37.203125 14.796875 27.296875 
z
" id="DejaVuSans-100"/>
      </defs>
      <use xlink:href="#DejaVuSans-83"/>
      <use x="63.476562" xlink:href="#DejaVuSans-116"/>
      <use x="102.685547" xlink:href="#DejaVuSans-97"/>
      <use x="163.964844" xlink:href="#DejaVuSans-114"/>
      <use x="205.078125" xlink:href="#DejaVuSans-116"/>
      <use x="244.287109" xlink:href="#DejaVuSans-32"/>
      <use x="276.074219" xlink:href="#DejaVuSans-100"/>
      <use x="339.550781" xlink:href="#DejaVuSans-97"/>
      <use x="400.830078" xlink:href="#DejaVuSans-116"/>
      <use x="440.039062" xlink:href="#DejaVuSans-101"/>
     </g>
    </g>
   </g>
   <g id="matplotlib.axis_2">
    <g id="ytick_1">
     <g id="line2d_14">
      <defs>
       <path d="M 0 0 
L -3.5 0 
" id="m845147360d" style="stroke:#000000;stroke-width:0.8;"/>
      </defs>
      <g>
       <use style="stroke:#000000;stroke-width:0.8;" x="40.603125" xlink:href="#m845147360d" y="240.872727"/>
      </g>
     </g>
     <g id="text_15">
      <!-- 0 -->
      <g transform="translate(27.240625 244.671946)scale(0.1 -0.1)">
       <use xlink:href="#DejaVuSans-48"/>
      </g>
     </g>
    </g>
    <g id="ytick_2">
     <g id="line2d_15">
      <g>
       <use style="stroke:#000000;stroke-width:0.8;" x="40.603125" xlink:href="#m845147360d" y="203.688859"/>
      </g>
     </g>
     <g id="text_16">
      <!-- 10 -->
      <g transform="translate(20.878125 207.488077)scale(0.1 -0.1)">
       <use xlink:href="#DejaVuSans-49"/>
       <use x="63.623047" xlink:href="#DejaVuSans-48"/>
      </g>
     </g>
    </g>
    <g id="ytick_3">
     <g id="line2d_16">
      <g>
       <use style="stroke:#000000;stroke-width:0.8;" x="40.603125" xlink:href="#m845147360d" y="166.50499"/>
      </g>
     </g>
     <g id="text_17">
      <!-- 20 -->
      <g transform="translate(20.878125 170.304208)scale(0.1 -0.1)">
       <use xlink:href="#DejaVuSans-50"/>
       <use x="63.623047" xlink:href="#DejaVuSans-48"/>
      </g>
     </g>
    </g>
    <g id="ytick_4">
     <g id="line2d_17">
      <g>
       <use style="stroke:#000000;stroke-width:0.8;" x="40.603125" xlink:href="#m845147360d" y="129.321121"/>
      </g>
     </g>
     <g id="text_18">
      <!-- 30 -->
      <g transform="translate(20.878125 133.12034)scale(0.1 -0.1)">
       <defs>
        <path d="M 40.578125 39.3125 
Q 47.65625 37.796875 51.625 33 
Q 55.609375 28.21875 55.609375 21.1875 
Q 55.609375 10.40625 48.1875 4.484375 
Q 40.765625 -1.421875 27.09375 -1.421875 
Q 22.515625 -1.421875 17.65625 -0.515625 
Q 12.796875 0.390625 7.625 2.203125 
L 7.625 11.71875 
Q 11.71875 9.328125 16.59375 8.109375 
Q 21.484375 6.890625 26.8125 6.890625 
Q 36.078125 6.890625 40.9375 10.546875 
Q 45.796875 14.203125 45.796875 21.1875 
Q 45.796875 27.640625 41.28125 31.265625 
Q 36.765625 34.90625 28.71875 34.90625 
L 20.21875 34.90625 
L 20.21875 43.015625 
L 29.109375 43.015625 
Q 36.375 43.015625 40.234375 45.921875 
Q 44.09375 48.828125 44.09375 54.296875 
Q 44.09375 59.90625 40.109375 62.90625 
Q 36.140625 65.921875 28.71875 65.921875 
Q 24.65625 65.921875 20.015625 65.03125 
Q 15.375 64.15625 9.8125 62.3125 
L 9.8125 71.09375 
Q 15.4375 72.65625 20.34375 73.4375 
Q 25.25 74.21875 29.59375 74.21875 
Q 40.828125 74.21875 47.359375 69.109375 
Q 53.90625 64.015625 53.90625 55.328125 
Q 53.90625 49.265625 50.4375 45.09375 
Q 46.96875 40.921875 40.578125 39.3125 
z
" id="DejaVuSans-51"/>
       </defs>
       <use xlink:href="#DejaVuSans-51"/>
       <use x="63.623047" xlink:href="#DejaVuSans-48"/>
      </g>
     </g>
    </g>
    <g id="ytick_5">
     <g id="line2d_18">
      <g>
       <use style="stroke:#000000;stroke-width:0.8;" x="40.603125" xlink:href="#m845147360d" y="92.137252"/>
      </g>
     </g>
     <g id="text_19">
      <!-- 40 -->
      <g transform="translate(20.878125 95.936471)scale(0.1 -0.1)">
       <defs>
        <path d="M 37.796875 64.3125 
L 12.890625 25.390625 
L 37.796875 25.390625 
z
M 35.203125 72.90625 
L 47.609375 72.90625 
L 47.609375 25.390625 
L 58.015625 25.390625 
L 58.015625 17.1875 
L 47.609375 17.1875 
L 47.609375 0 
L 37.796875 0 
L 37.796875 17.1875 
L 4.890625 17.1875 
L 4.890625 26.703125 
z
" id="DejaVuSans-52"/>
       </defs>
       <use xlink:href="#DejaVuSans-52"/>
       <use x="63.623047" xlink:href="#DejaVuSans-48"/>
      </g>
     </g>
    </g>
    <g id="ytick_6">
     <g id="line2d_19">
      <g>
       <use style="stroke:#000000;stroke-width:0.8;" x="40.603125" xlink:href="#m845147360d" y="54.953383"/>
      </g>
     </g>
     <g id="text_20">
      <!-- 50 -->
      <g transform="translate(20.878125 58.752602)scale(0.1 -0.1)">
       <defs>
        <path d="M 10.796875 72.90625 
L 49.515625 72.90625 
L 49.515625 64.59375 
L 19.828125 64.59375 
L 19.828125 46.734375 
Q 21.96875 47.46875 24.109375 47.828125 
Q 26.265625 48.1875 28.421875 48.1875 
Q 40.625 48.1875 47.75 41.5 
Q 54.890625 34.8125 54.890625 23.390625 
Q 54.890625 11.625 47.5625 5.09375 
Q 40.234375 -1.421875 26.90625 -1.421875 
Q 22.3125 -1.421875 17.546875 -0.640625 
Q 12.796875 0.140625 7.71875 1.703125 
L 7.71875 11.625 
Q 12.109375 9.234375 16.796875 8.0625 
Q 21.484375 6.890625 26.703125 6.890625 
Q 35.15625 6.890625 40.078125 11.328125 
Q 45.015625 15.765625 45.015625 23.390625 
Q 45.015625 31 40.078125 35.4375 
Q 35.15625 39.890625 26.703125 39.890625 
Q 22.75 39.890625 18.8125 39.015625 
Q 14.890625 38.140625 10.796875 36.28125 
z
" id="DejaVuSans-53"/>
       </defs>
       <use xlink:href="#DejaVuSans-53"/>
       <use x="63.623047" xlink:href="#DejaVuSans-48"/>
      </g>
     </g>
    </g>
    <g id="ytick_7">
     <g id="line2d_20">
      <g>
       <use style="stroke:#000000;stroke-width:0.8;" x="40.603125" xlink:href="#m845147360d" y="17.769515"/>
      </g>
     </g>
     <g id="text_21">
      <!-- 60 -->
      <g transform="translate(20.878125 21.568733)scale(0.1 -0.1)">
       <defs>
        <path d="M 33.015625 40.375 
Q 26.375 40.375 22.484375 35.828125 
Q 18.609375 31.296875 18.609375 23.390625 
Q 18.609375 15.53125 22.484375 10.953125 
Q 26.375 6.390625 33.015625 6.390625 
Q 39.65625 6.390625 43.53125 10.953125 
Q 47.40625 15.53125 47.40625 23.390625 
Q 47.40625 31.296875 43.53125 35.828125 
Q 39.65625 40.375 33.015625 40.375 
z
M 52.59375 71.296875 
L 52.59375 62.3125 
Q 48.875 64.0625 45.09375 64.984375 
Q 41.3125 65.921875 37.59375 65.921875 
Q 27.828125 65.921875 22.671875 59.328125 
Q 17.53125 52.734375 16.796875 39.40625 
Q 19.671875 43.65625 24.015625 45.921875 
Q 28.375 48.1875 33.59375 48.1875 
Q 44.578125 48.1875 50.953125 41.515625 
Q 57.328125 34.859375 57.328125 23.390625 
Q 57.328125 12.15625 50.6875 5.359375 
Q 44.046875 -1.421875 33.015625 -1.421875 
Q 20.359375 -1.421875 13.671875 8.265625 
Q 6.984375 17.96875 6.984375 36.375 
Q 6.984375 53.65625 15.1875 63.9375 
Q 23.390625 74.21875 37.203125 74.21875 
Q 40.921875 74.21875 44.703125 73.484375 
Q 48.484375 72.75 52.59375 71.296875 
z
" id="DejaVuSans-54"/>
       </defs>
       <use xlink:href="#DejaVuSans-54"/>
       <use x="63.623047" xlink:href="#DejaVuSans-48"/>
      </g>
     </g>
    </g>
    <g id="text_22">
     <!-- Stay (in days) -->
     <g transform="translate(14.798437 164.197656)rotate(-90)scale(0.1 -0.1)">
      <defs>
       <path d="M 31 75.875 
Q 24.46875 64.65625 21.28125 53.65625 
Q 18.109375 42.671875 18.109375 31.390625 
Q 18.109375 20.125 21.3125 9.0625 
Q 24.515625 -2 31 -13.1875 
L 23.1875 -13.1875 
Q 15.875 -1.703125 12.234375 9.375 
Q 8.59375 20.453125 8.59375 31.390625 
Q 8.59375 42.28125 12.203125 53.3125 
Q 15.828125 64.359375 23.1875 75.875 
z
" id="DejaVuSans-40"/>
       <path d="M 9.421875 54.6875 
L 18.40625 54.6875 
L 18.40625 0 
L 9.421875 0 
z
M 9.421875 75.984375 
L 18.40625 75.984375 
L 18.40625 64.59375 
L 9.421875 64.59375 
z
" id="DejaVuSans-105"/>
       <path d="M 44.28125 53.078125 
L 44.28125 44.578125 
Q 40.484375 46.53125 36.375 47.5 
Q 32.28125 48.484375 27.875 48.484375 
Q 21.1875 48.484375 17.84375 46.4375 
Q 14.5 44.390625 14.5 40.28125 
Q 14.5 37.15625 16.890625 35.375 
Q 19.28125 33.59375 26.515625 31.984375 
L 29.59375 31.296875 
Q 39.15625 29.25 43.1875 25.515625 
Q 47.21875 21.78125 47.21875 15.09375 
Q 47.21875 7.46875 41.1875 3.015625 
Q 35.15625 -1.421875 24.609375 -1.421875 
Q 20.21875 -1.421875 15.453125 -0.5625 
Q 10.6875 0.296875 5.421875 2 
L 5.421875 11.28125 
Q 10.40625 8.6875 15.234375 7.390625 
Q 20.0625 6.109375 24.8125 6.109375 
Q 31.15625 6.109375 34.5625 8.28125 
Q 37.984375 10.453125 37.984375 14.40625 
Q 37.984375 18.0625 35.515625 20.015625 
Q 33.0625 21.96875 24.703125 23.78125 
L 21.578125 24.515625 
Q 13.234375 26.265625 9.515625 29.90625 
Q 5.8125 33.546875 5.8125 39.890625 
Q 5.8125 47.609375 11.28125 51.796875 
Q 16.75 56 26.8125 56 
Q 31.78125 56 36.171875 55.265625 
Q 40.578125 54.546875 44.28125 53.078125 
z
" id="DejaVuSans-115"/>
       <path d="M 8.015625 75.875 
L 15.828125 75.875 
Q 23.140625 64.359375 26.78125 53.3125 
Q 30.421875 42.28125 30.421875 31.390625 
Q 30.421875 20.453125 26.78125 9.375 
Q 23.140625 -1.703125 15.828125 -13.1875 
L 8.015625 -13.1875 
Q 14.5 -2 17.703125 9.0625 
Q 20.90625 20.125 20.90625 31.390625 
Q 20.90625 42.671875 17.703125 53.65625 
Q 14.5 64.65625 8.015625 75.875 
z
" id="DejaVuSans-41"/>
      </defs>
      <use xlink:href="#DejaVuSans-83"/>
      <use x="63.476562" xlink:href="#DejaVuSans-116"/>
      <use x="102.685547" xlink:href="#DejaVuSans-97"/>
      <use x="163.964844" xlink:href="#DejaVuSans-121"/>
      <use x="223.144531" xlink:href="#DejaVuSans-32"/>
      <use x="254.931641" xlink:href="#DejaVuSans-40"/>
      <use x="293.945312" xlink:href="#DejaVuSans-105"/>
      <use x="321.728516" xlink:href="#DejaVuSans-110"/>
      <use x="385.107422" xlink:href="#DejaVuSans-32"/>
      <use x="416.894531" xlink:href="#DejaVuSans-100"/>
      <use x="480.371094" xlink:href="#DejaVuSans-97"/>
      <use x="541.650391" xlink:href="#DejaVuSans-121"/>
      <use x="600.830078" xlink:href="#DejaVuSans-115"/>
      <use x="652.929688" xlink:href="#DejaVuSans-41"/>
     </g>
    </g>
   </g>
   <g id="line2d_21">
    <path clip-path="url(#pc924a9fecc)" d="M 65.966761 224.139986 
L 67.411983 185.096924 
L 68.857204 160.927409 
L 70.302426 199.970472 
L 71.747647 116.306767 
L 73.192869 233.435954 
L 74.63809 134.898701 
L 76.083311 75.404511 
L 77.528533 166.50499 
L 78.973754 152.870905 
L 80.418976 177.66015 
L 81.864197 113.827842 
L 83.309419 173.941763 
L 84.75464 116.306767 
L 86.199862 167.744452 
L 87.645083 203.688859 
L 89.090304 177.66015 
L 90.535526 181.378537 
L 91.980747 203.688859 
L 93.425969 181.378537 
L 94.87119 173.941763 
L 96.316412 151.631442 
L 97.761633 147.913055 
L 100.652076 203.688859 
L 103.542519 162.786603 
L 104.98774 172.08257 
L 106.432962 224.759717 
L 109.323405 151.631442 
L 110.768626 159.068216 
L 115.104291 88.418865 
L 116.549512 118.16596 
L 117.994733 193.463295 
L 119.439955 170.223377 
L 120.885176 233.435954 
L 122.330398 196.252085 
L 123.775619 209.88617 
L 125.220841 203.688859 
L 126.666062 208.336842 
L 128.111284 195.012622 
L 129.556505 177.66015 
L 131.001726 157.209023 
L 132.446948 202.945181 
L 133.892169 207.407245 
L 135.337391 168.364183 
L 136.782612 212.365095 
L 138.227834 205.548052 
L 141.118277 222.280793 
L 142.563498 69.826931 
L 144.008719 201.209934 
L 145.453941 170.223377 
L 146.899162 192.533698 
L 148.344384 152.561039 
L 149.789605 177.66015 
L 151.234827 189.744908 
L 152.680048 198.111278 
L 154.12527 178.403828 
L 155.570491 175.800957 
L 157.015712 186.690519 
L 158.460934 173.941763 
L 159.906155 209.266439 
L 161.351377 190.674504 
L 162.796598 187.575849 
L 164.24182 178.722547 
L 165.687041 181.378537 
L 167.132263 214.844019 
L 168.577484 214.844019 
L 170.022705 199.970472 
L 171.467927 196.252085 
L 172.913148 198.731009 
L 174.35837 175.429118 
L 175.803591 182.772932 
L 177.248813 214.844019 
L 178.694034 225.99918 
L 181.584477 199.970472 
L 183.029698 172.08257 
L 184.47492 201.209934 
L 185.920141 174.685441 
L 187.365363 170.223377 
L 188.810584 196.252085 
L 190.255806 195.814627 
L 191.701027 206.167783 
L 193.146249 188.402157 
L 194.59147 112.58838 
L 196.036691 181.378537 
L 197.481913 185.434959 
L 198.927134 213.728503 
L 200.372356 159.744286 
L 201.817577 199.660606 
L 203.262799 207.979305 
L 204.70802 196.871816 
L 206.153242 192.247668 
L 207.598463 198.001914 
L 209.043684 192.799297 
L 210.488906 157.209023 
L 211.934127 198.731009 
L 213.379349 185.329323 
L 214.82457 153.118797 
L 216.269792 189.598129 
L 217.715013 143.101025 
L 219.160235 181.547555 
L 220.605456 166.50499 
L 222.050677 132.181419 
L 223.495899 184.632126 
L 224.94112 185.879742 
L 226.386342 177.013474 
L 227.831563 166.50499 
L 229.276785 189.125177 
L 230.722006 195.632354 
L 232.167228 156.837184 
L 233.612449 175.00416 
L 235.05767 146.983459 
L 236.502892 170.095156 
L 237.948113 190.829437 
L 239.393335 194.223874 
L 240.838556 182.186882 
L 242.283778 133.969105 
L 243.728999 165.472105 
L 245.174221 179.725921 
L 246.619442 175.720122 
L 248.064663 179.296241 
L 249.509885 166.814855 
L 250.955106 174.750108 
L 252.400328 143.161783 
L 253.845549 180.552229 
L 255.290771 172.163405 
L 256.735992 198.001914 
L 258.181214 186.875283 
L 261.071656 174.061711 
L 262.516878 161.960295 
L 263.962099 186.956118 
L 265.407321 190.364639 
L 266.852542 180.026397 
L 268.297764 172.65463 
L 269.742985 176.945076 
L 271.188207 180.345652 
L 272.633428 166.040191 
L 274.078649 191.542128 
L 275.523871 190.209706 
L 276.969092 190.270332 
L 278.414314 203.843791 
L 279.859535 177.153098 
L 281.304757 191.046343 
L 282.749978 166.145146 
L 284.1952 201.953611 
L 285.640421 200.34231 
L 287.085642 188.423902 
L 288.530864 153.579169 
L 289.976085 173.133419 
L 291.421307 189.589975 
L 292.866528 188.377854 
L 294.31175 174.716427 
L 295.756971 204.403933 
L 297.202193 169.77717 
L 298.647414 177.128952 
L 300.092635 178.753794 
L 301.537857 189.461987 
L 302.983078 171.575517 
L 304.4283 159.943131 
L 305.873521 204.403933 
L 307.318743 186.858265 
L 308.763964 189.930827 
L 310.209186 183.237731 
L 311.654407 199.557318 
L 313.099628 202.803528 
L 314.54485 189.228465 
L 315.990071 199.598633 
L 317.435293 189.700641 
L 318.880514 209.177906 
L 320.325736 182.540533 
L 323.216179 200.383626 
L 324.6614 186.129809 
L 326.106622 175.491091 
L 327.551843 177.261752 
L 328.997064 171.850171 
L 330.442286 190.674504 
L 331.887507 167.248667 
L 333.332729 192.533698 
L 334.77795 206.942447 
L 336.223172 174.279799 
L 337.668393 197.604225 
L 339.113615 193.695694 
L 340.558836 182.748469 
L 342.004057 203.688859 
L 343.449279 189.346509 
L 344.8945 199.598633 
L 346.339722 158.496156 
L 347.784943 179.054545 
L 349.230165 174.685441 
L 350.675386 193.77316 
L 352.120608 157.441422 
L 353.565829 181.585114 
L 355.01105 191.8365 
L 356.456272 177.350285 
L 357.901493 167.124721 
L 359.346715 199.040875 
L 360.791936 186.241043 
L 362.237158 193.463295 
L 363.682379 186.584279 
L 365.127601 205.379034 
L 366.572822 188.118113 
L 368.018043 190.364639 
L 369.463265 180.284894 
L 370.908486 163.96083 
L 372.353708 159.533014 
L 373.798929 184.399727 
L 375.244151 211.497471 
L 376.689372 155.063799 
L 378.134594 186.956118 
L 379.579815 183.237731 
L 381.025036 190.783869 
L 382.470258 201.68665 
L 383.915479 200.34231 
L 385.360701 180.520448 
L 386.805922 197.64648 
L 388.251144 177.94618 
L 389.696365 192.946852 
L 391.141587 177.878879 
L 392.586808 200.256501 
L 394.032029 185.344817 
L 395.477251 179.688361 
L 396.922472 206.876047 
L 398.367694 179.286945 
L 399.812915 202.015584 
L 401.258137 180.234418 
L 402.703358 194.535906 
L 404.14858 155.349829 
L 405.593801 174.437548 
L 407.039022 197.64648 
L 408.484244 179.891183 
L 409.929465 184.565726 
L 411.374687 181.950597 
L 412.819908 169.990977 
L 414.26513 206.291729 
L 415.710351 182.618 
L 417.155573 182.308134 
L 418.600794 191.790021 
L 420.046015 187.801205 
L 421.491237 176.230002 
L 422.936458 199.598633 
L 424.38168 172.908878 
L 425.826901 181.378537 
L 427.272123 196.252085 
L 428.717344 193.316516 
L 430.162566 187.575849 
L 431.607787 171.020174 
L 433.053008 193.105757 
L 434.49823 184.300127 
L 435.943451 201.97268 
L 437.388673 149.329584 
L 438.833894 191.97594 
L 440.279116 162.432471 
L 441.724337 195.2192 
L 443.169559 174.103432 
L 444.61478 179.147505 
L 446.060001 179.350326 
L 447.505223 197.06043 
L 450.395666 182.552765 
L 451.840887 194.223874 
L 453.286109 188.549712 
L 454.73133 180.965383 
L 456.176552 201.457826 
L 457.621773 182.161356 
L 459.066994 180.345652 
L 460.512216 173.434711 
L 461.957437 185.258593 
L 463.402659 163.251401 
L 466.293102 179.705263 
L 467.738323 188.071634 
L 469.183545 184.22201 
L 470.628766 186.026521 
L 472.073987 205.424106 
L 473.519209 193.029483 
L 474.96443 185.923232 
L 476.409652 181.564457 
L 477.854873 198.376877 
L 479.300095 175.969975 
L 480.745316 192.037913 
L 482.190538 183.768929 
L 483.635759 181.378537 
L 485.08098 176.833842 
L 486.526202 186.662561 
L 487.971423 208.063431 
L 489.416645 181.378537 
L 490.861866 194.268945 
L 492.307088 189.00123 
L 493.752309 206.876047 
L 495.197531 192.998496 
L 496.642752 185.096924 
L 498.087973 203.069127 
L 499.533195 188.350513 
L 500.978416 206.477649 
L 502.423638 212.520027 
L 503.868859 192.285805 
L 505.314081 219.801868 
L 506.759302 196.871816 
L 508.204524 200.308507 
L 509.649745 208.777177 
L 511.094966 193.064896 
L 512.540188 210.505901 
L 513.985409 206.663568 
L 515.430631 195.322488 
L 516.875852 198.111278 
L 518.321074 197.491547 
L 519.766295 195.966055 
L 521.211517 201.322612 
L 522.656738 207.407245 
L 524.101959 195.012622 
L 525.547181 193.277375 
L 526.992402 202.036242 
L 528.437624 196.252085 
L 529.882845 196.783283 
L 531.328067 202.626462 
L 532.773288 206.167783 
L 534.21851 191.294236 
L 535.663731 196.928155 
L 537.108953 194.76473 
L 538.554174 216.703213 
L 539.999395 209.435456 
L 541.444617 199.226794 
L 542.889838 201.085988 
L 544.33506 202.062064 
L 545.780281 208.026977 
L 547.225503 204.751255 
L 548.670724 208.956573 
L 551.561167 215.182054 
L 553.006388 222.280793 
L 554.45161 225.172872 
L 555.896831 215.308817 
L 557.342053 213.914422 
L 558.787274 221.604723 
L 560.232496 219.388714 
L 561.677717 221.454485 
L 563.122939 228.78797 
L 564.56816 224.985074 
L 566.013381 232.816222 
L 567.458603 231.948599 
L 568.903824 237.15434 
L 570.349046 231.57676 
L 573.239489 239.013534 
L 573.239489 239.013534 
" style="fill:none;stroke:#1f77b4;stroke-linecap:square;stroke-width:0.8;"/>
   </g>
   <g id="line2d_22">
    <path clip-path="url(#pc924a9fecc)" d="M 40.603125 185.964632 
L 598.603125 185.964632 
" style="fill:none;stroke:#000000;stroke-dasharray:2.96,1.28;stroke-dashoffset:0;stroke-width:0.8;"/>
   </g>
   <g id="patch_3">
    <path d="M 40.603125 252 
L 40.603125 7.2 
" style="fill:none;stroke:#000000;stroke-linecap:square;stroke-linejoin:miter;stroke-width:0.8;"/>
   </g>
   <g id="patch_4">
    <path d="M 40.603125 252 
L 598.603125 252 
" style="fill:none;stroke:#000000;stroke-linecap:square;stroke-linejoin:miter;stroke-width:0.8;"/>
   </g>
   <g id="legend_1">
    <g id="patch_5">
     <path d="M 532.35625 29.878125 
L 591.603125 29.878125 
Q 593.603125 29.878125 593.603125 27.878125 
L 593.603125 14.2 
Q 593.603125 12.2 591.603125 12.2 
L 532.35625 12.2 
Q 530.35625 12.2 530.35625 14.2 
L 530.35625 27.878125 
Q 530.35625 29.878125 532.35625 29.878125 
z
" style="fill:#ffffff;opacity:0.8;stroke:#cccccc;stroke-linejoin:miter;"/>
    </g>
    <g id="line2d_23">
     <path d="M 534.35625 20.298437 
L 554.35625 20.298437 
" style="fill:none;stroke:#000000;stroke-dasharray:2.96,1.28;stroke-dashoffset:0;stroke-width:0.8;"/>
    </g>
    <g id="line2d_24"/>
    <g id="text_23">
     <!-- Mean -->
     <g transform="translate(562.35625 23.798437)scale(0.1 -0.1)">
      <use xlink:href="#DejaVuSans-77"/>
      <use x="86.279297" xlink:href="#DejaVuSans-101"/>
      <use x="147.802734" xlink:href="#DejaVuSans-97"/>
      <use x="209.082031" xlink:href="#DejaVuSans-110"/>
     </g>
    </g>
   </g>
  </g>
 </g>
 <defs>
  <clipPath id="pc924a9fecc">
   <rect height="244.8" width="558" x="40.603125" y="7.2"/>
  </clipPath>
 </defs>
</svg>
