<?xml version="1.0" encoding="utf-8" standalone="no"?>
<!DOCTYPE svg PUBLIC "-//W3C//DTD SVG 1.1//EN"
  "http://www.w3.org/Graphics/SVG/1.1/DTD/svg11.dtd">
<!-- Created with matplotlib (https://matplotlib.org/) -->
<svg height="329.18125pt" version="1.1" viewBox="0 0 605.803125 329.18125" width="605.803125pt" xmlns="http://www.w3.org/2000/svg" xmlns:xlink="http://www.w3.org/1999/xlink">
 <metadata>
  <rdf:RDF xmlns:cc="http://creativecommons.org/ns#" xmlns:dc="http://purl.org/dc/elements/1.1/" xmlns:rdf="http://www.w3.org/1999/02/22-rdf-syntax-ns#">
   <cc:Work>
    <dc:type rdf:resource="http://purl.org/dc/dcmitype/StillImage"/>
    <dc:date>2021-03-14T21:59:56.624152</dc:date>
    <dc:format>image/svg+xml</dc:format>
    <dc:creator>
     <cc:Agent>
      <dc:title>Matplotlib v3.3.4, https://matplotlib.org/</dc:title>
     </cc:Agent>
    </dc:creator>
   </cc:Work>
  </rdf:RDF>
 </metadata>
 <defs>
  <style type="text/css">*{stroke-linecap:butt;stroke-linejoin:round;}</style>
 </defs>
 <g id="figure_1">
  <g id="patch_1">
   <path d="M 0 329.18125 
L 605.803125 329.18125 
L 605.803125 0 
L 0 0 
z
" style="fill:none;"/>
  </g>
  <g id="axes_1">
   <g id="patch_2">
    <path d="M 40.603125 252 
L 598.603125 252 
L 598.603125 7.2 
L 40.603125 7.2 
z
" style="fill:#ffffff;"/>
   </g>
   <g id="PolyCollection_1">
    <path clip-path="url(#p269077903b)" d="M 65.966761 220.009091 
L 65.966761 230.440909 
L 65.966761 220.009091 
L 65.966761 220.009091 
z
" style="fill:#1f77b4;fill-opacity:0.2;stroke:#1f77b4;stroke-opacity:0.2;"/>
    <path clip-path="url(#p269077903b)" d="M 68.857204 157.418182 
L 68.857204 174.804545 
L 68.857204 157.418182 
L 68.857204 157.418182 
z
" style="fill:#1f77b4;fill-opacity:0.2;stroke:#1f77b4;stroke-opacity:0.2;"/>
    <path clip-path="url(#p269077903b)" d="M 71.747647 112.213636 
L 71.747647 136.554545 
L 73.192869 237.395455 
L 74.63809 233.918182 
L 76.083311 108.736364 
L 77.528533 220.009091 
L 78.973754 201.463636 
L 80.418976 216.531818 
L 81.864197 192.915341 
L 83.309419 185.236364 
L 84.75464 153.940909 
L 86.199862 178.281818 
L 87.645083 223.486364 
L 89.090304 233.918182 
L 89.090304 155.1 
L 89.090304 155.1 
L 87.645083 192.190909 
L 86.199862 166.024432 
L 84.75464 94.827273 
L 83.309419 171.327273 
L 81.864197 50.042898 
L 80.418976 115.690909 
L 78.973754 101.781818 
L 77.528533 122.645455 
L 76.083311 63.531818 
L 74.63809 49.622727 
L 73.192869 230.440909 
L 71.747647 112.213636 
z
" style="fill:#1f77b4;fill-opacity:0.2;stroke:#1f77b4;stroke-opacity:0.2;"/>
    <path clip-path="url(#p269077903b)" d="M 94.87119 119.168182 
L 94.87119 237.395455 
L 96.316412 233.918182 
L 96.316412 18.327273 
L 96.316412 18.327273 
L 94.87119 119.168182 
z
" style="fill:#1f77b4;fill-opacity:0.2;stroke:#1f77b4;stroke-opacity:0.2;"/>
    <path clip-path="url(#p269077903b)" d="M 103.542519 164.372727 
L 103.542519 171.327273 
L 104.98774 230.440909 
L 106.432962 232.266477 
L 107.878183 230.440909 
L 107.878183 150.463636 
L 107.878183 150.463636 
L 106.432962 220.559659 
L 104.98774 122.645455 
L 103.542519 164.372727 
z
" style="fill:#1f77b4;fill-opacity:0.2;stroke:#1f77b4;stroke-opacity:0.2;"/>
    <path clip-path="url(#p269077903b)" d="M 110.768626 115.690909 
L 110.768626 213.054545 
L 110.768626 115.690909 
L 110.768626 115.690909 
z
" style="fill:#1f77b4;fill-opacity:0.2;stroke:#1f77b4;stroke-opacity:0.2;"/>
    <path clip-path="url(#p269077903b)" d="M 117.994733 127.861364 
L 117.994733 237.395455 
L 119.439955 231.715909 
L 119.439955 120.327273 
L 119.439955 120.327273 
L 117.994733 127.861364 
z
" style="fill:#1f77b4;fill-opacity:0.2;stroke:#1f77b4;stroke-opacity:0.2;"/>
    <path clip-path="url(#p269077903b)" d="M 122.330398 178.281818 
L 122.330398 220.009091 
L 123.775619 228.238636 
L 123.775619 193.118182 
L 123.775619 193.118182 
L 122.330398 178.281818 
z
" style="fill:#1f77b4;fill-opacity:0.2;stroke:#1f77b4;stroke-opacity:0.2;"/>
    <path clip-path="url(#p269077903b)" d="M 126.666062 197.406818 
L 126.666062 223.486364 
L 128.111284 213.228409 
L 128.111284 181.759091 
L 128.111284 181.759091 
L 126.666062 197.406818 
z
" style="fill:#1f77b4;fill-opacity:0.2;stroke:#1f77b4;stroke-opacity:0.2;"/>
    <path clip-path="url(#p269077903b)" d="M 131.001726 101.781818 
L 131.001726 223.486364 
L 132.446948 216.931705 
L 132.446948 191.495455 
L 132.446948 191.495455 
L 131.001726 101.781818 
z
" style="fill:#1f77b4;fill-opacity:0.2;stroke:#1f77b4;stroke-opacity:0.2;"/>
    <path clip-path="url(#p269077903b)" d="M 135.337391 129.455114 
L 135.337391 213.721023 
L 136.782612 237.395455 
L 138.227834 233.918182 
L 141.118277 230.440909 
L 142.563498 87.872727 
L 144.008719 230.440909 
L 145.453941 214.048052 
L 146.899162 220.009091 
L 148.344384 203.535511 
L 148.344384 73.094318 
L 148.344384 73.094318 
L 146.899162 171.327273 
L 145.453941 120.161688 
L 144.008719 179.759659 
L 142.563498 73.963636 
L 141.118277 216.531818 
L 138.227834 181.759091 
L 136.782612 167.85 
L 135.337391 129.455114 
z
" style="fill:#1f77b4;fill-opacity:0.2;stroke:#1f77b4;stroke-opacity:0.2;"/>
    <path clip-path="url(#p269077903b)" d="M 151.234827 154.810227 
L 151.234827 225.311932 
L 152.680048 228.702273 
L 154.12527 212.393864 
L 155.570491 222.906818 
L 157.015712 217.314205 
L 157.015712 165.030925 
L 157.015712 165.030925 
L 155.570491 141.408239 
L 154.12527 136.745795 
L 152.680048 151.702415 
L 151.234827 154.810227 
z
" style="fill:#1f77b4;fill-opacity:0.2;stroke:#1f77b4;stroke-opacity:0.2;"/>
    <path clip-path="url(#p269077903b)" d="M 159.906155 187.257528 
L 159.906155 231.766619 
L 161.351377 226.963636 
L 162.796598 226.963636 
L 164.24182 211.353166 
L 165.687041 225.225 
L 167.132263 237.395455 
L 168.577484 220.009091 
L 170.022705 227.267898 
L 171.467927 220.009091 
L 172.913148 223.486364 
L 174.35837 221.4 
L 175.803591 201.590412 
L 177.248813 233.918182 
L 178.694034 233.587841 
L 180.139256 226.727679 
L 181.584477 222.460568 
L 183.029698 211.350682 
L 184.47492 221.960227 
L 185.920141 215.836364 
L 187.365363 197.806705 
L 188.810584 203.781818 
L 190.255806 217.150568 
L 191.701027 230.846591 
L 193.146249 218.907955 
L 194.59147 184.823437 
L 196.036691 207.544406 
L 197.481913 231.436674 
L 198.927134 226.815852 
L 200.372356 193.202479 
L 201.817577 225.087358 
L 203.262799 221.640734 
L 204.70802 219.429545 
L 206.153242 211.730507 
L 207.598463 215.04375 
L 209.043684 216.072321 
L 210.488906 190.756534 
L 211.934127 212.764773 
L 213.379349 210.995348 
L 214.82457 215.285795 
L 216.269792 211.695664 
L 217.715013 185.768182 
L 219.160235 202.413301 
L 220.605456 205.483574 
L 222.050677 188.994493 
L 223.495899 203.064631 
L 224.94112 215.452033 
L 226.386342 199.693503 
L 227.831563 197.207386 
L 229.276785 206.907741 
L 230.722006 207.845881 
L 232.167228 192.208295 
L 233.612449 197.468912 
L 235.05767 181.511335 
L 236.502892 195.080643 
L 237.948113 211.627415 
L 239.393335 206.67296 
L 240.838556 200.177297 
L 242.283778 183.128267 
L 243.728999 202.144602 
L 245.174221 199.876326 
L 246.619442 204.142144 
L 248.064663 195.769023 
L 249.509885 191.33608 
L 250.955106 203.242589 
L 252.400328 188.544602 
L 253.845549 202.926989 
L 255.290771 205.2458 
L 256.735992 213.571023 
L 258.181214 206.186932 
L 259.626435 205.049259 
L 261.071656 201.930077 
L 262.516878 196.184943 
L 263.962099 204.201083 
L 265.407321 211.279687 
L 266.852542 205.017304 
L 268.297764 193.66875 
L 269.742985 196.611058 
L 271.188207 206.988636 
L 272.633428 199.259553 
L 274.078649 211.478182 
L 275.523871 209.515696 
L 276.969092 213.292663 
L 278.414314 215.227841 
L 279.859535 202.488378 
L 281.304757 216.699886 
L 282.749978 194.069758 
L 284.1952 219.325227 
L 285.640421 222.278011 
L 287.085642 207.852362 
L 288.530864 188.837825 
L 289.976085 200.506126 
L 291.421307 206.907741 
L 292.866528 211.019318 
L 294.31175 194.950994 
L 295.756971 217.143684 
L 297.202193 195.449114 
L 298.647414 205.621875 
L 300.092635 210.651136 
L 301.537857 205.748493 
L 302.983078 208.079675 
L 304.4283 201.523295 
L 305.873521 222.550175 
L 307.318743 209.874671 
L 308.763964 208.870227 
L 310.209186 224.123864 
L 311.654407 216.019886 
L 313.099628 217.777841 
L 314.54485 208.413352 
L 315.990071 216.970824 
L 317.435293 209.333036 
L 318.880514 223.022727 
L 320.325736 203.057386 
L 321.770957 208.146241 
L 323.216179 223.119318 
L 324.6614 206.109659 
L 326.106622 216.220312 
L 327.551843 199.160978 
L 328.997064 207.355078 
L 330.442286 210.107557 
L 331.887507 192.260455 
L 333.332729 210.858068 
L 334.77795 215.890696 
L 336.223172 201.338507 
L 337.668393 215.781043 
L 339.113615 213.945597 
L 340.558836 202.901824 
L 342.004057 217.76259 
L 343.449279 204.032265 
L 344.8945 219.661364 
L 346.339722 195.186713 
L 347.784943 203.866939 
L 349.230165 204.865568 
L 350.675386 213.663068 
L 352.120608 194.201207 
L 353.565829 200.425284 
L 355.01105 208.534091 
L 356.456272 203.702131 
L 357.901493 203.825284 
L 359.346715 218.983295 
L 360.791936 209.135927 
L 362.237158 213.168643 
L 363.682379 214.549773 
L 365.127601 224.316167 
L 366.572822 206.866087 
L 368.018043 222.247585 
L 369.463265 204.494318 
L 370.908486 188.411663 
L 372.353708 206.784588 
L 373.798929 204.497195 
L 375.244151 222.495341 
L 376.689372 197.286451 
L 378.134594 211.576705 
L 379.579815 212.732898 
L 381.025036 206.432386 
L 382.470258 215.602316 
L 383.915479 213.254489 
L 385.360701 216.010227 
L 386.805922 217.900994 
L 388.251144 204.254371 
L 389.696365 212.871023 
L 391.141587 201.211364 
L 392.586808 219.614554 
L 394.032029 210.295909 
L 395.477251 219.574432 
L 396.922472 227.534903 
L 398.367694 199.819176 
L 399.812915 217.492415 
L 401.258137 204.675656 
L 402.703358 209.717701 
L 404.14858 190.579773 
L 405.593801 195.459545 
L 407.039022 213.923864 
L 408.484244 207.60392 
L 409.929465 212.216274 
L 411.374687 203.224563 
L 412.819908 197.770845 
L 414.26513 229.26733 
L 415.710351 208.551477 
L 417.155573 203.521023 
L 418.600794 206.026108 
L 420.046015 210.059349 
L 421.491237 205.337675 
L 422.936458 213.502244 
L 424.38168 193.591477 
L 425.826901 198.918094 
L 427.272123 209.118466 
L 428.717344 215.200389 
L 430.162566 207.977727 
L 431.607787 206.019278 
L 433.053008 211.349344 
L 434.49823 212.439813 
L 435.943451 219.347072 
L 437.388673 182.437987 
L 438.833894 208.625369 
L 440.279116 184.11039 
L 441.724337 218.705114 
L 443.169559 193.748123 
L 444.61478 201.249205 
L 446.060001 202.306612 
L 447.505223 215.855262 
L 448.950444 207.598539 
L 450.395666 201.716806 
L 451.840887 216.247314 
L 453.286109 205.497687 
L 454.73133 204.448295 
L 456.176552 214.445455 
L 457.621773 208.20924 
L 459.066994 205.853693 
L 460.512216 197.173683 
L 461.957437 205.960153 
L 463.402659 193.174325 
L 464.84788 201.904091 
L 466.293102 202.014205 
L 467.738323 213.75 
L 469.183545 206.723864 
L 470.628766 203.361648 
L 472.073987 221.058068 
L 473.519209 215.616136 
L 474.96443 210.040909 
L 476.409652 203.361648 
L 477.854873 213.716883 
L 479.300095 208.976653 
L 480.745316 215.140909 
L 482.190538 209.70767 
L 483.635759 201.071329 
L 485.08098 199.275852 
L 486.526202 205.326764 
L 487.971423 221.481818 
L 489.416645 208.490625 
L 490.861866 216.589773 
L 492.307088 209.668551 
L 493.752309 232.427922 
L 495.197531 223.758026 
L 496.642752 210.620455 
L 498.087973 217.263494 
L 499.533195 206.545526 
L 500.978416 219.32233 
L 502.423638 226.757173 
L 503.868859 212.248977 
L 505.314081 229.281818 
L 506.759302 218.574716 
L 508.204524 222.869938 
L 509.649745 218.458044 
L 511.094966 211.825081 
L 512.540188 222.769176 
L 513.985409 221.4 
L 515.430631 210.185795 
L 516.875852 223.240057 
L 518.321074 213.206676 
L 519.766295 212.305594 
L 521.211517 219.890548 
L 522.656738 221.334801 
L 524.101959 214.959801 
L 525.547181 224.181818 
L 526.992402 214.030114 
L 528.437624 209.590647 
L 529.882845 214.805601 
L 531.328067 218.42569 
L 532.773288 225.00767 
L 534.21851 210.552841 
L 535.663731 214.967045 
L 537.108953 218.7225 
L 538.554174 231.103764 
L 539.999395 222.387862 
L 541.444617 211.553523 
L 542.889838 218.287841 
L 544.33506 212.983913 
L 545.780281 218.270455 
L 547.225503 226.069481 
L 548.670724 221.50142 
L 550.115946 224.659943 
L 551.561167 223.517975 
L 553.006388 232.575568 
L 554.45161 233.203409 
L 555.896831 222.182386 
L 557.342053 224.170952 
L 558.787274 229.524174 
L 560.232496 226.007386 
L 561.677717 228.711932 
L 563.122939 234.352841 
L 564.56816 229.808678 
L 566.013381 238.554545 
L 567.458603 236.7 
L 568.903824 240.177273 
L 570.349046 233.338636 
L 573.239489 240.872727 
L 573.239489 237.395455 
L 573.239489 237.395455 
L 570.349046 230.716193 
L 568.903824 234.248523 
L 567.458603 228.354545 
L 566.013381 228.977557 
L 564.56816 221.423709 
L 563.122939 223.008239 
L 561.677717 216.715341 
L 560.232496 215.55625 
L 558.787274 215.71782 
L 557.342053 209.099148 
L 555.896831 212.494922 
L 554.45161 219.217045 
L 553.006388 212.2625 
L 551.561167 207.980888 
L 550.115946 206.223153 
L 548.670724 199.377273 
L 547.225503 194.674675 
L 545.780281 202.760369 
L 544.33506 196.640732 
L 542.889838 194.442443 
L 541.444617 193.35 
L 539.999395 200.409917 
L 538.554174 202.992188 
L 537.108953 174.804545 
L 535.663731 183.798037 
L 534.21851 181.169886 
L 532.773288 189.141051 
L 531.328067 189.135877 
L 529.882845 176.791558 
L 528.437624 190.305157 
L 526.992402 193.639773 
L 525.547181 170.927386 
L 524.101959 173.891761 
L 522.656738 199.529403 
L 521.211517 185.354907 
L 519.766295 183.043007 
L 518.321074 181.092614 
L 516.875852 179.440909 
L 515.430631 181.165057 
L 513.985409 192.886364 
L 512.540188 196.204261 
L 511.094966 180.442695 
L 509.649745 200.68735 
L 508.204524 182.675826 
L 506.759302 182.918182 
L 505.314081 213.054545 
L 503.868859 178.965682 
L 502.423638 205.871804 
L 500.978416 196.007216 
L 499.533195 175.86946 
L 498.087973 195.624716 
L 496.642752 162.764489 
L 495.197531 172.935511 
L 493.752309 180.504789 
L 492.307088 174.526364 
L 490.861866 180.124773 
L 489.416645 155.039976 
L 487.971423 199.835795 
L 486.526202 175.220903 
L 485.08098 157.389205 
L 483.635759 163.135621 
L 482.190538 165.943709 
L 480.745316 176.149091 
L 479.300095 140.482283 
L 477.854873 186.954302 
L 476.409652 167.054574 
L 474.96443 174.785227 
L 473.519209 179.539432 
L 472.073987 192.753068 
L 470.628766 172.576918 
L 469.183545 160.972159 
L 467.738323 162.471818 
L 466.293102 157.031335 
L 464.84788 143.341023 
L 463.402659 138.227983 
L 461.957437 171.096714 
L 460.512216 159.706069 
L 459.066994 164.517614 
L 457.621773 149.992374 
L 456.176552 192.301023 
L 454.73133 161.648864 
L 453.286109 175.419278 
L 451.840887 181.577324 
L 450.395666 166.32183 
L 448.950444 179.399513 
L 447.505223 183.066848 
L 446.060001 165.755733 
L 444.61478 159.900085 
L 443.169559 164.65998 
L 441.724337 173.423295 
L 440.279116 148.460065 
L 438.833894 177.97321 
L 437.388673 118.944643 
L 435.943451 190.900306 
L 434.49823 158.008076 
L 433.053008 183.60472 
L 431.607787 145.4278 
L 430.162566 170.730341 
L 428.717344 178.638696 
L 427.272123 191.703125 
L 425.826901 169.301093 
L 424.38168 157.794886 
L 422.936458 187.635682 
L 421.491237 152.804108 
L 420.046015 175.373554 
L 418.600794 178.016676 
L 417.155573 172.319744 
L 415.710351 160.895455 
L 414.26513 176.951761 
L 412.819908 155.978374 
L 411.374687 161.263243 
L 409.929465 163.81388 
L 408.484244 152.94554 
L 407.039022 184.573509 
L 405.593801 156.114205 
L 404.14858 125.056364 
L 402.703358 180.013767 
L 401.258137 165.007998 
L 399.812915 184.70608 
L 398.367694 162.954652 
L 396.922472 177.400081 
L 395.477251 137.408058 
L 394.032029 155.853409 
L 392.586808 183.631469 
L 391.141587 160.164205 
L 389.696365 164.498295 
L 388.251144 150.242963 
L 386.805922 176.244354 
L 385.360701 154.830288 
L 383.915479 189.061364 
L 382.470258 188.573208 
L 381.025036 178.992614 
L 379.579815 163.659886 
L 378.134594 171.066477 
L 376.689372 117.188811 
L 375.244151 201.396989 
L 373.798929 169.97983 
L 372.353708 102.292543 
L 370.908486 151.342105 
L 369.463265 165.369886 
L 368.018043 159.127841 
L 366.572822 166.431925 
L 365.127601 193.2578 
L 363.682379 164.172784 
L 362.237158 168.942081 
L 360.791936 163.463287 
L 359.346715 174.800199 
L 357.901493 141.270597 
L 356.456272 153.564205 
L 355.01105 180.639844 
L 353.565829 165.391761 
L 352.120608 122.433558 
L 350.675386 177.550142 
L 349.230165 143.170057 
L 347.784943 157.945206 
L 346.339722 99.534965 
L 344.8945 174.039545 
L 343.449279 175.829099 
L 342.004057 189.660736 
L 340.558836 169.410197 
L 339.113615 177.379901 
L 337.668393 183.956095 
L 336.223172 153.944861 
L 334.77795 204.133168 
L 333.332729 181.759091 
L 331.887507 145.693977 
L 330.442286 170.697017 
L 328.997064 144.861967 
L 327.551843 164.543486 
L 326.106622 150.311506 
L 324.6614 175.18125 
L 323.216179 176.292045 
L 321.770957 179.846591 
L 320.325736 168.518288 
L 318.880514 195.957955 
L 317.435293 175.164692 
L 315.990071 189.409091 
L 314.54485 169.854261 
L 313.099628 192.679383 
L 311.654407 188.399716 
L 310.209186 131.961648 
L 308.763964 173.671534 
L 307.318743 171.039025 
L 305.873521 193.514948 
L 304.4283 129.901705 
L 302.983078 141.090806 
L 301.537857 181.910277 
L 300.092635 149.527841 
L 298.647414 159.908157 
L 297.202193 146.155295 
L 295.756971 193.183938 
L 294.31175 160.819389 
L 292.866528 173.1375 
L 291.421307 177.398011 
L 289.976085 154.976532 
L 288.530864 123.833523 
L 287.085642 177.165431 
L 285.640421 176.964801 
L 284.1952 190.446477 
L 282.749978 139.891606 
L 281.304757 166.963295 
L 279.859535 161.669938 
L 278.414314 193.925923 
L 276.969092 166.323024 
L 275.523871 170.881747 
L 274.078649 178.612159 
L 272.633428 147.171094 
L 271.188207 156.017614 
L 269.742985 163.650524 
L 268.297764 154.077994 
L 266.852542 161.480269 
L 265.407321 171.380398 
L 263.962099 174.079208 
L 262.516878 122.606818 
L 261.071656 143.133321 
L 259.626435 158.461364 
L 258.181214 171.561611 
L 256.735992 188.197159 
L 255.290771 144.144071 
L 253.845549 169.009091 
L 252.400328 105.196307 
L 250.955106 157.516453 
L 249.509885 142.045739 
L 248.064663 168.868841 
L 246.619442 149.265489 
L 245.174221 166.848674 
L 243.728999 124.987784 
L 242.283778 81.248523 
L 240.838556 169.036808 
L 239.393335 185.129675 
L 237.948113 177.977557 
L 236.502892 156.213127 
L 235.05767 129.108835 
L 233.612449 154.257589 
L 232.167228 133.407614 
L 230.722006 189.644531 
L 229.276785 178.87223 
L 227.831563 130.919318 
L 226.386342 158.669244 
L 224.94112 165.292374 
L 223.495899 170.237003 
L 222.050677 44.65424 
L 220.605456 123.8625 
L 219.160235 166.269421 
L 217.715013 121.142045 
L 216.269792 169.1311 
L 214.82457 46.904659 
L 213.379349 165.345277 
L 211.934127 185.663778 
L 210.488906 124.340625 
L 209.043684 168.59513 
L 207.598463 186.044318 
L 206.153242 181.424738 
L 204.70802 177.202415 
L 203.262799 199.667045 
L 201.817577 180.998437 
L 200.372356 129.117924 
L 198.927134 203.300795 
L 197.481913 141.564979 
L 196.036691 166.104677 
L 194.59147 50.339915 
L 193.146249 160.267614 
L 191.701027 177.470455 
L 190.255806 183.676705 
L 188.810584 192.190909 
L 187.365363 139.797102 
L 185.920141 134.920227 
L 184.47492 173.471591 
L 183.029698 130.643182 
L 181.584477 172.318295 
L 180.139256 201.865179 
L 178.694034 218.948523 
L 177.248813 202.622727 
L 175.803591 169.36044 
L 174.35837 137.945455 
L 172.913148 186.888068 
L 171.467927 178.281818 
L 170.022705 165.778125 
L 168.577484 213.054545 
L 167.132263 195.668182 
L 165.687041 140.357813 
L 164.24182 137.846104 
L 162.796598 140.031818 
L 161.351377 160.895455 
L 159.906155 187.257528 
z
" style="fill:#1f77b4;fill-opacity:0.2;stroke:#1f77b4;stroke-opacity:0.2;"/>
   </g>
   <g id="matplotlib.axis_1">
    <g id="xtick_1">
     <g id="line2d_1">
      <defs>
       <path d="M 0 0 
L 0 3.5 
" id="m6a5cd82816" style="stroke:#000000;stroke-width:0.8;"/>
      </defs>
      <g>
       <use style="stroke:#000000;stroke-width:0.8;" x="41.397997" xlink:href="#m6a5cd82816" y="252"/>
      </g>
     </g>
     <g id="text_1">
      <!-- Mar 2020 -->
      <g transform="translate(44.157372 306.495312)rotate(-90)scale(0.1 -0.1)">
       <defs>
        <path d="M 9.8125 72.90625 
L 24.515625 72.90625 
L 43.109375 23.296875 
L 61.8125 72.90625 
L 76.515625 72.90625 
L 76.515625 0 
L 66.890625 0 
L 66.890625 64.015625 
L 48.09375 14.015625 
L 38.1875 14.015625 
L 19.390625 64.015625 
L 19.390625 0 
L 9.8125 0 
z
" id="DejaVuSans-77"/>
        <path d="M 34.28125 27.484375 
Q 23.390625 27.484375 19.1875 25 
Q 14.984375 22.515625 14.984375 16.5 
Q 14.984375 11.71875 18.140625 8.90625 
Q 21.296875 6.109375 26.703125 6.109375 
Q 34.1875 6.109375 38.703125 11.40625 
Q 43.21875 16.703125 43.21875 25.484375 
L 43.21875 27.484375 
z
M 52.203125 31.203125 
L 52.203125 0 
L 43.21875 0 
L 43.21875 8.296875 
Q 40.140625 3.328125 35.546875 0.953125 
Q 30.953125 -1.421875 24.3125 -1.421875 
Q 15.921875 -1.421875 10.953125 3.296875 
Q 6 8.015625 6 15.921875 
Q 6 25.140625 12.171875 29.828125 
Q 18.359375 34.515625 30.609375 34.515625 
L 43.21875 34.515625 
L 43.21875 35.40625 
Q 43.21875 41.609375 39.140625 45 
Q 35.0625 48.390625 27.6875 48.390625 
Q 23 48.390625 18.546875 47.265625 
Q 14.109375 46.140625 10.015625 43.890625 
L 10.015625 52.203125 
Q 14.9375 54.109375 19.578125 55.046875 
Q 24.21875 56 28.609375 56 
Q 40.484375 56 46.34375 49.84375 
Q 52.203125 43.703125 52.203125 31.203125 
z
" id="DejaVuSans-97"/>
        <path d="M 41.109375 46.296875 
Q 39.59375 47.171875 37.8125 47.578125 
Q 36.03125 48 33.890625 48 
Q 26.265625 48 22.1875 43.046875 
Q 18.109375 38.09375 18.109375 28.8125 
L 18.109375 0 
L 9.078125 0 
L 9.078125 54.6875 
L 18.109375 54.6875 
L 18.109375 46.1875 
Q 20.953125 51.171875 25.484375 53.578125 
Q 30.03125 56 36.53125 56 
Q 37.453125 56 38.578125 55.875 
Q 39.703125 55.765625 41.0625 55.515625 
z
" id="DejaVuSans-114"/>
        <path id="DejaVuSans-32"/>
        <path d="M 19.1875 8.296875 
L 53.609375 8.296875 
L 53.609375 0 
L 7.328125 0 
L 7.328125 8.296875 
Q 12.9375 14.109375 22.625 23.890625 
Q 32.328125 33.6875 34.8125 36.53125 
Q 39.546875 41.84375 41.421875 45.53125 
Q 43.3125 49.21875 43.3125 52.78125 
Q 43.3125 58.59375 39.234375 62.25 
Q 35.15625 65.921875 28.609375 65.921875 
Q 23.96875 65.921875 18.8125 64.3125 
Q 13.671875 62.703125 7.8125 59.421875 
L 7.8125 69.390625 
Q 13.765625 71.78125 18.9375 73 
Q 24.125 74.21875 28.421875 74.21875 
Q 39.75 74.21875 46.484375 68.546875 
Q 53.21875 62.890625 53.21875 53.421875 
Q 53.21875 48.921875 51.53125 44.890625 
Q 49.859375 40.875 45.40625 35.40625 
Q 44.1875 33.984375 37.640625 27.21875 
Q 31.109375 20.453125 19.1875 8.296875 
z
" id="DejaVuSans-50"/>
        <path d="M 31.78125 66.40625 
Q 24.171875 66.40625 20.328125 58.90625 
Q 16.5 51.421875 16.5 36.375 
Q 16.5 21.390625 20.328125 13.890625 
Q 24.171875 6.390625 31.78125 6.390625 
Q 39.453125 6.390625 43.28125 13.890625 
Q 47.125 21.390625 47.125 36.375 
Q 47.125 51.421875 43.28125 58.90625 
Q 39.453125 66.40625 31.78125 66.40625 
z
M 31.78125 74.21875 
Q 44.046875 74.21875 50.515625 64.515625 
Q 56.984375 54.828125 56.984375 36.375 
Q 56.984375 17.96875 50.515625 8.265625 
Q 44.046875 -1.421875 31.78125 -1.421875 
Q 19.53125 -1.421875 13.0625 8.265625 
Q 6.59375 17.96875 6.59375 36.375 
Q 6.59375 54.828125 13.0625 64.515625 
Q 19.53125 74.21875 31.78125 74.21875 
z
" id="DejaVuSans-48"/>
       </defs>
       <use xlink:href="#DejaVuSans-77"/>
       <use x="86.279297" xlink:href="#DejaVuSans-97"/>
       <use x="147.558594" xlink:href="#DejaVuSans-114"/>
       <use x="188.671875" xlink:href="#DejaVuSans-32"/>
       <use x="220.458984" xlink:href="#DejaVuSans-50"/>
       <use x="284.082031" xlink:href="#DejaVuSans-48"/>
       <use x="347.705078" xlink:href="#DejaVuSans-50"/>
       <use x="411.328125" xlink:href="#DejaVuSans-48"/>
      </g>
     </g>
    </g>
    <g id="xtick_2">
     <g id="line2d_2">
      <g>
       <use style="stroke:#000000;stroke-width:0.8;" x="86.199862" xlink:href="#m6a5cd82816" y="252"/>
      </g>
     </g>
     <g id="text_2">
      <!-- Apr 2020 -->
      <g transform="translate(88.959237 304.928125)rotate(-90)scale(0.1 -0.1)">
       <defs>
        <path d="M 34.1875 63.1875 
L 20.796875 26.90625 
L 47.609375 26.90625 
z
M 28.609375 72.90625 
L 39.796875 72.90625 
L 67.578125 0 
L 57.328125 0 
L 50.6875 18.703125 
L 17.828125 18.703125 
L 11.1875 0 
L 0.78125 0 
z
" id="DejaVuSans-65"/>
        <path d="M 18.109375 8.203125 
L 18.109375 -20.796875 
L 9.078125 -20.796875 
L 9.078125 54.6875 
L 18.109375 54.6875 
L 18.109375 46.390625 
Q 20.953125 51.265625 25.265625 53.625 
Q 29.59375 56 35.59375 56 
Q 45.5625 56 51.78125 48.09375 
Q 58.015625 40.1875 58.015625 27.296875 
Q 58.015625 14.40625 51.78125 6.484375 
Q 45.5625 -1.421875 35.59375 -1.421875 
Q 29.59375 -1.421875 25.265625 0.953125 
Q 20.953125 3.328125 18.109375 8.203125 
z
M 48.6875 27.296875 
Q 48.6875 37.203125 44.609375 42.84375 
Q 40.53125 48.484375 33.40625 48.484375 
Q 26.265625 48.484375 22.1875 42.84375 
Q 18.109375 37.203125 18.109375 27.296875 
Q 18.109375 17.390625 22.1875 11.75 
Q 26.265625 6.109375 33.40625 6.109375 
Q 40.53125 6.109375 44.609375 11.75 
Q 48.6875 17.390625 48.6875 27.296875 
z
" id="DejaVuSans-112"/>
       </defs>
       <use xlink:href="#DejaVuSans-65"/>
       <use x="68.408203" xlink:href="#DejaVuSans-112"/>
       <use x="131.884766" xlink:href="#DejaVuSans-114"/>
       <use x="172.998047" xlink:href="#DejaVuSans-32"/>
       <use x="204.785156" xlink:href="#DejaVuSans-50"/>
       <use x="268.408203" xlink:href="#DejaVuSans-48"/>
       <use x="332.03125" xlink:href="#DejaVuSans-50"/>
       <use x="395.654297" xlink:href="#DejaVuSans-48"/>
      </g>
     </g>
    </g>
    <g id="xtick_3">
     <g id="line2d_3">
      <g>
       <use style="stroke:#000000;stroke-width:0.8;" x="129.556505" xlink:href="#m6a5cd82816" y="252"/>
      </g>
     </g>
     <g id="text_3">
      <!-- May 2020 -->
      <g transform="translate(132.31588 308.303125)rotate(-90)scale(0.1 -0.1)">
       <defs>
        <path d="M 32.171875 -5.078125 
Q 28.375 -14.84375 24.75 -17.8125 
Q 21.140625 -20.796875 15.09375 -20.796875 
L 7.90625 -20.796875 
L 7.90625 -13.28125 
L 13.1875 -13.28125 
Q 16.890625 -13.28125 18.9375 -11.515625 
Q 21 -9.765625 23.484375 -3.21875 
L 25.09375 0.875 
L 2.984375 54.6875 
L 12.5 54.6875 
L 29.59375 11.921875 
L 46.6875 54.6875 
L 56.203125 54.6875 
z
" id="DejaVuSans-121"/>
       </defs>
       <use xlink:href="#DejaVuSans-77"/>
       <use x="86.279297" xlink:href="#DejaVuSans-97"/>
       <use x="147.558594" xlink:href="#DejaVuSans-121"/>
       <use x="206.738281" xlink:href="#DejaVuSans-32"/>
       <use x="238.525391" xlink:href="#DejaVuSans-50"/>
       <use x="302.148438" xlink:href="#DejaVuSans-48"/>
       <use x="365.771484" xlink:href="#DejaVuSans-50"/>
       <use x="429.394531" xlink:href="#DejaVuSans-48"/>
      </g>
     </g>
    </g>
    <g id="xtick_4">
     <g id="line2d_4">
      <g>
       <use style="stroke:#000000;stroke-width:0.8;" x="174.35837" xlink:href="#m6a5cd82816" y="252"/>
      </g>
     </g>
     <g id="text_4">
      <!-- Jun 2020 -->
      <g transform="translate(177.117745 303.253125)rotate(-90)scale(0.1 -0.1)">
       <defs>
        <path d="M 9.8125 72.90625 
L 19.671875 72.90625 
L 19.671875 5.078125 
Q 19.671875 -8.109375 14.671875 -14.0625 
Q 9.671875 -20.015625 -1.421875 -20.015625 
L -5.171875 -20.015625 
L -5.171875 -11.71875 
L -2.09375 -11.71875 
Q 4.4375 -11.71875 7.125 -8.046875 
Q 9.8125 -4.390625 9.8125 5.078125 
z
" id="DejaVuSans-74"/>
        <path d="M 8.5 21.578125 
L 8.5 54.6875 
L 17.484375 54.6875 
L 17.484375 21.921875 
Q 17.484375 14.15625 20.5 10.265625 
Q 23.53125 6.390625 29.59375 6.390625 
Q 36.859375 6.390625 41.078125 11.03125 
Q 45.3125 15.671875 45.3125 23.6875 
L 45.3125 54.6875 
L 54.296875 54.6875 
L 54.296875 0 
L 45.3125 0 
L 45.3125 8.40625 
Q 42.046875 3.421875 37.71875 1 
Q 33.40625 -1.421875 27.6875 -1.421875 
Q 18.265625 -1.421875 13.375 4.4375 
Q 8.5 10.296875 8.5 21.578125 
z
M 31.109375 56 
z
" id="DejaVuSans-117"/>
        <path d="M 54.890625 33.015625 
L 54.890625 0 
L 45.90625 0 
L 45.90625 32.71875 
Q 45.90625 40.484375 42.875 44.328125 
Q 39.84375 48.1875 33.796875 48.1875 
Q 26.515625 48.1875 22.3125 43.546875 
Q 18.109375 38.921875 18.109375 30.90625 
L 18.109375 0 
L 9.078125 0 
L 9.078125 54.6875 
L 18.109375 54.6875 
L 18.109375 46.1875 
Q 21.34375 51.125 25.703125 53.5625 
Q 30.078125 56 35.796875 56 
Q 45.21875 56 50.046875 50.171875 
Q 54.890625 44.34375 54.890625 33.015625 
z
" id="DejaVuSans-110"/>
       </defs>
       <use xlink:href="#DejaVuSans-74"/>
       <use x="29.492188" xlink:href="#DejaVuSans-117"/>
       <use x="92.871094" xlink:href="#DejaVuSans-110"/>
       <use x="156.25" xlink:href="#DejaVuSans-32"/>
       <use x="188.037109" xlink:href="#DejaVuSans-50"/>
       <use x="251.660156" xlink:href="#DejaVuSans-48"/>
       <use x="315.283203" xlink:href="#DejaVuSans-50"/>
       <use x="378.90625" xlink:href="#DejaVuSans-48"/>
      </g>
     </g>
    </g>
    <g id="xtick_5">
     <g id="line2d_5">
      <g>
       <use style="stroke:#000000;stroke-width:0.8;" x="217.715013" xlink:href="#m6a5cd82816" y="252"/>
      </g>
     </g>
     <g id="text_5">
      <!-- Jul 2020 -->
      <g transform="translate(220.474388 299.69375)rotate(-90)scale(0.1 -0.1)">
       <defs>
        <path d="M 9.421875 75.984375 
L 18.40625 75.984375 
L 18.40625 0 
L 9.421875 0 
z
" id="DejaVuSans-108"/>
       </defs>
       <use xlink:href="#DejaVuSans-74"/>
       <use x="29.492188" xlink:href="#DejaVuSans-117"/>
       <use x="92.871094" xlink:href="#DejaVuSans-108"/>
       <use x="120.654297" xlink:href="#DejaVuSans-32"/>
       <use x="152.441406" xlink:href="#DejaVuSans-50"/>
       <use x="216.064453" xlink:href="#DejaVuSans-48"/>
       <use x="279.6875" xlink:href="#DejaVuSans-50"/>
       <use x="343.310547" xlink:href="#DejaVuSans-48"/>
      </g>
     </g>
    </g>
    <g id="xtick_6">
     <g id="line2d_6">
      <g>
       <use style="stroke:#000000;stroke-width:0.8;" x="262.516878" xlink:href="#m6a5cd82816" y="252"/>
      </g>
     </g>
     <g id="text_6">
      <!-- Aug 2020 -->
      <g transform="translate(265.276253 307.154687)rotate(-90)scale(0.1 -0.1)">
       <defs>
        <path d="M 45.40625 27.984375 
Q 45.40625 37.75 41.375 43.109375 
Q 37.359375 48.484375 30.078125 48.484375 
Q 22.859375 48.484375 18.828125 43.109375 
Q 14.796875 37.75 14.796875 27.984375 
Q 14.796875 18.265625 18.828125 12.890625 
Q 22.859375 7.515625 30.078125 7.515625 
Q 37.359375 7.515625 41.375 12.890625 
Q 45.40625 18.265625 45.40625 27.984375 
z
M 54.390625 6.78125 
Q 54.390625 -7.171875 48.1875 -13.984375 
Q 42 -20.796875 29.203125 -20.796875 
Q 24.46875 -20.796875 20.265625 -20.09375 
Q 16.0625 -19.390625 12.109375 -17.921875 
L 12.109375 -9.1875 
Q 16.0625 -11.328125 19.921875 -12.34375 
Q 23.78125 -13.375 27.78125 -13.375 
Q 36.625 -13.375 41.015625 -8.765625 
Q 45.40625 -4.15625 45.40625 5.171875 
L 45.40625 9.625 
Q 42.625 4.78125 38.28125 2.390625 
Q 33.9375 0 27.875 0 
Q 17.828125 0 11.671875 7.65625 
Q 5.515625 15.328125 5.515625 27.984375 
Q 5.515625 40.671875 11.671875 48.328125 
Q 17.828125 56 27.875 56 
Q 33.9375 56 38.28125 53.609375 
Q 42.625 51.21875 45.40625 46.390625 
L 45.40625 54.6875 
L 54.390625 54.6875 
z
" id="DejaVuSans-103"/>
       </defs>
       <use xlink:href="#DejaVuSans-65"/>
       <use x="68.408203" xlink:href="#DejaVuSans-117"/>
       <use x="131.787109" xlink:href="#DejaVuSans-103"/>
       <use x="195.263672" xlink:href="#DejaVuSans-32"/>
       <use x="227.050781" xlink:href="#DejaVuSans-50"/>
       <use x="290.673828" xlink:href="#DejaVuSans-48"/>
       <use x="354.296875" xlink:href="#DejaVuSans-50"/>
       <use x="417.919922" xlink:href="#DejaVuSans-48"/>
      </g>
     </g>
    </g>
    <g id="xtick_7">
     <g id="line2d_7">
      <g>
       <use style="stroke:#000000;stroke-width:0.8;" x="307.318743" xlink:href="#m6a5cd82816" y="252"/>
      </g>
     </g>
     <g id="text_7">
      <!-- Sep 2020 -->
      <g transform="translate(310.078118 306.478125)rotate(-90)scale(0.1 -0.1)">
       <defs>
        <path d="M 53.515625 70.515625 
L 53.515625 60.890625 
Q 47.90625 63.578125 42.921875 64.890625 
Q 37.9375 66.21875 33.296875 66.21875 
Q 25.25 66.21875 20.875 63.09375 
Q 16.5 59.96875 16.5 54.203125 
Q 16.5 49.359375 19.40625 46.890625 
Q 22.3125 44.4375 30.421875 42.921875 
L 36.375 41.703125 
Q 47.40625 39.59375 52.65625 34.296875 
Q 57.90625 29 57.90625 20.125 
Q 57.90625 9.515625 50.796875 4.046875 
Q 43.703125 -1.421875 29.984375 -1.421875 
Q 24.8125 -1.421875 18.96875 -0.25 
Q 13.140625 0.921875 6.890625 3.21875 
L 6.890625 13.375 
Q 12.890625 10.015625 18.65625 8.296875 
Q 24.421875 6.59375 29.984375 6.59375 
Q 38.421875 6.59375 43.015625 9.90625 
Q 47.609375 13.234375 47.609375 19.390625 
Q 47.609375 24.75 44.3125 27.78125 
Q 41.015625 30.8125 33.5 32.328125 
L 27.484375 33.5 
Q 16.453125 35.6875 11.515625 40.375 
Q 6.59375 45.0625 6.59375 53.421875 
Q 6.59375 63.09375 13.40625 68.65625 
Q 20.21875 74.21875 32.171875 74.21875 
Q 37.3125 74.21875 42.625 73.28125 
Q 47.953125 72.359375 53.515625 70.515625 
z
" id="DejaVuSans-83"/>
        <path d="M 56.203125 29.59375 
L 56.203125 25.203125 
L 14.890625 25.203125 
Q 15.484375 15.921875 20.484375 11.0625 
Q 25.484375 6.203125 34.421875 6.203125 
Q 39.59375 6.203125 44.453125 7.46875 
Q 49.3125 8.734375 54.109375 11.28125 
L 54.109375 2.78125 
Q 49.265625 0.734375 44.1875 -0.34375 
Q 39.109375 -1.421875 33.890625 -1.421875 
Q 20.796875 -1.421875 13.15625 6.1875 
Q 5.515625 13.8125 5.515625 26.8125 
Q 5.515625 40.234375 12.765625 48.109375 
Q 20.015625 56 32.328125 56 
Q 43.359375 56 49.78125 48.890625 
Q 56.203125 41.796875 56.203125 29.59375 
z
M 47.21875 32.234375 
Q 47.125 39.59375 43.09375 43.984375 
Q 39.0625 48.390625 32.421875 48.390625 
Q 24.90625 48.390625 20.390625 44.140625 
Q 15.875 39.890625 15.1875 32.171875 
z
" id="DejaVuSans-101"/>
       </defs>
       <use xlink:href="#DejaVuSans-83"/>
       <use x="63.476562" xlink:href="#DejaVuSans-101"/>
       <use x="125" xlink:href="#DejaVuSans-112"/>
       <use x="188.476562" xlink:href="#DejaVuSans-32"/>
       <use x="220.263672" xlink:href="#DejaVuSans-50"/>
       <use x="283.886719" xlink:href="#DejaVuSans-48"/>
       <use x="347.509766" xlink:href="#DejaVuSans-50"/>
       <use x="411.132812" xlink:href="#DejaVuSans-48"/>
      </g>
     </g>
    </g>
    <g id="xtick_8">
     <g id="line2d_8">
      <g>
       <use style="stroke:#000000;stroke-width:0.8;" x="350.675386" xlink:href="#m6a5cd82816" y="252"/>
      </g>
     </g>
     <g id="text_8">
      <!-- Oct 2020 -->
      <g transform="translate(353.434761 304.91875)rotate(-90)scale(0.1 -0.1)">
       <defs>
        <path d="M 39.40625 66.21875 
Q 28.65625 66.21875 22.328125 58.203125 
Q 16.015625 50.203125 16.015625 36.375 
Q 16.015625 22.609375 22.328125 14.59375 
Q 28.65625 6.59375 39.40625 6.59375 
Q 50.140625 6.59375 56.421875 14.59375 
Q 62.703125 22.609375 62.703125 36.375 
Q 62.703125 50.203125 56.421875 58.203125 
Q 50.140625 66.21875 39.40625 66.21875 
z
M 39.40625 74.21875 
Q 54.734375 74.21875 63.90625 63.9375 
Q 73.09375 53.65625 73.09375 36.375 
Q 73.09375 19.140625 63.90625 8.859375 
Q 54.734375 -1.421875 39.40625 -1.421875 
Q 24.03125 -1.421875 14.8125 8.828125 
Q 5.609375 19.09375 5.609375 36.375 
Q 5.609375 53.65625 14.8125 63.9375 
Q 24.03125 74.21875 39.40625 74.21875 
z
" id="DejaVuSans-79"/>
        <path d="M 48.78125 52.59375 
L 48.78125 44.1875 
Q 44.96875 46.296875 41.140625 47.34375 
Q 37.3125 48.390625 33.40625 48.390625 
Q 24.65625 48.390625 19.8125 42.84375 
Q 14.984375 37.3125 14.984375 27.296875 
Q 14.984375 17.28125 19.8125 11.734375 
Q 24.65625 6.203125 33.40625 6.203125 
Q 37.3125 6.203125 41.140625 7.25 
Q 44.96875 8.296875 48.78125 10.40625 
L 48.78125 2.09375 
Q 45.015625 0.34375 40.984375 -0.53125 
Q 36.96875 -1.421875 32.421875 -1.421875 
Q 20.0625 -1.421875 12.78125 6.34375 
Q 5.515625 14.109375 5.515625 27.296875 
Q 5.515625 40.671875 12.859375 48.328125 
Q 20.21875 56 33.015625 56 
Q 37.15625 56 41.109375 55.140625 
Q 45.0625 54.296875 48.78125 52.59375 
z
" id="DejaVuSans-99"/>
        <path d="M 18.3125 70.21875 
L 18.3125 54.6875 
L 36.8125 54.6875 
L 36.8125 47.703125 
L 18.3125 47.703125 
L 18.3125 18.015625 
Q 18.3125 11.328125 20.140625 9.421875 
Q 21.96875 7.515625 27.59375 7.515625 
L 36.8125 7.515625 
L 36.8125 0 
L 27.59375 0 
Q 17.1875 0 13.234375 3.875 
Q 9.28125 7.765625 9.28125 18.015625 
L 9.28125 47.703125 
L 2.6875 47.703125 
L 2.6875 54.6875 
L 9.28125 54.6875 
L 9.28125 70.21875 
z
" id="DejaVuSans-116"/>
       </defs>
       <use xlink:href="#DejaVuSans-79"/>
       <use x="78.710938" xlink:href="#DejaVuSans-99"/>
       <use x="133.691406" xlink:href="#DejaVuSans-116"/>
       <use x="172.900391" xlink:href="#DejaVuSans-32"/>
       <use x="204.6875" xlink:href="#DejaVuSans-50"/>
       <use x="268.310547" xlink:href="#DejaVuSans-48"/>
       <use x="331.933594" xlink:href="#DejaVuSans-50"/>
       <use x="395.556641" xlink:href="#DejaVuSans-48"/>
      </g>
     </g>
    </g>
    <g id="xtick_9">
     <g id="line2d_9">
      <g>
       <use style="stroke:#000000;stroke-width:0.8;" x="395.477251" xlink:href="#m6a5cd82816" y="252"/>
      </g>
     </g>
     <g id="text_9">
      <!-- Nov 2020 -->
      <g transform="translate(398.236626 307.146875)rotate(-90)scale(0.1 -0.1)">
       <defs>
        <path d="M 9.8125 72.90625 
L 23.09375 72.90625 
L 55.421875 11.921875 
L 55.421875 72.90625 
L 64.984375 72.90625 
L 64.984375 0 
L 51.703125 0 
L 19.390625 60.984375 
L 19.390625 0 
L 9.8125 0 
z
" id="DejaVuSans-78"/>
        <path d="M 30.609375 48.390625 
Q 23.390625 48.390625 19.1875 42.75 
Q 14.984375 37.109375 14.984375 27.296875 
Q 14.984375 17.484375 19.15625 11.84375 
Q 23.34375 6.203125 30.609375 6.203125 
Q 37.796875 6.203125 41.984375 11.859375 
Q 46.1875 17.53125 46.1875 27.296875 
Q 46.1875 37.015625 41.984375 42.703125 
Q 37.796875 48.390625 30.609375 48.390625 
z
M 30.609375 56 
Q 42.328125 56 49.015625 48.375 
Q 55.71875 40.765625 55.71875 27.296875 
Q 55.71875 13.875 49.015625 6.21875 
Q 42.328125 -1.421875 30.609375 -1.421875 
Q 18.84375 -1.421875 12.171875 6.21875 
Q 5.515625 13.875 5.515625 27.296875 
Q 5.515625 40.765625 12.171875 48.375 
Q 18.84375 56 30.609375 56 
z
" id="DejaVuSans-111"/>
        <path d="M 2.984375 54.6875 
L 12.5 54.6875 
L 29.59375 8.796875 
L 46.6875 54.6875 
L 56.203125 54.6875 
L 35.6875 0 
L 23.484375 0 
z
" id="DejaVuSans-118"/>
       </defs>
       <use xlink:href="#DejaVuSans-78"/>
       <use x="74.804688" xlink:href="#DejaVuSans-111"/>
       <use x="135.986328" xlink:href="#DejaVuSans-118"/>
       <use x="195.166016" xlink:href="#DejaVuSans-32"/>
       <use x="226.953125" xlink:href="#DejaVuSans-50"/>
       <use x="290.576172" xlink:href="#DejaVuSans-48"/>
       <use x="354.199219" xlink:href="#DejaVuSans-50"/>
       <use x="417.822266" xlink:href="#DejaVuSans-48"/>
      </g>
     </g>
    </g>
    <g id="xtick_10">
     <g id="line2d_10">
      <g>
       <use style="stroke:#000000;stroke-width:0.8;" x="438.833894" xlink:href="#m6a5cd82816" y="252"/>
      </g>
     </g>
     <g id="text_10">
      <!-- Dec 2020 -->
      <g transform="translate(441.593269 306.979687)rotate(-90)scale(0.1 -0.1)">
       <defs>
        <path d="M 19.671875 64.796875 
L 19.671875 8.109375 
L 31.59375 8.109375 
Q 46.6875 8.109375 53.6875 14.9375 
Q 60.6875 21.78125 60.6875 36.53125 
Q 60.6875 51.171875 53.6875 57.984375 
Q 46.6875 64.796875 31.59375 64.796875 
z
M 9.8125 72.90625 
L 30.078125 72.90625 
Q 51.265625 72.90625 61.171875 64.09375 
Q 71.09375 55.28125 71.09375 36.53125 
Q 71.09375 17.671875 61.125 8.828125 
Q 51.171875 0 30.078125 0 
L 9.8125 0 
z
" id="DejaVuSans-68"/>
       </defs>
       <use xlink:href="#DejaVuSans-68"/>
       <use x="77.001953" xlink:href="#DejaVuSans-101"/>
       <use x="138.525391" xlink:href="#DejaVuSans-99"/>
       <use x="193.505859" xlink:href="#DejaVuSans-32"/>
       <use x="225.292969" xlink:href="#DejaVuSans-50"/>
       <use x="288.916016" xlink:href="#DejaVuSans-48"/>
       <use x="352.539062" xlink:href="#DejaVuSans-50"/>
       <use x="416.162109" xlink:href="#DejaVuSans-48"/>
      </g>
     </g>
    </g>
    <g id="xtick_11">
     <g id="line2d_11">
      <g>
       <use style="stroke:#000000;stroke-width:0.8;" x="483.635759" xlink:href="#m6a5cd82816" y="252"/>
      </g>
     </g>
     <g id="text_11">
      <!-- Jan 2021 -->
      <g transform="translate(486.395134 303.04375)rotate(-90)scale(0.1 -0.1)">
       <defs>
        <path d="M 12.40625 8.296875 
L 28.515625 8.296875 
L 28.515625 63.921875 
L 10.984375 60.40625 
L 10.984375 69.390625 
L 28.421875 72.90625 
L 38.28125 72.90625 
L 38.28125 8.296875 
L 54.390625 8.296875 
L 54.390625 0 
L 12.40625 0 
z
" id="DejaVuSans-49"/>
       </defs>
       <use xlink:href="#DejaVuSans-74"/>
       <use x="29.492188" xlink:href="#DejaVuSans-97"/>
       <use x="90.771484" xlink:href="#DejaVuSans-110"/>
       <use x="154.150391" xlink:href="#DejaVuSans-32"/>
       <use x="185.9375" xlink:href="#DejaVuSans-50"/>
       <use x="249.560547" xlink:href="#DejaVuSans-48"/>
       <use x="313.183594" xlink:href="#DejaVuSans-50"/>
       <use x="376.806641" xlink:href="#DejaVuSans-49"/>
      </g>
     </g>
    </g>
    <g id="xtick_12">
     <g id="line2d_12">
      <g>
       <use style="stroke:#000000;stroke-width:0.8;" x="528.437624" xlink:href="#m6a5cd82816" y="252"/>
      </g>
     </g>
     <g id="text_12">
      <!-- Feb 2021 -->
      <g transform="translate(531.196999 305.33125)rotate(-90)scale(0.1 -0.1)">
       <defs>
        <path d="M 9.8125 72.90625 
L 51.703125 72.90625 
L 51.703125 64.59375 
L 19.671875 64.59375 
L 19.671875 43.109375 
L 48.578125 43.109375 
L 48.578125 34.8125 
L 19.671875 34.8125 
L 19.671875 0 
L 9.8125 0 
z
" id="DejaVuSans-70"/>
        <path d="M 48.6875 27.296875 
Q 48.6875 37.203125 44.609375 42.84375 
Q 40.53125 48.484375 33.40625 48.484375 
Q 26.265625 48.484375 22.1875 42.84375 
Q 18.109375 37.203125 18.109375 27.296875 
Q 18.109375 17.390625 22.1875 11.75 
Q 26.265625 6.109375 33.40625 6.109375 
Q 40.53125 6.109375 44.609375 11.75 
Q 48.6875 17.390625 48.6875 27.296875 
z
M 18.109375 46.390625 
Q 20.953125 51.265625 25.265625 53.625 
Q 29.59375 56 35.59375 56 
Q 45.5625 56 51.78125 48.09375 
Q 58.015625 40.1875 58.015625 27.296875 
Q 58.015625 14.40625 51.78125 6.484375 
Q 45.5625 -1.421875 35.59375 -1.421875 
Q 29.59375 -1.421875 25.265625 0.953125 
Q 20.953125 3.328125 18.109375 8.203125 
L 18.109375 0 
L 9.078125 0 
L 9.078125 75.984375 
L 18.109375 75.984375 
z
" id="DejaVuSans-98"/>
       </defs>
       <use xlink:href="#DejaVuSans-70"/>
       <use x="52.019531" xlink:href="#DejaVuSans-101"/>
       <use x="113.542969" xlink:href="#DejaVuSans-98"/>
       <use x="177.019531" xlink:href="#DejaVuSans-32"/>
       <use x="208.806641" xlink:href="#DejaVuSans-50"/>
       <use x="272.429688" xlink:href="#DejaVuSans-48"/>
       <use x="336.052734" xlink:href="#DejaVuSans-50"/>
       <use x="399.675781" xlink:href="#DejaVuSans-49"/>
      </g>
     </g>
    </g>
    <g id="xtick_13">
     <g id="line2d_13">
      <g>
       <use style="stroke:#000000;stroke-width:0.8;" x="568.903824" xlink:href="#m6a5cd82816" y="252"/>
      </g>
     </g>
     <g id="text_13">
      <!-- Mar 2021 -->
      <g transform="translate(571.663199 306.495312)rotate(-90)scale(0.1 -0.1)">
       <use xlink:href="#DejaVuSans-77"/>
       <use x="86.279297" xlink:href="#DejaVuSans-97"/>
       <use x="147.558594" xlink:href="#DejaVuSans-114"/>
       <use x="188.671875" xlink:href="#DejaVuSans-32"/>
       <use x="220.458984" xlink:href="#DejaVuSans-50"/>
       <use x="284.082031" xlink:href="#DejaVuSans-48"/>
       <use x="347.705078" xlink:href="#DejaVuSans-50"/>
       <use x="411.328125" xlink:href="#DejaVuSans-49"/>
      </g>
     </g>
    </g>
    <g id="text_14">
     <!-- Start date -->
     <g transform="translate(294.525 319.901562)scale(0.1 -0.1)">
      <defs>
       <path d="M 45.40625 46.390625 
L 45.40625 75.984375 
L 54.390625 75.984375 
L 54.390625 0 
L 45.40625 0 
L 45.40625 8.203125 
Q 42.578125 3.328125 38.25 0.953125 
Q 33.9375 -1.421875 27.875 -1.421875 
Q 17.96875 -1.421875 11.734375 6.484375 
Q 5.515625 14.40625 5.515625 27.296875 
Q 5.515625 40.1875 11.734375 48.09375 
Q 17.96875 56 27.875 56 
Q 33.9375 56 38.25 53.625 
Q 42.578125 51.265625 45.40625 46.390625 
z
M 14.796875 27.296875 
Q 14.796875 17.390625 18.875 11.75 
Q 22.953125 6.109375 30.078125 6.109375 
Q 37.203125 6.109375 41.296875 11.75 
Q 45.40625 17.390625 45.40625 27.296875 
Q 45.40625 37.203125 41.296875 42.84375 
Q 37.203125 48.484375 30.078125 48.484375 
Q 22.953125 48.484375 18.875 42.84375 
Q 14.796875 37.203125 14.796875 27.296875 
z
" id="DejaVuSans-100"/>
      </defs>
      <use xlink:href="#DejaVuSans-83"/>
      <use x="63.476562" xlink:href="#DejaVuSans-116"/>
      <use x="102.685547" xlink:href="#DejaVuSans-97"/>
      <use x="163.964844" xlink:href="#DejaVuSans-114"/>
      <use x="205.078125" xlink:href="#DejaVuSans-116"/>
      <use x="244.287109" xlink:href="#DejaVuSans-32"/>
      <use x="276.074219" xlink:href="#DejaVuSans-100"/>
      <use x="339.550781" xlink:href="#DejaVuSans-97"/>
      <use x="400.830078" xlink:href="#DejaVuSans-116"/>
      <use x="440.039062" xlink:href="#DejaVuSans-101"/>
     </g>
    </g>
   </g>
   <g id="matplotlib.axis_2">
    <g id="ytick_1">
     <g id="line2d_14">
      <defs>
       <path d="M 0 0 
L -3.5 0 
" id="mf99f942786" style="stroke:#000000;stroke-width:0.8;"/>
      </defs>
      <g>
       <use style="stroke:#000000;stroke-width:0.8;" x="40.603125" xlink:href="#mf99f942786" y="240.872727"/>
      </g>
     </g>
     <g id="text_15">
      <!-- 0 -->
      <g transform="translate(27.240625 244.671946)scale(0.1 -0.1)">
       <use xlink:href="#DejaVuSans-48"/>
      </g>
     </g>
    </g>
    <g id="ytick_2">
     <g id="line2d_15">
      <g>
       <use style="stroke:#000000;stroke-width:0.8;" x="40.603125" xlink:href="#mf99f942786" y="206.1"/>
      </g>
     </g>
     <g id="text_16">
      <!-- 10 -->
      <g transform="translate(20.878125 209.899219)scale(0.1 -0.1)">
       <use xlink:href="#DejaVuSans-49"/>
       <use x="63.623047" xlink:href="#DejaVuSans-48"/>
      </g>
     </g>
    </g>
    <g id="ytick_3">
     <g id="line2d_16">
      <g>
       <use style="stroke:#000000;stroke-width:0.8;" x="40.603125" xlink:href="#mf99f942786" y="171.327273"/>
      </g>
     </g>
     <g id="text_17">
      <!-- 20 -->
      <g transform="translate(20.878125 175.126491)scale(0.1 -0.1)">
       <use xlink:href="#DejaVuSans-50"/>
       <use x="63.623047" xlink:href="#DejaVuSans-48"/>
      </g>
     </g>
    </g>
    <g id="ytick_4">
     <g id="line2d_17">
      <g>
       <use style="stroke:#000000;stroke-width:0.8;" x="40.603125" xlink:href="#mf99f942786" y="136.554545"/>
      </g>
     </g>
     <g id="text_18">
      <!-- 30 -->
      <g transform="translate(20.878125 140.353764)scale(0.1 -0.1)">
       <defs>
        <path d="M 40.578125 39.3125 
Q 47.65625 37.796875 51.625 33 
Q 55.609375 28.21875 55.609375 21.1875 
Q 55.609375 10.40625 48.1875 4.484375 
Q 40.765625 -1.421875 27.09375 -1.421875 
Q 22.515625 -1.421875 17.65625 -0.515625 
Q 12.796875 0.390625 7.625 2.203125 
L 7.625 11.71875 
Q 11.71875 9.328125 16.59375 8.109375 
Q 21.484375 6.890625 26.8125 6.890625 
Q 36.078125 6.890625 40.9375 10.546875 
Q 45.796875 14.203125 45.796875 21.1875 
Q 45.796875 27.640625 41.28125 31.265625 
Q 36.765625 34.90625 28.71875 34.90625 
L 20.21875 34.90625 
L 20.21875 43.015625 
L 29.109375 43.015625 
Q 36.375 43.015625 40.234375 45.921875 
Q 44.09375 48.828125 44.09375 54.296875 
Q 44.09375 59.90625 40.109375 62.90625 
Q 36.140625 65.921875 28.71875 65.921875 
Q 24.65625 65.921875 20.015625 65.03125 
Q 15.375 64.15625 9.8125 62.3125 
L 9.8125 71.09375 
Q 15.4375 72.65625 20.34375 73.4375 
Q 25.25 74.21875 29.59375 74.21875 
Q 40.828125 74.21875 47.359375 69.109375 
Q 53.90625 64.015625 53.90625 55.328125 
Q 53.90625 49.265625 50.4375 45.09375 
Q 46.96875 40.921875 40.578125 39.3125 
z
" id="DejaVuSans-51"/>
       </defs>
       <use xlink:href="#DejaVuSans-51"/>
       <use x="63.623047" xlink:href="#DejaVuSans-48"/>
      </g>
     </g>
    </g>
    <g id="ytick_5">
     <g id="line2d_18">
      <g>
       <use style="stroke:#000000;stroke-width:0.8;" x="40.603125" xlink:href="#mf99f942786" y="101.781818"/>
      </g>
     </g>
     <g id="text_19">
      <!-- 40 -->
      <g transform="translate(20.878125 105.581037)scale(0.1 -0.1)">
       <defs>
        <path d="M 37.796875 64.3125 
L 12.890625 25.390625 
L 37.796875 25.390625 
z
M 35.203125 72.90625 
L 47.609375 72.90625 
L 47.609375 25.390625 
L 58.015625 25.390625 
L 58.015625 17.1875 
L 47.609375 17.1875 
L 47.609375 0 
L 37.796875 0 
L 37.796875 17.1875 
L 4.890625 17.1875 
L 4.890625 26.703125 
z
" id="DejaVuSans-52"/>
       </defs>
       <use xlink:href="#DejaVuSans-52"/>
       <use x="63.623047" xlink:href="#DejaVuSans-48"/>
      </g>
     </g>
    </g>
    <g id="ytick_6">
     <g id="line2d_19">
      <g>
       <use style="stroke:#000000;stroke-width:0.8;" x="40.603125" xlink:href="#mf99f942786" y="67.009091"/>
      </g>
     </g>
     <g id="text_20">
      <!-- 50 -->
      <g transform="translate(20.878125 70.80831)scale(0.1 -0.1)">
       <defs>
        <path d="M 10.796875 72.90625 
L 49.515625 72.90625 
L 49.515625 64.59375 
L 19.828125 64.59375 
L 19.828125 46.734375 
Q 21.96875 47.46875 24.109375 47.828125 
Q 26.265625 48.1875 28.421875 48.1875 
Q 40.625 48.1875 47.75 41.5 
Q 54.890625 34.8125 54.890625 23.390625 
Q 54.890625 11.625 47.5625 5.09375 
Q 40.234375 -1.421875 26.90625 -1.421875 
Q 22.3125 -1.421875 17.546875 -0.640625 
Q 12.796875 0.140625 7.71875 1.703125 
L 7.71875 11.625 
Q 12.109375 9.234375 16.796875 8.0625 
Q 21.484375 6.890625 26.703125 6.890625 
Q 35.15625 6.890625 40.078125 11.328125 
Q 45.015625 15.765625 45.015625 23.390625 
Q 45.015625 31 40.078125 35.4375 
Q 35.15625 39.890625 26.703125 39.890625 
Q 22.75 39.890625 18.8125 39.015625 
Q 14.890625 38.140625 10.796875 36.28125 
z
" id="DejaVuSans-53"/>
       </defs>
       <use xlink:href="#DejaVuSans-53"/>
       <use x="63.623047" xlink:href="#DejaVuSans-48"/>
      </g>
     </g>
    </g>
    <g id="ytick_7">
     <g id="line2d_20">
      <g>
       <use style="stroke:#000000;stroke-width:0.8;" x="40.603125" xlink:href="#mf99f942786" y="32.236364"/>
      </g>
     </g>
     <g id="text_21">
      <!-- 60 -->
      <g transform="translate(20.878125 36.035582)scale(0.1 -0.1)">
       <defs>
        <path d="M 33.015625 40.375 
Q 26.375 40.375 22.484375 35.828125 
Q 18.609375 31.296875 18.609375 23.390625 
Q 18.609375 15.53125 22.484375 10.953125 
Q 26.375 6.390625 33.015625 6.390625 
Q 39.65625 6.390625 43.53125 10.953125 
Q 47.40625 15.53125 47.40625 23.390625 
Q 47.40625 31.296875 43.53125 35.828125 
Q 39.65625 40.375 33.015625 40.375 
z
M 52.59375 71.296875 
L 52.59375 62.3125 
Q 48.875 64.0625 45.09375 64.984375 
Q 41.3125 65.921875 37.59375 65.921875 
Q 27.828125 65.921875 22.671875 59.328125 
Q 17.53125 52.734375 16.796875 39.40625 
Q 19.671875 43.65625 24.015625 45.921875 
Q 28.375 48.1875 33.59375 48.1875 
Q 44.578125 48.1875 50.953125 41.515625 
Q 57.328125 34.859375 57.328125 23.390625 
Q 57.328125 12.15625 50.6875 5.359375 
Q 44.046875 -1.421875 33.015625 -1.421875 
Q 20.359375 -1.421875 13.671875 8.265625 
Q 6.984375 17.96875 6.984375 36.375 
Q 6.984375 53.65625 15.1875 63.9375 
Q 23.390625 74.21875 37.203125 74.21875 
Q 40.921875 74.21875 44.703125 73.484375 
Q 48.484375 72.75 52.59375 71.296875 
z
" id="DejaVuSans-54"/>
       </defs>
       <use xlink:href="#DejaVuSans-54"/>
       <use x="63.623047" xlink:href="#DejaVuSans-48"/>
      </g>
     </g>
    </g>
    <g id="text_22">
     <!-- Stay (in days) -->
     <g transform="translate(14.798437 164.197656)rotate(-90)scale(0.1 -0.1)">
      <defs>
       <path d="M 31 75.875 
Q 24.46875 64.65625 21.28125 53.65625 
Q 18.109375 42.671875 18.109375 31.390625 
Q 18.109375 20.125 21.3125 9.0625 
Q 24.515625 -2 31 -13.1875 
L 23.1875 -13.1875 
Q 15.875 -1.703125 12.234375 9.375 
Q 8.59375 20.453125 8.59375 31.390625 
Q 8.59375 42.28125 12.203125 53.3125 
Q 15.828125 64.359375 23.1875 75.875 
z
" id="DejaVuSans-40"/>
       <path d="M 9.421875 54.6875 
L 18.40625 54.6875 
L 18.40625 0 
L 9.421875 0 
z
M 9.421875 75.984375 
L 18.40625 75.984375 
L 18.40625 64.59375 
L 9.421875 64.59375 
z
" id="DejaVuSans-105"/>
       <path d="M 44.28125 53.078125 
L 44.28125 44.578125 
Q 40.484375 46.53125 36.375 47.5 
Q 32.28125 48.484375 27.875 48.484375 
Q 21.1875 48.484375 17.84375 46.4375 
Q 14.5 44.390625 14.5 40.28125 
Q 14.5 37.15625 16.890625 35.375 
Q 19.28125 33.59375 26.515625 31.984375 
L 29.59375 31.296875 
Q 39.15625 29.25 43.1875 25.515625 
Q 47.21875 21.78125 47.21875 15.09375 
Q 47.21875 7.46875 41.1875 3.015625 
Q 35.15625 -1.421875 24.609375 -1.421875 
Q 20.21875 -1.421875 15.453125 -0.5625 
Q 10.6875 0.296875 5.421875 2 
L 5.421875 11.28125 
Q 10.40625 8.6875 15.234375 7.390625 
Q 20.0625 6.109375 24.8125 6.109375 
Q 31.15625 6.109375 34.5625 8.28125 
Q 37.984375 10.453125 37.984375 14.40625 
Q 37.984375 18.0625 35.515625 20.015625 
Q 33.0625 21.96875 24.703125 23.78125 
L 21.578125 24.515625 
Q 13.234375 26.265625 9.515625 29.90625 
Q 5.8125 33.546875 5.8125 39.890625 
Q 5.8125 47.609375 11.28125 51.796875 
Q 16.75 56 26.8125 56 
Q 31.78125 56 36.171875 55.265625 
Q 40.578125 54.546875 44.28125 53.078125 
z
" id="DejaVuSans-115"/>
       <path d="M 8.015625 75.875 
L 15.828125 75.875 
Q 23.140625 64.359375 26.78125 53.3125 
Q 30.421875 42.28125 30.421875 31.390625 
Q 30.421875 20.453125 26.78125 9.375 
Q 23.140625 -1.703125 15.828125 -13.1875 
L 8.015625 -13.1875 
Q 14.5 -2 17.703125 9.0625 
Q 20.90625 20.125 20.90625 31.390625 
Q 20.90625 42.671875 17.703125 53.65625 
Q 14.5 64.65625 8.015625 75.875 
z
" id="DejaVuSans-41"/>
      </defs>
      <use xlink:href="#DejaVuSans-83"/>
      <use x="63.476562" xlink:href="#DejaVuSans-116"/>
      <use x="102.685547" xlink:href="#DejaVuSans-97"/>
      <use x="163.964844" xlink:href="#DejaVuSans-121"/>
      <use x="223.144531" xlink:href="#DejaVuSans-32"/>
      <use x="254.931641" xlink:href="#DejaVuSans-40"/>
      <use x="293.945312" xlink:href="#DejaVuSans-105"/>
      <use x="321.728516" xlink:href="#DejaVuSans-110"/>
      <use x="385.107422" xlink:href="#DejaVuSans-32"/>
      <use x="416.894531" xlink:href="#DejaVuSans-100"/>
      <use x="480.371094" xlink:href="#DejaVuSans-97"/>
      <use x="541.650391" xlink:href="#DejaVuSans-121"/>
      <use x="600.830078" xlink:href="#DejaVuSans-115"/>
      <use x="652.929688" xlink:href="#DejaVuSans-41"/>
     </g>
    </g>
   </g>
   <g id="line2d_21">
    <path clip-path="url(#p269077903b)" d="M 65.966761 225.225 
L 67.411983 188.713636 
L 68.857204 166.111364 
L 70.302426 202.622727 
L 71.747647 124.384091 
L 73.192869 233.918182 
L 74.63809 141.770455 
L 76.083311 86.134091 
L 77.528533 171.327273 
L 78.973754 158.577273 
L 80.418976 181.759091 
L 81.864197 122.065909 
L 83.309419 178.281818 
L 84.75464 124.384091 
L 86.199862 172.486364 
L 87.645083 206.1 
L 89.090304 181.759091 
L 90.535526 185.236364 
L 91.980747 206.1 
L 93.425969 185.236364 
L 94.87119 178.281818 
L 96.316412 157.418182 
L 97.761633 153.940909 
L 100.652076 206.1 
L 103.542519 167.85 
L 104.98774 176.543182 
L 106.432962 225.804545 
L 109.323405 157.418182 
L 110.768626 164.372727 
L 115.104291 98.304545 
L 116.549512 126.122727 
L 117.994733 196.5375 
L 119.439955 174.804545 
L 120.885176 233.918182 
L 122.330398 199.145455 
L 123.775619 211.895455 
L 125.220841 206.1 
L 126.666062 210.446591 
L 128.111284 197.986364 
L 129.556505 181.759091 
L 131.001726 162.634091 
L 132.446948 205.404545 
L 133.892169 209.577273 
L 135.337391 173.065909 
L 136.782612 214.213636 
L 138.227834 207.838636 
L 141.118277 223.486364 
L 142.563498 80.918182 
L 144.008719 203.781818 
L 145.453941 174.804545 
L 146.899162 195.668182 
L 148.344384 158.2875 
L 149.789605 181.759091 
L 151.234827 193.060227 
L 152.680048 200.884091 
L 154.12527 182.454545 
L 155.570491 180.020455 
L 157.015712 190.203896 
L 158.460934 178.281818 
L 159.906155 211.315909 
L 161.351377 193.929545 
L 162.796598 191.031818 
L 164.24182 182.752597 
L 165.687041 185.236364 
L 167.132263 216.531818 
L 168.577484 216.531818 
L 170.022705 202.622727 
L 171.467927 199.145455 
L 172.913148 201.463636 
L 174.35837 179.672727 
L 175.803591 186.540341 
L 177.248813 216.531818 
L 178.694034 226.963636 
L 181.584477 202.622727 
L 183.029698 176.543182 
L 184.47492 203.781818 
L 185.920141 178.977273 
L 187.365363 174.804545 
L 188.810584 199.145455 
L 190.255806 198.736364 
L 191.701027 208.418182 
L 193.146249 191.804545 
L 194.59147 120.906818 
L 196.036691 185.236364 
L 197.481913 189.029752 
L 198.927134 215.488636 
L 200.372356 165.004959 
L 201.817577 202.332955 
L 203.262799 210.112238 
L 204.70802 199.725 
L 206.153242 195.400699 
L 207.598463 200.781818 
L 209.043684 195.916558 
L 210.488906 162.634091 
L 211.934127 201.463636 
L 213.379349 188.930966 
L 214.82457 158.809091 
L 216.269792 192.922967 
L 217.715013 149.440909 
L 219.160235 185.394421 
L 220.605456 171.327273 
L 222.050677 139.229371 
L 223.495899 188.278977 
L 224.94112 189.445694 
L 226.386342 181.154348 
L 227.831563 171.327273 
L 229.276785 192.480682 
L 230.722006 198.565909 
L 232.167228 162.286364 
L 233.612449 179.275325 
L 235.05767 153.071591 
L 236.502892 174.684639 
L 237.948113 194.074432 
L 239.393335 197.24876 
L 240.838556 185.992292 
L 242.283778 140.901136 
L 243.728999 170.361364 
L 245.174221 183.690909 
L 246.619442 179.944862 
L 248.064663 183.289091 
L 249.509885 171.617045 
L 250.955106 179.037747 
L 252.400328 149.497727 
L 253.845549 184.463636 
L 255.290771 176.618775 
L 256.735992 200.781818 
L 258.181214 190.37668 
L 261.071656 178.393988 
L 262.516878 167.077273 
L 263.962099 190.452273 
L 265.407321 193.639773 
L 266.852542 183.971901 
L 268.297764 177.078147 
L 269.742985 181.090385 
L 271.188207 184.270455 
L 272.633428 170.892614 
L 274.078649 194.740909 
L 275.523871 193.494886 
L 276.969092 193.551581 
L 278.414314 206.244886 
L 279.859535 181.284917 
L 281.304757 194.277273 
L 282.749978 170.990762 
L 284.1952 204.477273 
L 285.640421 202.970455 
L 287.085642 191.82488 
L 288.530864 159.23961 
L 289.976085 177.525889 
L 291.421307 192.915341 
L 292.866528 191.781818 
L 294.31175 179.00625 
L 295.756971 206.768706 
L 297.202193 174.387273 
L 298.647414 181.262338 
L 300.092635 182.781818 
L 301.537857 192.795652 
L 302.983078 176.069008 
L 304.4283 165.190909 
L 305.873521 206.768706 
L 307.318743 190.360766 
L 308.763964 193.234091 
L 310.209186 186.975 
L 311.654407 202.236364 
L 313.099628 205.272078 
L 314.54485 192.577273 
L 315.990071 202.275 
L 317.435293 193.018831 
L 318.880514 211.233117 
L 320.325736 186.323011 
L 323.216179 203.009091 
L 324.6614 189.679545 
L 326.106622 179.730682 
L 327.551843 181.386526 
L 328.997064 176.325852 
L 330.442286 193.929545 
L 331.887507 172.022727 
L 333.332729 195.668182 
L 334.77795 209.142614 
L 336.223172 178.597934 
L 337.668393 200.409917 
L 339.113615 196.75483 
L 340.558836 186.517464 
L 342.004057 206.1 
L 343.449279 192.687662 
L 344.8945 202.275 
L 346.339722 163.837762 
L 347.784943 183.063068 
L 349.230165 178.977273 
L 350.675386 196.827273 
L 352.120608 162.85142 
L 353.565829 185.429545 
L 355.01105 195.016193 
L 356.456272 181.469318 
L 357.901493 171.906818 
L 359.346715 201.753409 
L 360.791936 189.783566 
L 362.237158 196.5375 
L 363.682379 190.104545 
L 365.127601 207.680579 
L 366.572822 191.53892 
L 368.018043 193.639773 
L 369.463265 184.213636 
L 370.908486 168.948086 
L 372.353708 164.807386 
L 373.798929 188.061648 
L 375.244151 213.402273 
L 376.689372 160.627972 
L 378.134594 190.452273 
L 379.579815 186.975 
L 381.025036 194.031818 
L 382.470258 204.227622 
L 383.915479 202.970455 
L 385.360701 184.433916 
L 386.805922 200.449432 
L 388.251144 182.026573 
L 389.696365 196.054545 
L 391.141587 181.963636 
L 392.586808 202.89021 
L 394.032029 188.945455 
L 395.477251 183.655785 
L 396.922472 209.080519 
L 398.367694 183.280398 
L 399.812915 204.535227 
L 401.258137 184.166434 
L 402.703358 197.540559 
L 404.14858 160.895455 
L 405.593801 178.745455 
L 407.039022 200.449432 
L 408.484244 183.845455 
L 409.929465 188.216883 
L 411.374687 185.771329 
L 412.819908 174.587216 
L 414.26513 208.534091 
L 415.710351 186.395455 
L 417.155573 186.105682 
L 418.600794 194.972727 
L 420.046015 191.242562 
L 421.491237 180.421678 
L 422.936458 202.275 
L 424.38168 177.315909 
L 425.826901 185.236364 
L 427.272123 199.145455 
L 428.717344 196.400239 
L 430.162566 191.031818 
L 431.607787 175.549675 
L 433.053008 196.203147 
L 434.49823 187.968506 
L 435.943451 204.495105 
L 437.388673 155.265584 
L 438.833894 195.146591 
L 440.279116 167.518831 
L 441.724337 198.179545 
L 443.169559 178.433004 
L 444.61478 183.15 
L 446.060001 183.339669 
L 447.505223 199.901383 
L 450.395666 186.33445 
L 451.840887 197.24876 
L 453.286109 191.942532 
L 454.73133 184.85 
L 456.176552 204.013636 
L 457.621773 185.968421 
L 459.066994 184.270455 
L 460.512216 177.807645 
L 461.957437 188.864822 
L 463.402659 168.284659 
L 466.293102 183.671591 
L 467.738323 191.495455 
L 469.183545 187.895455 
L 470.628766 189.582955 
L 472.073987 207.722727 
L 473.519209 196.131818 
L 474.96443 189.486364 
L 476.409652 185.410227 
L 477.854873 201.132468 
L 479.300095 180.178512 
L 480.745316 195.204545 
L 482.190538 187.471753 
L 483.635759 185.236364 
L 485.08098 180.986364 
L 486.526202 190.177751 
L 487.971423 210.190909 
L 489.416645 185.236364 
L 490.861866 197.290909 
L 492.307088 192.364773 
L 493.752309 209.080519 
L 495.197531 196.102841 
L 496.642752 188.713636 
L 498.087973 205.520455 
L 499.533195 191.75625 
L 500.978416 208.707955 
L 502.423638 214.358523 
L 503.868859 195.436364 
L 505.314081 221.168182 
L 506.759302 199.725 
L 508.204524 202.938843 
L 509.649745 210.858373 
L 511.094966 196.164935 
L 512.540188 212.475 
L 513.985409 208.881818 
L 515.430631 198.276136 
L 516.875852 200.884091 
L 518.321074 200.304545 
L 519.766295 198.877972 
L 521.211517 203.88719 
L 522.656738 209.577273 
L 524.101959 197.986364 
L 525.547181 196.363636 
L 526.992402 204.554545 
L 528.437624 199.145455 
L 529.882845 199.642208 
L 531.328067 205.106494 
L 532.773288 208.418182 
L 534.21851 194.509091 
L 535.663731 199.777686 
L 537.108953 197.754545 
L 538.554174 218.270455 
L 539.999395 211.473967 
L 541.444617 201.927273 
L 542.889838 203.665909 
L 544.33506 204.578693 
L 545.780281 210.156818 
L 547.225503 207.093506 
L 548.670724 211.026136 
L 551.561167 216.847934 
L 553.006388 223.486364 
L 554.45161 226.190909 
L 555.896831 216.966477 
L 557.342053 215.6625 
L 558.787274 222.854132 
L 560.232496 220.781818 
L 561.677717 222.713636 
L 563.122939 229.571591 
L 564.56816 226.015289 
L 566.013381 233.338636 
L 567.458603 232.527273 
L 568.903824 237.395455 
L 570.349046 232.179545 
L 573.239489 239.134091 
L 573.239489 239.134091 
" style="fill:none;stroke:#1f77b4;stroke-linecap:square;stroke-width:0.8;"/>
   </g>
   <g id="line2d_22">
    <path clip-path="url(#p269077903b)" d="M 40.603125 189.525078 
L 598.603125 189.525078 
" style="fill:none;stroke:#000000;stroke-dasharray:2.96,1.28;stroke-dashoffset:0;stroke-width:0.8;"/>
   </g>
   <g id="patch_3">
    <path d="M 40.603125 252 
L 40.603125 7.2 
" style="fill:none;stroke:#000000;stroke-linecap:square;stroke-linejoin:miter;stroke-width:0.8;"/>
   </g>
   <g id="patch_4">
    <path d="M 40.603125 252 
L 598.603125 252 
" style="fill:none;stroke:#000000;stroke-linecap:square;stroke-linejoin:miter;stroke-width:0.8;"/>
   </g>
   <g id="legend_1">
    <g id="patch_5">
     <path d="M 532.35625 29.878125 
L 591.603125 29.878125 
Q 593.603125 29.878125 593.603125 27.878125 
L 593.603125 14.2 
Q 593.603125 12.2 591.603125 12.2 
L 532.35625 12.2 
Q 530.35625 12.2 530.35625 14.2 
L 530.35625 27.878125 
Q 530.35625 29.878125 532.35625 29.878125 
z
" style="fill:#ffffff;opacity:0.8;stroke:#cccccc;stroke-linejoin:miter;"/>
    </g>
    <g id="line2d_23">
     <path d="M 534.35625 20.298437 
L 554.35625 20.298437 
" style="fill:none;stroke:#000000;stroke-dasharray:2.96,1.28;stroke-dashoffset:0;stroke-width:0.8;"/>
    </g>
    <g id="line2d_24"/>
    <g id="text_23">
     <!-- Mean -->
     <g transform="translate(562.35625 23.798437)scale(0.1 -0.1)">
      <use xlink:href="#DejaVuSans-77"/>
      <use x="86.279297" xlink:href="#DejaVuSans-101"/>
      <use x="147.802734" xlink:href="#DejaVuSans-97"/>
      <use x="209.082031" xlink:href="#DejaVuSans-110"/>
     </g>
    </g>
   </g>
  </g>
 </g>
 <defs>
  <clipPath id="p269077903b">
   <rect height="244.8" width="558" x="40.603125" y="7.2"/>
  </clipPath>
 </defs>
</svg>
