<?xml version="1.0" encoding="utf-8" standalone="no"?>
<!DOCTYPE svg PUBLIC "-//W3C//DTD SVG 1.1//EN"
  "http://www.w3.org/Graphics/SVG/1.1/DTD/svg11.dtd">
<!-- Created with matplotlib (https://matplotlib.org/) -->
<svg height="329.18125pt" version="1.1" viewBox="0 0 605.803125 329.18125" width="605.803125pt" xmlns="http://www.w3.org/2000/svg" xmlns:xlink="http://www.w3.org/1999/xlink">
 <metadata>
  <rdf:RDF xmlns:cc="http://creativecommons.org/ns#" xmlns:dc="http://purl.org/dc/elements/1.1/" xmlns:rdf="http://www.w3.org/1999/02/22-rdf-syntax-ns#">
   <cc:Work>
    <dc:type rdf:resource="http://purl.org/dc/dcmitype/StillImage"/>
    <dc:date>2021-03-21T00:37:56.054166</dc:date>
    <dc:format>image/svg+xml</dc:format>
    <dc:creator>
     <cc:Agent>
      <dc:title>Matplotlib v3.3.4, https://matplotlib.org/</dc:title>
     </cc:Agent>
    </dc:creator>
   </cc:Work>
  </rdf:RDF>
 </metadata>
 <defs>
  <style type="text/css">*{stroke-linecap:butt;stroke-linejoin:round;}</style>
 </defs>
 <g id="figure_1">
  <g id="patch_1">
   <path d="M 0 329.18125 
L 605.803125 329.18125 
L 605.803125 0 
L 0 0 
z
" style="fill:none;"/>
  </g>
  <g id="axes_1">
   <g id="patch_2">
    <path d="M 40.603125 252 
L 598.603125 252 
L 598.603125 7.2 
L 40.603125 7.2 
z
" style="fill:#ffffff;"/>
   </g>
   <g id="PolyCollection_1">
    <path clip-path="url(#pc14594bc34)" d="M 65.966761 220.009091 
L 65.966761 230.440909 
L 65.966761 220.009091 
L 65.966761 220.009091 
z
" style="fill:#1f77b4;fill-opacity:0.2;stroke:#1f77b4;stroke-opacity:0.2;"/>
    <path clip-path="url(#pc14594bc34)" d="M 68.857204 157.418182 
L 68.857204 174.804545 
L 68.857204 157.418182 
L 68.857204 157.418182 
z
" style="fill:#1f77b4;fill-opacity:0.2;stroke:#1f77b4;stroke-opacity:0.2;"/>
    <path clip-path="url(#pc14594bc34)" d="M 71.747647 112.213636 
L 71.747647 136.554545 
L 73.192869 237.395455 
L 74.63809 233.918182 
L 76.083311 108.736364 
L 77.528533 220.009091 
L 78.973754 201.463636 
L 80.418976 218.357386 
L 81.864197 188.771591 
L 83.309419 185.236364 
L 84.75464 153.940909 
L 86.199862 178.281818 
L 87.645083 220.182955 
L 89.090304 221.805682 
L 89.090304 154.491477 
L 89.090304 154.491477 
L 87.645083 193.842614 
L 86.199862 164.372727 
L 84.75464 94.827273 
L 83.309419 171.327273 
L 81.864197 64.328693 
L 80.418976 115.690909 
L 78.973754 108.388636 
L 77.528533 122.645455 
L 76.083311 63.531818 
L 74.63809 49.622727 
L 73.192869 230.440909 
L 71.747647 112.213636 
z
" style="fill:#1f77b4;fill-opacity:0.2;stroke:#1f77b4;stroke-opacity:0.2;"/>
    <path clip-path="url(#pc14594bc34)" d="M 94.87119 119.168182 
L 94.87119 237.395455 
L 96.316412 233.918182 
L 96.316412 18.327273 
L 96.316412 18.327273 
L 94.87119 119.168182 
z
" style="fill:#1f77b4;fill-opacity:0.2;stroke:#1f77b4;stroke-opacity:0.2;"/>
    <path clip-path="url(#pc14594bc34)" d="M 103.542519 164.372727 
L 103.542519 171.327273 
L 104.98774 230.440909 
L 106.432962 230.440909 
L 107.878183 230.440909 
L 107.878183 157.070455 
L 107.878183 157.070455 
L 106.432962 221.168182 
L 104.98774 122.645455 
L 103.542519 164.372727 
z
" style="fill:#1f77b4;fill-opacity:0.2;stroke:#1f77b4;stroke-opacity:0.2;"/>
    <path clip-path="url(#pc14594bc34)" d="M 110.768626 115.690909 
L 110.768626 213.054545 
L 110.768626 115.690909 
L 110.768626 115.690909 
z
" style="fill:#1f77b4;fill-opacity:0.2;stroke:#1f77b4;stroke-opacity:0.2;"/>
    <path clip-path="url(#pc14594bc34)" d="M 117.994733 127.861364 
L 117.994733 233.048864 
L 119.439955 229.281818 
L 119.439955 70.486364 
L 119.439955 70.486364 
L 117.994733 127.861364 
z
" style="fill:#1f77b4;fill-opacity:0.2;stroke:#1f77b4;stroke-opacity:0.2;"/>
    <path clip-path="url(#pc14594bc34)" d="M 122.330398 178.281818 
L 122.330398 220.009091 
L 123.775619 230.440909 
L 123.775619 193.118182 
L 123.775619 193.118182 
L 122.330398 178.281818 
z
" style="fill:#1f77b4;fill-opacity:0.2;stroke:#1f77b4;stroke-opacity:0.2;"/>
    <path clip-path="url(#pc14594bc34)" d="M 126.666062 198.276136 
L 126.666062 223.486364 
L 128.111284 216.531818 
L 128.111284 181.759091 
L 128.111284 181.759091 
L 126.666062 198.276136 
z
" style="fill:#1f77b4;fill-opacity:0.2;stroke:#1f77b4;stroke-opacity:0.2;"/>
    <path clip-path="url(#pc14594bc34)" d="M 131.001726 101.781818 
L 131.001726 223.486364 
L 132.446948 218.652955 
L 132.446948 189.409091 
L 132.446948 189.409091 
L 131.001726 101.781818 
z
" style="fill:#1f77b4;fill-opacity:0.2;stroke:#1f77b4;stroke-opacity:0.2;"/>
    <path clip-path="url(#pc14594bc34)" d="M 135.337391 125.209943 
L 135.337391 215.213352 
L 136.782612 237.395455 
L 138.227834 233.918182 
L 141.118277 230.440909 
L 142.563498 87.872727 
L 144.008719 230.440909 
L 145.453941 206.857549 
L 146.899162 220.009091 
L 148.344384 204.361364 
L 148.344384 73.094318 
L 148.344384 73.094318 
L 146.899162 171.327273 
L 145.453941 125.365179 
L 144.008719 179.759659 
L 142.563498 73.963636 
L 141.118277 212.185227 
L 138.227834 181.759091 
L 136.782612 167.85 
L 135.337391 125.209943 
z
" style="fill:#1f77b4;fill-opacity:0.2;stroke:#1f77b4;stroke-opacity:0.2;"/>
    <path clip-path="url(#pc14594bc34)" d="M 151.234827 154.810227 
L 151.234827 226.963636 
L 152.680048 228.289347 
L 154.12527 212.79375 
L 155.570491 212.286648 
L 157.015712 219.537175 
L 157.015712 158.001867 
L 157.015712 158.001867 
L 155.570491 150.10142 
L 154.12527 141.683523 
L 152.680048 162.568892 
L 151.234827 154.810227 
z
" style="fill:#1f77b4;fill-opacity:0.2;stroke:#1f77b4;stroke-opacity:0.2;"/>
    <path clip-path="url(#pc14594bc34)" d="M 159.906155 190.452273 
L 159.906155 232.179545 
L 161.351377 226.963636 
L 162.796598 226.963636 
L 164.24182 218.307711 
L 165.687041 225.225 
L 167.132263 237.395455 
L 168.577484 220.009091 
L 170.022705 229.644034 
L 171.467927 220.009091 
L 172.913148 223.486364 
L 174.35837 220.009091 
L 175.803591 205.295881 
L 177.248813 233.918182 
L 178.694034 235.309091 
L 180.139256 227.957143 
L 181.584477 221.4 
L 183.029698 205.439318 
L 184.47492 226.190909 
L 185.920141 209.420795 
L 187.365363 203.865852 
L 188.810584 206.1 
L 190.255806 215.314773 
L 191.701027 229.871023 
L 193.146249 213.460227 
L 194.59147 188.615838 
L 196.036691 208.393663 
L 197.481913 224.134401 
L 198.927134 227.676477 
L 200.372356 192.206715 
L 201.817577 224.094886 
L 203.262799 222.035271 
L 204.70802 215.553835 
L 206.153242 210.138986 
L 207.598463 215.304545 
L 209.043684 217.525325 
L 210.488906 195.023437 
L 211.934127 215.749432 
L 213.379349 210.957315 
L 214.82457 210.858068 
L 216.269792 209.440012 
L 217.715013 183.359659 
L 219.160235 202.180165 
L 220.605456 203.918802 
L 222.050677 192.190909 
L 223.495899 204.28892 
L 224.94112 216.454037 
L 226.386342 210.284066 
L 227.831563 202.157386 
L 229.276785 205.91527 
L 230.722006 206.68679 
L 232.167228 186.827216 
L 233.612449 197.537216 
L 235.05767 176.551875 
L 236.502892 193.773668 
L 237.948113 212.551065 
L 239.393335 206.265961 
L 240.838556 200.283127 
L 242.283778 182.18071 
L 243.728999 208.616193 
L 245.174221 202.815909 
L 246.619442 204.229076 
L 248.064663 200.480727 
L 249.509885 192.372017 
L 250.955106 198.691897 
L 252.400328 193.837784 
L 253.845549 202.154261 
L 255.290771 206.561117 
L 256.735992 214.905682 
L 258.181214 207.37752 
L 259.626435 211.565366 
L 261.071656 206.68048 
L 262.516878 201.193182 
L 263.962099 204.315181 
L 265.407321 209.345455 
L 266.852542 208.869964 
L 268.297764 193.658719 
L 269.742985 196.286735 
L 271.188207 205.35625 
L 272.633428 192.533203 
L 274.078649 212.515568 
L 275.523871 207.570597 
L 276.969092 211.470875 
L 278.414314 215.311151 
L 279.859535 201.773166 
L 281.304757 214.335341 
L 282.749978 191.487042 
L 284.1952 218.751477 
L 285.640421 220.81321 
L 287.085642 208.392255 
L 288.530864 194.446997 
L 289.976085 201.545529 
L 291.421307 209.171591 
L 292.866528 211.254545 
L 294.31175 193.150781 
L 295.756971 217.009943 
L 297.202193 201.023182 
L 298.647414 203.429951 
L 300.092635 209.515909 
L 301.537857 204.777125 
L 302.983078 206.380553 
L 304.4283 204.202841 
L 305.873521 219.895411 
L 307.318743 205.194079 
L 308.763964 209.301989 
L 310.209186 225.54375 
L 311.654407 217.884091 
L 313.099628 216.540097 
L 314.54485 206.148295 
L 315.990071 211.424574 
L 317.435293 207.859334 
L 318.880514 224.032792 
L 320.325736 208.490625 
L 321.770957 208.821635 
L 323.216179 220.801136 
L 324.6614 204.023295 
L 326.106622 210.185795 
L 327.551843 200.582934 
L 328.997064 216.575284 
L 330.442286 213.958636 
L 331.887507 196.236136 
L 333.332729 210.098864 
L 334.77795 214.586719 
L 336.223172 202.128796 
L 337.668393 217.661932 
L 339.113615 213.728267 
L 340.558836 200.435706 
L 342.004057 218.27503 
L 343.449279 210.701177 
L 344.8945 219.496193 
L 346.339722 194.484572 
L 347.784943 204.850355 
L 349.230165 207.856023 
L 350.675386 213.496449 
L 352.120608 196.173473 
L 353.565829 205.428693 
L 355.01105 207.219247 
L 356.456272 211.772301 
L 357.901493 209.164347 
L 359.346715 217.153381 
L 360.791936 212.419274 
L 362.237158 214.173793 
L 363.682379 219.052841 
L 365.127601 220.175052 
L 366.572822 207.550675 
L 368.018043 214.684517 
L 369.463265 207.035795 
L 370.908486 186.746232 
L 372.353708 207.197514 
L 373.798929 207.528942 
L 375.244151 223.190795 
L 376.689372 191.655944 
L 378.134594 211.166883 
L 379.579815 212.993693 
L 381.025036 207.552273 
L 382.470258 218.404196 
L 383.915479 214.793182 
L 385.360701 216.010227 
L 386.805922 217.922727 
L 388.251144 204.775962 
L 389.696365 216.184091 
L 391.141587 202.95 
L 392.586808 222.429808 
L 394.032029 208.806477 
L 395.477251 215.1172 
L 396.922472 224.976623 
L 398.367694 199.933274 
L 399.812915 218.90071 
L 401.258137 206.534659 
L 402.703358 216.451573 
L 404.14858 194.897386 
L 405.593801 198.339886 
L 407.039022 211.750568 
L 408.484244 202.692273 
L 409.929465 213.979748 
L 411.374687 211.469712 
L 412.819908 193.619851 
L 414.26513 228.702273 
L 415.710351 210.319091 
L 417.155573 203.962926 
L 418.600794 209.494687 
L 420.046015 211.371229 
L 421.491237 202.89021 
L 422.936458 214.893153 
L 424.38168 192.780114 
L 425.826901 200.890778 
L 427.272123 210.065057 
L 428.717344 211.503499 
L 430.162566 209.809091 
L 431.607787 204.373782 
L 433.053008 210.914685 
L 434.49823 211.576705 
L 435.943451 217.882605 
L 437.388673 188.808847 
L 438.833894 206.630284 
L 440.279116 188.14651 
L 441.724337 217.314205 
L 443.169559 195.770232 
L 444.61478 200.727614 
L 446.060001 202.614824 
L 447.505223 215.927075 
L 448.950444 206.186932 
L 450.395666 205.848355 
L 451.840887 217.693543 
L 453.286109 206.646429 
L 454.73133 206.360795 
L 456.176552 214.712045 
L 457.621773 205.386244 
L 459.066994 205.14375 
L 460.512216 199.868569 
L 461.957437 203.983399 
L 463.402659 194.076243 
L 464.84788 200.008977 
L 466.293102 204.313551 
L 467.738323 212.6025 
L 469.183545 212.318182 
L 470.628766 204.245455 
L 472.073987 219.325227 
L 473.519209 212.735795 
L 474.96443 205.14375 
L 476.409652 202.583608 
L 477.854873 214.909091 
L 479.300095 203.737035 
L 480.745316 212.162045 
L 482.190538 209.260593 
L 483.635759 205.972946 
L 485.08098 200.700568 
L 486.526202 205.413696 
L 487.971423 219.610227 
L 489.416645 209.471713 
L 490.861866 218.907955 
L 492.307088 209.942386 
L 493.752309 230.204951 
L 495.197531 215.456037 
L 496.642752 214.019489 
L 498.087973 215.6625 
L 499.533195 212.755717 
L 500.978416 220.017784 
L 502.423638 225.018537 
L 503.868859 213.639886 
L 505.314081 229.035511 
L 506.759302 220.588636 
L 508.204524 222.617045 
L 509.649745 220.7686 
L 511.094966 210.4528 
L 512.540188 223.500852 
L 513.985409 222.130227 
L 515.430631 211.178267 
L 516.875852 217.99517 
L 518.321074 213.815199 
L 519.766295 212.700131 
L 521.211517 218.444318 
L 522.656738 218.147301 
L 524.101959 212.79375 
L 525.547181 224.912045 
L 526.992402 213.257386 
L 528.437624 206.367483 
L 529.882845 215.563149 
L 531.328067 219.655154 
L 532.773288 224.37017 
L 534.21851 207.684091 
L 535.663731 213.536622 
L 537.108953 220.009091 
L 538.554174 228.702273 
L 539.999395 226.094318 
L 541.444617 209.953977 
L 542.889838 214.462841 
L 544.33506 213.717401 
L 545.780281 217.690909 
L 547.225503 224.554383 
L 548.670724 221.334801 
L 550.115946 225.681392 
L 551.561167 224.300362 
L 553.006388 233.570455 
L 554.45161 231.416477 
L 555.896831 221.313068 
L 557.342053 223.279901 
L 558.787274 228.544215 
L 560.232496 226.963636 
L 561.677717 229.301136 
L 563.122939 234.809233 
L 564.56816 230.290754 
L 566.013381 238.554545 
L 567.458603 238.090909 
L 568.903824 240.177273 
L 570.349046 233.338636 
L 573.239489 240.872727 
L 573.239489 237.395455 
L 573.239489 237.395455 
L 570.349046 231.020455 
L 568.903824 233.918182 
L 567.458603 229.745455 
L 566.013381 228.977557 
L 564.56816 221.889979 
L 563.122939 224.790341 
L 561.677717 216.715341 
L 560.232496 216.145455 
L 558.787274 216.365857 
L 557.342053 209.55554 
L 555.896831 213.912997 
L 554.45161 219.014205 
L 553.006388 214.967045 
L 551.561167 206.384504 
L 550.115946 202.898011 
L 548.670724 203.91946 
L 547.225503 194.674675 
L 545.780281 204.788778 
L 544.33506 197.29272 
L 542.889838 191.825795 
L 541.444617 191.141932 
L 539.999395 199.129649 
L 538.554174 205.643608 
L 537.108953 178.977273 
L 535.663731 185.386519 
L 534.21851 181.720455 
L 532.773288 194.313494 
L 531.328067 192.637987 
L 529.882845 178.232143 
L 528.437624 190.178103 
L 526.992402 190.442614 
L 525.547181 173.01375 
L 524.101959 180.346449 
L 522.656738 198.39929 
L 521.211517 182.857593 
L 519.766295 177.338942 
L 518.321074 184.917614 
L 516.875852 183.410795 
L 515.430631 183.15 
L 513.985409 190.8 
L 512.540188 200.000284 
L 511.094966 179.772078 
L 509.649745 201.9593 
L 508.204524 180.810744 
L 506.759302 179.382955 
L 505.314081 213.634091 
L 503.868859 168.696136 
L 502.423638 201.31875 
L 500.978416 194.872756 
L 499.533195 170.457955 
L 498.087973 192.190909 
L 496.642752 162.929659 
L 495.197531 165.133381 
L 493.752309 180.902192 
L 492.307088 175.208778 
L 490.861866 171.669205 
L 489.416645 156.809659 
L 487.971423 199.835795 
L 486.526202 174.891477 
L 485.08098 162.015909 
L 483.635759 158.213942 
L 482.190538 163.354383 
L 480.745316 171.744545 
L 479.300095 148.250826 
L 477.854873 184.060714 
L 476.409652 170.770909 
L 474.96443 177.103409 
L 473.519209 177.737045 
L 472.073987 194.903182 
L 470.628766 176.162855 
L 469.183545 156.461932 
L 467.738323 162.599318 
L 466.293102 153.128097 
L 464.84788 148.504773 
L 463.402659 133.104439 
L 461.957437 171.701458 
L 460.512216 158.935537 
L 459.066994 161.349432 
L 457.621773 157.102482 
L 456.176552 192.984886 
L 454.73133 165.106818 
L 453.286109 179.498864 
L 451.840887 182.043595 
L 450.395666 166.19372 
L 448.950444 174.874919 
L 447.505223 175.632288 
L 446.060001 166.735692 
L 444.61478 162.234205 
L 443.169559 157.410623 
L 441.724337 172.544318 
L 440.279116 146.717289 
L 438.833894 183.15 
L 437.388673 115.910308 
L 435.943451 189.348907 
L 434.49823 160.268304 
L 433.053008 180.548733 
L 431.607787 139.553693 
L 430.162566 169.096023 
L 428.717344 178.542614 
L 427.272123 189.94517 
L 425.826901 171.454327 
L 424.38168 153.646307 
L 422.936458 188.609318 
L 421.491237 158.254065 
L 420.046015 170.813585 
L 418.600794 175.586932 
L 417.155573 164.510369 
L 415.710351 160.605682 
L 414.26513 182.237216 
L 412.819908 152.626065 
L 411.374687 166.639642 
L 409.929465 156.90901 
L 408.484244 162.89054 
L 407.039022 184.573509 
L 405.593801 157.238523 
L 404.14858 131.292273 
L 402.703358 182.026573 
L 401.258137 163.262675 
L 399.812915 186.318665 
L 398.367694 167.27951 
L 396.922472 183.199675 
L 395.477251 146.607025 
L 394.032029 157.238523 
L 392.586808 182.294056 
L 391.141587 153.414205 
L 389.696365 168.178409 
L 388.251144 151.125656 
L 386.805922 175.423935 
L 385.360701 142.004502 
L 383.915479 192.35608 
L 382.470258 184.26674 
L 381.025036 180.726136 
L 379.579815 161.060625 
L 378.134594 167.092451 
L 376.689372 120.465472 
L 375.244151 201.179659 
L 373.798929 166.605788 
L 372.353708 92.827841 
L 370.908486 146.464773 
L 369.463265 164.945455 
L 368.018043 169.378551 
L 366.572822 171.979261 
L 365.127601 192.82314 
L 363.682379 163.146989 
L 362.237158 175.174006 
L 360.791936 167.756381 
L 359.346715 179.468438 
L 357.901493 133.482955 
L 356.456272 148.717756 
L 355.01105 181.340732 
L 353.565829 165.324148 
L 352.120608 124.389524 
L 350.675386 178.803409 
L 349.230165 137.98892 
L 347.784943 153.223722 
L 346.339722 124.504458 
L 344.8945 182.185057 
L 343.449279 178.232143 
L 342.004057 191.605263 
L 340.558836 169.854007 
L 339.113615 178.673011 
L 337.668393 183.489824 
L 336.223172 153.079494 
L 334.77795 203.492045 
L 333.332729 180.478295 
L 331.887507 136.044545 
L 330.442286 162.716676 
L 328.997064 145.791051 
L 327.551843 165.838149 
L 326.106622 147.051562 
L 324.6614 177.441477 
L 323.216179 179.21875 
L 321.770957 181.280966 
L 320.325736 169.19201 
L 318.880514 195.175568 
L 317.435293 171.389367 
L 315.990071 191.990966 
L 314.54485 176.007102 
L 313.099628 192.157792 
L 311.654407 189.41875 
L 310.209186 144.914489 
L 308.763964 171.530114 
L 307.318743 177.183732 
L 305.873521 185.0625 
L 304.4283 124.067045 
L 302.983078 137.230243 
L 301.537857 179.778557 
L 300.092635 148.551136 
L 298.647414 156.610958 
L 297.202193 141.631364 
L 295.756971 192.521919 
L 294.31175 158.128125 
L 292.866528 176.215909 
L 291.421307 176.300497 
L 289.976085 152.421492 
L 288.530864 127.016883 
L 287.085642 172.773086 
L 285.640421 178.633892 
L 284.1952 186.372273 
L 282.749978 135.228134 
L 281.304757 165.572386 
L 279.859535 157.240367 
L 278.414314 193.016761 
L 276.969092 168.348913 
L 275.523871 174.866122 
L 274.078649 179.174318 
L 272.633428 139.597159 
L 271.188207 163.112216 
L 269.742985 159.798776 
L 268.297764 155.198077 
L 266.852542 152.739669 
L 265.407321 176.93196 
L 263.962099 171.283807 
L 262.516878 128.909375 
L 261.071656 134.975751 
L 259.626435 160.052594 
L 258.181214 170.469293 
L 256.735992 188.38125 
L 255.290771 145.803335 
L 253.845549 165.159943 
L 252.400328 115.628125 
L 250.955106 151.676902 
L 249.509885 143.936506 
L 248.064663 168.100364 
L 246.619442 151.344293 
L 245.174221 168.332955 
L 243.728999 112.266761 
L 242.283778 96.383352 
L 240.838556 168.224185 
L 239.393335 183.975852 
L 237.948113 174.576349 
L 236.502892 158.5423 
L 235.05767 126.244432 
L 233.612449 161.839286 
L 232.167228 123.488693 
L 230.722006 189.941548 
L 229.276785 181.012926 
L 227.831563 138.385227 
L 226.386342 156.250272 
L 224.94112 165.763636 
L 223.495899 175.666619 
L 222.050677 54.424038 
L 220.605456 122.700775 
L 219.160235 164.198864 
L 217.715013 113.732386 
L 216.269792 167.840849 
L 214.82457 73.018977 
L 213.379349 164.443359 
L 211.934127 188.547017 
L 210.488906 124.710085 
L 209.043684 173.26461 
L 207.598463 181.748864 
L 206.153242 178.636233 
L 204.70802 183.193466 
L 203.262799 198.329633 
L 201.817577 177.992045 
L 200.372356 128.296023 
L 198.927134 204.013636 
L 197.481913 147.82407 
L 196.036691 163.128934 
L 194.59147 36.930682 
L 193.146249 164.903977 
L 191.701027 185.033523 
L 190.255806 184.203409 
L 188.810584 192.190909 
L 187.365363 147.047216 
L 185.920141 151.819773 
L 184.47492 176.292045 
L 183.029698 133.83358 
L 181.584477 170.597045 
L 180.139256 204.088149 
L 178.694034 218.618182 
L 177.248813 202.622727 
L 175.803591 169.110511 
L 174.35837 137.945455 
L 172.913148 188.713636 
L 171.467927 178.281818 
L 170.022705 166.517045 
L 168.577484 213.054545 
L 167.132263 195.668182 
L 165.687041 142.639773 
L 164.24182 134.306737 
L 162.796598 140.031818 
L 161.351377 160.895455 
L 159.906155 190.452273 
z
" style="fill:#1f77b4;fill-opacity:0.2;stroke:#1f77b4;stroke-opacity:0.2;"/>
   </g>
   <g id="matplotlib.axis_1">
    <g id="xtick_1">
     <g id="line2d_1">
      <defs>
       <path d="M 0 0 
L 0 3.5 
" id="m630f834123" style="stroke:#000000;stroke-width:0.8;"/>
      </defs>
      <g>
       <use style="stroke:#000000;stroke-width:0.8;" x="41.397997" xlink:href="#m630f834123" y="252"/>
      </g>
     </g>
     <g id="text_1">
      <!-- Mar 2020 -->
      <g transform="translate(44.157372 306.495312)rotate(-90)scale(0.1 -0.1)">
       <defs>
        <path d="M 9.8125 72.90625 
L 24.515625 72.90625 
L 43.109375 23.296875 
L 61.8125 72.90625 
L 76.515625 72.90625 
L 76.515625 0 
L 66.890625 0 
L 66.890625 64.015625 
L 48.09375 14.015625 
L 38.1875 14.015625 
L 19.390625 64.015625 
L 19.390625 0 
L 9.8125 0 
z
" id="DejaVuSans-77"/>
        <path d="M 34.28125 27.484375 
Q 23.390625 27.484375 19.1875 25 
Q 14.984375 22.515625 14.984375 16.5 
Q 14.984375 11.71875 18.140625 8.90625 
Q 21.296875 6.109375 26.703125 6.109375 
Q 34.1875 6.109375 38.703125 11.40625 
Q 43.21875 16.703125 43.21875 25.484375 
L 43.21875 27.484375 
z
M 52.203125 31.203125 
L 52.203125 0 
L 43.21875 0 
L 43.21875 8.296875 
Q 40.140625 3.328125 35.546875 0.953125 
Q 30.953125 -1.421875 24.3125 -1.421875 
Q 15.921875 -1.421875 10.953125 3.296875 
Q 6 8.015625 6 15.921875 
Q 6 25.140625 12.171875 29.828125 
Q 18.359375 34.515625 30.609375 34.515625 
L 43.21875 34.515625 
L 43.21875 35.40625 
Q 43.21875 41.609375 39.140625 45 
Q 35.0625 48.390625 27.6875 48.390625 
Q 23 48.390625 18.546875 47.265625 
Q 14.109375 46.140625 10.015625 43.890625 
L 10.015625 52.203125 
Q 14.9375 54.109375 19.578125 55.046875 
Q 24.21875 56 28.609375 56 
Q 40.484375 56 46.34375 49.84375 
Q 52.203125 43.703125 52.203125 31.203125 
z
" id="DejaVuSans-97"/>
        <path d="M 41.109375 46.296875 
Q 39.59375 47.171875 37.8125 47.578125 
Q 36.03125 48 33.890625 48 
Q 26.265625 48 22.1875 43.046875 
Q 18.109375 38.09375 18.109375 28.8125 
L 18.109375 0 
L 9.078125 0 
L 9.078125 54.6875 
L 18.109375 54.6875 
L 18.109375 46.1875 
Q 20.953125 51.171875 25.484375 53.578125 
Q 30.03125 56 36.53125 56 
Q 37.453125 56 38.578125 55.875 
Q 39.703125 55.765625 41.0625 55.515625 
z
" id="DejaVuSans-114"/>
        <path id="DejaVuSans-32"/>
        <path d="M 19.1875 8.296875 
L 53.609375 8.296875 
L 53.609375 0 
L 7.328125 0 
L 7.328125 8.296875 
Q 12.9375 14.109375 22.625 23.890625 
Q 32.328125 33.6875 34.8125 36.53125 
Q 39.546875 41.84375 41.421875 45.53125 
Q 43.3125 49.21875 43.3125 52.78125 
Q 43.3125 58.59375 39.234375 62.25 
Q 35.15625 65.921875 28.609375 65.921875 
Q 23.96875 65.921875 18.8125 64.3125 
Q 13.671875 62.703125 7.8125 59.421875 
L 7.8125 69.390625 
Q 13.765625 71.78125 18.9375 73 
Q 24.125 74.21875 28.421875 74.21875 
Q 39.75 74.21875 46.484375 68.546875 
Q 53.21875 62.890625 53.21875 53.421875 
Q 53.21875 48.921875 51.53125 44.890625 
Q 49.859375 40.875 45.40625 35.40625 
Q 44.1875 33.984375 37.640625 27.21875 
Q 31.109375 20.453125 19.1875 8.296875 
z
" id="DejaVuSans-50"/>
        <path d="M 31.78125 66.40625 
Q 24.171875 66.40625 20.328125 58.90625 
Q 16.5 51.421875 16.5 36.375 
Q 16.5 21.390625 20.328125 13.890625 
Q 24.171875 6.390625 31.78125 6.390625 
Q 39.453125 6.390625 43.28125 13.890625 
Q 47.125 21.390625 47.125 36.375 
Q 47.125 51.421875 43.28125 58.90625 
Q 39.453125 66.40625 31.78125 66.40625 
z
M 31.78125 74.21875 
Q 44.046875 74.21875 50.515625 64.515625 
Q 56.984375 54.828125 56.984375 36.375 
Q 56.984375 17.96875 50.515625 8.265625 
Q 44.046875 -1.421875 31.78125 -1.421875 
Q 19.53125 -1.421875 13.0625 8.265625 
Q 6.59375 17.96875 6.59375 36.375 
Q 6.59375 54.828125 13.0625 64.515625 
Q 19.53125 74.21875 31.78125 74.21875 
z
" id="DejaVuSans-48"/>
       </defs>
       <use xlink:href="#DejaVuSans-77"/>
       <use x="86.279297" xlink:href="#DejaVuSans-97"/>
       <use x="147.558594" xlink:href="#DejaVuSans-114"/>
       <use x="188.671875" xlink:href="#DejaVuSans-32"/>
       <use x="220.458984" xlink:href="#DejaVuSans-50"/>
       <use x="284.082031" xlink:href="#DejaVuSans-48"/>
       <use x="347.705078" xlink:href="#DejaVuSans-50"/>
       <use x="411.328125" xlink:href="#DejaVuSans-48"/>
      </g>
     </g>
    </g>
    <g id="xtick_2">
     <g id="line2d_2">
      <g>
       <use style="stroke:#000000;stroke-width:0.8;" x="86.199862" xlink:href="#m630f834123" y="252"/>
      </g>
     </g>
     <g id="text_2">
      <!-- Apr 2020 -->
      <g transform="translate(88.959237 304.928125)rotate(-90)scale(0.1 -0.1)">
       <defs>
        <path d="M 34.1875 63.1875 
L 20.796875 26.90625 
L 47.609375 26.90625 
z
M 28.609375 72.90625 
L 39.796875 72.90625 
L 67.578125 0 
L 57.328125 0 
L 50.6875 18.703125 
L 17.828125 18.703125 
L 11.1875 0 
L 0.78125 0 
z
" id="DejaVuSans-65"/>
        <path d="M 18.109375 8.203125 
L 18.109375 -20.796875 
L 9.078125 -20.796875 
L 9.078125 54.6875 
L 18.109375 54.6875 
L 18.109375 46.390625 
Q 20.953125 51.265625 25.265625 53.625 
Q 29.59375 56 35.59375 56 
Q 45.5625 56 51.78125 48.09375 
Q 58.015625 40.1875 58.015625 27.296875 
Q 58.015625 14.40625 51.78125 6.484375 
Q 45.5625 -1.421875 35.59375 -1.421875 
Q 29.59375 -1.421875 25.265625 0.953125 
Q 20.953125 3.328125 18.109375 8.203125 
z
M 48.6875 27.296875 
Q 48.6875 37.203125 44.609375 42.84375 
Q 40.53125 48.484375 33.40625 48.484375 
Q 26.265625 48.484375 22.1875 42.84375 
Q 18.109375 37.203125 18.109375 27.296875 
Q 18.109375 17.390625 22.1875 11.75 
Q 26.265625 6.109375 33.40625 6.109375 
Q 40.53125 6.109375 44.609375 11.75 
Q 48.6875 17.390625 48.6875 27.296875 
z
" id="DejaVuSans-112"/>
       </defs>
       <use xlink:href="#DejaVuSans-65"/>
       <use x="68.408203" xlink:href="#DejaVuSans-112"/>
       <use x="131.884766" xlink:href="#DejaVuSans-114"/>
       <use x="172.998047" xlink:href="#DejaVuSans-32"/>
       <use x="204.785156" xlink:href="#DejaVuSans-50"/>
       <use x="268.408203" xlink:href="#DejaVuSans-48"/>
       <use x="332.03125" xlink:href="#DejaVuSans-50"/>
       <use x="395.654297" xlink:href="#DejaVuSans-48"/>
      </g>
     </g>
    </g>
    <g id="xtick_3">
     <g id="line2d_3">
      <g>
       <use style="stroke:#000000;stroke-width:0.8;" x="129.556505" xlink:href="#m630f834123" y="252"/>
      </g>
     </g>
     <g id="text_3">
      <!-- May 2020 -->
      <g transform="translate(132.31588 308.303125)rotate(-90)scale(0.1 -0.1)">
       <defs>
        <path d="M 32.171875 -5.078125 
Q 28.375 -14.84375 24.75 -17.8125 
Q 21.140625 -20.796875 15.09375 -20.796875 
L 7.90625 -20.796875 
L 7.90625 -13.28125 
L 13.1875 -13.28125 
Q 16.890625 -13.28125 18.9375 -11.515625 
Q 21 -9.765625 23.484375 -3.21875 
L 25.09375 0.875 
L 2.984375 54.6875 
L 12.5 54.6875 
L 29.59375 11.921875 
L 46.6875 54.6875 
L 56.203125 54.6875 
z
" id="DejaVuSans-121"/>
       </defs>
       <use xlink:href="#DejaVuSans-77"/>
       <use x="86.279297" xlink:href="#DejaVuSans-97"/>
       <use x="147.558594" xlink:href="#DejaVuSans-121"/>
       <use x="206.738281" xlink:href="#DejaVuSans-32"/>
       <use x="238.525391" xlink:href="#DejaVuSans-50"/>
       <use x="302.148438" xlink:href="#DejaVuSans-48"/>
       <use x="365.771484" xlink:href="#DejaVuSans-50"/>
       <use x="429.394531" xlink:href="#DejaVuSans-48"/>
      </g>
     </g>
    </g>
    <g id="xtick_4">
     <g id="line2d_4">
      <g>
       <use style="stroke:#000000;stroke-width:0.8;" x="174.35837" xlink:href="#m630f834123" y="252"/>
      </g>
     </g>
     <g id="text_4">
      <!-- Jun 2020 -->
      <g transform="translate(177.117745 303.253125)rotate(-90)scale(0.1 -0.1)">
       <defs>
        <path d="M 9.8125 72.90625 
L 19.671875 72.90625 
L 19.671875 5.078125 
Q 19.671875 -8.109375 14.671875 -14.0625 
Q 9.671875 -20.015625 -1.421875 -20.015625 
L -5.171875 -20.015625 
L -5.171875 -11.71875 
L -2.09375 -11.71875 
Q 4.4375 -11.71875 7.125 -8.046875 
Q 9.8125 -4.390625 9.8125 5.078125 
z
" id="DejaVuSans-74"/>
        <path d="M 8.5 21.578125 
L 8.5 54.6875 
L 17.484375 54.6875 
L 17.484375 21.921875 
Q 17.484375 14.15625 20.5 10.265625 
Q 23.53125 6.390625 29.59375 6.390625 
Q 36.859375 6.390625 41.078125 11.03125 
Q 45.3125 15.671875 45.3125 23.6875 
L 45.3125 54.6875 
L 54.296875 54.6875 
L 54.296875 0 
L 45.3125 0 
L 45.3125 8.40625 
Q 42.046875 3.421875 37.71875 1 
Q 33.40625 -1.421875 27.6875 -1.421875 
Q 18.265625 -1.421875 13.375 4.4375 
Q 8.5 10.296875 8.5 21.578125 
z
M 31.109375 56 
z
" id="DejaVuSans-117"/>
        <path d="M 54.890625 33.015625 
L 54.890625 0 
L 45.90625 0 
L 45.90625 32.71875 
Q 45.90625 40.484375 42.875 44.328125 
Q 39.84375 48.1875 33.796875 48.1875 
Q 26.515625 48.1875 22.3125 43.546875 
Q 18.109375 38.921875 18.109375 30.90625 
L 18.109375 0 
L 9.078125 0 
L 9.078125 54.6875 
L 18.109375 54.6875 
L 18.109375 46.1875 
Q 21.34375 51.125 25.703125 53.5625 
Q 30.078125 56 35.796875 56 
Q 45.21875 56 50.046875 50.171875 
Q 54.890625 44.34375 54.890625 33.015625 
z
" id="DejaVuSans-110"/>
       </defs>
       <use xlink:href="#DejaVuSans-74"/>
       <use x="29.492188" xlink:href="#DejaVuSans-117"/>
       <use x="92.871094" xlink:href="#DejaVuSans-110"/>
       <use x="156.25" xlink:href="#DejaVuSans-32"/>
       <use x="188.037109" xlink:href="#DejaVuSans-50"/>
       <use x="251.660156" xlink:href="#DejaVuSans-48"/>
       <use x="315.283203" xlink:href="#DejaVuSans-50"/>
       <use x="378.90625" xlink:href="#DejaVuSans-48"/>
      </g>
     </g>
    </g>
    <g id="xtick_5">
     <g id="line2d_5">
      <g>
       <use style="stroke:#000000;stroke-width:0.8;" x="217.715013" xlink:href="#m630f834123" y="252"/>
      </g>
     </g>
     <g id="text_5">
      <!-- Jul 2020 -->
      <g transform="translate(220.474388 299.69375)rotate(-90)scale(0.1 -0.1)">
       <defs>
        <path d="M 9.421875 75.984375 
L 18.40625 75.984375 
L 18.40625 0 
L 9.421875 0 
z
" id="DejaVuSans-108"/>
       </defs>
       <use xlink:href="#DejaVuSans-74"/>
       <use x="29.492188" xlink:href="#DejaVuSans-117"/>
       <use x="92.871094" xlink:href="#DejaVuSans-108"/>
       <use x="120.654297" xlink:href="#DejaVuSans-32"/>
       <use x="152.441406" xlink:href="#DejaVuSans-50"/>
       <use x="216.064453" xlink:href="#DejaVuSans-48"/>
       <use x="279.6875" xlink:href="#DejaVuSans-50"/>
       <use x="343.310547" xlink:href="#DejaVuSans-48"/>
      </g>
     </g>
    </g>
    <g id="xtick_6">
     <g id="line2d_6">
      <g>
       <use style="stroke:#000000;stroke-width:0.8;" x="262.516878" xlink:href="#m630f834123" y="252"/>
      </g>
     </g>
     <g id="text_6">
      <!-- Aug 2020 -->
      <g transform="translate(265.276253 307.154687)rotate(-90)scale(0.1 -0.1)">
       <defs>
        <path d="M 45.40625 27.984375 
Q 45.40625 37.75 41.375 43.109375 
Q 37.359375 48.484375 30.078125 48.484375 
Q 22.859375 48.484375 18.828125 43.109375 
Q 14.796875 37.75 14.796875 27.984375 
Q 14.796875 18.265625 18.828125 12.890625 
Q 22.859375 7.515625 30.078125 7.515625 
Q 37.359375 7.515625 41.375 12.890625 
Q 45.40625 18.265625 45.40625 27.984375 
z
M 54.390625 6.78125 
Q 54.390625 -7.171875 48.1875 -13.984375 
Q 42 -20.796875 29.203125 -20.796875 
Q 24.46875 -20.796875 20.265625 -20.09375 
Q 16.0625 -19.390625 12.109375 -17.921875 
L 12.109375 -9.1875 
Q 16.0625 -11.328125 19.921875 -12.34375 
Q 23.78125 -13.375 27.78125 -13.375 
Q 36.625 -13.375 41.015625 -8.765625 
Q 45.40625 -4.15625 45.40625 5.171875 
L 45.40625 9.625 
Q 42.625 4.78125 38.28125 2.390625 
Q 33.9375 0 27.875 0 
Q 17.828125 0 11.671875 7.65625 
Q 5.515625 15.328125 5.515625 27.984375 
Q 5.515625 40.671875 11.671875 48.328125 
Q 17.828125 56 27.875 56 
Q 33.9375 56 38.28125 53.609375 
Q 42.625 51.21875 45.40625 46.390625 
L 45.40625 54.6875 
L 54.390625 54.6875 
z
" id="DejaVuSans-103"/>
       </defs>
       <use xlink:href="#DejaVuSans-65"/>
       <use x="68.408203" xlink:href="#DejaVuSans-117"/>
       <use x="131.787109" xlink:href="#DejaVuSans-103"/>
       <use x="195.263672" xlink:href="#DejaVuSans-32"/>
       <use x="227.050781" xlink:href="#DejaVuSans-50"/>
       <use x="290.673828" xlink:href="#DejaVuSans-48"/>
       <use x="354.296875" xlink:href="#DejaVuSans-50"/>
       <use x="417.919922" xlink:href="#DejaVuSans-48"/>
      </g>
     </g>
    </g>
    <g id="xtick_7">
     <g id="line2d_7">
      <g>
       <use style="stroke:#000000;stroke-width:0.8;" x="307.318743" xlink:href="#m630f834123" y="252"/>
      </g>
     </g>
     <g id="text_7">
      <!-- Sep 2020 -->
      <g transform="translate(310.078118 306.478125)rotate(-90)scale(0.1 -0.1)">
       <defs>
        <path d="M 53.515625 70.515625 
L 53.515625 60.890625 
Q 47.90625 63.578125 42.921875 64.890625 
Q 37.9375 66.21875 33.296875 66.21875 
Q 25.25 66.21875 20.875 63.09375 
Q 16.5 59.96875 16.5 54.203125 
Q 16.5 49.359375 19.40625 46.890625 
Q 22.3125 44.4375 30.421875 42.921875 
L 36.375 41.703125 
Q 47.40625 39.59375 52.65625 34.296875 
Q 57.90625 29 57.90625 20.125 
Q 57.90625 9.515625 50.796875 4.046875 
Q 43.703125 -1.421875 29.984375 -1.421875 
Q 24.8125 -1.421875 18.96875 -0.25 
Q 13.140625 0.921875 6.890625 3.21875 
L 6.890625 13.375 
Q 12.890625 10.015625 18.65625 8.296875 
Q 24.421875 6.59375 29.984375 6.59375 
Q 38.421875 6.59375 43.015625 9.90625 
Q 47.609375 13.234375 47.609375 19.390625 
Q 47.609375 24.75 44.3125 27.78125 
Q 41.015625 30.8125 33.5 32.328125 
L 27.484375 33.5 
Q 16.453125 35.6875 11.515625 40.375 
Q 6.59375 45.0625 6.59375 53.421875 
Q 6.59375 63.09375 13.40625 68.65625 
Q 20.21875 74.21875 32.171875 74.21875 
Q 37.3125 74.21875 42.625 73.28125 
Q 47.953125 72.359375 53.515625 70.515625 
z
" id="DejaVuSans-83"/>
        <path d="M 56.203125 29.59375 
L 56.203125 25.203125 
L 14.890625 25.203125 
Q 15.484375 15.921875 20.484375 11.0625 
Q 25.484375 6.203125 34.421875 6.203125 
Q 39.59375 6.203125 44.453125 7.46875 
Q 49.3125 8.734375 54.109375 11.28125 
L 54.109375 2.78125 
Q 49.265625 0.734375 44.1875 -0.34375 
Q 39.109375 -1.421875 33.890625 -1.421875 
Q 20.796875 -1.421875 13.15625 6.1875 
Q 5.515625 13.8125 5.515625 26.8125 
Q 5.515625 40.234375 12.765625 48.109375 
Q 20.015625 56 32.328125 56 
Q 43.359375 56 49.78125 48.890625 
Q 56.203125 41.796875 56.203125 29.59375 
z
M 47.21875 32.234375 
Q 47.125 39.59375 43.09375 43.984375 
Q 39.0625 48.390625 32.421875 48.390625 
Q 24.90625 48.390625 20.390625 44.140625 
Q 15.875 39.890625 15.1875 32.171875 
z
" id="DejaVuSans-101"/>
       </defs>
       <use xlink:href="#DejaVuSans-83"/>
       <use x="63.476562" xlink:href="#DejaVuSans-101"/>
       <use x="125" xlink:href="#DejaVuSans-112"/>
       <use x="188.476562" xlink:href="#DejaVuSans-32"/>
       <use x="220.263672" xlink:href="#DejaVuSans-50"/>
       <use x="283.886719" xlink:href="#DejaVuSans-48"/>
       <use x="347.509766" xlink:href="#DejaVuSans-50"/>
       <use x="411.132812" xlink:href="#DejaVuSans-48"/>
      </g>
     </g>
    </g>
    <g id="xtick_8">
     <g id="line2d_8">
      <g>
       <use style="stroke:#000000;stroke-width:0.8;" x="350.675386" xlink:href="#m630f834123" y="252"/>
      </g>
     </g>
     <g id="text_8">
      <!-- Oct 2020 -->
      <g transform="translate(353.434761 304.91875)rotate(-90)scale(0.1 -0.1)">
       <defs>
        <path d="M 39.40625 66.21875 
Q 28.65625 66.21875 22.328125 58.203125 
Q 16.015625 50.203125 16.015625 36.375 
Q 16.015625 22.609375 22.328125 14.59375 
Q 28.65625 6.59375 39.40625 6.59375 
Q 50.140625 6.59375 56.421875 14.59375 
Q 62.703125 22.609375 62.703125 36.375 
Q 62.703125 50.203125 56.421875 58.203125 
Q 50.140625 66.21875 39.40625 66.21875 
z
M 39.40625 74.21875 
Q 54.734375 74.21875 63.90625 63.9375 
Q 73.09375 53.65625 73.09375 36.375 
Q 73.09375 19.140625 63.90625 8.859375 
Q 54.734375 -1.421875 39.40625 -1.421875 
Q 24.03125 -1.421875 14.8125 8.828125 
Q 5.609375 19.09375 5.609375 36.375 
Q 5.609375 53.65625 14.8125 63.9375 
Q 24.03125 74.21875 39.40625 74.21875 
z
" id="DejaVuSans-79"/>
        <path d="M 48.78125 52.59375 
L 48.78125 44.1875 
Q 44.96875 46.296875 41.140625 47.34375 
Q 37.3125 48.390625 33.40625 48.390625 
Q 24.65625 48.390625 19.8125 42.84375 
Q 14.984375 37.3125 14.984375 27.296875 
Q 14.984375 17.28125 19.8125 11.734375 
Q 24.65625 6.203125 33.40625 6.203125 
Q 37.3125 6.203125 41.140625 7.25 
Q 44.96875 8.296875 48.78125 10.40625 
L 48.78125 2.09375 
Q 45.015625 0.34375 40.984375 -0.53125 
Q 36.96875 -1.421875 32.421875 -1.421875 
Q 20.0625 -1.421875 12.78125 6.34375 
Q 5.515625 14.109375 5.515625 27.296875 
Q 5.515625 40.671875 12.859375 48.328125 
Q 20.21875 56 33.015625 56 
Q 37.15625 56 41.109375 55.140625 
Q 45.0625 54.296875 48.78125 52.59375 
z
" id="DejaVuSans-99"/>
        <path d="M 18.3125 70.21875 
L 18.3125 54.6875 
L 36.8125 54.6875 
L 36.8125 47.703125 
L 18.3125 47.703125 
L 18.3125 18.015625 
Q 18.3125 11.328125 20.140625 9.421875 
Q 21.96875 7.515625 27.59375 7.515625 
L 36.8125 7.515625 
L 36.8125 0 
L 27.59375 0 
Q 17.1875 0 13.234375 3.875 
Q 9.28125 7.765625 9.28125 18.015625 
L 9.28125 47.703125 
L 2.6875 47.703125 
L 2.6875 54.6875 
L 9.28125 54.6875 
L 9.28125 70.21875 
z
" id="DejaVuSans-116"/>
       </defs>
       <use xlink:href="#DejaVuSans-79"/>
       <use x="78.710938" xlink:href="#DejaVuSans-99"/>
       <use x="133.691406" xlink:href="#DejaVuSans-116"/>
       <use x="172.900391" xlink:href="#DejaVuSans-32"/>
       <use x="204.6875" xlink:href="#DejaVuSans-50"/>
       <use x="268.310547" xlink:href="#DejaVuSans-48"/>
       <use x="331.933594" xlink:href="#DejaVuSans-50"/>
       <use x="395.556641" xlink:href="#DejaVuSans-48"/>
      </g>
     </g>
    </g>
    <g id="xtick_9">
     <g id="line2d_9">
      <g>
       <use style="stroke:#000000;stroke-width:0.8;" x="395.477251" xlink:href="#m630f834123" y="252"/>
      </g>
     </g>
     <g id="text_9">
      <!-- Nov 2020 -->
      <g transform="translate(398.236626 307.146875)rotate(-90)scale(0.1 -0.1)">
       <defs>
        <path d="M 9.8125 72.90625 
L 23.09375 72.90625 
L 55.421875 11.921875 
L 55.421875 72.90625 
L 64.984375 72.90625 
L 64.984375 0 
L 51.703125 0 
L 19.390625 60.984375 
L 19.390625 0 
L 9.8125 0 
z
" id="DejaVuSans-78"/>
        <path d="M 30.609375 48.390625 
Q 23.390625 48.390625 19.1875 42.75 
Q 14.984375 37.109375 14.984375 27.296875 
Q 14.984375 17.484375 19.15625 11.84375 
Q 23.34375 6.203125 30.609375 6.203125 
Q 37.796875 6.203125 41.984375 11.859375 
Q 46.1875 17.53125 46.1875 27.296875 
Q 46.1875 37.015625 41.984375 42.703125 
Q 37.796875 48.390625 30.609375 48.390625 
z
M 30.609375 56 
Q 42.328125 56 49.015625 48.375 
Q 55.71875 40.765625 55.71875 27.296875 
Q 55.71875 13.875 49.015625 6.21875 
Q 42.328125 -1.421875 30.609375 -1.421875 
Q 18.84375 -1.421875 12.171875 6.21875 
Q 5.515625 13.875 5.515625 27.296875 
Q 5.515625 40.765625 12.171875 48.375 
Q 18.84375 56 30.609375 56 
z
" id="DejaVuSans-111"/>
        <path d="M 2.984375 54.6875 
L 12.5 54.6875 
L 29.59375 8.796875 
L 46.6875 54.6875 
L 56.203125 54.6875 
L 35.6875 0 
L 23.484375 0 
z
" id="DejaVuSans-118"/>
       </defs>
       <use xlink:href="#DejaVuSans-78"/>
       <use x="74.804688" xlink:href="#DejaVuSans-111"/>
       <use x="135.986328" xlink:href="#DejaVuSans-118"/>
       <use x="195.166016" xlink:href="#DejaVuSans-32"/>
       <use x="226.953125" xlink:href="#DejaVuSans-50"/>
       <use x="290.576172" xlink:href="#DejaVuSans-48"/>
       <use x="354.199219" xlink:href="#DejaVuSans-50"/>
       <use x="417.822266" xlink:href="#DejaVuSans-48"/>
      </g>
     </g>
    </g>
    <g id="xtick_10">
     <g id="line2d_10">
      <g>
       <use style="stroke:#000000;stroke-width:0.8;" x="438.833894" xlink:href="#m630f834123" y="252"/>
      </g>
     </g>
     <g id="text_10">
      <!-- Dec 2020 -->
      <g transform="translate(441.593269 306.979687)rotate(-90)scale(0.1 -0.1)">
       <defs>
        <path d="M 19.671875 64.796875 
L 19.671875 8.109375 
L 31.59375 8.109375 
Q 46.6875 8.109375 53.6875 14.9375 
Q 60.6875 21.78125 60.6875 36.53125 
Q 60.6875 51.171875 53.6875 57.984375 
Q 46.6875 64.796875 31.59375 64.796875 
z
M 9.8125 72.90625 
L 30.078125 72.90625 
Q 51.265625 72.90625 61.171875 64.09375 
Q 71.09375 55.28125 71.09375 36.53125 
Q 71.09375 17.671875 61.125 8.828125 
Q 51.171875 0 30.078125 0 
L 9.8125 0 
z
" id="DejaVuSans-68"/>
       </defs>
       <use xlink:href="#DejaVuSans-68"/>
       <use x="77.001953" xlink:href="#DejaVuSans-101"/>
       <use x="138.525391" xlink:href="#DejaVuSans-99"/>
       <use x="193.505859" xlink:href="#DejaVuSans-32"/>
       <use x="225.292969" xlink:href="#DejaVuSans-50"/>
       <use x="288.916016" xlink:href="#DejaVuSans-48"/>
       <use x="352.539062" xlink:href="#DejaVuSans-50"/>
       <use x="416.162109" xlink:href="#DejaVuSans-48"/>
      </g>
     </g>
    </g>
    <g id="xtick_11">
     <g id="line2d_11">
      <g>
       <use style="stroke:#000000;stroke-width:0.8;" x="483.635759" xlink:href="#m630f834123" y="252"/>
      </g>
     </g>
     <g id="text_11">
      <!-- Jan 2021 -->
      <g transform="translate(486.395134 303.04375)rotate(-90)scale(0.1 -0.1)">
       <defs>
        <path d="M 12.40625 8.296875 
L 28.515625 8.296875 
L 28.515625 63.921875 
L 10.984375 60.40625 
L 10.984375 69.390625 
L 28.421875 72.90625 
L 38.28125 72.90625 
L 38.28125 8.296875 
L 54.390625 8.296875 
L 54.390625 0 
L 12.40625 0 
z
" id="DejaVuSans-49"/>
       </defs>
       <use xlink:href="#DejaVuSans-74"/>
       <use x="29.492188" xlink:href="#DejaVuSans-97"/>
       <use x="90.771484" xlink:href="#DejaVuSans-110"/>
       <use x="154.150391" xlink:href="#DejaVuSans-32"/>
       <use x="185.9375" xlink:href="#DejaVuSans-50"/>
       <use x="249.560547" xlink:href="#DejaVuSans-48"/>
       <use x="313.183594" xlink:href="#DejaVuSans-50"/>
       <use x="376.806641" xlink:href="#DejaVuSans-49"/>
      </g>
     </g>
    </g>
    <g id="xtick_12">
     <g id="line2d_12">
      <g>
       <use style="stroke:#000000;stroke-width:0.8;" x="528.437624" xlink:href="#m630f834123" y="252"/>
      </g>
     </g>
     <g id="text_12">
      <!-- Feb 2021 -->
      <g transform="translate(531.196999 305.33125)rotate(-90)scale(0.1 -0.1)">
       <defs>
        <path d="M 9.8125 72.90625 
L 51.703125 72.90625 
L 51.703125 64.59375 
L 19.671875 64.59375 
L 19.671875 43.109375 
L 48.578125 43.109375 
L 48.578125 34.8125 
L 19.671875 34.8125 
L 19.671875 0 
L 9.8125 0 
z
" id="DejaVuSans-70"/>
        <path d="M 48.6875 27.296875 
Q 48.6875 37.203125 44.609375 42.84375 
Q 40.53125 48.484375 33.40625 48.484375 
Q 26.265625 48.484375 22.1875 42.84375 
Q 18.109375 37.203125 18.109375 27.296875 
Q 18.109375 17.390625 22.1875 11.75 
Q 26.265625 6.109375 33.40625 6.109375 
Q 40.53125 6.109375 44.609375 11.75 
Q 48.6875 17.390625 48.6875 27.296875 
z
M 18.109375 46.390625 
Q 20.953125 51.265625 25.265625 53.625 
Q 29.59375 56 35.59375 56 
Q 45.5625 56 51.78125 48.09375 
Q 58.015625 40.1875 58.015625 27.296875 
Q 58.015625 14.40625 51.78125 6.484375 
Q 45.5625 -1.421875 35.59375 -1.421875 
Q 29.59375 -1.421875 25.265625 0.953125 
Q 20.953125 3.328125 18.109375 8.203125 
L 18.109375 0 
L 9.078125 0 
L 9.078125 75.984375 
L 18.109375 75.984375 
z
" id="DejaVuSans-98"/>
       </defs>
       <use xlink:href="#DejaVuSans-70"/>
       <use x="52.019531" xlink:href="#DejaVuSans-101"/>
       <use x="113.542969" xlink:href="#DejaVuSans-98"/>
       <use x="177.019531" xlink:href="#DejaVuSans-32"/>
       <use x="208.806641" xlink:href="#DejaVuSans-50"/>
       <use x="272.429688" xlink:href="#DejaVuSans-48"/>
       <use x="336.052734" xlink:href="#DejaVuSans-50"/>
       <use x="399.675781" xlink:href="#DejaVuSans-49"/>
      </g>
     </g>
    </g>
    <g id="xtick_13">
     <g id="line2d_13">
      <g>
       <use style="stroke:#000000;stroke-width:0.8;" x="568.903824" xlink:href="#m630f834123" y="252"/>
      </g>
     </g>
     <g id="text_13">
      <!-- Mar 2021 -->
      <g transform="translate(571.663199 306.495312)rotate(-90)scale(0.1 -0.1)">
       <use xlink:href="#DejaVuSans-77"/>
       <use x="86.279297" xlink:href="#DejaVuSans-97"/>
       <use x="147.558594" xlink:href="#DejaVuSans-114"/>
       <use x="188.671875" xlink:href="#DejaVuSans-32"/>
       <use x="220.458984" xlink:href="#DejaVuSans-50"/>
       <use x="284.082031" xlink:href="#DejaVuSans-48"/>
       <use x="347.705078" xlink:href="#DejaVuSans-50"/>
       <use x="411.328125" xlink:href="#DejaVuSans-49"/>
      </g>
     </g>
    </g>
    <g id="text_14">
     <!-- Start date -->
     <g transform="translate(294.525 319.901562)scale(0.1 -0.1)">
      <defs>
       <path d="M 45.40625 46.390625 
L 45.40625 75.984375 
L 54.390625 75.984375 
L 54.390625 0 
L 45.40625 0 
L 45.40625 8.203125 
Q 42.578125 3.328125 38.25 0.953125 
Q 33.9375 -1.421875 27.875 -1.421875 
Q 17.96875 -1.421875 11.734375 6.484375 
Q 5.515625 14.40625 5.515625 27.296875 
Q 5.515625 40.1875 11.734375 48.09375 
Q 17.96875 56 27.875 56 
Q 33.9375 56 38.25 53.625 
Q 42.578125 51.265625 45.40625 46.390625 
z
M 14.796875 27.296875 
Q 14.796875 17.390625 18.875 11.75 
Q 22.953125 6.109375 30.078125 6.109375 
Q 37.203125 6.109375 41.296875 11.75 
Q 45.40625 17.390625 45.40625 27.296875 
Q 45.40625 37.203125 41.296875 42.84375 
Q 37.203125 48.484375 30.078125 48.484375 
Q 22.953125 48.484375 18.875 42.84375 
Q 14.796875 37.203125 14.796875 27.296875 
z
" id="DejaVuSans-100"/>
      </defs>
      <use xlink:href="#DejaVuSans-83"/>
      <use x="63.476562" xlink:href="#DejaVuSans-116"/>
      <use x="102.685547" xlink:href="#DejaVuSans-97"/>
      <use x="163.964844" xlink:href="#DejaVuSans-114"/>
      <use x="205.078125" xlink:href="#DejaVuSans-116"/>
      <use x="244.287109" xlink:href="#DejaVuSans-32"/>
      <use x="276.074219" xlink:href="#DejaVuSans-100"/>
      <use x="339.550781" xlink:href="#DejaVuSans-97"/>
      <use x="400.830078" xlink:href="#DejaVuSans-116"/>
      <use x="440.039062" xlink:href="#DejaVuSans-101"/>
     </g>
    </g>
   </g>
   <g id="matplotlib.axis_2">
    <g id="ytick_1">
     <g id="line2d_14">
      <defs>
       <path d="M 0 0 
L -3.5 0 
" id="m45738a3114" style="stroke:#000000;stroke-width:0.8;"/>
      </defs>
      <g>
       <use style="stroke:#000000;stroke-width:0.8;" x="40.603125" xlink:href="#m45738a3114" y="240.872727"/>
      </g>
     </g>
     <g id="text_15">
      <!-- 0 -->
      <g transform="translate(27.240625 244.671946)scale(0.1 -0.1)">
       <use xlink:href="#DejaVuSans-48"/>
      </g>
     </g>
    </g>
    <g id="ytick_2">
     <g id="line2d_15">
      <g>
       <use style="stroke:#000000;stroke-width:0.8;" x="40.603125" xlink:href="#m45738a3114" y="206.1"/>
      </g>
     </g>
     <g id="text_16">
      <!-- 10 -->
      <g transform="translate(20.878125 209.899219)scale(0.1 -0.1)">
       <use xlink:href="#DejaVuSans-49"/>
       <use x="63.623047" xlink:href="#DejaVuSans-48"/>
      </g>
     </g>
    </g>
    <g id="ytick_3">
     <g id="line2d_16">
      <g>
       <use style="stroke:#000000;stroke-width:0.8;" x="40.603125" xlink:href="#m45738a3114" y="171.327273"/>
      </g>
     </g>
     <g id="text_17">
      <!-- 20 -->
      <g transform="translate(20.878125 175.126491)scale(0.1 -0.1)">
       <use xlink:href="#DejaVuSans-50"/>
       <use x="63.623047" xlink:href="#DejaVuSans-48"/>
      </g>
     </g>
    </g>
    <g id="ytick_4">
     <g id="line2d_17">
      <g>
       <use style="stroke:#000000;stroke-width:0.8;" x="40.603125" xlink:href="#m45738a3114" y="136.554545"/>
      </g>
     </g>
     <g id="text_18">
      <!-- 30 -->
      <g transform="translate(20.878125 140.353764)scale(0.1 -0.1)">
       <defs>
        <path d="M 40.578125 39.3125 
Q 47.65625 37.796875 51.625 33 
Q 55.609375 28.21875 55.609375 21.1875 
Q 55.609375 10.40625 48.1875 4.484375 
Q 40.765625 -1.421875 27.09375 -1.421875 
Q 22.515625 -1.421875 17.65625 -0.515625 
Q 12.796875 0.390625 7.625 2.203125 
L 7.625 11.71875 
Q 11.71875 9.328125 16.59375 8.109375 
Q 21.484375 6.890625 26.8125 6.890625 
Q 36.078125 6.890625 40.9375 10.546875 
Q 45.796875 14.203125 45.796875 21.1875 
Q 45.796875 27.640625 41.28125 31.265625 
Q 36.765625 34.90625 28.71875 34.90625 
L 20.21875 34.90625 
L 20.21875 43.015625 
L 29.109375 43.015625 
Q 36.375 43.015625 40.234375 45.921875 
Q 44.09375 48.828125 44.09375 54.296875 
Q 44.09375 59.90625 40.109375 62.90625 
Q 36.140625 65.921875 28.71875 65.921875 
Q 24.65625 65.921875 20.015625 65.03125 
Q 15.375 64.15625 9.8125 62.3125 
L 9.8125 71.09375 
Q 15.4375 72.65625 20.34375 73.4375 
Q 25.25 74.21875 29.59375 74.21875 
Q 40.828125 74.21875 47.359375 69.109375 
Q 53.90625 64.015625 53.90625 55.328125 
Q 53.90625 49.265625 50.4375 45.09375 
Q 46.96875 40.921875 40.578125 39.3125 
z
" id="DejaVuSans-51"/>
       </defs>
       <use xlink:href="#DejaVuSans-51"/>
       <use x="63.623047" xlink:href="#DejaVuSans-48"/>
      </g>
     </g>
    </g>
    <g id="ytick_5">
     <g id="line2d_18">
      <g>
       <use style="stroke:#000000;stroke-width:0.8;" x="40.603125" xlink:href="#m45738a3114" y="101.781818"/>
      </g>
     </g>
     <g id="text_19">
      <!-- 40 -->
      <g transform="translate(20.878125 105.581037)scale(0.1 -0.1)">
       <defs>
        <path d="M 37.796875 64.3125 
L 12.890625 25.390625 
L 37.796875 25.390625 
z
M 35.203125 72.90625 
L 47.609375 72.90625 
L 47.609375 25.390625 
L 58.015625 25.390625 
L 58.015625 17.1875 
L 47.609375 17.1875 
L 47.609375 0 
L 37.796875 0 
L 37.796875 17.1875 
L 4.890625 17.1875 
L 4.890625 26.703125 
z
" id="DejaVuSans-52"/>
       </defs>
       <use xlink:href="#DejaVuSans-52"/>
       <use x="63.623047" xlink:href="#DejaVuSans-48"/>
      </g>
     </g>
    </g>
    <g id="ytick_6">
     <g id="line2d_19">
      <g>
       <use style="stroke:#000000;stroke-width:0.8;" x="40.603125" xlink:href="#m45738a3114" y="67.009091"/>
      </g>
     </g>
     <g id="text_20">
      <!-- 50 -->
      <g transform="translate(20.878125 70.80831)scale(0.1 -0.1)">
       <defs>
        <path d="M 10.796875 72.90625 
L 49.515625 72.90625 
L 49.515625 64.59375 
L 19.828125 64.59375 
L 19.828125 46.734375 
Q 21.96875 47.46875 24.109375 47.828125 
Q 26.265625 48.1875 28.421875 48.1875 
Q 40.625 48.1875 47.75 41.5 
Q 54.890625 34.8125 54.890625 23.390625 
Q 54.890625 11.625 47.5625 5.09375 
Q 40.234375 -1.421875 26.90625 -1.421875 
Q 22.3125 -1.421875 17.546875 -0.640625 
Q 12.796875 0.140625 7.71875 1.703125 
L 7.71875 11.625 
Q 12.109375 9.234375 16.796875 8.0625 
Q 21.484375 6.890625 26.703125 6.890625 
Q 35.15625 6.890625 40.078125 11.328125 
Q 45.015625 15.765625 45.015625 23.390625 
Q 45.015625 31 40.078125 35.4375 
Q 35.15625 39.890625 26.703125 39.890625 
Q 22.75 39.890625 18.8125 39.015625 
Q 14.890625 38.140625 10.796875 36.28125 
z
" id="DejaVuSans-53"/>
       </defs>
       <use xlink:href="#DejaVuSans-53"/>
       <use x="63.623047" xlink:href="#DejaVuSans-48"/>
      </g>
     </g>
    </g>
    <g id="ytick_7">
     <g id="line2d_20">
      <g>
       <use style="stroke:#000000;stroke-width:0.8;" x="40.603125" xlink:href="#m45738a3114" y="32.236364"/>
      </g>
     </g>
     <g id="text_21">
      <!-- 60 -->
      <g transform="translate(20.878125 36.035582)scale(0.1 -0.1)">
       <defs>
        <path d="M 33.015625 40.375 
Q 26.375 40.375 22.484375 35.828125 
Q 18.609375 31.296875 18.609375 23.390625 
Q 18.609375 15.53125 22.484375 10.953125 
Q 26.375 6.390625 33.015625 6.390625 
Q 39.65625 6.390625 43.53125 10.953125 
Q 47.40625 15.53125 47.40625 23.390625 
Q 47.40625 31.296875 43.53125 35.828125 
Q 39.65625 40.375 33.015625 40.375 
z
M 52.59375 71.296875 
L 52.59375 62.3125 
Q 48.875 64.0625 45.09375 64.984375 
Q 41.3125 65.921875 37.59375 65.921875 
Q 27.828125 65.921875 22.671875 59.328125 
Q 17.53125 52.734375 16.796875 39.40625 
Q 19.671875 43.65625 24.015625 45.921875 
Q 28.375 48.1875 33.59375 48.1875 
Q 44.578125 48.1875 50.953125 41.515625 
Q 57.328125 34.859375 57.328125 23.390625 
Q 57.328125 12.15625 50.6875 5.359375 
Q 44.046875 -1.421875 33.015625 -1.421875 
Q 20.359375 -1.421875 13.671875 8.265625 
Q 6.984375 17.96875 6.984375 36.375 
Q 6.984375 53.65625 15.1875 63.9375 
Q 23.390625 74.21875 37.203125 74.21875 
Q 40.921875 74.21875 44.703125 73.484375 
Q 48.484375 72.75 52.59375 71.296875 
z
" id="DejaVuSans-54"/>
       </defs>
       <use xlink:href="#DejaVuSans-54"/>
       <use x="63.623047" xlink:href="#DejaVuSans-48"/>
      </g>
     </g>
    </g>
    <g id="text_22">
     <!-- Stay (in days) -->
     <g transform="translate(14.798437 164.197656)rotate(-90)scale(0.1 -0.1)">
      <defs>
       <path d="M 31 75.875 
Q 24.46875 64.65625 21.28125 53.65625 
Q 18.109375 42.671875 18.109375 31.390625 
Q 18.109375 20.125 21.3125 9.0625 
Q 24.515625 -2 31 -13.1875 
L 23.1875 -13.1875 
Q 15.875 -1.703125 12.234375 9.375 
Q 8.59375 20.453125 8.59375 31.390625 
Q 8.59375 42.28125 12.203125 53.3125 
Q 15.828125 64.359375 23.1875 75.875 
z
" id="DejaVuSans-40"/>
       <path d="M 9.421875 54.6875 
L 18.40625 54.6875 
L 18.40625 0 
L 9.421875 0 
z
M 9.421875 75.984375 
L 18.40625 75.984375 
L 18.40625 64.59375 
L 9.421875 64.59375 
z
" id="DejaVuSans-105"/>
       <path d="M 44.28125 53.078125 
L 44.28125 44.578125 
Q 40.484375 46.53125 36.375 47.5 
Q 32.28125 48.484375 27.875 48.484375 
Q 21.1875 48.484375 17.84375 46.4375 
Q 14.5 44.390625 14.5 40.28125 
Q 14.5 37.15625 16.890625 35.375 
Q 19.28125 33.59375 26.515625 31.984375 
L 29.59375 31.296875 
Q 39.15625 29.25 43.1875 25.515625 
Q 47.21875 21.78125 47.21875 15.09375 
Q 47.21875 7.46875 41.1875 3.015625 
Q 35.15625 -1.421875 24.609375 -1.421875 
Q 20.21875 -1.421875 15.453125 -0.5625 
Q 10.6875 0.296875 5.421875 2 
L 5.421875 11.28125 
Q 10.40625 8.6875 15.234375 7.390625 
Q 20.0625 6.109375 24.8125 6.109375 
Q 31.15625 6.109375 34.5625 8.28125 
Q 37.984375 10.453125 37.984375 14.40625 
Q 37.984375 18.0625 35.515625 20.015625 
Q 33.0625 21.96875 24.703125 23.78125 
L 21.578125 24.515625 
Q 13.234375 26.265625 9.515625 29.90625 
Q 5.8125 33.546875 5.8125 39.890625 
Q 5.8125 47.609375 11.28125 51.796875 
Q 16.75 56 26.8125 56 
Q 31.78125 56 36.171875 55.265625 
Q 40.578125 54.546875 44.28125 53.078125 
z
" id="DejaVuSans-115"/>
       <path d="M 8.015625 75.875 
L 15.828125 75.875 
Q 23.140625 64.359375 26.78125 53.3125 
Q 30.421875 42.28125 30.421875 31.390625 
Q 30.421875 20.453125 26.78125 9.375 
Q 23.140625 -1.703125 15.828125 -13.1875 
L 8.015625 -13.1875 
Q 14.5 -2 17.703125 9.0625 
Q 20.90625 20.125 20.90625 31.390625 
Q 20.90625 42.671875 17.703125 53.65625 
Q 14.5 64.65625 8.015625 75.875 
z
" id="DejaVuSans-41"/>
      </defs>
      <use xlink:href="#DejaVuSans-83"/>
      <use x="63.476562" xlink:href="#DejaVuSans-116"/>
      <use x="102.685547" xlink:href="#DejaVuSans-97"/>
      <use x="163.964844" xlink:href="#DejaVuSans-121"/>
      <use x="223.144531" xlink:href="#DejaVuSans-32"/>
      <use x="254.931641" xlink:href="#DejaVuSans-40"/>
      <use x="293.945312" xlink:href="#DejaVuSans-105"/>
      <use x="321.728516" xlink:href="#DejaVuSans-110"/>
      <use x="385.107422" xlink:href="#DejaVuSans-32"/>
      <use x="416.894531" xlink:href="#DejaVuSans-100"/>
      <use x="480.371094" xlink:href="#DejaVuSans-97"/>
      <use x="541.650391" xlink:href="#DejaVuSans-121"/>
      <use x="600.830078" xlink:href="#DejaVuSans-115"/>
      <use x="652.929688" xlink:href="#DejaVuSans-41"/>
     </g>
    </g>
   </g>
   <g id="line2d_21">
    <path clip-path="url(#pc14594bc34)" d="M 65.966761 225.225 
L 67.411983 188.713636 
L 68.857204 166.111364 
L 70.302426 202.622727 
L 71.747647 124.384091 
L 73.192869 233.918182 
L 74.63809 141.770455 
L 76.083311 86.134091 
L 77.528533 171.327273 
L 78.973754 158.577273 
L 80.418976 181.759091 
L 81.864197 122.065909 
L 83.309419 178.281818 
L 84.75464 124.384091 
L 86.199862 172.486364 
L 87.645083 206.1 
L 89.090304 181.759091 
L 90.535526 185.236364 
L 91.980747 206.1 
L 93.425969 185.236364 
L 94.87119 178.281818 
L 96.316412 157.418182 
L 97.761633 153.940909 
L 100.652076 206.1 
L 103.542519 167.85 
L 104.98774 176.543182 
L 106.432962 225.804545 
L 109.323405 157.418182 
L 110.768626 164.372727 
L 115.104291 98.304545 
L 116.549512 126.122727 
L 117.994733 196.5375 
L 119.439955 174.804545 
L 120.885176 233.918182 
L 122.330398 199.145455 
L 123.775619 211.895455 
L 125.220841 206.1 
L 126.666062 210.446591 
L 128.111284 197.986364 
L 129.556505 181.759091 
L 131.001726 162.634091 
L 132.446948 205.404545 
L 133.892169 209.577273 
L 135.337391 173.065909 
L 136.782612 214.213636 
L 138.227834 207.838636 
L 141.118277 223.486364 
L 142.563498 80.918182 
L 144.008719 203.781818 
L 145.453941 174.804545 
L 146.899162 195.668182 
L 148.344384 158.2875 
L 149.789605 181.759091 
L 151.234827 193.060227 
L 152.680048 200.884091 
L 154.12527 182.454545 
L 155.570491 180.020455 
L 157.015712 190.203896 
L 158.460934 178.281818 
L 159.906155 211.315909 
L 161.351377 193.929545 
L 162.796598 191.031818 
L 164.24182 182.752597 
L 165.687041 185.236364 
L 167.132263 216.531818 
L 168.577484 216.531818 
L 170.022705 202.622727 
L 171.467927 199.145455 
L 172.913148 201.463636 
L 174.35837 179.672727 
L 175.803591 186.540341 
L 177.248813 216.531818 
L 178.694034 226.963636 
L 181.584477 202.622727 
L 183.029698 176.543182 
L 184.47492 203.781818 
L 185.920141 178.977273 
L 187.365363 174.804545 
L 188.810584 199.145455 
L 190.255806 198.736364 
L 191.701027 208.418182 
L 193.146249 191.804545 
L 194.59147 120.906818 
L 196.036691 185.236364 
L 197.481913 189.029752 
L 198.927134 215.488636 
L 200.372356 165.004959 
L 201.817577 202.332955 
L 203.262799 210.112238 
L 204.70802 199.725 
L 206.153242 195.400699 
L 207.598463 200.781818 
L 209.043684 195.916558 
L 210.488906 162.634091 
L 211.934127 201.463636 
L 213.379349 188.930966 
L 214.82457 158.809091 
L 216.269792 192.922967 
L 217.715013 149.440909 
L 219.160235 185.394421 
L 220.605456 171.327273 
L 222.050677 139.229371 
L 223.495899 188.278977 
L 224.94112 189.445694 
L 226.386342 181.154348 
L 227.831563 171.327273 
L 229.276785 192.480682 
L 230.722006 198.565909 
L 232.167228 162.286364 
L 233.612449 179.275325 
L 235.05767 153.071591 
L 236.502892 174.684639 
L 237.948113 194.074432 
L 239.393335 197.24876 
L 240.838556 185.992292 
L 242.283778 140.901136 
L 243.728999 170.361364 
L 245.174221 183.690909 
L 246.619442 179.944862 
L 248.064663 183.289091 
L 249.509885 171.617045 
L 250.955106 179.037747 
L 252.400328 149.497727 
L 253.845549 184.463636 
L 255.290771 176.618775 
L 256.735992 200.781818 
L 258.181214 190.37668 
L 261.071656 178.393988 
L 262.516878 167.077273 
L 263.962099 190.452273 
L 265.407321 193.639773 
L 266.852542 183.971901 
L 268.297764 177.078147 
L 269.742985 181.090385 
L 271.188207 184.270455 
L 272.633428 170.892614 
L 274.078649 194.740909 
L 275.523871 193.494886 
L 276.969092 193.551581 
L 278.414314 206.244886 
L 279.859535 181.284917 
L 281.304757 194.277273 
L 282.749978 170.990762 
L 284.1952 204.477273 
L 285.640421 202.970455 
L 287.085642 191.82488 
L 288.530864 159.23961 
L 289.976085 177.525889 
L 291.421307 192.915341 
L 292.866528 191.781818 
L 294.31175 179.00625 
L 295.756971 206.768706 
L 297.202193 174.387273 
L 298.647414 181.262338 
L 300.092635 182.781818 
L 301.537857 192.795652 
L 302.983078 176.069008 
L 304.4283 165.190909 
L 305.873521 206.768706 
L 307.318743 190.360766 
L 308.763964 193.234091 
L 310.209186 186.975 
L 311.654407 202.236364 
L 313.099628 205.272078 
L 314.54485 192.577273 
L 315.990071 202.275 
L 317.435293 193.018831 
L 318.880514 211.233117 
L 320.325736 186.323011 
L 323.216179 203.009091 
L 324.6614 189.679545 
L 326.106622 179.730682 
L 327.551843 181.386526 
L 328.997064 176.325852 
L 330.442286 193.929545 
L 331.887507 172.022727 
L 333.332729 195.668182 
L 334.77795 209.142614 
L 336.223172 178.597934 
L 337.668393 200.409917 
L 339.113615 196.75483 
L 340.558836 186.517464 
L 342.004057 206.1 
L 343.449279 192.687662 
L 344.8945 202.275 
L 346.339722 163.837762 
L 347.784943 183.063068 
L 349.230165 178.977273 
L 350.675386 196.827273 
L 352.120608 162.85142 
L 353.565829 185.429545 
L 355.01105 195.016193 
L 356.456272 181.469318 
L 357.901493 171.906818 
L 359.346715 201.753409 
L 360.791936 189.783566 
L 362.237158 196.5375 
L 363.682379 190.104545 
L 365.127601 207.680579 
L 366.572822 191.53892 
L 368.018043 193.639773 
L 369.463265 184.213636 
L 370.908486 168.948086 
L 372.353708 164.807386 
L 373.798929 188.061648 
L 375.244151 213.402273 
L 376.689372 160.627972 
L 378.134594 190.452273 
L 379.579815 186.975 
L 381.025036 194.031818 
L 382.470258 204.227622 
L 383.915479 202.970455 
L 385.360701 184.433916 
L 386.805922 200.449432 
L 388.251144 182.026573 
L 389.696365 196.054545 
L 391.141587 181.963636 
L 392.586808 202.89021 
L 394.032029 188.945455 
L 395.477251 183.655785 
L 396.922472 209.080519 
L 398.367694 183.280398 
L 399.812915 204.535227 
L 401.258137 184.166434 
L 402.703358 197.540559 
L 404.14858 160.895455 
L 405.593801 178.745455 
L 407.039022 200.449432 
L 408.484244 183.845455 
L 409.929465 188.216883 
L 411.374687 185.771329 
L 412.819908 174.587216 
L 414.26513 208.534091 
L 415.710351 186.395455 
L 417.155573 186.105682 
L 418.600794 194.972727 
L 420.046015 191.242562 
L 421.491237 180.421678 
L 422.936458 202.275 
L 424.38168 177.315909 
L 425.826901 185.236364 
L 427.272123 199.145455 
L 428.717344 196.400239 
L 430.162566 191.031818 
L 431.607787 175.549675 
L 433.053008 196.203147 
L 434.49823 187.968506 
L 435.943451 204.495105 
L 437.388673 155.265584 
L 438.833894 195.146591 
L 440.279116 167.518831 
L 441.724337 198.179545 
L 443.169559 178.433004 
L 444.61478 183.15 
L 446.060001 183.339669 
L 447.505223 199.901383 
L 450.395666 186.33445 
L 451.840887 197.24876 
L 453.286109 191.942532 
L 454.73133 184.85 
L 456.176552 204.013636 
L 457.621773 185.968421 
L 459.066994 184.270455 
L 460.512216 177.807645 
L 461.957437 188.864822 
L 463.402659 168.284659 
L 466.293102 183.671591 
L 467.738323 191.495455 
L 469.183545 187.895455 
L 470.628766 189.582955 
L 472.073987 207.722727 
L 473.519209 196.131818 
L 474.96443 189.486364 
L 476.409652 185.410227 
L 477.854873 201.132468 
L 479.300095 180.178512 
L 480.745316 195.204545 
L 482.190538 187.471753 
L 483.635759 185.236364 
L 485.08098 180.986364 
L 486.526202 190.177751 
L 487.971423 210.190909 
L 489.416645 185.236364 
L 490.861866 197.290909 
L 492.307088 192.364773 
L 493.752309 209.080519 
L 495.197531 196.102841 
L 496.642752 188.713636 
L 498.087973 205.520455 
L 499.533195 191.75625 
L 500.978416 208.707955 
L 502.423638 214.358523 
L 503.868859 195.436364 
L 505.314081 221.168182 
L 506.759302 199.725 
L 508.204524 202.938843 
L 509.649745 210.858373 
L 511.094966 196.164935 
L 512.540188 212.475 
L 513.985409 208.881818 
L 515.430631 198.276136 
L 516.875852 200.884091 
L 518.321074 200.304545 
L 519.766295 198.877972 
L 521.211517 203.88719 
L 522.656738 209.577273 
L 524.101959 197.986364 
L 525.547181 196.363636 
L 526.992402 204.554545 
L 528.437624 199.145455 
L 529.882845 199.642208 
L 531.328067 205.106494 
L 532.773288 208.418182 
L 534.21851 194.509091 
L 535.663731 199.777686 
L 537.108953 197.754545 
L 538.554174 218.270455 
L 539.999395 211.473967 
L 541.444617 201.927273 
L 542.889838 203.665909 
L 544.33506 204.578693 
L 545.780281 210.156818 
L 547.225503 207.093506 
L 548.670724 211.026136 
L 551.561167 216.847934 
L 553.006388 223.486364 
L 554.45161 226.190909 
L 555.896831 216.966477 
L 557.342053 215.6625 
L 558.787274 222.854132 
L 560.232496 220.781818 
L 561.677717 222.713636 
L 563.122939 229.571591 
L 564.56816 226.015289 
L 566.013381 233.338636 
L 567.458603 232.527273 
L 568.903824 237.395455 
L 570.349046 232.179545 
L 573.239489 239.134091 
L 573.239489 239.134091 
" style="fill:none;stroke:#1f77b4;stroke-linecap:square;stroke-width:0.8;"/>
   </g>
   <g id="line2d_22">
    <path clip-path="url(#pc14594bc34)" d="M 40.603125 189.525078 
L 598.603125 189.525078 
" style="fill:none;stroke:#000000;stroke-dasharray:2.96,1.28;stroke-dashoffset:0;stroke-width:0.8;"/>
   </g>
   <g id="patch_3">
    <path d="M 40.603125 252 
L 40.603125 7.2 
" style="fill:none;stroke:#000000;stroke-linecap:square;stroke-linejoin:miter;stroke-width:0.8;"/>
   </g>
   <g id="patch_4">
    <path d="M 40.603125 252 
L 598.603125 252 
" style="fill:none;stroke:#000000;stroke-linecap:square;stroke-linejoin:miter;stroke-width:0.8;"/>
   </g>
   <g id="legend_1">
    <g id="patch_5">
     <path d="M 532.35625 29.878125 
L 591.603125 29.878125 
Q 593.603125 29.878125 593.603125 27.878125 
L 593.603125 14.2 
Q 593.603125 12.2 591.603125 12.2 
L 532.35625 12.2 
Q 530.35625 12.2 530.35625 14.2 
L 530.35625 27.878125 
Q 530.35625 29.878125 532.35625 29.878125 
z
" style="fill:#ffffff;opacity:0.8;stroke:#cccccc;stroke-linejoin:miter;"/>
    </g>
    <g id="line2d_23">
     <path d="M 534.35625 20.298437 
L 554.35625 20.298437 
" style="fill:none;stroke:#000000;stroke-dasharray:2.96,1.28;stroke-dashoffset:0;stroke-width:0.8;"/>
    </g>
    <g id="line2d_24"/>
    <g id="text_23">
     <!-- Mean -->
     <g transform="translate(562.35625 23.798437)scale(0.1 -0.1)">
      <use xlink:href="#DejaVuSans-77"/>
      <use x="86.279297" xlink:href="#DejaVuSans-101"/>
      <use x="147.802734" xlink:href="#DejaVuSans-97"/>
      <use x="209.082031" xlink:href="#DejaVuSans-110"/>
     </g>
    </g>
   </g>
  </g>
 </g>
 <defs>
  <clipPath id="pc14594bc34">
   <rect height="244.8" width="558" x="40.603125" y="7.2"/>
  </clipPath>
 </defs>
</svg>
