<?xml version="1.0" encoding="utf-8" standalone="no"?>
<!DOCTYPE svg PUBLIC "-//W3C//DTD SVG 1.1//EN"
  "http://www.w3.org/Graphics/SVG/1.1/DTD/svg11.dtd">
<!-- Created with matplotlib (https://matplotlib.org/) -->
<svg height="329.18125pt" version="1.1" viewBox="0 0 605.803125 329.18125" width="605.803125pt" xmlns="http://www.w3.org/2000/svg" xmlns:xlink="http://www.w3.org/1999/xlink">
 <metadata>
  <rdf:RDF xmlns:cc="http://creativecommons.org/ns#" xmlns:dc="http://purl.org/dc/elements/1.1/" xmlns:rdf="http://www.w3.org/1999/02/22-rdf-syntax-ns#">
   <cc:Work>
    <dc:type rdf:resource="http://purl.org/dc/dcmitype/StillImage"/>
    <dc:date>2021-03-14T22:04:25.170718</dc:date>
    <dc:format>image/svg+xml</dc:format>
    <dc:creator>
     <cc:Agent>
      <dc:title>Matplotlib v3.3.4, https://matplotlib.org/</dc:title>
     </cc:Agent>
    </dc:creator>
   </cc:Work>
  </rdf:RDF>
 </metadata>
 <defs>
  <style type="text/css">*{stroke-linecap:butt;stroke-linejoin:round;}</style>
 </defs>
 <g id="figure_1">
  <g id="patch_1">
   <path d="M 0 329.18125 
L 605.803125 329.18125 
L 605.803125 0 
L 0 0 
z
" style="fill:none;"/>
  </g>
  <g id="axes_1">
   <g id="patch_2">
    <path d="M 40.603125 252 
L 598.603125 252 
L 598.603125 7.2 
L 40.603125 7.2 
z
" style="fill:#ffffff;"/>
   </g>
   <g id="PolyCollection_1">
    <path clip-path="url(#pbb4e25a757)" d="M 65.966761 218.395753 
L 65.966761 229.63424 
L 65.966761 218.395753 
L 65.966761 218.395753 
z
" style="fill:#1f77b4;fill-opacity:0.2;stroke:#1f77b4;stroke-opacity:0.2;"/>
    <path clip-path="url(#pbb4e25a757)" d="M 68.857204 150.964832 
L 68.857204 169.695643 
L 68.857204 150.964832 
L 68.857204 150.964832 
z
" style="fill:#1f77b4;fill-opacity:0.2;stroke:#1f77b4;stroke-opacity:0.2;"/>
    <path clip-path="url(#pbb4e25a757)" d="M 71.747647 102.264722 
L 71.747647 128.487858 
L 73.192869 237.126565 
L 74.63809 233.380403 
L 76.083311 98.51856 
L 77.528533 218.395753 
L 78.973754 229.63424 
L 80.418976 218.395753 
L 81.864197 181.308747 
L 83.309419 180.93413 
L 84.75464 147.21867 
L 86.199862 173.441806 
L 87.645083 222.141916 
L 89.090304 220.331271 
L 89.090304 147.811812 
L 89.090304 147.811812 
L 87.645083 190.205882 
L 86.199862 162.203319 
L 84.75464 83.53391 
L 83.309419 165.949481 
L 81.864197 39.703811 
L 80.418976 106.010884 
L 78.973754 91.026235 
L 77.528533 113.503209 
L 76.083311 49.81845 
L 74.63809 34.8338 
L 73.192869 229.63424 
L 71.747647 102.264722 
z
" style="fill:#1f77b4;fill-opacity:0.2;stroke:#1f77b4;stroke-opacity:0.2;"/>
    <path clip-path="url(#pbb4e25a757)" d="M 94.87119 109.757047 
L 94.87119 237.126565 
L 96.316412 233.380403 
L 96.316412 35.520597 
L 96.316412 35.520597 
L 94.87119 109.757047 
z
" style="fill:#1f77b4;fill-opacity:0.2;stroke:#1f77b4;stroke-opacity:0.2;"/>
    <path clip-path="url(#pbb4e25a757)" d="M 103.542519 158.457157 
L 103.542519 165.949481 
L 104.98774 229.63424 
L 106.432962 231.600976 
L 107.878183 229.63424 
L 107.878183 158.457157 
L 107.878183 158.457157 
L 106.432962 218.988896 
L 104.98774 113.503209 
L 103.542519 158.457157 
z
" style="fill:#1f77b4;fill-opacity:0.2;stroke:#1f77b4;stroke-opacity:0.2;"/>
    <path clip-path="url(#pbb4e25a757)" d="M 110.768626 106.010884 
L 110.768626 210.903429 
L 110.768626 106.010884 
L 110.768626 106.010884 
z
" style="fill:#1f77b4;fill-opacity:0.2;stroke:#1f77b4;stroke-opacity:0.2;"/>
    <path clip-path="url(#pbb4e25a757)" d="M 117.994733 116.664033 
L 117.994733 237.126565 
L 119.439955 228.38552 
L 119.439955 111.005767 
L 119.439955 111.005767 
L 117.994733 116.664033 
z
" style="fill:#1f77b4;fill-opacity:0.2;stroke:#1f77b4;stroke-opacity:0.2;"/>
    <path clip-path="url(#pbb4e25a757)" d="M 122.330398 173.441806 
L 122.330398 218.395753 
L 123.775619 224.639357 
L 123.775619 194.670059 
L 123.775619 194.670059 
L 122.330398 173.441806 
z
" style="fill:#1f77b4;fill-opacity:0.2;stroke:#1f77b4;stroke-opacity:0.2;"/>
    <path clip-path="url(#pbb4e25a757)" d="M 126.666062 194.045698 
L 126.666062 222.141916 
L 128.111284 207.157267 
L 128.111284 179.560538 
L 128.111284 179.560538 
L 126.666062 194.045698 
z
" style="fill:#1f77b4;fill-opacity:0.2;stroke:#1f77b4;stroke-opacity:0.2;"/>
    <path clip-path="url(#pbb4e25a757)" d="M 131.001726 91.026235 
L 131.001726 222.141916 
L 132.446948 215.0804 
L 132.446948 185.429525 
L 132.446948 185.429525 
L 131.001726 91.026235 
z
" style="fill:#1f77b4;fill-opacity:0.2;stroke:#1f77b4;stroke-opacity:0.2;"/>
    <path clip-path="url(#pbb4e25a757)" d="M 135.337391 113.315901 
L 135.337391 200.289302 
L 136.782612 237.126565 
L 138.227834 233.380403 
L 141.118277 229.63424 
L 142.563498 76.041586 
L 144.008719 220.893195 
L 145.453941 205.070119 
L 146.899162 218.395753 
L 148.344384 201.538023 
L 148.344384 58.247315 
L 148.344384 58.247315 
L 146.899162 165.949481 
L 145.453941 130.093356 
L 144.008719 180.93413 
L 142.563498 61.056937 
L 141.118277 209.966888 
L 138.227834 177.187968 
L 136.782612 174.066166 
L 135.337391 113.315901 
z
" style="fill:#1f77b4;fill-opacity:0.2;stroke:#1f77b4;stroke-opacity:0.2;"/>
    <path clip-path="url(#pbb4e25a757)" d="M 151.234827 151.901372 
L 151.234827 225.888078 
L 152.680048 227.316302 
L 154.12527 211.690123 
L 155.570491 212.15215 
L 157.015712 217.124734 
L 157.015712 146.094821 
L 157.015712 146.094821 
L 155.570491 138.477624 
L 154.12527 124.704234 
L 152.680048 143.472507 
L 151.234827 151.901372 
z
" style="fill:#1f77b4;fill-opacity:0.2;stroke:#1f77b4;stroke-opacity:0.2;"/>
    <path clip-path="url(#pbb4e25a757)" d="M 159.906155 186.553374 
L 159.906155 231.507322 
L 161.351377 225.888078 
L 162.796598 225.888078 
L 164.24182 218.44927 
L 165.687041 226.473416 
L 167.132263 237.126565 
L 168.577484 218.395753 
L 170.022705 228.38552 
L 171.467927 218.395753 
L 172.913148 212.15215 
L 174.35837 220.680912 
L 175.803591 199.465927 
L 177.248813 229.821548 
L 178.694034 233.024517 
L 180.139256 226.985168 
L 181.584477 221.78603 
L 183.029698 208.121903 
L 184.47492 220.539391 
L 185.920141 200.451636 
L 187.365363 204.375741 
L 188.810584 200.913663 
L 190.255806 215.217025 
L 191.701027 228.406332 
L 193.146249 216.730792 
L 194.59147 181.390694 
L 196.036691 204.758282 
L 197.481913 229.813034 
L 198.927134 229.100412 
L 200.372356 188.852155 
L 201.817577 218.871828 
L 203.262799 217.970708 
L 204.70802 217.474822 
L 206.153242 206.292768 
L 207.598463 214.660609 
L 209.043684 210.916808 
L 210.488906 188.996184 
L 211.934127 211.722902 
L 213.379349 207.941619 
L 214.82457 205.540173 
L 216.269792 205.392627 
L 217.715013 184.851074 
L 219.160235 198.140935 
L 220.605456 203.087572 
L 222.050677 188.880317 
L 223.495899 200.83952 
L 224.94112 211.36677 
L 226.386342 199.66087 
L 227.831563 198.166477 
L 229.276785 202.334083 
L 230.722006 206.392425 
L 232.167228 185.012765 
L 233.612449 195.805057 
L 235.05767 181.50542 
L 236.502892 186.814959 
L 237.948113 211.781436 
L 239.393335 205.543863 
L 240.838556 197.286943 
L 242.283778 188.178272 
L 243.728999 198.759619 
L 245.174221 193.865328 
L 246.619442 202.938762 
L 248.064663 194.720008 
L 249.509885 195.606599 
L 250.955106 198.068751 
L 252.400328 183.265076 
L 253.845549 199.566085 
L 255.290771 202.0633 
L 256.735992 212.897709 
L 258.181214 203.659491 
L 259.626435 204.730405 
L 261.071656 202.003272 
L 262.516878 202.604639 
L 263.962099 200.229793 
L 265.407321 208.629716 
L 266.852542 202.082919 
L 268.297764 190.973125 
L 269.742985 195.014658 
L 271.188207 201.569241 
L 272.633428 193.82327 
L 274.078649 210.7848 
L 275.523871 210.556128 
L 276.969092 210.663186 
L 278.414314 214.419358 
L 279.859535 200.175782 
L 281.304757 213.238537 
L 282.749978 186.314707 
L 284.1952 217.659008 
L 285.640421 219.627304 
L 287.085642 209.148648 
L 288.530864 177.709755 
L 289.976085 199.591647 
L 291.421307 203.813036 
L 292.866528 203.967519 
L 294.31175 191.005844 
L 295.756971 215.971554 
L 297.202193 197.076344 
L 298.647414 198.480887 
L 300.092635 209.680417 
L 301.537857 203.846799 
L 302.983078 202.97689 
L 304.4283 201.543532 
L 305.873521 216.598316 
L 307.318743 207.388937 
L 308.763964 204.431933 
L 310.209186 224.358395 
L 311.654407 215.393621 
L 313.099628 214.497961 
L 314.54485 203.42151 
L 315.990071 214.410773 
L 317.435293 209.043727 
L 318.880514 221.530935 
L 320.325736 198.160624 
L 321.770957 204.85914 
L 323.216179 220.518579 
L 324.6614 200.190445 
L 326.106622 205.05005 
L 327.551843 195.192961 
L 328.997064 201.520463 
L 330.442286 208.754068 
L 331.887507 197.916733 
L 333.332729 208.062589 
L 334.77795 213.490622 
L 336.223172 196.30191 
L 337.668393 213.142612 
L 339.113615 213.15698 
L 340.558836 201.449298 
L 342.004057 219.223852 
L 343.449279 207.960016 
L 344.8945 220.287565 
L 346.339722 195.205568 
L 347.784943 201.895079 
L 349.230165 198.737767 
L 350.675386 214.431065 
L 352.120608 182.139926 
L 353.565829 205.393448 
L 355.01105 204.470566 
L 356.456272 202.014098 
L 357.901493 198.267936 
L 359.346715 219.182448 
L 360.791936 206.444055 
L 362.237158 212.331653 
L 363.682379 212.401894 
L 365.127601 219.953816 
L 366.572822 206.71241 
L 368.018043 214.368629 
L 369.463265 196.91592 
L 370.908486 187.558923 
L 372.353708 206.513395 
L 373.798929 200.77123 
L 375.244151 224.052459 
L 376.689372 191.747572 
L 378.134594 204.775778 
L 379.579815 209.976254 
L 381.025036 205.730419 
L 382.470258 218.698328 
L 383.915479 211.849335 
L 385.360701 216.011177 
L 386.805922 215.732466 
L 388.251144 198.966139 
L 389.696365 212.15215 
L 391.141587 201.43886 
L 392.586808 217.970708 
L 394.032029 208.181218 
L 395.477251 221.299029 
L 396.922472 223.49321 
L 398.367694 197.370417 
L 399.812915 217.468578 
L 401.258137 199.160651 
L 402.703358 212.43071 
L 404.14858 185.335871 
L 405.593801 196.730448 
L 407.039022 211.740462 
L 408.484244 205.092195 
L 409.929465 206.775961 
L 411.374687 206.926733 
L 412.819908 190.568792 
L 414.26513 228.529122 
L 415.710351 206.726458 
L 417.155573 199.680551 
L 418.600794 204.179067 
L 420.046015 205.292699 
L 421.491237 202.042314 
L 422.936458 210.439841 
L 424.38168 191.896858 
L 425.826901 194.341069 
L 427.272123 204.056277 
L 428.717344 212.096286 
L 430.162566 209.654708 
L 431.607787 203.692066 
L 433.053008 207.884886 
L 434.49823 213.311676 
L 435.943451 215.542907 
L 437.388673 184.55988 
L 438.833894 205.391888 
L 440.279116 183.110472 
L 441.724337 213.837923 
L 443.169559 188.520109 
L 444.61478 197.328273 
L 446.060001 202.942834 
L 447.505223 216.335364 
L 448.950444 205.003223 
L 450.395666 198.250273 
L 451.840887 212.94679 
L 453.286109 201.705262 
L 454.73133 200.913663 
L 456.176552 212.070983 
L 457.621773 205.31376 
L 459.066994 201.756549 
L 460.512216 195.974121 
L 461.957437 207.515595 
L 463.402659 194.227153 
L 464.84788 196.899025 
L 466.293102 204.258673 
L 467.738323 210.797288 
L 469.183545 209.647363 
L 470.628766 202.817962 
L 472.073987 217.028404 
L 473.519209 208.087563 
L 474.96443 206.345598 
L 476.409652 201.01356 
L 477.854873 212.366216 
L 479.300095 213.534256 
L 480.745316 212.788997 
L 482.190538 203.491379 
L 483.635759 200.695137 
L 485.08098 203.088518 
L 486.526202 202.164026 
L 487.971423 218.081737 
L 489.416645 209.184208 
L 490.861866 216.791147 
L 492.307088 203.518806 
L 493.752309 230.985535 
L 495.197531 218.641595 
L 496.642752 207.35394 
L 498.087973 215.469064 
L 499.533195 204.482272 
L 500.978416 217.932166 
L 502.423638 222.387758 
L 503.868859 208.037615 
L 505.314081 229.337669 
L 506.759302 216.257319 
L 508.204524 223.052914 
L 509.649745 219.909006 
L 511.094966 203.692066 
L 512.540188 223.25796 
L 513.985409 221.392683 
L 515.430631 210.622467 
L 516.875852 219.08255 
L 518.321074 213.876945 
L 519.766295 213.324026 
L 521.211517 215.168945 
L 522.656738 219.379121 
L 524.101959 211.395113 
L 525.547181 219.93168 
L 526.992402 209.873234 
L 528.437624 206.155889 
L 529.882845 217.35218 
L 531.328067 216.489224 
L 532.773288 222.781885 
L 534.21851 203.62963 
L 535.663731 212.299726 
L 537.108953 218.039868 
L 538.554174 229.903496 
L 539.999395 220.617909 
L 541.444617 208.668219 
L 542.889838 214.846265 
L 544.33506 209.867381 
L 545.780281 214.501306 
L 547.225503 220.897655 
L 548.670724 218.903046 
L 550.115946 221.845345 
L 551.561167 225.564546 
L 553.006388 232.568734 
L 554.45161 231.101487 
L 555.896831 221.462924 
L 557.342053 219.800564 
L 558.787274 227.088553 
L 560.232496 224.025403 
L 561.677717 228.38552 
L 563.122939 234.094515 
L 564.56816 228.61256 
L 566.013381 238.375286 
L 567.458603 237.875797 
L 568.903824 240.123495 
L 570.349046 233.083831 
L 573.239489 240.872727 
L 573.239489 237.126565 
L 573.239489 237.126565 
L 570.349046 230.258601 
L 568.903824 232.987056 
L 567.458603 228.885008 
L 566.013381 227.136799 
L 564.56816 221.103207 
L 563.122939 224.014997 
L 561.677717 215.658974 
L 560.232496 213.598584 
L 558.787274 215.637216 
L 557.342053 207.157267 
L 555.896831 211.137564 
L 554.45161 219.842188 
L 553.006388 210.268662 
L 551.561167 206.816706 
L 550.115946 202.458955 
L 548.670724 198.861078 
L 547.225503 190.005195 
L 545.780281 199.352762 
L 544.33506 195.093453 
L 542.889838 189.175687 
L 541.444617 188.495135 
L 539.999395 195.561191 
L 538.554174 201.491196 
L 537.108953 171.830956 
L 535.663731 176.941062 
L 534.21851 174.274286 
L 532.773288 180.918521 
L 531.328067 186.272412 
L 529.882845 177.669617 
L 528.437624 187.39626 
L 526.992402 189.831266 
L 525.547181 168.946411 
L 524.101959 173.707159 
L 522.656738 192.929654 
L 521.211517 183.982144 
L 519.766295 178.585575 
L 518.321074 175.447563 
L 516.875852 173.37937 
L 515.430631 181.347769 
L 513.985409 191.423385 
L 512.540188 199.321544 
L 511.094966 176.559148 
L 509.649745 199.955762 
L 508.204524 173.050162 
L 506.759302 169.633207 
L 505.314081 209.654708 
L 503.868859 169.283566 
L 502.423638 199.88737 
L 500.978416 193.474409 
L 499.533195 167.096743 
L 498.087973 185.983645 
L 496.642752 157.651732 
L 495.197531 171.077041 
L 493.752309 179.582836 
L 492.307088 175.029242 
L 490.861866 168.671692 
L 489.416645 148.242175 
L 487.971423 198.342767 
L 486.526202 171.618016 
L 485.08098 158.415532 
L 483.635759 154.696586 
L 482.190538 158.71136 
L 480.745316 171.343955 
L 479.300095 129.492511 
L 477.854873 180.93413 
L 476.409652 163.776707 
L 474.96443 167.614442 
L 473.519209 177.175481 
L 472.073987 186.534643 
L 470.628766 164.930993 
L 469.183545 157.900741 
L 467.738323 153.437299 
L 466.293102 152.350912 
L 464.84788 144.458997 
L 463.402659 125.853838 
L 461.957437 163.156147 
L 460.512216 137.040176 
L 459.066994 158.446751 
L 457.621773 151.280298 
L 456.176552 185.735462 
L 454.73133 156.552857 
L 453.286109 173.033742 
L 451.840887 176.48982 
L 450.395666 161.242132 
L 448.950444 173.68709 
L 447.505223 176.12927 
L 446.060001 161.845731 
L 444.61478 148.15521 
L 443.169559 151.942092 
L 441.724337 168.426111 
L 440.279116 143.735631 
L 438.833894 175.108848 
L 437.388673 113.64592 
L 435.943451 188.973971 
L 434.49823 157.232964 
L 433.053008 175.401337 
L 431.607787 143.546093 
L 430.162566 158.500862 
L 428.717344 174.398063 
L 427.272123 183.61888 
L 425.826901 168.391691 
L 424.38168 150.980441 
L 422.936458 179.243675 
L 421.491237 154.379603 
L 420.046015 167.814048 
L 418.600794 178.667702 
L 417.155573 158.956645 
L 415.710351 153.23126 
L 414.26513 167.251273 
L 412.819908 149.202965 
L 411.374687 158.017703 
L 409.929465 139.151041 
L 408.484244 158.70534 
L 407.039022 182.338941 
L 405.593801 151.364423 
L 404.14858 114.339852 
L 402.703358 174.673717 
L 401.258137 158.16899 
L 399.812915 183.055395 
L 398.367694 155.747042 
L 396.922472 186.539995 
L 395.477251 128.973156 
L 394.032029 146.594309 
L 392.586808 182.951295 
L 391.141587 158.005413 
L 389.696365 169.851734 
L 388.251144 146.188475 
L 386.805922 176.403615 
L 385.360701 143.097891 
L 383.915479 187.302606 
L 382.470258 186.063491 
L 381.025036 176.736225 
L 379.579815 158.045079 
L 378.134594 165.233697 
L 376.689372 110.643158 
L 375.244151 199.824154 
L 373.798929 160.64632 
L 372.353708 87.900531 
L 370.908486 144.359756 
L 369.463265 153.91218 
L 368.018043 167.018698 
L 366.572822 167.442093 
L 365.127601 184.663265 
L 363.682379 160.845335 
L 362.237158 174.553948 
L 360.791936 164.933695 
L 359.346715 173.769595 
L 357.901493 125.959199 
L 356.456272 146.235302 
L 355.01105 177.878667 
L 353.565829 151.755688 
L 352.120608 121.411123 
L 350.675386 170.585357 
L 349.230165 135.193489 
L 347.784943 150.607776 
L 346.339722 94.073594 
L 344.8945 178.864376 
L 343.449279 168.317591 
L 342.004057 190.077724 
L 340.558836 165.008011 
L 339.113615 175.824131 
L 337.668393 179.035507 
L 336.223172 142.148579 
L 334.77795 199.88737 
L 333.332729 178.043342 
L 331.887507 128.868718 
L 330.442286 170.327808 
L 328.997064 126.825499 
L 327.551843 157.734682 
L 326.106622 144.393439 
L 324.6614 170.585357 
L 323.216179 181.527273 
L 321.770957 174.590869 
L 320.325736 163.66081 
L 318.880514 194.041239 
L 317.435293 168.776942 
L 315.990071 186.810922 
L 314.54485 168.977629 
L 313.099628 191.423385 
L 311.654407 179.851906 
L 310.209186 131.929645 
L 308.763964 170.710229 
L 307.318743 163.327168 
L 305.873521 185.962633 
L 304.4283 106.247774 
L 302.983078 135.507655 
L 301.537857 180.10346 
L 300.092635 134.321955 
L 298.647414 152.697432 
L 297.202193 133.432792 
L 295.756971 192.165413 
L 294.31175 153.134484 
L 292.866528 168.549759 
L 291.421307 168.119133 
L 289.976085 148.627552 
L 288.530864 121.236358 
L 287.085642 174.368488 
L 285.640421 176.649457 
L 284.1952 187.864531 
L 282.749978 140.42724 
L 281.304757 166.505162 
L 279.859535 152.327073 
L 278.414314 191.384362 
L 276.969092 156.999411 
L 275.523871 163.822754 
L 274.078649 175.602093 
L 272.633428 137.150858 
L 271.188207 155.08561 
L 269.742985 159.152358 
L 268.297764 150.255222 
L 266.852542 153.574375 
L 265.407321 171.795055 
L 263.962099 167.389412 
L 262.516878 124.153756 
L 261.071656 141.847156 
L 259.626435 151.335376 
L 258.181214 170.974225 
L 256.735992 181.793544 
L 255.290771 125.055233 
L 253.845549 162.874506 
L 252.400328 100.891129 
L 250.955106 152.772762 
L 249.509885 142.949605 
L 248.064663 162.521743 
L 246.619442 152.00317 
L 245.174221 156.171304 
L 243.728999 131.708517 
L 242.283778 83.140563 
L 240.838556 167.07333 
L 239.393335 182.092035 
L 237.948113 169.680034 
L 236.502892 149.579398 
L 235.05767 116.195763 
L 233.612449 152.911498 
L 232.167228 99.380177 
L 230.722006 184.442255 
L 229.276785 173.590091 
L 227.831563 130.509684 
L 226.386342 152.793122 
L 224.94112 158.052965 
L 223.495899 166.64018 
L 222.050677 52.224638 
L 220.605456 113.613891 
L 219.160235 164.063629 
L 217.715013 105.663813 
L 216.269792 172.426399 
L 214.82457 64.178738 
L 213.379349 160.482426 
L 211.934127 182.807212 
L 210.488906 122.540825 
L 209.043684 171.401485 
L 207.598463 181.909234 
L 206.153242 173.27611 
L 204.70802 178.584974 
L 203.262799 193.037116 
L 201.817577 175.73633 
L 200.372356 112.59221 
L 198.927134 198.325689 
L 197.481913 134.600914 
L 196.036691 157.35492 
L 194.59147 18.327273 
L 193.146249 154.690182 
L 191.701027 180.913318 
L 190.255806 178.592779 
L 188.810584 189.61274 
L 187.365363 141.402753 
L 185.920141 146.394514 
L 184.47492 175.023519 
L 183.029698 131.053979 
L 181.584477 149.784791 
L 180.139256 202.05981 
L 178.694034 216.148056 
L 177.248813 203.411104 
L 175.803591 163.116446 
L 174.35837 129.986323 
L 172.913148 182.713557 
L 171.467927 173.441806 
L 170.022705 169.633207 
L 168.577484 210.903429 
L 167.132263 192.172617 
L 165.687041 120.058993 
L 164.24182 143.445749 
L 162.796598 132.23402 
L 161.351377 154.710994 
L 159.906155 186.553374 
z
" style="fill:#1f77b4;fill-opacity:0.2;stroke:#1f77b4;stroke-opacity:0.2;"/>
   </g>
   <g id="matplotlib.axis_1">
    <g id="xtick_1">
     <g id="line2d_1">
      <defs>
       <path d="M 0 0 
L 0 3.5 
" id="m6e6cd30114" style="stroke:#000000;stroke-width:0.8;"/>
      </defs>
      <g>
       <use style="stroke:#000000;stroke-width:0.8;" x="41.397997" xlink:href="#m6e6cd30114" y="252"/>
      </g>
     </g>
     <g id="text_1">
      <!-- Mar 2020 -->
      <g transform="translate(44.157372 306.495312)rotate(-90)scale(0.1 -0.1)">
       <defs>
        <path d="M 9.8125 72.90625 
L 24.515625 72.90625 
L 43.109375 23.296875 
L 61.8125 72.90625 
L 76.515625 72.90625 
L 76.515625 0 
L 66.890625 0 
L 66.890625 64.015625 
L 48.09375 14.015625 
L 38.1875 14.015625 
L 19.390625 64.015625 
L 19.390625 0 
L 9.8125 0 
z
" id="DejaVuSans-77"/>
        <path d="M 34.28125 27.484375 
Q 23.390625 27.484375 19.1875 25 
Q 14.984375 22.515625 14.984375 16.5 
Q 14.984375 11.71875 18.140625 8.90625 
Q 21.296875 6.109375 26.703125 6.109375 
Q 34.1875 6.109375 38.703125 11.40625 
Q 43.21875 16.703125 43.21875 25.484375 
L 43.21875 27.484375 
z
M 52.203125 31.203125 
L 52.203125 0 
L 43.21875 0 
L 43.21875 8.296875 
Q 40.140625 3.328125 35.546875 0.953125 
Q 30.953125 -1.421875 24.3125 -1.421875 
Q 15.921875 -1.421875 10.953125 3.296875 
Q 6 8.015625 6 15.921875 
Q 6 25.140625 12.171875 29.828125 
Q 18.359375 34.515625 30.609375 34.515625 
L 43.21875 34.515625 
L 43.21875 35.40625 
Q 43.21875 41.609375 39.140625 45 
Q 35.0625 48.390625 27.6875 48.390625 
Q 23 48.390625 18.546875 47.265625 
Q 14.109375 46.140625 10.015625 43.890625 
L 10.015625 52.203125 
Q 14.9375 54.109375 19.578125 55.046875 
Q 24.21875 56 28.609375 56 
Q 40.484375 56 46.34375 49.84375 
Q 52.203125 43.703125 52.203125 31.203125 
z
" id="DejaVuSans-97"/>
        <path d="M 41.109375 46.296875 
Q 39.59375 47.171875 37.8125 47.578125 
Q 36.03125 48 33.890625 48 
Q 26.265625 48 22.1875 43.046875 
Q 18.109375 38.09375 18.109375 28.8125 
L 18.109375 0 
L 9.078125 0 
L 9.078125 54.6875 
L 18.109375 54.6875 
L 18.109375 46.1875 
Q 20.953125 51.171875 25.484375 53.578125 
Q 30.03125 56 36.53125 56 
Q 37.453125 56 38.578125 55.875 
Q 39.703125 55.765625 41.0625 55.515625 
z
" id="DejaVuSans-114"/>
        <path id="DejaVuSans-32"/>
        <path d="M 19.1875 8.296875 
L 53.609375 8.296875 
L 53.609375 0 
L 7.328125 0 
L 7.328125 8.296875 
Q 12.9375 14.109375 22.625 23.890625 
Q 32.328125 33.6875 34.8125 36.53125 
Q 39.546875 41.84375 41.421875 45.53125 
Q 43.3125 49.21875 43.3125 52.78125 
Q 43.3125 58.59375 39.234375 62.25 
Q 35.15625 65.921875 28.609375 65.921875 
Q 23.96875 65.921875 18.8125 64.3125 
Q 13.671875 62.703125 7.8125 59.421875 
L 7.8125 69.390625 
Q 13.765625 71.78125 18.9375 73 
Q 24.125 74.21875 28.421875 74.21875 
Q 39.75 74.21875 46.484375 68.546875 
Q 53.21875 62.890625 53.21875 53.421875 
Q 53.21875 48.921875 51.53125 44.890625 
Q 49.859375 40.875 45.40625 35.40625 
Q 44.1875 33.984375 37.640625 27.21875 
Q 31.109375 20.453125 19.1875 8.296875 
z
" id="DejaVuSans-50"/>
        <path d="M 31.78125 66.40625 
Q 24.171875 66.40625 20.328125 58.90625 
Q 16.5 51.421875 16.5 36.375 
Q 16.5 21.390625 20.328125 13.890625 
Q 24.171875 6.390625 31.78125 6.390625 
Q 39.453125 6.390625 43.28125 13.890625 
Q 47.125 21.390625 47.125 36.375 
Q 47.125 51.421875 43.28125 58.90625 
Q 39.453125 66.40625 31.78125 66.40625 
z
M 31.78125 74.21875 
Q 44.046875 74.21875 50.515625 64.515625 
Q 56.984375 54.828125 56.984375 36.375 
Q 56.984375 17.96875 50.515625 8.265625 
Q 44.046875 -1.421875 31.78125 -1.421875 
Q 19.53125 -1.421875 13.0625 8.265625 
Q 6.59375 17.96875 6.59375 36.375 
Q 6.59375 54.828125 13.0625 64.515625 
Q 19.53125 74.21875 31.78125 74.21875 
z
" id="DejaVuSans-48"/>
       </defs>
       <use xlink:href="#DejaVuSans-77"/>
       <use x="86.279297" xlink:href="#DejaVuSans-97"/>
       <use x="147.558594" xlink:href="#DejaVuSans-114"/>
       <use x="188.671875" xlink:href="#DejaVuSans-32"/>
       <use x="220.458984" xlink:href="#DejaVuSans-50"/>
       <use x="284.082031" xlink:href="#DejaVuSans-48"/>
       <use x="347.705078" xlink:href="#DejaVuSans-50"/>
       <use x="411.328125" xlink:href="#DejaVuSans-48"/>
      </g>
     </g>
    </g>
    <g id="xtick_2">
     <g id="line2d_2">
      <g>
       <use style="stroke:#000000;stroke-width:0.8;" x="86.199862" xlink:href="#m6e6cd30114" y="252"/>
      </g>
     </g>
     <g id="text_2">
      <!-- Apr 2020 -->
      <g transform="translate(88.959237 304.928125)rotate(-90)scale(0.1 -0.1)">
       <defs>
        <path d="M 34.1875 63.1875 
L 20.796875 26.90625 
L 47.609375 26.90625 
z
M 28.609375 72.90625 
L 39.796875 72.90625 
L 67.578125 0 
L 57.328125 0 
L 50.6875 18.703125 
L 17.828125 18.703125 
L 11.1875 0 
L 0.78125 0 
z
" id="DejaVuSans-65"/>
        <path d="M 18.109375 8.203125 
L 18.109375 -20.796875 
L 9.078125 -20.796875 
L 9.078125 54.6875 
L 18.109375 54.6875 
L 18.109375 46.390625 
Q 20.953125 51.265625 25.265625 53.625 
Q 29.59375 56 35.59375 56 
Q 45.5625 56 51.78125 48.09375 
Q 58.015625 40.1875 58.015625 27.296875 
Q 58.015625 14.40625 51.78125 6.484375 
Q 45.5625 -1.421875 35.59375 -1.421875 
Q 29.59375 -1.421875 25.265625 0.953125 
Q 20.953125 3.328125 18.109375 8.203125 
z
M 48.6875 27.296875 
Q 48.6875 37.203125 44.609375 42.84375 
Q 40.53125 48.484375 33.40625 48.484375 
Q 26.265625 48.484375 22.1875 42.84375 
Q 18.109375 37.203125 18.109375 27.296875 
Q 18.109375 17.390625 22.1875 11.75 
Q 26.265625 6.109375 33.40625 6.109375 
Q 40.53125 6.109375 44.609375 11.75 
Q 48.6875 17.390625 48.6875 27.296875 
z
" id="DejaVuSans-112"/>
       </defs>
       <use xlink:href="#DejaVuSans-65"/>
       <use x="68.408203" xlink:href="#DejaVuSans-112"/>
       <use x="131.884766" xlink:href="#DejaVuSans-114"/>
       <use x="172.998047" xlink:href="#DejaVuSans-32"/>
       <use x="204.785156" xlink:href="#DejaVuSans-50"/>
       <use x="268.408203" xlink:href="#DejaVuSans-48"/>
       <use x="332.03125" xlink:href="#DejaVuSans-50"/>
       <use x="395.654297" xlink:href="#DejaVuSans-48"/>
      </g>
     </g>
    </g>
    <g id="xtick_3">
     <g id="line2d_3">
      <g>
       <use style="stroke:#000000;stroke-width:0.8;" x="129.556505" xlink:href="#m6e6cd30114" y="252"/>
      </g>
     </g>
     <g id="text_3">
      <!-- May 2020 -->
      <g transform="translate(132.31588 308.303125)rotate(-90)scale(0.1 -0.1)">
       <defs>
        <path d="M 32.171875 -5.078125 
Q 28.375 -14.84375 24.75 -17.8125 
Q 21.140625 -20.796875 15.09375 -20.796875 
L 7.90625 -20.796875 
L 7.90625 -13.28125 
L 13.1875 -13.28125 
Q 16.890625 -13.28125 18.9375 -11.515625 
Q 21 -9.765625 23.484375 -3.21875 
L 25.09375 0.875 
L 2.984375 54.6875 
L 12.5 54.6875 
L 29.59375 11.921875 
L 46.6875 54.6875 
L 56.203125 54.6875 
z
" id="DejaVuSans-121"/>
       </defs>
       <use xlink:href="#DejaVuSans-77"/>
       <use x="86.279297" xlink:href="#DejaVuSans-97"/>
       <use x="147.558594" xlink:href="#DejaVuSans-121"/>
       <use x="206.738281" xlink:href="#DejaVuSans-32"/>
       <use x="238.525391" xlink:href="#DejaVuSans-50"/>
       <use x="302.148438" xlink:href="#DejaVuSans-48"/>
       <use x="365.771484" xlink:href="#DejaVuSans-50"/>
       <use x="429.394531" xlink:href="#DejaVuSans-48"/>
      </g>
     </g>
    </g>
    <g id="xtick_4">
     <g id="line2d_4">
      <g>
       <use style="stroke:#000000;stroke-width:0.8;" x="174.35837" xlink:href="#m6e6cd30114" y="252"/>
      </g>
     </g>
     <g id="text_4">
      <!-- Jun 2020 -->
      <g transform="translate(177.117745 303.253125)rotate(-90)scale(0.1 -0.1)">
       <defs>
        <path d="M 9.8125 72.90625 
L 19.671875 72.90625 
L 19.671875 5.078125 
Q 19.671875 -8.109375 14.671875 -14.0625 
Q 9.671875 -20.015625 -1.421875 -20.015625 
L -5.171875 -20.015625 
L -5.171875 -11.71875 
L -2.09375 -11.71875 
Q 4.4375 -11.71875 7.125 -8.046875 
Q 9.8125 -4.390625 9.8125 5.078125 
z
" id="DejaVuSans-74"/>
        <path d="M 8.5 21.578125 
L 8.5 54.6875 
L 17.484375 54.6875 
L 17.484375 21.921875 
Q 17.484375 14.15625 20.5 10.265625 
Q 23.53125 6.390625 29.59375 6.390625 
Q 36.859375 6.390625 41.078125 11.03125 
Q 45.3125 15.671875 45.3125 23.6875 
L 45.3125 54.6875 
L 54.296875 54.6875 
L 54.296875 0 
L 45.3125 0 
L 45.3125 8.40625 
Q 42.046875 3.421875 37.71875 1 
Q 33.40625 -1.421875 27.6875 -1.421875 
Q 18.265625 -1.421875 13.375 4.4375 
Q 8.5 10.296875 8.5 21.578125 
z
M 31.109375 56 
z
" id="DejaVuSans-117"/>
        <path d="M 54.890625 33.015625 
L 54.890625 0 
L 45.90625 0 
L 45.90625 32.71875 
Q 45.90625 40.484375 42.875 44.328125 
Q 39.84375 48.1875 33.796875 48.1875 
Q 26.515625 48.1875 22.3125 43.546875 
Q 18.109375 38.921875 18.109375 30.90625 
L 18.109375 0 
L 9.078125 0 
L 9.078125 54.6875 
L 18.109375 54.6875 
L 18.109375 46.1875 
Q 21.34375 51.125 25.703125 53.5625 
Q 30.078125 56 35.796875 56 
Q 45.21875 56 50.046875 50.171875 
Q 54.890625 44.34375 54.890625 33.015625 
z
" id="DejaVuSans-110"/>
       </defs>
       <use xlink:href="#DejaVuSans-74"/>
       <use x="29.492188" xlink:href="#DejaVuSans-117"/>
       <use x="92.871094" xlink:href="#DejaVuSans-110"/>
       <use x="156.25" xlink:href="#DejaVuSans-32"/>
       <use x="188.037109" xlink:href="#DejaVuSans-50"/>
       <use x="251.660156" xlink:href="#DejaVuSans-48"/>
       <use x="315.283203" xlink:href="#DejaVuSans-50"/>
       <use x="378.90625" xlink:href="#DejaVuSans-48"/>
      </g>
     </g>
    </g>
    <g id="xtick_5">
     <g id="line2d_5">
      <g>
       <use style="stroke:#000000;stroke-width:0.8;" x="217.715013" xlink:href="#m6e6cd30114" y="252"/>
      </g>
     </g>
     <g id="text_5">
      <!-- Jul 2020 -->
      <g transform="translate(220.474388 299.69375)rotate(-90)scale(0.1 -0.1)">
       <defs>
        <path d="M 9.421875 75.984375 
L 18.40625 75.984375 
L 18.40625 0 
L 9.421875 0 
z
" id="DejaVuSans-108"/>
       </defs>
       <use xlink:href="#DejaVuSans-74"/>
       <use x="29.492188" xlink:href="#DejaVuSans-117"/>
       <use x="92.871094" xlink:href="#DejaVuSans-108"/>
       <use x="120.654297" xlink:href="#DejaVuSans-32"/>
       <use x="152.441406" xlink:href="#DejaVuSans-50"/>
       <use x="216.064453" xlink:href="#DejaVuSans-48"/>
       <use x="279.6875" xlink:href="#DejaVuSans-50"/>
       <use x="343.310547" xlink:href="#DejaVuSans-48"/>
      </g>
     </g>
    </g>
    <g id="xtick_6">
     <g id="line2d_6">
      <g>
       <use style="stroke:#000000;stroke-width:0.8;" x="262.516878" xlink:href="#m6e6cd30114" y="252"/>
      </g>
     </g>
     <g id="text_6">
      <!-- Aug 2020 -->
      <g transform="translate(265.276253 307.154687)rotate(-90)scale(0.1 -0.1)">
       <defs>
        <path d="M 45.40625 27.984375 
Q 45.40625 37.75 41.375 43.109375 
Q 37.359375 48.484375 30.078125 48.484375 
Q 22.859375 48.484375 18.828125 43.109375 
Q 14.796875 37.75 14.796875 27.984375 
Q 14.796875 18.265625 18.828125 12.890625 
Q 22.859375 7.515625 30.078125 7.515625 
Q 37.359375 7.515625 41.375 12.890625 
Q 45.40625 18.265625 45.40625 27.984375 
z
M 54.390625 6.78125 
Q 54.390625 -7.171875 48.1875 -13.984375 
Q 42 -20.796875 29.203125 -20.796875 
Q 24.46875 -20.796875 20.265625 -20.09375 
Q 16.0625 -19.390625 12.109375 -17.921875 
L 12.109375 -9.1875 
Q 16.0625 -11.328125 19.921875 -12.34375 
Q 23.78125 -13.375 27.78125 -13.375 
Q 36.625 -13.375 41.015625 -8.765625 
Q 45.40625 -4.15625 45.40625 5.171875 
L 45.40625 9.625 
Q 42.625 4.78125 38.28125 2.390625 
Q 33.9375 0 27.875 0 
Q 17.828125 0 11.671875 7.65625 
Q 5.515625 15.328125 5.515625 27.984375 
Q 5.515625 40.671875 11.671875 48.328125 
Q 17.828125 56 27.875 56 
Q 33.9375 56 38.28125 53.609375 
Q 42.625 51.21875 45.40625 46.390625 
L 45.40625 54.6875 
L 54.390625 54.6875 
z
" id="DejaVuSans-103"/>
       </defs>
       <use xlink:href="#DejaVuSans-65"/>
       <use x="68.408203" xlink:href="#DejaVuSans-117"/>
       <use x="131.787109" xlink:href="#DejaVuSans-103"/>
       <use x="195.263672" xlink:href="#DejaVuSans-32"/>
       <use x="227.050781" xlink:href="#DejaVuSans-50"/>
       <use x="290.673828" xlink:href="#DejaVuSans-48"/>
       <use x="354.296875" xlink:href="#DejaVuSans-50"/>
       <use x="417.919922" xlink:href="#DejaVuSans-48"/>
      </g>
     </g>
    </g>
    <g id="xtick_7">
     <g id="line2d_7">
      <g>
       <use style="stroke:#000000;stroke-width:0.8;" x="307.318743" xlink:href="#m6e6cd30114" y="252"/>
      </g>
     </g>
     <g id="text_7">
      <!-- Sep 2020 -->
      <g transform="translate(310.078118 306.478125)rotate(-90)scale(0.1 -0.1)">
       <defs>
        <path d="M 53.515625 70.515625 
L 53.515625 60.890625 
Q 47.90625 63.578125 42.921875 64.890625 
Q 37.9375 66.21875 33.296875 66.21875 
Q 25.25 66.21875 20.875 63.09375 
Q 16.5 59.96875 16.5 54.203125 
Q 16.5 49.359375 19.40625 46.890625 
Q 22.3125 44.4375 30.421875 42.921875 
L 36.375 41.703125 
Q 47.40625 39.59375 52.65625 34.296875 
Q 57.90625 29 57.90625 20.125 
Q 57.90625 9.515625 50.796875 4.046875 
Q 43.703125 -1.421875 29.984375 -1.421875 
Q 24.8125 -1.421875 18.96875 -0.25 
Q 13.140625 0.921875 6.890625 3.21875 
L 6.890625 13.375 
Q 12.890625 10.015625 18.65625 8.296875 
Q 24.421875 6.59375 29.984375 6.59375 
Q 38.421875 6.59375 43.015625 9.90625 
Q 47.609375 13.234375 47.609375 19.390625 
Q 47.609375 24.75 44.3125 27.78125 
Q 41.015625 30.8125 33.5 32.328125 
L 27.484375 33.5 
Q 16.453125 35.6875 11.515625 40.375 
Q 6.59375 45.0625 6.59375 53.421875 
Q 6.59375 63.09375 13.40625 68.65625 
Q 20.21875 74.21875 32.171875 74.21875 
Q 37.3125 74.21875 42.625 73.28125 
Q 47.953125 72.359375 53.515625 70.515625 
z
" id="DejaVuSans-83"/>
        <path d="M 56.203125 29.59375 
L 56.203125 25.203125 
L 14.890625 25.203125 
Q 15.484375 15.921875 20.484375 11.0625 
Q 25.484375 6.203125 34.421875 6.203125 
Q 39.59375 6.203125 44.453125 7.46875 
Q 49.3125 8.734375 54.109375 11.28125 
L 54.109375 2.78125 
Q 49.265625 0.734375 44.1875 -0.34375 
Q 39.109375 -1.421875 33.890625 -1.421875 
Q 20.796875 -1.421875 13.15625 6.1875 
Q 5.515625 13.8125 5.515625 26.8125 
Q 5.515625 40.234375 12.765625 48.109375 
Q 20.015625 56 32.328125 56 
Q 43.359375 56 49.78125 48.890625 
Q 56.203125 41.796875 56.203125 29.59375 
z
M 47.21875 32.234375 
Q 47.125 39.59375 43.09375 43.984375 
Q 39.0625 48.390625 32.421875 48.390625 
Q 24.90625 48.390625 20.390625 44.140625 
Q 15.875 39.890625 15.1875 32.171875 
z
" id="DejaVuSans-101"/>
       </defs>
       <use xlink:href="#DejaVuSans-83"/>
       <use x="63.476562" xlink:href="#DejaVuSans-101"/>
       <use x="125" xlink:href="#DejaVuSans-112"/>
       <use x="188.476562" xlink:href="#DejaVuSans-32"/>
       <use x="220.263672" xlink:href="#DejaVuSans-50"/>
       <use x="283.886719" xlink:href="#DejaVuSans-48"/>
       <use x="347.509766" xlink:href="#DejaVuSans-50"/>
       <use x="411.132812" xlink:href="#DejaVuSans-48"/>
      </g>
     </g>
    </g>
    <g id="xtick_8">
     <g id="line2d_8">
      <g>
       <use style="stroke:#000000;stroke-width:0.8;" x="350.675386" xlink:href="#m6e6cd30114" y="252"/>
      </g>
     </g>
     <g id="text_8">
      <!-- Oct 2020 -->
      <g transform="translate(353.434761 304.91875)rotate(-90)scale(0.1 -0.1)">
       <defs>
        <path d="M 39.40625 66.21875 
Q 28.65625 66.21875 22.328125 58.203125 
Q 16.015625 50.203125 16.015625 36.375 
Q 16.015625 22.609375 22.328125 14.59375 
Q 28.65625 6.59375 39.40625 6.59375 
Q 50.140625 6.59375 56.421875 14.59375 
Q 62.703125 22.609375 62.703125 36.375 
Q 62.703125 50.203125 56.421875 58.203125 
Q 50.140625 66.21875 39.40625 66.21875 
z
M 39.40625 74.21875 
Q 54.734375 74.21875 63.90625 63.9375 
Q 73.09375 53.65625 73.09375 36.375 
Q 73.09375 19.140625 63.90625 8.859375 
Q 54.734375 -1.421875 39.40625 -1.421875 
Q 24.03125 -1.421875 14.8125 8.828125 
Q 5.609375 19.09375 5.609375 36.375 
Q 5.609375 53.65625 14.8125 63.9375 
Q 24.03125 74.21875 39.40625 74.21875 
z
" id="DejaVuSans-79"/>
        <path d="M 48.78125 52.59375 
L 48.78125 44.1875 
Q 44.96875 46.296875 41.140625 47.34375 
Q 37.3125 48.390625 33.40625 48.390625 
Q 24.65625 48.390625 19.8125 42.84375 
Q 14.984375 37.3125 14.984375 27.296875 
Q 14.984375 17.28125 19.8125 11.734375 
Q 24.65625 6.203125 33.40625 6.203125 
Q 37.3125 6.203125 41.140625 7.25 
Q 44.96875 8.296875 48.78125 10.40625 
L 48.78125 2.09375 
Q 45.015625 0.34375 40.984375 -0.53125 
Q 36.96875 -1.421875 32.421875 -1.421875 
Q 20.0625 -1.421875 12.78125 6.34375 
Q 5.515625 14.109375 5.515625 27.296875 
Q 5.515625 40.671875 12.859375 48.328125 
Q 20.21875 56 33.015625 56 
Q 37.15625 56 41.109375 55.140625 
Q 45.0625 54.296875 48.78125 52.59375 
z
" id="DejaVuSans-99"/>
        <path d="M 18.3125 70.21875 
L 18.3125 54.6875 
L 36.8125 54.6875 
L 36.8125 47.703125 
L 18.3125 47.703125 
L 18.3125 18.015625 
Q 18.3125 11.328125 20.140625 9.421875 
Q 21.96875 7.515625 27.59375 7.515625 
L 36.8125 7.515625 
L 36.8125 0 
L 27.59375 0 
Q 17.1875 0 13.234375 3.875 
Q 9.28125 7.765625 9.28125 18.015625 
L 9.28125 47.703125 
L 2.6875 47.703125 
L 2.6875 54.6875 
L 9.28125 54.6875 
L 9.28125 70.21875 
z
" id="DejaVuSans-116"/>
       </defs>
       <use xlink:href="#DejaVuSans-79"/>
       <use x="78.710938" xlink:href="#DejaVuSans-99"/>
       <use x="133.691406" xlink:href="#DejaVuSans-116"/>
       <use x="172.900391" xlink:href="#DejaVuSans-32"/>
       <use x="204.6875" xlink:href="#DejaVuSans-50"/>
       <use x="268.310547" xlink:href="#DejaVuSans-48"/>
       <use x="331.933594" xlink:href="#DejaVuSans-50"/>
       <use x="395.556641" xlink:href="#DejaVuSans-48"/>
      </g>
     </g>
    </g>
    <g id="xtick_9">
     <g id="line2d_9">
      <g>
       <use style="stroke:#000000;stroke-width:0.8;" x="395.477251" xlink:href="#m6e6cd30114" y="252"/>
      </g>
     </g>
     <g id="text_9">
      <!-- Nov 2020 -->
      <g transform="translate(398.236626 307.146875)rotate(-90)scale(0.1 -0.1)">
       <defs>
        <path d="M 9.8125 72.90625 
L 23.09375 72.90625 
L 55.421875 11.921875 
L 55.421875 72.90625 
L 64.984375 72.90625 
L 64.984375 0 
L 51.703125 0 
L 19.390625 60.984375 
L 19.390625 0 
L 9.8125 0 
z
" id="DejaVuSans-78"/>
        <path d="M 30.609375 48.390625 
Q 23.390625 48.390625 19.1875 42.75 
Q 14.984375 37.109375 14.984375 27.296875 
Q 14.984375 17.484375 19.15625 11.84375 
Q 23.34375 6.203125 30.609375 6.203125 
Q 37.796875 6.203125 41.984375 11.859375 
Q 46.1875 17.53125 46.1875 27.296875 
Q 46.1875 37.015625 41.984375 42.703125 
Q 37.796875 48.390625 30.609375 48.390625 
z
M 30.609375 56 
Q 42.328125 56 49.015625 48.375 
Q 55.71875 40.765625 55.71875 27.296875 
Q 55.71875 13.875 49.015625 6.21875 
Q 42.328125 -1.421875 30.609375 -1.421875 
Q 18.84375 -1.421875 12.171875 6.21875 
Q 5.515625 13.875 5.515625 27.296875 
Q 5.515625 40.765625 12.171875 48.375 
Q 18.84375 56 30.609375 56 
z
" id="DejaVuSans-111"/>
        <path d="M 2.984375 54.6875 
L 12.5 54.6875 
L 29.59375 8.796875 
L 46.6875 54.6875 
L 56.203125 54.6875 
L 35.6875 0 
L 23.484375 0 
z
" id="DejaVuSans-118"/>
       </defs>
       <use xlink:href="#DejaVuSans-78"/>
       <use x="74.804688" xlink:href="#DejaVuSans-111"/>
       <use x="135.986328" xlink:href="#DejaVuSans-118"/>
       <use x="195.166016" xlink:href="#DejaVuSans-32"/>
       <use x="226.953125" xlink:href="#DejaVuSans-50"/>
       <use x="290.576172" xlink:href="#DejaVuSans-48"/>
       <use x="354.199219" xlink:href="#DejaVuSans-50"/>
       <use x="417.822266" xlink:href="#DejaVuSans-48"/>
      </g>
     </g>
    </g>
    <g id="xtick_10">
     <g id="line2d_10">
      <g>
       <use style="stroke:#000000;stroke-width:0.8;" x="438.833894" xlink:href="#m6e6cd30114" y="252"/>
      </g>
     </g>
     <g id="text_10">
      <!-- Dec 2020 -->
      <g transform="translate(441.593269 306.979687)rotate(-90)scale(0.1 -0.1)">
       <defs>
        <path d="M 19.671875 64.796875 
L 19.671875 8.109375 
L 31.59375 8.109375 
Q 46.6875 8.109375 53.6875 14.9375 
Q 60.6875 21.78125 60.6875 36.53125 
Q 60.6875 51.171875 53.6875 57.984375 
Q 46.6875 64.796875 31.59375 64.796875 
z
M 9.8125 72.90625 
L 30.078125 72.90625 
Q 51.265625 72.90625 61.171875 64.09375 
Q 71.09375 55.28125 71.09375 36.53125 
Q 71.09375 17.671875 61.125 8.828125 
Q 51.171875 0 30.078125 0 
L 9.8125 0 
z
" id="DejaVuSans-68"/>
       </defs>
       <use xlink:href="#DejaVuSans-68"/>
       <use x="77.001953" xlink:href="#DejaVuSans-101"/>
       <use x="138.525391" xlink:href="#DejaVuSans-99"/>
       <use x="193.505859" xlink:href="#DejaVuSans-32"/>
       <use x="225.292969" xlink:href="#DejaVuSans-50"/>
       <use x="288.916016" xlink:href="#DejaVuSans-48"/>
       <use x="352.539062" xlink:href="#DejaVuSans-50"/>
       <use x="416.162109" xlink:href="#DejaVuSans-48"/>
      </g>
     </g>
    </g>
    <g id="xtick_11">
     <g id="line2d_11">
      <g>
       <use style="stroke:#000000;stroke-width:0.8;" x="483.635759" xlink:href="#m6e6cd30114" y="252"/>
      </g>
     </g>
     <g id="text_11">
      <!-- Jan 2021 -->
      <g transform="translate(486.395134 303.04375)rotate(-90)scale(0.1 -0.1)">
       <defs>
        <path d="M 12.40625 8.296875 
L 28.515625 8.296875 
L 28.515625 63.921875 
L 10.984375 60.40625 
L 10.984375 69.390625 
L 28.421875 72.90625 
L 38.28125 72.90625 
L 38.28125 8.296875 
L 54.390625 8.296875 
L 54.390625 0 
L 12.40625 0 
z
" id="DejaVuSans-49"/>
       </defs>
       <use xlink:href="#DejaVuSans-74"/>
       <use x="29.492188" xlink:href="#DejaVuSans-97"/>
       <use x="90.771484" xlink:href="#DejaVuSans-110"/>
       <use x="154.150391" xlink:href="#DejaVuSans-32"/>
       <use x="185.9375" xlink:href="#DejaVuSans-50"/>
       <use x="249.560547" xlink:href="#DejaVuSans-48"/>
       <use x="313.183594" xlink:href="#DejaVuSans-50"/>
       <use x="376.806641" xlink:href="#DejaVuSans-49"/>
      </g>
     </g>
    </g>
    <g id="xtick_12">
     <g id="line2d_12">
      <g>
       <use style="stroke:#000000;stroke-width:0.8;" x="528.437624" xlink:href="#m6e6cd30114" y="252"/>
      </g>
     </g>
     <g id="text_12">
      <!-- Feb 2021 -->
      <g transform="translate(531.196999 305.33125)rotate(-90)scale(0.1 -0.1)">
       <defs>
        <path d="M 9.8125 72.90625 
L 51.703125 72.90625 
L 51.703125 64.59375 
L 19.671875 64.59375 
L 19.671875 43.109375 
L 48.578125 43.109375 
L 48.578125 34.8125 
L 19.671875 34.8125 
L 19.671875 0 
L 9.8125 0 
z
" id="DejaVuSans-70"/>
        <path d="M 48.6875 27.296875 
Q 48.6875 37.203125 44.609375 42.84375 
Q 40.53125 48.484375 33.40625 48.484375 
Q 26.265625 48.484375 22.1875 42.84375 
Q 18.109375 37.203125 18.109375 27.296875 
Q 18.109375 17.390625 22.1875 11.75 
Q 26.265625 6.109375 33.40625 6.109375 
Q 40.53125 6.109375 44.609375 11.75 
Q 48.6875 17.390625 48.6875 27.296875 
z
M 18.109375 46.390625 
Q 20.953125 51.265625 25.265625 53.625 
Q 29.59375 56 35.59375 56 
Q 45.5625 56 51.78125 48.09375 
Q 58.015625 40.1875 58.015625 27.296875 
Q 58.015625 14.40625 51.78125 6.484375 
Q 45.5625 -1.421875 35.59375 -1.421875 
Q 29.59375 -1.421875 25.265625 0.953125 
Q 20.953125 3.328125 18.109375 8.203125 
L 18.109375 0 
L 9.078125 0 
L 9.078125 75.984375 
L 18.109375 75.984375 
z
" id="DejaVuSans-98"/>
       </defs>
       <use xlink:href="#DejaVuSans-70"/>
       <use x="52.019531" xlink:href="#DejaVuSans-101"/>
       <use x="113.542969" xlink:href="#DejaVuSans-98"/>
       <use x="177.019531" xlink:href="#DejaVuSans-32"/>
       <use x="208.806641" xlink:href="#DejaVuSans-50"/>
       <use x="272.429688" xlink:href="#DejaVuSans-48"/>
       <use x="336.052734" xlink:href="#DejaVuSans-50"/>
       <use x="399.675781" xlink:href="#DejaVuSans-49"/>
      </g>
     </g>
    </g>
    <g id="xtick_13">
     <g id="line2d_13">
      <g>
       <use style="stroke:#000000;stroke-width:0.8;" x="568.903824" xlink:href="#m6e6cd30114" y="252"/>
      </g>
     </g>
     <g id="text_13">
      <!-- Mar 2021 -->
      <g transform="translate(571.663199 306.495312)rotate(-90)scale(0.1 -0.1)">
       <use xlink:href="#DejaVuSans-77"/>
       <use x="86.279297" xlink:href="#DejaVuSans-97"/>
       <use x="147.558594" xlink:href="#DejaVuSans-114"/>
       <use x="188.671875" xlink:href="#DejaVuSans-32"/>
       <use x="220.458984" xlink:href="#DejaVuSans-50"/>
       <use x="284.082031" xlink:href="#DejaVuSans-48"/>
       <use x="347.705078" xlink:href="#DejaVuSans-50"/>
       <use x="411.328125" xlink:href="#DejaVuSans-49"/>
      </g>
     </g>
    </g>
    <g id="text_14">
     <!-- Start date -->
     <g transform="translate(294.525 319.901562)scale(0.1 -0.1)">
      <defs>
       <path d="M 45.40625 46.390625 
L 45.40625 75.984375 
L 54.390625 75.984375 
L 54.390625 0 
L 45.40625 0 
L 45.40625 8.203125 
Q 42.578125 3.328125 38.25 0.953125 
Q 33.9375 -1.421875 27.875 -1.421875 
Q 17.96875 -1.421875 11.734375 6.484375 
Q 5.515625 14.40625 5.515625 27.296875 
Q 5.515625 40.1875 11.734375 48.09375 
Q 17.96875 56 27.875 56 
Q 33.9375 56 38.25 53.625 
Q 42.578125 51.265625 45.40625 46.390625 
z
M 14.796875 27.296875 
Q 14.796875 17.390625 18.875 11.75 
Q 22.953125 6.109375 30.078125 6.109375 
Q 37.203125 6.109375 41.296875 11.75 
Q 45.40625 17.390625 45.40625 27.296875 
Q 45.40625 37.203125 41.296875 42.84375 
Q 37.203125 48.484375 30.078125 48.484375 
Q 22.953125 48.484375 18.875 42.84375 
Q 14.796875 37.203125 14.796875 27.296875 
z
" id="DejaVuSans-100"/>
      </defs>
      <use xlink:href="#DejaVuSans-83"/>
      <use x="63.476562" xlink:href="#DejaVuSans-116"/>
      <use x="102.685547" xlink:href="#DejaVuSans-97"/>
      <use x="163.964844" xlink:href="#DejaVuSans-114"/>
      <use x="205.078125" xlink:href="#DejaVuSans-116"/>
      <use x="244.287109" xlink:href="#DejaVuSans-32"/>
      <use x="276.074219" xlink:href="#DejaVuSans-100"/>
      <use x="339.550781" xlink:href="#DejaVuSans-97"/>
      <use x="400.830078" xlink:href="#DejaVuSans-116"/>
      <use x="440.039062" xlink:href="#DejaVuSans-101"/>
     </g>
    </g>
   </g>
   <g id="matplotlib.axis_2">
    <g id="ytick_1">
     <g id="line2d_14">
      <defs>
       <path d="M 0 0 
L -3.5 0 
" id="m920568c6bd" style="stroke:#000000;stroke-width:0.8;"/>
      </defs>
      <g>
       <use style="stroke:#000000;stroke-width:0.8;" x="40.603125" xlink:href="#m920568c6bd" y="240.872727"/>
      </g>
     </g>
     <g id="text_15">
      <!-- 0 -->
      <g transform="translate(27.240625 244.671946)scale(0.1 -0.1)">
       <use xlink:href="#DejaVuSans-48"/>
      </g>
     </g>
    </g>
    <g id="ytick_2">
     <g id="line2d_15">
      <g>
       <use style="stroke:#000000;stroke-width:0.8;" x="40.603125" xlink:href="#m920568c6bd" y="203.411104"/>
      </g>
     </g>
     <g id="text_16">
      <!-- 10 -->
      <g transform="translate(20.878125 207.210323)scale(0.1 -0.1)">
       <use xlink:href="#DejaVuSans-49"/>
       <use x="63.623047" xlink:href="#DejaVuSans-48"/>
      </g>
     </g>
    </g>
    <g id="ytick_3">
     <g id="line2d_16">
      <g>
       <use style="stroke:#000000;stroke-width:0.8;" x="40.603125" xlink:href="#m920568c6bd" y="165.949481"/>
      </g>
     </g>
     <g id="text_17">
      <!-- 20 -->
      <g transform="translate(20.878125 169.7487)scale(0.1 -0.1)">
       <use xlink:href="#DejaVuSans-50"/>
       <use x="63.623047" xlink:href="#DejaVuSans-48"/>
      </g>
     </g>
    </g>
    <g id="ytick_4">
     <g id="line2d_17">
      <g>
       <use style="stroke:#000000;stroke-width:0.8;" x="40.603125" xlink:href="#m920568c6bd" y="128.487858"/>
      </g>
     </g>
     <g id="text_18">
      <!-- 30 -->
      <g transform="translate(20.878125 132.287077)scale(0.1 -0.1)">
       <defs>
        <path d="M 40.578125 39.3125 
Q 47.65625 37.796875 51.625 33 
Q 55.609375 28.21875 55.609375 21.1875 
Q 55.609375 10.40625 48.1875 4.484375 
Q 40.765625 -1.421875 27.09375 -1.421875 
Q 22.515625 -1.421875 17.65625 -0.515625 
Q 12.796875 0.390625 7.625 2.203125 
L 7.625 11.71875 
Q 11.71875 9.328125 16.59375 8.109375 
Q 21.484375 6.890625 26.8125 6.890625 
Q 36.078125 6.890625 40.9375 10.546875 
Q 45.796875 14.203125 45.796875 21.1875 
Q 45.796875 27.640625 41.28125 31.265625 
Q 36.765625 34.90625 28.71875 34.90625 
L 20.21875 34.90625 
L 20.21875 43.015625 
L 29.109375 43.015625 
Q 36.375 43.015625 40.234375 45.921875 
Q 44.09375 48.828125 44.09375 54.296875 
Q 44.09375 59.90625 40.109375 62.90625 
Q 36.140625 65.921875 28.71875 65.921875 
Q 24.65625 65.921875 20.015625 65.03125 
Q 15.375 64.15625 9.8125 62.3125 
L 9.8125 71.09375 
Q 15.4375 72.65625 20.34375 73.4375 
Q 25.25 74.21875 29.59375 74.21875 
Q 40.828125 74.21875 47.359375 69.109375 
Q 53.90625 64.015625 53.90625 55.328125 
Q 53.90625 49.265625 50.4375 45.09375 
Q 46.96875 40.921875 40.578125 39.3125 
z
" id="DejaVuSans-51"/>
       </defs>
       <use xlink:href="#DejaVuSans-51"/>
       <use x="63.623047" xlink:href="#DejaVuSans-48"/>
      </g>
     </g>
    </g>
    <g id="ytick_5">
     <g id="line2d_18">
      <g>
       <use style="stroke:#000000;stroke-width:0.8;" x="40.603125" xlink:href="#m920568c6bd" y="91.026235"/>
      </g>
     </g>
     <g id="text_19">
      <!-- 40 -->
      <g transform="translate(20.878125 94.825454)scale(0.1 -0.1)">
       <defs>
        <path d="M 37.796875 64.3125 
L 12.890625 25.390625 
L 37.796875 25.390625 
z
M 35.203125 72.90625 
L 47.609375 72.90625 
L 47.609375 25.390625 
L 58.015625 25.390625 
L 58.015625 17.1875 
L 47.609375 17.1875 
L 47.609375 0 
L 37.796875 0 
L 37.796875 17.1875 
L 4.890625 17.1875 
L 4.890625 26.703125 
z
" id="DejaVuSans-52"/>
       </defs>
       <use xlink:href="#DejaVuSans-52"/>
       <use x="63.623047" xlink:href="#DejaVuSans-48"/>
      </g>
     </g>
    </g>
    <g id="ytick_6">
     <g id="line2d_19">
      <g>
       <use style="stroke:#000000;stroke-width:0.8;" x="40.603125" xlink:href="#m920568c6bd" y="53.564612"/>
      </g>
     </g>
     <g id="text_20">
      <!-- 50 -->
      <g transform="translate(20.878125 57.363831)scale(0.1 -0.1)">
       <defs>
        <path d="M 10.796875 72.90625 
L 49.515625 72.90625 
L 49.515625 64.59375 
L 19.828125 64.59375 
L 19.828125 46.734375 
Q 21.96875 47.46875 24.109375 47.828125 
Q 26.265625 48.1875 28.421875 48.1875 
Q 40.625 48.1875 47.75 41.5 
Q 54.890625 34.8125 54.890625 23.390625 
Q 54.890625 11.625 47.5625 5.09375 
Q 40.234375 -1.421875 26.90625 -1.421875 
Q 22.3125 -1.421875 17.546875 -0.640625 
Q 12.796875 0.140625 7.71875 1.703125 
L 7.71875 11.625 
Q 12.109375 9.234375 16.796875 8.0625 
Q 21.484375 6.890625 26.703125 6.890625 
Q 35.15625 6.890625 40.078125 11.328125 
Q 45.015625 15.765625 45.015625 23.390625 
Q 45.015625 31 40.078125 35.4375 
Q 35.15625 39.890625 26.703125 39.890625 
Q 22.75 39.890625 18.8125 39.015625 
Q 14.890625 38.140625 10.796875 36.28125 
z
" id="DejaVuSans-53"/>
       </defs>
       <use xlink:href="#DejaVuSans-53"/>
       <use x="63.623047" xlink:href="#DejaVuSans-48"/>
      </g>
     </g>
    </g>
    <g id="ytick_7">
     <g id="line2d_20">
      <g>
       <use style="stroke:#000000;stroke-width:0.8;" x="40.603125" xlink:href="#m920568c6bd" y="16.102989"/>
      </g>
     </g>
     <g id="text_21">
      <!-- 60 -->
      <g transform="translate(20.878125 19.902208)scale(0.1 -0.1)">
       <defs>
        <path d="M 33.015625 40.375 
Q 26.375 40.375 22.484375 35.828125 
Q 18.609375 31.296875 18.609375 23.390625 
Q 18.609375 15.53125 22.484375 10.953125 
Q 26.375 6.390625 33.015625 6.390625 
Q 39.65625 6.390625 43.53125 10.953125 
Q 47.40625 15.53125 47.40625 23.390625 
Q 47.40625 31.296875 43.53125 35.828125 
Q 39.65625 40.375 33.015625 40.375 
z
M 52.59375 71.296875 
L 52.59375 62.3125 
Q 48.875 64.0625 45.09375 64.984375 
Q 41.3125 65.921875 37.59375 65.921875 
Q 27.828125 65.921875 22.671875 59.328125 
Q 17.53125 52.734375 16.796875 39.40625 
Q 19.671875 43.65625 24.015625 45.921875 
Q 28.375 48.1875 33.59375 48.1875 
Q 44.578125 48.1875 50.953125 41.515625 
Q 57.328125 34.859375 57.328125 23.390625 
Q 57.328125 12.15625 50.6875 5.359375 
Q 44.046875 -1.421875 33.015625 -1.421875 
Q 20.359375 -1.421875 13.671875 8.265625 
Q 6.984375 17.96875 6.984375 36.375 
Q 6.984375 53.65625 15.1875 63.9375 
Q 23.390625 74.21875 37.203125 74.21875 
Q 40.921875 74.21875 44.703125 73.484375 
Q 48.484375 72.75 52.59375 71.296875 
z
" id="DejaVuSans-54"/>
       </defs>
       <use xlink:href="#DejaVuSans-54"/>
       <use x="63.623047" xlink:href="#DejaVuSans-48"/>
      </g>
     </g>
    </g>
    <g id="text_22">
     <!-- Stay (in days) -->
     <g transform="translate(14.798437 164.197656)rotate(-90)scale(0.1 -0.1)">
      <defs>
       <path d="M 31 75.875 
Q 24.46875 64.65625 21.28125 53.65625 
Q 18.109375 42.671875 18.109375 31.390625 
Q 18.109375 20.125 21.3125 9.0625 
Q 24.515625 -2 31 -13.1875 
L 23.1875 -13.1875 
Q 15.875 -1.703125 12.234375 9.375 
Q 8.59375 20.453125 8.59375 31.390625 
Q 8.59375 42.28125 12.203125 53.3125 
Q 15.828125 64.359375 23.1875 75.875 
z
" id="DejaVuSans-40"/>
       <path d="M 9.421875 54.6875 
L 18.40625 54.6875 
L 18.40625 0 
L 9.421875 0 
z
M 9.421875 75.984375 
L 18.40625 75.984375 
L 18.40625 64.59375 
L 9.421875 64.59375 
z
" id="DejaVuSans-105"/>
       <path d="M 44.28125 53.078125 
L 44.28125 44.578125 
Q 40.484375 46.53125 36.375 47.5 
Q 32.28125 48.484375 27.875 48.484375 
Q 21.1875 48.484375 17.84375 46.4375 
Q 14.5 44.390625 14.5 40.28125 
Q 14.5 37.15625 16.890625 35.375 
Q 19.28125 33.59375 26.515625 31.984375 
L 29.59375 31.296875 
Q 39.15625 29.25 43.1875 25.515625 
Q 47.21875 21.78125 47.21875 15.09375 
Q 47.21875 7.46875 41.1875 3.015625 
Q 35.15625 -1.421875 24.609375 -1.421875 
Q 20.21875 -1.421875 15.453125 -0.5625 
Q 10.6875 0.296875 5.421875 2 
L 5.421875 11.28125 
Q 10.40625 8.6875 15.234375 7.390625 
Q 20.0625 6.109375 24.8125 6.109375 
Q 31.15625 6.109375 34.5625 8.28125 
Q 37.984375 10.453125 37.984375 14.40625 
Q 37.984375 18.0625 35.515625 20.015625 
Q 33.0625 21.96875 24.703125 23.78125 
L 21.578125 24.515625 
Q 13.234375 26.265625 9.515625 29.90625 
Q 5.8125 33.546875 5.8125 39.890625 
Q 5.8125 47.609375 11.28125 51.796875 
Q 16.75 56 26.8125 56 
Q 31.78125 56 36.171875 55.265625 
Q 40.578125 54.546875 44.28125 53.078125 
z
" id="DejaVuSans-115"/>
       <path d="M 8.015625 75.875 
L 15.828125 75.875 
Q 23.140625 64.359375 26.78125 53.3125 
Q 30.421875 42.28125 30.421875 31.390625 
Q 30.421875 20.453125 26.78125 9.375 
Q 23.140625 -1.703125 15.828125 -13.1875 
L 8.015625 -13.1875 
Q 14.5 -2 17.703125 9.0625 
Q 20.90625 20.125 20.90625 31.390625 
Q 20.90625 42.671875 17.703125 53.65625 
Q 14.5 64.65625 8.015625 75.875 
z
" id="DejaVuSans-41"/>
      </defs>
      <use xlink:href="#DejaVuSans-83"/>
      <use x="63.476562" xlink:href="#DejaVuSans-116"/>
      <use x="102.685547" xlink:href="#DejaVuSans-97"/>
      <use x="163.964844" xlink:href="#DejaVuSans-121"/>
      <use x="223.144531" xlink:href="#DejaVuSans-32"/>
      <use x="254.931641" xlink:href="#DejaVuSans-40"/>
      <use x="293.945312" xlink:href="#DejaVuSans-105"/>
      <use x="321.728516" xlink:href="#DejaVuSans-110"/>
      <use x="385.107422" xlink:href="#DejaVuSans-32"/>
      <use x="416.894531" xlink:href="#DejaVuSans-100"/>
      <use x="480.371094" xlink:href="#DejaVuSans-97"/>
      <use x="541.650391" xlink:href="#DejaVuSans-121"/>
      <use x="600.830078" xlink:href="#DejaVuSans-115"/>
      <use x="652.929688" xlink:href="#DejaVuSans-41"/>
     </g>
    </g>
   </g>
   <g id="line2d_21">
    <path clip-path="url(#pbb4e25a757)" d="M 65.966761 224.014997 
L 67.411983 184.680293 
L 68.857204 160.330238 
L 70.302426 199.664942 
L 71.747647 115.37629 
L 73.192869 233.380403 
L 74.63809 134.107102 
L 76.083311 74.168505 
L 77.528533 165.949481 
L 78.973754 152.213553 
L 80.418976 177.187968 
L 81.864197 112.878848 
L 83.309419 173.441806 
L 84.75464 115.37629 
L 86.199862 167.198202 
L 87.645083 203.411104 
L 89.090304 177.187968 
L 90.535526 180.93413 
L 91.980747 203.411104 
L 93.425969 180.93413 
L 94.87119 173.441806 
L 96.316412 150.964832 
L 97.761633 147.21867 
L 100.652076 203.411104 
L 103.542519 162.203319 
L 104.98774 171.568725 
L 106.432962 224.639357 
L 109.323405 150.964832 
L 110.768626 158.457157 
L 115.104291 87.280073 
L 116.549512 117.249371 
L 117.994733 193.109158 
L 119.439955 169.695643 
L 120.885176 233.380403 
L 122.330398 195.91878 
L 123.775619 209.654708 
L 125.220841 203.411104 
L 126.666062 208.093807 
L 128.111284 194.670059 
L 129.556505 177.187968 
L 131.001726 156.584075 
L 132.446948 202.661872 
L 133.892169 207.157267 
L 135.337391 167.822562 
L 136.782612 212.15215 
L 138.227834 205.284185 
L 141.118277 222.141916 
L 142.563498 68.549261 
L 144.008719 200.913663 
L 145.453941 169.695643 
L 146.899162 192.172617 
L 148.344384 151.901372 
L 149.789605 177.187968 
L 151.234827 189.362996 
L 152.680048 197.791861 
L 154.12527 177.937201 
L 155.570491 175.314887 
L 157.015712 186.285791 
L 158.460934 173.441806 
L 159.906155 209.030348 
L 161.351377 190.299536 
L 162.796598 187.177734 
L 164.24182 178.2583 
L 165.687041 180.93413 
L 167.132263 214.649591 
L 168.577484 214.649591 
L 170.022705 199.664942 
L 171.467927 195.91878 
L 172.913148 198.416221 
L 174.35837 174.940271 
L 175.803591 182.338941 
L 177.248813 214.649591 
L 178.694034 225.888078 
L 181.584477 199.664942 
L 183.029698 171.568725 
L 184.47492 200.913663 
L 185.920141 174.191038 
L 187.365363 169.695643 
L 188.810584 195.91878 
L 190.255806 195.478055 
L 191.701027 205.908546 
L 193.146249 188.010215 
L 194.59147 111.630128 
L 196.036691 180.93413 
L 197.481913 185.020853 
L 198.927134 213.525742 
L 200.372356 159.138277 
L 201.817577 199.352762 
L 203.262799 207.733599 
L 204.70802 196.54314 
L 206.153242 191.884451 
L 207.598463 197.681679 
L 209.043684 192.4402 
L 210.488906 156.584075 
L 211.934127 198.416221 
L 213.379349 184.914428 
L 214.82457 152.463297 
L 216.269792 189.215121 
L 217.715013 142.370695 
L 219.160235 181.10441 
L 220.605456 165.949481 
L 222.050677 131.369521 
L 223.495899 184.212022 
L 224.94112 185.468958 
L 226.386342 176.536462 
L 227.831563 165.949481 
L 229.276785 188.738635 
L 230.722006 195.294419 
L 232.167228 156.209459 
L 233.612449 174.512138 
L 235.05767 146.282129 
L 236.502892 169.566465 
L 237.948113 190.455626 
L 239.393335 193.875418 
L 240.838556 181.748513 
L 242.283778 133.170561 
L 243.728999 164.90888 
L 245.174221 179.269169 
L 246.619442 175.233449 
L 248.064663 178.836279 
L 249.509885 166.261661 
L 250.955106 174.256189 
L 252.400328 142.431907 
L 253.845549 180.10165 
L 255.290771 171.650163 
L 256.735992 197.681679 
L 258.181214 186.471936 
L 261.071656 173.56265 
L 262.516878 161.370838 
L 263.962099 186.553374 
L 265.407321 189.987356 
L 266.852542 179.57189 
L 268.297764 172.145057 
L 269.742985 176.467552 
L 271.188207 179.89353 
L 272.633428 165.481211 
L 274.078649 191.173641 
L 275.523871 189.831266 
L 276.969092 189.892345 
L 278.414314 203.567194 
L 279.859535 176.677128 
L 281.304757 190.674152 
L 282.749978 165.586949 
L 284.1952 201.662895 
L 285.640421 200.039558 
L 287.085642 188.032122 
L 288.530864 152.927107 
L 289.976085 172.627423 
L 291.421307 189.206905 
L 292.866528 187.98573 
L 294.31175 174.222256 
L 295.756971 204.13152 
L 297.202193 169.246104 
L 298.647414 176.652802 
L 300.092635 178.28978 
L 301.537857 189.077961 
L 302.983078 171.057884 
L 304.4283 159.338606 
L 305.873521 204.13152 
L 307.318743 186.454791 
L 308.763964 189.550304 
L 310.209186 182.807212 
L 311.654407 199.248702 
L 313.099628 202.519161 
L 314.54485 188.842695 
L 315.990071 199.290326 
L 317.435293 189.318398 
L 318.880514 208.941153 
L 320.325736 182.104806 
L 323.216179 200.081182 
L 324.6614 185.720893 
L 326.106622 175.002707 
L 327.551843 176.786594 
L 328.997064 171.334589 
L 330.442286 190.299536 
L 331.887507 166.698714 
L 333.332729 192.172617 
L 334.77795 206.688996 
L 336.223172 173.782366 
L 337.668393 197.28102 
L 339.113615 193.343293 
L 340.558836 182.314295 
L 342.004057 203.411104 
L 343.449279 188.961621 
L 344.8945 199.290326 
L 346.339722 157.880824 
L 347.784943 178.592779 
L 349.230165 174.191038 
L 350.675386 193.421338 
L 352.120608 156.818211 
L 353.565829 181.14225 
L 355.01105 191.470212 
L 356.456272 176.875788 
L 357.901493 166.573842 
L 359.346715 198.728401 
L 360.791936 185.832958 
L 362.237158 193.109158 
L 363.682379 186.178758 
L 365.127601 205.113905 
L 366.572822 187.72405 
L 368.018043 189.987356 
L 369.463265 179.832318 
L 370.908486 163.386317 
L 372.353708 158.925427 
L 373.798929 183.977887 
L 375.244151 211.278045 
L 376.689372 154.422828 
L 378.134594 186.553374 
L 379.579815 182.807212 
L 381.025036 190.409717 
L 382.470258 201.39394 
L 383.915479 200.039558 
L 385.360701 180.069631 
L 386.805922 197.32359 
L 388.251144 177.476134 
L 389.696365 192.588858 
L 391.141587 177.408331 
L 392.586808 199.953108 
L 394.032029 184.930037 
L 395.477251 179.231329 
L 396.922472 206.6221 
L 398.367694 178.826914 
L 399.812915 201.725331 
L 401.258137 179.781465 
L 402.703358 194.189782 
L 404.14858 154.710994 
L 405.593801 173.941294 
L 407.039022 197.32359 
L 408.484244 179.435665 
L 409.929465 184.145127 
L 411.374687 181.510463 
L 412.819908 169.461508 
L 414.26513 206.033418 
L 415.710351 182.182851 
L 417.155573 181.870671 
L 418.600794 191.423385 
L 420.046015 187.404774 
L 421.491237 175.747136 
L 422.936458 199.290326 
L 424.38168 172.401205 
L 425.826901 180.93413 
L 427.272123 195.91878 
L 428.717344 192.961283 
L 430.162566 187.177734 
L 431.607787 170.498393 
L 433.053008 192.74895 
L 434.49823 183.877544 
L 435.943451 201.682106 
L 437.388673 148.645779 
L 438.833894 191.610693 
L 440.279116 161.846541 
L 441.724337 194.878179 
L 443.169559 173.604682 
L 444.61478 178.686433 
L 446.060001 178.890769 
L 447.505223 196.733163 
L 450.395666 182.117129 
L 451.840887 193.875418 
L 453.286109 188.158872 
L 454.73133 180.51789 
L 456.176552 201.163407 
L 457.621773 181.722796 
L 459.066994 179.89353 
L 460.512216 172.930965 
L 461.957437 184.843169 
L 463.402659 162.671589 
L 466.293102 179.248357 
L 467.738323 187.677223 
L 469.183545 183.798843 
L 470.628766 185.616833 
L 472.073987 205.159313 
L 473.519209 192.672106 
L 474.96443 185.512773 
L 476.409652 181.121438 
L 477.854873 198.059444 
L 479.300095 175.485167 
L 480.745316 191.673129 
L 482.190538 183.342378 
L 483.635759 180.93413 
L 485.08098 176.355488 
L 486.526202 186.257624 
L 487.971423 207.818354 
L 489.416645 180.93413 
L 490.861866 193.920826 
L 492.307088 188.613763 
L 493.752309 206.6221 
L 495.197531 192.640888 
L 496.642752 184.680293 
L 498.087973 202.786744 
L 499.533195 187.958185 
L 500.978416 206.220726 
L 502.423638 212.30824 
L 503.868859 191.922873 
L 505.314081 219.644474 
L 506.759302 196.54314 
L 508.204524 200.005502 
L 509.649745 208.537432 
L 511.094966 192.707783 
L 512.540188 210.279068 
L 513.985409 206.408034 
L 515.430631 194.982239 
L 516.875852 197.791861 
L 518.321074 197.1675 
L 519.766295 195.630613 
L 521.211517 201.027183 
L 522.656738 207.157267 
L 524.101959 194.670059 
L 525.547181 192.92185 
L 526.992402 201.746143 
L 528.437624 195.91878 
L 529.882845 196.453946 
L 531.328067 202.340772 
L 532.773288 205.908546 
L 534.21851 190.923897 
L 535.663731 196.5999 
L 537.108953 194.420315 
L 538.554174 216.522672 
L 539.999395 209.200628 
L 541.444617 198.915709 
L 542.889838 200.788791 
L 544.33506 201.772158 
L 545.780281 207.781627 
L 547.225503 204.481436 
L 548.670724 208.718167 
L 551.561167 214.990151 
L 553.006388 222.141916 
L 554.45161 225.055598 
L 555.896831 215.117861 
L 557.342053 213.713051 
L 558.787274 221.460795 
L 560.232496 219.228234 
L 561.677717 221.309435 
L 563.122939 228.6977 
L 564.56816 224.866397 
L 566.013381 232.756042 
L 567.458603 231.881938 
L 568.903824 237.126565 
L 570.349046 231.507322 
L 573.239489 238.999646 
L 573.239489 238.999646 
" style="fill:none;stroke:#1f77b4;stroke-linecap:square;stroke-width:0.8;"/>
   </g>
   <g id="line2d_22">
    <path clip-path="url(#pbb4e25a757)" d="M 40.603125 185.554482 
L 598.603125 185.554482 
" style="fill:none;stroke:#000000;stroke-dasharray:2.96,1.28;stroke-dashoffset:0;stroke-width:0.8;"/>
   </g>
   <g id="patch_3">
    <path d="M 40.603125 252 
L 40.603125 7.2 
" style="fill:none;stroke:#000000;stroke-linecap:square;stroke-linejoin:miter;stroke-width:0.8;"/>
   </g>
   <g id="patch_4">
    <path d="M 40.603125 252 
L 598.603125 252 
" style="fill:none;stroke:#000000;stroke-linecap:square;stroke-linejoin:miter;stroke-width:0.8;"/>
   </g>
   <g id="legend_1">
    <g id="patch_5">
     <path d="M 532.35625 29.878125 
L 591.603125 29.878125 
Q 593.603125 29.878125 593.603125 27.878125 
L 593.603125 14.2 
Q 593.603125 12.2 591.603125 12.2 
L 532.35625 12.2 
Q 530.35625 12.2 530.35625 14.2 
L 530.35625 27.878125 
Q 530.35625 29.878125 532.35625 29.878125 
z
" style="fill:#ffffff;opacity:0.8;stroke:#cccccc;stroke-linejoin:miter;"/>
    </g>
    <g id="line2d_23">
     <path d="M 534.35625 20.298437 
L 554.35625 20.298437 
" style="fill:none;stroke:#000000;stroke-dasharray:2.96,1.28;stroke-dashoffset:0;stroke-width:0.8;"/>
    </g>
    <g id="line2d_24"/>
    <g id="text_23">
     <!-- Mean -->
     <g transform="translate(562.35625 23.798437)scale(0.1 -0.1)">
      <use xlink:href="#DejaVuSans-77"/>
      <use x="86.279297" xlink:href="#DejaVuSans-101"/>
      <use x="147.802734" xlink:href="#DejaVuSans-97"/>
      <use x="209.082031" xlink:href="#DejaVuSans-110"/>
     </g>
    </g>
   </g>
  </g>
 </g>
 <defs>
  <clipPath id="pbb4e25a757">
   <rect height="244.8" width="558" x="40.603125" y="7.2"/>
  </clipPath>
 </defs>
</svg>
