<?xml version="1.0" encoding="utf-8" standalone="no"?>
<!DOCTYPE svg PUBLIC "-//W3C//DTD SVG 1.1//EN"
  "http://www.w3.org/Graphics/SVG/1.1/DTD/svg11.dtd">
<svg height="329.18125pt" version="1.1" viewBox="0 0 605.803125 329.18125" width="605.803125pt" xmlns="http://www.w3.org/2000/svg" xmlns:xlink="http://www.w3.org/1999/xlink">
 <metadata>
  <rdf:RDF xmlns:cc="http://creativecommons.org/ns#" xmlns:dc="http://purl.org/dc/elements/1.1/" xmlns:rdf="http://www.w3.org/1999/02/22-rdf-syntax-ns#">
   <cc:Work>
    <dc:type rdf:resource="http://purl.org/dc/dcmitype/StillImage"/>
    <dc:date>2021-03-29T19:47:43.148737</dc:date>
    <dc:format>image/svg+xml</dc:format>
    <dc:creator>
     <cc:Agent>
      <dc:title>Matplotlib v3.4.0, https://matplotlib.org/</dc:title>
     </cc:Agent>
    </dc:creator>
   </cc:Work>
  </rdf:RDF>
 </metadata>
 <defs>
  <style type="text/css">*{stroke-linecap:butt;stroke-linejoin:round;}</style>
 </defs>
 <g id="figure_1">
  <g id="patch_1">
   <path d="M 0 329.18125 
L 605.803125 329.18125 
L 605.803125 0 
L 0 0 
z
" style="fill:none;"/>
  </g>
  <g id="axes_1">
   <g id="patch_2">
    <path d="M 40.603125 252 
L 598.603125 252 
L 598.603125 7.2 
L 40.603125 7.2 
z
" style="fill:#ffffff;"/>
   </g>
   <g id="PolyCollection_1">
    <path clip-path="url(#p6ab6e203d7)" d="M 65.966761 220.009091 
L 65.966761 230.440909 
L 65.966761 220.009091 
L 65.966761 220.009091 
z
" style="fill:#1f77b4;fill-opacity:0.2;stroke:#1f77b4;stroke-opacity:0.2;"/>
    <path clip-path="url(#p6ab6e203d7)" d="M 68.857204 157.418182 
L 68.857204 174.804545 
L 68.857204 157.418182 
L 68.857204 157.418182 
z
" style="fill:#1f77b4;fill-opacity:0.2;stroke:#1f77b4;stroke-opacity:0.2;"/>
    <path clip-path="url(#p6ab6e203d7)" d="M 71.747647 112.213636 
L 71.747647 136.554545 
L 73.192869 237.395455 
L 74.63809 233.918182 
L 76.083311 108.736364 
L 77.528533 220.009091 
L 78.973754 230.440909 
L 80.418976 220.009091 
L 81.864197 183.700568 
L 83.309419 185.236364 
L 84.75464 153.940909 
L 86.199862 177.73125 
L 87.645083 216.531818 
L 89.090304 221.805682 
L 89.090304 154.491477 
L 89.090304 154.491477 
L 87.645083 195.668182 
L 86.199862 164.372727 
L 84.75464 94.827273 
L 83.309419 171.327273 
L 81.864197 36.452557 
L 80.418976 115.690909 
L 78.973754 101.781818 
L 77.528533 122.645455 
L 76.083311 63.531818 
L 74.63809 49.622727 
L 73.192869 230.440909 
L 71.747647 112.213636 
z
" style="fill:#1f77b4;fill-opacity:0.2;stroke:#1f77b4;stroke-opacity:0.2;"/>
    <path clip-path="url(#p6ab6e203d7)" d="M 94.87119 119.168182 
L 94.87119 237.395455 
L 96.316412 233.918182 
L 96.316412 18.327273 
L 96.316412 18.327273 
L 94.87119 119.168182 
z
" style="fill:#1f77b4;fill-opacity:0.2;stroke:#1f77b4;stroke-opacity:0.2;"/>
    <path clip-path="url(#p6ab6e203d7)" d="M 103.542519 164.372727 
L 103.542519 171.327273 
L 104.98774 230.440909 
L 106.432962 230.440909 
L 107.878183 224.384659 
L 107.878183 150.463636 
L 107.878183 150.463636 
L 106.432962 220.009091 
L 104.98774 122.645455 
L 103.542519 164.372727 
z
" style="fill:#1f77b4;fill-opacity:0.2;stroke:#1f77b4;stroke-opacity:0.2;"/>
    <path clip-path="url(#p6ab6e203d7)" d="M 110.768626 115.690909 
L 110.768626 213.054545 
L 110.768626 115.690909 
L 110.768626 115.690909 
z
" style="fill:#1f77b4;fill-opacity:0.2;stroke:#1f77b4;stroke-opacity:0.2;"/>
    <path clip-path="url(#p6ab6e203d7)" d="M 117.994733 127.861364 
L 117.994733 237.395455 
L 119.439955 229.281818 
L 119.439955 120.327273 
L 119.439955 120.327273 
L 117.994733 127.861364 
z
" style="fill:#1f77b4;fill-opacity:0.2;stroke:#1f77b4;stroke-opacity:0.2;"/>
    <path clip-path="url(#p6ab6e203d7)" d="M 122.330398 178.281818 
L 122.330398 220.009091 
L 123.775619 230.440909 
L 123.775619 197.986364 
L 123.775619 197.986364 
L 122.330398 178.281818 
z
" style="fill:#1f77b4;fill-opacity:0.2;stroke:#1f77b4;stroke-opacity:0.2;"/>
    <path clip-path="url(#p6ab6e203d7)" d="M 126.666062 197.406818 
L 126.666062 223.486364 
L 128.111284 216.531818 
L 128.111284 183.961364 
L 128.111284 183.961364 
L 126.666062 197.406818 
z
" style="fill:#1f77b4;fill-opacity:0.2;stroke:#1f77b4;stroke-opacity:0.2;"/>
    <path clip-path="url(#p6ab6e203d7)" d="M 131.001726 101.781818 
L 131.001726 223.486364 
L 132.446948 217.922727 
L 132.446948 190.400114 
L 132.446948 190.400114 
L 131.001726 101.781818 
z
" style="fill:#1f77b4;fill-opacity:0.2;stroke:#1f77b4;stroke-opacity:0.2;"/>
    <path clip-path="url(#p6ab6e203d7)" d="M 135.337391 122.862784 
L 135.337391 210.548011 
L 136.782612 237.395455 
L 138.227834 233.918182 
L 141.118277 230.440909 
L 142.563498 87.872727 
L 144.008719 222.327273 
L 145.453941 210.620455 
L 146.899162 220.009091 
L 148.344384 203.535511 
L 148.344384 48.992472 
L 148.344384 48.992472 
L 146.899162 171.327273 
L 145.453941 125.365179 
L 144.008719 185.236364 
L 142.563498 73.963636 
L 141.118277 211.728835 
L 138.227834 181.759091 
L 136.782612 178.861364 
L 135.337391 122.862784 
z
" style="fill:#1f77b4;fill-opacity:0.2;stroke:#1f77b4;stroke-opacity:0.2;"/>
    <path clip-path="url(#p6ab6e203d7)" d="M 151.234827 156.461932 
L 151.234827 225.311932 
L 152.680048 231.310227 
L 154.12527 213.054545 
L 155.570491 215.734943 
L 157.015712 226.466883 
L 157.015712 148.588393 
L 157.015712 148.588393 
L 155.570491 140.799716 
L 154.12527 137.910682 
L 152.680048 151.702415 
L 151.234827 156.461932 
z
" style="fill:#1f77b4;fill-opacity:0.2;stroke:#1f77b4;stroke-opacity:0.2;"/>
    <path clip-path="url(#p6ab6e203d7)" d="M 159.906155 191.278125 
L 159.906155 231.766619 
L 161.351377 226.963636 
L 162.796598 220.009091 
L 164.24182 217.550162 
L 165.687041 225.225 
L 167.132263 237.395455 
L 168.577484 220.009091 
L 170.022705 229.006534 
L 171.467927 220.009091 
L 172.913148 214.213636 
L 174.35837 220.009091 
L 175.803591 205.480611 
L 177.248813 233.918182 
L 178.694034 234.318068 
L 180.139256 227.981981 
L 181.584477 222.095455 
L 183.029698 209.612045 
L 184.47492 220.067045 
L 185.920141 210.11625 
L 187.365363 208.238523 
L 188.810584 203.781818 
L 190.255806 214.246023 
L 191.701027 229.871023 
L 193.146249 217.121023 
L 194.59147 185.899219 
L 196.036691 204.140691 
L 197.481913 232.669525 
L 198.927134 228.354545 
L 200.372356 197.746643 
L 201.817577 221.03054 
L 203.262799 220.684484 
L 204.70802 215.401705 
L 206.153242 212.138418 
L 207.598463 214.409659 
L 209.043684 215.705966 
L 210.488906 198.225426 
L 211.934127 213.938352 
L 213.379349 208.854652 
L 214.82457 211.820114 
L 216.269792 208.145185 
L 217.715013 184.975568 
L 219.160235 200.982877 
L 220.605456 207.048347 
L 222.050677 189.937369 
L 223.495899 203.354403 
L 224.94112 220.498654 
L 226.386342 201.651359 
L 227.831563 200.403409 
L 229.276785 204.901065 
L 230.722006 208.860085 
L 232.167228 190.726108 
L 233.612449 201.219399 
L 235.05767 178.207926 
L 236.502892 191.369553 
L 237.948113 212.924148 
L 239.393335 205.424303 
L 240.838556 199.606571 
L 242.283778 186.840256 
L 243.728999 198.961932 
L 245.174221 202.181629 
L 246.619442 201.651359 
L 248.064663 199.305409 
L 249.509885 193.45142 
L 250.955106 204.663735 
L 252.400328 183.603977 
L 253.845549 202.622727 
L 255.290771 208.375346 
L 256.735992 212.558523 
L 258.181214 207.842416 
L 259.626435 208.844022 
L 261.071656 203.472416 
L 262.516878 208.954261 
L 263.962099 205.230682 
L 265.407321 210.40554 
L 266.852542 205.49938 
L 268.297764 194.063287 
L 269.742985 197.94847 
L 271.188207 207.621307 
L 272.633428 196.618999 
L 274.078649 210.162614 
L 275.523871 208.51598 
L 276.969092 212.464921 
L 278.414314 215.303906 
L 279.859535 205.341322 
L 281.304757 213.576136 
L 282.749978 194.15669 
L 284.1952 216.954886 
L 285.640421 221.343494 
L 287.085642 205.281011 
L 288.530864 182.785714 
L 289.976085 198.699457 
L 291.421307 207.121449 
L 292.866528 210.426136 
L 294.31175 194.317116 
L 295.756971 215.83302 
L 297.202193 200.824977 
L 298.647414 197.350933 
L 300.092635 207.542045 
L 301.537857 208.390464 
L 302.983078 213.991038 
L 304.4283 197.417045 
L 305.873521 218.487784 
L 307.318743 208.950449 
L 308.763964 207.960341 
L 310.209186 222.62429 
L 311.654407 218.115909 
L 313.099628 217.47151 
L 314.54485 209.099148 
L 315.990071 218.040085 
L 317.435293 210.492127 
L 318.880514 222.227922 
L 320.325736 207.344212 
L 321.770957 207.584528 
L 323.216179 221.573864 
L 324.6614 203.588636 
L 326.106622 205.013352 
L 327.551843 202.563738 
L 328.997064 206.980185 
L 330.442286 211.233324 
L 331.887507 198.055909 
L 333.332729 211.965 
L 334.77795 216.097159 
L 336.223172 197.497701 
L 337.668393 216.413275 
L 339.113615 215.053977 
L 340.558836 203.816896 
L 342.004057 220.082297 
L 343.449279 214.675203 
L 344.8945 221.069659 
L 346.339722 198.075524 
L 347.784943 215.124609 
L 349.230165 209.116534 
L 350.675386 212.337358 
L 352.120608 194.706499 
L 353.565829 203.076705 
L 355.01105 211.337642 
L 356.456272 201.949006 
L 357.901493 202.434375 
L 359.346715 218.718153 
L 360.791936 210.928059 
L 362.237158 214.608452 
L 363.682379 212.741591 
L 365.127601 220.641322 
L 366.572822 210.647621 
L 368.018043 216.162358 
L 369.463265 205.59375 
L 370.908486 185.620694 
L 372.353708 207.197514 
L 373.798929 206.224964 
L 375.244151 223.851477 
L 376.689372 194.678497 
L 378.134594 206.975528 
L 379.579815 209.994545 
L 381.025036 209.296023 
L 382.470258 218.009659 
L 383.915479 211.86358 
L 385.360701 214.264904 
L 386.805922 221.334801 
L 388.251144 204.789336 
L 389.696365 216.976136 
L 391.141587 200.802273 
L 392.586808 223.626792 
L 394.032029 212.892273 
L 395.477251 213.702583 
L 396.922472 226.230925 
L 398.367694 201.650178 
L 399.812915 221.021847 
L 401.258137 203.298121 
L 402.703358 213.502579 
L 404.14858 190.35375 
L 405.593801 201.51 
L 407.039022 213.820632 
L 408.484244 203.326875 
L 409.929465 217.171388 
L 411.374687 201.974082 
L 412.819908 192.429972 
L 414.26513 230.093182 
L 415.710351 210.24375 
L 417.155573 201.644744 
L 418.600794 206.539006 
L 420.046015 207.261725 
L 421.491237 203.859834 
L 422.936458 214.91054 
L 424.38168 196.093182 
L 425.826901 201.552797 
L 427.272123 207.399148 
L 428.717344 213.448026 
L 430.162566 212.8575 
L 431.607787 204.93263 
L 433.053008 207.604589 
L 434.49823 215.302354 
L 435.943451 217.220586 
L 437.388673 187.132305 
L 438.833894 206.034801 
L 440.279116 183.25763 
L 441.724337 216.164773 
L 443.169559 191.593725 
L 444.61478 198.988977 
L 446.060001 207.245919 
L 447.505223 215.55289 
L 448.950444 205.950974 
L 450.395666 203.967883 
L 451.840887 217.709349 
L 453.286109 208.974959 
L 454.73133 202.439205 
L 456.176552 216.091364 
L 457.621773 207.619019 
L 459.066994 202.130114 
L 460.512216 202.54765 
L 461.957437 204.807362 
L 463.402659 194.375071 
L 464.84788 196.021705 
L 466.293102 206.143466 
L 467.738323 211.223182 
L 469.183545 213.627273 
L 470.628766 204.444673 
L 472.073987 220.2525 
L 473.519209 216.908523 
L 474.96443 205.530114 
L 476.409652 199.527955 
L 477.854873 214.987744 
L 479.300095 209.474535 
L 480.745316 213.883295 
L 482.190538 205.665341 
L 483.635759 206.521285 
L 485.08098 200.729545 
L 486.526202 204.452871 
L 487.971423 218.930114 
L 489.416645 212.110714 
L 490.861866 215.065568 
L 492.307088 208.277642 
L 493.752309 230.701705 
L 495.197531 217.422869 
L 496.642752 218.244375 
L 498.087973 215.387216 
L 499.533195 210.343359 
L 500.978416 220.435057 
L 502.423638 226.094318 
L 503.868859 213.408068 
L 505.314081 227.267898 
L 506.759302 217.748864 
L 508.204524 222.150775 
L 509.649745 219.313636 
L 511.094966 208.844562 
L 512.540188 224.949716 
L 513.985409 222.790909 
L 515.430631 212.243182 
L 516.875852 222.385227 
L 518.321074 214.075994 
L 519.766295 214.331774 
L 521.211517 219.708781 
L 522.656738 218.726847 
L 524.101959 214.503409 
L 525.547181 224.181818 
L 526.992402 212.668182 
L 528.437624 209.844755 
L 529.882845 215.563149 
L 531.328067 216.035065 
L 532.773288 226.978125 
L 534.21851 206.689205 
L 535.663731 215.899587 
L 537.108953 216.531818 
L 538.554174 230.027983 
L 539.999395 226.18125 
L 541.444617 211.101477 
L 542.889838 219.565739 
L 544.33506 212.755717 
L 545.780281 218.132812 
L 547.225503 222.828166 
L 548.670724 222.233097 
L 550.115946 223.638494 
L 551.561167 226.228667 
L 553.006388 229.871023 
L 554.45161 232.189205 
L 555.896831 221.209837 
L 557.342053 222.845241 
L 558.787274 228.39406 
L 560.232496 226.596591 
L 561.677717 228.934091 
L 563.122939 234.581037 
L 564.56816 229.840289 
L 566.013381 239.713636 
L 567.458603 237.430227 
L 568.903824 240.177273 
L 570.349046 233.338636 
L 573.239489 240.872727 
L 573.239489 237.395455 
L 573.239489 237.395455 
L 570.349046 231.020455 
L 568.903824 233.918182 
L 567.458603 228.354545 
L 566.013381 228.94858 
L 564.56816 221.739824 
L 563.122939 223.692827 
L 561.677717 217.488068 
L 560.232496 216.328977 
L 558.787274 216.049742 
L 557.342053 209.120881 
L 555.896831 212.288459 
L 554.45161 220.559659 
L 553.006388 212.407386 
L 551.561167 209.063585 
L 550.115946 202.166335 
L 548.670724 200.550852 
L 547.225503 194.674675 
L 545.780281 203.904972 
L 544.33506 198.276136 
L 542.889838 194.40767 
L 541.444617 193.460114 
L 539.999395 199.248192 
L 538.554174 202.49233 
L 537.108953 174.804545 
L 535.663731 184.272211 
L 534.21851 178.629545 
L 532.773288 188.851278 
L 531.328067 188.061648 
L 529.882845 175.773214 
L 528.437624 190.586014 
L 526.992402 190.828977 
L 525.547181 173.01375 
L 524.101959 179.853835 
L 522.656738 197.653125 
L 521.211517 187.038223 
L 519.766295 184.012631 
L 518.321074 181.838778 
L 516.875852 180.020455 
L 515.430631 178.817898 
L 513.985409 194.972727 
L 512.540188 196.233239 
L 511.094966 175.798052 
L 509.649745 202.256699 
L 508.204524 179.901911 
L 506.759302 181.701136 
L 505.314081 211.895455 
L 503.868859 178.270227 
L 502.423638 203.63331 
L 500.978416 197.984915 
L 499.533195 172.299822 
L 498.087973 192.314062 
L 496.642752 167.667443 
L 495.197531 177.847159 
L 493.752309 180.666234 
L 492.307088 173.035483 
L 490.861866 176.409886 
L 489.416645 163.000446 
L 487.971423 199.759091 
L 486.526202 176.424222 
L 485.08098 163.092898 
L 483.635759 160.728278 
L 482.190538 168.402638 
L 480.745316 174.879886 
L 479.300095 146.2672 
L 477.854873 187.024675 
L 476.409652 169.21483 
L 474.96443 175.557955 
L 473.519209 178.588977 
L 472.073987 193.888977 
L 470.628766 171.664134 
L 469.183545 164.311364 
L 467.738323 153.436705 
L 466.293102 157.765909 
L 464.84788 154.978295 
L 463.402659 142.77017 
L 461.957437 166.840835 
L 460.512216 153.12296 
L 459.066994 163.889773 
L 457.621773 162.620365 
L 456.176552 193.216705 
L 454.73133 159.88125 
L 453.286109 177.983766 
L 451.840887 180.810744 
L 450.395666 168.216029 
L 448.950444 177.665016 
L 447.505223 181.324432 
L 446.060001 161.946539 
L 444.61478 162.89054 
L 443.169559 161.04664 
L 441.724337 174.939773 
L 440.279116 148.878166 
L 438.833894 180.698523 
L 437.388673 120.116153 
L 435.943451 191.655944 
L 434.49823 162.205641 
L 433.053008 182.688593 
L 431.607787 137.554261 
L 430.162566 173.170227 
L 428.717344 180.363606 
L 427.272123 189.375284 
L 425.826901 168.980114 
L 424.38168 155.467045 
L 422.936458 188.970085 
L 421.491237 155.786538 
L 420.046015 173.374122 
L 418.600794 180.515966 
L 417.155573 167.835511 
L 415.710351 165.143523 
L 414.26513 186.922841 
L 412.819908 151.001527 
L 411.374687 157.618794 
L 409.929465 156.530235 
L 408.484244 161.929943 
L 407.039022 187.594389 
L 405.593801 156.664773 
L 404.14858 128.603182 
L 402.703358 180.013767 
L 401.258137 157.451617 
L 399.812915 189.317812 
L 398.367694 160.895455 
L 396.922472 184.218019 
L 395.477251 130.619473 
L 394.032029 158.577273 
L 392.586808 183.210184 
L 391.141587 161.94375 
L 389.696365 165.309659 
L 388.251144 160.614598 
L 386.805922 178.591513 
L 385.360701 145.776005 
L 383.915479 190.96517 
L 382.470258 188.292351 
L 381.025036 179.488636 
L 379.579815 162.799261 
L 378.134594 169.029789 
L 376.689372 125.32028 
L 375.244151 202.405398 
L 373.798929 167.828267 
L 372.353708 98.945668 
L 370.908486 150.651226 
L 369.463265 161.38125 
L 368.018043 165.242045 
L 366.572822 172.256357 
L 365.127601 192.009143 
L 363.682379 165.711477 
L 362.237158 178.716477 
L 360.791936 170.076792 
L 359.346715 180.424688 
L 357.901493 135.569318 
L 356.456272 160.670881 
L 355.01105 179.037038 
L 353.565829 157.065625 
L 352.120608 122.281428 
L 350.675386 177.108239 
L 349.230165 139.962273 
L 347.784943 152.843395 
L 346.339722 111.758916 
L 344.8945 186.42733 
L 343.449279 170.662865 
L 342.004057 193.348475 
L 340.558836 170.155981 
L 339.113615 177.401634 
L 337.668393 186.951291 
L 336.223172 155.023605 
L 334.77795 203.057386 
L 333.332729 179.162727 
L 331.887507 142.941136 
L 330.442286 171.30554 
L 328.997064 140.509943 
L 327.551843 162.100081 
L 326.106622 148.710511 
L 324.6614 174.225 
L 323.216179 179.238068 
L 321.770957 176.937719 
L 320.325736 169.854865 
L 318.880514 196.897646 
L 317.435293 172.002029 
L 315.990071 192.182216 
L 314.54485 177.702273 
L 313.099628 194.500812 
L 311.654407 187.544886 
L 310.209186 141.314062 
L 308.763964 175.114602 
L 307.318743 168.023864 
L 305.873521 191.722815 
L 304.4283 125.907955 
L 302.983078 145.089669 
L 301.537857 181.679718 
L 300.092635 147.257386 
L 298.647414 158.597971 
L 297.202193 141.203659 
L 295.756971 194.782146 
L 294.31175 158.714915 
L 292.866528 171.317045 
L 291.421307 174.243111 
L 289.976085 154.341551 
L 288.530864 121.138636 
L 287.085642 172.965251 
L 285.640421 176.491023 
L 284.1952 186.934432 
L 282.749978 137.042485 
L 281.304757 174.67125 
L 279.859535 161.120687 
L 278.414314 194.653977 
L 276.969092 165.117317 
L 275.523871 167.02777 
L 274.078649 179.272841 
L 272.633428 152.077308 
L 271.188207 163.778693 
L 269.742985 165.626552 
L 268.297764 157.535205 
L 266.852542 151.890108 
L 265.407321 176.096449 
L 263.962099 176.377468 
L 262.516878 128.769318 
L 261.071656 123.26239 
L 259.626435 159.908967 
L 258.181214 174.407683 
L 256.735992 187.056818 
L 255.290771 143.807683 
L 253.845549 170.60767 
L 252.400328 97.005398 
L 250.955106 155.819392 
L 249.509885 148.101989 
L 248.064663 166.027909 
L 246.619442 149.004694 
L 245.174221 159.527083 
L 243.728999 131.62358 
L 242.283778 96.696307 
L 240.838556 168.9083 
L 239.393335 187.500542 
L 237.948113 171.374361 
L 236.502892 155.12498 
L 235.05767 121.967386 
L 233.612449 162.702394 
L 232.167228 129.400057 
L 230.722006 188.402131 
L 229.276785 179.143892 
L 227.831563 136.135227 
L 226.386342 159.217292 
L 224.94112 161.870006 
L 223.495899 173.82294 
L 222.050677 65.75861 
L 220.605456 124.866167 
L 219.160235 162.653848 
L 217.715013 111.083523 
L 216.269792 170.952093 
L 214.82457 81.445568 
L 213.379349 159.732741 
L 211.934127 185.359517 
L 210.488906 130.867756 
L 209.043684 168.781412 
L 207.598463 186.346023 
L 206.153242 173.995411 
L 204.70802 184.765483 
L 203.262799 195.400699 
L 201.817577 180.831818 
L 200.372356 128.438275 
L 198.927134 202.900909 
L 197.481913 148.566942 
L 196.036691 159.678409 
L 194.59147 49.264134 
L 193.146249 165.435227 
L 191.701027 184.425 
L 190.255806 177.560795 
L 188.810584 192.190909 
L 187.365363 144.082841 
L 185.920141 146.742955 
L 184.47492 174.746591 
L 183.029698 134.242159 
L 181.584477 170.962159 
L 180.139256 201.132468 
L 178.694034 218.948523 
L 177.248813 202.622727 
L 175.803591 170.208026 
L 174.35837 138.606136 
L 172.913148 186.888068 
L 171.467927 178.281818 
L 170.022705 175.355114 
L 168.577484 213.054545 
L 167.132263 195.668182 
L 165.687041 145.247727 
L 164.24182 144.241802 
L 162.796598 140.031818 
L 161.351377 160.895455 
L 159.906155 191.278125 
z
" style="fill:#1f77b4;fill-opacity:0.2;stroke:#1f77b4;stroke-opacity:0.2;"/>
   </g>
   <g id="matplotlib.axis_1">
    <g id="xtick_1">
     <g id="line2d_1">
      <defs>
       <path d="M 0 0 
L 0 3.5 
" id="m87b34e469a" style="stroke:#000000;stroke-width:0.8;"/>
      </defs>
      <g>
       <use style="stroke:#000000;stroke-width:0.8;" x="41.397997" xlink:href="#m87b34e469a" y="252"/>
      </g>
     </g>
     <g id="text_1">
      <!-- Mar 2020 -->
      <g transform="translate(44.157372 306.495312)rotate(-90)scale(0.1 -0.1)">
       <defs>
        <path d="M 628 4666 
L 1569 4666 
L 2759 1491 
L 3956 4666 
L 4897 4666 
L 4897 0 
L 4281 0 
L 4281 4097 
L 3078 897 
L 2444 897 
L 1241 4097 
L 1241 0 
L 628 0 
L 628 4666 
z
" id="DejaVuSans-4d" transform="scale(0.015625)"/>
        <path d="M 2194 1759 
Q 1497 1759 1228 1600 
Q 959 1441 959 1056 
Q 959 750 1161 570 
Q 1363 391 1709 391 
Q 2188 391 2477 730 
Q 2766 1069 2766 1631 
L 2766 1759 
L 2194 1759 
z
M 3341 1997 
L 3341 0 
L 2766 0 
L 2766 531 
Q 2569 213 2275 61 
Q 1981 -91 1556 -91 
Q 1019 -91 701 211 
Q 384 513 384 1019 
Q 384 1609 779 1909 
Q 1175 2209 1959 2209 
L 2766 2209 
L 2766 2266 
Q 2766 2663 2505 2880 
Q 2244 3097 1772 3097 
Q 1472 3097 1187 3025 
Q 903 2953 641 2809 
L 641 3341 
Q 956 3463 1253 3523 
Q 1550 3584 1831 3584 
Q 2591 3584 2966 3190 
Q 3341 2797 3341 1997 
z
" id="DejaVuSans-61" transform="scale(0.015625)"/>
        <path d="M 2631 2963 
Q 2534 3019 2420 3045 
Q 2306 3072 2169 3072 
Q 1681 3072 1420 2755 
Q 1159 2438 1159 1844 
L 1159 0 
L 581 0 
L 581 3500 
L 1159 3500 
L 1159 2956 
Q 1341 3275 1631 3429 
Q 1922 3584 2338 3584 
Q 2397 3584 2469 3576 
Q 2541 3569 2628 3553 
L 2631 2963 
z
" id="DejaVuSans-72" transform="scale(0.015625)"/>
        <path id="DejaVuSans-20" transform="scale(0.015625)"/>
        <path d="M 1228 531 
L 3431 531 
L 3431 0 
L 469 0 
L 469 531 
Q 828 903 1448 1529 
Q 2069 2156 2228 2338 
Q 2531 2678 2651 2914 
Q 2772 3150 2772 3378 
Q 2772 3750 2511 3984 
Q 2250 4219 1831 4219 
Q 1534 4219 1204 4116 
Q 875 4013 500 3803 
L 500 4441 
Q 881 4594 1212 4672 
Q 1544 4750 1819 4750 
Q 2544 4750 2975 4387 
Q 3406 4025 3406 3419 
Q 3406 3131 3298 2873 
Q 3191 2616 2906 2266 
Q 2828 2175 2409 1742 
Q 1991 1309 1228 531 
z
" id="DejaVuSans-32" transform="scale(0.015625)"/>
        <path d="M 2034 4250 
Q 1547 4250 1301 3770 
Q 1056 3291 1056 2328 
Q 1056 1369 1301 889 
Q 1547 409 2034 409 
Q 2525 409 2770 889 
Q 3016 1369 3016 2328 
Q 3016 3291 2770 3770 
Q 2525 4250 2034 4250 
z
M 2034 4750 
Q 2819 4750 3233 4129 
Q 3647 3509 3647 2328 
Q 3647 1150 3233 529 
Q 2819 -91 2034 -91 
Q 1250 -91 836 529 
Q 422 1150 422 2328 
Q 422 3509 836 4129 
Q 1250 4750 2034 4750 
z
" id="DejaVuSans-30" transform="scale(0.015625)"/>
       </defs>
       <use xlink:href="#DejaVuSans-4d"/>
       <use x="86.279297" xlink:href="#DejaVuSans-61"/>
       <use x="147.558594" xlink:href="#DejaVuSans-72"/>
       <use x="188.671875" xlink:href="#DejaVuSans-20"/>
       <use x="220.458984" xlink:href="#DejaVuSans-32"/>
       <use x="284.082031" xlink:href="#DejaVuSans-30"/>
       <use x="347.705078" xlink:href="#DejaVuSans-32"/>
       <use x="411.328125" xlink:href="#DejaVuSans-30"/>
      </g>
     </g>
    </g>
    <g id="xtick_2">
     <g id="line2d_2">
      <g>
       <use style="stroke:#000000;stroke-width:0.8;" x="86.199862" xlink:href="#m87b34e469a" y="252"/>
      </g>
     </g>
     <g id="text_2">
      <!-- Apr 2020 -->
      <g transform="translate(88.959237 304.928125)rotate(-90)scale(0.1 -0.1)">
       <defs>
        <path d="M 2188 4044 
L 1331 1722 
L 3047 1722 
L 2188 4044 
z
M 1831 4666 
L 2547 4666 
L 4325 0 
L 3669 0 
L 3244 1197 
L 1141 1197 
L 716 0 
L 50 0 
L 1831 4666 
z
" id="DejaVuSans-41" transform="scale(0.015625)"/>
        <path d="M 1159 525 
L 1159 -1331 
L 581 -1331 
L 581 3500 
L 1159 3500 
L 1159 2969 
Q 1341 3281 1617 3432 
Q 1894 3584 2278 3584 
Q 2916 3584 3314 3078 
Q 3713 2572 3713 1747 
Q 3713 922 3314 415 
Q 2916 -91 2278 -91 
Q 1894 -91 1617 61 
Q 1341 213 1159 525 
z
M 3116 1747 
Q 3116 2381 2855 2742 
Q 2594 3103 2138 3103 
Q 1681 3103 1420 2742 
Q 1159 2381 1159 1747 
Q 1159 1113 1420 752 
Q 1681 391 2138 391 
Q 2594 391 2855 752 
Q 3116 1113 3116 1747 
z
" id="DejaVuSans-70" transform="scale(0.015625)"/>
       </defs>
       <use xlink:href="#DejaVuSans-41"/>
       <use x="68.408203" xlink:href="#DejaVuSans-70"/>
       <use x="131.884766" xlink:href="#DejaVuSans-72"/>
       <use x="172.998047" xlink:href="#DejaVuSans-20"/>
       <use x="204.785156" xlink:href="#DejaVuSans-32"/>
       <use x="268.408203" xlink:href="#DejaVuSans-30"/>
       <use x="332.03125" xlink:href="#DejaVuSans-32"/>
       <use x="395.654297" xlink:href="#DejaVuSans-30"/>
      </g>
     </g>
    </g>
    <g id="xtick_3">
     <g id="line2d_3">
      <g>
       <use style="stroke:#000000;stroke-width:0.8;" x="129.556505" xlink:href="#m87b34e469a" y="252"/>
      </g>
     </g>
     <g id="text_3">
      <!-- May 2020 -->
      <g transform="translate(132.31588 308.303125)rotate(-90)scale(0.1 -0.1)">
       <defs>
        <path d="M 2059 -325 
Q 1816 -950 1584 -1140 
Q 1353 -1331 966 -1331 
L 506 -1331 
L 506 -850 
L 844 -850 
Q 1081 -850 1212 -737 
Q 1344 -625 1503 -206 
L 1606 56 
L 191 3500 
L 800 3500 
L 1894 763 
L 2988 3500 
L 3597 3500 
L 2059 -325 
z
" id="DejaVuSans-79" transform="scale(0.015625)"/>
       </defs>
       <use xlink:href="#DejaVuSans-4d"/>
       <use x="86.279297" xlink:href="#DejaVuSans-61"/>
       <use x="147.558594" xlink:href="#DejaVuSans-79"/>
       <use x="206.738281" xlink:href="#DejaVuSans-20"/>
       <use x="238.525391" xlink:href="#DejaVuSans-32"/>
       <use x="302.148438" xlink:href="#DejaVuSans-30"/>
       <use x="365.771484" xlink:href="#DejaVuSans-32"/>
       <use x="429.394531" xlink:href="#DejaVuSans-30"/>
      </g>
     </g>
    </g>
    <g id="xtick_4">
     <g id="line2d_4">
      <g>
       <use style="stroke:#000000;stroke-width:0.8;" x="174.35837" xlink:href="#m87b34e469a" y="252"/>
      </g>
     </g>
     <g id="text_4">
      <!-- Jun 2020 -->
      <g transform="translate(177.117745 303.253125)rotate(-90)scale(0.1 -0.1)">
       <defs>
        <path d="M 628 4666 
L 1259 4666 
L 1259 325 
Q 1259 -519 939 -900 
Q 619 -1281 -91 -1281 
L -331 -1281 
L -331 -750 
L -134 -750 
Q 284 -750 456 -515 
Q 628 -281 628 325 
L 628 4666 
z
" id="DejaVuSans-4a" transform="scale(0.015625)"/>
        <path d="M 544 1381 
L 544 3500 
L 1119 3500 
L 1119 1403 
Q 1119 906 1312 657 
Q 1506 409 1894 409 
Q 2359 409 2629 706 
Q 2900 1003 2900 1516 
L 2900 3500 
L 3475 3500 
L 3475 0 
L 2900 0 
L 2900 538 
Q 2691 219 2414 64 
Q 2138 -91 1772 -91 
Q 1169 -91 856 284 
Q 544 659 544 1381 
z
M 1991 3584 
L 1991 3584 
z
" id="DejaVuSans-75" transform="scale(0.015625)"/>
        <path d="M 3513 2113 
L 3513 0 
L 2938 0 
L 2938 2094 
Q 2938 2591 2744 2837 
Q 2550 3084 2163 3084 
Q 1697 3084 1428 2787 
Q 1159 2491 1159 1978 
L 1159 0 
L 581 0 
L 581 3500 
L 1159 3500 
L 1159 2956 
Q 1366 3272 1645 3428 
Q 1925 3584 2291 3584 
Q 2894 3584 3203 3211 
Q 3513 2838 3513 2113 
z
" id="DejaVuSans-6e" transform="scale(0.015625)"/>
       </defs>
       <use xlink:href="#DejaVuSans-4a"/>
       <use x="29.492188" xlink:href="#DejaVuSans-75"/>
       <use x="92.871094" xlink:href="#DejaVuSans-6e"/>
       <use x="156.25" xlink:href="#DejaVuSans-20"/>
       <use x="188.037109" xlink:href="#DejaVuSans-32"/>
       <use x="251.660156" xlink:href="#DejaVuSans-30"/>
       <use x="315.283203" xlink:href="#DejaVuSans-32"/>
       <use x="378.90625" xlink:href="#DejaVuSans-30"/>
      </g>
     </g>
    </g>
    <g id="xtick_5">
     <g id="line2d_5">
      <g>
       <use style="stroke:#000000;stroke-width:0.8;" x="217.715013" xlink:href="#m87b34e469a" y="252"/>
      </g>
     </g>
     <g id="text_5">
      <!-- Jul 2020 -->
      <g transform="translate(220.474388 299.69375)rotate(-90)scale(0.1 -0.1)">
       <defs>
        <path d="M 603 4863 
L 1178 4863 
L 1178 0 
L 603 0 
L 603 4863 
z
" id="DejaVuSans-6c" transform="scale(0.015625)"/>
       </defs>
       <use xlink:href="#DejaVuSans-4a"/>
       <use x="29.492188" xlink:href="#DejaVuSans-75"/>
       <use x="92.871094" xlink:href="#DejaVuSans-6c"/>
       <use x="120.654297" xlink:href="#DejaVuSans-20"/>
       <use x="152.441406" xlink:href="#DejaVuSans-32"/>
       <use x="216.064453" xlink:href="#DejaVuSans-30"/>
       <use x="279.6875" xlink:href="#DejaVuSans-32"/>
       <use x="343.310547" xlink:href="#DejaVuSans-30"/>
      </g>
     </g>
    </g>
    <g id="xtick_6">
     <g id="line2d_6">
      <g>
       <use style="stroke:#000000;stroke-width:0.8;" x="262.516878" xlink:href="#m87b34e469a" y="252"/>
      </g>
     </g>
     <g id="text_6">
      <!-- Aug 2020 -->
      <g transform="translate(265.276253 307.154687)rotate(-90)scale(0.1 -0.1)">
       <defs>
        <path d="M 2906 1791 
Q 2906 2416 2648 2759 
Q 2391 3103 1925 3103 
Q 1463 3103 1205 2759 
Q 947 2416 947 1791 
Q 947 1169 1205 825 
Q 1463 481 1925 481 
Q 2391 481 2648 825 
Q 2906 1169 2906 1791 
z
M 3481 434 
Q 3481 -459 3084 -895 
Q 2688 -1331 1869 -1331 
Q 1566 -1331 1297 -1286 
Q 1028 -1241 775 -1147 
L 775 -588 
Q 1028 -725 1275 -790 
Q 1522 -856 1778 -856 
Q 2344 -856 2625 -561 
Q 2906 -266 2906 331 
L 2906 616 
Q 2728 306 2450 153 
Q 2172 0 1784 0 
Q 1141 0 747 490 
Q 353 981 353 1791 
Q 353 2603 747 3093 
Q 1141 3584 1784 3584 
Q 2172 3584 2450 3431 
Q 2728 3278 2906 2969 
L 2906 3500 
L 3481 3500 
L 3481 434 
z
" id="DejaVuSans-67" transform="scale(0.015625)"/>
       </defs>
       <use xlink:href="#DejaVuSans-41"/>
       <use x="68.408203" xlink:href="#DejaVuSans-75"/>
       <use x="131.787109" xlink:href="#DejaVuSans-67"/>
       <use x="195.263672" xlink:href="#DejaVuSans-20"/>
       <use x="227.050781" xlink:href="#DejaVuSans-32"/>
       <use x="290.673828" xlink:href="#DejaVuSans-30"/>
       <use x="354.296875" xlink:href="#DejaVuSans-32"/>
       <use x="417.919922" xlink:href="#DejaVuSans-30"/>
      </g>
     </g>
    </g>
    <g id="xtick_7">
     <g id="line2d_7">
      <g>
       <use style="stroke:#000000;stroke-width:0.8;" x="307.318743" xlink:href="#m87b34e469a" y="252"/>
      </g>
     </g>
     <g id="text_7">
      <!-- Sep 2020 -->
      <g transform="translate(310.078118 306.478125)rotate(-90)scale(0.1 -0.1)">
       <defs>
        <path d="M 3425 4513 
L 3425 3897 
Q 3066 4069 2747 4153 
Q 2428 4238 2131 4238 
Q 1616 4238 1336 4038 
Q 1056 3838 1056 3469 
Q 1056 3159 1242 3001 
Q 1428 2844 1947 2747 
L 2328 2669 
Q 3034 2534 3370 2195 
Q 3706 1856 3706 1288 
Q 3706 609 3251 259 
Q 2797 -91 1919 -91 
Q 1588 -91 1214 -16 
Q 841 59 441 206 
L 441 856 
Q 825 641 1194 531 
Q 1563 422 1919 422 
Q 2459 422 2753 634 
Q 3047 847 3047 1241 
Q 3047 1584 2836 1778 
Q 2625 1972 2144 2069 
L 1759 2144 
Q 1053 2284 737 2584 
Q 422 2884 422 3419 
Q 422 4038 858 4394 
Q 1294 4750 2059 4750 
Q 2388 4750 2728 4690 
Q 3069 4631 3425 4513 
z
" id="DejaVuSans-53" transform="scale(0.015625)"/>
        <path d="M 3597 1894 
L 3597 1613 
L 953 1613 
Q 991 1019 1311 708 
Q 1631 397 2203 397 
Q 2534 397 2845 478 
Q 3156 559 3463 722 
L 3463 178 
Q 3153 47 2828 -22 
Q 2503 -91 2169 -91 
Q 1331 -91 842 396 
Q 353 884 353 1716 
Q 353 2575 817 3079 
Q 1281 3584 2069 3584 
Q 2775 3584 3186 3129 
Q 3597 2675 3597 1894 
z
M 3022 2063 
Q 3016 2534 2758 2815 
Q 2500 3097 2075 3097 
Q 1594 3097 1305 2825 
Q 1016 2553 972 2059 
L 3022 2063 
z
" id="DejaVuSans-65" transform="scale(0.015625)"/>
       </defs>
       <use xlink:href="#DejaVuSans-53"/>
       <use x="63.476562" xlink:href="#DejaVuSans-65"/>
       <use x="125" xlink:href="#DejaVuSans-70"/>
       <use x="188.476562" xlink:href="#DejaVuSans-20"/>
       <use x="220.263672" xlink:href="#DejaVuSans-32"/>
       <use x="283.886719" xlink:href="#DejaVuSans-30"/>
       <use x="347.509766" xlink:href="#DejaVuSans-32"/>
       <use x="411.132812" xlink:href="#DejaVuSans-30"/>
      </g>
     </g>
    </g>
    <g id="xtick_8">
     <g id="line2d_8">
      <g>
       <use style="stroke:#000000;stroke-width:0.8;" x="350.675386" xlink:href="#m87b34e469a" y="252"/>
      </g>
     </g>
     <g id="text_8">
      <!-- Oct 2020 -->
      <g transform="translate(353.434761 304.91875)rotate(-90)scale(0.1 -0.1)">
       <defs>
        <path d="M 2522 4238 
Q 1834 4238 1429 3725 
Q 1025 3213 1025 2328 
Q 1025 1447 1429 934 
Q 1834 422 2522 422 
Q 3209 422 3611 934 
Q 4013 1447 4013 2328 
Q 4013 3213 3611 3725 
Q 3209 4238 2522 4238 
z
M 2522 4750 
Q 3503 4750 4090 4092 
Q 4678 3434 4678 2328 
Q 4678 1225 4090 567 
Q 3503 -91 2522 -91 
Q 1538 -91 948 565 
Q 359 1222 359 2328 
Q 359 3434 948 4092 
Q 1538 4750 2522 4750 
z
" id="DejaVuSans-4f" transform="scale(0.015625)"/>
        <path d="M 3122 3366 
L 3122 2828 
Q 2878 2963 2633 3030 
Q 2388 3097 2138 3097 
Q 1578 3097 1268 2742 
Q 959 2388 959 1747 
Q 959 1106 1268 751 
Q 1578 397 2138 397 
Q 2388 397 2633 464 
Q 2878 531 3122 666 
L 3122 134 
Q 2881 22 2623 -34 
Q 2366 -91 2075 -91 
Q 1284 -91 818 406 
Q 353 903 353 1747 
Q 353 2603 823 3093 
Q 1294 3584 2113 3584 
Q 2378 3584 2631 3529 
Q 2884 3475 3122 3366 
z
" id="DejaVuSans-63" transform="scale(0.015625)"/>
        <path d="M 1172 4494 
L 1172 3500 
L 2356 3500 
L 2356 3053 
L 1172 3053 
L 1172 1153 
Q 1172 725 1289 603 
Q 1406 481 1766 481 
L 2356 481 
L 2356 0 
L 1766 0 
Q 1100 0 847 248 
Q 594 497 594 1153 
L 594 3053 
L 172 3053 
L 172 3500 
L 594 3500 
L 594 4494 
L 1172 4494 
z
" id="DejaVuSans-74" transform="scale(0.015625)"/>
       </defs>
       <use xlink:href="#DejaVuSans-4f"/>
       <use x="78.710938" xlink:href="#DejaVuSans-63"/>
       <use x="133.691406" xlink:href="#DejaVuSans-74"/>
       <use x="172.900391" xlink:href="#DejaVuSans-20"/>
       <use x="204.6875" xlink:href="#DejaVuSans-32"/>
       <use x="268.310547" xlink:href="#DejaVuSans-30"/>
       <use x="331.933594" xlink:href="#DejaVuSans-32"/>
       <use x="395.556641" xlink:href="#DejaVuSans-30"/>
      </g>
     </g>
    </g>
    <g id="xtick_9">
     <g id="line2d_9">
      <g>
       <use style="stroke:#000000;stroke-width:0.8;" x="395.477251" xlink:href="#m87b34e469a" y="252"/>
      </g>
     </g>
     <g id="text_9">
      <!-- Nov 2020 -->
      <g transform="translate(398.236626 307.146875)rotate(-90)scale(0.1 -0.1)">
       <defs>
        <path d="M 628 4666 
L 1478 4666 
L 3547 763 
L 3547 4666 
L 4159 4666 
L 4159 0 
L 3309 0 
L 1241 3903 
L 1241 0 
L 628 0 
L 628 4666 
z
" id="DejaVuSans-4e" transform="scale(0.015625)"/>
        <path d="M 1959 3097 
Q 1497 3097 1228 2736 
Q 959 2375 959 1747 
Q 959 1119 1226 758 
Q 1494 397 1959 397 
Q 2419 397 2687 759 
Q 2956 1122 2956 1747 
Q 2956 2369 2687 2733 
Q 2419 3097 1959 3097 
z
M 1959 3584 
Q 2709 3584 3137 3096 
Q 3566 2609 3566 1747 
Q 3566 888 3137 398 
Q 2709 -91 1959 -91 
Q 1206 -91 779 398 
Q 353 888 353 1747 
Q 353 2609 779 3096 
Q 1206 3584 1959 3584 
z
" id="DejaVuSans-6f" transform="scale(0.015625)"/>
        <path d="M 191 3500 
L 800 3500 
L 1894 563 
L 2988 3500 
L 3597 3500 
L 2284 0 
L 1503 0 
L 191 3500 
z
" id="DejaVuSans-76" transform="scale(0.015625)"/>
       </defs>
       <use xlink:href="#DejaVuSans-4e"/>
       <use x="74.804688" xlink:href="#DejaVuSans-6f"/>
       <use x="135.986328" xlink:href="#DejaVuSans-76"/>
       <use x="195.166016" xlink:href="#DejaVuSans-20"/>
       <use x="226.953125" xlink:href="#DejaVuSans-32"/>
       <use x="290.576172" xlink:href="#DejaVuSans-30"/>
       <use x="354.199219" xlink:href="#DejaVuSans-32"/>
       <use x="417.822266" xlink:href="#DejaVuSans-30"/>
      </g>
     </g>
    </g>
    <g id="xtick_10">
     <g id="line2d_10">
      <g>
       <use style="stroke:#000000;stroke-width:0.8;" x="438.833894" xlink:href="#m87b34e469a" y="252"/>
      </g>
     </g>
     <g id="text_10">
      <!-- Dec 2020 -->
      <g transform="translate(441.593269 306.979687)rotate(-90)scale(0.1 -0.1)">
       <defs>
        <path d="M 1259 4147 
L 1259 519 
L 2022 519 
Q 2988 519 3436 956 
Q 3884 1394 3884 2338 
Q 3884 3275 3436 3711 
Q 2988 4147 2022 4147 
L 1259 4147 
z
M 628 4666 
L 1925 4666 
Q 3281 4666 3915 4102 
Q 4550 3538 4550 2338 
Q 4550 1131 3912 565 
Q 3275 0 1925 0 
L 628 0 
L 628 4666 
z
" id="DejaVuSans-44" transform="scale(0.015625)"/>
       </defs>
       <use xlink:href="#DejaVuSans-44"/>
       <use x="77.001953" xlink:href="#DejaVuSans-65"/>
       <use x="138.525391" xlink:href="#DejaVuSans-63"/>
       <use x="193.505859" xlink:href="#DejaVuSans-20"/>
       <use x="225.292969" xlink:href="#DejaVuSans-32"/>
       <use x="288.916016" xlink:href="#DejaVuSans-30"/>
       <use x="352.539062" xlink:href="#DejaVuSans-32"/>
       <use x="416.162109" xlink:href="#DejaVuSans-30"/>
      </g>
     </g>
    </g>
    <g id="xtick_11">
     <g id="line2d_11">
      <g>
       <use style="stroke:#000000;stroke-width:0.8;" x="483.635759" xlink:href="#m87b34e469a" y="252"/>
      </g>
     </g>
     <g id="text_11">
      <!-- Jan 2021 -->
      <g transform="translate(486.395134 303.04375)rotate(-90)scale(0.1 -0.1)">
       <defs>
        <path d="M 794 531 
L 1825 531 
L 1825 4091 
L 703 3866 
L 703 4441 
L 1819 4666 
L 2450 4666 
L 2450 531 
L 3481 531 
L 3481 0 
L 794 0 
L 794 531 
z
" id="DejaVuSans-31" transform="scale(0.015625)"/>
       </defs>
       <use xlink:href="#DejaVuSans-4a"/>
       <use x="29.492188" xlink:href="#DejaVuSans-61"/>
       <use x="90.771484" xlink:href="#DejaVuSans-6e"/>
       <use x="154.150391" xlink:href="#DejaVuSans-20"/>
       <use x="185.9375" xlink:href="#DejaVuSans-32"/>
       <use x="249.560547" xlink:href="#DejaVuSans-30"/>
       <use x="313.183594" xlink:href="#DejaVuSans-32"/>
       <use x="376.806641" xlink:href="#DejaVuSans-31"/>
      </g>
     </g>
    </g>
    <g id="xtick_12">
     <g id="line2d_12">
      <g>
       <use style="stroke:#000000;stroke-width:0.8;" x="528.437624" xlink:href="#m87b34e469a" y="252"/>
      </g>
     </g>
     <g id="text_12">
      <!-- Feb 2021 -->
      <g transform="translate(531.196999 305.33125)rotate(-90)scale(0.1 -0.1)">
       <defs>
        <path d="M 628 4666 
L 3309 4666 
L 3309 4134 
L 1259 4134 
L 1259 2759 
L 3109 2759 
L 3109 2228 
L 1259 2228 
L 1259 0 
L 628 0 
L 628 4666 
z
" id="DejaVuSans-46" transform="scale(0.015625)"/>
        <path d="M 3116 1747 
Q 3116 2381 2855 2742 
Q 2594 3103 2138 3103 
Q 1681 3103 1420 2742 
Q 1159 2381 1159 1747 
Q 1159 1113 1420 752 
Q 1681 391 2138 391 
Q 2594 391 2855 752 
Q 3116 1113 3116 1747 
z
M 1159 2969 
Q 1341 3281 1617 3432 
Q 1894 3584 2278 3584 
Q 2916 3584 3314 3078 
Q 3713 2572 3713 1747 
Q 3713 922 3314 415 
Q 2916 -91 2278 -91 
Q 1894 -91 1617 61 
Q 1341 213 1159 525 
L 1159 0 
L 581 0 
L 581 4863 
L 1159 4863 
L 1159 2969 
z
" id="DejaVuSans-62" transform="scale(0.015625)"/>
       </defs>
       <use xlink:href="#DejaVuSans-46"/>
       <use x="52.019531" xlink:href="#DejaVuSans-65"/>
       <use x="113.542969" xlink:href="#DejaVuSans-62"/>
       <use x="177.019531" xlink:href="#DejaVuSans-20"/>
       <use x="208.806641" xlink:href="#DejaVuSans-32"/>
       <use x="272.429688" xlink:href="#DejaVuSans-30"/>
       <use x="336.052734" xlink:href="#DejaVuSans-32"/>
       <use x="399.675781" xlink:href="#DejaVuSans-31"/>
      </g>
     </g>
    </g>
    <g id="xtick_13">
     <g id="line2d_13">
      <g>
       <use style="stroke:#000000;stroke-width:0.8;" x="568.903824" xlink:href="#m87b34e469a" y="252"/>
      </g>
     </g>
     <g id="text_13">
      <!-- Mar 2021 -->
      <g transform="translate(571.663199 306.495312)rotate(-90)scale(0.1 -0.1)">
       <use xlink:href="#DejaVuSans-4d"/>
       <use x="86.279297" xlink:href="#DejaVuSans-61"/>
       <use x="147.558594" xlink:href="#DejaVuSans-72"/>
       <use x="188.671875" xlink:href="#DejaVuSans-20"/>
       <use x="220.458984" xlink:href="#DejaVuSans-32"/>
       <use x="284.082031" xlink:href="#DejaVuSans-30"/>
       <use x="347.705078" xlink:href="#DejaVuSans-32"/>
       <use x="411.328125" xlink:href="#DejaVuSans-31"/>
      </g>
     </g>
    </g>
    <g id="text_14">
     <!-- Start date -->
     <g transform="translate(294.525 319.901562)scale(0.1 -0.1)">
      <defs>
       <path d="M 2906 2969 
L 2906 4863 
L 3481 4863 
L 3481 0 
L 2906 0 
L 2906 525 
Q 2725 213 2448 61 
Q 2172 -91 1784 -91 
Q 1150 -91 751 415 
Q 353 922 353 1747 
Q 353 2572 751 3078 
Q 1150 3584 1784 3584 
Q 2172 3584 2448 3432 
Q 2725 3281 2906 2969 
z
M 947 1747 
Q 947 1113 1208 752 
Q 1469 391 1925 391 
Q 2381 391 2643 752 
Q 2906 1113 2906 1747 
Q 2906 2381 2643 2742 
Q 2381 3103 1925 3103 
Q 1469 3103 1208 2742 
Q 947 2381 947 1747 
z
" id="DejaVuSans-64" transform="scale(0.015625)"/>
      </defs>
      <use xlink:href="#DejaVuSans-53"/>
      <use x="63.476562" xlink:href="#DejaVuSans-74"/>
      <use x="102.685547" xlink:href="#DejaVuSans-61"/>
      <use x="163.964844" xlink:href="#DejaVuSans-72"/>
      <use x="205.078125" xlink:href="#DejaVuSans-74"/>
      <use x="244.287109" xlink:href="#DejaVuSans-20"/>
      <use x="276.074219" xlink:href="#DejaVuSans-64"/>
      <use x="339.550781" xlink:href="#DejaVuSans-61"/>
      <use x="400.830078" xlink:href="#DejaVuSans-74"/>
      <use x="440.039062" xlink:href="#DejaVuSans-65"/>
     </g>
    </g>
   </g>
   <g id="matplotlib.axis_2">
    <g id="ytick_1">
     <g id="line2d_14">
      <defs>
       <path d="M 0 0 
L -3.5 0 
" id="m17166c2587" style="stroke:#000000;stroke-width:0.8;"/>
      </defs>
      <g>
       <use style="stroke:#000000;stroke-width:0.8;" x="40.603125" xlink:href="#m17166c2587" y="240.872727"/>
      </g>
     </g>
     <g id="text_15">
      <!-- 0 -->
      <g transform="translate(27.240625 244.671946)scale(0.1 -0.1)">
       <use xlink:href="#DejaVuSans-30"/>
      </g>
     </g>
    </g>
    <g id="ytick_2">
     <g id="line2d_15">
      <g>
       <use style="stroke:#000000;stroke-width:0.8;" x="40.603125" xlink:href="#m17166c2587" y="206.1"/>
      </g>
     </g>
     <g id="text_16">
      <!-- 10 -->
      <g transform="translate(20.878125 209.899219)scale(0.1 -0.1)">
       <use xlink:href="#DejaVuSans-31"/>
       <use x="63.623047" xlink:href="#DejaVuSans-30"/>
      </g>
     </g>
    </g>
    <g id="ytick_3">
     <g id="line2d_16">
      <g>
       <use style="stroke:#000000;stroke-width:0.8;" x="40.603125" xlink:href="#m17166c2587" y="171.327273"/>
      </g>
     </g>
     <g id="text_17">
      <!-- 20 -->
      <g transform="translate(20.878125 175.126491)scale(0.1 -0.1)">
       <use xlink:href="#DejaVuSans-32"/>
       <use x="63.623047" xlink:href="#DejaVuSans-30"/>
      </g>
     </g>
    </g>
    <g id="ytick_4">
     <g id="line2d_17">
      <g>
       <use style="stroke:#000000;stroke-width:0.8;" x="40.603125" xlink:href="#m17166c2587" y="136.554545"/>
      </g>
     </g>
     <g id="text_18">
      <!-- 30 -->
      <g transform="translate(20.878125 140.353764)scale(0.1 -0.1)">
       <defs>
        <path d="M 2597 2516 
Q 3050 2419 3304 2112 
Q 3559 1806 3559 1356 
Q 3559 666 3084 287 
Q 2609 -91 1734 -91 
Q 1441 -91 1130 -33 
Q 819 25 488 141 
L 488 750 
Q 750 597 1062 519 
Q 1375 441 1716 441 
Q 2309 441 2620 675 
Q 2931 909 2931 1356 
Q 2931 1769 2642 2001 
Q 2353 2234 1838 2234 
L 1294 2234 
L 1294 2753 
L 1863 2753 
Q 2328 2753 2575 2939 
Q 2822 3125 2822 3475 
Q 2822 3834 2567 4026 
Q 2313 4219 1838 4219 
Q 1578 4219 1281 4162 
Q 984 4106 628 3988 
L 628 4550 
Q 988 4650 1302 4700 
Q 1616 4750 1894 4750 
Q 2613 4750 3031 4423 
Q 3450 4097 3450 3541 
Q 3450 3153 3228 2886 
Q 3006 2619 2597 2516 
z
" id="DejaVuSans-33" transform="scale(0.015625)"/>
       </defs>
       <use xlink:href="#DejaVuSans-33"/>
       <use x="63.623047" xlink:href="#DejaVuSans-30"/>
      </g>
     </g>
    </g>
    <g id="ytick_5">
     <g id="line2d_18">
      <g>
       <use style="stroke:#000000;stroke-width:0.8;" x="40.603125" xlink:href="#m17166c2587" y="101.781818"/>
      </g>
     </g>
     <g id="text_19">
      <!-- 40 -->
      <g transform="translate(20.878125 105.581037)scale(0.1 -0.1)">
       <defs>
        <path d="M 2419 4116 
L 825 1625 
L 2419 1625 
L 2419 4116 
z
M 2253 4666 
L 3047 4666 
L 3047 1625 
L 3713 1625 
L 3713 1100 
L 3047 1100 
L 3047 0 
L 2419 0 
L 2419 1100 
L 313 1100 
L 313 1709 
L 2253 4666 
z
" id="DejaVuSans-34" transform="scale(0.015625)"/>
       </defs>
       <use xlink:href="#DejaVuSans-34"/>
       <use x="63.623047" xlink:href="#DejaVuSans-30"/>
      </g>
     </g>
    </g>
    <g id="ytick_6">
     <g id="line2d_19">
      <g>
       <use style="stroke:#000000;stroke-width:0.8;" x="40.603125" xlink:href="#m17166c2587" y="67.009091"/>
      </g>
     </g>
     <g id="text_20">
      <!-- 50 -->
      <g transform="translate(20.878125 70.80831)scale(0.1 -0.1)">
       <defs>
        <path d="M 691 4666 
L 3169 4666 
L 3169 4134 
L 1269 4134 
L 1269 2991 
Q 1406 3038 1543 3061 
Q 1681 3084 1819 3084 
Q 2600 3084 3056 2656 
Q 3513 2228 3513 1497 
Q 3513 744 3044 326 
Q 2575 -91 1722 -91 
Q 1428 -91 1123 -41 
Q 819 9 494 109 
L 494 744 
Q 775 591 1075 516 
Q 1375 441 1709 441 
Q 2250 441 2565 725 
Q 2881 1009 2881 1497 
Q 2881 1984 2565 2268 
Q 2250 2553 1709 2553 
Q 1456 2553 1204 2497 
Q 953 2441 691 2322 
L 691 4666 
z
" id="DejaVuSans-35" transform="scale(0.015625)"/>
       </defs>
       <use xlink:href="#DejaVuSans-35"/>
       <use x="63.623047" xlink:href="#DejaVuSans-30"/>
      </g>
     </g>
    </g>
    <g id="ytick_7">
     <g id="line2d_20">
      <g>
       <use style="stroke:#000000;stroke-width:0.8;" x="40.603125" xlink:href="#m17166c2587" y="32.236364"/>
      </g>
     </g>
     <g id="text_21">
      <!-- 60 -->
      <g transform="translate(20.878125 36.035582)scale(0.1 -0.1)">
       <defs>
        <path d="M 2113 2584 
Q 1688 2584 1439 2293 
Q 1191 2003 1191 1497 
Q 1191 994 1439 701 
Q 1688 409 2113 409 
Q 2538 409 2786 701 
Q 3034 994 3034 1497 
Q 3034 2003 2786 2293 
Q 2538 2584 2113 2584 
z
M 3366 4563 
L 3366 3988 
Q 3128 4100 2886 4159 
Q 2644 4219 2406 4219 
Q 1781 4219 1451 3797 
Q 1122 3375 1075 2522 
Q 1259 2794 1537 2939 
Q 1816 3084 2150 3084 
Q 2853 3084 3261 2657 
Q 3669 2231 3669 1497 
Q 3669 778 3244 343 
Q 2819 -91 2113 -91 
Q 1303 -91 875 529 
Q 447 1150 447 2328 
Q 447 3434 972 4092 
Q 1497 4750 2381 4750 
Q 2619 4750 2861 4703 
Q 3103 4656 3366 4563 
z
" id="DejaVuSans-36" transform="scale(0.015625)"/>
       </defs>
       <use xlink:href="#DejaVuSans-36"/>
       <use x="63.623047" xlink:href="#DejaVuSans-30"/>
      </g>
     </g>
    </g>
    <g id="text_22">
     <!-- Stay (in days) -->
     <g transform="translate(14.798437 164.197656)rotate(-90)scale(0.1 -0.1)">
      <defs>
       <path d="M 1984 4856 
Q 1566 4138 1362 3434 
Q 1159 2731 1159 2009 
Q 1159 1288 1364 580 
Q 1569 -128 1984 -844 
L 1484 -844 
Q 1016 -109 783 600 
Q 550 1309 550 2009 
Q 550 2706 781 3412 
Q 1013 4119 1484 4856 
L 1984 4856 
z
" id="DejaVuSans-28" transform="scale(0.015625)"/>
       <path d="M 603 3500 
L 1178 3500 
L 1178 0 
L 603 0 
L 603 3500 
z
M 603 4863 
L 1178 4863 
L 1178 4134 
L 603 4134 
L 603 4863 
z
" id="DejaVuSans-69" transform="scale(0.015625)"/>
       <path d="M 2834 3397 
L 2834 2853 
Q 2591 2978 2328 3040 
Q 2066 3103 1784 3103 
Q 1356 3103 1142 2972 
Q 928 2841 928 2578 
Q 928 2378 1081 2264 
Q 1234 2150 1697 2047 
L 1894 2003 
Q 2506 1872 2764 1633 
Q 3022 1394 3022 966 
Q 3022 478 2636 193 
Q 2250 -91 1575 -91 
Q 1294 -91 989 -36 
Q 684 19 347 128 
L 347 722 
Q 666 556 975 473 
Q 1284 391 1588 391 
Q 1994 391 2212 530 
Q 2431 669 2431 922 
Q 2431 1156 2273 1281 
Q 2116 1406 1581 1522 
L 1381 1569 
Q 847 1681 609 1914 
Q 372 2147 372 2553 
Q 372 3047 722 3315 
Q 1072 3584 1716 3584 
Q 2034 3584 2315 3537 
Q 2597 3491 2834 3397 
z
" id="DejaVuSans-73" transform="scale(0.015625)"/>
       <path d="M 513 4856 
L 1013 4856 
Q 1481 4119 1714 3412 
Q 1947 2706 1947 2009 
Q 1947 1309 1714 600 
Q 1481 -109 1013 -844 
L 513 -844 
Q 928 -128 1133 580 
Q 1338 1288 1338 2009 
Q 1338 2731 1133 3434 
Q 928 4138 513 4856 
z
" id="DejaVuSans-29" transform="scale(0.015625)"/>
      </defs>
      <use xlink:href="#DejaVuSans-53"/>
      <use x="63.476562" xlink:href="#DejaVuSans-74"/>
      <use x="102.685547" xlink:href="#DejaVuSans-61"/>
      <use x="163.964844" xlink:href="#DejaVuSans-79"/>
      <use x="223.144531" xlink:href="#DejaVuSans-20"/>
      <use x="254.931641" xlink:href="#DejaVuSans-28"/>
      <use x="293.945312" xlink:href="#DejaVuSans-69"/>
      <use x="321.728516" xlink:href="#DejaVuSans-6e"/>
      <use x="385.107422" xlink:href="#DejaVuSans-20"/>
      <use x="416.894531" xlink:href="#DejaVuSans-64"/>
      <use x="480.371094" xlink:href="#DejaVuSans-61"/>
      <use x="541.650391" xlink:href="#DejaVuSans-79"/>
      <use x="600.830078" xlink:href="#DejaVuSans-73"/>
      <use x="652.929688" xlink:href="#DejaVuSans-29"/>
     </g>
    </g>
   </g>
   <g id="line2d_21">
    <path clip-path="url(#p6ab6e203d7)" d="M 65.966761 225.225 
L 67.411983 188.713636 
L 68.857204 166.111364 
L 70.302426 202.622727 
L 71.747647 124.384091 
L 73.192869 233.918182 
L 74.63809 141.770455 
L 76.083311 86.134091 
L 77.528533 171.327273 
L 78.973754 158.577273 
L 80.418976 181.759091 
L 81.864197 122.065909 
L 83.309419 178.281818 
L 84.75464 124.384091 
L 86.199862 172.486364 
L 87.645083 206.1 
L 89.090304 181.759091 
L 90.535526 185.236364 
L 91.980747 206.1 
L 93.425969 185.236364 
L 94.87119 178.281818 
L 96.316412 157.418182 
L 97.761633 153.940909 
L 100.652076 206.1 
L 103.542519 167.85 
L 104.98774 176.543182 
L 106.432962 225.804545 
L 109.323405 157.418182 
L 110.768626 164.372727 
L 115.104291 98.304545 
L 116.549512 126.122727 
L 117.994733 196.5375 
L 119.439955 174.804545 
L 120.885176 233.918182 
L 122.330398 199.145455 
L 123.775619 211.895455 
L 125.220841 206.1 
L 126.666062 210.446591 
L 128.111284 197.986364 
L 129.556505 181.759091 
L 131.001726 162.634091 
L 132.446948 205.404545 
L 133.892169 209.577273 
L 135.337391 173.065909 
L 136.782612 214.213636 
L 138.227834 207.838636 
L 141.118277 223.486364 
L 142.563498 80.918182 
L 144.008719 203.781818 
L 145.453941 174.804545 
L 146.899162 195.668182 
L 148.344384 158.2875 
L 149.789605 181.759091 
L 151.234827 193.060227 
L 152.680048 200.884091 
L 154.12527 182.454545 
L 155.570491 180.020455 
L 157.015712 190.203896 
L 158.460934 178.281818 
L 159.906155 211.315909 
L 161.351377 193.929545 
L 162.796598 191.031818 
L 164.24182 182.752597 
L 165.687041 185.236364 
L 167.132263 216.531818 
L 168.577484 216.531818 
L 170.022705 202.622727 
L 171.467927 199.145455 
L 172.913148 201.463636 
L 174.35837 179.672727 
L 175.803591 186.540341 
L 177.248813 216.531818 
L 178.694034 226.963636 
L 181.584477 202.622727 
L 183.029698 176.543182 
L 184.47492 203.781818 
L 185.920141 178.977273 
L 187.365363 174.804545 
L 188.810584 199.145455 
L 190.255806 198.736364 
L 191.701027 208.418182 
L 193.146249 191.804545 
L 194.59147 120.906818 
L 196.036691 185.236364 
L 197.481913 189.029752 
L 198.927134 215.488636 
L 200.372356 165.004959 
L 201.817577 202.332955 
L 203.262799 210.112238 
L 204.70802 199.725 
L 206.153242 195.400699 
L 207.598463 200.781818 
L 209.043684 195.916558 
L 210.488906 162.634091 
L 211.934127 201.463636 
L 213.379349 188.930966 
L 214.82457 158.809091 
L 216.269792 192.922967 
L 217.715013 149.440909 
L 219.160235 185.394421 
L 220.605456 171.327273 
L 222.050677 139.229371 
L 223.495899 188.278977 
L 224.94112 189.445694 
L 226.386342 181.154348 
L 227.831563 171.327273 
L 229.276785 192.480682 
L 230.722006 198.565909 
L 232.167228 162.286364 
L 233.612449 179.275325 
L 235.05767 153.071591 
L 236.502892 174.684639 
L 237.948113 194.074432 
L 239.393335 197.24876 
L 240.838556 185.992292 
L 242.283778 140.901136 
L 243.728999 170.361364 
L 245.174221 183.690909 
L 246.619442 179.944862 
L 248.064663 183.289091 
L 249.509885 171.617045 
L 250.955106 179.037747 
L 252.400328 149.497727 
L 253.845549 184.463636 
L 255.290771 176.618775 
L 256.735992 200.781818 
L 258.181214 190.37668 
L 261.071656 178.393988 
L 262.516878 167.077273 
L 263.962099 190.452273 
L 265.407321 193.639773 
L 266.852542 183.971901 
L 268.297764 177.078147 
L 269.742985 181.090385 
L 271.188207 184.270455 
L 272.633428 170.892614 
L 274.078649 194.740909 
L 275.523871 193.494886 
L 276.969092 193.551581 
L 278.414314 206.244886 
L 279.859535 181.284917 
L 281.304757 194.277273 
L 282.749978 170.990762 
L 284.1952 204.477273 
L 285.640421 202.970455 
L 287.085642 191.82488 
L 288.530864 159.23961 
L 289.976085 177.525889 
L 291.421307 192.915341 
L 292.866528 191.781818 
L 294.31175 179.00625 
L 295.756971 206.768706 
L 297.202193 174.387273 
L 298.647414 181.262338 
L 300.092635 182.781818 
L 301.537857 192.795652 
L 302.983078 176.069008 
L 304.4283 165.190909 
L 305.873521 206.768706 
L 307.318743 190.360766 
L 308.763964 193.234091 
L 310.209186 186.975 
L 311.654407 202.236364 
L 313.099628 205.272078 
L 314.54485 192.577273 
L 315.990071 202.275 
L 317.435293 193.018831 
L 318.880514 211.233117 
L 320.325736 186.323011 
L 323.216179 203.009091 
L 324.6614 189.679545 
L 326.106622 179.730682 
L 327.551843 181.386526 
L 328.997064 176.325852 
L 330.442286 193.929545 
L 331.887507 172.022727 
L 333.332729 195.668182 
L 334.77795 209.142614 
L 336.223172 178.597934 
L 337.668393 200.409917 
L 339.113615 196.75483 
L 340.558836 186.517464 
L 342.004057 206.1 
L 343.449279 192.687662 
L 344.8945 202.275 
L 346.339722 163.837762 
L 347.784943 183.063068 
L 349.230165 178.977273 
L 350.675386 196.827273 
L 352.120608 162.85142 
L 353.565829 185.429545 
L 355.01105 195.016193 
L 356.456272 181.469318 
L 357.901493 171.906818 
L 359.346715 201.753409 
L 360.791936 189.783566 
L 362.237158 196.5375 
L 363.682379 190.104545 
L 365.127601 207.680579 
L 366.572822 191.53892 
L 368.018043 193.639773 
L 369.463265 184.213636 
L 370.908486 168.948086 
L 372.353708 164.807386 
L 373.798929 188.061648 
L 375.244151 213.402273 
L 376.689372 160.627972 
L 378.134594 190.452273 
L 379.579815 186.975 
L 381.025036 194.031818 
L 382.470258 204.227622 
L 383.915479 202.970455 
L 385.360701 184.433916 
L 386.805922 200.449432 
L 388.251144 182.026573 
L 389.696365 196.054545 
L 391.141587 181.963636 
L 392.586808 202.89021 
L 394.032029 188.945455 
L 395.477251 183.655785 
L 396.922472 209.080519 
L 398.367694 183.280398 
L 399.812915 204.535227 
L 401.258137 184.166434 
L 402.703358 197.540559 
L 404.14858 160.895455 
L 405.593801 178.745455 
L 407.039022 200.449432 
L 408.484244 183.845455 
L 409.929465 188.216883 
L 411.374687 185.771329 
L 412.819908 174.587216 
L 414.26513 208.534091 
L 415.710351 186.395455 
L 417.155573 186.105682 
L 418.600794 194.972727 
L 420.046015 191.242562 
L 421.491237 180.421678 
L 422.936458 202.275 
L 424.38168 177.315909 
L 425.826901 185.236364 
L 427.272123 199.145455 
L 428.717344 196.400239 
L 430.162566 191.031818 
L 431.607787 175.549675 
L 433.053008 196.203147 
L 434.49823 187.968506 
L 435.943451 204.495105 
L 437.388673 155.265584 
L 438.833894 195.146591 
L 440.279116 167.518831 
L 441.724337 198.179545 
L 443.169559 178.433004 
L 444.61478 183.15 
L 446.060001 183.339669 
L 447.505223 199.901383 
L 450.395666 186.33445 
L 451.840887 197.24876 
L 453.286109 191.942532 
L 454.73133 184.85 
L 456.176552 204.013636 
L 457.621773 185.968421 
L 459.066994 184.270455 
L 460.512216 177.807645 
L 461.957437 188.864822 
L 463.402659 168.284659 
L 466.293102 183.671591 
L 467.738323 191.495455 
L 469.183545 187.895455 
L 470.628766 189.582955 
L 472.073987 207.722727 
L 473.519209 196.131818 
L 474.96443 189.486364 
L 476.409652 185.410227 
L 477.854873 201.132468 
L 479.300095 180.178512 
L 480.745316 195.204545 
L 482.190538 187.471753 
L 483.635759 185.236364 
L 485.08098 180.986364 
L 486.526202 190.177751 
L 487.971423 210.190909 
L 489.416645 185.236364 
L 490.861866 197.290909 
L 492.307088 192.364773 
L 493.752309 209.080519 
L 495.197531 196.102841 
L 496.642752 188.713636 
L 498.087973 205.520455 
L 499.533195 191.75625 
L 500.978416 208.707955 
L 502.423638 214.358523 
L 503.868859 195.436364 
L 505.314081 221.168182 
L 506.759302 199.725 
L 508.204524 202.938843 
L 509.649745 210.858373 
L 511.094966 196.164935 
L 512.540188 212.475 
L 513.985409 208.881818 
L 515.430631 198.276136 
L 516.875852 200.884091 
L 518.321074 200.304545 
L 519.766295 198.877972 
L 521.211517 203.88719 
L 522.656738 209.577273 
L 524.101959 197.986364 
L 525.547181 196.363636 
L 526.992402 204.554545 
L 528.437624 199.145455 
L 529.882845 199.642208 
L 531.328067 205.106494 
L 532.773288 208.418182 
L 534.21851 194.509091 
L 535.663731 199.777686 
L 537.108953 197.754545 
L 538.554174 218.270455 
L 539.999395 211.473967 
L 541.444617 201.927273 
L 542.889838 203.665909 
L 544.33506 204.578693 
L 545.780281 210.156818 
L 547.225503 207.093506 
L 548.670724 211.026136 
L 551.561167 216.847934 
L 553.006388 223.486364 
L 554.45161 226.190909 
L 555.896831 216.966477 
L 557.342053 215.6625 
L 558.787274 222.854132 
L 560.232496 220.781818 
L 561.677717 222.713636 
L 563.122939 229.571591 
L 564.56816 226.015289 
L 566.013381 233.338636 
L 567.458603 232.527273 
L 568.903824 237.395455 
L 570.349046 232.179545 
L 573.239489 239.134091 
L 573.239489 239.134091 
" style="fill:none;stroke:#1f77b4;stroke-linecap:square;stroke-width:0.8;"/>
   </g>
   <g id="line2d_22">
    <path clip-path="url(#p6ab6e203d7)" d="M 40.603125 189.525078 
L 598.603125 189.525078 
" style="fill:none;stroke:#000000;stroke-dasharray:2.96,1.28;stroke-dashoffset:0;stroke-width:0.8;"/>
   </g>
   <g id="patch_3">
    <path d="M 40.603125 252 
L 40.603125 7.2 
" style="fill:none;stroke:#000000;stroke-linecap:square;stroke-linejoin:miter;stroke-width:0.8;"/>
   </g>
   <g id="patch_4">
    <path d="M 40.603125 252 
L 598.603125 252 
" style="fill:none;stroke:#000000;stroke-linecap:square;stroke-linejoin:miter;stroke-width:0.8;"/>
   </g>
   <g id="legend_1">
    <g id="patch_5">
     <path d="M 532.35625 29.878125 
L 591.603125 29.878125 
Q 593.603125 29.878125 593.603125 27.878125 
L 593.603125 14.2 
Q 593.603125 12.2 591.603125 12.2 
L 532.35625 12.2 
Q 530.35625 12.2 530.35625 14.2 
L 530.35625 27.878125 
Q 530.35625 29.878125 532.35625 29.878125 
z
" style="fill:#ffffff;opacity:0.8;stroke:#cccccc;stroke-linejoin:miter;"/>
    </g>
    <g id="line2d_23">
     <path d="M 534.35625 20.298437 
L 554.35625 20.298437 
" style="fill:none;stroke:#000000;stroke-dasharray:2.96,1.28;stroke-dashoffset:0;stroke-width:0.8;"/>
    </g>
    <g id="line2d_24"/>
    <g id="text_23">
     <!-- Mean -->
     <g transform="translate(562.35625 23.798437)scale(0.1 -0.1)">
      <use xlink:href="#DejaVuSans-4d"/>
      <use x="86.279297" xlink:href="#DejaVuSans-65"/>
      <use x="147.802734" xlink:href="#DejaVuSans-61"/>
      <use x="209.082031" xlink:href="#DejaVuSans-6e"/>
     </g>
    </g>
   </g>
  </g>
 </g>
 <defs>
  <clipPath id="p6ab6e203d7">
   <rect height="244.8" width="558" x="40.603125" y="7.2"/>
  </clipPath>
 </defs>
</svg>
