<?xml version="1.0" encoding="utf-8" standalone="no"?>
<!DOCTYPE svg PUBLIC "-//W3C//DTD SVG 1.1//EN"
  "http://www.w3.org/Graphics/SVG/1.1/DTD/svg11.dtd">
<!-- Created with matplotlib (https://matplotlib.org/) -->
<svg height="280.22125pt" version="1.1" viewBox="0 0 884.803125 280.22125" width="884.803125pt" xmlns="http://www.w3.org/2000/svg" xmlns:xlink="http://www.w3.org/1999/xlink">
 <metadata>
  <rdf:RDF xmlns:cc="http://creativecommons.org/ns#" xmlns:dc="http://purl.org/dc/elements/1.1/" xmlns:rdf="http://www.w3.org/1999/02/22-rdf-syntax-ns#">
   <cc:Work>
    <dc:type rdf:resource="http://purl.org/dc/dcmitype/StillImage"/>
    <dc:date>2021-03-14T22:04:43.999103</dc:date>
    <dc:format>image/svg+xml</dc:format>
    <dc:creator>
     <cc:Agent>
      <dc:title>Matplotlib v3.3.4, https://matplotlib.org/</dc:title>
     </cc:Agent>
    </dc:creator>
   </cc:Work>
  </rdf:RDF>
 </metadata>
 <defs>
  <style type="text/css">*{stroke-linecap:butt;stroke-linejoin:round;}</style>
 </defs>
 <g id="figure_1">
  <g id="patch_1">
   <path d="M 0 280.22125 
L 884.803125 280.22125 
L 884.803125 0 
L 0 0 
z
" style="fill:none;"/>
  </g>
  <g id="axes_1">
   <g id="patch_2">
    <path d="M 40.603125 203.04 
L 877.603125 203.04 
L 877.603125 7.2 
L 40.603125 7.2 
z
" style="fill:#ffffff;"/>
   </g>
   <g id="PolyCollection_1">
    <path clip-path="url(#pe631831b88)" d="M 78.64858 177.447273 
L 78.64858 185.792727 
L 78.64858 177.447273 
L 78.64858 177.447273 
z
" style="fill:#1f77b4;fill-opacity:0.2;stroke:#1f77b4;stroke-opacity:0.2;"/>
    <path clip-path="url(#pe631831b88)" d="M 82.984244 127.374545 
L 82.984244 141.283636 
L 82.984244 127.374545 
L 82.984244 127.374545 
z
" style="fill:#1f77b4;fill-opacity:0.2;stroke:#1f77b4;stroke-opacity:0.2;"/>
    <path clip-path="url(#pe631831b88)" d="M 87.319908 91.210909 
L 87.319908 110.683636 
L 89.48774 191.356364 
L 91.655573 188.574545 
L 93.823405 88.429091 
L 95.991237 177.447273 
L 98.159069 185.792727 
L 100.326901 177.447273 
L 102.494733 150.579545 
L 104.662566 149.629091 
L 106.830398 124.592727 
L 108.99823 144.065455 
L 111.166062 180.229091 
L 113.333894 188.574545 
L 113.333894 124.592727 
L 113.333894 124.592727 
L 111.166062 155.192727 
L 108.99823 132.938182 
L 106.830398 77.301818 
L 104.662566 138.501818 
L 102.494733 32.734773 
L 100.326901 93.992727 
L 98.159069 82.865455 
L 95.991237 99.556364 
L 93.823405 52.265455 
L 91.655573 41.138182 
L 89.48774 185.792727 
L 87.319908 91.210909 
z
" style="fill:#1f77b4;fill-opacity:0.2;stroke:#1f77b4;stroke-opacity:0.2;"/>
    <path clip-path="url(#pe631831b88)" d="M 122.005223 96.774545 
L 122.005223 191.356364 
L 124.173055 188.574545 
L 124.173055 16.101818 
L 124.173055 16.101818 
L 122.005223 96.774545 
z
" style="fill:#1f77b4;fill-opacity:0.2;stroke:#1f77b4;stroke-opacity:0.2;"/>
    <path clip-path="url(#pe631831b88)" d="M 135.012216 132.938182 
L 135.012216 138.501818 
L 137.180048 185.792727 
L 139.34788 188.574545 
L 141.515712 185.792727 
L 141.515712 121.810909 
L 141.515712 121.810909 
L 139.34788 177.447273 
L 137.180048 99.556364 
L 135.012216 132.938182 
z
" style="fill:#1f77b4;fill-opacity:0.2;stroke:#1f77b4;stroke-opacity:0.2;"/>
    <path clip-path="url(#pe631831b88)" d="M 145.851377 93.992727 
L 145.851377 171.883636 
L 145.851377 93.992727 
L 145.851377 93.992727 
z
" style="fill:#1f77b4;fill-opacity:0.2;stroke:#1f77b4;stroke-opacity:0.2;"/>
    <path clip-path="url(#pe631831b88)" d="M 156.690538 103.729091 
L 156.690538 191.356364 
L 158.85837 188.574545 
L 158.85837 57.829091 
L 158.85837 57.829091 
L 156.690538 103.729091 
z
" style="fill:#1f77b4;fill-opacity:0.2;stroke:#1f77b4;stroke-opacity:0.2;"/>
    <path clip-path="url(#pe631831b88)" d="M 163.194034 144.065455 
L 163.194034 177.447273 
L 165.361866 185.792727 
L 165.361866 159.829091 
L 165.361866 159.829091 
L 163.194034 144.065455 
z
" style="fill:#1f77b4;fill-opacity:0.2;stroke:#1f77b4;stroke-opacity:0.2;"/>
    <path clip-path="url(#pe631831b88)" d="M 169.697531 159.365455 
L 169.697531 180.229091 
L 171.865363 174.665455 
L 171.865363 146.847273 
L 171.865363 146.847273 
L 169.697531 159.365455 
z
" style="fill:#1f77b4;fill-opacity:0.2;stroke:#1f77b4;stroke-opacity:0.2;"/>
    <path clip-path="url(#pe631831b88)" d="M 176.201027 82.865455 
L 176.201027 180.229091 
L 178.368859 176.890909 
L 178.368859 154.636364 
L 178.368859 154.636364 
L 176.201027 82.865455 
z
" style="fill:#1f77b4;fill-opacity:0.2;stroke:#1f77b4;stroke-opacity:0.2;"/>
    <path clip-path="url(#pe631831b88)" d="M 182.704524 105.12 
L 182.704524 170.040682 
L 184.872356 191.356364 
L 187.040188 188.574545 
L 191.375852 185.792727 
L 193.543684 71.738182 
L 195.711517 185.792727 
L 197.879349 169.896623 
L 200.047181 177.447273 
L 202.215013 164.929091 
L 202.215013 58.524545 
L 202.215013 58.524545 
L 200.047181 138.501818 
L 197.879349 97.956818 
L 195.711517 149.420455 
L 193.543684 60.610909 
L 191.375852 171.188182 
L 187.040188 146.847273 
L 184.872356 135.72 
L 182.704524 105.12 
z
" style="fill:#1f77b4;fill-opacity:0.2;stroke:#1f77b4;stroke-opacity:0.2;"/>
    <path clip-path="url(#pe631831b88)" d="M 206.550677 125.288182 
L 206.550677 183.010909 
L 208.71851 185.792727 
L 210.886342 172.996364 
L 213.054174 175.129091 
L 215.222006 179.036883 
L 215.222006 122.198377 
L 215.222006 122.198377 
L 213.054174 115.760455 
L 210.886342 112.352727 
L 208.71851 121.810909 
L 206.550677 125.288182 
z
" style="fill:#1f77b4;fill-opacity:0.2;stroke:#1f77b4;stroke-opacity:0.2;"/>
    <path clip-path="url(#pe631831b88)" d="M 219.55767 148.933636 
L 219.55767 187.183636 
L 221.725503 183.010909 
L 223.893335 183.010909 
L 226.061167 177.04987 
L 228.228999 181.62 
L 230.396831 191.356364 
L 232.564663 177.447273 
L 234.732496 185.329091 
L 236.900328 177.447273 
L 239.06816 174.665455 
L 241.235992 178.56 
L 243.403824 165.972273 
L 245.571656 188.574545 
L 247.739489 189.687273 
L 249.907321 180.924545 
L 252.075153 179.116364 
L 254.242985 169.936364 
L 256.410817 180.236818 
L 258.578649 173.552727 
L 260.746482 165.777545 
L 262.914314 166.32 
L 265.082146 173.029091 
L 267.249978 186.410909 
L 269.41781 176.210909 
L 271.585642 153.471477 
L 273.753475 165.25542 
L 275.921307 176.757614 
L 278.089139 183.852409 
L 280.256971 160.762686 
L 282.424803 180.003068 
L 284.592635 179.159161 
L 286.760468 174.903068 
L 288.9283 171.241678 
L 291.096132 173.52 
L 293.263964 174.079286 
L 295.431796 159.139432 
L 297.599628 172.579091 
L 299.767461 169.797273 
L 301.935293 172.44 
L 304.103125 167.1615 
L 306.270957 149.142273 
L 308.438789 161.644649 
L 310.606622 168.596033 
L 312.774454 155.620699 
L 314.942286 164.465455 
L 317.110118 174.083469 
L 319.27795 161.603004 
L 321.445782 163.873636 
L 323.613615 165.740455 
L 325.781447 168.061534 
L 327.949279 157.14 
L 330.117111 160.56263 
L 332.284943 147.292364 
L 334.452775 156.250298 
L 336.620608 171.188182 
L 338.78844 167.584463 
L 340.956272 163.175336 
L 343.124104 149.350909 
L 345.291936 166.32 
L 347.459768 162.201364 
L 349.627601 165.352411 
L 351.795433 160.533818 
L 353.963265 157.290682 
L 356.131097 161.485079 
L 358.298929 152.727727 
L 360.466761 161.996591 
L 362.634594 165.476383 
L 364.802426 173.192727 
L 366.970258 164.703068 
L 369.13809 167.408538 
L 371.305922 164.078842 
L 373.473754 158.999426 
L 375.641587 164.720455 
L 377.809419 169.028409 
L 379.977251 167.078678 
L 382.145083 157.332587 
L 384.312915 160.226748 
L 386.480747 166.636818 
L 388.64858 157.279091 
L 390.816412 170.4 
L 392.984244 168.656727 
L 395.152076 171.281917 
L 397.319908 173.444236 
L 399.48774 165.055537 
L 401.655573 175.036364 
L 403.823405 158.694677 
L 405.991237 173.461449 
L 408.159069 178.98075 
L 410.326901 168.516172 
L 412.494733 151.099481 
L 414.662566 162.207747 
L 416.830398 169.549691 
L 418.99823 167.560227 
L 421.166062 159.255341 
L 423.333894 175.310087 
L 425.501726 163.432473 
L 427.669559 164.337955 
L 429.837391 169.269545 
L 432.005223 165.47336 
L 434.173055 168.599194 
L 436.340887 165.677727 
L 438.508719 177.875245 
L 440.676552 168.812656 
L 442.844384 167.896364 
L 445.012216 181.940979 
L 447.180048 174.82 
L 449.34788 172.010632 
L 451.515712 167.865455 
L 453.683545 174.251659 
L 455.851377 166.955393 
L 458.019209 180.232403 
L 460.187041 164.237983 
L 462.354873 167.043788 
L 464.522705 178.992727 
L 466.690538 164.62 
L 468.85837 167.479091 
L 471.026202 160.967484 
L 473.194034 167.024148 
L 475.361866 172.86075 
L 477.529698 159.458182 
L 479.697531 169.482 
L 481.865363 174.317727 
L 484.033195 163.158843 
L 486.201027 173.913099 
L 488.368859 172.231364 
L 490.536691 164.379682 
L 492.704524 178.325742 
L 494.872356 168.704416 
L 497.040188 177.454227 
L 499.20802 160.547727 
L 501.375852 166.845937 
L 503.543684 166.572893 
L 505.711517 173.042727 
L 507.879349 155.549148 
L 510.047181 165.0875 
L 512.215013 168.580227 
L 514.382845 164.697273 
L 516.550677 165.1725 
L 518.71851 177.308182 
L 520.886342 169.300519 
L 523.054174 173.448409 
L 525.222006 171.049091 
L 527.389838 179.476736 
L 529.55767 170.247273 
L 531.725503 173.975795 
L 533.893335 161.378409 
L 536.061167 152.857464 
L 538.228999 166.667727 
L 540.396831 165.665455 
L 542.564663 181.063636 
L 544.732496 156.487343 
L 546.900328 170.095325 
L 549.06816 171.049091 
L 551.235992 167.146364 
L 553.403824 177.452622 
L 555.571656 171.605455 
L 557.739489 175.098776 
L 559.907321 177.277756 
L 562.075153 166.72237 
L 564.242985 174.364091 
L 566.410817 162.556364 
L 568.578649 178.303217 
L 570.746482 171.336545 
L 572.914314 166.533986 
L 575.082146 183.010909 
L 577.249978 162.668864 
L 579.41781 175.993442 
L 581.585642 166.533986 
L 583.753475 172.525594 
L 585.921307 160.105909 
L 588.089139 161.131909 
L 590.256971 172.0575 
L 592.424803 165.082091 
L 594.592635 171.883636 
L 596.760468 163.736883 
L 598.9283 159.615 
L 601.096132 183.769587 
L 603.263964 169.287273 
L 605.431796 164.465455 
L 607.599628 167.58225 
L 609.767461 169.321154 
L 611.935293 165.469406 
L 614.103125 170.959675 
L 616.270957 157.823864 
L 618.438789 159.762857 
L 620.606622 168.947273 
L 622.774454 172.322871 
L 624.942286 165.807102 
L 627.110118 163.538182 
L 629.27795 167.12474 
L 631.445782 170.404636 
L 633.613615 175.266526 
L 635.781447 150.026494 
L 637.949279 169.104979 
L 640.117111 152.161178 
L 642.284943 175.697656 
L 644.452775 158.904716 
L 646.620608 160.498052 
L 648.78844 165.398523 
L 650.956272 170.385511 
L 653.124104 169.231426 
L 655.291936 163.098947 
L 657.459768 174.207614 
L 659.627601 163.885909 
L 661.795433 166.018636 
L 663.963265 174.665455 
L 666.131097 164.929091 
L 668.298929 166.783636 
L 670.466761 161.771095 
L 672.634594 166.443972 
L 674.802426 158.976818 
L 676.970258 157.631165 
L 679.13809 164.929091 
L 681.305922 172.44 
L 683.473754 169.764545 
L 685.641587 166.670625 
L 687.809419 178.316591 
L 689.977251 174.143864 
L 692.145083 166.018636 
L 694.312915 163.402568 
L 696.480747 173.208312 
L 698.64858 163.312159 
L 700.816412 175.365256 
L 702.984244 168.709383 
L 705.152076 161.953539 
L 707.319908 162.456364 
L 709.48774 165.587943 
L 711.655573 177.12 
L 713.823405 169.848273 
L 715.991237 175.036364 
L 718.159069 168.545455 
L 720.326901 182.663182 
L 722.494733 175.917273 
L 724.662566 173.830909 
L 726.830398 172.47974 
L 728.99823 167.247273 
L 731.166062 177.179523 
L 733.333894 178.992727 
L 735.501726 173.100682 
L 737.669559 185.329091 
L 739.837391 173.075844 
L 742.005223 176.288182 
L 744.173055 177.300861 
L 746.340887 169.70289 
L 748.508719 181.851818 
L 750.676552 179.672727 
L 752.844384 168.679196 
L 755.012216 177.447273 
L 757.180048 171.66965 
L 759.34788 170.89013 
L 761.515712 177.700165 
L 763.683545 175.949371 
L 765.851377 172.579091 
L 768.019209 178.003636 
L 770.187041 171.049091 
L 772.354873 169.287273 
L 774.522705 174.055 
L 776.690538 175.465227 
L 778.85837 180.234886 
L 781.026202 170.029091 
L 783.194034 174.439432 
L 785.361866 175.072792 
L 787.529698 182.4615 
L 789.697531 180.460909 
L 791.865363 170.029091 
L 794.033195 174.943636 
L 796.201027 172.042045 
L 798.368859 176.163357 
L 800.536691 179.831688 
L 802.704524 177.661259 
L 804.872356 178.731189 
L 807.040188 180.924545 
L 809.20802 186.905455 
L 811.375852 184.865455 
L 813.543684 179.456364 
L 815.711517 178.281818 
L 817.879349 185.03405 
L 820.047181 182.454545 
L 822.215013 184.401818 
L 824.382845 188.574545 
L 826.550677 185.798523 
L 828.71851 190.660909 
L 830.886342 190.8 
L 833.054174 193.581818 
L 835.222006 190.561558 
L 839.55767 194.138182 
L 839.55767 191.356364 
L 839.55767 191.356364 
L 835.222006 186.587532 
L 833.054174 188.560636 
L 830.886342 184.123636 
L 828.71851 184.749545 
L 826.550677 179.533636 
L 824.382845 181.156364 
L 822.215013 176.056364 
L 820.047181 174.387273 
L 817.879349 174.665455 
L 815.711517 169.101818 
L 813.543684 171.110909 
L 811.375852 173.964205 
L 809.20802 172.711227 
L 807.040188 167.479091 
L 804.872356 162.468252 
L 802.704524 161.392972 
L 800.536691 156.384935 
L 798.368859 164.608112 
L 796.201027 161.065455 
L 794.033195 155.192727 
L 791.865363 155.744455 
L 789.697531 161.22 
L 787.529698 161.869091 
L 785.361866 142.475844 
L 783.194034 151.947273 
L 781.026202 144.992727 
L 778.85837 154.729091 
L 776.690538 152.013506 
L 774.522705 146.221364 
L 772.354873 156.305455 
L 770.187041 149.886409 
L 768.019209 140.143091 
L 765.851377 145.21875 
L 763.683545 156.043322 
L 761.515712 149.629091 
L 759.34788 146.847273 
L 757.180048 141.711608 
L 755.012216 145.444773 
L 752.844384 141.278287 
L 750.676552 152.967273 
L 748.508719 160.060909 
L 746.340887 145.456364 
L 744.173055 162.513301 
L 742.005223 141.515455 
L 739.837391 148.039481 
L 737.669559 171.42 
L 735.501726 143.196136 
L 733.333894 132.32 
L 731.166062 158.252727 
L 728.99823 137.570682 
L 726.830398 143.464383 
L 724.662566 127.645773 
L 722.494733 140.348636 
L 720.326901 136.415455 
L 718.159069 140.017909 
L 715.991237 141.835364 
L 713.823405 127.56 
L 711.655573 161.574545 
L 709.48774 140.255096 
L 707.319908 130.001818 
L 705.152076 123.986688 
L 702.984244 133.728019 
L 700.816412 143.543864 
L 698.64858 105.792273 
L 696.480747 148.556104 
L 694.312915 135.577432 
L 692.145083 139.429091 
L 689.977251 146.499545 
L 687.809419 157.800682 
L 685.641587 137.684659 
L 683.473754 131.285455 
L 681.305922 130.513364 
L 679.13809 123.201818 
L 676.970258 116.421136 
L 674.802426 112.471364 
L 672.634594 136.808538 
L 670.466761 124.210227 
L 668.298929 129.692727 
L 666.131097 125.980159 
L 663.963265 154.075364 
L 661.795433 132.003182 
L 659.627601 122.854091 
L 657.459768 147.542727 
L 655.291936 133.816651 
L 653.124104 145.579649 
L 650.956272 135.007159 
L 648.78844 133.865455 
L 646.620608 127.367922 
L 644.452775 131.776193 
L 642.284943 140.844402 
L 640.117111 122.06064 
L 637.949279 147.852521 
L 635.781447 94.648442 
L 633.613615 156.181266 
L 631.445782 125.515364 
L 629.27795 106.312208 
L 627.110118 116.441006 
L 624.942286 123.019261 
L 622.774454 142.894163 
L 620.606622 151.792727 
L 618.438789 136.713506 
L 616.270957 127.834318 
L 614.103125 147.105584 
L 611.935293 124.587378 
L 609.767461 141.925594 
L 607.599628 145.178182 
L 605.431796 135.01875 
L 603.263964 130.156364 
L 601.096132 148.105413 
L 598.9283 126.225 
L 596.760468 122.00961 
L 594.592635 126.55987 
L 592.424803 131.126523 
L 590.256971 150.672273 
L 588.089139 126.261818 
L 585.921307 108.225 
L 583.753475 143.632133 
L 581.585642 129.070385 
L 579.41781 152.540065 
L 577.249978 129.278352 
L 575.082146 148.834286 
L 572.914314 73.861993 
L 570.746482 127.56 
L 568.578649 147.055909 
L 566.410817 127.538182 
L 564.242985 137.566818 
L 562.075153 129.550325 
L 559.907321 143.713381 
L 557.739489 116.033287 
L 555.571656 153.801818 
L 553.403824 150.896958 
L 551.235992 145.206818 
L 549.06816 128.7585 
L 546.900328 137.304643 
L 544.732496 95.704615 
L 542.564663 163.816364 
L 540.396831 134.230909 
L 538.228999 79.388182 
L 536.061167 119.9039 
L 533.893335 117.777273 
L 531.725503 130.846023 
L 529.55767 139.156364 
L 527.389838 154.421405 
L 525.222006 134.885455 
L 523.054174 140.931562 
L 520.886342 137.900747 
L 518.71851 143.505614 
L 516.550677 108.342273 
L 514.382845 124.81875 
L 512.215013 145.44767 
L 510.047181 131.385 
L 507.879349 104.411506 
L 505.711517 143.596023 
L 503.543684 120.040661 
L 501.375852 125.288182 
L 499.20802 97.400455 
L 497.040188 145.171227 
L 494.872356 141.482338 
L 492.704524 154.899904 
L 490.536691 138.077591 
L 488.368859 142.496335 
L 486.201027 147.599628 
L 484.033195 122.30405 
L 481.865363 163.885909 
L 479.697531 144.431727 
L 477.529698 114.944455 
L 475.361866 138.355773 
L 473.194034 114.852017 
L 471.026202 129.063506 
L 468.85837 118.31625 
L 466.690538 140.507045 
L 464.522705 140.348636 
L 462.354873 133.242121 
L 460.187041 134.329091 
L 458.019209 158.371948 
L 455.851377 137.866426 
L 453.683545 152.546523 
L 451.515712 141.438182 
L 449.34788 139.832253 
L 447.180048 151.016136 
L 445.012216 112.60951 
L 442.844384 142.020818 
L 440.676552 136.583828 
L 438.508719 153.047517 
L 436.340887 98.734091 
L 434.173055 112.826901 
L 432.005223 145.87666 
L 429.837391 117.065455 
L 427.669559 125.770032 
L 425.501726 112.909091 
L 423.333894 156.794948 
L 421.166062 129.449318 
L 418.99823 139.429091 
L 416.830398 142.271182 
L 414.662566 123.247174 
L 412.494733 103.132987 
L 410.326901 140.551579 
L 408.159069 142.531977 
L 405.991237 138.319261 
L 403.823405 113.012287 
L 401.655573 136.647273 
L 399.48774 125.727583 
L 397.319908 154.302545 
L 395.152076 136.926462 
L 392.984244 128.709818 
L 390.816412 141.645273 
L 388.64858 112.939517 
L 386.480747 128.916136 
L 384.312915 131.97257 
L 382.145083 127.371871 
L 379.977251 130.273326 
L 377.809419 141.583068 
L 375.641587 137.315331 
L 373.473754 98.967057 
L 371.305922 115.168196 
L 369.13809 126.286008 
L 366.970258 129.924545 
L 364.802426 150.283636 
L 362.634594 113.822253 
L 360.466761 135.248636 
L 358.298929 84.407045 
L 356.131097 123.857964 
L 353.963265 119.944773 
L 351.795433 133.603036 
L 349.627601 123.383241 
L 347.459768 132.832576 
L 345.291936 97.8525 
L 343.124104 75.337159 
L 340.956272 132.814209 
L 338.78844 149.376198 
L 336.620608 140.112955 
L 334.452775 125.453652 
L 332.284943 98.582727 
L 330.117111 126.778442 
L 327.949279 97.605614 
L 325.781447 152.295 
L 323.613615 144.291477 
L 321.445782 111.338182 
L 319.27795 126.878656 
L 317.110118 130.595598 
L 314.942286 139.423295 
L 312.774454 46.477133 
L 310.606622 99.758678 
L 308.438789 135.207893 
L 306.270957 91.525909 
L 304.103125 136.82925 
L 301.935293 59.475 
L 299.767461 131.021335 
L 297.599628 148.933636 
L 295.431796 100.477841 
L 293.263964 139.092955 
L 291.096132 147.825 
L 288.9283 142.556853 
L 286.760468 146.609659 
L 284.592635 158.611154 
L 282.424803 144.065455 
L 280.256971 104.095785 
L 278.089139 162.981818 
L 275.921307 55.250114 
L 273.753475 132.938182 
L 271.585642 36.930682 
L 269.41781 130.156364 
L 267.249978 149.010909 
L 265.082146 145.374545 
L 262.914314 155.192727 
L 260.746482 114.571227 
L 258.578649 115.690909 
L 256.410817 143.748636 
L 254.242985 110.127273 
L 252.075153 137.389091 
L 249.907321 68.930284 
L 247.739489 176.334545 
L 245.571656 163.538182 
L 243.403824 135.72 
L 241.235992 111.796364 
L 239.06816 151.715455 
L 236.900328 144.065455 
L 234.732496 137.110909 
L 232.564663 171.883636 
L 230.396831 157.974545 
L 228.228999 112.074545 
L 226.061167 113.455519 
L 223.893335 113.465455 
L 221.725503 130.156364 
L 219.55767 148.933636 
z
" style="fill:#1f77b4;fill-opacity:0.2;stroke:#1f77b4;stroke-opacity:0.2;"/>
   </g>
   <g id="matplotlib.axis_1">
    <g id="xtick_1">
     <g id="line2d_1">
      <defs>
       <path d="M 0 0 
L 0 3.5 
" id="m8baa33070f" style="stroke:#000000;stroke-width:0.8;"/>
      </defs>
      <g>
       <use style="stroke:#000000;stroke-width:0.8;" x="41.795433" xlink:href="#m8baa33070f" y="203.04"/>
      </g>
     </g>
     <g id="text_1">
      <!-- Mar 2020 -->
      <g transform="translate(44.554808 257.535312)rotate(-90)scale(0.1 -0.1)">
       <defs>
        <path d="M 9.8125 72.90625 
L 24.515625 72.90625 
L 43.109375 23.296875 
L 61.8125 72.90625 
L 76.515625 72.90625 
L 76.515625 0 
L 66.890625 0 
L 66.890625 64.015625 
L 48.09375 14.015625 
L 38.1875 14.015625 
L 19.390625 64.015625 
L 19.390625 0 
L 9.8125 0 
z
" id="DejaVuSans-77"/>
        <path d="M 34.28125 27.484375 
Q 23.390625 27.484375 19.1875 25 
Q 14.984375 22.515625 14.984375 16.5 
Q 14.984375 11.71875 18.140625 8.90625 
Q 21.296875 6.109375 26.703125 6.109375 
Q 34.1875 6.109375 38.703125 11.40625 
Q 43.21875 16.703125 43.21875 25.484375 
L 43.21875 27.484375 
z
M 52.203125 31.203125 
L 52.203125 0 
L 43.21875 0 
L 43.21875 8.296875 
Q 40.140625 3.328125 35.546875 0.953125 
Q 30.953125 -1.421875 24.3125 -1.421875 
Q 15.921875 -1.421875 10.953125 3.296875 
Q 6 8.015625 6 15.921875 
Q 6 25.140625 12.171875 29.828125 
Q 18.359375 34.515625 30.609375 34.515625 
L 43.21875 34.515625 
L 43.21875 35.40625 
Q 43.21875 41.609375 39.140625 45 
Q 35.0625 48.390625 27.6875 48.390625 
Q 23 48.390625 18.546875 47.265625 
Q 14.109375 46.140625 10.015625 43.890625 
L 10.015625 52.203125 
Q 14.9375 54.109375 19.578125 55.046875 
Q 24.21875 56 28.609375 56 
Q 40.484375 56 46.34375 49.84375 
Q 52.203125 43.703125 52.203125 31.203125 
z
" id="DejaVuSans-97"/>
        <path d="M 41.109375 46.296875 
Q 39.59375 47.171875 37.8125 47.578125 
Q 36.03125 48 33.890625 48 
Q 26.265625 48 22.1875 43.046875 
Q 18.109375 38.09375 18.109375 28.8125 
L 18.109375 0 
L 9.078125 0 
L 9.078125 54.6875 
L 18.109375 54.6875 
L 18.109375 46.1875 
Q 20.953125 51.171875 25.484375 53.578125 
Q 30.03125 56 36.53125 56 
Q 37.453125 56 38.578125 55.875 
Q 39.703125 55.765625 41.0625 55.515625 
z
" id="DejaVuSans-114"/>
        <path id="DejaVuSans-32"/>
        <path d="M 19.1875 8.296875 
L 53.609375 8.296875 
L 53.609375 0 
L 7.328125 0 
L 7.328125 8.296875 
Q 12.9375 14.109375 22.625 23.890625 
Q 32.328125 33.6875 34.8125 36.53125 
Q 39.546875 41.84375 41.421875 45.53125 
Q 43.3125 49.21875 43.3125 52.78125 
Q 43.3125 58.59375 39.234375 62.25 
Q 35.15625 65.921875 28.609375 65.921875 
Q 23.96875 65.921875 18.8125 64.3125 
Q 13.671875 62.703125 7.8125 59.421875 
L 7.8125 69.390625 
Q 13.765625 71.78125 18.9375 73 
Q 24.125 74.21875 28.421875 74.21875 
Q 39.75 74.21875 46.484375 68.546875 
Q 53.21875 62.890625 53.21875 53.421875 
Q 53.21875 48.921875 51.53125 44.890625 
Q 49.859375 40.875 45.40625 35.40625 
Q 44.1875 33.984375 37.640625 27.21875 
Q 31.109375 20.453125 19.1875 8.296875 
z
" id="DejaVuSans-50"/>
        <path d="M 31.78125 66.40625 
Q 24.171875 66.40625 20.328125 58.90625 
Q 16.5 51.421875 16.5 36.375 
Q 16.5 21.390625 20.328125 13.890625 
Q 24.171875 6.390625 31.78125 6.390625 
Q 39.453125 6.390625 43.28125 13.890625 
Q 47.125 21.390625 47.125 36.375 
Q 47.125 51.421875 43.28125 58.90625 
Q 39.453125 66.40625 31.78125 66.40625 
z
M 31.78125 74.21875 
Q 44.046875 74.21875 50.515625 64.515625 
Q 56.984375 54.828125 56.984375 36.375 
Q 56.984375 17.96875 50.515625 8.265625 
Q 44.046875 -1.421875 31.78125 -1.421875 
Q 19.53125 -1.421875 13.0625 8.265625 
Q 6.59375 17.96875 6.59375 36.375 
Q 6.59375 54.828125 13.0625 64.515625 
Q 19.53125 74.21875 31.78125 74.21875 
z
" id="DejaVuSans-48"/>
       </defs>
       <use xlink:href="#DejaVuSans-77"/>
       <use x="86.279297" xlink:href="#DejaVuSans-97"/>
       <use x="147.558594" xlink:href="#DejaVuSans-114"/>
       <use x="188.671875" xlink:href="#DejaVuSans-32"/>
       <use x="220.458984" xlink:href="#DejaVuSans-50"/>
       <use x="284.082031" xlink:href="#DejaVuSans-48"/>
       <use x="347.705078" xlink:href="#DejaVuSans-50"/>
       <use x="411.328125" xlink:href="#DejaVuSans-48"/>
      </g>
     </g>
    </g>
    <g id="xtick_2">
     <g id="line2d_2">
      <g>
       <use style="stroke:#000000;stroke-width:0.8;" x="108.99823" xlink:href="#m8baa33070f" y="203.04"/>
      </g>
     </g>
     <g id="text_2">
      <!-- Apr 2020 -->
      <g transform="translate(111.757605 255.968125)rotate(-90)scale(0.1 -0.1)">
       <defs>
        <path d="M 34.1875 63.1875 
L 20.796875 26.90625 
L 47.609375 26.90625 
z
M 28.609375 72.90625 
L 39.796875 72.90625 
L 67.578125 0 
L 57.328125 0 
L 50.6875 18.703125 
L 17.828125 18.703125 
L 11.1875 0 
L 0.78125 0 
z
" id="DejaVuSans-65"/>
        <path d="M 18.109375 8.203125 
L 18.109375 -20.796875 
L 9.078125 -20.796875 
L 9.078125 54.6875 
L 18.109375 54.6875 
L 18.109375 46.390625 
Q 20.953125 51.265625 25.265625 53.625 
Q 29.59375 56 35.59375 56 
Q 45.5625 56 51.78125 48.09375 
Q 58.015625 40.1875 58.015625 27.296875 
Q 58.015625 14.40625 51.78125 6.484375 
Q 45.5625 -1.421875 35.59375 -1.421875 
Q 29.59375 -1.421875 25.265625 0.953125 
Q 20.953125 3.328125 18.109375 8.203125 
z
M 48.6875 27.296875 
Q 48.6875 37.203125 44.609375 42.84375 
Q 40.53125 48.484375 33.40625 48.484375 
Q 26.265625 48.484375 22.1875 42.84375 
Q 18.109375 37.203125 18.109375 27.296875 
Q 18.109375 17.390625 22.1875 11.75 
Q 26.265625 6.109375 33.40625 6.109375 
Q 40.53125 6.109375 44.609375 11.75 
Q 48.6875 17.390625 48.6875 27.296875 
z
" id="DejaVuSans-112"/>
       </defs>
       <use xlink:href="#DejaVuSans-65"/>
       <use x="68.408203" xlink:href="#DejaVuSans-112"/>
       <use x="131.884766" xlink:href="#DejaVuSans-114"/>
       <use x="172.998047" xlink:href="#DejaVuSans-32"/>
       <use x="204.785156" xlink:href="#DejaVuSans-50"/>
       <use x="268.408203" xlink:href="#DejaVuSans-48"/>
       <use x="332.03125" xlink:href="#DejaVuSans-50"/>
       <use x="395.654297" xlink:href="#DejaVuSans-48"/>
      </g>
     </g>
    </g>
    <g id="xtick_3">
     <g id="line2d_3">
      <g>
       <use style="stroke:#000000;stroke-width:0.8;" x="174.033195" xlink:href="#m8baa33070f" y="203.04"/>
      </g>
     </g>
     <g id="text_3">
      <!-- May 2020 -->
      <g transform="translate(176.79257 259.343125)rotate(-90)scale(0.1 -0.1)">
       <defs>
        <path d="M 32.171875 -5.078125 
Q 28.375 -14.84375 24.75 -17.8125 
Q 21.140625 -20.796875 15.09375 -20.796875 
L 7.90625 -20.796875 
L 7.90625 -13.28125 
L 13.1875 -13.28125 
Q 16.890625 -13.28125 18.9375 -11.515625 
Q 21 -9.765625 23.484375 -3.21875 
L 25.09375 0.875 
L 2.984375 54.6875 
L 12.5 54.6875 
L 29.59375 11.921875 
L 46.6875 54.6875 
L 56.203125 54.6875 
z
" id="DejaVuSans-121"/>
       </defs>
       <use xlink:href="#DejaVuSans-77"/>
       <use x="86.279297" xlink:href="#DejaVuSans-97"/>
       <use x="147.558594" xlink:href="#DejaVuSans-121"/>
       <use x="206.738281" xlink:href="#DejaVuSans-32"/>
       <use x="238.525391" xlink:href="#DejaVuSans-50"/>
       <use x="302.148438" xlink:href="#DejaVuSans-48"/>
       <use x="365.771484" xlink:href="#DejaVuSans-50"/>
       <use x="429.394531" xlink:href="#DejaVuSans-48"/>
      </g>
     </g>
    </g>
    <g id="xtick_4">
     <g id="line2d_4">
      <g>
       <use style="stroke:#000000;stroke-width:0.8;" x="241.235992" xlink:href="#m8baa33070f" y="203.04"/>
      </g>
     </g>
     <g id="text_4">
      <!-- Jun 2020 -->
      <g transform="translate(243.995367 254.293125)rotate(-90)scale(0.1 -0.1)">
       <defs>
        <path d="M 9.8125 72.90625 
L 19.671875 72.90625 
L 19.671875 5.078125 
Q 19.671875 -8.109375 14.671875 -14.0625 
Q 9.671875 -20.015625 -1.421875 -20.015625 
L -5.171875 -20.015625 
L -5.171875 -11.71875 
L -2.09375 -11.71875 
Q 4.4375 -11.71875 7.125 -8.046875 
Q 9.8125 -4.390625 9.8125 5.078125 
z
" id="DejaVuSans-74"/>
        <path d="M 8.5 21.578125 
L 8.5 54.6875 
L 17.484375 54.6875 
L 17.484375 21.921875 
Q 17.484375 14.15625 20.5 10.265625 
Q 23.53125 6.390625 29.59375 6.390625 
Q 36.859375 6.390625 41.078125 11.03125 
Q 45.3125 15.671875 45.3125 23.6875 
L 45.3125 54.6875 
L 54.296875 54.6875 
L 54.296875 0 
L 45.3125 0 
L 45.3125 8.40625 
Q 42.046875 3.421875 37.71875 1 
Q 33.40625 -1.421875 27.6875 -1.421875 
Q 18.265625 -1.421875 13.375 4.4375 
Q 8.5 10.296875 8.5 21.578125 
z
M 31.109375 56 
z
" id="DejaVuSans-117"/>
        <path d="M 54.890625 33.015625 
L 54.890625 0 
L 45.90625 0 
L 45.90625 32.71875 
Q 45.90625 40.484375 42.875 44.328125 
Q 39.84375 48.1875 33.796875 48.1875 
Q 26.515625 48.1875 22.3125 43.546875 
Q 18.109375 38.921875 18.109375 30.90625 
L 18.109375 0 
L 9.078125 0 
L 9.078125 54.6875 
L 18.109375 54.6875 
L 18.109375 46.1875 
Q 21.34375 51.125 25.703125 53.5625 
Q 30.078125 56 35.796875 56 
Q 45.21875 56 50.046875 50.171875 
Q 54.890625 44.34375 54.890625 33.015625 
z
" id="DejaVuSans-110"/>
       </defs>
       <use xlink:href="#DejaVuSans-74"/>
       <use x="29.492188" xlink:href="#DejaVuSans-117"/>
       <use x="92.871094" xlink:href="#DejaVuSans-110"/>
       <use x="156.25" xlink:href="#DejaVuSans-32"/>
       <use x="188.037109" xlink:href="#DejaVuSans-50"/>
       <use x="251.660156" xlink:href="#DejaVuSans-48"/>
       <use x="315.283203" xlink:href="#DejaVuSans-50"/>
       <use x="378.90625" xlink:href="#DejaVuSans-48"/>
      </g>
     </g>
    </g>
    <g id="xtick_5">
     <g id="line2d_5">
      <g>
       <use style="stroke:#000000;stroke-width:0.8;" x="306.270957" xlink:href="#m8baa33070f" y="203.04"/>
      </g>
     </g>
     <g id="text_5">
      <!-- Jul 2020 -->
      <g transform="translate(309.030332 250.73375)rotate(-90)scale(0.1 -0.1)">
       <defs>
        <path d="M 9.421875 75.984375 
L 18.40625 75.984375 
L 18.40625 0 
L 9.421875 0 
z
" id="DejaVuSans-108"/>
       </defs>
       <use xlink:href="#DejaVuSans-74"/>
       <use x="29.492188" xlink:href="#DejaVuSans-117"/>
       <use x="92.871094" xlink:href="#DejaVuSans-108"/>
       <use x="120.654297" xlink:href="#DejaVuSans-32"/>
       <use x="152.441406" xlink:href="#DejaVuSans-50"/>
       <use x="216.064453" xlink:href="#DejaVuSans-48"/>
       <use x="279.6875" xlink:href="#DejaVuSans-50"/>
       <use x="343.310547" xlink:href="#DejaVuSans-48"/>
      </g>
     </g>
    </g>
    <g id="xtick_6">
     <g id="line2d_6">
      <g>
       <use style="stroke:#000000;stroke-width:0.8;" x="373.473754" xlink:href="#m8baa33070f" y="203.04"/>
      </g>
     </g>
     <g id="text_6">
      <!-- Aug 2020 -->
      <g transform="translate(376.233129 258.194687)rotate(-90)scale(0.1 -0.1)">
       <defs>
        <path d="M 45.40625 27.984375 
Q 45.40625 37.75 41.375 43.109375 
Q 37.359375 48.484375 30.078125 48.484375 
Q 22.859375 48.484375 18.828125 43.109375 
Q 14.796875 37.75 14.796875 27.984375 
Q 14.796875 18.265625 18.828125 12.890625 
Q 22.859375 7.515625 30.078125 7.515625 
Q 37.359375 7.515625 41.375 12.890625 
Q 45.40625 18.265625 45.40625 27.984375 
z
M 54.390625 6.78125 
Q 54.390625 -7.171875 48.1875 -13.984375 
Q 42 -20.796875 29.203125 -20.796875 
Q 24.46875 -20.796875 20.265625 -20.09375 
Q 16.0625 -19.390625 12.109375 -17.921875 
L 12.109375 -9.1875 
Q 16.0625 -11.328125 19.921875 -12.34375 
Q 23.78125 -13.375 27.78125 -13.375 
Q 36.625 -13.375 41.015625 -8.765625 
Q 45.40625 -4.15625 45.40625 5.171875 
L 45.40625 9.625 
Q 42.625 4.78125 38.28125 2.390625 
Q 33.9375 0 27.875 0 
Q 17.828125 0 11.671875 7.65625 
Q 5.515625 15.328125 5.515625 27.984375 
Q 5.515625 40.671875 11.671875 48.328125 
Q 17.828125 56 27.875 56 
Q 33.9375 56 38.28125 53.609375 
Q 42.625 51.21875 45.40625 46.390625 
L 45.40625 54.6875 
L 54.390625 54.6875 
z
" id="DejaVuSans-103"/>
       </defs>
       <use xlink:href="#DejaVuSans-65"/>
       <use x="68.408203" xlink:href="#DejaVuSans-117"/>
       <use x="131.787109" xlink:href="#DejaVuSans-103"/>
       <use x="195.263672" xlink:href="#DejaVuSans-32"/>
       <use x="227.050781" xlink:href="#DejaVuSans-50"/>
       <use x="290.673828" xlink:href="#DejaVuSans-48"/>
       <use x="354.296875" xlink:href="#DejaVuSans-50"/>
       <use x="417.919922" xlink:href="#DejaVuSans-48"/>
      </g>
     </g>
    </g>
    <g id="xtick_7">
     <g id="line2d_7">
      <g>
       <use style="stroke:#000000;stroke-width:0.8;" x="440.676552" xlink:href="#m8baa33070f" y="203.04"/>
      </g>
     </g>
     <g id="text_7">
      <!-- Sep 2020 -->
      <g transform="translate(443.435927 257.518125)rotate(-90)scale(0.1 -0.1)">
       <defs>
        <path d="M 53.515625 70.515625 
L 53.515625 60.890625 
Q 47.90625 63.578125 42.921875 64.890625 
Q 37.9375 66.21875 33.296875 66.21875 
Q 25.25 66.21875 20.875 63.09375 
Q 16.5 59.96875 16.5 54.203125 
Q 16.5 49.359375 19.40625 46.890625 
Q 22.3125 44.4375 30.421875 42.921875 
L 36.375 41.703125 
Q 47.40625 39.59375 52.65625 34.296875 
Q 57.90625 29 57.90625 20.125 
Q 57.90625 9.515625 50.796875 4.046875 
Q 43.703125 -1.421875 29.984375 -1.421875 
Q 24.8125 -1.421875 18.96875 -0.25 
Q 13.140625 0.921875 6.890625 3.21875 
L 6.890625 13.375 
Q 12.890625 10.015625 18.65625 8.296875 
Q 24.421875 6.59375 29.984375 6.59375 
Q 38.421875 6.59375 43.015625 9.90625 
Q 47.609375 13.234375 47.609375 19.390625 
Q 47.609375 24.75 44.3125 27.78125 
Q 41.015625 30.8125 33.5 32.328125 
L 27.484375 33.5 
Q 16.453125 35.6875 11.515625 40.375 
Q 6.59375 45.0625 6.59375 53.421875 
Q 6.59375 63.09375 13.40625 68.65625 
Q 20.21875 74.21875 32.171875 74.21875 
Q 37.3125 74.21875 42.625 73.28125 
Q 47.953125 72.359375 53.515625 70.515625 
z
" id="DejaVuSans-83"/>
        <path d="M 56.203125 29.59375 
L 56.203125 25.203125 
L 14.890625 25.203125 
Q 15.484375 15.921875 20.484375 11.0625 
Q 25.484375 6.203125 34.421875 6.203125 
Q 39.59375 6.203125 44.453125 7.46875 
Q 49.3125 8.734375 54.109375 11.28125 
L 54.109375 2.78125 
Q 49.265625 0.734375 44.1875 -0.34375 
Q 39.109375 -1.421875 33.890625 -1.421875 
Q 20.796875 -1.421875 13.15625 6.1875 
Q 5.515625 13.8125 5.515625 26.8125 
Q 5.515625 40.234375 12.765625 48.109375 
Q 20.015625 56 32.328125 56 
Q 43.359375 56 49.78125 48.890625 
Q 56.203125 41.796875 56.203125 29.59375 
z
M 47.21875 32.234375 
Q 47.125 39.59375 43.09375 43.984375 
Q 39.0625 48.390625 32.421875 48.390625 
Q 24.90625 48.390625 20.390625 44.140625 
Q 15.875 39.890625 15.1875 32.171875 
z
" id="DejaVuSans-101"/>
       </defs>
       <use xlink:href="#DejaVuSans-83"/>
       <use x="63.476562" xlink:href="#DejaVuSans-101"/>
       <use x="125" xlink:href="#DejaVuSans-112"/>
       <use x="188.476562" xlink:href="#DejaVuSans-32"/>
       <use x="220.263672" xlink:href="#DejaVuSans-50"/>
       <use x="283.886719" xlink:href="#DejaVuSans-48"/>
       <use x="347.509766" xlink:href="#DejaVuSans-50"/>
       <use x="411.132812" xlink:href="#DejaVuSans-48"/>
      </g>
     </g>
    </g>
    <g id="xtick_8">
     <g id="line2d_8">
      <g>
       <use style="stroke:#000000;stroke-width:0.8;" x="505.711517" xlink:href="#m8baa33070f" y="203.04"/>
      </g>
     </g>
     <g id="text_8">
      <!-- Oct 2020 -->
      <g transform="translate(508.470892 255.95875)rotate(-90)scale(0.1 -0.1)">
       <defs>
        <path d="M 39.40625 66.21875 
Q 28.65625 66.21875 22.328125 58.203125 
Q 16.015625 50.203125 16.015625 36.375 
Q 16.015625 22.609375 22.328125 14.59375 
Q 28.65625 6.59375 39.40625 6.59375 
Q 50.140625 6.59375 56.421875 14.59375 
Q 62.703125 22.609375 62.703125 36.375 
Q 62.703125 50.203125 56.421875 58.203125 
Q 50.140625 66.21875 39.40625 66.21875 
z
M 39.40625 74.21875 
Q 54.734375 74.21875 63.90625 63.9375 
Q 73.09375 53.65625 73.09375 36.375 
Q 73.09375 19.140625 63.90625 8.859375 
Q 54.734375 -1.421875 39.40625 -1.421875 
Q 24.03125 -1.421875 14.8125 8.828125 
Q 5.609375 19.09375 5.609375 36.375 
Q 5.609375 53.65625 14.8125 63.9375 
Q 24.03125 74.21875 39.40625 74.21875 
z
" id="DejaVuSans-79"/>
        <path d="M 48.78125 52.59375 
L 48.78125 44.1875 
Q 44.96875 46.296875 41.140625 47.34375 
Q 37.3125 48.390625 33.40625 48.390625 
Q 24.65625 48.390625 19.8125 42.84375 
Q 14.984375 37.3125 14.984375 27.296875 
Q 14.984375 17.28125 19.8125 11.734375 
Q 24.65625 6.203125 33.40625 6.203125 
Q 37.3125 6.203125 41.140625 7.25 
Q 44.96875 8.296875 48.78125 10.40625 
L 48.78125 2.09375 
Q 45.015625 0.34375 40.984375 -0.53125 
Q 36.96875 -1.421875 32.421875 -1.421875 
Q 20.0625 -1.421875 12.78125 6.34375 
Q 5.515625 14.109375 5.515625 27.296875 
Q 5.515625 40.671875 12.859375 48.328125 
Q 20.21875 56 33.015625 56 
Q 37.15625 56 41.109375 55.140625 
Q 45.0625 54.296875 48.78125 52.59375 
z
" id="DejaVuSans-99"/>
        <path d="M 18.3125 70.21875 
L 18.3125 54.6875 
L 36.8125 54.6875 
L 36.8125 47.703125 
L 18.3125 47.703125 
L 18.3125 18.015625 
Q 18.3125 11.328125 20.140625 9.421875 
Q 21.96875 7.515625 27.59375 7.515625 
L 36.8125 7.515625 
L 36.8125 0 
L 27.59375 0 
Q 17.1875 0 13.234375 3.875 
Q 9.28125 7.765625 9.28125 18.015625 
L 9.28125 47.703125 
L 2.6875 47.703125 
L 2.6875 54.6875 
L 9.28125 54.6875 
L 9.28125 70.21875 
z
" id="DejaVuSans-116"/>
       </defs>
       <use xlink:href="#DejaVuSans-79"/>
       <use x="78.710938" xlink:href="#DejaVuSans-99"/>
       <use x="133.691406" xlink:href="#DejaVuSans-116"/>
       <use x="172.900391" xlink:href="#DejaVuSans-32"/>
       <use x="204.6875" xlink:href="#DejaVuSans-50"/>
       <use x="268.310547" xlink:href="#DejaVuSans-48"/>
       <use x="331.933594" xlink:href="#DejaVuSans-50"/>
       <use x="395.556641" xlink:href="#DejaVuSans-48"/>
      </g>
     </g>
    </g>
    <g id="xtick_9">
     <g id="line2d_9">
      <g>
       <use style="stroke:#000000;stroke-width:0.8;" x="572.914314" xlink:href="#m8baa33070f" y="203.04"/>
      </g>
     </g>
     <g id="text_9">
      <!-- Nov 2020 -->
      <g transform="translate(575.673689 258.186875)rotate(-90)scale(0.1 -0.1)">
       <defs>
        <path d="M 9.8125 72.90625 
L 23.09375 72.90625 
L 55.421875 11.921875 
L 55.421875 72.90625 
L 64.984375 72.90625 
L 64.984375 0 
L 51.703125 0 
L 19.390625 60.984375 
L 19.390625 0 
L 9.8125 0 
z
" id="DejaVuSans-78"/>
        <path d="M 30.609375 48.390625 
Q 23.390625 48.390625 19.1875 42.75 
Q 14.984375 37.109375 14.984375 27.296875 
Q 14.984375 17.484375 19.15625 11.84375 
Q 23.34375 6.203125 30.609375 6.203125 
Q 37.796875 6.203125 41.984375 11.859375 
Q 46.1875 17.53125 46.1875 27.296875 
Q 46.1875 37.015625 41.984375 42.703125 
Q 37.796875 48.390625 30.609375 48.390625 
z
M 30.609375 56 
Q 42.328125 56 49.015625 48.375 
Q 55.71875 40.765625 55.71875 27.296875 
Q 55.71875 13.875 49.015625 6.21875 
Q 42.328125 -1.421875 30.609375 -1.421875 
Q 18.84375 -1.421875 12.171875 6.21875 
Q 5.515625 13.875 5.515625 27.296875 
Q 5.515625 40.765625 12.171875 48.375 
Q 18.84375 56 30.609375 56 
z
" id="DejaVuSans-111"/>
        <path d="M 2.984375 54.6875 
L 12.5 54.6875 
L 29.59375 8.796875 
L 46.6875 54.6875 
L 56.203125 54.6875 
L 35.6875 0 
L 23.484375 0 
z
" id="DejaVuSans-118"/>
       </defs>
       <use xlink:href="#DejaVuSans-78"/>
       <use x="74.804688" xlink:href="#DejaVuSans-111"/>
       <use x="135.986328" xlink:href="#DejaVuSans-118"/>
       <use x="195.166016" xlink:href="#DejaVuSans-32"/>
       <use x="226.953125" xlink:href="#DejaVuSans-50"/>
       <use x="290.576172" xlink:href="#DejaVuSans-48"/>
       <use x="354.199219" xlink:href="#DejaVuSans-50"/>
       <use x="417.822266" xlink:href="#DejaVuSans-48"/>
      </g>
     </g>
    </g>
    <g id="xtick_10">
     <g id="line2d_10">
      <g>
       <use style="stroke:#000000;stroke-width:0.8;" x="637.949279" xlink:href="#m8baa33070f" y="203.04"/>
      </g>
     </g>
     <g id="text_10">
      <!-- Dec 2020 -->
      <g transform="translate(640.708654 258.019687)rotate(-90)scale(0.1 -0.1)">
       <defs>
        <path d="M 19.671875 64.796875 
L 19.671875 8.109375 
L 31.59375 8.109375 
Q 46.6875 8.109375 53.6875 14.9375 
Q 60.6875 21.78125 60.6875 36.53125 
Q 60.6875 51.171875 53.6875 57.984375 
Q 46.6875 64.796875 31.59375 64.796875 
z
M 9.8125 72.90625 
L 30.078125 72.90625 
Q 51.265625 72.90625 61.171875 64.09375 
Q 71.09375 55.28125 71.09375 36.53125 
Q 71.09375 17.671875 61.125 8.828125 
Q 51.171875 0 30.078125 0 
L 9.8125 0 
z
" id="DejaVuSans-68"/>
       </defs>
       <use xlink:href="#DejaVuSans-68"/>
       <use x="77.001953" xlink:href="#DejaVuSans-101"/>
       <use x="138.525391" xlink:href="#DejaVuSans-99"/>
       <use x="193.505859" xlink:href="#DejaVuSans-32"/>
       <use x="225.292969" xlink:href="#DejaVuSans-50"/>
       <use x="288.916016" xlink:href="#DejaVuSans-48"/>
       <use x="352.539062" xlink:href="#DejaVuSans-50"/>
       <use x="416.162109" xlink:href="#DejaVuSans-48"/>
      </g>
     </g>
    </g>
    <g id="xtick_11">
     <g id="line2d_11">
      <g>
       <use style="stroke:#000000;stroke-width:0.8;" x="705.152076" xlink:href="#m8baa33070f" y="203.04"/>
      </g>
     </g>
     <g id="text_11">
      <!-- Jan 2021 -->
      <g transform="translate(707.911451 254.08375)rotate(-90)scale(0.1 -0.1)">
       <defs>
        <path d="M 12.40625 8.296875 
L 28.515625 8.296875 
L 28.515625 63.921875 
L 10.984375 60.40625 
L 10.984375 69.390625 
L 28.421875 72.90625 
L 38.28125 72.90625 
L 38.28125 8.296875 
L 54.390625 8.296875 
L 54.390625 0 
L 12.40625 0 
z
" id="DejaVuSans-49"/>
       </defs>
       <use xlink:href="#DejaVuSans-74"/>
       <use x="29.492188" xlink:href="#DejaVuSans-97"/>
       <use x="90.771484" xlink:href="#DejaVuSans-110"/>
       <use x="154.150391" xlink:href="#DejaVuSans-32"/>
       <use x="185.9375" xlink:href="#DejaVuSans-50"/>
       <use x="249.560547" xlink:href="#DejaVuSans-48"/>
       <use x="313.183594" xlink:href="#DejaVuSans-50"/>
       <use x="376.806641" xlink:href="#DejaVuSans-49"/>
      </g>
     </g>
    </g>
    <g id="xtick_12">
     <g id="line2d_12">
      <g>
       <use style="stroke:#000000;stroke-width:0.8;" x="772.354873" xlink:href="#m8baa33070f" y="203.04"/>
      </g>
     </g>
     <g id="text_12">
      <!-- Feb 2021 -->
      <g transform="translate(775.114248 256.37125)rotate(-90)scale(0.1 -0.1)">
       <defs>
        <path d="M 9.8125 72.90625 
L 51.703125 72.90625 
L 51.703125 64.59375 
L 19.671875 64.59375 
L 19.671875 43.109375 
L 48.578125 43.109375 
L 48.578125 34.8125 
L 19.671875 34.8125 
L 19.671875 0 
L 9.8125 0 
z
" id="DejaVuSans-70"/>
        <path d="M 48.6875 27.296875 
Q 48.6875 37.203125 44.609375 42.84375 
Q 40.53125 48.484375 33.40625 48.484375 
Q 26.265625 48.484375 22.1875 42.84375 
Q 18.109375 37.203125 18.109375 27.296875 
Q 18.109375 17.390625 22.1875 11.75 
Q 26.265625 6.109375 33.40625 6.109375 
Q 40.53125 6.109375 44.609375 11.75 
Q 48.6875 17.390625 48.6875 27.296875 
z
M 18.109375 46.390625 
Q 20.953125 51.265625 25.265625 53.625 
Q 29.59375 56 35.59375 56 
Q 45.5625 56 51.78125 48.09375 
Q 58.015625 40.1875 58.015625 27.296875 
Q 58.015625 14.40625 51.78125 6.484375 
Q 45.5625 -1.421875 35.59375 -1.421875 
Q 29.59375 -1.421875 25.265625 0.953125 
Q 20.953125 3.328125 18.109375 8.203125 
L 18.109375 0 
L 9.078125 0 
L 9.078125 75.984375 
L 18.109375 75.984375 
z
" id="DejaVuSans-98"/>
       </defs>
       <use xlink:href="#DejaVuSans-70"/>
       <use x="52.019531" xlink:href="#DejaVuSans-101"/>
       <use x="113.542969" xlink:href="#DejaVuSans-98"/>
       <use x="177.019531" xlink:href="#DejaVuSans-32"/>
       <use x="208.806641" xlink:href="#DejaVuSans-50"/>
       <use x="272.429688" xlink:href="#DejaVuSans-48"/>
       <use x="336.052734" xlink:href="#DejaVuSans-50"/>
       <use x="399.675781" xlink:href="#DejaVuSans-49"/>
      </g>
     </g>
    </g>
    <g id="xtick_13">
     <g id="line2d_13">
      <g>
       <use style="stroke:#000000;stroke-width:0.8;" x="833.054174" xlink:href="#m8baa33070f" y="203.04"/>
      </g>
     </g>
     <g id="text_13">
      <!-- Mar 2021 -->
      <g transform="translate(835.813549 257.535312)rotate(-90)scale(0.1 -0.1)">
       <use xlink:href="#DejaVuSans-77"/>
       <use x="86.279297" xlink:href="#DejaVuSans-97"/>
       <use x="147.558594" xlink:href="#DejaVuSans-114"/>
       <use x="188.671875" xlink:href="#DejaVuSans-32"/>
       <use x="220.458984" xlink:href="#DejaVuSans-50"/>
       <use x="284.082031" xlink:href="#DejaVuSans-48"/>
       <use x="347.705078" xlink:href="#DejaVuSans-50"/>
       <use x="411.328125" xlink:href="#DejaVuSans-49"/>
      </g>
     </g>
    </g>
    <g id="text_14">
     <!-- Start date -->
     <g transform="translate(434.025 270.941562)scale(0.1 -0.1)">
      <defs>
       <path d="M 45.40625 46.390625 
L 45.40625 75.984375 
L 54.390625 75.984375 
L 54.390625 0 
L 45.40625 0 
L 45.40625 8.203125 
Q 42.578125 3.328125 38.25 0.953125 
Q 33.9375 -1.421875 27.875 -1.421875 
Q 17.96875 -1.421875 11.734375 6.484375 
Q 5.515625 14.40625 5.515625 27.296875 
Q 5.515625 40.1875 11.734375 48.09375 
Q 17.96875 56 27.875 56 
Q 33.9375 56 38.25 53.625 
Q 42.578125 51.265625 45.40625 46.390625 
z
M 14.796875 27.296875 
Q 14.796875 17.390625 18.875 11.75 
Q 22.953125 6.109375 30.078125 6.109375 
Q 37.203125 6.109375 41.296875 11.75 
Q 45.40625 17.390625 45.40625 27.296875 
Q 45.40625 37.203125 41.296875 42.84375 
Q 37.203125 48.484375 30.078125 48.484375 
Q 22.953125 48.484375 18.875 42.84375 
Q 14.796875 37.203125 14.796875 27.296875 
z
" id="DejaVuSans-100"/>
      </defs>
      <use xlink:href="#DejaVuSans-83"/>
      <use x="63.476562" xlink:href="#DejaVuSans-116"/>
      <use x="102.685547" xlink:href="#DejaVuSans-97"/>
      <use x="163.964844" xlink:href="#DejaVuSans-114"/>
      <use x="205.078125" xlink:href="#DejaVuSans-116"/>
      <use x="244.287109" xlink:href="#DejaVuSans-32"/>
      <use x="276.074219" xlink:href="#DejaVuSans-100"/>
      <use x="339.550781" xlink:href="#DejaVuSans-97"/>
      <use x="400.830078" xlink:href="#DejaVuSans-116"/>
      <use x="440.039062" xlink:href="#DejaVuSans-101"/>
     </g>
    </g>
   </g>
   <g id="matplotlib.axis_2">
    <g id="ytick_1">
     <g id="line2d_14">
      <defs>
       <path d="M 0 0 
L -3.5 0 
" id="mbd3eed129e" style="stroke:#000000;stroke-width:0.8;"/>
      </defs>
      <g>
       <use style="stroke:#000000;stroke-width:0.8;" x="40.603125" xlink:href="#mbd3eed129e" y="194.138182"/>
      </g>
     </g>
     <g id="text_15">
      <!-- 0 -->
      <g transform="translate(27.240625 197.937401)scale(0.1 -0.1)">
       <use xlink:href="#DejaVuSans-48"/>
      </g>
     </g>
    </g>
    <g id="ytick_2">
     <g id="line2d_15">
      <g>
       <use style="stroke:#000000;stroke-width:0.8;" x="40.603125" xlink:href="#mbd3eed129e" y="166.32"/>
      </g>
     </g>
     <g id="text_16">
      <!-- 10 -->
      <g transform="translate(20.878125 170.119219)scale(0.1 -0.1)">
       <use xlink:href="#DejaVuSans-49"/>
       <use x="63.623047" xlink:href="#DejaVuSans-48"/>
      </g>
     </g>
    </g>
    <g id="ytick_3">
     <g id="line2d_16">
      <g>
       <use style="stroke:#000000;stroke-width:0.8;" x="40.603125" xlink:href="#mbd3eed129e" y="138.501818"/>
      </g>
     </g>
     <g id="text_17">
      <!-- 20 -->
      <g transform="translate(20.878125 142.301037)scale(0.1 -0.1)">
       <use xlink:href="#DejaVuSans-50"/>
       <use x="63.623047" xlink:href="#DejaVuSans-48"/>
      </g>
     </g>
    </g>
    <g id="ytick_4">
     <g id="line2d_17">
      <g>
       <use style="stroke:#000000;stroke-width:0.8;" x="40.603125" xlink:href="#mbd3eed129e" y="110.683636"/>
      </g>
     </g>
     <g id="text_18">
      <!-- 30 -->
      <g transform="translate(20.878125 114.482855)scale(0.1 -0.1)">
       <defs>
        <path d="M 40.578125 39.3125 
Q 47.65625 37.796875 51.625 33 
Q 55.609375 28.21875 55.609375 21.1875 
Q 55.609375 10.40625 48.1875 4.484375 
Q 40.765625 -1.421875 27.09375 -1.421875 
Q 22.515625 -1.421875 17.65625 -0.515625 
Q 12.796875 0.390625 7.625 2.203125 
L 7.625 11.71875 
Q 11.71875 9.328125 16.59375 8.109375 
Q 21.484375 6.890625 26.8125 6.890625 
Q 36.078125 6.890625 40.9375 10.546875 
Q 45.796875 14.203125 45.796875 21.1875 
Q 45.796875 27.640625 41.28125 31.265625 
Q 36.765625 34.90625 28.71875 34.90625 
L 20.21875 34.90625 
L 20.21875 43.015625 
L 29.109375 43.015625 
Q 36.375 43.015625 40.234375 45.921875 
Q 44.09375 48.828125 44.09375 54.296875 
Q 44.09375 59.90625 40.109375 62.90625 
Q 36.140625 65.921875 28.71875 65.921875 
Q 24.65625 65.921875 20.015625 65.03125 
Q 15.375 64.15625 9.8125 62.3125 
L 9.8125 71.09375 
Q 15.4375 72.65625 20.34375 73.4375 
Q 25.25 74.21875 29.59375 74.21875 
Q 40.828125 74.21875 47.359375 69.109375 
Q 53.90625 64.015625 53.90625 55.328125 
Q 53.90625 49.265625 50.4375 45.09375 
Q 46.96875 40.921875 40.578125 39.3125 
z
" id="DejaVuSans-51"/>
       </defs>
       <use xlink:href="#DejaVuSans-51"/>
       <use x="63.623047" xlink:href="#DejaVuSans-48"/>
      </g>
     </g>
    </g>
    <g id="ytick_5">
     <g id="line2d_18">
      <g>
       <use style="stroke:#000000;stroke-width:0.8;" x="40.603125" xlink:href="#mbd3eed129e" y="82.865455"/>
      </g>
     </g>
     <g id="text_19">
      <!-- 40 -->
      <g transform="translate(20.878125 86.664673)scale(0.1 -0.1)">
       <defs>
        <path d="M 37.796875 64.3125 
L 12.890625 25.390625 
L 37.796875 25.390625 
z
M 35.203125 72.90625 
L 47.609375 72.90625 
L 47.609375 25.390625 
L 58.015625 25.390625 
L 58.015625 17.1875 
L 47.609375 17.1875 
L 47.609375 0 
L 37.796875 0 
L 37.796875 17.1875 
L 4.890625 17.1875 
L 4.890625 26.703125 
z
" id="DejaVuSans-52"/>
       </defs>
       <use xlink:href="#DejaVuSans-52"/>
       <use x="63.623047" xlink:href="#DejaVuSans-48"/>
      </g>
     </g>
    </g>
    <g id="ytick_6">
     <g id="line2d_19">
      <g>
       <use style="stroke:#000000;stroke-width:0.8;" x="40.603125" xlink:href="#mbd3eed129e" y="55.047273"/>
      </g>
     </g>
     <g id="text_20">
      <!-- 50 -->
      <g transform="translate(20.878125 58.846491)scale(0.1 -0.1)">
       <defs>
        <path d="M 10.796875 72.90625 
L 49.515625 72.90625 
L 49.515625 64.59375 
L 19.828125 64.59375 
L 19.828125 46.734375 
Q 21.96875 47.46875 24.109375 47.828125 
Q 26.265625 48.1875 28.421875 48.1875 
Q 40.625 48.1875 47.75 41.5 
Q 54.890625 34.8125 54.890625 23.390625 
Q 54.890625 11.625 47.5625 5.09375 
Q 40.234375 -1.421875 26.90625 -1.421875 
Q 22.3125 -1.421875 17.546875 -0.640625 
Q 12.796875 0.140625 7.71875 1.703125 
L 7.71875 11.625 
Q 12.109375 9.234375 16.796875 8.0625 
Q 21.484375 6.890625 26.703125 6.890625 
Q 35.15625 6.890625 40.078125 11.328125 
Q 45.015625 15.765625 45.015625 23.390625 
Q 45.015625 31 40.078125 35.4375 
Q 35.15625 39.890625 26.703125 39.890625 
Q 22.75 39.890625 18.8125 39.015625 
Q 14.890625 38.140625 10.796875 36.28125 
z
" id="DejaVuSans-53"/>
       </defs>
       <use xlink:href="#DejaVuSans-53"/>
       <use x="63.623047" xlink:href="#DejaVuSans-48"/>
      </g>
     </g>
    </g>
    <g id="ytick_7">
     <g id="line2d_20">
      <g>
       <use style="stroke:#000000;stroke-width:0.8;" x="40.603125" xlink:href="#mbd3eed129e" y="27.229091"/>
      </g>
     </g>
     <g id="text_21">
      <!-- 60 -->
      <g transform="translate(20.878125 31.02831)scale(0.1 -0.1)">
       <defs>
        <path d="M 33.015625 40.375 
Q 26.375 40.375 22.484375 35.828125 
Q 18.609375 31.296875 18.609375 23.390625 
Q 18.609375 15.53125 22.484375 10.953125 
Q 26.375 6.390625 33.015625 6.390625 
Q 39.65625 6.390625 43.53125 10.953125 
Q 47.40625 15.53125 47.40625 23.390625 
Q 47.40625 31.296875 43.53125 35.828125 
Q 39.65625 40.375 33.015625 40.375 
z
M 52.59375 71.296875 
L 52.59375 62.3125 
Q 48.875 64.0625 45.09375 64.984375 
Q 41.3125 65.921875 37.59375 65.921875 
Q 27.828125 65.921875 22.671875 59.328125 
Q 17.53125 52.734375 16.796875 39.40625 
Q 19.671875 43.65625 24.015625 45.921875 
Q 28.375 48.1875 33.59375 48.1875 
Q 44.578125 48.1875 50.953125 41.515625 
Q 57.328125 34.859375 57.328125 23.390625 
Q 57.328125 12.15625 50.6875 5.359375 
Q 44.046875 -1.421875 33.015625 -1.421875 
Q 20.359375 -1.421875 13.671875 8.265625 
Q 6.984375 17.96875 6.984375 36.375 
Q 6.984375 53.65625 15.1875 63.9375 
Q 23.390625 74.21875 37.203125 74.21875 
Q 40.921875 74.21875 44.703125 73.484375 
Q 48.484375 72.75 52.59375 71.296875 
z
" id="DejaVuSans-54"/>
       </defs>
       <use xlink:href="#DejaVuSans-54"/>
       <use x="63.623047" xlink:href="#DejaVuSans-48"/>
      </g>
     </g>
    </g>
    <g id="text_22">
     <!-- Stay (in days) -->
     <g transform="translate(14.798438 139.717656)rotate(-90)scale(0.1 -0.1)">
      <defs>
       <path d="M 31 75.875 
Q 24.46875 64.65625 21.28125 53.65625 
Q 18.109375 42.671875 18.109375 31.390625 
Q 18.109375 20.125 21.3125 9.0625 
Q 24.515625 -2 31 -13.1875 
L 23.1875 -13.1875 
Q 15.875 -1.703125 12.234375 9.375 
Q 8.59375 20.453125 8.59375 31.390625 
Q 8.59375 42.28125 12.203125 53.3125 
Q 15.828125 64.359375 23.1875 75.875 
z
" id="DejaVuSans-40"/>
       <path d="M 9.421875 54.6875 
L 18.40625 54.6875 
L 18.40625 0 
L 9.421875 0 
z
M 9.421875 75.984375 
L 18.40625 75.984375 
L 18.40625 64.59375 
L 9.421875 64.59375 
z
" id="DejaVuSans-105"/>
       <path d="M 44.28125 53.078125 
L 44.28125 44.578125 
Q 40.484375 46.53125 36.375 47.5 
Q 32.28125 48.484375 27.875 48.484375 
Q 21.1875 48.484375 17.84375 46.4375 
Q 14.5 44.390625 14.5 40.28125 
Q 14.5 37.15625 16.890625 35.375 
Q 19.28125 33.59375 26.515625 31.984375 
L 29.59375 31.296875 
Q 39.15625 29.25 43.1875 25.515625 
Q 47.21875 21.78125 47.21875 15.09375 
Q 47.21875 7.46875 41.1875 3.015625 
Q 35.15625 -1.421875 24.609375 -1.421875 
Q 20.21875 -1.421875 15.453125 -0.5625 
Q 10.6875 0.296875 5.421875 2 
L 5.421875 11.28125 
Q 10.40625 8.6875 15.234375 7.390625 
Q 20.0625 6.109375 24.8125 6.109375 
Q 31.15625 6.109375 34.5625 8.28125 
Q 37.984375 10.453125 37.984375 14.40625 
Q 37.984375 18.0625 35.515625 20.015625 
Q 33.0625 21.96875 24.703125 23.78125 
L 21.578125 24.515625 
Q 13.234375 26.265625 9.515625 29.90625 
Q 5.8125 33.546875 5.8125 39.890625 
Q 5.8125 47.609375 11.28125 51.796875 
Q 16.75 56 26.8125 56 
Q 31.78125 56 36.171875 55.265625 
Q 40.578125 54.546875 44.28125 53.078125 
z
" id="DejaVuSans-115"/>
       <path d="M 8.015625 75.875 
L 15.828125 75.875 
Q 23.140625 64.359375 26.78125 53.3125 
Q 30.421875 42.28125 30.421875 31.390625 
Q 30.421875 20.453125 26.78125 9.375 
Q 23.140625 -1.703125 15.828125 -13.1875 
L 8.015625 -13.1875 
Q 14.5 -2 17.703125 9.0625 
Q 20.90625 20.125 20.90625 31.390625 
Q 20.90625 42.671875 17.703125 53.65625 
Q 14.5 64.65625 8.015625 75.875 
z
" id="DejaVuSans-41"/>
      </defs>
      <use xlink:href="#DejaVuSans-83"/>
      <use x="63.476562" xlink:href="#DejaVuSans-116"/>
      <use x="102.685547" xlink:href="#DejaVuSans-97"/>
      <use x="163.964844" xlink:href="#DejaVuSans-121"/>
      <use x="223.144531" xlink:href="#DejaVuSans-32"/>
      <use x="254.931641" xlink:href="#DejaVuSans-40"/>
      <use x="293.945312" xlink:href="#DejaVuSans-105"/>
      <use x="321.728516" xlink:href="#DejaVuSans-110"/>
      <use x="385.107422" xlink:href="#DejaVuSans-32"/>
      <use x="416.894531" xlink:href="#DejaVuSans-100"/>
      <use x="480.371094" xlink:href="#DejaVuSans-97"/>
      <use x="541.650391" xlink:href="#DejaVuSans-121"/>
      <use x="600.830078" xlink:href="#DejaVuSans-115"/>
      <use x="652.929688" xlink:href="#DejaVuSans-41"/>
     </g>
    </g>
   </g>
   <g id="line2d_21">
    <path clip-path="url(#pe631831b88)" d="M 78.64858 181.62 
L 80.816412 152.410909 
L 82.984244 134.329091 
L 85.152076 163.538182 
L 87.319908 100.947273 
L 89.48774 188.574545 
L 91.655573 114.856364 
L 93.823405 70.347273 
L 95.991237 138.501818 
L 98.159069 128.301818 
L 100.326901 146.847273 
L 102.494733 99.092727 
L 104.662566 144.065455 
L 106.830398 100.947273 
L 108.99823 139.429091 
L 111.166062 166.32 
L 113.333894 146.847273 
L 115.501726 149.629091 
L 117.669559 166.32 
L 119.837391 149.629091 
L 122.005223 144.065455 
L 124.173055 127.374545 
L 126.340887 124.592727 
L 130.676552 166.32 
L 135.012216 135.72 
L 137.180048 142.674545 
L 139.34788 182.083636 
L 143.683545 127.374545 
L 145.851377 132.938182 
L 152.354873 80.083636 
L 154.522705 102.338182 
L 156.690538 158.67 
L 158.85837 141.283636 
L 161.026202 188.574545 
L 163.194034 160.756364 
L 165.361866 170.956364 
L 167.529698 166.32 
L 169.697531 169.797273 
L 171.865363 159.829091 
L 174.033195 146.847273 
L 176.201027 131.547273 
L 178.368859 165.763636 
L 180.536691 169.101818 
L 182.704524 139.892727 
L 184.872356 172.810909 
L 187.040188 167.710909 
L 191.375852 180.229091 
L 193.543684 66.174545 
L 195.711517 164.465455 
L 197.879349 141.283636 
L 200.047181 157.974545 
L 202.215013 128.07 
L 204.382845 146.847273 
L 206.550677 155.888182 
L 208.71851 162.147273 
L 210.886342 147.403636 
L 213.054174 145.456364 
L 215.222006 153.603117 
L 217.389838 144.065455 
L 219.55767 170.492727 
L 221.725503 156.583636 
L 223.893335 154.265455 
L 226.061167 147.642078 
L 228.228999 149.629091 
L 230.396831 174.665455 
L 232.564663 174.665455 
L 234.732496 163.538182 
L 236.900328 160.756364 
L 239.06816 161.451818 
L 241.235992 145.178182 
L 243.403824 150.672273 
L 245.571656 174.665455 
L 247.739489 183.010909 
L 249.907321 139.545 
L 252.075153 163.538182 
L 254.242985 142.674545 
L 256.410817 164.465455 
L 258.578649 144.621818 
L 260.746482 141.283636 
L 262.914314 160.756364 
L 265.082146 160.429091 
L 267.249978 168.174545 
L 269.41781 154.883636 
L 271.585642 98.165455 
L 273.753475 149.629091 
L 275.921307 126.215455 
L 278.089139 173.830909 
L 280.256971 133.443967 
L 282.424803 163.306364 
L 284.592635 169.52979 
L 286.760468 161.22 
L 288.9283 157.760559 
L 291.096132 162.065455 
L 293.263964 158.173247 
L 295.431796 131.547273 
L 297.599628 162.610909 
L 299.767461 152.584773 
L 301.935293 128.487273 
L 304.103125 152.689091 
L 306.270957 120.992727 
L 308.438789 149.755537 
L 310.606622 138.501818 
L 312.774454 112.823497 
L 314.942286 152.063182 
L 317.110118 152.996555 
L 319.27795 146.363478 
L 321.445782 138.501818 
L 323.613615 155.424545 
L 325.781447 160.292727 
L 327.949279 131.269091 
L 330.117111 144.86026 
L 332.284943 123.897273 
L 334.452775 141.187712 
L 336.620608 156.699545 
L 338.78844 159.239008 
L 340.956272 150.233834 
L 343.124104 114.160909 
L 345.291936 137.729091 
L 347.459768 148.392727 
L 349.627601 145.395889 
L 351.795433 148.071273 
L 353.963265 138.733636 
L 356.131097 144.670198 
L 358.298929 121.038182 
L 360.466761 149.010909 
L 362.634594 142.73502 
L 364.802426 162.065455 
L 366.970258 148.238182 
L 369.13809 148.782451 
L 371.305922 144.155191 
L 373.473754 132.79177 
L 375.641587 151.736529 
L 377.809419 156.351818 
L 379.977251 148.617521 
L 382.145083 143.102517 
L 384.312915 146.312308 
L 386.480747 148.856364 
L 388.64858 138.154091 
L 390.816412 157.232727 
L 392.984244 150.630545 
L 395.152076 156.281265 
L 397.319908 164.762182 
L 399.48774 146.467934 
L 401.655573 156.861818 
L 403.823405 138.23261 
L 405.991237 158.148409 
L 408.159069 163.816364 
L 410.326901 154.899904 
L 412.494733 128.831688 
L 414.662566 143.460711 
L 416.830398 156.082909 
L 418.99823 154.265455 
L 421.166062 144.645 
L 423.333894 166.854965 
L 425.501726 140.949818 
L 427.669559 146.44987 
L 429.837391 147.665455 
L 432.005223 155.676522 
L 434.173055 142.295207 
L 436.340887 133.592727 
L 438.508719 166.854965 
L 440.676552 153.728612 
L 442.844384 156.027273 
L 445.012216 153.694825 
L 447.180048 163.229091 
L 449.34788 157.853597 
L 451.515712 155.501818 
L 453.683545 163.26 
L 455.851377 153.675372 
L 458.019209 170.426494 
L 460.187041 150.498409 
L 462.354873 150.865455 
L 464.522705 163.847273 
L 466.690538 153.183636 
L 468.85837 145.224545 
L 471.026202 146.549221 
L 473.194034 142.500682 
L 475.361866 156.583636 
L 477.529698 139.058182 
L 479.697531 157.974545 
L 481.865363 168.754091 
L 484.033195 144.318347 
L 486.201027 161.767934 
L 488.368859 158.843864 
L 490.536691 152.132727 
L 492.704524 166.32 
L 494.872356 155.59013 
L 497.040188 163.26 
L 499.20802 132.51021 
L 501.375852 147.890455 
L 503.543684 145.835702 
L 505.711517 158.901818 
L 507.879349 131.721136 
L 510.047181 149.783636 
L 512.215013 157.452955 
L 514.382845 146.615455 
L 516.550677 138.965455 
L 518.71851 162.842727 
L 520.886342 154.596623 
L 523.054174 158.67 
L 525.222006 153.523636 
L 527.389838 167.584463 
L 529.55767 155.847273 
L 531.725503 156.351818 
L 533.893335 141.283636 
L 536.061167 136.598469 
L 538.228999 133.285909 
L 540.396831 150.938182 
L 542.564663 172.161818 
L 544.732496 129.942378 
L 546.900328 153.801818 
L 549.06816 151.02 
L 551.235992 156.665455 
L 553.403824 164.822098 
L 555.571656 163.816364 
L 557.739489 148.987133 
L 559.907321 161.799545 
L 562.075153 150.423896 
L 564.242985 158.283636 
L 566.410817 147.010909 
L 568.578649 163.752168 
L 570.746482 152.596364 
L 572.914314 126.090629 
L 575.082146 168.704416 
L 577.249978 148.064318 
L 579.41781 165.127792 
L 581.585642 148.773147 
L 583.753475 159.472448 
L 585.921307 135.556364 
L 588.089139 144.436364 
L 590.256971 161.799545 
L 592.424803 148.516364 
L 594.592635 152.013506 
L 596.760468 143.866753 
L 598.9283 143.901818 
L 601.096132 169.101818 
L 603.263964 150.556364 
L 605.431796 150.324545 
L 607.599628 157.418182 
L 609.767461 155.834685 
L 611.935293 145.777343 
L 614.103125 159.829091 
L 616.270957 143.292727 
L 618.438789 147.840779 
L 620.606622 160.756364 
L 622.774454 158.560191 
L 624.942286 145.630227 
L 627.110118 141.87974 
L 629.27795 142.674545 
L 631.445782 148.701818 
L 633.613615 165.723896 
L 635.781447 125.652468 
L 637.949279 159.744793 
L 640.117111 137.616694 
L 642.284943 160.170718 
L 644.452775 145.804091 
L 646.620608 144.065455 
L 648.78844 149.860909 
L 650.956272 155.308636 
L 653.124104 157.46876 
L 655.291936 150.50756 
L 657.459768 161.22 
L 659.627601 146.151818 
L 661.795433 149.32 
L 663.963265 164.650909 
L 666.131097 146.012727 
L 668.298929 148.856364 
L 670.466761 143.686116 
L 672.634594 152.531858 
L 674.802426 138.829091 
L 676.970258 138.327955 
L 679.13809 148.377273 
L 681.305922 154.636364 
L 683.473754 151.756364 
L 685.641587 153.106364 
L 687.809419 168.580227 
L 689.977251 160.234773 
L 692.145083 153.029091 
L 694.312915 149.768182 
L 696.480747 162.345974 
L 698.64858 135.951818 
L 700.816412 159.713182 
L 702.984244 151.417403 
L 705.152076 144.661558 
L 707.319908 146.229091 
L 709.48774 153.582201 
L 711.655573 169.592727 
L 713.823405 150.741818 
L 715.991237 159.272727 
L 718.159069 155.331818 
L 720.326901 160.408636 
L 722.494733 159.52 
L 724.662566 152.410909 
L 726.830398 159.564156 
L 728.99823 153.029091 
L 731.166062 168.406364 
L 733.333894 160.447273 
L 735.501726 159.539318 
L 737.669559 178.374545 
L 739.837391 161.153766 
L 742.005223 159.829091 
L 744.173055 170.126699 
L 746.340887 158.371948 
L 748.508719 171.42 
L 750.676552 168.545455 
L 752.844384 155.834685 
L 755.012216 162.147273 
L 757.180048 157.546573 
L 759.34788 159.961558 
L 761.515712 164.549752 
L 763.683545 166.32 
L 765.851377 159.829091 
L 768.019209 158.530909 
L 770.187041 161.034545 
L 772.354873 162.610909 
L 774.522705 160.756364 
L 776.690538 165.525195 
L 778.85837 168.174545 
L 781.026202 157.047273 
L 783.194034 163.074545 
L 785.361866 159.564156 
L 787.529698 172.718182 
L 789.697531 170.956364 
L 791.865363 162.981818 
L 794.033195 164.372727 
L 796.201027 166.783636 
L 798.368859 170.385734 
L 800.536691 167.114805 
L 802.704524 169.52979 
L 804.872356 170.813706 
L 807.040188 174.665455 
L 809.20802 179.950909 
L 811.375852 179.765455 
L 813.543684 174.974545 
L 815.711517 173.552727 
L 817.879349 179.723306 
L 820.047181 178.56 
L 822.215013 179.950909 
L 824.382845 184.865455 
L 826.550677 182.547273 
L 828.71851 187.879091 
L 830.886342 187.461818 
L 833.054174 191.356364 
L 835.222006 188.177143 
L 839.55767 192.747273 
L 839.55767 192.747273 
" style="fill:none;stroke:#1f77b4;stroke-linecap:square;stroke-width:0.8;"/>
   </g>
   <g id="line2d_22">
    <path clip-path="url(#pe631831b88)" d="M 40.603125 152.547609 
L 877.603125 152.547609 
" style="fill:none;stroke:#000000;stroke-dasharray:2.96,1.28;stroke-dashoffset:0;stroke-width:0.8;"/>
   </g>
   <g id="patch_3">
    <path d="M 40.603125 203.04 
L 40.603125 7.2 
" style="fill:none;stroke:#000000;stroke-linecap:square;stroke-linejoin:miter;stroke-width:0.8;"/>
   </g>
   <g id="patch_4">
    <path d="M 40.603125 203.04 
L 877.603125 203.04 
" style="fill:none;stroke:#000000;stroke-linecap:square;stroke-linejoin:miter;stroke-width:0.8;"/>
   </g>
   <g id="legend_1">
    <g id="patch_5">
     <path d="M 811.35625 29.878125 
L 870.603125 29.878125 
Q 872.603125 29.878125 872.603125 27.878125 
L 872.603125 14.2 
Q 872.603125 12.2 870.603125 12.2 
L 811.35625 12.2 
Q 809.35625 12.2 809.35625 14.2 
L 809.35625 27.878125 
Q 809.35625 29.878125 811.35625 29.878125 
z
" style="fill:#ffffff;opacity:0.8;stroke:#cccccc;stroke-linejoin:miter;"/>
    </g>
    <g id="line2d_23">
     <path d="M 813.35625 20.298437 
L 833.35625 20.298437 
" style="fill:none;stroke:#000000;stroke-dasharray:2.96,1.28;stroke-dashoffset:0;stroke-width:0.8;"/>
    </g>
    <g id="line2d_24"/>
    <g id="text_23">
     <!-- Mean -->
     <g transform="translate(841.35625 23.798437)scale(0.1 -0.1)">
      <use xlink:href="#DejaVuSans-77"/>
      <use x="86.279297" xlink:href="#DejaVuSans-101"/>
      <use x="147.802734" xlink:href="#DejaVuSans-97"/>
      <use x="209.082031" xlink:href="#DejaVuSans-110"/>
     </g>
    </g>
   </g>
  </g>
 </g>
 <defs>
  <clipPath id="pe631831b88">
   <rect height="195.84" width="837" x="40.603125" y="7.2"/>
  </clipPath>
 </defs>
</svg>
