<?xml version="1.0" encoding="utf-8" standalone="no"?>
<!DOCTYPE svg PUBLIC "-//W3C//DTD SVG 1.1//EN"
  "http://www.w3.org/Graphics/SVG/1.1/DTD/svg11.dtd">
<!-- Created with matplotlib (https://matplotlib.org/) -->
<svg height="302.878125pt" version="1.1" viewBox="0 0 877.4875 302.878125" width="877.4875pt" xmlns="http://www.w3.org/2000/svg" xmlns:xlink="http://www.w3.org/1999/xlink">
 <metadata>
  <rdf:RDF xmlns:cc="http://creativecommons.org/ns#" xmlns:dc="http://purl.org/dc/elements/1.1/" xmlns:rdf="http://www.w3.org/1999/02/22-rdf-syntax-ns#">
   <cc:Work>
    <dc:type rdf:resource="http://purl.org/dc/dcmitype/StillImage"/>
    <dc:date>2021-03-14T22:04:47.006480</dc:date>
    <dc:format>image/svg+xml</dc:format>
    <dc:creator>
     <cc:Agent>
      <dc:title>Matplotlib v3.3.4, https://matplotlib.org/</dc:title>
     </cc:Agent>
    </dc:creator>
   </cc:Work>
  </rdf:RDF>
 </metadata>
 <defs>
  <style type="text/css">*{stroke-linecap:butt;stroke-linejoin:round;}</style>
 </defs>
 <g id="figure_1">
  <g id="patch_1">
   <path d="M 0 302.878125 
L 877.4875 302.878125 
L 877.4875 0 
L 0 0 
z
" style="fill:none;"/>
  </g>
  <g id="axes_1">
   <g id="patch_2">
    <path d="M 33.2875 279 
L 870.2875 279 
L 870.2875 7.2 
L 33.2875 7.2 
z
" style="fill:#ffffff;"/>
   </g>
   <g id="matplotlib.axis_1">
    <g id="xtick_1">
     <g id="line2d_1">
      <defs>
       <path d="M 0 0 
L 0 3.5 
" id="m99af7fa621" style="stroke:#000000;stroke-width:0.8;"/>
      </defs>
      <g>
       <use style="stroke:#000000;stroke-width:0.8;" x="71.332955" xlink:href="#m99af7fa621" y="279"/>
      </g>
     </g>
     <g id="text_1">
      <!-- 0 -->
      <g transform="translate(68.151705 293.598437)scale(0.1 -0.1)">
       <defs>
        <path d="M 31.78125 66.40625 
Q 24.171875 66.40625 20.328125 58.90625 
Q 16.5 51.421875 16.5 36.375 
Q 16.5 21.390625 20.328125 13.890625 
Q 24.171875 6.390625 31.78125 6.390625 
Q 39.453125 6.390625 43.28125 13.890625 
Q 47.125 21.390625 47.125 36.375 
Q 47.125 51.421875 43.28125 58.90625 
Q 39.453125 66.40625 31.78125 66.40625 
z
M 31.78125 74.21875 
Q 44.046875 74.21875 50.515625 64.515625 
Q 56.984375 54.828125 56.984375 36.375 
Q 56.984375 17.96875 50.515625 8.265625 
Q 44.046875 -1.421875 31.78125 -1.421875 
Q 19.53125 -1.421875 13.0625 8.265625 
Q 6.59375 17.96875 6.59375 36.375 
Q 6.59375 54.828125 13.0625 64.515625 
Q 19.53125 74.21875 31.78125 74.21875 
z
" id="DejaVuSans-48"/>
       </defs>
       <use xlink:href="#DejaVuSans-48"/>
      </g>
     </g>
    </g>
    <g id="xtick_2">
     <g id="line2d_2">
      <g>
       <use style="stroke:#000000;stroke-width:0.8;" x="235.321983" xlink:href="#m99af7fa621" y="279"/>
      </g>
     </g>
     <g id="text_2">
      <!-- 100 -->
      <g transform="translate(225.778233 293.598437)scale(0.1 -0.1)">
       <defs>
        <path d="M 12.40625 8.296875 
L 28.515625 8.296875 
L 28.515625 63.921875 
L 10.984375 60.40625 
L 10.984375 69.390625 
L 28.421875 72.90625 
L 38.28125 72.90625 
L 38.28125 8.296875 
L 54.390625 8.296875 
L 54.390625 0 
L 12.40625 0 
z
" id="DejaVuSans-49"/>
       </defs>
       <use xlink:href="#DejaVuSans-49"/>
       <use x="63.623047" xlink:href="#DejaVuSans-48"/>
       <use x="127.246094" xlink:href="#DejaVuSans-48"/>
      </g>
     </g>
    </g>
    <g id="xtick_3">
     <g id="line2d_3">
      <g>
       <use style="stroke:#000000;stroke-width:0.8;" x="399.311011" xlink:href="#m99af7fa621" y="279"/>
      </g>
     </g>
     <g id="text_3">
      <!-- 200 -->
      <g transform="translate(389.767261 293.598437)scale(0.1 -0.1)">
       <defs>
        <path d="M 19.1875 8.296875 
L 53.609375 8.296875 
L 53.609375 0 
L 7.328125 0 
L 7.328125 8.296875 
Q 12.9375 14.109375 22.625 23.890625 
Q 32.328125 33.6875 34.8125 36.53125 
Q 39.546875 41.84375 41.421875 45.53125 
Q 43.3125 49.21875 43.3125 52.78125 
Q 43.3125 58.59375 39.234375 62.25 
Q 35.15625 65.921875 28.609375 65.921875 
Q 23.96875 65.921875 18.8125 64.3125 
Q 13.671875 62.703125 7.8125 59.421875 
L 7.8125 69.390625 
Q 13.765625 71.78125 18.9375 73 
Q 24.125 74.21875 28.421875 74.21875 
Q 39.75 74.21875 46.484375 68.546875 
Q 53.21875 62.890625 53.21875 53.421875 
Q 53.21875 48.921875 51.53125 44.890625 
Q 49.859375 40.875 45.40625 35.40625 
Q 44.1875 33.984375 37.640625 27.21875 
Q 31.109375 20.453125 19.1875 8.296875 
z
" id="DejaVuSans-50"/>
       </defs>
       <use xlink:href="#DejaVuSans-50"/>
       <use x="63.623047" xlink:href="#DejaVuSans-48"/>
       <use x="127.246094" xlink:href="#DejaVuSans-48"/>
      </g>
     </g>
    </g>
    <g id="xtick_4">
     <g id="line2d_4">
      <g>
       <use style="stroke:#000000;stroke-width:0.8;" x="563.300039" xlink:href="#m99af7fa621" y="279"/>
      </g>
     </g>
     <g id="text_4">
      <!-- 300 -->
      <g transform="translate(553.756289 293.598437)scale(0.1 -0.1)">
       <defs>
        <path d="M 40.578125 39.3125 
Q 47.65625 37.796875 51.625 33 
Q 55.609375 28.21875 55.609375 21.1875 
Q 55.609375 10.40625 48.1875 4.484375 
Q 40.765625 -1.421875 27.09375 -1.421875 
Q 22.515625 -1.421875 17.65625 -0.515625 
Q 12.796875 0.390625 7.625 2.203125 
L 7.625 11.71875 
Q 11.71875 9.328125 16.59375 8.109375 
Q 21.484375 6.890625 26.8125 6.890625 
Q 36.078125 6.890625 40.9375 10.546875 
Q 45.796875 14.203125 45.796875 21.1875 
Q 45.796875 27.640625 41.28125 31.265625 
Q 36.765625 34.90625 28.71875 34.90625 
L 20.21875 34.90625 
L 20.21875 43.015625 
L 29.109375 43.015625 
Q 36.375 43.015625 40.234375 45.921875 
Q 44.09375 48.828125 44.09375 54.296875 
Q 44.09375 59.90625 40.109375 62.90625 
Q 36.140625 65.921875 28.71875 65.921875 
Q 24.65625 65.921875 20.015625 65.03125 
Q 15.375 64.15625 9.8125 62.3125 
L 9.8125 71.09375 
Q 15.4375 72.65625 20.34375 73.4375 
Q 25.25 74.21875 29.59375 74.21875 
Q 40.828125 74.21875 47.359375 69.109375 
Q 53.90625 64.015625 53.90625 55.328125 
Q 53.90625 49.265625 50.4375 45.09375 
Q 46.96875 40.921875 40.578125 39.3125 
z
" id="DejaVuSans-51"/>
       </defs>
       <use xlink:href="#DejaVuSans-51"/>
       <use x="63.623047" xlink:href="#DejaVuSans-48"/>
       <use x="127.246094" xlink:href="#DejaVuSans-48"/>
      </g>
     </g>
    </g>
    <g id="xtick_5">
     <g id="line2d_5">
      <g>
       <use style="stroke:#000000;stroke-width:0.8;" x="727.289067" xlink:href="#m99af7fa621" y="279"/>
      </g>
     </g>
     <g id="text_5">
      <!-- 400 -->
      <g transform="translate(717.745317 293.598437)scale(0.1 -0.1)">
       <defs>
        <path d="M 37.796875 64.3125 
L 12.890625 25.390625 
L 37.796875 25.390625 
z
M 35.203125 72.90625 
L 47.609375 72.90625 
L 47.609375 25.390625 
L 58.015625 25.390625 
L 58.015625 17.1875 
L 47.609375 17.1875 
L 47.609375 0 
L 37.796875 0 
L 37.796875 17.1875 
L 4.890625 17.1875 
L 4.890625 26.703125 
z
" id="DejaVuSans-52"/>
       </defs>
       <use xlink:href="#DejaVuSans-52"/>
       <use x="63.623047" xlink:href="#DejaVuSans-48"/>
       <use x="127.246094" xlink:href="#DejaVuSans-48"/>
      </g>
     </g>
    </g>
   </g>
   <g id="matplotlib.axis_2">
    <g id="ytick_1">
     <g id="line2d_6">
      <defs>
       <path d="M 0 0 
L -3.5 0 
" id="mba6f98a884" style="stroke:#000000;stroke-width:0.8;"/>
      </defs>
      <g>
       <use style="stroke:#000000;stroke-width:0.8;" x="33.2875" xlink:href="#mba6f98a884" y="266.934619"/>
      </g>
     </g>
     <g id="text_6">
      <!-- 0 -->
      <g transform="translate(19.925 270.733838)scale(0.1 -0.1)">
       <use xlink:href="#DejaVuSans-48"/>
      </g>
     </g>
    </g>
    <g id="ytick_2">
     <g id="line2d_7">
      <g>
       <use style="stroke:#000000;stroke-width:0.8;" x="33.2875" xlink:href="#mba6f98a884" y="230.789079"/>
      </g>
     </g>
     <g id="text_7">
      <!-- 50 -->
      <g transform="translate(13.5625 234.588298)scale(0.1 -0.1)">
       <defs>
        <path d="M 10.796875 72.90625 
L 49.515625 72.90625 
L 49.515625 64.59375 
L 19.828125 64.59375 
L 19.828125 46.734375 
Q 21.96875 47.46875 24.109375 47.828125 
Q 26.265625 48.1875 28.421875 48.1875 
Q 40.625 48.1875 47.75 41.5 
Q 54.890625 34.8125 54.890625 23.390625 
Q 54.890625 11.625 47.5625 5.09375 
Q 40.234375 -1.421875 26.90625 -1.421875 
Q 22.3125 -1.421875 17.546875 -0.640625 
Q 12.796875 0.140625 7.71875 1.703125 
L 7.71875 11.625 
Q 12.109375 9.234375 16.796875 8.0625 
Q 21.484375 6.890625 26.703125 6.890625 
Q 35.15625 6.890625 40.078125 11.328125 
Q 45.015625 15.765625 45.015625 23.390625 
Q 45.015625 31 40.078125 35.4375 
Q 35.15625 39.890625 26.703125 39.890625 
Q 22.75 39.890625 18.8125 39.015625 
Q 14.890625 38.140625 10.796875 36.28125 
z
" id="DejaVuSans-53"/>
       </defs>
       <use xlink:href="#DejaVuSans-53"/>
       <use x="63.623047" xlink:href="#DejaVuSans-48"/>
      </g>
     </g>
    </g>
    <g id="ytick_3">
     <g id="line2d_8">
      <g>
       <use style="stroke:#000000;stroke-width:0.8;" x="33.2875" xlink:href="#mba6f98a884" y="194.64354"/>
      </g>
     </g>
     <g id="text_8">
      <!-- 100 -->
      <g transform="translate(7.2 198.442758)scale(0.1 -0.1)">
       <use xlink:href="#DejaVuSans-49"/>
       <use x="63.623047" xlink:href="#DejaVuSans-48"/>
       <use x="127.246094" xlink:href="#DejaVuSans-48"/>
      </g>
     </g>
    </g>
    <g id="ytick_4">
     <g id="line2d_9">
      <g>
       <use style="stroke:#000000;stroke-width:0.8;" x="33.2875" xlink:href="#mba6f98a884" y="158.498"/>
      </g>
     </g>
     <g id="text_9">
      <!-- 150 -->
      <g transform="translate(7.2 162.297219)scale(0.1 -0.1)">
       <use xlink:href="#DejaVuSans-49"/>
       <use x="63.623047" xlink:href="#DejaVuSans-53"/>
       <use x="127.246094" xlink:href="#DejaVuSans-48"/>
      </g>
     </g>
    </g>
    <g id="ytick_5">
     <g id="line2d_10">
      <g>
       <use style="stroke:#000000;stroke-width:0.8;" x="33.2875" xlink:href="#mba6f98a884" y="122.35246"/>
      </g>
     </g>
     <g id="text_10">
      <!-- 200 -->
      <g transform="translate(7.2 126.151679)scale(0.1 -0.1)">
       <use xlink:href="#DejaVuSans-50"/>
       <use x="63.623047" xlink:href="#DejaVuSans-48"/>
       <use x="127.246094" xlink:href="#DejaVuSans-48"/>
      </g>
     </g>
    </g>
    <g id="ytick_6">
     <g id="line2d_11">
      <g>
       <use style="stroke:#000000;stroke-width:0.8;" x="33.2875" xlink:href="#mba6f98a884" y="86.206921"/>
      </g>
     </g>
     <g id="text_11">
      <!-- 250 -->
      <g transform="translate(7.2 90.006139)scale(0.1 -0.1)">
       <use xlink:href="#DejaVuSans-50"/>
       <use x="63.623047" xlink:href="#DejaVuSans-53"/>
       <use x="127.246094" xlink:href="#DejaVuSans-48"/>
      </g>
     </g>
    </g>
    <g id="ytick_7">
     <g id="line2d_12">
      <g>
       <use style="stroke:#000000;stroke-width:0.8;" x="33.2875" xlink:href="#mba6f98a884" y="50.061381"/>
      </g>
     </g>
     <g id="text_12">
      <!-- 300 -->
      <g transform="translate(7.2 53.8606)scale(0.1 -0.1)">
       <use xlink:href="#DejaVuSans-51"/>
       <use x="63.623047" xlink:href="#DejaVuSans-48"/>
       <use x="127.246094" xlink:href="#DejaVuSans-48"/>
      </g>
     </g>
    </g>
    <g id="ytick_8">
     <g id="line2d_13">
      <g>
       <use style="stroke:#000000;stroke-width:0.8;" x="33.2875" xlink:href="#mba6f98a884" y="13.915841"/>
      </g>
     </g>
     <g id="text_13">
      <!-- 350 -->
      <g transform="translate(7.2 17.71506)scale(0.1 -0.1)">
       <use xlink:href="#DejaVuSans-51"/>
       <use x="63.623047" xlink:href="#DejaVuSans-53"/>
       <use x="127.246094" xlink:href="#DejaVuSans-48"/>
      </g>
     </g>
    </g>
   </g>
   <g id="line2d_14">
    <path clip-path="url(#p92f08b2874)" d="M 71.332955 265.488797 
L 72.972845 265.344215 
L 74.612735 263.898394 
L 76.252625 263.464647 
L 77.892516 262.018825 
L 81.172296 259.994675 
L 82.812187 259.271764 
L 84.452077 258.404272 
L 86.091967 256.524703 
L 87.731857 254.9343 
L 89.371748 252.042657 
L 92.651528 251.175164 
L 94.291418 249.295596 
L 95.931309 247.994356 
L 97.571199 246.837699 
L 102.49087 247.705192 
L 104.13076 247.416027 
L 105.77065 246.548534 
L 107.410541 246.837699 
L 109.050431 249.006431 
L 110.690321 249.440178 
L 112.330212 250.163088 
L 113.970102 249.295596 
L 115.609992 248.717267 
L 117.249882 247.994356 
L 118.889773 247.994356 
L 120.529663 248.138938 
L 122.169553 247.416027 
L 123.809444 248.717267 
L 125.449334 250.307671 
L 127.089224 251.464328 
L 128.729114 252.187239 
L 130.369005 250.163088 
L 132.008895 248.861849 
L 133.648785 249.873924 
L 135.288676 249.873924 
L 136.928566 249.151013 
L 138.568456 248.861849 
L 140.208346 247.271445 
L 141.848237 246.693117 
L 143.488127 246.25937 
L 145.128017 246.982281 
L 146.767908 245.825624 
L 148.407798 246.25937 
L 150.047688 243.801473 
L 151.687578 242.933981 
L 153.327469 243.367727 
L 154.967359 245.681042 
L 156.607249 244.23522 
L 158.247139 244.090638 
L 159.88703 244.090638 
L 161.52692 240.476084 
L 163.16681 240.476084 
L 164.806701 240.18692 
L 166.446591 241.343577 
L 168.086481 240.042337 
L 169.726371 240.042337 
L 171.366262 237.873605 
L 173.006152 234.83738 
L 174.646042 231.51199 
L 176.285933 232.524065 
L 177.925823 231.801154 
L 179.565713 233.680722 
L 181.205603 232.379483 
L 182.845494 230.644497 
L 184.485384 230.789079 
L 186.125274 232.234901 
L 187.765165 232.379483 
L 189.405055 229.777004 
L 191.044945 231.801154 
L 192.684835 232.090319 
L 194.324726 230.933661 
L 195.964616 229.054093 
L 199.244397 229.343258 
L 200.884287 226.596197 
L 202.524177 225.150375 
L 204.164067 220.234582 
L 205.803958 217.053774 
L 207.443848 216.76461 
L 209.083738 213.150056 
L 210.723629 216.041699 
L 212.363519 208.234262 
L 214.003409 205.487201 
L 215.643299 203.607633 
L 217.28319 199.703915 
L 218.92308 195.221868 
L 220.56297 190.306075 
L 222.202861 188.571089 
L 223.842751 187.269849 
L 225.482641 183.366131 
L 227.122531 180.329906 
L 228.762422 176.715352 
L 230.402312 173.389962 
L 232.042202 167.317512 
L 233.682092 161.82339 
L 235.321983 163.269211 
L 236.961873 161.534225 
L 238.601763 157.919671 
L 240.241654 155.461775 
L 241.881544 148.955577 
L 243.521434 145.77477 
L 245.161324 139.123991 
L 246.801215 140.280648 
L 248.441105 140.136066 
L 250.080995 130.593643 
L 251.720886 127.557418 
L 253.360776 122.786207 
L 256.640556 110.496723 
L 258.280447 102.400122 
L 259.920337 98.20724 
L 261.560227 99.074733 
L 263.200118 96.327672 
L 266.479898 85.050263 
L 268.119788 78.688648 
L 269.759679 74.495766 
L 271.399569 72.76078 
L 273.039459 75.218677 
L 276.31924 62.350864 
L 277.95913 57.868817 
L 279.59902 64.953343 
L 281.238911 62.0617 
L 282.878801 60.182132 
L 284.518691 59.170057 
L 286.158582 58.73631 
L 287.798472 60.615879 
L 289.438362 56.856742 
L 292.718143 46.880573 
L 294.358033 46.591409 
L 297.637813 28.952386 
L 299.277704 28.374057 
L 300.917594 24.759503 
L 302.557484 19.554545 
L 304.197375 24.036592 
L 305.837265 27.2174 
L 307.477155 36.181494 
L 309.117045 34.301926 
L 310.756936 34.446508 
L 312.396826 29.675297 
L 314.036716 30.253625 
L 315.676607 34.157343 
L 317.316497 27.940311 
L 318.956387 34.012761 
L 320.596277 33.289851 
L 322.236168 38.494808 
L 323.876058 41.675616 
L 325.515948 41.386451 
L 327.155839 36.61524 
L 328.795729 42.398527 
L 332.075509 34.735672 
L 333.7154 33.723597 
L 335.35529 39.651466 
L 336.99518 39.796048 
L 338.635071 38.061062 
L 340.274961 37.482733 
L 341.914851 38.928555 
L 343.554741 35.458583 
L 345.194632 36.326076 
L 346.834522 30.109043 
L 348.474412 34.301926 
L 350.114303 37.048987 
L 351.754193 37.91648 
L 353.394083 38.63939 
L 355.033973 41.097287 
L 356.673864 38.928555 
L 358.313754 38.63939 
L 359.953644 40.952705 
L 361.593534 38.494808 
L 364.873315 47.458902 
L 366.513205 53.820517 
L 368.153096 50.350545 
L 371.432876 54.254264 
L 373.072766 57.435071 
L 374.712657 63.073775 
L 376.352547 66.399165 
L 377.992437 65.531672 
L 379.632328 71.45954 
L 381.272218 70.73663 
L 382.912108 66.688329 
L 384.551998 64.230432 
L 386.191889 67.122076 
L 387.831779 73.339108 
L 389.471669 76.230752 
L 391.11156 79.411559 
L 392.75145 83.893606 
L 394.39134 85.917756 
L 396.03123 84.761099 
L 397.671121 81.435709 
L 399.311011 80.712799 
L 400.950901 82.15862 
L 402.590792 87.652742 
L 404.230682 83.604442 
L 405.870572 85.339428 
L 407.510462 85.773174 
L 409.150353 92.713118 
L 410.790243 96.761418 
L 412.430133 95.604761 
L 414.070024 96.327672 
L 415.709914 91.267296 
L 417.349804 88.664817 
L 418.989694 95.749343 
L 420.629585 95.893925 
L 422.269475 98.496404 
L 423.909365 101.821794 
L 425.549255 101.098883 
L 427.189146 108.327991 
L 428.829036 107.60508 
L 430.468926 109.773812 
L 432.108817 109.773812 
L 435.388597 111.797963 
L 437.028487 111.65338 
L 438.668378 116.424592 
L 440.308268 114.400442 
L 441.948158 116.28001 
L 443.588049 115.267934 
L 445.227939 117.147503 
L 446.867829 120.32831 
L 448.507719 117.725831 
L 450.14761 113.822113 
L 451.7875 116.713756 
L 453.42739 118.30416 
L 455.067281 114.97877 
L 459.986951 109.773812 
L 461.626842 115.123352 
L 463.266732 116.135427 
L 464.906622 116.28001 
L 466.546513 118.737906 
L 468.186403 113.532949 
L 469.826293 113.388366 
L 471.466183 108.617155 
L 473.106074 109.050902 
L 474.745964 106.737587 
L 478.025745 98.785568 
L 479.665635 97.484329 
L 481.305525 96.761418 
L 482.945415 95.315597 
L 484.585306 94.303521 
L 486.225196 96.616836 
L 487.865086 99.942226 
L 489.504976 101.243465 
L 491.144867 101.966376 
L 492.784757 100.665136 
L 494.424647 94.014357 
L 496.064538 88.520235 
L 500.984208 77.676573 
L 502.624099 80.568216 
L 504.263989 76.230752 
L 505.903879 74.351184 
L 507.54377 72.037869 
L 509.18366 75.941587 
L 510.82355 76.953662 
L 512.46344 83.604442 
L 514.103331 83.749024 
L 515.743221 80.13447 
L 517.383111 80.568216 
L 519.023002 76.519916 
L 520.662892 70.013719 
L 523.942672 66.399165 
L 525.582563 63.796686 
L 527.222453 66.977493 
L 528.862343 70.447465 
L 530.502234 66.110001 
L 532.142124 64.519597 
L 533.782014 65.242508 
L 535.421904 71.604123 
L 537.061795 69.001644 
L 538.701685 65.965418 
L 540.341575 68.567897 
L 541.981466 69.869137 
L 543.621356 74.351184 
L 545.261246 76.086169 
L 546.901136 74.78493 
L 548.541027 73.628273 
L 550.180917 71.45954 
L 551.820807 72.327033 
L 553.460697 76.664498 
L 555.100588 76.086169 
L 556.740478 84.327353 
L 558.380368 90.544385 
L 560.020259 96.038507 
L 561.660149 99.219315 
L 563.300039 100.23139 
L 564.939929 94.303521 
L 566.57982 99.653061 
L 568.21971 99.653061 
L 571.499491 107.171334 
L 573.139381 107.026751 
L 574.779271 104.858019 
L 576.419161 105.58093 
L 578.059052 110.352141 
L 579.698942 117.870413 
L 581.338832 115.990845 
L 582.978723 121.918714 
L 584.618613 123.364535 
L 586.258503 120.762056 
L 587.898393 120.617474 
L 589.538284 121.484967 
L 591.178174 122.641625 
L 592.818064 129.581568 
L 594.457955 129.436986 
L 596.097845 126.545343 
L 597.737735 129.436986 
L 599.377625 129.292404 
L 601.017516 128.569493 
L 602.657406 129.72615 
L 604.297296 133.196122 
L 605.937187 139.123991 
L 607.577077 139.123991 
L 609.216967 138.545662 
L 610.856857 135.654019 
L 612.496748 136.666094 
L 615.776528 127.702 
L 617.416418 131.461136 
L 619.056309 130.882808 
L 620.696199 131.02739 
L 622.336089 133.340704 
L 623.97598 136.810676 
L 625.61587 137.822751 
L 627.25576 131.461136 
L 628.89565 131.894883 
L 630.535541 132.473211 
L 632.175431 132.762376 
L 633.815321 134.497362 
L 635.455212 139.413155 
L 637.095102 139.413155 
L 638.734992 142.304798 
L 640.374882 148.955577 
L 642.014773 151.702638 
L 643.654663 155.606357 
L 645.294553 164.425868 
L 648.574334 178.450338 
L 651.854114 189.583164 
L 653.494005 196.66769 
L 656.773785 206.788441 
L 658.413676 210.836741 
L 661.693456 217.342938 
L 664.973237 222.403314 
L 668.253017 226.451614 
L 669.892908 228.764929 
L 671.532798 230.789079 
L 676.452469 235.126544 
L 678.092359 237.006112 
L 679.732249 238.018187 
L 681.372139 239.897755 
L 683.01203 241.198995 
L 684.65192 241.777323 
L 686.29181 243.512309 
L 687.931701 244.813549 
L 689.571591 246.693117 
L 691.211481 248.861849 
L 692.851371 250.018506 
L 697.771042 251.753492 
L 699.410933 251.753492 
L 701.050823 252.042657 
L 702.690713 253.343896 
L 704.330603 254.066807 
L 705.970494 255.223464 
L 707.610384 255.801793 
L 709.250274 256.090957 
L 712.530055 257.247614 
L 714.169945 257.536779 
L 715.809835 258.548854 
L 719.089616 258.548854 
L 722.369397 259.127182 
L 724.009287 259.705511 
L 725.649177 259.994675 
L 728.928958 259.994675 
L 730.568848 260.862168 
L 735.488519 260.862168 
L 738.768299 261.440497 
L 742.04808 262.30799 
L 743.68797 262.30799 
L 745.327861 262.597154 
L 746.967751 262.597154 
L 748.607641 262.886318 
L 750.247531 262.886318 
L 753.527312 263.464647 
L 755.167202 263.609229 
L 766.646434 263.609229 
L 768.286324 263.898394 
L 769.926215 263.898394 
L 771.566105 264.042976 
L 773.205995 264.042976 
L 774.845886 264.33214 
L 778.125666 264.33214 
L 779.765556 264.621304 
L 783.045337 264.621304 
L 786.325118 265.199633 
L 787.965008 265.777962 
L 791.244788 266.067126 
L 792.884679 266.067126 
L 794.524569 266.645455 
L 832.242045 266.645455 
L 832.242045 266.645455 
" style="fill:none;stroke:#1f77b4;stroke-linecap:square;stroke-width:1.5;"/>
   </g>
   <g id="patch_3">
    <path d="M 33.2875 279 
L 33.2875 7.2 
" style="fill:none;stroke:#000000;stroke-linecap:square;stroke-linejoin:miter;stroke-width:0.8;"/>
   </g>
   <g id="patch_4">
    <path d="M 870.2875 279 
L 870.2875 7.2 
" style="fill:none;stroke:#000000;stroke-linecap:square;stroke-linejoin:miter;stroke-width:0.8;"/>
   </g>
   <g id="patch_5">
    <path d="M 33.2875 279 
L 870.2875 279 
" style="fill:none;stroke:#000000;stroke-linecap:square;stroke-linejoin:miter;stroke-width:0.8;"/>
   </g>
   <g id="patch_6">
    <path d="M 33.2875 7.2 
L 870.2875 7.2 
" style="fill:none;stroke:#000000;stroke-linecap:square;stroke-linejoin:miter;stroke-width:0.8;"/>
   </g>
  </g>
 </g>
 <defs>
  <clipPath id="p92f08b2874">
   <rect height="271.8" width="837" x="33.2875" y="7.2"/>
  </clipPath>
 </defs>
</svg>
