<?xml version="1.0" encoding="utf-8" standalone="no"?>
<!DOCTYPE svg PUBLIC "-//W3C//DTD SVG 1.1//EN"
  "http://www.w3.org/Graphics/SVG/1.1/DTD/svg11.dtd">
<!-- Created with matplotlib (https://matplotlib.org/) -->
<svg height="329.18125pt" version="1.1" viewBox="0 0 884.803125 329.18125" width="884.803125pt" xmlns="http://www.w3.org/2000/svg" xmlns:xlink="http://www.w3.org/1999/xlink">
 <metadata>
  <rdf:RDF xmlns:cc="http://creativecommons.org/ns#" xmlns:dc="http://purl.org/dc/elements/1.1/" xmlns:rdf="http://www.w3.org/1999/02/22-rdf-syntax-ns#">
   <cc:Work>
    <dc:type rdf:resource="http://purl.org/dc/dcmitype/StillImage"/>
    <dc:date>2021-03-21T00:38:11.978136</dc:date>
    <dc:format>image/svg+xml</dc:format>
    <dc:creator>
     <cc:Agent>
      <dc:title>Matplotlib v3.3.4, https://matplotlib.org/</dc:title>
     </cc:Agent>
    </dc:creator>
   </cc:Work>
  </rdf:RDF>
 </metadata>
 <defs>
  <style type="text/css">*{stroke-linecap:butt;stroke-linejoin:round;}</style>
 </defs>
 <g id="figure_1">
  <g id="patch_1">
   <path d="M 0 329.18125 
L 884.803125 329.18125 
L 884.803125 0 
L 0 0 
z
" style="fill:none;"/>
  </g>
  <g id="axes_1">
   <g id="patch_2">
    <path d="M 40.603125 252 
L 877.603125 252 
L 877.603125 7.2 
L 40.603125 7.2 
z
" style="fill:#ffffff;"/>
   </g>
   <g id="PolyCollection_1">
    <path clip-path="url(#peea0d53f03)" d="M 78.64858 220.009091 
L 78.64858 230.440909 
L 78.64858 220.009091 
L 78.64858 220.009091 
z
" style="fill:#1f77b4;fill-opacity:0.2;stroke:#1f77b4;stroke-opacity:0.2;"/>
    <path clip-path="url(#peea0d53f03)" d="M 82.984244 157.418182 
L 82.984244 174.804545 
L 82.984244 157.418182 
L 82.984244 157.418182 
z
" style="fill:#1f77b4;fill-opacity:0.2;stroke:#1f77b4;stroke-opacity:0.2;"/>
    <path clip-path="url(#peea0d53f03)" d="M 87.319908 112.213636 
L 87.319908 136.554545 
L 89.48774 237.395455 
L 91.655573 233.918182 
L 93.823405 108.736364 
L 95.991237 220.009091 
L 98.159069 201.463636 
L 100.326901 220.009091 
L 102.494733 187.554545 
L 104.662566 185.236364 
L 106.830398 153.940909 
L 108.99823 177.73125 
L 111.166062 216.531818 
L 113.333894 221.805682 
L 113.333894 153.940909 
L 113.333894 153.940909 
L 111.166062 195.668182 
L 108.99823 164.372727 
L 106.830398 94.827273 
L 104.662566 171.327273 
L 102.494733 41.52358 
L 100.326901 115.690909 
L 98.159069 101.781818 
L 95.991237 122.645455 
L 93.823405 63.531818 
L 91.655573 49.622727 
L 89.48774 230.440909 
L 87.319908 112.213636 
z
" style="fill:#1f77b4;fill-opacity:0.2;stroke:#1f77b4;stroke-opacity:0.2;"/>
    <path clip-path="url(#peea0d53f03)" d="M 122.005223 119.168182 
L 122.005223 237.395455 
L 124.173055 233.918182 
L 124.173055 18.327273 
L 124.173055 18.327273 
L 122.005223 119.168182 
z
" style="fill:#1f77b4;fill-opacity:0.2;stroke:#1f77b4;stroke-opacity:0.2;"/>
    <path clip-path="url(#peea0d53f03)" d="M 135.012216 164.372727 
L 135.012216 171.327273 
L 137.180048 230.440909 
L 139.34788 232.266477 
L 141.515712 230.440909 
L 141.515712 164.372727 
L 141.515712 164.372727 
L 139.34788 220.559659 
L 137.180048 122.645455 
L 135.012216 164.372727 
z
" style="fill:#1f77b4;fill-opacity:0.2;stroke:#1f77b4;stroke-opacity:0.2;"/>
    <path clip-path="url(#peea0d53f03)" d="M 145.851377 115.690909 
L 145.851377 213.054545 
L 145.851377 115.690909 
L 145.851377 115.690909 
z
" style="fill:#1f77b4;fill-opacity:0.2;stroke:#1f77b4;stroke-opacity:0.2;"/>
    <path clip-path="url(#peea0d53f03)" d="M 156.690538 127.861364 
L 156.690538 237.395455 
L 158.85837 233.918182 
L 158.85837 70.486364 
L 158.85837 70.486364 
L 156.690538 127.861364 
z
" style="fill:#1f77b4;fill-opacity:0.2;stroke:#1f77b4;stroke-opacity:0.2;"/>
    <path clip-path="url(#peea0d53f03)" d="M 163.194034 178.281818 
L 163.194034 220.009091 
L 165.361866 230.440909 
L 165.361866 188.713636 
L 165.361866 188.713636 
L 163.194034 178.281818 
z
" style="fill:#1f77b4;fill-opacity:0.2;stroke:#1f77b4;stroke-opacity:0.2;"/>
    <path clip-path="url(#peea0d53f03)" d="M 169.697531 197.406818 
L 169.697531 223.486364 
L 171.865363 216.531818 
L 171.865363 181.759091 
L 171.865363 181.759091 
L 169.697531 197.406818 
z
" style="fill:#1f77b4;fill-opacity:0.2;stroke:#1f77b4;stroke-opacity:0.2;"/>
    <path clip-path="url(#peea0d53f03)" d="M 176.201027 101.781818 
L 176.201027 223.486364 
L 178.368859 219.313636 
L 178.368859 191.495455 
L 178.368859 191.495455 
L 176.201027 101.781818 
z
" style="fill:#1f77b4;fill-opacity:0.2;stroke:#1f77b4;stroke-opacity:0.2;"/>
    <path clip-path="url(#peea0d53f03)" d="M 182.704524 138.481534 
L 182.704524 203.23125 
L 184.872356 237.395455 
L 187.040188 233.918182 
L 191.375852 230.440909 
L 193.543684 87.872727 
L 195.711517 222.327273 
L 197.879349 210.620455 
L 200.047181 220.009091 
L 202.215013 204.361364 
L 202.215013 73.094318 
L 202.215013 73.094318 
L 200.047181 171.327273 
L 197.879349 120.0375 
L 195.711517 174.804545 
L 193.543684 73.963636 
L 191.375852 211.728835 
L 187.040188 181.759091 
L 184.872356 167.85 
L 182.704524 138.481534 
z
" style="fill:#1f77b4;fill-opacity:0.2;stroke:#1f77b4;stroke-opacity:0.2;"/>
    <path clip-path="url(#peea0d53f03)" d="M 206.550677 156.461932 
L 206.550677 228.789205 
L 208.71851 228.702273 
L 210.886342 215.836364 
L 213.054174 209.330966 
L 215.222006 218.518831 
L 215.222006 153.170942 
L 215.222006 153.170942 
L 213.054174 142.784659 
L 210.886342 139.301591 
L 208.71851 151.702415 
L 206.550677 156.461932 
z
" style="fill:#1f77b4;fill-opacity:0.2;stroke:#1f77b4;stroke-opacity:0.2;"/>
    <path clip-path="url(#peea0d53f03)" d="M 219.55767 190.452273 
L 219.55767 232.223011 
L 221.725503 226.963636 
L 223.893335 226.963636 
L 226.061167 211.849919 
L 228.228999 225.225 
L 230.396831 237.395455 
L 232.564663 220.009091 
L 234.732496 226.992614 
L 236.900328 220.009091 
L 239.06816 213.923864 
L 241.235992 220.009091 
L 243.403824 208.273295 
L 245.571656 233.918182 
L 247.739489 233.918182 
L 249.907321 225.268466 
L 252.075153 222.095455 
L 254.242985 211.820114 
L 256.410817 221.796023 
L 258.578649 209.751136 
L 260.746482 204.92642 
L 262.914314 206.1 
L 265.082146 212.967614 
L 267.249978 229.726136 
L 269.41781 218.724432 
L 271.585642 200.471165 
L 273.753475 206.394231 
L 275.921307 209.881534 
L 278.089139 226.815852 
L 280.256971 202.970455 
L 282.424803 223.819602 
L 284.592635 222.316128 
L 286.760468 218.574716 
L 288.9283 210.520149 
L 291.096132 218.597727 
L 293.263964 212.489489 
L 295.431796 194.349716 
L 297.599628 214.546875 
L 299.767461 204.692791 
L 301.935293 216.079773 
L 304.103125 210.546562 
L 306.270957 185.267045 
L 308.438789 200.967071 
L 310.606622 206.732231 
L 312.774454 193.44139 
L 314.942286 203.575355 
L 317.110118 213.832356 
L 319.27795 201.768528 
L 321.445782 204.039205 
L 323.613615 205.625497 
L 325.781447 210.10973 
L 327.949279 188.813608 
L 330.117111 202.094927 
L 332.284943 172.561705 
L 334.452775 191.597375 
L 336.620608 209.751136 
L 338.78844 206.815212 
L 340.956272 202.070899 
L 343.124104 184.210568 
L 345.291936 204.105398 
L 347.459768 200.356061 
L 349.627601 205.000124 
L 351.795433 194.934477 
L 353.963265 201.246307 
L 356.131097 200.286907 
L 358.298929 186.690057 
L 360.466761 202.4875 
L 362.634594 203.257708 
L 364.802426 215.698295 
L 366.970258 204.241832 
L 369.13809 210.816996 
L 371.305922 204.739938 
L 373.473754 203.17177 
L 375.641587 202.061622 
L 377.809419 208.642756 
L 379.977251 203.910899 
L 382.145083 193.140472 
L 384.312915 196.477316 
L 386.480747 204.520739 
L 388.64858 192.989595 
L 390.816412 212.063523 
L 392.984244 209.612045 
L 395.152076 210.722505 
L 397.319908 213.683932 
L 399.48774 203.729132 
L 401.655573 219.249886 
L 403.823405 194.995161 
L 405.991237 209.256712 
L 408.159069 223.794972 
L 410.326901 209.815191 
L 412.494733 184.615422 
L 414.662566 200.536364 
L 416.830398 207.497864 
L 418.99823 206.983807 
L 421.166062 193.723082 
L 423.333894 215.284681 
L 425.501726 200.922341 
L 427.669559 200.138961 
L 429.837391 208.51875 
L 432.005223 205.071937 
L 434.173055 208.88577 
L 436.340887 199.575 
L 438.508719 214.595913 
L 440.676552 209.330203 
L 442.844384 206.117386 
L 445.012216 224.990953 
L 447.180048 216.053693 
L 449.34788 211.240316 
L 451.515712 208.253977 
L 453.683545 216.723068 
L 455.851377 205.467769 
L 458.019209 222.840584 
L 460.187041 203.068253 
L 462.354873 202.587311 
L 464.522705 223.486364 
L 466.690538 205.448011 
L 468.85837 204.665625 
L 471.026202 200.933766 
L 473.194034 204.426562 
L 475.361866 212.80679 
L 477.529698 193.935341 
L 479.697531 210.174205 
L 481.865363 216.553551 
L 484.033195 202.397495 
L 486.201027 216.247314 
L 488.368859 209.577273 
L 490.536691 206.12608 
L 492.704524 220.439175 
L 494.872356 209.353734 
L 497.040188 219.861307 
L 499.20802 199.834222 
L 501.375852 209.501207 
L 503.543684 204.234917 
L 505.711517 211.78679 
L 507.879349 189.430824 
L 510.047181 203.627273 
L 512.215013 207.518075 
L 514.382845 201.478125 
L 516.550677 202.390909 
L 518.71851 220.530682 
L 520.886342 210.961972 
L 523.054174 213.717401 
L 525.222006 211.150739 
L 527.389838 221.953202 
L 529.55767 210.369886 
L 531.725503 216.3 
L 533.893335 196.85625 
L 536.061167 189.175748 
L 538.228999 204.361364 
L 540.396831 205.281818 
L 542.564663 224.364375 
L 544.732496 195.875481 
L 546.900328 205.795739 
L 549.06816 209.794602 
L 551.235992 206.110227 
L 553.403824 218.965909 
L 555.571656 212.19392 
L 557.739489 213.58951 
L 559.907321 218.601882 
L 562.075153 207.602679 
L 564.242985 215.189205 
L 566.410817 203.103409 
L 568.578649 221.781163 
L 570.746482 214.967045 
L 572.914314 199.56674 
L 575.082146 225.97013 
L 577.249978 201.992472 
L 579.41781 215.058117 
L 581.585642 203.084135 
L 583.753475 216.150656 
L 585.921307 194.169886 
L 588.089139 197.470568 
L 590.256971 213.087145 
L 592.424803 208.494972 
L 594.592635 210.254099 
L 596.760468 200.921347 
L 598.9283 196.997727 
L 601.096132 229.658523 
L 603.263964 209.588864 
L 605.431796 203.064631 
L 607.599628 207.508295 
L 609.767461 210.814379 
L 611.935293 200.255507 
L 614.103125 214.404058 
L 616.270957 196.271875 
L 618.438789 195.171429 
L 620.606622 209.29233 
L 622.774454 211.704815 
L 624.942286 202.633594 
L 627.110118 202.125974 
L 629.27795 206.478774 
L 631.445782 213.796364 
L 633.613615 218.400852 
L 635.781447 190.684091 
L 637.949279 208.96875 
L 640.117111 183.580708 
L 642.284943 214.738278 
L 644.452775 199.366406 
L 646.620608 195.345292 
L 648.78844 206.310085 
L 650.956272 211.033381 
L 653.124104 205.491477 
L 655.291936 198.605562 
L 657.459768 213.525426 
L 659.627601 200.894957 
L 661.795433 200.913068 
L 663.963265 214.213636 
L 666.131097 202.383665 
L 668.298929 205.25483 
L 670.466761 198.011389 
L 672.634594 206.640489 
L 674.802426 196.547727 
L 676.970258 196.776562 
L 679.13809 202.540142 
L 681.305922 213.871705 
L 683.473754 207.025568 
L 685.641587 206.929474 
L 687.809419 222.866974 
L 689.977251 217.113175 
L 692.145083 204.003977 
L 694.312915 200.471165 
L 696.480747 216.548377 
L 698.64858 209.439631 
L 700.816412 217.526101 
L 702.984244 210.763271 
L 705.152076 197.288839 
L 707.319908 203.801136 
L 709.48774 204.393391 
L 711.655573 220.321023 
L 713.823405 208.771705 
L 715.991237 218.397955 
L 718.159069 208.221136 
L 720.326901 226.116051 
L 722.494733 214.049432 
L 724.662566 215.158295 
L 726.830398 214.085308 
L 728.99823 206.496023 
L 731.166062 218.892017 
L 733.333894 220.269886 
L 735.501726 211.430007 
L 737.669559 232.208523 
L 739.837391 214.544805 
L 742.005223 222.508381 
L 744.173055 219.661364 
L 746.340887 210.229261 
L 748.508719 223.348722 
L 750.676552 222.790909 
L 752.844384 209.450219 
L 755.012216 217.140341 
L 757.180048 214.512325 
L 759.34788 211.576705 
L 761.515712 220.886312 
L 763.683545 218.812107 
L 765.851377 214.394744 
L 768.019209 220.44375 
L 770.187041 211.150739 
L 772.354873 209.612045 
L 774.522705 215.247159 
L 776.690538 216.93543 
L 778.85837 226.123295 
L 781.026202 209.432386 
L 783.194034 217.140341 
L 785.361866 214.048052 
L 787.529698 225.242386 
L 789.697531 222.646023 
L 791.865363 209.345455 
L 794.033195 214.810568 
L 796.201027 214.720739 
L 798.368859 217.882605 
L 800.536691 222.281737 
L 802.704524 220.276573 
L 804.872356 219.4875 
L 807.040188 222.0375 
L 809.20802 231.484091 
L 811.375852 228.854403 
L 813.543684 221.177841 
L 815.711517 219.878693 
L 817.879349 227.129597 
L 820.047181 225.920455 
L 822.215013 228.702273 
L 824.382845 234.690909 
L 826.550677 230.455398 
L 828.71851 236.319673 
L 830.886342 236.7 
L 833.054174 240.177273 
L 835.222006 235.930032 
L 839.55767 240.872727 
L 839.55767 237.395455 
L 839.55767 237.395455 
L 835.222006 231.434416 
L 833.054174 234.248523 
L 830.886342 228.354545 
L 828.71851 228.908736 
L 826.550677 222.464915 
L 824.382845 225.031818 
L 822.215013 218.783352 
L 820.047181 217.209886 
L 817.879349 216.199897 
L 815.711517 209.577273 
L 813.543684 212.465341 
L 811.375852 213.894886 
L 809.20802 211.959205 
L 807.040188 207.79517 
L 804.872356 202.482299 
L 802.704524 200.342439 
L 800.536691 194.153084 
L 798.368859 203.819712 
L 796.201027 198.121591 
L 794.033195 193.912159 
L 791.865363 193.547045 
L 789.697531 202.028693 
L 787.529698 200.884091 
L 785.361866 175.798052 
L 783.194034 187.540057 
L 781.026202 181.942614 
L 778.85837 192.669034 
L 776.690538 190.731696 
L 774.522705 183.46875 
L 772.354873 192.753068 
L 770.187041 184.010625 
L 768.019209 173.01375 
L 765.851377 182.338636 
L 763.683545 193.909484 
L 761.515712 188.089308 
L 759.34788 181.734253 
L 757.180048 177.606425 
L 755.012216 179.716193 
L 752.844384 179.859965 
L 750.676552 190.8 
L 748.508719 198.55142 
L 746.340887 181.746672 
L 744.173055 201.451435 
L 742.005223 180.143608 
L 739.837391 183.982062 
L 737.669559 211.895455 
L 735.501726 174.690447 
L 733.333894 161.79375 
L 731.166062 197.298153 
L 728.99823 173.109375 
L 726.830398 173.680641 
L 724.662566 160.36517 
L 722.494733 179.035227 
L 720.326901 168.447656 
L 718.159069 175.134886 
L 715.991237 174.758182 
L 713.823405 157.922386 
L 711.655573 200.945455 
L 709.48774 173.939803 
L 707.319908 160.600852 
L 705.152076 155.474635 
L 702.984244 158.883604 
L 700.816412 181.954687 
L 698.64858 134.786932 
L 696.480747 187.140584 
L 694.312915 167.819574 
L 692.145083 173.442614 
L 689.977251 179.232635 
L 687.809419 193.690483 
L 685.641587 169.139489 
L 683.473754 161.330114 
L 681.305922 157.041477 
L 679.13809 155.614347 
L 676.970258 146.437607 
L 674.802426 143.488636 
L 672.634594 169.244689 
L 670.466761 155.865263 
L 668.298929 162.595455 
L 666.131097 150.172415 
L 663.963265 192.741477 
L 661.795433 166.652273 
L 659.627601 151.984943 
L 657.459768 183.178977 
L 655.291936 166.614653 
L 653.124104 182.134478 
L 650.956272 172.700071 
L 648.78844 172.029972 
L 646.620608 157.96875 
L 644.452775 164.495881 
L 642.284943 178.977273 
L 640.117111 152.131147 
L 637.949279 185.14548 
L 635.781447 114.014367 
L 633.613615 193.420373 
L 631.445782 154.734886 
L 629.27795 125.725325 
L 627.110118 146.2847 
L 624.942286 151.767614 
L 622.774454 175.289533 
L 620.606622 188.491477 
L 618.438789 169.327841 
L 616.270957 158.456534 
L 614.103125 178.319075 
L 611.935293 156.348252 
L 609.767461 178.014336 
L 607.599628 182.006847 
L 605.431796 168.415057 
L 603.263964 162.81375 
L 601.096132 186.31906 
L 598.9283 150.141477 
L 596.760468 143.800933 
L 594.592635 160.62224 
L 592.424803 159.343722 
L 590.256971 188.626705 
L 588.089139 155.326023 
L 585.921307 132.928977 
L 583.753475 179.184572 
L 581.585642 156.268007 
L 579.41781 189.84375 
L 577.249978 157.635511 
L 575.082146 182.889205 
L 572.914314 90.407124 
L 570.746482 153.6975 
L 568.578649 182.661844 
L 566.410817 156.988636 
L 564.242985 171.78125 
L 562.075153 162.975609 
L 559.907321 180.846307 
L 557.739489 150.142657 
L 555.571656 186.444716 
L 553.403824 188.620017 
L 551.235992 178.690909 
L 549.06816 161.225795 
L 546.900328 171.904748 
L 544.732496 117.516477 
L 542.564663 202.770511 
L 540.396831 169.65 
L 538.228999 96.891903 
L 536.061167 146.48765 
L 533.893335 144.948295 
L 531.725503 162.865909 
L 529.55767 174.236932 
L 527.389838 194.237758 
L 525.222006 159.98267 
L 523.054174 174.32642 
L 520.886342 166.713677 
L 518.71851 171.970568 
L 516.550677 136.66321 
L 514.382845 152.665909 
L 512.215013 182.057919 
L 510.047181 166.734375 
L 507.879349 133.495632 
L 505.711517 175.673864 
L 503.543684 154.960382 
L 501.375852 156.152237 
L 499.20802 106.008042 
L 497.040188 179.220682 
L 494.872356 179.144927 
L 492.704524 188.942404 
L 490.536691 168.071676 
L 488.368859 179.553196 
L 486.201027 183.576756 
L 484.033195 156.61999 
L 481.865363 203.263849 
L 479.697531 180.443523 
L 477.529698 150.452045 
L 475.361866 173.726591 
L 473.194034 139.124467 
L 471.026202 161.351847 
L 468.85837 146.631392 
L 466.690538 176.219602 
L 464.522705 179.238068 
L 462.354873 168.638826 
L 460.187041 170.778516 
L 458.019209 197.456494 
L 455.851377 173.17655 
L 453.683545 191.321591 
L 451.515712 174.572727 
L 449.34788 181.456719 
L 447.180048 188.713636 
L 445.012216 147.033173 
L 442.844384 177.519716 
L 440.676552 167.236902 
L 438.508719 191.609135 
L 436.340887 124.251136 
L 434.173055 130.809143 
L 432.005223 181.895158 
L 429.837391 153.081818 
L 427.669559 161.802029 
L 425.501726 142.525023 
L 423.333894 192.672378 
L 421.166062 157.762287 
L 418.99823 172.351136 
L 416.830398 177.485523 
L 414.662566 150.822703 
L 412.494733 122.786201 
L 410.326901 175.806549 
L 408.159069 180.772415 
L 405.991237 177.678729 
L 403.823405 148.438966 
L 401.655573 169.832045 
L 399.48774 159.678409 
L 397.319908 192.469091 
L 395.152076 164.244219 
L 392.984244 161.281432 
L 390.816412 176.919886 
L 388.64858 133.886825 
L 386.480747 160.388352 
L 384.312915 165.894034 
L 382.145083 160.517635 
L 379.977251 155.888972 
L 377.809419 173.331534 
L 375.641587 172.52061 
L 373.473754 121.167614 
L 371.305922 146.072177 
L 369.13809 158.756176 
L 366.970258 162.199432 
L 364.802426 187.230682 
L 362.634594 139.612278 
L 360.466761 166.705398 
L 358.298929 107.427557 
L 356.131097 155.73246 
L 353.963265 141.161932 
L 351.795433 167.213659 
L 349.627601 158.053162 
L 347.459768 161.590909 
L 345.291936 124.306818 
L 343.124104 92.106307 
L 340.956272 163.28041 
L 338.78844 186.726059 
L 336.620608 173.366548 
L 334.452775 160.220984 
L 332.284943 122.036932 
L 330.117111 157.405763 
L 327.949279 121.106761 
L 325.781447 190.368963 
L 323.613615 181.737358 
L 321.445782 135.572727 
L 319.27795 160.283152 
L 317.110118 164.203439 
L 314.942286 171.084588 
L 312.774454 67.0559 
L 310.606622 130.208523 
L 308.438789 163.408574 
L 306.270957 109.104545 
L 304.103125 168.41071 
L 301.935293 76.444091 
L 299.767461 166.160263 
L 297.599628 192.285085 
L 295.431796 124.021875 
L 293.263964 174.388515 
L 291.096132 183.375 
L 288.9283 177.987587 
L 286.760468 179.9625 
L 284.592635 196.203147 
L 282.424803 183.46875 
L 280.256971 124.913585 
L 278.089139 202.205455 
L 275.921307 69.819886 
L 273.753475 159.952579 
L 271.585642 49.361932 
L 269.41781 167.260795 
L 267.249978 177.122727 
L 265.082146 180.705682 
L 262.914314 192.190909 
L 260.746482 143.126591 
L 258.578649 141.718295 
L 256.410817 178.407386 
L 254.242985 137.693352 
L 252.075153 171.257727 
L 249.907321 89.752628 
L 247.739489 215.106136 
L 245.571656 206.1 
L 243.403824 170.664418 
L 241.235992 137.945455 
L 239.06816 187.844318 
L 236.900328 178.281818 
L 234.732496 170.356534 
L 232.564663 213.054545 
L 230.396831 195.668182 
L 228.228999 138.293182 
L 226.061167 135.250568 
L 223.893335 150.492614 
L 221.725503 160.895455 
L 219.55767 190.452273 
z
" style="fill:#1f77b4;fill-opacity:0.2;stroke:#1f77b4;stroke-opacity:0.2;"/>
   </g>
   <g id="matplotlib.axis_1">
    <g id="xtick_1">
     <g id="line2d_1">
      <defs>
       <path d="M 0 0 
L 0 3.5 
" id="mc5b42c908f" style="stroke:#000000;stroke-width:0.8;"/>
      </defs>
      <g>
       <use style="stroke:#000000;stroke-width:0.8;" x="41.795433" xlink:href="#mc5b42c908f" y="252"/>
      </g>
     </g>
     <g id="text_1">
      <!-- Mar 2020 -->
      <g transform="translate(44.554808 306.495312)rotate(-90)scale(0.1 -0.1)">
       <defs>
        <path d="M 9.8125 72.90625 
L 24.515625 72.90625 
L 43.109375 23.296875 
L 61.8125 72.90625 
L 76.515625 72.90625 
L 76.515625 0 
L 66.890625 0 
L 66.890625 64.015625 
L 48.09375 14.015625 
L 38.1875 14.015625 
L 19.390625 64.015625 
L 19.390625 0 
L 9.8125 0 
z
" id="DejaVuSans-77"/>
        <path d="M 34.28125 27.484375 
Q 23.390625 27.484375 19.1875 25 
Q 14.984375 22.515625 14.984375 16.5 
Q 14.984375 11.71875 18.140625 8.90625 
Q 21.296875 6.109375 26.703125 6.109375 
Q 34.1875 6.109375 38.703125 11.40625 
Q 43.21875 16.703125 43.21875 25.484375 
L 43.21875 27.484375 
z
M 52.203125 31.203125 
L 52.203125 0 
L 43.21875 0 
L 43.21875 8.296875 
Q 40.140625 3.328125 35.546875 0.953125 
Q 30.953125 -1.421875 24.3125 -1.421875 
Q 15.921875 -1.421875 10.953125 3.296875 
Q 6 8.015625 6 15.921875 
Q 6 25.140625 12.171875 29.828125 
Q 18.359375 34.515625 30.609375 34.515625 
L 43.21875 34.515625 
L 43.21875 35.40625 
Q 43.21875 41.609375 39.140625 45 
Q 35.0625 48.390625 27.6875 48.390625 
Q 23 48.390625 18.546875 47.265625 
Q 14.109375 46.140625 10.015625 43.890625 
L 10.015625 52.203125 
Q 14.9375 54.109375 19.578125 55.046875 
Q 24.21875 56 28.609375 56 
Q 40.484375 56 46.34375 49.84375 
Q 52.203125 43.703125 52.203125 31.203125 
z
" id="DejaVuSans-97"/>
        <path d="M 41.109375 46.296875 
Q 39.59375 47.171875 37.8125 47.578125 
Q 36.03125 48 33.890625 48 
Q 26.265625 48 22.1875 43.046875 
Q 18.109375 38.09375 18.109375 28.8125 
L 18.109375 0 
L 9.078125 0 
L 9.078125 54.6875 
L 18.109375 54.6875 
L 18.109375 46.1875 
Q 20.953125 51.171875 25.484375 53.578125 
Q 30.03125 56 36.53125 56 
Q 37.453125 56 38.578125 55.875 
Q 39.703125 55.765625 41.0625 55.515625 
z
" id="DejaVuSans-114"/>
        <path id="DejaVuSans-32"/>
        <path d="M 19.1875 8.296875 
L 53.609375 8.296875 
L 53.609375 0 
L 7.328125 0 
L 7.328125 8.296875 
Q 12.9375 14.109375 22.625 23.890625 
Q 32.328125 33.6875 34.8125 36.53125 
Q 39.546875 41.84375 41.421875 45.53125 
Q 43.3125 49.21875 43.3125 52.78125 
Q 43.3125 58.59375 39.234375 62.25 
Q 35.15625 65.921875 28.609375 65.921875 
Q 23.96875 65.921875 18.8125 64.3125 
Q 13.671875 62.703125 7.8125 59.421875 
L 7.8125 69.390625 
Q 13.765625 71.78125 18.9375 73 
Q 24.125 74.21875 28.421875 74.21875 
Q 39.75 74.21875 46.484375 68.546875 
Q 53.21875 62.890625 53.21875 53.421875 
Q 53.21875 48.921875 51.53125 44.890625 
Q 49.859375 40.875 45.40625 35.40625 
Q 44.1875 33.984375 37.640625 27.21875 
Q 31.109375 20.453125 19.1875 8.296875 
z
" id="DejaVuSans-50"/>
        <path d="M 31.78125 66.40625 
Q 24.171875 66.40625 20.328125 58.90625 
Q 16.5 51.421875 16.5 36.375 
Q 16.5 21.390625 20.328125 13.890625 
Q 24.171875 6.390625 31.78125 6.390625 
Q 39.453125 6.390625 43.28125 13.890625 
Q 47.125 21.390625 47.125 36.375 
Q 47.125 51.421875 43.28125 58.90625 
Q 39.453125 66.40625 31.78125 66.40625 
z
M 31.78125 74.21875 
Q 44.046875 74.21875 50.515625 64.515625 
Q 56.984375 54.828125 56.984375 36.375 
Q 56.984375 17.96875 50.515625 8.265625 
Q 44.046875 -1.421875 31.78125 -1.421875 
Q 19.53125 -1.421875 13.0625 8.265625 
Q 6.59375 17.96875 6.59375 36.375 
Q 6.59375 54.828125 13.0625 64.515625 
Q 19.53125 74.21875 31.78125 74.21875 
z
" id="DejaVuSans-48"/>
       </defs>
       <use xlink:href="#DejaVuSans-77"/>
       <use x="86.279297" xlink:href="#DejaVuSans-97"/>
       <use x="147.558594" xlink:href="#DejaVuSans-114"/>
       <use x="188.671875" xlink:href="#DejaVuSans-32"/>
       <use x="220.458984" xlink:href="#DejaVuSans-50"/>
       <use x="284.082031" xlink:href="#DejaVuSans-48"/>
       <use x="347.705078" xlink:href="#DejaVuSans-50"/>
       <use x="411.328125" xlink:href="#DejaVuSans-48"/>
      </g>
     </g>
    </g>
    <g id="xtick_2">
     <g id="line2d_2">
      <g>
       <use style="stroke:#000000;stroke-width:0.8;" x="108.99823" xlink:href="#mc5b42c908f" y="252"/>
      </g>
     </g>
     <g id="text_2">
      <!-- Apr 2020 -->
      <g transform="translate(111.757605 304.928125)rotate(-90)scale(0.1 -0.1)">
       <defs>
        <path d="M 34.1875 63.1875 
L 20.796875 26.90625 
L 47.609375 26.90625 
z
M 28.609375 72.90625 
L 39.796875 72.90625 
L 67.578125 0 
L 57.328125 0 
L 50.6875 18.703125 
L 17.828125 18.703125 
L 11.1875 0 
L 0.78125 0 
z
" id="DejaVuSans-65"/>
        <path d="M 18.109375 8.203125 
L 18.109375 -20.796875 
L 9.078125 -20.796875 
L 9.078125 54.6875 
L 18.109375 54.6875 
L 18.109375 46.390625 
Q 20.953125 51.265625 25.265625 53.625 
Q 29.59375 56 35.59375 56 
Q 45.5625 56 51.78125 48.09375 
Q 58.015625 40.1875 58.015625 27.296875 
Q 58.015625 14.40625 51.78125 6.484375 
Q 45.5625 -1.421875 35.59375 -1.421875 
Q 29.59375 -1.421875 25.265625 0.953125 
Q 20.953125 3.328125 18.109375 8.203125 
z
M 48.6875 27.296875 
Q 48.6875 37.203125 44.609375 42.84375 
Q 40.53125 48.484375 33.40625 48.484375 
Q 26.265625 48.484375 22.1875 42.84375 
Q 18.109375 37.203125 18.109375 27.296875 
Q 18.109375 17.390625 22.1875 11.75 
Q 26.265625 6.109375 33.40625 6.109375 
Q 40.53125 6.109375 44.609375 11.75 
Q 48.6875 17.390625 48.6875 27.296875 
z
" id="DejaVuSans-112"/>
       </defs>
       <use xlink:href="#DejaVuSans-65"/>
       <use x="68.408203" xlink:href="#DejaVuSans-112"/>
       <use x="131.884766" xlink:href="#DejaVuSans-114"/>
       <use x="172.998047" xlink:href="#DejaVuSans-32"/>
       <use x="204.785156" xlink:href="#DejaVuSans-50"/>
       <use x="268.408203" xlink:href="#DejaVuSans-48"/>
       <use x="332.03125" xlink:href="#DejaVuSans-50"/>
       <use x="395.654297" xlink:href="#DejaVuSans-48"/>
      </g>
     </g>
    </g>
    <g id="xtick_3">
     <g id="line2d_3">
      <g>
       <use style="stroke:#000000;stroke-width:0.8;" x="174.033195" xlink:href="#mc5b42c908f" y="252"/>
      </g>
     </g>
     <g id="text_3">
      <!-- May 2020 -->
      <g transform="translate(176.79257 308.303125)rotate(-90)scale(0.1 -0.1)">
       <defs>
        <path d="M 32.171875 -5.078125 
Q 28.375 -14.84375 24.75 -17.8125 
Q 21.140625 -20.796875 15.09375 -20.796875 
L 7.90625 -20.796875 
L 7.90625 -13.28125 
L 13.1875 -13.28125 
Q 16.890625 -13.28125 18.9375 -11.515625 
Q 21 -9.765625 23.484375 -3.21875 
L 25.09375 0.875 
L 2.984375 54.6875 
L 12.5 54.6875 
L 29.59375 11.921875 
L 46.6875 54.6875 
L 56.203125 54.6875 
z
" id="DejaVuSans-121"/>
       </defs>
       <use xlink:href="#DejaVuSans-77"/>
       <use x="86.279297" xlink:href="#DejaVuSans-97"/>
       <use x="147.558594" xlink:href="#DejaVuSans-121"/>
       <use x="206.738281" xlink:href="#DejaVuSans-32"/>
       <use x="238.525391" xlink:href="#DejaVuSans-50"/>
       <use x="302.148438" xlink:href="#DejaVuSans-48"/>
       <use x="365.771484" xlink:href="#DejaVuSans-50"/>
       <use x="429.394531" xlink:href="#DejaVuSans-48"/>
      </g>
     </g>
    </g>
    <g id="xtick_4">
     <g id="line2d_4">
      <g>
       <use style="stroke:#000000;stroke-width:0.8;" x="241.235992" xlink:href="#mc5b42c908f" y="252"/>
      </g>
     </g>
     <g id="text_4">
      <!-- Jun 2020 -->
      <g transform="translate(243.995367 303.253125)rotate(-90)scale(0.1 -0.1)">
       <defs>
        <path d="M 9.8125 72.90625 
L 19.671875 72.90625 
L 19.671875 5.078125 
Q 19.671875 -8.109375 14.671875 -14.0625 
Q 9.671875 -20.015625 -1.421875 -20.015625 
L -5.171875 -20.015625 
L -5.171875 -11.71875 
L -2.09375 -11.71875 
Q 4.4375 -11.71875 7.125 -8.046875 
Q 9.8125 -4.390625 9.8125 5.078125 
z
" id="DejaVuSans-74"/>
        <path d="M 8.5 21.578125 
L 8.5 54.6875 
L 17.484375 54.6875 
L 17.484375 21.921875 
Q 17.484375 14.15625 20.5 10.265625 
Q 23.53125 6.390625 29.59375 6.390625 
Q 36.859375 6.390625 41.078125 11.03125 
Q 45.3125 15.671875 45.3125 23.6875 
L 45.3125 54.6875 
L 54.296875 54.6875 
L 54.296875 0 
L 45.3125 0 
L 45.3125 8.40625 
Q 42.046875 3.421875 37.71875 1 
Q 33.40625 -1.421875 27.6875 -1.421875 
Q 18.265625 -1.421875 13.375 4.4375 
Q 8.5 10.296875 8.5 21.578125 
z
M 31.109375 56 
z
" id="DejaVuSans-117"/>
        <path d="M 54.890625 33.015625 
L 54.890625 0 
L 45.90625 0 
L 45.90625 32.71875 
Q 45.90625 40.484375 42.875 44.328125 
Q 39.84375 48.1875 33.796875 48.1875 
Q 26.515625 48.1875 22.3125 43.546875 
Q 18.109375 38.921875 18.109375 30.90625 
L 18.109375 0 
L 9.078125 0 
L 9.078125 54.6875 
L 18.109375 54.6875 
L 18.109375 46.1875 
Q 21.34375 51.125 25.703125 53.5625 
Q 30.078125 56 35.796875 56 
Q 45.21875 56 50.046875 50.171875 
Q 54.890625 44.34375 54.890625 33.015625 
z
" id="DejaVuSans-110"/>
       </defs>
       <use xlink:href="#DejaVuSans-74"/>
       <use x="29.492188" xlink:href="#DejaVuSans-117"/>
       <use x="92.871094" xlink:href="#DejaVuSans-110"/>
       <use x="156.25" xlink:href="#DejaVuSans-32"/>
       <use x="188.037109" xlink:href="#DejaVuSans-50"/>
       <use x="251.660156" xlink:href="#DejaVuSans-48"/>
       <use x="315.283203" xlink:href="#DejaVuSans-50"/>
       <use x="378.90625" xlink:href="#DejaVuSans-48"/>
      </g>
     </g>
    </g>
    <g id="xtick_5">
     <g id="line2d_5">
      <g>
       <use style="stroke:#000000;stroke-width:0.8;" x="306.270957" xlink:href="#mc5b42c908f" y="252"/>
      </g>
     </g>
     <g id="text_5">
      <!-- Jul 2020 -->
      <g transform="translate(309.030332 299.69375)rotate(-90)scale(0.1 -0.1)">
       <defs>
        <path d="M 9.421875 75.984375 
L 18.40625 75.984375 
L 18.40625 0 
L 9.421875 0 
z
" id="DejaVuSans-108"/>
       </defs>
       <use xlink:href="#DejaVuSans-74"/>
       <use x="29.492188" xlink:href="#DejaVuSans-117"/>
       <use x="92.871094" xlink:href="#DejaVuSans-108"/>
       <use x="120.654297" xlink:href="#DejaVuSans-32"/>
       <use x="152.441406" xlink:href="#DejaVuSans-50"/>
       <use x="216.064453" xlink:href="#DejaVuSans-48"/>
       <use x="279.6875" xlink:href="#DejaVuSans-50"/>
       <use x="343.310547" xlink:href="#DejaVuSans-48"/>
      </g>
     </g>
    </g>
    <g id="xtick_6">
     <g id="line2d_6">
      <g>
       <use style="stroke:#000000;stroke-width:0.8;" x="373.473754" xlink:href="#mc5b42c908f" y="252"/>
      </g>
     </g>
     <g id="text_6">
      <!-- Aug 2020 -->
      <g transform="translate(376.233129 307.154687)rotate(-90)scale(0.1 -0.1)">
       <defs>
        <path d="M 45.40625 27.984375 
Q 45.40625 37.75 41.375 43.109375 
Q 37.359375 48.484375 30.078125 48.484375 
Q 22.859375 48.484375 18.828125 43.109375 
Q 14.796875 37.75 14.796875 27.984375 
Q 14.796875 18.265625 18.828125 12.890625 
Q 22.859375 7.515625 30.078125 7.515625 
Q 37.359375 7.515625 41.375 12.890625 
Q 45.40625 18.265625 45.40625 27.984375 
z
M 54.390625 6.78125 
Q 54.390625 -7.171875 48.1875 -13.984375 
Q 42 -20.796875 29.203125 -20.796875 
Q 24.46875 -20.796875 20.265625 -20.09375 
Q 16.0625 -19.390625 12.109375 -17.921875 
L 12.109375 -9.1875 
Q 16.0625 -11.328125 19.921875 -12.34375 
Q 23.78125 -13.375 27.78125 -13.375 
Q 36.625 -13.375 41.015625 -8.765625 
Q 45.40625 -4.15625 45.40625 5.171875 
L 45.40625 9.625 
Q 42.625 4.78125 38.28125 2.390625 
Q 33.9375 0 27.875 0 
Q 17.828125 0 11.671875 7.65625 
Q 5.515625 15.328125 5.515625 27.984375 
Q 5.515625 40.671875 11.671875 48.328125 
Q 17.828125 56 27.875 56 
Q 33.9375 56 38.28125 53.609375 
Q 42.625 51.21875 45.40625 46.390625 
L 45.40625 54.6875 
L 54.390625 54.6875 
z
" id="DejaVuSans-103"/>
       </defs>
       <use xlink:href="#DejaVuSans-65"/>
       <use x="68.408203" xlink:href="#DejaVuSans-117"/>
       <use x="131.787109" xlink:href="#DejaVuSans-103"/>
       <use x="195.263672" xlink:href="#DejaVuSans-32"/>
       <use x="227.050781" xlink:href="#DejaVuSans-50"/>
       <use x="290.673828" xlink:href="#DejaVuSans-48"/>
       <use x="354.296875" xlink:href="#DejaVuSans-50"/>
       <use x="417.919922" xlink:href="#DejaVuSans-48"/>
      </g>
     </g>
    </g>
    <g id="xtick_7">
     <g id="line2d_7">
      <g>
       <use style="stroke:#000000;stroke-width:0.8;" x="440.676552" xlink:href="#mc5b42c908f" y="252"/>
      </g>
     </g>
     <g id="text_7">
      <!-- Sep 2020 -->
      <g transform="translate(443.435927 306.478125)rotate(-90)scale(0.1 -0.1)">
       <defs>
        <path d="M 53.515625 70.515625 
L 53.515625 60.890625 
Q 47.90625 63.578125 42.921875 64.890625 
Q 37.9375 66.21875 33.296875 66.21875 
Q 25.25 66.21875 20.875 63.09375 
Q 16.5 59.96875 16.5 54.203125 
Q 16.5 49.359375 19.40625 46.890625 
Q 22.3125 44.4375 30.421875 42.921875 
L 36.375 41.703125 
Q 47.40625 39.59375 52.65625 34.296875 
Q 57.90625 29 57.90625 20.125 
Q 57.90625 9.515625 50.796875 4.046875 
Q 43.703125 -1.421875 29.984375 -1.421875 
Q 24.8125 -1.421875 18.96875 -0.25 
Q 13.140625 0.921875 6.890625 3.21875 
L 6.890625 13.375 
Q 12.890625 10.015625 18.65625 8.296875 
Q 24.421875 6.59375 29.984375 6.59375 
Q 38.421875 6.59375 43.015625 9.90625 
Q 47.609375 13.234375 47.609375 19.390625 
Q 47.609375 24.75 44.3125 27.78125 
Q 41.015625 30.8125 33.5 32.328125 
L 27.484375 33.5 
Q 16.453125 35.6875 11.515625 40.375 
Q 6.59375 45.0625 6.59375 53.421875 
Q 6.59375 63.09375 13.40625 68.65625 
Q 20.21875 74.21875 32.171875 74.21875 
Q 37.3125 74.21875 42.625 73.28125 
Q 47.953125 72.359375 53.515625 70.515625 
z
" id="DejaVuSans-83"/>
        <path d="M 56.203125 29.59375 
L 56.203125 25.203125 
L 14.890625 25.203125 
Q 15.484375 15.921875 20.484375 11.0625 
Q 25.484375 6.203125 34.421875 6.203125 
Q 39.59375 6.203125 44.453125 7.46875 
Q 49.3125 8.734375 54.109375 11.28125 
L 54.109375 2.78125 
Q 49.265625 0.734375 44.1875 -0.34375 
Q 39.109375 -1.421875 33.890625 -1.421875 
Q 20.796875 -1.421875 13.15625 6.1875 
Q 5.515625 13.8125 5.515625 26.8125 
Q 5.515625 40.234375 12.765625 48.109375 
Q 20.015625 56 32.328125 56 
Q 43.359375 56 49.78125 48.890625 
Q 56.203125 41.796875 56.203125 29.59375 
z
M 47.21875 32.234375 
Q 47.125 39.59375 43.09375 43.984375 
Q 39.0625 48.390625 32.421875 48.390625 
Q 24.90625 48.390625 20.390625 44.140625 
Q 15.875 39.890625 15.1875 32.171875 
z
" id="DejaVuSans-101"/>
       </defs>
       <use xlink:href="#DejaVuSans-83"/>
       <use x="63.476562" xlink:href="#DejaVuSans-101"/>
       <use x="125" xlink:href="#DejaVuSans-112"/>
       <use x="188.476562" xlink:href="#DejaVuSans-32"/>
       <use x="220.263672" xlink:href="#DejaVuSans-50"/>
       <use x="283.886719" xlink:href="#DejaVuSans-48"/>
       <use x="347.509766" xlink:href="#DejaVuSans-50"/>
       <use x="411.132812" xlink:href="#DejaVuSans-48"/>
      </g>
     </g>
    </g>
    <g id="xtick_8">
     <g id="line2d_8">
      <g>
       <use style="stroke:#000000;stroke-width:0.8;" x="505.711517" xlink:href="#mc5b42c908f" y="252"/>
      </g>
     </g>
     <g id="text_8">
      <!-- Oct 2020 -->
      <g transform="translate(508.470892 304.91875)rotate(-90)scale(0.1 -0.1)">
       <defs>
        <path d="M 39.40625 66.21875 
Q 28.65625 66.21875 22.328125 58.203125 
Q 16.015625 50.203125 16.015625 36.375 
Q 16.015625 22.609375 22.328125 14.59375 
Q 28.65625 6.59375 39.40625 6.59375 
Q 50.140625 6.59375 56.421875 14.59375 
Q 62.703125 22.609375 62.703125 36.375 
Q 62.703125 50.203125 56.421875 58.203125 
Q 50.140625 66.21875 39.40625 66.21875 
z
M 39.40625 74.21875 
Q 54.734375 74.21875 63.90625 63.9375 
Q 73.09375 53.65625 73.09375 36.375 
Q 73.09375 19.140625 63.90625 8.859375 
Q 54.734375 -1.421875 39.40625 -1.421875 
Q 24.03125 -1.421875 14.8125 8.828125 
Q 5.609375 19.09375 5.609375 36.375 
Q 5.609375 53.65625 14.8125 63.9375 
Q 24.03125 74.21875 39.40625 74.21875 
z
" id="DejaVuSans-79"/>
        <path d="M 48.78125 52.59375 
L 48.78125 44.1875 
Q 44.96875 46.296875 41.140625 47.34375 
Q 37.3125 48.390625 33.40625 48.390625 
Q 24.65625 48.390625 19.8125 42.84375 
Q 14.984375 37.3125 14.984375 27.296875 
Q 14.984375 17.28125 19.8125 11.734375 
Q 24.65625 6.203125 33.40625 6.203125 
Q 37.3125 6.203125 41.140625 7.25 
Q 44.96875 8.296875 48.78125 10.40625 
L 48.78125 2.09375 
Q 45.015625 0.34375 40.984375 -0.53125 
Q 36.96875 -1.421875 32.421875 -1.421875 
Q 20.0625 -1.421875 12.78125 6.34375 
Q 5.515625 14.109375 5.515625 27.296875 
Q 5.515625 40.671875 12.859375 48.328125 
Q 20.21875 56 33.015625 56 
Q 37.15625 56 41.109375 55.140625 
Q 45.0625 54.296875 48.78125 52.59375 
z
" id="DejaVuSans-99"/>
        <path d="M 18.3125 70.21875 
L 18.3125 54.6875 
L 36.8125 54.6875 
L 36.8125 47.703125 
L 18.3125 47.703125 
L 18.3125 18.015625 
Q 18.3125 11.328125 20.140625 9.421875 
Q 21.96875 7.515625 27.59375 7.515625 
L 36.8125 7.515625 
L 36.8125 0 
L 27.59375 0 
Q 17.1875 0 13.234375 3.875 
Q 9.28125 7.765625 9.28125 18.015625 
L 9.28125 47.703125 
L 2.6875 47.703125 
L 2.6875 54.6875 
L 9.28125 54.6875 
L 9.28125 70.21875 
z
" id="DejaVuSans-116"/>
       </defs>
       <use xlink:href="#DejaVuSans-79"/>
       <use x="78.710938" xlink:href="#DejaVuSans-99"/>
       <use x="133.691406" xlink:href="#DejaVuSans-116"/>
       <use x="172.900391" xlink:href="#DejaVuSans-32"/>
       <use x="204.6875" xlink:href="#DejaVuSans-50"/>
       <use x="268.310547" xlink:href="#DejaVuSans-48"/>
       <use x="331.933594" xlink:href="#DejaVuSans-50"/>
       <use x="395.556641" xlink:href="#DejaVuSans-48"/>
      </g>
     </g>
    </g>
    <g id="xtick_9">
     <g id="line2d_9">
      <g>
       <use style="stroke:#000000;stroke-width:0.8;" x="572.914314" xlink:href="#mc5b42c908f" y="252"/>
      </g>
     </g>
     <g id="text_9">
      <!-- Nov 2020 -->
      <g transform="translate(575.673689 307.146875)rotate(-90)scale(0.1 -0.1)">
       <defs>
        <path d="M 9.8125 72.90625 
L 23.09375 72.90625 
L 55.421875 11.921875 
L 55.421875 72.90625 
L 64.984375 72.90625 
L 64.984375 0 
L 51.703125 0 
L 19.390625 60.984375 
L 19.390625 0 
L 9.8125 0 
z
" id="DejaVuSans-78"/>
        <path d="M 30.609375 48.390625 
Q 23.390625 48.390625 19.1875 42.75 
Q 14.984375 37.109375 14.984375 27.296875 
Q 14.984375 17.484375 19.15625 11.84375 
Q 23.34375 6.203125 30.609375 6.203125 
Q 37.796875 6.203125 41.984375 11.859375 
Q 46.1875 17.53125 46.1875 27.296875 
Q 46.1875 37.015625 41.984375 42.703125 
Q 37.796875 48.390625 30.609375 48.390625 
z
M 30.609375 56 
Q 42.328125 56 49.015625 48.375 
Q 55.71875 40.765625 55.71875 27.296875 
Q 55.71875 13.875 49.015625 6.21875 
Q 42.328125 -1.421875 30.609375 -1.421875 
Q 18.84375 -1.421875 12.171875 6.21875 
Q 5.515625 13.875 5.515625 27.296875 
Q 5.515625 40.765625 12.171875 48.375 
Q 18.84375 56 30.609375 56 
z
" id="DejaVuSans-111"/>
        <path d="M 2.984375 54.6875 
L 12.5 54.6875 
L 29.59375 8.796875 
L 46.6875 54.6875 
L 56.203125 54.6875 
L 35.6875 0 
L 23.484375 0 
z
" id="DejaVuSans-118"/>
       </defs>
       <use xlink:href="#DejaVuSans-78"/>
       <use x="74.804688" xlink:href="#DejaVuSans-111"/>
       <use x="135.986328" xlink:href="#DejaVuSans-118"/>
       <use x="195.166016" xlink:href="#DejaVuSans-32"/>
       <use x="226.953125" xlink:href="#DejaVuSans-50"/>
       <use x="290.576172" xlink:href="#DejaVuSans-48"/>
       <use x="354.199219" xlink:href="#DejaVuSans-50"/>
       <use x="417.822266" xlink:href="#DejaVuSans-48"/>
      </g>
     </g>
    </g>
    <g id="xtick_10">
     <g id="line2d_10">
      <g>
       <use style="stroke:#000000;stroke-width:0.8;" x="637.949279" xlink:href="#mc5b42c908f" y="252"/>
      </g>
     </g>
     <g id="text_10">
      <!-- Dec 2020 -->
      <g transform="translate(640.708654 306.979687)rotate(-90)scale(0.1 -0.1)">
       <defs>
        <path d="M 19.671875 64.796875 
L 19.671875 8.109375 
L 31.59375 8.109375 
Q 46.6875 8.109375 53.6875 14.9375 
Q 60.6875 21.78125 60.6875 36.53125 
Q 60.6875 51.171875 53.6875 57.984375 
Q 46.6875 64.796875 31.59375 64.796875 
z
M 9.8125 72.90625 
L 30.078125 72.90625 
Q 51.265625 72.90625 61.171875 64.09375 
Q 71.09375 55.28125 71.09375 36.53125 
Q 71.09375 17.671875 61.125 8.828125 
Q 51.171875 0 30.078125 0 
L 9.8125 0 
z
" id="DejaVuSans-68"/>
       </defs>
       <use xlink:href="#DejaVuSans-68"/>
       <use x="77.001953" xlink:href="#DejaVuSans-101"/>
       <use x="138.525391" xlink:href="#DejaVuSans-99"/>
       <use x="193.505859" xlink:href="#DejaVuSans-32"/>
       <use x="225.292969" xlink:href="#DejaVuSans-50"/>
       <use x="288.916016" xlink:href="#DejaVuSans-48"/>
       <use x="352.539062" xlink:href="#DejaVuSans-50"/>
       <use x="416.162109" xlink:href="#DejaVuSans-48"/>
      </g>
     </g>
    </g>
    <g id="xtick_11">
     <g id="line2d_11">
      <g>
       <use style="stroke:#000000;stroke-width:0.8;" x="705.152076" xlink:href="#mc5b42c908f" y="252"/>
      </g>
     </g>
     <g id="text_11">
      <!-- Jan 2021 -->
      <g transform="translate(707.911451 303.04375)rotate(-90)scale(0.1 -0.1)">
       <defs>
        <path d="M 12.40625 8.296875 
L 28.515625 8.296875 
L 28.515625 63.921875 
L 10.984375 60.40625 
L 10.984375 69.390625 
L 28.421875 72.90625 
L 38.28125 72.90625 
L 38.28125 8.296875 
L 54.390625 8.296875 
L 54.390625 0 
L 12.40625 0 
z
" id="DejaVuSans-49"/>
       </defs>
       <use xlink:href="#DejaVuSans-74"/>
       <use x="29.492188" xlink:href="#DejaVuSans-97"/>
       <use x="90.771484" xlink:href="#DejaVuSans-110"/>
       <use x="154.150391" xlink:href="#DejaVuSans-32"/>
       <use x="185.9375" xlink:href="#DejaVuSans-50"/>
       <use x="249.560547" xlink:href="#DejaVuSans-48"/>
       <use x="313.183594" xlink:href="#DejaVuSans-50"/>
       <use x="376.806641" xlink:href="#DejaVuSans-49"/>
      </g>
     </g>
    </g>
    <g id="xtick_12">
     <g id="line2d_12">
      <g>
       <use style="stroke:#000000;stroke-width:0.8;" x="772.354873" xlink:href="#mc5b42c908f" y="252"/>
      </g>
     </g>
     <g id="text_12">
      <!-- Feb 2021 -->
      <g transform="translate(775.114248 305.33125)rotate(-90)scale(0.1 -0.1)">
       <defs>
        <path d="M 9.8125 72.90625 
L 51.703125 72.90625 
L 51.703125 64.59375 
L 19.671875 64.59375 
L 19.671875 43.109375 
L 48.578125 43.109375 
L 48.578125 34.8125 
L 19.671875 34.8125 
L 19.671875 0 
L 9.8125 0 
z
" id="DejaVuSans-70"/>
        <path d="M 48.6875 27.296875 
Q 48.6875 37.203125 44.609375 42.84375 
Q 40.53125 48.484375 33.40625 48.484375 
Q 26.265625 48.484375 22.1875 42.84375 
Q 18.109375 37.203125 18.109375 27.296875 
Q 18.109375 17.390625 22.1875 11.75 
Q 26.265625 6.109375 33.40625 6.109375 
Q 40.53125 6.109375 44.609375 11.75 
Q 48.6875 17.390625 48.6875 27.296875 
z
M 18.109375 46.390625 
Q 20.953125 51.265625 25.265625 53.625 
Q 29.59375 56 35.59375 56 
Q 45.5625 56 51.78125 48.09375 
Q 58.015625 40.1875 58.015625 27.296875 
Q 58.015625 14.40625 51.78125 6.484375 
Q 45.5625 -1.421875 35.59375 -1.421875 
Q 29.59375 -1.421875 25.265625 0.953125 
Q 20.953125 3.328125 18.109375 8.203125 
L 18.109375 0 
L 9.078125 0 
L 9.078125 75.984375 
L 18.109375 75.984375 
z
" id="DejaVuSans-98"/>
       </defs>
       <use xlink:href="#DejaVuSans-70"/>
       <use x="52.019531" xlink:href="#DejaVuSans-101"/>
       <use x="113.542969" xlink:href="#DejaVuSans-98"/>
       <use x="177.019531" xlink:href="#DejaVuSans-32"/>
       <use x="208.806641" xlink:href="#DejaVuSans-50"/>
       <use x="272.429688" xlink:href="#DejaVuSans-48"/>
       <use x="336.052734" xlink:href="#DejaVuSans-50"/>
       <use x="399.675781" xlink:href="#DejaVuSans-49"/>
      </g>
     </g>
    </g>
    <g id="xtick_13">
     <g id="line2d_13">
      <g>
       <use style="stroke:#000000;stroke-width:0.8;" x="833.054174" xlink:href="#mc5b42c908f" y="252"/>
      </g>
     </g>
     <g id="text_13">
      <!-- Mar 2021 -->
      <g transform="translate(835.813549 306.495312)rotate(-90)scale(0.1 -0.1)">
       <use xlink:href="#DejaVuSans-77"/>
       <use x="86.279297" xlink:href="#DejaVuSans-97"/>
       <use x="147.558594" xlink:href="#DejaVuSans-114"/>
       <use x="188.671875" xlink:href="#DejaVuSans-32"/>
       <use x="220.458984" xlink:href="#DejaVuSans-50"/>
       <use x="284.082031" xlink:href="#DejaVuSans-48"/>
       <use x="347.705078" xlink:href="#DejaVuSans-50"/>
       <use x="411.328125" xlink:href="#DejaVuSans-49"/>
      </g>
     </g>
    </g>
    <g id="text_14">
     <!-- Start date -->
     <g transform="translate(434.025 319.901562)scale(0.1 -0.1)">
      <defs>
       <path d="M 45.40625 46.390625 
L 45.40625 75.984375 
L 54.390625 75.984375 
L 54.390625 0 
L 45.40625 0 
L 45.40625 8.203125 
Q 42.578125 3.328125 38.25 0.953125 
Q 33.9375 -1.421875 27.875 -1.421875 
Q 17.96875 -1.421875 11.734375 6.484375 
Q 5.515625 14.40625 5.515625 27.296875 
Q 5.515625 40.1875 11.734375 48.09375 
Q 17.96875 56 27.875 56 
Q 33.9375 56 38.25 53.625 
Q 42.578125 51.265625 45.40625 46.390625 
z
M 14.796875 27.296875 
Q 14.796875 17.390625 18.875 11.75 
Q 22.953125 6.109375 30.078125 6.109375 
Q 37.203125 6.109375 41.296875 11.75 
Q 45.40625 17.390625 45.40625 27.296875 
Q 45.40625 37.203125 41.296875 42.84375 
Q 37.203125 48.484375 30.078125 48.484375 
Q 22.953125 48.484375 18.875 42.84375 
Q 14.796875 37.203125 14.796875 27.296875 
z
" id="DejaVuSans-100"/>
      </defs>
      <use xlink:href="#DejaVuSans-83"/>
      <use x="63.476562" xlink:href="#DejaVuSans-116"/>
      <use x="102.685547" xlink:href="#DejaVuSans-97"/>
      <use x="163.964844" xlink:href="#DejaVuSans-114"/>
      <use x="205.078125" xlink:href="#DejaVuSans-116"/>
      <use x="244.287109" xlink:href="#DejaVuSans-32"/>
      <use x="276.074219" xlink:href="#DejaVuSans-100"/>
      <use x="339.550781" xlink:href="#DejaVuSans-97"/>
      <use x="400.830078" xlink:href="#DejaVuSans-116"/>
      <use x="440.039062" xlink:href="#DejaVuSans-101"/>
     </g>
    </g>
   </g>
   <g id="matplotlib.axis_2">
    <g id="ytick_1">
     <g id="line2d_14">
      <defs>
       <path d="M 0 0 
L -3.5 0 
" id="m37f9e753f9" style="stroke:#000000;stroke-width:0.8;"/>
      </defs>
      <g>
       <use style="stroke:#000000;stroke-width:0.8;" x="40.603125" xlink:href="#m37f9e753f9" y="240.872727"/>
      </g>
     </g>
     <g id="text_15">
      <!-- 0 -->
      <g transform="translate(27.240625 244.671946)scale(0.1 -0.1)">
       <use xlink:href="#DejaVuSans-48"/>
      </g>
     </g>
    </g>
    <g id="ytick_2">
     <g id="line2d_15">
      <g>
       <use style="stroke:#000000;stroke-width:0.8;" x="40.603125" xlink:href="#m37f9e753f9" y="206.1"/>
      </g>
     </g>
     <g id="text_16">
      <!-- 10 -->
      <g transform="translate(20.878125 209.899219)scale(0.1 -0.1)">
       <use xlink:href="#DejaVuSans-49"/>
       <use x="63.623047" xlink:href="#DejaVuSans-48"/>
      </g>
     </g>
    </g>
    <g id="ytick_3">
     <g id="line2d_16">
      <g>
       <use style="stroke:#000000;stroke-width:0.8;" x="40.603125" xlink:href="#m37f9e753f9" y="171.327273"/>
      </g>
     </g>
     <g id="text_17">
      <!-- 20 -->
      <g transform="translate(20.878125 175.126491)scale(0.1 -0.1)">
       <use xlink:href="#DejaVuSans-50"/>
       <use x="63.623047" xlink:href="#DejaVuSans-48"/>
      </g>
     </g>
    </g>
    <g id="ytick_4">
     <g id="line2d_17">
      <g>
       <use style="stroke:#000000;stroke-width:0.8;" x="40.603125" xlink:href="#m37f9e753f9" y="136.554545"/>
      </g>
     </g>
     <g id="text_18">
      <!-- 30 -->
      <g transform="translate(20.878125 140.353764)scale(0.1 -0.1)">
       <defs>
        <path d="M 40.578125 39.3125 
Q 47.65625 37.796875 51.625 33 
Q 55.609375 28.21875 55.609375 21.1875 
Q 55.609375 10.40625 48.1875 4.484375 
Q 40.765625 -1.421875 27.09375 -1.421875 
Q 22.515625 -1.421875 17.65625 -0.515625 
Q 12.796875 0.390625 7.625 2.203125 
L 7.625 11.71875 
Q 11.71875 9.328125 16.59375 8.109375 
Q 21.484375 6.890625 26.8125 6.890625 
Q 36.078125 6.890625 40.9375 10.546875 
Q 45.796875 14.203125 45.796875 21.1875 
Q 45.796875 27.640625 41.28125 31.265625 
Q 36.765625 34.90625 28.71875 34.90625 
L 20.21875 34.90625 
L 20.21875 43.015625 
L 29.109375 43.015625 
Q 36.375 43.015625 40.234375 45.921875 
Q 44.09375 48.828125 44.09375 54.296875 
Q 44.09375 59.90625 40.109375 62.90625 
Q 36.140625 65.921875 28.71875 65.921875 
Q 24.65625 65.921875 20.015625 65.03125 
Q 15.375 64.15625 9.8125 62.3125 
L 9.8125 71.09375 
Q 15.4375 72.65625 20.34375 73.4375 
Q 25.25 74.21875 29.59375 74.21875 
Q 40.828125 74.21875 47.359375 69.109375 
Q 53.90625 64.015625 53.90625 55.328125 
Q 53.90625 49.265625 50.4375 45.09375 
Q 46.96875 40.921875 40.578125 39.3125 
z
" id="DejaVuSans-51"/>
       </defs>
       <use xlink:href="#DejaVuSans-51"/>
       <use x="63.623047" xlink:href="#DejaVuSans-48"/>
      </g>
     </g>
    </g>
    <g id="ytick_5">
     <g id="line2d_18">
      <g>
       <use style="stroke:#000000;stroke-width:0.8;" x="40.603125" xlink:href="#m37f9e753f9" y="101.781818"/>
      </g>
     </g>
     <g id="text_19">
      <!-- 40 -->
      <g transform="translate(20.878125 105.581037)scale(0.1 -0.1)">
       <defs>
        <path d="M 37.796875 64.3125 
L 12.890625 25.390625 
L 37.796875 25.390625 
z
M 35.203125 72.90625 
L 47.609375 72.90625 
L 47.609375 25.390625 
L 58.015625 25.390625 
L 58.015625 17.1875 
L 47.609375 17.1875 
L 47.609375 0 
L 37.796875 0 
L 37.796875 17.1875 
L 4.890625 17.1875 
L 4.890625 26.703125 
z
" id="DejaVuSans-52"/>
       </defs>
       <use xlink:href="#DejaVuSans-52"/>
       <use x="63.623047" xlink:href="#DejaVuSans-48"/>
      </g>
     </g>
    </g>
    <g id="ytick_6">
     <g id="line2d_19">
      <g>
       <use style="stroke:#000000;stroke-width:0.8;" x="40.603125" xlink:href="#m37f9e753f9" y="67.009091"/>
      </g>
     </g>
     <g id="text_20">
      <!-- 50 -->
      <g transform="translate(20.878125 70.80831)scale(0.1 -0.1)">
       <defs>
        <path d="M 10.796875 72.90625 
L 49.515625 72.90625 
L 49.515625 64.59375 
L 19.828125 64.59375 
L 19.828125 46.734375 
Q 21.96875 47.46875 24.109375 47.828125 
Q 26.265625 48.1875 28.421875 48.1875 
Q 40.625 48.1875 47.75 41.5 
Q 54.890625 34.8125 54.890625 23.390625 
Q 54.890625 11.625 47.5625 5.09375 
Q 40.234375 -1.421875 26.90625 -1.421875 
Q 22.3125 -1.421875 17.546875 -0.640625 
Q 12.796875 0.140625 7.71875 1.703125 
L 7.71875 11.625 
Q 12.109375 9.234375 16.796875 8.0625 
Q 21.484375 6.890625 26.703125 6.890625 
Q 35.15625 6.890625 40.078125 11.328125 
Q 45.015625 15.765625 45.015625 23.390625 
Q 45.015625 31 40.078125 35.4375 
Q 35.15625 39.890625 26.703125 39.890625 
Q 22.75 39.890625 18.8125 39.015625 
Q 14.890625 38.140625 10.796875 36.28125 
z
" id="DejaVuSans-53"/>
       </defs>
       <use xlink:href="#DejaVuSans-53"/>
       <use x="63.623047" xlink:href="#DejaVuSans-48"/>
      </g>
     </g>
    </g>
    <g id="ytick_7">
     <g id="line2d_20">
      <g>
       <use style="stroke:#000000;stroke-width:0.8;" x="40.603125" xlink:href="#m37f9e753f9" y="32.236364"/>
      </g>
     </g>
     <g id="text_21">
      <!-- 60 -->
      <g transform="translate(20.878125 36.035582)scale(0.1 -0.1)">
       <defs>
        <path d="M 33.015625 40.375 
Q 26.375 40.375 22.484375 35.828125 
Q 18.609375 31.296875 18.609375 23.390625 
Q 18.609375 15.53125 22.484375 10.953125 
Q 26.375 6.390625 33.015625 6.390625 
Q 39.65625 6.390625 43.53125 10.953125 
Q 47.40625 15.53125 47.40625 23.390625 
Q 47.40625 31.296875 43.53125 35.828125 
Q 39.65625 40.375 33.015625 40.375 
z
M 52.59375 71.296875 
L 52.59375 62.3125 
Q 48.875 64.0625 45.09375 64.984375 
Q 41.3125 65.921875 37.59375 65.921875 
Q 27.828125 65.921875 22.671875 59.328125 
Q 17.53125 52.734375 16.796875 39.40625 
Q 19.671875 43.65625 24.015625 45.921875 
Q 28.375 48.1875 33.59375 48.1875 
Q 44.578125 48.1875 50.953125 41.515625 
Q 57.328125 34.859375 57.328125 23.390625 
Q 57.328125 12.15625 50.6875 5.359375 
Q 44.046875 -1.421875 33.015625 -1.421875 
Q 20.359375 -1.421875 13.671875 8.265625 
Q 6.984375 17.96875 6.984375 36.375 
Q 6.984375 53.65625 15.1875 63.9375 
Q 23.390625 74.21875 37.203125 74.21875 
Q 40.921875 74.21875 44.703125 73.484375 
Q 48.484375 72.75 52.59375 71.296875 
z
" id="DejaVuSans-54"/>
       </defs>
       <use xlink:href="#DejaVuSans-54"/>
       <use x="63.623047" xlink:href="#DejaVuSans-48"/>
      </g>
     </g>
    </g>
    <g id="text_22">
     <!-- Stay (in days) -->
     <g transform="translate(14.798438 164.197656)rotate(-90)scale(0.1 -0.1)">
      <defs>
       <path d="M 31 75.875 
Q 24.46875 64.65625 21.28125 53.65625 
Q 18.109375 42.671875 18.109375 31.390625 
Q 18.109375 20.125 21.3125 9.0625 
Q 24.515625 -2 31 -13.1875 
L 23.1875 -13.1875 
Q 15.875 -1.703125 12.234375 9.375 
Q 8.59375 20.453125 8.59375 31.390625 
Q 8.59375 42.28125 12.203125 53.3125 
Q 15.828125 64.359375 23.1875 75.875 
z
" id="DejaVuSans-40"/>
       <path d="M 9.421875 54.6875 
L 18.40625 54.6875 
L 18.40625 0 
L 9.421875 0 
z
M 9.421875 75.984375 
L 18.40625 75.984375 
L 18.40625 64.59375 
L 9.421875 64.59375 
z
" id="DejaVuSans-105"/>
       <path d="M 44.28125 53.078125 
L 44.28125 44.578125 
Q 40.484375 46.53125 36.375 47.5 
Q 32.28125 48.484375 27.875 48.484375 
Q 21.1875 48.484375 17.84375 46.4375 
Q 14.5 44.390625 14.5 40.28125 
Q 14.5 37.15625 16.890625 35.375 
Q 19.28125 33.59375 26.515625 31.984375 
L 29.59375 31.296875 
Q 39.15625 29.25 43.1875 25.515625 
Q 47.21875 21.78125 47.21875 15.09375 
Q 47.21875 7.46875 41.1875 3.015625 
Q 35.15625 -1.421875 24.609375 -1.421875 
Q 20.21875 -1.421875 15.453125 -0.5625 
Q 10.6875 0.296875 5.421875 2 
L 5.421875 11.28125 
Q 10.40625 8.6875 15.234375 7.390625 
Q 20.0625 6.109375 24.8125 6.109375 
Q 31.15625 6.109375 34.5625 8.28125 
Q 37.984375 10.453125 37.984375 14.40625 
Q 37.984375 18.0625 35.515625 20.015625 
Q 33.0625 21.96875 24.703125 23.78125 
L 21.578125 24.515625 
Q 13.234375 26.265625 9.515625 29.90625 
Q 5.8125 33.546875 5.8125 39.890625 
Q 5.8125 47.609375 11.28125 51.796875 
Q 16.75 56 26.8125 56 
Q 31.78125 56 36.171875 55.265625 
Q 40.578125 54.546875 44.28125 53.078125 
z
" id="DejaVuSans-115"/>
       <path d="M 8.015625 75.875 
L 15.828125 75.875 
Q 23.140625 64.359375 26.78125 53.3125 
Q 30.421875 42.28125 30.421875 31.390625 
Q 30.421875 20.453125 26.78125 9.375 
Q 23.140625 -1.703125 15.828125 -13.1875 
L 8.015625 -13.1875 
Q 14.5 -2 17.703125 9.0625 
Q 20.90625 20.125 20.90625 31.390625 
Q 20.90625 42.671875 17.703125 53.65625 
Q 14.5 64.65625 8.015625 75.875 
z
" id="DejaVuSans-41"/>
      </defs>
      <use xlink:href="#DejaVuSans-83"/>
      <use x="63.476562" xlink:href="#DejaVuSans-116"/>
      <use x="102.685547" xlink:href="#DejaVuSans-97"/>
      <use x="163.964844" xlink:href="#DejaVuSans-121"/>
      <use x="223.144531" xlink:href="#DejaVuSans-32"/>
      <use x="254.931641" xlink:href="#DejaVuSans-40"/>
      <use x="293.945312" xlink:href="#DejaVuSans-105"/>
      <use x="321.728516" xlink:href="#DejaVuSans-110"/>
      <use x="385.107422" xlink:href="#DejaVuSans-32"/>
      <use x="416.894531" xlink:href="#DejaVuSans-100"/>
      <use x="480.371094" xlink:href="#DejaVuSans-97"/>
      <use x="541.650391" xlink:href="#DejaVuSans-121"/>
      <use x="600.830078" xlink:href="#DejaVuSans-115"/>
      <use x="652.929688" xlink:href="#DejaVuSans-41"/>
     </g>
    </g>
   </g>
   <g id="line2d_21">
    <path clip-path="url(#peea0d53f03)" d="M 78.64858 225.225 
L 80.816412 188.713636 
L 82.984244 166.111364 
L 85.152076 202.622727 
L 87.319908 124.384091 
L 89.48774 233.918182 
L 91.655573 141.770455 
L 93.823405 86.134091 
L 95.991237 171.327273 
L 98.159069 158.577273 
L 100.326901 181.759091 
L 102.494733 122.065909 
L 104.662566 178.281818 
L 106.830398 124.384091 
L 108.99823 172.486364 
L 111.166062 206.1 
L 113.333894 181.759091 
L 115.501726 185.236364 
L 117.669559 206.1 
L 119.837391 185.236364 
L 122.005223 178.281818 
L 124.173055 157.418182 
L 126.340887 153.940909 
L 130.676552 206.1 
L 135.012216 167.85 
L 137.180048 176.543182 
L 139.34788 225.804545 
L 143.683545 157.418182 
L 145.851377 164.372727 
L 152.354873 98.304545 
L 154.522705 126.122727 
L 156.690538 196.5375 
L 158.85837 174.804545 
L 161.026202 233.918182 
L 163.194034 199.145455 
L 165.361866 211.895455 
L 167.529698 206.1 
L 169.697531 210.446591 
L 171.865363 197.986364 
L 174.033195 181.759091 
L 176.201027 162.634091 
L 178.368859 205.404545 
L 180.536691 209.577273 
L 182.704524 173.065909 
L 184.872356 214.213636 
L 187.040188 207.838636 
L 191.375852 223.486364 
L 193.543684 80.918182 
L 195.711517 203.781818 
L 197.879349 174.804545 
L 200.047181 195.668182 
L 202.215013 158.2875 
L 204.382845 181.759091 
L 206.550677 193.060227 
L 208.71851 200.884091 
L 210.886342 182.454545 
L 213.054174 180.020455 
L 215.222006 190.203896 
L 217.389838 178.281818 
L 219.55767 211.315909 
L 221.725503 193.929545 
L 223.893335 191.031818 
L 226.061167 182.752597 
L 228.228999 185.236364 
L 230.396831 216.531818 
L 232.564663 216.531818 
L 234.732496 202.622727 
L 236.900328 199.145455 
L 239.06816 200.014773 
L 241.235992 179.672727 
L 243.403824 186.540341 
L 245.571656 216.531818 
L 247.739489 226.963636 
L 249.907321 172.63125 
L 252.075153 202.622727 
L 254.242985 176.543182 
L 256.410817 203.781818 
L 258.578649 178.977273 
L 260.746482 174.804545 
L 262.914314 199.145455 
L 265.082146 198.736364 
L 267.249978 208.418182 
L 269.41781 191.804545 
L 271.585642 120.906818 
L 273.753475 185.236364 
L 275.921307 155.969318 
L 278.089139 215.488636 
L 280.256971 165.004959 
L 282.424803 202.332955 
L 284.592635 210.112238 
L 286.760468 199.725 
L 288.9283 195.400699 
L 291.096132 200.781818 
L 293.263964 195.916558 
L 295.431796 162.634091 
L 297.599628 201.463636 
L 299.767461 188.930966 
L 301.935293 158.809091 
L 304.103125 189.061364 
L 306.270957 149.440909 
L 308.438789 185.394421 
L 310.606622 171.327273 
L 312.774454 139.229371 
L 314.942286 188.278977 
L 317.110118 189.445694 
L 319.27795 181.154348 
L 321.445782 171.327273 
L 323.613615 192.480682 
L 325.781447 198.565909 
L 327.949279 162.286364 
L 330.117111 179.275325 
L 332.284943 153.071591 
L 334.452775 174.684639 
L 336.620608 194.074432 
L 338.78844 197.24876 
L 340.956272 185.992292 
L 343.124104 140.901136 
L 345.291936 170.361364 
L 347.459768 183.690909 
L 349.627601 179.944862 
L 351.795433 183.289091 
L 353.963265 171.617045 
L 356.131097 179.037747 
L 358.298929 149.497727 
L 360.466761 184.463636 
L 362.634594 176.618775 
L 364.802426 200.781818 
L 366.970258 183.497727 
L 369.13809 184.178063 
L 371.305922 178.393988 
L 373.473754 164.189713 
L 375.641587 187.870661 
L 377.809419 193.639773 
L 379.977251 183.971901 
L 382.145083 177.078147 
L 384.312915 181.090385 
L 386.480747 184.270455 
L 388.64858 170.892614 
L 390.816412 194.740909 
L 392.984244 186.488182 
L 395.152076 193.551581 
L 397.319908 204.152727 
L 399.48774 181.284917 
L 401.655573 194.277273 
L 403.823405 170.990762 
L 405.991237 195.885511 
L 408.159069 202.970455 
L 410.326901 191.82488 
L 412.494733 159.23961 
L 414.662566 177.525889 
L 416.830398 193.303636 
L 418.99823 191.031818 
L 421.166062 179.00625 
L 423.333894 206.768706 
L 425.501726 174.387273 
L 427.669559 181.262338 
L 429.837391 182.781818 
L 432.005223 192.795652 
L 434.173055 176.069008 
L 436.340887 165.190909 
L 438.508719 206.768706 
L 440.676552 190.360766 
L 442.844384 193.234091 
L 445.012216 190.318531 
L 447.180048 202.236364 
L 449.34788 195.516996 
L 451.515712 192.577273 
L 453.683545 202.275 
L 455.851377 190.294215 
L 458.019209 211.233117 
L 460.187041 186.323011 
L 462.354873 186.781818 
L 464.522705 203.009091 
L 466.690538 189.679545 
L 468.85837 179.730682 
L 471.026202 181.386526 
L 473.194034 176.325852 
L 475.361866 193.929545 
L 477.529698 172.022727 
L 479.697531 195.668182 
L 481.865363 209.142614 
L 484.033195 178.597934 
L 486.201027 200.409917 
L 488.368859 196.75483 
L 490.536691 188.365909 
L 492.704524 206.1 
L 494.872356 192.687662 
L 497.040188 202.275 
L 499.20802 163.837762 
L 501.375852 183.063068 
L 503.543684 180.494628 
L 505.711517 196.827273 
L 507.879349 162.85142 
L 510.047181 185.429545 
L 512.215013 195.016193 
L 514.382845 181.469318 
L 516.550677 171.906818 
L 518.71851 201.753409 
L 520.886342 191.445779 
L 523.054174 196.5375 
L 525.222006 190.104545 
L 527.389838 207.680579 
L 529.55767 193.009091 
L 531.725503 193.639773 
L 533.893335 174.804545 
L 536.061167 168.948086 
L 538.228999 164.807386 
L 540.396831 186.872727 
L 542.564663 213.402273 
L 544.732496 160.627972 
L 546.900328 190.452273 
L 549.06816 186.975 
L 551.235992 194.031818 
L 553.403824 204.227622 
L 555.571656 202.970455 
L 557.739489 184.433916 
L 559.907321 200.449432 
L 562.075153 186.22987 
L 564.242985 196.054545 
L 566.410817 181.963636 
L 568.578649 202.89021 
L 570.746482 188.945455 
L 572.914314 155.813287 
L 575.082146 209.080519 
L 577.249978 183.280398 
L 579.41781 204.60974 
L 581.585642 184.166434 
L 583.753475 197.540559 
L 585.921307 167.645455 
L 588.089139 178.745455 
L 590.256971 200.449432 
L 592.424803 183.845455 
L 594.592635 188.216883 
L 596.760468 178.033442 
L 598.9283 178.077273 
L 601.096132 209.577273 
L 603.263964 186.395455 
L 605.431796 186.105682 
L 607.599628 194.972727 
L 609.767461 192.993357 
L 611.935293 180.421678 
L 614.103125 197.986364 
L 616.270957 177.315909 
L 618.438789 183.000974 
L 620.606622 199.145455 
L 622.774454 196.400239 
L 624.942286 180.237784 
L 627.110118 175.549675 
L 629.27795 176.543182 
L 631.445782 184.077273 
L 633.613615 205.35487 
L 635.781447 155.265584 
L 637.949279 197.880992 
L 640.117111 170.220868 
L 642.284943 198.413397 
L 644.452775 180.455114 
L 646.620608 178.281818 
L 648.78844 185.526136 
L 650.956272 192.335795 
L 653.124104 195.03595 
L 655.291936 186.33445 
L 657.459768 199.725 
L 659.627601 180.889773 
L 661.795433 184.85 
L 663.963265 204.013636 
L 666.131097 180.715909 
L 668.298929 184.270455 
L 670.466761 177.807645 
L 672.634594 188.864822 
L 674.802426 171.736364 
L 676.970258 171.109943 
L 679.13809 183.671591 
L 681.305922 191.495455 
L 683.473754 187.895455 
L 685.641587 189.582955 
L 687.809419 208.925284 
L 689.977251 198.493466 
L 692.145083 189.486364 
L 694.312915 185.410227 
L 696.480747 201.132468 
L 698.64858 168.139773 
L 700.816412 197.841477 
L 702.984244 187.471753 
L 705.152076 179.026948 
L 707.319908 180.986364 
L 709.48774 190.177751 
L 711.655573 210.190909 
L 713.823405 186.627273 
L 715.991237 197.290909 
L 718.159069 192.364773 
L 720.326901 198.710795 
L 722.494733 197.6 
L 724.662566 188.713636 
L 726.830398 197.655195 
L 728.99823 189.486364 
L 731.166062 208.707955 
L 733.333894 198.759091 
L 735.501726 197.624148 
L 737.669559 221.168182 
L 739.837391 199.642208 
L 742.005223 197.986364 
L 744.173055 210.858373 
L 746.340887 196.164935 
L 748.508719 212.475 
L 750.676552 208.881818 
L 752.844384 192.993357 
L 755.012216 200.884091 
L 757.180048 195.133217 
L 759.34788 198.151948 
L 761.515712 203.88719 
L 763.683545 206.1 
L 765.851377 197.986364 
L 768.019209 196.363636 
L 770.187041 199.493182 
L 772.354873 201.463636 
L 774.522705 199.145455 
L 776.690538 205.106494 
L 778.85837 208.418182 
L 781.026202 194.509091 
L 783.194034 202.043182 
L 785.361866 197.655195 
L 787.529698 214.097727 
L 789.697531 211.895455 
L 791.865363 201.927273 
L 794.033195 203.665909 
L 796.201027 206.679545 
L 798.368859 211.182168 
L 800.536691 207.093506 
L 802.704524 210.112238 
L 804.872356 211.717133 
L 807.040188 216.531818 
L 809.20802 223.138636 
L 811.375852 222.906818 
L 813.543684 216.918182 
L 815.711517 215.140909 
L 817.879349 222.854132 
L 820.047181 221.4 
L 822.215013 223.138636 
L 824.382845 229.281818 
L 826.550677 226.384091 
L 828.71851 233.048864 
L 830.886342 232.527273 
L 833.054174 237.395455 
L 835.222006 233.421429 
L 839.55767 239.134091 
L 839.55767 239.134091 
" style="fill:none;stroke:#1f77b4;stroke-linecap:square;stroke-width:0.8;"/>
   </g>
   <g id="line2d_22">
    <path clip-path="url(#peea0d53f03)" d="M 40.603125 188.884512 
L 877.603125 188.884512 
" style="fill:none;stroke:#000000;stroke-dasharray:2.96,1.28;stroke-dashoffset:0;stroke-width:0.8;"/>
   </g>
   <g id="patch_3">
    <path d="M 40.603125 252 
L 40.603125 7.2 
" style="fill:none;stroke:#000000;stroke-linecap:square;stroke-linejoin:miter;stroke-width:0.8;"/>
   </g>
   <g id="patch_4">
    <path d="M 40.603125 252 
L 877.603125 252 
" style="fill:none;stroke:#000000;stroke-linecap:square;stroke-linejoin:miter;stroke-width:0.8;"/>
   </g>
   <g id="legend_1">
    <g id="patch_5">
     <path d="M 811.35625 29.878125 
L 870.603125 29.878125 
Q 872.603125 29.878125 872.603125 27.878125 
L 872.603125 14.2 
Q 872.603125 12.2 870.603125 12.2 
L 811.35625 12.2 
Q 809.35625 12.2 809.35625 14.2 
L 809.35625 27.878125 
Q 809.35625 29.878125 811.35625 29.878125 
z
" style="fill:#ffffff;opacity:0.8;stroke:#cccccc;stroke-linejoin:miter;"/>
    </g>
    <g id="line2d_23">
     <path d="M 813.35625 20.298437 
L 833.35625 20.298437 
" style="fill:none;stroke:#000000;stroke-dasharray:2.96,1.28;stroke-dashoffset:0;stroke-width:0.8;"/>
    </g>
    <g id="line2d_24"/>
    <g id="text_23">
     <!-- Mean -->
     <g transform="translate(841.35625 23.798437)scale(0.1 -0.1)">
      <use xlink:href="#DejaVuSans-77"/>
      <use x="86.279297" xlink:href="#DejaVuSans-101"/>
      <use x="147.802734" xlink:href="#DejaVuSans-97"/>
      <use x="209.082031" xlink:href="#DejaVuSans-110"/>
     </g>
    </g>
   </g>
  </g>
 </g>
 <defs>
  <clipPath id="peea0d53f03">
   <rect height="244.8" width="837" x="40.603125" y="7.2"/>
  </clipPath>
 </defs>
</svg>
