<?xml version="1.0" encoding="utf-8" standalone="no"?>
<!DOCTYPE svg PUBLIC "-//W3C//DTD SVG 1.1//EN"
  "http://www.w3.org/Graphics/SVG/1.1/DTD/svg11.dtd">
<svg height="302.878125pt" version="1.1" viewBox="0 0 877.4875 302.878125" width="877.4875pt" xmlns="http://www.w3.org/2000/svg" xmlns:xlink="http://www.w3.org/1999/xlink">
 <metadata>
  <rdf:RDF xmlns:cc="http://creativecommons.org/ns#" xmlns:dc="http://purl.org/dc/elements/1.1/" xmlns:rdf="http://www.w3.org/1999/02/22-rdf-syntax-ns#">
   <cc:Work>
    <dc:type rdf:resource="http://purl.org/dc/dcmitype/StillImage"/>
    <dc:date>2021-03-29T19:47:59.256813</dc:date>
    <dc:format>image/svg+xml</dc:format>
    <dc:creator>
     <cc:Agent>
      <dc:title>Matplotlib v3.4.0, https://matplotlib.org/</dc:title>
     </cc:Agent>
    </dc:creator>
   </cc:Work>
  </rdf:RDF>
 </metadata>
 <defs>
  <style type="text/css">*{stroke-linecap:butt;stroke-linejoin:round;}</style>
 </defs>
 <g id="figure_1">
  <g id="patch_1">
   <path d="M 0 302.878125 
L 877.4875 302.878125 
L 877.4875 0 
L 0 0 
z
" style="fill:none;"/>
  </g>
  <g id="axes_1">
   <g id="patch_2">
    <path d="M 33.2875 279 
L 870.2875 279 
L 870.2875 7.2 
L 33.2875 7.2 
z
" style="fill:#ffffff;"/>
   </g>
   <g id="matplotlib.axis_1">
    <g id="xtick_1">
     <g id="line2d_1">
      <defs>
       <path d="M 0 0 
L 0 3.5 
" id="m5806a6a7fe" style="stroke:#000000;stroke-width:0.8;"/>
      </defs>
      <g>
       <use style="stroke:#000000;stroke-width:0.8;" x="71.332955" xlink:href="#m5806a6a7fe" y="279"/>
      </g>
     </g>
     <g id="text_1">
      <!-- 0 -->
      <g transform="translate(68.151705 293.598437)scale(0.1 -0.1)">
       <defs>
        <path d="M 2034 4250 
Q 1547 4250 1301 3770 
Q 1056 3291 1056 2328 
Q 1056 1369 1301 889 
Q 1547 409 2034 409 
Q 2525 409 2770 889 
Q 3016 1369 3016 2328 
Q 3016 3291 2770 3770 
Q 2525 4250 2034 4250 
z
M 2034 4750 
Q 2819 4750 3233 4129 
Q 3647 3509 3647 2328 
Q 3647 1150 3233 529 
Q 2819 -91 2034 -91 
Q 1250 -91 836 529 
Q 422 1150 422 2328 
Q 422 3509 836 4129 
Q 1250 4750 2034 4750 
z
" id="DejaVuSans-30" transform="scale(0.015625)"/>
       </defs>
       <use xlink:href="#DejaVuSans-30"/>
      </g>
     </g>
    </g>
    <g id="xtick_2">
     <g id="line2d_2">
      <g>
       <use style="stroke:#000000;stroke-width:0.8;" x="236.747974" xlink:href="#m5806a6a7fe" y="279"/>
      </g>
     </g>
     <g id="text_2">
      <!-- 100 -->
      <g transform="translate(227.204224 293.598437)scale(0.1 -0.1)">
       <defs>
        <path d="M 794 531 
L 1825 531 
L 1825 4091 
L 703 3866 
L 703 4441 
L 1819 4666 
L 2450 4666 
L 2450 531 
L 3481 531 
L 3481 0 
L 794 0 
L 794 531 
z
" id="DejaVuSans-31" transform="scale(0.015625)"/>
       </defs>
       <use xlink:href="#DejaVuSans-31"/>
       <use x="63.623047" xlink:href="#DejaVuSans-30"/>
       <use x="127.246094" xlink:href="#DejaVuSans-30"/>
      </g>
     </g>
    </g>
    <g id="xtick_3">
     <g id="line2d_3">
      <g>
       <use style="stroke:#000000;stroke-width:0.8;" x="402.162994" xlink:href="#m5806a6a7fe" y="279"/>
      </g>
     </g>
     <g id="text_3">
      <!-- 200 -->
      <g transform="translate(392.619244 293.598437)scale(0.1 -0.1)">
       <defs>
        <path d="M 1228 531 
L 3431 531 
L 3431 0 
L 469 0 
L 469 531 
Q 828 903 1448 1529 
Q 2069 2156 2228 2338 
Q 2531 2678 2651 2914 
Q 2772 3150 2772 3378 
Q 2772 3750 2511 3984 
Q 2250 4219 1831 4219 
Q 1534 4219 1204 4116 
Q 875 4013 500 3803 
L 500 4441 
Q 881 4594 1212 4672 
Q 1544 4750 1819 4750 
Q 2544 4750 2975 4387 
Q 3406 4025 3406 3419 
Q 3406 3131 3298 2873 
Q 3191 2616 2906 2266 
Q 2828 2175 2409 1742 
Q 1991 1309 1228 531 
z
" id="DejaVuSans-32" transform="scale(0.015625)"/>
       </defs>
       <use xlink:href="#DejaVuSans-32"/>
       <use x="63.623047" xlink:href="#DejaVuSans-30"/>
       <use x="127.246094" xlink:href="#DejaVuSans-30"/>
      </g>
     </g>
    </g>
    <g id="xtick_4">
     <g id="line2d_4">
      <g>
       <use style="stroke:#000000;stroke-width:0.8;" x="567.578014" xlink:href="#m5806a6a7fe" y="279"/>
      </g>
     </g>
     <g id="text_4">
      <!-- 300 -->
      <g transform="translate(558.034264 293.598437)scale(0.1 -0.1)">
       <defs>
        <path d="M 2597 2516 
Q 3050 2419 3304 2112 
Q 3559 1806 3559 1356 
Q 3559 666 3084 287 
Q 2609 -91 1734 -91 
Q 1441 -91 1130 -33 
Q 819 25 488 141 
L 488 750 
Q 750 597 1062 519 
Q 1375 441 1716 441 
Q 2309 441 2620 675 
Q 2931 909 2931 1356 
Q 2931 1769 2642 2001 
Q 2353 2234 1838 2234 
L 1294 2234 
L 1294 2753 
L 1863 2753 
Q 2328 2753 2575 2939 
Q 2822 3125 2822 3475 
Q 2822 3834 2567 4026 
Q 2313 4219 1838 4219 
Q 1578 4219 1281 4162 
Q 984 4106 628 3988 
L 628 4550 
Q 988 4650 1302 4700 
Q 1616 4750 1894 4750 
Q 2613 4750 3031 4423 
Q 3450 4097 3450 3541 
Q 3450 3153 3228 2886 
Q 3006 2619 2597 2516 
z
" id="DejaVuSans-33" transform="scale(0.015625)"/>
       </defs>
       <use xlink:href="#DejaVuSans-33"/>
       <use x="63.623047" xlink:href="#DejaVuSans-30"/>
       <use x="127.246094" xlink:href="#DejaVuSans-30"/>
      </g>
     </g>
    </g>
    <g id="xtick_5">
     <g id="line2d_5">
      <g>
       <use style="stroke:#000000;stroke-width:0.8;" x="732.993034" xlink:href="#m5806a6a7fe" y="279"/>
      </g>
     </g>
     <g id="text_5">
      <!-- 400 -->
      <g transform="translate(723.449284 293.598437)scale(0.1 -0.1)">
       <defs>
        <path d="M 2419 4116 
L 825 1625 
L 2419 1625 
L 2419 4116 
z
M 2253 4666 
L 3047 4666 
L 3047 1625 
L 3713 1625 
L 3713 1100 
L 3047 1100 
L 3047 0 
L 2419 0 
L 2419 1100 
L 313 1100 
L 313 1709 
L 2253 4666 
z
" id="DejaVuSans-34" transform="scale(0.015625)"/>
       </defs>
       <use xlink:href="#DejaVuSans-34"/>
       <use x="63.623047" xlink:href="#DejaVuSans-30"/>
       <use x="127.246094" xlink:href="#DejaVuSans-30"/>
      </g>
     </g>
    </g>
   </g>
   <g id="matplotlib.axis_2">
    <g id="ytick_1">
     <g id="line2d_6">
      <defs>
       <path d="M 0 0 
L -3.5 0 
" id="maee02b4e6b" style="stroke:#000000;stroke-width:0.8;"/>
      </defs>
      <g>
       <use style="stroke:#000000;stroke-width:0.8;" x="33.2875" xlink:href="#maee02b4e6b" y="266.791576"/>
      </g>
     </g>
     <g id="text_6">
      <!-- 0 -->
      <g transform="translate(19.925 270.590794)scale(0.1 -0.1)">
       <use xlink:href="#DejaVuSans-30"/>
      </g>
     </g>
    </g>
    <g id="ytick_2">
     <g id="line2d_7">
      <g>
       <use style="stroke:#000000;stroke-width:0.8;" x="33.2875" xlink:href="#maee02b4e6b" y="230.261282"/>
      </g>
     </g>
     <g id="text_7">
      <!-- 50 -->
      <g transform="translate(13.5625 234.0605)scale(0.1 -0.1)">
       <defs>
        <path d="M 691 4666 
L 3169 4666 
L 3169 4134 
L 1269 4134 
L 1269 2991 
Q 1406 3038 1543 3061 
Q 1681 3084 1819 3084 
Q 2600 3084 3056 2656 
Q 3513 2228 3513 1497 
Q 3513 744 3044 326 
Q 2575 -91 1722 -91 
Q 1428 -91 1123 -41 
Q 819 9 494 109 
L 494 744 
Q 775 591 1075 516 
Q 1375 441 1709 441 
Q 2250 441 2565 725 
Q 2881 1009 2881 1497 
Q 2881 1984 2565 2268 
Q 2250 2553 1709 2553 
Q 1456 2553 1204 2497 
Q 953 2441 691 2322 
L 691 4666 
z
" id="DejaVuSans-35" transform="scale(0.015625)"/>
       </defs>
       <use xlink:href="#DejaVuSans-35"/>
       <use x="63.623047" xlink:href="#DejaVuSans-30"/>
      </g>
     </g>
    </g>
    <g id="ytick_3">
     <g id="line2d_8">
      <g>
       <use style="stroke:#000000;stroke-width:0.8;" x="33.2875" xlink:href="#maee02b4e6b" y="193.730988"/>
      </g>
     </g>
     <g id="text_8">
      <!-- 100 -->
      <g transform="translate(7.2 197.530206)scale(0.1 -0.1)">
       <use xlink:href="#DejaVuSans-31"/>
       <use x="63.623047" xlink:href="#DejaVuSans-30"/>
       <use x="127.246094" xlink:href="#DejaVuSans-30"/>
      </g>
     </g>
    </g>
    <g id="ytick_4">
     <g id="line2d_9">
      <g>
       <use style="stroke:#000000;stroke-width:0.8;" x="33.2875" xlink:href="#maee02b4e6b" y="157.200694"/>
      </g>
     </g>
     <g id="text_9">
      <!-- 150 -->
      <g transform="translate(7.2 160.999912)scale(0.1 -0.1)">
       <use xlink:href="#DejaVuSans-31"/>
       <use x="63.623047" xlink:href="#DejaVuSans-35"/>
       <use x="127.246094" xlink:href="#DejaVuSans-30"/>
      </g>
     </g>
    </g>
    <g id="ytick_5">
     <g id="line2d_10">
      <g>
       <use style="stroke:#000000;stroke-width:0.8;" x="33.2875" xlink:href="#maee02b4e6b" y="120.670399"/>
      </g>
     </g>
     <g id="text_10">
      <!-- 200 -->
      <g transform="translate(7.2 124.469618)scale(0.1 -0.1)">
       <use xlink:href="#DejaVuSans-32"/>
       <use x="63.623047" xlink:href="#DejaVuSans-30"/>
       <use x="127.246094" xlink:href="#DejaVuSans-30"/>
      </g>
     </g>
    </g>
    <g id="ytick_6">
     <g id="line2d_11">
      <g>
       <use style="stroke:#000000;stroke-width:0.8;" x="33.2875" xlink:href="#maee02b4e6b" y="84.140105"/>
      </g>
     </g>
     <g id="text_11">
      <!-- 250 -->
      <g transform="translate(7.2 87.939324)scale(0.1 -0.1)">
       <use xlink:href="#DejaVuSans-32"/>
       <use x="63.623047" xlink:href="#DejaVuSans-35"/>
       <use x="127.246094" xlink:href="#DejaVuSans-30"/>
      </g>
     </g>
    </g>
    <g id="ytick_7">
     <g id="line2d_12">
      <g>
       <use style="stroke:#000000;stroke-width:0.8;" x="33.2875" xlink:href="#maee02b4e6b" y="47.609811"/>
      </g>
     </g>
     <g id="text_12">
      <!-- 300 -->
      <g transform="translate(7.2 51.40903)scale(0.1 -0.1)">
       <use xlink:href="#DejaVuSans-33"/>
       <use x="63.623047" xlink:href="#DejaVuSans-30"/>
       <use x="127.246094" xlink:href="#DejaVuSans-30"/>
      </g>
     </g>
    </g>
    <g id="ytick_8">
     <g id="line2d_13">
      <g>
       <use style="stroke:#000000;stroke-width:0.8;" x="33.2875" xlink:href="#maee02b4e6b" y="11.079517"/>
      </g>
     </g>
     <g id="text_13">
      <!-- 350 -->
      <g transform="translate(7.2 14.878736)scale(0.1 -0.1)">
       <use xlink:href="#DejaVuSans-33"/>
       <use x="63.623047" xlink:href="#DejaVuSans-35"/>
       <use x="127.246094" xlink:href="#DejaVuSans-30"/>
      </g>
     </g>
    </g>
   </g>
   <g id="line2d_14">
    <path clip-path="url(#p6b44dcbb18)" d="M 71.332955 265.330364 
L 72.987105 264.599758 
L 74.641255 263.138546 
L 76.295405 262.40794 
L 77.949555 261.09285 
L 79.603706 259.631638 
L 81.257856 259.193275 
L 82.912006 258.024305 
L 84.566156 257.147578 
L 86.220306 255.101882 
L 87.874457 253.494549 
L 89.528607 250.279883 
L 92.836907 249.98764 
L 94.491057 249.549277 
L 97.799358 247.50358 
L 99.453508 247.649702 
L 101.107658 247.649702 
L 102.761808 247.795823 
L 104.415958 247.50358 
L 106.070109 246.480732 
L 109.378409 248.818671 
L 111.032559 250.718246 
L 112.686709 251.594973 
L 114.34086 251.887216 
L 115.99501 251.010489 
L 117.64916 249.549277 
L 119.30331 248.526429 
L 120.95746 249.110913 
L 122.611611 248.818671 
L 124.265761 249.695398 
L 125.919911 250.133762 
L 127.574061 251.010489 
L 129.228211 251.302731 
L 130.882362 249.110913 
L 132.536512 247.795823 
L 134.190662 248.526429 
L 135.844812 248.67255 
L 137.498962 247.649702 
L 139.153113 248.818671 
L 140.807263 247.795823 
L 142.461413 246.919096 
L 144.115563 248.380308 
L 145.769713 248.380308 
L 147.423864 245.750126 
L 149.078014 246.480732 
L 150.732164 242.973824 
L 152.386314 241.658733 
L 154.040464 241.804855 
L 155.694615 242.681582 
L 157.348765 242.243218 
L 159.002915 243.266066 
L 160.657065 241.658733 
L 162.311215 238.005704 
L 163.965366 238.297946 
L 165.619516 235.960008 
L 167.273666 236.25225 
L 168.927816 236.106129 
L 172.236117 232.160857 
L 173.890267 228.946191 
L 175.544417 227.192737 
L 177.198567 228.80007 
L 178.852717 227.923343 
L 180.506868 231.430251 
L 182.161018 231.138009 
L 183.815168 228.80007 
L 185.469318 228.069464 
L 187.123468 229.530676 
L 188.777619 230.553524 
L 190.431769 228.946191 
L 192.085919 229.822918 
L 193.740069 229.969039 
L 195.394219 228.069464 
L 197.04837 224.270313 
L 198.70252 226.023768 
L 200.35667 225.585404 
L 202.01082 221.201769 
L 203.66497 220.17892 
L 205.319121 217.69486 
L 206.973271 214.187952 
L 208.627421 214.772437 
L 210.281571 210.827165 
L 211.935721 211.703892 
L 213.589872 201.329289 
L 215.244022 200.014198 
L 216.898172 199.721956 
L 218.552322 197.530138 
L 220.206472 193.438745 
L 221.860623 190.077958 
L 223.514773 188.178383 
L 226.823073 182.771899 
L 228.477223 178.534385 
L 230.131374 175.904204 
L 231.785524 172.105053 
L 233.439674 165.091237 
L 235.093824 159.538632 
L 236.747974 158.661905 
L 238.402125 156.323966 
L 240.056275 153.547664 
L 241.710425 149.894635 
L 243.364575 143.026939 
L 245.018725 137.328214 
L 246.672875 130.752761 
L 248.327026 131.337245 
L 249.981176 130.752761 
L 251.635326 123.446702 
L 253.289476 121.839369 
L 254.943626 117.747976 
L 256.597777 115.410037 
L 258.251927 107.957857 
L 259.906077 102.11301 
L 261.560227 97.437132 
L 263.214377 95.975921 
L 264.868528 92.322891 
L 266.522678 82.386651 
L 268.176828 75.811198 
L 271.485128 67.043928 
L 273.139279 65.728837 
L 274.793429 66.897807 
L 276.447579 62.221929 
L 278.101729 59.299505 
L 279.755879 53.308537 
L 281.41003 58.5689 
L 283.06418 56.377082 
L 284.71833 55.500355 
L 286.37248 58.715021 
L 288.02663 54.039143 
L 289.680781 54.91587 
L 291.334931 51.701204 
L 292.989081 50.093871 
L 294.643231 41.764964 
L 296.297381 44.97963 
L 297.951532 33.874421 
L 299.605682 24.961029 
L 301.259832 23.207575 
L 302.913982 22.62309 
L 304.568132 19.554545 
L 306.222283 23.207575 
L 307.876433 26.27612 
L 309.530583 31.682603 
L 311.184733 29.052422 
L 312.838883 27.883453 
L 314.493034 27.883453 
L 316.147184 26.129998 
L 317.801334 30.805876 
L 319.455484 21.454121 
L 321.109634 27.152847 
L 322.763785 30.07527 
L 324.417935 29.783028 
L 326.072085 29.783028 
L 327.726235 27.883453 
L 329.380385 24.230423 
L 331.034536 27.883453 
L 332.688686 25.399393 
L 334.342836 21.746363 
L 335.996986 23.353696 
L 339.305287 32.705451 
L 340.959437 33.289936 
L 342.613587 34.166663 
L 344.267737 38.258056 
L 345.921887 35.627875 
L 347.576038 35.627875 
L 349.230188 29.490785 
L 350.884338 32.55933 
L 352.538488 35.189511 
L 354.192638 34.751148 
L 355.846789 40.01151 
L 357.500939 39.427025 
L 359.155089 37.52745 
L 360.809239 38.550298 
L 362.463389 45.125751 
L 364.11754 38.842541 
L 365.77169 47.902054 
L 367.42584 50.824477 
L 369.07999 56.523203 
L 370.73414 52.43181 
L 372.388291 55.938718 
L 374.042441 53.162416 
L 375.696591 54.185264 
L 377.350741 58.276657 
L 379.004891 63.829262 
L 380.659042 59.153384 
L 382.313192 65.582716 
L 383.967342 66.459443 
L 385.621492 66.167201 
L 387.275642 63.829262 
L 388.929792 69.381867 
L 390.583943 73.619381 
L 393.892243 80.340955 
L 395.546393 86.770287 
L 397.200543 89.254347 
L 398.854694 89.254347 
L 400.508844 88.085377 
L 402.162994 89.838831 
L 403.817144 90.861679 
L 405.471294 93.784103 
L 407.125445 90.131074 
L 408.779595 90.423316 
L 410.433745 93.930224 
L 413.742045 99.921192 
L 415.396196 94.222467 
L 417.050346 98.606102 
L 418.704496 96.122042 
L 420.358646 94.66083 
L 422.012796 99.921192 
L 423.666947 98.313859 
L 425.321097 104.158707 
L 426.975247 105.473797 
L 428.629397 105.327676 
L 430.283547 107.957857 
L 431.937698 107.08113 
L 433.591848 107.08113 
L 435.245998 110.149675 
L 436.900148 110.441917 
L 438.554298 106.935009 
L 440.208449 109.419069 
L 441.862599 113.072098 
L 443.516749 111.610887 
L 445.170899 111.464765 
L 446.825049 110.734159 
L 448.4792 109.857432 
L 450.13335 117.163491 
L 451.7875 117.747976 
L 453.44165 117.309612 
L 455.0958 117.747976 
L 456.749951 118.040218 
L 458.404101 112.487614 
L 460.058251 112.633735 
L 461.712401 111.464765 
L 463.366551 105.912161 
L 465.020702 106.642767 
L 466.674852 106.496645 
L 468.329002 104.743191 
L 469.983152 108.542342 
L 471.637302 107.519494 
L 473.291453 110.880281 
L 474.945603 107.373372 
L 476.599753 105.327676 
L 478.253903 108.834584 
L 479.908053 104.59707 
L 481.562204 103.135858 
L 483.216354 103.428101 
L 484.870504 103.866464 
L 486.524654 102.989737 
L 488.178804 101.382404 
L 489.832955 101.382404 
L 491.487105 102.11301 
L 493.141255 102.11301 
L 494.795405 102.697495 
L 496.449555 98.167738 
L 498.103706 96.122042 
L 499.757856 94.514709 
L 501.412006 92.322891 
L 503.066156 86.331923 
L 504.720306 84.870711 
L 506.374457 89.400468 
L 508.028607 80.925439 
L 509.682757 74.349987 
L 511.336907 73.619381 
L 512.991057 77.710774 
L 514.645208 79.902591 
L 516.299358 85.309075 
L 517.953508 88.523741 
L 519.607658 87.500892 
L 521.261808 87.062529 
L 522.915958 86.039681 
L 524.570109 82.532772 
L 526.224259 81.802167 
L 527.878409 83.409499 
L 529.532559 80.925439 
L 532.84086 85.893559 
L 534.49501 81.217682 
L 536.14916 85.455196 
L 537.80331 87.939256 
L 539.45746 93.784103 
L 541.111611 92.030649 
L 542.765761 88.815983 
L 544.419911 88.815983 
L 546.074061 87.793135 
L 547.728211 93.053497 
L 549.382362 95.099194 
L 551.036512 89.254347 
L 552.690662 87.20865 
L 554.344812 87.793135 
L 555.998962 87.062529 
L 557.653113 86.916408 
L 559.307263 86.624165 
L 560.961413 89.984952 
L 562.615563 94.368588 
L 564.269713 100.359556 
L 565.923864 103.428101 
L 567.578014 100.505677 
L 569.232164 98.752223 
L 570.886314 104.59707 
L 572.540464 104.450949 
L 574.194615 111.757008 
L 575.848765 113.948825 
L 577.502915 114.971674 
L 579.157065 110.295796 
L 580.811215 113.072098 
L 582.465366 111.464765 
L 584.119516 118.186339 
L 585.773666 117.455734 
L 587.427816 122.569975 
L 589.081966 121.693248 
L 590.736117 122.277732 
L 592.390267 121.547126 
L 594.044417 124.031186 
L 595.698567 122.569975 
L 597.352717 128.707064 
L 599.006868 129.729912 
L 600.661018 126.223004 
L 602.315168 129.583791 
L 603.969318 126.95361 
L 605.623468 125.638519 
L 607.277619 125.930762 
L 608.931769 130.606639 
L 610.585919 136.013123 
L 612.240069 138.058819 
L 613.894219 136.743729 
L 615.54837 133.967426 
L 617.20252 133.967426 
L 618.85667 132.360094 
L 620.51082 131.92173 
L 622.16497 134.990275 
L 623.819121 132.652336 
L 625.473271 134.259669 
L 627.127421 133.090699 
L 628.781571 133.236821 
L 630.435721 133.967426 
L 632.089872 128.853185 
L 633.744022 130.460518 
L 635.398172 134.259669 
L 637.052322 136.743729 
L 638.706472 137.035971 
L 640.360623 139.958395 
L 642.014773 139.958395 
L 643.668923 139.520031 
L 645.323073 144.049788 
L 646.977223 150.479119 
L 648.631374 154.424391 
L 650.285524 161.584329 
L 651.939674 167.721418 
L 653.593824 174.735235 
L 656.902125 185.694323 
L 658.556275 190.954685 
L 660.210425 196.945653 
L 661.864575 200.744804 
L 663.518725 205.712924 
L 665.172875 210.242681 
L 666.827026 214.187952 
L 668.481176 217.69486 
L 670.135326 222.224617 
L 671.789476 225.439283 
L 673.443626 228.069464 
L 676.751927 235.375523 
L 678.406077 236.982856 
L 680.060227 238.005704 
L 681.714377 238.73631 
L 685.022678 241.074249 
L 686.676828 242.681582 
L 688.330978 244.727278 
L 689.985128 246.18849 
L 691.639279 247.941944 
L 693.293429 249.257035 
L 694.947579 250.133762 
L 696.601729 250.718246 
L 698.255879 251.887216 
L 699.91003 252.4717 
L 701.56418 252.617822 
L 703.21833 253.056185 
L 704.87248 254.079033 
L 706.52663 254.809639 
L 708.180781 255.832488 
L 709.834931 256.270851 
L 711.489081 257.001457 
L 713.143231 257.293699 
L 714.797381 258.024305 
L 718.105682 258.316547 
L 719.759832 258.901032 
L 721.413982 259.631638 
L 723.068132 260.070002 
L 724.722283 260.946729 
L 726.376433 261.531213 
L 728.030583 261.823456 
L 729.684733 261.823456 
L 732.993034 262.40794 
L 736.301334 262.40794 
L 737.955484 262.846304 
L 739.609634 263.138546 
L 741.263785 263.138546 
L 742.917935 263.284667 
L 744.572085 263.284667 
L 747.880385 263.869152 
L 752.842836 263.869152 
L 754.496986 264.161395 
L 756.151136 264.745879 
L 757.805287 264.745879 
L 759.459437 265.038122 
L 764.421887 265.038122 
L 766.076038 265.184243 
L 767.730188 265.184243 
L 769.384338 265.330364 
L 777.655089 265.330364 
L 779.309239 265.476485 
L 785.92584 265.476485 
L 787.57999 265.622606 
L 789.23414 265.622606 
L 790.888291 265.768727 
L 792.542441 265.768727 
L 795.850741 266.353212 
L 822.317144 266.353212 
L 823.971294 266.645455 
L 832.242045 266.645455 
L 832.242045 266.645455 
" style="fill:none;stroke:#1f77b4;stroke-linecap:square;stroke-width:1.5;"/>
   </g>
   <g id="patch_3">
    <path d="M 33.2875 279 
L 33.2875 7.2 
" style="fill:none;stroke:#000000;stroke-linecap:square;stroke-linejoin:miter;stroke-width:0.8;"/>
   </g>
   <g id="patch_4">
    <path d="M 870.2875 279 
L 870.2875 7.2 
" style="fill:none;stroke:#000000;stroke-linecap:square;stroke-linejoin:miter;stroke-width:0.8;"/>
   </g>
   <g id="patch_5">
    <path d="M 33.2875 279 
L 870.2875 279 
" style="fill:none;stroke:#000000;stroke-linecap:square;stroke-linejoin:miter;stroke-width:0.8;"/>
   </g>
   <g id="patch_6">
    <path d="M 33.2875 7.2 
L 870.2875 7.2 
" style="fill:none;stroke:#000000;stroke-linecap:square;stroke-linejoin:miter;stroke-width:0.8;"/>
   </g>
  </g>
 </g>
 <defs>
  <clipPath id="p6b44dcbb18">
   <rect height="271.8" width="837" x="33.2875" y="7.2"/>
  </clipPath>
 </defs>
</svg>
