<?xml version="1.0" encoding="utf-8" standalone="no"?>
<!DOCTYPE svg PUBLIC "-//W3C//DTD SVG 1.1//EN"
  "http://www.w3.org/Graphics/SVG/1.1/DTD/svg11.dtd">
<!-- Created with matplotlib (https://matplotlib.org/) -->
<svg height="304.937682pt" version="1.1" viewBox="0 0 877.4875 304.937682" width="877.4875pt" xmlns="http://www.w3.org/2000/svg" xmlns:xlink="http://www.w3.org/1999/xlink">
 <metadata>
  <rdf:RDF xmlns:cc="http://creativecommons.org/ns#" xmlns:dc="http://purl.org/dc/elements/1.1/" xmlns:rdf="http://www.w3.org/1999/02/22-rdf-syntax-ns#">
   <cc:Work>
    <dc:type rdf:resource="http://purl.org/dc/dcmitype/StillImage"/>
    <dc:date>2021-03-14T22:08:09.823865</dc:date>
    <dc:format>image/svg+xml</dc:format>
    <dc:creator>
     <cc:Agent>
      <dc:title>Matplotlib v3.3.4, https://matplotlib.org/</dc:title>
     </cc:Agent>
    </dc:creator>
   </cc:Work>
  </rdf:RDF>
 </metadata>
 <defs>
  <style type="text/css">*{stroke-linecap:butt;stroke-linejoin:round;}</style>
 </defs>
 <g id="figure_1">
  <g id="patch_1">
   <path d="M 0 304.937682 
L 877.4875 304.937682 
L 877.4875 0 
L 0 0 
z
" style="fill:none;"/>
  </g>
  <g id="axes_1">
   <g id="patch_2">
    <path d="M 33.2875 281.059557 
L 870.2875 281.059557 
L 870.2875 9.259557 
L 33.2875 9.259557 
z
" style="fill:#ffffff;"/>
   </g>
   <g id="matplotlib.axis_1">
    <g id="xtick_1">
     <g id="line2d_1">
      <defs>
       <path d="M 0 0 
L 0 3.5 
" id="m126df54c5d" style="stroke:#000000;stroke-width:0.8;"/>
      </defs>
      <g>
       <use style="stroke:#000000;stroke-width:0.8;" x="71.332955" xlink:href="#m126df54c5d" y="281.059557"/>
      </g>
     </g>
     <g id="text_1">
      <!-- 0 -->
      <g transform="translate(68.151705 295.657995)scale(0.1 -0.1)">
       <defs>
        <path d="M 31.78125 66.40625 
Q 24.171875 66.40625 20.328125 58.90625 
Q 16.5 51.421875 16.5 36.375 
Q 16.5 21.390625 20.328125 13.890625 
Q 24.171875 6.390625 31.78125 6.390625 
Q 39.453125 6.390625 43.28125 13.890625 
Q 47.125 21.390625 47.125 36.375 
Q 47.125 51.421875 43.28125 58.90625 
Q 39.453125 66.40625 31.78125 66.40625 
z
M 31.78125 74.21875 
Q 44.046875 74.21875 50.515625 64.515625 
Q 56.984375 54.828125 56.984375 36.375 
Q 56.984375 17.96875 50.515625 8.265625 
Q 44.046875 -1.421875 31.78125 -1.421875 
Q 19.53125 -1.421875 13.0625 8.265625 
Q 6.59375 17.96875 6.59375 36.375 
Q 6.59375 54.828125 13.0625 64.515625 
Q 19.53125 74.21875 31.78125 74.21875 
z
" id="DejaVuSans-48"/>
       </defs>
       <use xlink:href="#DejaVuSans-48"/>
      </g>
     </g>
    </g>
    <g id="xtick_2">
     <g id="line2d_2">
      <g>
       <use style="stroke:#000000;stroke-width:0.8;" x="222.306981" xlink:href="#m126df54c5d" y="281.059557"/>
      </g>
     </g>
     <g id="text_2">
      <!-- 100 -->
      <g transform="translate(212.763231 295.657995)scale(0.1 -0.1)">
       <defs>
        <path d="M 12.40625 8.296875 
L 28.515625 8.296875 
L 28.515625 63.921875 
L 10.984375 60.40625 
L 10.984375 69.390625 
L 28.421875 72.90625 
L 38.28125 72.90625 
L 38.28125 8.296875 
L 54.390625 8.296875 
L 54.390625 0 
L 12.40625 0 
z
" id="DejaVuSans-49"/>
       </defs>
       <use xlink:href="#DejaVuSans-49"/>
       <use x="63.623047" xlink:href="#DejaVuSans-48"/>
       <use x="127.246094" xlink:href="#DejaVuSans-48"/>
      </g>
     </g>
    </g>
    <g id="xtick_3">
     <g id="line2d_3">
      <g>
       <use style="stroke:#000000;stroke-width:0.8;" x="373.281006" xlink:href="#m126df54c5d" y="281.059557"/>
      </g>
     </g>
     <g id="text_3">
      <!-- 200 -->
      <g transform="translate(363.737256 295.657995)scale(0.1 -0.1)">
       <defs>
        <path d="M 19.1875 8.296875 
L 53.609375 8.296875 
L 53.609375 0 
L 7.328125 0 
L 7.328125 8.296875 
Q 12.9375 14.109375 22.625 23.890625 
Q 32.328125 33.6875 34.8125 36.53125 
Q 39.546875 41.84375 41.421875 45.53125 
Q 43.3125 49.21875 43.3125 52.78125 
Q 43.3125 58.59375 39.234375 62.25 
Q 35.15625 65.921875 28.609375 65.921875 
Q 23.96875 65.921875 18.8125 64.3125 
Q 13.671875 62.703125 7.8125 59.421875 
L 7.8125 69.390625 
Q 13.765625 71.78125 18.9375 73 
Q 24.125 74.21875 28.421875 74.21875 
Q 39.75 74.21875 46.484375 68.546875 
Q 53.21875 62.890625 53.21875 53.421875 
Q 53.21875 48.921875 51.53125 44.890625 
Q 49.859375 40.875 45.40625 35.40625 
Q 44.1875 33.984375 37.640625 27.21875 
Q 31.109375 20.453125 19.1875 8.296875 
z
" id="DejaVuSans-50"/>
       </defs>
       <use xlink:href="#DejaVuSans-50"/>
       <use x="63.623047" xlink:href="#DejaVuSans-48"/>
       <use x="127.246094" xlink:href="#DejaVuSans-48"/>
      </g>
     </g>
    </g>
    <g id="xtick_4">
     <g id="line2d_4">
      <g>
       <use style="stroke:#000000;stroke-width:0.8;" x="524.255032" xlink:href="#m126df54c5d" y="281.059557"/>
      </g>
     </g>
     <g id="text_4">
      <!-- 300 -->
      <g transform="translate(514.711282 295.657995)scale(0.1 -0.1)">
       <defs>
        <path d="M 40.578125 39.3125 
Q 47.65625 37.796875 51.625 33 
Q 55.609375 28.21875 55.609375 21.1875 
Q 55.609375 10.40625 48.1875 4.484375 
Q 40.765625 -1.421875 27.09375 -1.421875 
Q 22.515625 -1.421875 17.65625 -0.515625 
Q 12.796875 0.390625 7.625 2.203125 
L 7.625 11.71875 
Q 11.71875 9.328125 16.59375 8.109375 
Q 21.484375 6.890625 26.8125 6.890625 
Q 36.078125 6.890625 40.9375 10.546875 
Q 45.796875 14.203125 45.796875 21.1875 
Q 45.796875 27.640625 41.28125 31.265625 
Q 36.765625 34.90625 28.71875 34.90625 
L 20.21875 34.90625 
L 20.21875 43.015625 
L 29.109375 43.015625 
Q 36.375 43.015625 40.234375 45.921875 
Q 44.09375 48.828125 44.09375 54.296875 
Q 44.09375 59.90625 40.109375 62.90625 
Q 36.140625 65.921875 28.71875 65.921875 
Q 24.65625 65.921875 20.015625 65.03125 
Q 15.375 64.15625 9.8125 62.3125 
L 9.8125 71.09375 
Q 15.4375 72.65625 20.34375 73.4375 
Q 25.25 74.21875 29.59375 74.21875 
Q 40.828125 74.21875 47.359375 69.109375 
Q 53.90625 64.015625 53.90625 55.328125 
Q 53.90625 49.265625 50.4375 45.09375 
Q 46.96875 40.921875 40.578125 39.3125 
z
" id="DejaVuSans-51"/>
       </defs>
       <use xlink:href="#DejaVuSans-51"/>
       <use x="63.623047" xlink:href="#DejaVuSans-48"/>
       <use x="127.246094" xlink:href="#DejaVuSans-48"/>
      </g>
     </g>
    </g>
    <g id="xtick_5">
     <g id="line2d_5">
      <g>
       <use style="stroke:#000000;stroke-width:0.8;" x="675.229058" xlink:href="#m126df54c5d" y="281.059557"/>
      </g>
     </g>
     <g id="text_5">
      <!-- 400 -->
      <g transform="translate(665.685308 295.657995)scale(0.1 -0.1)">
       <defs>
        <path d="M 37.796875 64.3125 
L 12.890625 25.390625 
L 37.796875 25.390625 
z
M 35.203125 72.90625 
L 47.609375 72.90625 
L 47.609375 25.390625 
L 58.015625 25.390625 
L 58.015625 17.1875 
L 47.609375 17.1875 
L 47.609375 0 
L 37.796875 0 
L 37.796875 17.1875 
L 4.890625 17.1875 
L 4.890625 26.703125 
z
" id="DejaVuSans-52"/>
       </defs>
       <use xlink:href="#DejaVuSans-52"/>
       <use x="63.623047" xlink:href="#DejaVuSans-48"/>
       <use x="127.246094" xlink:href="#DejaVuSans-48"/>
      </g>
     </g>
    </g>
    <g id="xtick_6">
     <g id="line2d_6">
      <g>
       <use style="stroke:#000000;stroke-width:0.8;" x="826.203084" xlink:href="#m126df54c5d" y="281.059557"/>
      </g>
     </g>
     <g id="text_6">
      <!-- 500 -->
      <g transform="translate(816.659334 295.657995)scale(0.1 -0.1)">
       <defs>
        <path d="M 10.796875 72.90625 
L 49.515625 72.90625 
L 49.515625 64.59375 
L 19.828125 64.59375 
L 19.828125 46.734375 
Q 21.96875 47.46875 24.109375 47.828125 
Q 26.265625 48.1875 28.421875 48.1875 
Q 40.625 48.1875 47.75 41.5 
Q 54.890625 34.8125 54.890625 23.390625 
Q 54.890625 11.625 47.5625 5.09375 
Q 40.234375 -1.421875 26.90625 -1.421875 
Q 22.3125 -1.421875 17.546875 -0.640625 
Q 12.796875 0.140625 7.71875 1.703125 
L 7.71875 11.625 
Q 12.109375 9.234375 16.796875 8.0625 
Q 21.484375 6.890625 26.703125 6.890625 
Q 35.15625 6.890625 40.078125 11.328125 
Q 45.015625 15.765625 45.015625 23.390625 
Q 45.015625 31 40.078125 35.4375 
Q 35.15625 39.890625 26.703125 39.890625 
Q 22.75 39.890625 18.8125 39.015625 
Q 14.890625 38.140625 10.796875 36.28125 
z
" id="DejaVuSans-53"/>
       </defs>
       <use xlink:href="#DejaVuSans-53"/>
       <use x="63.623047" xlink:href="#DejaVuSans-48"/>
       <use x="127.246094" xlink:href="#DejaVuSans-48"/>
      </g>
     </g>
    </g>
   </g>
   <g id="matplotlib.axis_2">
    <g id="ytick_1">
     <g id="line2d_7">
      <defs>
       <path d="M 0 0 
L -3.5 0 
" id="m333adf6ff2" style="stroke:#000000;stroke-width:0.8;"/>
      </defs>
      <g>
       <use style="stroke:#000000;stroke-width:0.8;" x="33.2875" xlink:href="#m333adf6ff2" y="268.99987"/>
      </g>
     </g>
     <g id="text_7">
      <!-- 0 -->
      <g transform="translate(19.925 272.799088)scale(0.1 -0.1)">
       <use xlink:href="#DejaVuSans-48"/>
      </g>
     </g>
    </g>
    <g id="ytick_2">
     <g id="line2d_8">
      <g>
       <use style="stroke:#000000;stroke-width:0.8;" x="33.2875" xlink:href="#m333adf6ff2" y="232.142634"/>
      </g>
     </g>
     <g id="text_8">
      <!-- 50 -->
      <g transform="translate(13.5625 235.941853)scale(0.1 -0.1)">
       <use xlink:href="#DejaVuSans-53"/>
       <use x="63.623047" xlink:href="#DejaVuSans-48"/>
      </g>
     </g>
    </g>
    <g id="ytick_3">
     <g id="line2d_9">
      <g>
       <use style="stroke:#000000;stroke-width:0.8;" x="33.2875" xlink:href="#m333adf6ff2" y="195.285398"/>
      </g>
     </g>
     <g id="text_9">
      <!-- 100 -->
      <g transform="translate(7.2 199.084617)scale(0.1 -0.1)">
       <use xlink:href="#DejaVuSans-49"/>
       <use x="63.623047" xlink:href="#DejaVuSans-48"/>
       <use x="127.246094" xlink:href="#DejaVuSans-48"/>
      </g>
     </g>
    </g>
    <g id="ytick_4">
     <g id="line2d_10">
      <g>
       <use style="stroke:#000000;stroke-width:0.8;" x="33.2875" xlink:href="#m333adf6ff2" y="158.428162"/>
      </g>
     </g>
     <g id="text_10">
      <!-- 150 -->
      <g transform="translate(7.2 162.227381)scale(0.1 -0.1)">
       <use xlink:href="#DejaVuSans-49"/>
       <use x="63.623047" xlink:href="#DejaVuSans-53"/>
       <use x="127.246094" xlink:href="#DejaVuSans-48"/>
      </g>
     </g>
    </g>
    <g id="ytick_5">
     <g id="line2d_11">
      <g>
       <use style="stroke:#000000;stroke-width:0.8;" x="33.2875" xlink:href="#m333adf6ff2" y="121.570926"/>
      </g>
     </g>
     <g id="text_11">
      <!-- 200 -->
      <g transform="translate(7.2 125.370145)scale(0.1 -0.1)">
       <use xlink:href="#DejaVuSans-50"/>
       <use x="63.623047" xlink:href="#DejaVuSans-48"/>
       <use x="127.246094" xlink:href="#DejaVuSans-48"/>
      </g>
     </g>
    </g>
    <g id="ytick_6">
     <g id="line2d_12">
      <g>
       <use style="stroke:#000000;stroke-width:0.8;" x="33.2875" xlink:href="#m333adf6ff2" y="84.71369"/>
      </g>
     </g>
     <g id="text_12">
      <!-- 250 -->
      <g transform="translate(7.2 88.512909)scale(0.1 -0.1)">
       <use xlink:href="#DejaVuSans-50"/>
       <use x="63.623047" xlink:href="#DejaVuSans-53"/>
       <use x="127.246094" xlink:href="#DejaVuSans-48"/>
      </g>
     </g>
    </g>
    <g id="ytick_7">
     <g id="line2d_13">
      <g>
       <use style="stroke:#000000;stroke-width:0.8;" x="33.2875" xlink:href="#m333adf6ff2" y="47.856455"/>
      </g>
     </g>
     <g id="text_13">
      <!-- 300 -->
      <g transform="translate(7.2 51.655673)scale(0.1 -0.1)">
       <use xlink:href="#DejaVuSans-51"/>
       <use x="63.623047" xlink:href="#DejaVuSans-48"/>
       <use x="127.246094" xlink:href="#DejaVuSans-48"/>
      </g>
     </g>
    </g>
    <g id="ytick_8">
     <g id="line2d_14">
      <g>
       <use style="stroke:#000000;stroke-width:0.8;" x="33.2875" xlink:href="#m333adf6ff2" y="10.999219"/>
      </g>
     </g>
     <g id="text_14">
      <!-- 350 -->
      <g transform="translate(7.2 14.798438)scale(0.1 -0.1)">
       <use xlink:href="#DejaVuSans-51"/>
       <use x="63.623047" xlink:href="#DejaVuSans-53"/>
       <use x="127.246094" xlink:href="#DejaVuSans-48"/>
      </g>
     </g>
    </g>
   </g>
   <g id="line2d_15">
    <path clip-path="url(#p6ba6c6dae7)" d="M 71.332955 267.52558 
L 72.842695 267.083293 
L 74.352435 265.609004 
L 75.862175 265.019288 
L 77.371916 263.987286 
L 78.881656 263.102712 
L 81.901136 260.301562 
L 83.410877 259.416988 
L 84.920617 257.205554 
L 86.430357 255.878694 
L 87.940097 252.045541 
L 89.449838 251.455825 
L 90.959578 250.571252 
L 92.469318 250.276394 
L 93.979058 249.244391 
L 95.488799 248.802104 
L 96.998539 249.539249 
L 98.508279 250.718681 
L 100.018019 250.86611 
L 101.52776 251.308396 
L 103.0375 249.981536 
L 104.54724 249.981536 
L 106.056981 251.898112 
L 107.566721 251.750683 
L 109.076461 252.635257 
L 110.586201 252.045541 
L 112.095942 252.782686 
L 113.605682 251.455825 
L 115.115422 250.571252 
L 116.625162 251.455825 
L 118.134903 250.86611 
L 119.644643 252.340399 
L 121.154383 252.635257 
L 122.664123 253.224973 
L 124.173864 254.404404 
L 125.683604 251.750683 
L 127.193344 250.718681 
L 128.703084 250.86611 
L 131.722565 248.802104 
L 133.232305 248.949533 
L 134.742045 247.622673 
L 136.251786 246.885528 
L 137.761526 247.770102 
L 139.271266 246.885528 
L 140.781006 245.853526 
L 142.290747 246.295812 
L 143.800487 244.231807 
L 145.310227 243.052376 
L 146.819968 243.347234 
L 148.329708 244.526665 
L 149.839448 243.052376 
L 151.349188 243.347234 
L 152.858929 242.46266 
L 154.368669 238.776936 
L 155.878409 238.776936 
L 157.388149 238.924365 
L 158.89789 239.219223 
L 160.40763 237.597505 
L 161.91737 237.450076 
L 163.42711 236.86036 
L 166.446591 232.584921 
L 167.956331 234.943784 
L 169.466071 235.091213 
L 170.975812 234.943784 
L 172.485552 234.648926 
L 173.995292 232.142634 
L 175.505032 231.405489 
L 178.524513 235.828357 
L 180.034253 233.469494 
L 181.543994 235.386071 
L 183.053734 234.05921 
L 184.563474 232.142634 
L 186.073214 228.309481 
L 187.582955 228.309481 
L 189.092695 227.13005 
L 190.602435 225.360902 
L 192.112175 224.476329 
L 195.131656 214.156303 
L 196.641396 214.303732 
L 198.151136 211.060295 
L 199.660877 212.534584 
L 201.170617 202.804274 
L 202.680357 203.836277 
L 204.190097 201.9197 
L 205.699838 203.099132 
L 207.209578 197.79169 
L 208.719318 192.926535 
L 210.229058 192.041961 
L 214.758279 180.100217 
L 216.268019 179.068214 
L 217.77776 174.940204 
L 219.2875 168.158472 
L 220.79724 167.716186 
L 222.306981 165.799609 
L 223.816721 164.767607 
L 225.326461 159.902452 
L 226.836201 157.543588 
L 228.345942 151.646431 
L 229.855682 145.012128 
L 231.365422 138.967542 
L 232.875162 138.525255 
L 234.384903 138.230397 
L 235.894643 128.794945 
L 237.404383 124.961792 
L 238.914123 116.410913 
L 240.423864 114.494337 
L 243.443344 99.751443 
L 244.953084 95.181145 
L 246.462825 97.687437 
L 247.972565 95.328574 
L 249.482305 82.354827 
L 250.992045 75.720525 
L 252.501786 73.214233 
L 254.011526 68.349078 
L 255.521266 66.727359 
L 257.031006 67.317075 
L 258.540747 62.894207 
L 260.050487 61.272488 
L 261.560227 59.061054 
L 263.069968 66.57993 
L 264.579708 60.093057 
L 266.089448 60.682773 
L 267.599188 60.682773 
L 269.108929 58.176481 
L 270.618669 59.798199 
L 272.128409 55.817618 
L 273.638149 53.458754 
L 275.14789 45.939878 
L 276.65763 48.298741 
L 279.67711 30.459839 
L 281.186851 32.818702 
L 284.206331 26.036971 
L 285.716071 33.555847 
L 287.225812 36.799284 
L 288.735552 43.286157 
L 290.245292 38.568431 
L 291.755032 34.292992 
L 293.264773 30.607268 
L 294.774513 28.100976 
L 296.284253 36.209568 
L 297.793994 33.555847 
L 299.303734 37.831286 
L 302.323214 42.254155 
L 303.832955 42.106726 
L 305.342695 42.401584 
L 306.852435 37.536429 
L 308.362175 42.843871 
L 309.871916 39.158147 
L 311.381656 34.145563 
L 312.891396 28.248405 
L 314.401136 30.607268 
L 315.910877 37.389 
L 317.420617 36.651855 
L 318.930357 32.671273 
L 320.440097 33.11356 
L 321.949838 29.575266 
L 323.459578 30.902126 
L 324.969318 23.530679 
L 326.479058 28.395834 
L 327.988799 25.889542 
L 329.498539 25.447255 
L 331.008279 27.363831 
L 332.518019 26.331829 
L 334.02776 24.267824 
L 335.5375 21.614103 
L 337.04724 28.100976 
L 338.556981 24.857539 
L 340.066721 36.651855 
L 341.576461 37.389 
L 343.086201 42.991299 
L 344.595942 40.632436 
L 346.105682 44.023302 
L 347.615422 41.959297 
L 349.125162 45.792449 
L 350.634903 50.215318 
L 352.144643 53.606183 
L 353.654383 51.837036 
L 355.164123 57.734194 
L 356.673864 60.830202 
L 358.183604 61.862204 
L 359.693344 60.535344 
L 361.203084 64.368496 
L 362.712825 70.85537 
L 364.222565 75.425667 
L 365.732305 74.541093 
L 367.242045 81.175396 
L 368.751786 80.880538 
L 370.261526 81.322825 
L 371.771266 79.848535 
L 373.281006 82.207398 
L 374.790747 85.745693 
L 376.300487 90.463419 
L 377.810227 89.136559 
L 379.319968 90.758277 
L 380.829708 91.937709 
L 382.339448 93.264569 
L 383.849188 101.962877 
L 385.358929 98.277153 
L 386.868669 100.783445 
L 388.378409 99.604014 
L 389.888149 95.623432 
L 391.39789 99.014298 
L 392.90763 98.71944 
L 394.41737 99.309156 
L 395.92711 102.110306 
L 397.436851 102.110306 
L 398.946591 105.206314 
L 400.456331 101.815448 
L 401.966071 102.257735 
L 403.475812 108.007463 
L 404.985552 110.071469 
L 406.495292 106.680603 
L 408.005032 105.796029 
L 409.514773 109.776611 
L 411.024513 106.975461 
L 412.534253 109.776611 
L 414.043994 111.398329 
L 415.553734 112.282903 
L 417.063474 115.673769 
L 418.573214 114.05205 
L 420.082955 108.597179 
L 421.592695 110.366327 
L 423.102435 111.398329 
L 424.612175 108.744608 
L 426.121916 107.270319 
L 427.631656 106.975461 
L 429.141396 104.469169 
L 432.160877 107.12289 
L 433.670617 104.911456 
L 435.180357 107.565177 
L 436.690097 108.154892 
L 438.199838 112.430332 
L 439.709578 107.712606 
L 441.219318 109.629182 
L 442.729058 108.744608 
L 444.238799 105.353743 
L 445.748539 101.373161 
L 447.258279 105.058885 
L 448.768019 103.289737 
L 450.27776 100.636016 
L 451.7875 99.456585 
L 453.29724 98.866869 
L 454.806981 99.456585 
L 456.316721 99.604014 
L 457.826461 101.815448 
L 459.336201 97.540009 
L 460.845942 91.495422 
L 462.355682 87.072554 
L 463.865422 85.598264 
L 465.375162 81.027967 
L 466.884903 80.143393 
L 468.394643 82.649685 
L 469.904383 73.65652 
L 471.414123 69.823367 
L 472.923864 72.034801 
L 474.433604 78.816533 
L 475.943344 76.752527 
L 477.453084 83.091972 
L 478.962825 87.072554 
L 480.472565 81.617683 
L 481.982305 82.944543 
L 485.001786 73.951378 
L 486.511526 76.015383 
L 488.021266 79.111391 
L 489.531006 80.438251 
L 492.550487 80.733109 
L 494.060227 74.98338 
L 495.569968 76.899956 
L 497.079708 75.278238 
L 498.589448 77.931959 
L 500.099188 75.425667 
L 501.608929 72.034801 
L 503.118669 76.752527 
L 504.628409 77.78453 
L 506.138149 79.995964 
L 507.64789 84.271404 
L 509.15763 85.008548 
L 510.66737 83.239401 
L 512.17711 85.450835 
L 513.686851 87.072554 
L 515.196591 90.758277 
L 516.706331 86.777696 
L 518.216071 94.296572 
L 519.725812 98.424582 
L 521.235552 103.879453 
L 522.745292 104.911456 
L 524.255032 103.437166 
L 525.764773 98.277153 
L 527.274513 101.52059 
L 528.784253 100.488587 
L 530.293994 105.501171 
L 531.803734 107.565177 
L 533.313474 110.218898 
L 534.823214 109.334324 
L 536.332955 110.218898 
L 537.842695 107.860035 
L 539.352435 116.705771 
L 540.862175 116.558342 
L 542.371916 119.359492 
L 543.881656 118.917205 
L 545.391396 119.65435 
L 546.901136 120.244066 
L 548.410877 118.32749 
L 549.920617 118.032632 
L 551.430357 123.340074 
L 552.940097 126.288652 
L 554.449838 125.846366 
L 555.959578 127.025797 
L 557.469318 126.141224 
L 558.979058 127.025797 
L 560.488799 129.679518 
L 561.998539 129.237231 
L 563.508279 131.301237 
L 565.018019 133.6601 
L 566.52776 133.070384 
L 568.0375 132.922955 
L 569.54724 136.313821 
L 571.056981 136.608679 
L 572.566721 136.313821 
L 574.076461 138.967542 
L 575.586201 137.78811 
L 577.095942 136.756107 
L 578.605682 135.281818 
L 580.115422 136.313821 
L 581.625162 135.429247 
L 583.134903 130.711521 
L 586.154383 135.576676 
L 587.664123 135.281818 
L 589.173864 136.756107 
L 590.683604 141.473834 
L 592.193344 140.58926 
L 593.703084 142.653265 
L 595.212825 147.960707 
L 596.722565 152.088718 
L 598.232305 154.447581 
L 599.742045 162.998459 
L 601.251786 168.45333 
L 602.761526 174.350488 
L 604.271266 181.279648 
L 605.781006 187.619093 
L 608.800487 198.676264 
L 610.310227 203.541419 
L 613.329708 211.207724 
L 614.839448 215.040876 
L 617.858929 221.380321 
L 619.368669 224.034042 
L 622.388149 232.290063 
L 623.89789 234.648926 
L 626.91737 237.744934 
L 628.42711 238.924365 
L 631.446591 242.020373 
L 632.956331 243.199805 
L 635.975812 247.180386 
L 637.485552 247.917531 
L 638.995292 248.949533 
L 640.505032 249.244391 
L 642.014773 250.86611 
L 643.524513 252.782686 
L 645.034253 253.224973 
L 646.543994 253.962117 
L 648.053734 254.99412 
L 649.563474 255.288978 
L 652.582955 257.058125 
L 654.092695 257.647841 
L 655.602435 258.090128 
L 657.112175 258.384986 
L 658.621916 258.532415 
L 660.131656 258.532415 
L 661.641396 259.269559 
L 663.151136 259.711846 
L 667.680357 260.59642 
L 669.190097 261.480994 
L 670.699838 261.775851 
L 672.209578 262.218138 
L 675.229058 262.807854 
L 676.738799 262.955283 
L 678.248539 263.39757 
L 679.758279 263.39757 
L 681.268019 263.987286 
L 682.77776 264.282143 
L 684.2875 264.282143 
L 685.79724 264.871859 
L 688.816721 264.871859 
L 690.326461 265.166717 
L 694.855682 265.166717 
L 696.365422 265.609004 
L 705.423864 265.609004 
L 706.933604 265.903862 
L 708.443344 265.903862 
L 711.462825 266.493578 
L 719.011526 266.493578 
L 720.521266 267.083293 
L 722.031006 267.083293 
L 723.540747 267.378151 
L 732.599188 267.378151 
L 734.108929 267.673009 
L 744.67711 267.673009 
L 746.186851 267.820438 
L 756.755032 267.820438 
L 758.264773 268.115296 
L 765.813474 268.115296 
L 767.323214 268.410154 
L 808.086201 268.410154 
L 809.595942 268.705012 
L 832.242045 268.705012 
L 832.242045 268.705012 
" style="fill:none;stroke:#1f77b4;stroke-linecap:square;stroke-width:1.5;"/>
   </g>
   <g id="patch_3">
    <path d="M 33.2875 281.059557 
L 33.2875 9.259557 
" style="fill:none;stroke:#000000;stroke-linecap:square;stroke-linejoin:miter;stroke-width:0.8;"/>
   </g>
   <g id="patch_4">
    <path d="M 870.2875 281.059557 
L 870.2875 9.259557 
" style="fill:none;stroke:#000000;stroke-linecap:square;stroke-linejoin:miter;stroke-width:0.8;"/>
   </g>
   <g id="patch_5">
    <path d="M 33.2875 281.059557 
L 870.2875 281.059557 
" style="fill:none;stroke:#000000;stroke-linecap:square;stroke-linejoin:miter;stroke-width:0.8;"/>
   </g>
   <g id="patch_6">
    <path d="M 33.2875 9.259557 
L 870.2875 9.259557 
" style="fill:none;stroke:#000000;stroke-linecap:square;stroke-linejoin:miter;stroke-width:0.8;"/>
   </g>
  </g>
 </g>
 <defs>
  <clipPath id="p6ba6c6dae7">
   <rect height="271.8" width="837" x="33.2875" y="9.259557"/>
  </clipPath>
 </defs>
</svg>
