<?xml version="1.0" encoding="utf-8" standalone="no"?>
<!DOCTYPE svg PUBLIC "-//W3C//DTD SVG 1.1//EN"
  "http://www.w3.org/Graphics/SVG/1.1/DTD/svg11.dtd">
<!-- Created with matplotlib (https://matplotlib.org/) -->
<svg height="302.878125pt" version="1.1" viewBox="0 0 877.4875 302.878125" width="877.4875pt" xmlns="http://www.w3.org/2000/svg" xmlns:xlink="http://www.w3.org/1999/xlink">
 <metadata>
  <rdf:RDF xmlns:cc="http://creativecommons.org/ns#" xmlns:dc="http://purl.org/dc/elements/1.1/" xmlns:rdf="http://www.w3.org/1999/02/22-rdf-syntax-ns#">
   <cc:Work>
    <dc:type rdf:resource="http://purl.org/dc/dcmitype/StillImage"/>
    <dc:date>2021-03-21T00:38:16.001002</dc:date>
    <dc:format>image/svg+xml</dc:format>
    <dc:creator>
     <cc:Agent>
      <dc:title>Matplotlib v3.3.4, https://matplotlib.org/</dc:title>
     </cc:Agent>
    </dc:creator>
   </cc:Work>
  </rdf:RDF>
 </metadata>
 <defs>
  <style type="text/css">*{stroke-linecap:butt;stroke-linejoin:round;}</style>
 </defs>
 <g id="figure_1">
  <g id="patch_1">
   <path d="M 0 302.878125 
L 877.4875 302.878125 
L 877.4875 0 
L 0 0 
z
" style="fill:none;"/>
  </g>
  <g id="axes_1">
   <g id="patch_2">
    <path d="M 33.2875 279 
L 870.2875 279 
L 870.2875 7.2 
L 33.2875 7.2 
z
" style="fill:#ffffff;"/>
   </g>
   <g id="matplotlib.axis_1">
    <g id="xtick_1">
     <g id="line2d_1">
      <defs>
       <path d="M 0 0 
L 0 3.5 
" id="ma5e1cb661d" style="stroke:#000000;stroke-width:0.8;"/>
      </defs>
      <g>
       <use style="stroke:#000000;stroke-width:0.8;" x="71.332955" xlink:href="#ma5e1cb661d" y="279"/>
      </g>
     </g>
     <g id="text_1">
      <!-- 0 -->
      <g transform="translate(68.151705 293.598437)scale(0.1 -0.1)">
       <defs>
        <path d="M 31.78125 66.40625 
Q 24.171875 66.40625 20.328125 58.90625 
Q 16.5 51.421875 16.5 36.375 
Q 16.5 21.390625 20.328125 13.890625 
Q 24.171875 6.390625 31.78125 6.390625 
Q 39.453125 6.390625 43.28125 13.890625 
Q 47.125 21.390625 47.125 36.375 
Q 47.125 51.421875 43.28125 58.90625 
Q 39.453125 66.40625 31.78125 66.40625 
z
M 31.78125 74.21875 
Q 44.046875 74.21875 50.515625 64.515625 
Q 56.984375 54.828125 56.984375 36.375 
Q 56.984375 17.96875 50.515625 8.265625 
Q 44.046875 -1.421875 31.78125 -1.421875 
Q 19.53125 -1.421875 13.0625 8.265625 
Q 6.59375 17.96875 6.59375 36.375 
Q 6.59375 54.828125 13.0625 64.515625 
Q 19.53125 74.21875 31.78125 74.21875 
z
" id="DejaVuSans-48"/>
       </defs>
       <use xlink:href="#DejaVuSans-48"/>
      </g>
     </g>
    </g>
    <g id="xtick_2">
     <g id="line2d_2">
      <g>
       <use style="stroke:#000000;stroke-width:0.8;" x="222.607128" xlink:href="#ma5e1cb661d" y="279"/>
      </g>
     </g>
     <g id="text_2">
      <!-- 100 -->
      <g transform="translate(213.063378 293.598437)scale(0.1 -0.1)">
       <defs>
        <path d="M 12.40625 8.296875 
L 28.515625 8.296875 
L 28.515625 63.921875 
L 10.984375 60.40625 
L 10.984375 69.390625 
L 28.421875 72.90625 
L 38.28125 72.90625 
L 38.28125 8.296875 
L 54.390625 8.296875 
L 54.390625 0 
L 12.40625 0 
z
" id="DejaVuSans-49"/>
       </defs>
       <use xlink:href="#DejaVuSans-49"/>
       <use x="63.623047" xlink:href="#DejaVuSans-48"/>
       <use x="127.246094" xlink:href="#DejaVuSans-48"/>
      </g>
     </g>
    </g>
    <g id="xtick_3">
     <g id="line2d_3">
      <g>
       <use style="stroke:#000000;stroke-width:0.8;" x="373.881301" xlink:href="#ma5e1cb661d" y="279"/>
      </g>
     </g>
     <g id="text_3">
      <!-- 200 -->
      <g transform="translate(364.337551 293.598437)scale(0.1 -0.1)">
       <defs>
        <path d="M 19.1875 8.296875 
L 53.609375 8.296875 
L 53.609375 0 
L 7.328125 0 
L 7.328125 8.296875 
Q 12.9375 14.109375 22.625 23.890625 
Q 32.328125 33.6875 34.8125 36.53125 
Q 39.546875 41.84375 41.421875 45.53125 
Q 43.3125 49.21875 43.3125 52.78125 
Q 43.3125 58.59375 39.234375 62.25 
Q 35.15625 65.921875 28.609375 65.921875 
Q 23.96875 65.921875 18.8125 64.3125 
Q 13.671875 62.703125 7.8125 59.421875 
L 7.8125 69.390625 
Q 13.765625 71.78125 18.9375 73 
Q 24.125 74.21875 28.421875 74.21875 
Q 39.75 74.21875 46.484375 68.546875 
Q 53.21875 62.890625 53.21875 53.421875 
Q 53.21875 48.921875 51.53125 44.890625 
Q 49.859375 40.875 45.40625 35.40625 
Q 44.1875 33.984375 37.640625 27.21875 
Q 31.109375 20.453125 19.1875 8.296875 
z
" id="DejaVuSans-50"/>
       </defs>
       <use xlink:href="#DejaVuSans-50"/>
       <use x="63.623047" xlink:href="#DejaVuSans-48"/>
       <use x="127.246094" xlink:href="#DejaVuSans-48"/>
      </g>
     </g>
    </g>
    <g id="xtick_4">
     <g id="line2d_4">
      <g>
       <use style="stroke:#000000;stroke-width:0.8;" x="525.155474" xlink:href="#ma5e1cb661d" y="279"/>
      </g>
     </g>
     <g id="text_4">
      <!-- 300 -->
      <g transform="translate(515.611724 293.598437)scale(0.1 -0.1)">
       <defs>
        <path d="M 40.578125 39.3125 
Q 47.65625 37.796875 51.625 33 
Q 55.609375 28.21875 55.609375 21.1875 
Q 55.609375 10.40625 48.1875 4.484375 
Q 40.765625 -1.421875 27.09375 -1.421875 
Q 22.515625 -1.421875 17.65625 -0.515625 
Q 12.796875 0.390625 7.625 2.203125 
L 7.625 11.71875 
Q 11.71875 9.328125 16.59375 8.109375 
Q 21.484375 6.890625 26.8125 6.890625 
Q 36.078125 6.890625 40.9375 10.546875 
Q 45.796875 14.203125 45.796875 21.1875 
Q 45.796875 27.640625 41.28125 31.265625 
Q 36.765625 34.90625 28.71875 34.90625 
L 20.21875 34.90625 
L 20.21875 43.015625 
L 29.109375 43.015625 
Q 36.375 43.015625 40.234375 45.921875 
Q 44.09375 48.828125 44.09375 54.296875 
Q 44.09375 59.90625 40.109375 62.90625 
Q 36.140625 65.921875 28.71875 65.921875 
Q 24.65625 65.921875 20.015625 65.03125 
Q 15.375 64.15625 9.8125 62.3125 
L 9.8125 71.09375 
Q 15.4375 72.65625 20.34375 73.4375 
Q 25.25 74.21875 29.59375 74.21875 
Q 40.828125 74.21875 47.359375 69.109375 
Q 53.90625 64.015625 53.90625 55.328125 
Q 53.90625 49.265625 50.4375 45.09375 
Q 46.96875 40.921875 40.578125 39.3125 
z
" id="DejaVuSans-51"/>
       </defs>
       <use xlink:href="#DejaVuSans-51"/>
       <use x="63.623047" xlink:href="#DejaVuSans-48"/>
       <use x="127.246094" xlink:href="#DejaVuSans-48"/>
      </g>
     </g>
    </g>
    <g id="xtick_5">
     <g id="line2d_5">
      <g>
       <use style="stroke:#000000;stroke-width:0.8;" x="676.429647" xlink:href="#ma5e1cb661d" y="279"/>
      </g>
     </g>
     <g id="text_5">
      <!-- 400 -->
      <g transform="translate(666.885897 293.598437)scale(0.1 -0.1)">
       <defs>
        <path d="M 37.796875 64.3125 
L 12.890625 25.390625 
L 37.796875 25.390625 
z
M 35.203125 72.90625 
L 47.609375 72.90625 
L 47.609375 25.390625 
L 58.015625 25.390625 
L 58.015625 17.1875 
L 47.609375 17.1875 
L 47.609375 0 
L 37.796875 0 
L 37.796875 17.1875 
L 4.890625 17.1875 
L 4.890625 26.703125 
z
" id="DejaVuSans-52"/>
       </defs>
       <use xlink:href="#DejaVuSans-52"/>
       <use x="63.623047" xlink:href="#DejaVuSans-48"/>
       <use x="127.246094" xlink:href="#DejaVuSans-48"/>
      </g>
     </g>
    </g>
    <g id="xtick_6">
     <g id="line2d_6">
      <g>
       <use style="stroke:#000000;stroke-width:0.8;" x="827.70382" xlink:href="#ma5e1cb661d" y="279"/>
      </g>
     </g>
     <g id="text_6">
      <!-- 500 -->
      <g transform="translate(818.16007 293.598437)scale(0.1 -0.1)">
       <defs>
        <path d="M 10.796875 72.90625 
L 49.515625 72.90625 
L 49.515625 64.59375 
L 19.828125 64.59375 
L 19.828125 46.734375 
Q 21.96875 47.46875 24.109375 47.828125 
Q 26.265625 48.1875 28.421875 48.1875 
Q 40.625 48.1875 47.75 41.5 
Q 54.890625 34.8125 54.890625 23.390625 
Q 54.890625 11.625 47.5625 5.09375 
Q 40.234375 -1.421875 26.90625 -1.421875 
Q 22.3125 -1.421875 17.546875 -0.640625 
Q 12.796875 0.140625 7.71875 1.703125 
L 7.71875 11.625 
Q 12.109375 9.234375 16.796875 8.0625 
Q 21.484375 6.890625 26.703125 6.890625 
Q 35.15625 6.890625 40.078125 11.328125 
Q 45.015625 15.765625 45.015625 23.390625 
Q 45.015625 31 40.078125 35.4375 
Q 35.15625 39.890625 26.703125 39.890625 
Q 22.75 39.890625 18.8125 39.015625 
Q 14.890625 38.140625 10.796875 36.28125 
z
" id="DejaVuSans-53"/>
       </defs>
       <use xlink:href="#DejaVuSans-53"/>
       <use x="63.623047" xlink:href="#DejaVuSans-48"/>
       <use x="127.246094" xlink:href="#DejaVuSans-48"/>
      </g>
     </g>
    </g>
   </g>
   <g id="matplotlib.axis_2">
    <g id="ytick_1">
     <g id="line2d_7">
      <defs>
       <path d="M 0 0 
L -3.5 0 
" id="mde5974b19d" style="stroke:#000000;stroke-width:0.8;"/>
      </defs>
      <g>
       <use style="stroke:#000000;stroke-width:0.8;" x="33.2875" xlink:href="#mde5974b19d" y="266.936321"/>
      </g>
     </g>
     <g id="text_7">
      <!-- 0 -->
      <g transform="translate(19.925 270.73554)scale(0.1 -0.1)">
       <use xlink:href="#DejaVuSans-48"/>
      </g>
     </g>
    </g>
    <g id="ytick_2">
     <g id="line2d_8">
      <g>
       <use style="stroke:#000000;stroke-width:0.8;" x="33.2875" xlink:href="#mde5974b19d" y="230.578035"/>
      </g>
     </g>
     <g id="text_8">
      <!-- 50 -->
      <g transform="translate(13.5625 234.377254)scale(0.1 -0.1)">
       <use xlink:href="#DejaVuSans-53"/>
       <use x="63.623047" xlink:href="#DejaVuSans-48"/>
      </g>
     </g>
    </g>
    <g id="ytick_3">
     <g id="line2d_9">
      <g>
       <use style="stroke:#000000;stroke-width:0.8;" x="33.2875" xlink:href="#mde5974b19d" y="194.21975"/>
      </g>
     </g>
     <g id="text_9">
      <!-- 100 -->
      <g transform="translate(7.2 198.018968)scale(0.1 -0.1)">
       <use xlink:href="#DejaVuSans-49"/>
       <use x="63.623047" xlink:href="#DejaVuSans-48"/>
       <use x="127.246094" xlink:href="#DejaVuSans-48"/>
      </g>
     </g>
    </g>
    <g id="ytick_4">
     <g id="line2d_10">
      <g>
       <use style="stroke:#000000;stroke-width:0.8;" x="33.2875" xlink:href="#mde5974b19d" y="157.861464"/>
      </g>
     </g>
     <g id="text_10">
      <!-- 150 -->
      <g transform="translate(7.2 161.660683)scale(0.1 -0.1)">
       <use xlink:href="#DejaVuSans-49"/>
       <use x="63.623047" xlink:href="#DejaVuSans-53"/>
       <use x="127.246094" xlink:href="#DejaVuSans-48"/>
      </g>
     </g>
    </g>
    <g id="ytick_5">
     <g id="line2d_11">
      <g>
       <use style="stroke:#000000;stroke-width:0.8;" x="33.2875" xlink:href="#mde5974b19d" y="121.503178"/>
      </g>
     </g>
     <g id="text_11">
      <!-- 200 -->
      <g transform="translate(7.2 125.302397)scale(0.1 -0.1)">
       <use xlink:href="#DejaVuSans-50"/>
       <use x="63.623047" xlink:href="#DejaVuSans-48"/>
       <use x="127.246094" xlink:href="#DejaVuSans-48"/>
      </g>
     </g>
    </g>
    <g id="ytick_6">
     <g id="line2d_12">
      <g>
       <use style="stroke:#000000;stroke-width:0.8;" x="33.2875" xlink:href="#mde5974b19d" y="85.144893"/>
      </g>
     </g>
     <g id="text_12">
      <!-- 250 -->
      <g transform="translate(7.2 88.944111)scale(0.1 -0.1)">
       <use xlink:href="#DejaVuSans-50"/>
       <use x="63.623047" xlink:href="#DejaVuSans-53"/>
       <use x="127.246094" xlink:href="#DejaVuSans-48"/>
      </g>
     </g>
    </g>
    <g id="ytick_7">
     <g id="line2d_13">
      <g>
       <use style="stroke:#000000;stroke-width:0.8;" x="33.2875" xlink:href="#mde5974b19d" y="48.786607"/>
      </g>
     </g>
     <g id="text_13">
      <!-- 300 -->
      <g transform="translate(7.2 52.585826)scale(0.1 -0.1)">
       <use xlink:href="#DejaVuSans-51"/>
       <use x="63.623047" xlink:href="#DejaVuSans-48"/>
       <use x="127.246094" xlink:href="#DejaVuSans-48"/>
      </g>
     </g>
    </g>
    <g id="ytick_8">
     <g id="line2d_14">
      <g>
       <use style="stroke:#000000;stroke-width:0.8;" x="33.2875" xlink:href="#mde5974b19d" y="12.428321"/>
      </g>
     </g>
     <g id="text_14">
      <!-- 350 -->
      <g transform="translate(7.2 16.22754)scale(0.1 -0.1)">
       <use xlink:href="#DejaVuSans-51"/>
       <use x="63.623047" xlink:href="#DejaVuSans-53"/>
       <use x="127.246094" xlink:href="#DejaVuSans-48"/>
      </g>
     </g>
    </g>
   </g>
   <g id="line2d_15">
    <path clip-path="url(#pfeb2dbd8e5)" d="M 71.332955 265.481989 
L 72.845696 264.754824 
L 74.358438 263.300492 
L 75.87118 262.573327 
L 77.383921 261.700728 
L 78.896663 260.246396 
L 80.409405 259.810097 
L 81.922147 258.501199 
L 83.434888 257.919466 
L 86.460372 254.429071 
L 87.973114 250.502376 
L 89.485855 250.211509 
L 90.998597 249.629777 
L 92.511339 247.884579 
L 94.024081 247.739146 
L 95.536822 246.575681 
L 97.049564 247.157413 
L 98.562306 247.44828 
L 100.075047 248.320879 
L 101.587789 247.44828 
L 104.613273 248.320879 
L 106.126014 249.338911 
L 107.638756 249.77521 
L 109.151498 250.793242 
L 110.66424 250.502376 
L 112.176981 249.77521 
L 113.689723 248.611745 
L 115.202465 247.157413 
L 116.715206 248.175445 
L 118.227948 248.466312 
L 119.74069 249.484344 
L 121.253432 251.665841 
L 122.766173 251.665841 
L 124.278915 251.811274 
L 125.791657 249.77521 
L 127.304399 248.175445 
L 128.81714 248.320879 
L 131.842624 247.739146 
L 133.355366 248.902611 
L 134.868107 248.030012 
L 136.380849 247.884579 
L 137.893591 248.320879 
L 139.406332 247.593713 
L 140.919074 244.830483 
L 142.431816 245.848515 
L 143.944558 243.376152 
L 145.457299 242.648986 
L 146.970041 243.085285 
L 148.482783 244.68505 
L 151.508266 244.103317 
L 153.021008 243.376152 
L 154.53375 239.885756 
L 156.046492 240.176623 
L 157.559233 239.59489 
L 159.071975 239.740323 
L 160.584717 238.867724 
L 162.097458 238.576858 
L 165.122942 236.104495 
L 166.635684 233.341265 
L 168.148425 234.50473 
L 169.661167 234.359297 
L 171.173909 234.941029 
L 172.686651 236.104495 
L 174.199392 233.341265 
L 175.712134 232.323233 
L 177.224876 232.1778 
L 178.737617 233.777564 
L 180.250359 233.632131 
L 181.763101 234.213864 
L 183.275843 234.068431 
L 184.788584 232.904965 
L 186.301326 228.832837 
L 187.814068 228.687404 
L 189.32681 227.960239 
L 190.839551 224.76071 
L 192.352293 223.888111 
L 195.377777 217.343619 
L 196.890518 216.761887 
L 198.40326 212.689759 
L 199.916002 213.416924 
L 201.428743 203.672904 
L 202.941485 203.091171 
L 204.454227 199.746209 
L 205.966969 198.001011 
L 207.47971 191.892819 
L 208.992452 188.111558 
L 210.505194 186.511793 
L 212.017936 186.075494 
L 213.530677 185.202895 
L 215.043419 182.439665 
L 216.556161 179.240136 
L 218.068902 176.476906 
L 219.581644 170.368714 
L 221.094386 166.587453 
L 222.607128 164.696822 
L 224.119869 161.642726 
L 225.632611 156.261699 
L 227.145353 153.207603 
L 228.658095 147.681144 
L 230.170836 146.517679 
L 231.683578 143.027283 
L 233.19632 142.736417 
L 234.709062 142.300118 
L 236.221803 132.992397 
L 237.734545 128.193103 
L 239.247287 120.19428 
L 240.760028 117.140184 
L 243.785512 102.015137 
L 245.298254 100.851672 
L 246.810995 103.033169 
L 248.323737 102.015137 
L 249.836479 90.816785 
L 251.349221 84.854026 
L 252.861962 80.636465 
L 254.374704 77.873236 
L 255.887446 76.855204 
L 257.400188 76.418904 
L 258.912929 70.892445 
L 260.425671 69.001814 
L 261.938413 64.20252 
L 263.451154 69.438113 
L 264.963896 65.075119 
L 266.476638 62.457322 
L 267.98938 65.220552 
L 269.502121 63.911654 
L 271.014863 65.656852 
L 272.527605 61.002991 
L 274.040347 55.331099 
L 275.553088 46.168811 
L 277.06583 47.914008 
L 278.578572 39.624319 
L 280.091313 30.607464 
L 281.604055 30.316598 
L 283.116797 26.24447 
L 284.629539 19.699979 
L 286.14228 19.554545 
L 287.655022 27.553368 
L 289.167764 34.534159 
L 290.680506 30.752897 
L 292.193247 30.607464 
L 293.705989 27.553368 
L 295.218731 26.389903 
L 296.731473 31.625496 
L 298.244214 26.826203 
L 299.756956 32.207229 
L 301.269698 34.825025 
L 302.782439 34.970459 
L 304.295181 33.806993 
L 305.807923 33.806993 
L 307.320665 30.171165 
L 308.833406 34.534159 
L 311.85889 34.534159 
L 313.371632 30.462031 
L 314.884373 37.006523 
L 316.397115 39.18802 
L 317.909857 35.843057 
L 319.422598 33.079828 
L 320.93534 34.679592 
L 322.448082 31.916363 
L 323.960824 35.406758 
L 325.473565 28.425967 
L 326.986307 35.697624 
L 328.499049 35.988491 
L 330.011791 35.406758 
L 331.524532 38.460854 
L 333.037274 38.606287 
L 334.550016 42.242116 
L 336.062758 40.351485 
L 337.575499 43.696447 
L 339.088241 35.406758 
L 340.600983 43.260148 
L 342.113724 45.005345 
L 343.626466 49.804639 
L 345.139208 39.624319 
L 346.65195 40.496918 
L 348.164691 40.642351 
L 349.677433 46.459677 
L 351.190175 53.004168 
L 352.702917 60.857558 
L 354.215658 59.11236 
L 355.7284 67.547482 
L 357.241142 69.29268 
L 358.753884 67.838349 
L 360.266625 69.583546 
L 361.779367 71.765044 
L 363.292109 79.036701 
L 364.80485 88.198989 
L 366.317592 89.362454 
L 367.830334 91.689384 
L 369.343076 94.888913 
L 370.855817 95.325213 
L 372.368559 97.50671 
L 375.394043 99.83364 
L 376.906784 102.451437 
L 378.419526 100.124506 
L 379.932268 97.361277 
L 381.445009 97.215844 
L 384.470493 105.941832 
L 385.983235 101.578838 
L 387.495976 105.941832 
L 389.008718 104.196634 
L 390.52146 101.433405 
L 392.034202 108.123329 
L 393.546943 105.214666 
L 395.059685 111.322858 
L 396.572427 110.741126 
L 398.085169 111.759158 
L 399.59791 115.10412 
L 401.110652 113.940655 
L 402.623394 112.922623 
L 404.136135 117.285617 
L 405.648877 118.594515 
L 407.161619 118.594515 
L 408.674361 118.449082 
L 410.187102 121.066879 
L 411.699844 121.357745 
L 413.212586 118.449082 
L 414.725328 119.176248 
L 416.238069 120.776013 
L 417.750811 122.812077 
L 419.263553 120.630579 
L 420.776295 116.849318 
L 422.289036 115.831286 
L 423.801778 121.648611 
L 425.31452 119.612547 
L 426.827261 120.776013 
L 429.852745 111.613725 
L 431.365487 113.504356 
L 432.878228 112.050024 
L 434.39097 107.396164 
L 435.903712 110.886559 
L 437.416454 111.031992 
L 438.929195 113.504356 
L 440.441937 110.159393 
L 441.954679 108.995928 
L 443.46742 110.304826 
L 444.980162 107.832463 
L 446.492904 103.905768 
L 448.005646 101.578838 
L 449.518387 101.142538 
L 451.031129 99.688207 
L 452.543871 100.560806 
L 454.056613 102.59687 
L 455.569354 103.614902 
L 457.082096 102.451437 
L 458.594838 100.851672 
L 460.10758 96.052378 
L 461.620321 91.834817 
L 463.133063 85.290326 
L 464.645805 83.981428 
L 466.158546 79.618433 
L 467.671288 77.873236 
L 469.18403 80.345599 
L 470.696772 75.982605 
L 472.209513 71.183311 
L 473.722255 69.874413 
L 475.234997 73.510241 
L 476.747739 74.673706 
L 478.26048 79.182134 
L 479.773222 81.509064 
L 481.285964 81.654497 
L 482.798705 81.509064 
L 484.311447 80.054733 
L 485.824189 75.837172 
L 487.336931 78.164102 
L 488.849672 79.473 
L 490.362414 77.873236 
L 493.387898 78.164102 
L 494.900639 73.219375 
L 496.413381 73.219375 
L 497.926123 74.528273 
L 499.438865 81.072765 
L 500.951606 77.291503 
L 502.464348 74.81914 
L 503.97709 76.855204 
L 507.002573 84.708593 
L 508.515315 88.053556 
L 510.028057 86.017492 
L 511.540798 85.435759 
L 513.05354 87.32639 
L 514.566282 87.471823 
L 516.079024 90.816785 
L 517.591765 88.198989 
L 519.104507 94.307181 
L 520.617249 99.688207 
L 522.129991 101.724271 
L 523.642732 102.16057 
L 525.155474 100.26994 
L 526.668216 97.215844 
L 528.180957 102.451437 
L 529.693699 99.979073 
L 531.206441 103.760335 
L 532.719183 108.559629 
L 534.231924 110.45026 
L 535.744666 107.396164 
L 537.257408 107.977896 
L 538.77015 109.577661 
L 540.282891 114.813254 
L 541.795633 116.122152 
L 543.308375 120.921446 
L 544.821116 121.939478 
L 546.333858 123.684675 
L 547.8466 127.175071 
L 549.359342 128.629402 
L 550.872083 127.175071 
L 552.384825 134.155862 
L 553.897567 136.482792 
L 555.410309 133.13783 
L 556.92305 135.319327 
L 558.435792 132.70153 
L 559.948534 133.428696 
L 561.461276 137.79169 
L 562.974017 137.064525 
L 564.486759 140.409487 
L 565.999501 141.427519 
L 567.512242 139.391455 
L 569.024984 139.391455 
L 570.537726 140.409487 
L 572.050468 136.337359 
L 573.563209 134.155862 
L 575.075951 140.118621 
L 576.588693 136.628225 
L 579.614176 134.155862 
L 581.126918 137.064525 
L 582.63966 135.901059 
L 584.152402 129.065702 
L 585.665143 131.974365 
L 587.177885 132.992397 
L 588.690627 133.13783 
L 590.203368 134.155862 
L 591.71611 136.046493 
L 593.228852 136.919091 
L 594.741594 139.682321 
L 596.254335 144.336182 
L 597.767077 148.40831 
L 599.279819 151.026106 
L 600.792561 158.58863 
L 602.305302 165.569421 
L 603.818044 174.586275 
L 605.330786 180.258168 
L 608.356269 192.329119 
L 609.869011 197.128412 
L 614.407236 210.071962 
L 615.919978 213.126058 
L 617.43272 217.052753 
L 618.945461 220.252282 
L 620.458203 223.160945 
L 621.970945 226.65134 
L 623.483687 229.560003 
L 624.996428 232.759532 
L 626.50917 235.231896 
L 628.021912 237.26796 
L 631.047395 241.92182 
L 632.560137 243.812451 
L 634.072879 245.121349 
L 635.58562 247.157413 
L 637.098362 248.030012 
L 638.611104 249.629777 
L 640.123846 250.938675 
L 641.636587 251.811274 
L 643.149329 253.120172 
L 644.662071 253.992771 
L 646.174812 254.429071 
L 647.687554 255.592536 
L 649.200296 256.901434 
L 650.713038 257.483167 
L 652.225779 257.6286 
L 653.738521 258.792065 
L 655.251263 259.373797 
L 656.764005 259.664664 
L 658.276746 259.664664 
L 659.789488 259.810097 
L 661.30223 259.810097 
L 662.814972 260.100963 
L 664.327713 260.537263 
L 665.840455 261.409861 
L 667.353197 261.409861 
L 668.865938 261.700728 
L 670.37868 262.28246 
L 671.891422 262.573327 
L 673.404164 262.573327 
L 674.916905 262.864193 
L 676.429647 262.864193 
L 677.942389 263.155059 
L 682.480614 263.155059 
L 683.993356 263.445925 
L 687.018839 263.445925 
L 688.531581 263.882225 
L 691.557064 263.882225 
L 693.069806 264.027658 
L 694.582548 264.027658 
L 696.09529 264.318524 
L 714.24819 264.318524 
L 715.760932 264.609391 
L 720.299157 264.609391 
L 723.324641 265.191123 
L 724.837383 265.336556 
L 727.862866 265.336556 
L 729.375608 265.627423 
L 736.939316 265.627423 
L 738.452058 266.209155 
L 791.398019 266.209155 
L 792.91076 266.500021 
L 809.550919 266.500021 
L 811.063661 266.645455 
L 832.242045 266.645455 
L 832.242045 266.645455 
" style="fill:none;stroke:#1f77b4;stroke-linecap:square;stroke-width:1.5;"/>
   </g>
   <g id="patch_3">
    <path d="M 33.2875 279 
L 33.2875 7.2 
" style="fill:none;stroke:#000000;stroke-linecap:square;stroke-linejoin:miter;stroke-width:0.8;"/>
   </g>
   <g id="patch_4">
    <path d="M 870.2875 279 
L 870.2875 7.2 
" style="fill:none;stroke:#000000;stroke-linecap:square;stroke-linejoin:miter;stroke-width:0.8;"/>
   </g>
   <g id="patch_5">
    <path d="M 33.2875 279 
L 870.2875 279 
" style="fill:none;stroke:#000000;stroke-linecap:square;stroke-linejoin:miter;stroke-width:0.8;"/>
   </g>
   <g id="patch_6">
    <path d="M 33.2875 7.2 
L 870.2875 7.2 
" style="fill:none;stroke:#000000;stroke-linecap:square;stroke-linejoin:miter;stroke-width:0.8;"/>
   </g>
  </g>
 </g>
 <defs>
  <clipPath id="pfeb2dbd8e5">
   <rect height="271.8" width="837" x="33.2875" y="7.2"/>
  </clipPath>
 </defs>
</svg>
