<?xml version="1.0" encoding="utf-8" standalone="no"?>
<!DOCTYPE svg PUBLIC "-//W3C//DTD SVG 1.1//EN"
  "http://www.w3.org/Graphics/SVG/1.1/DTD/svg11.dtd">
<!-- Created with matplotlib (https://matplotlib.org/) -->
<svg height="302.878125pt" version="1.1" viewBox="0 0 877.4875 302.878125" width="877.4875pt" xmlns="http://www.w3.org/2000/svg" xmlns:xlink="http://www.w3.org/1999/xlink">
 <metadata>
  <rdf:RDF xmlns:cc="http://creativecommons.org/ns#" xmlns:dc="http://purl.org/dc/elements/1.1/" xmlns:rdf="http://www.w3.org/1999/02/22-rdf-syntax-ns#">
   <cc:Work>
    <dc:type rdf:resource="http://purl.org/dc/dcmitype/StillImage"/>
    <dc:date>2021-03-14T22:00:18.797361</dc:date>
    <dc:format>image/svg+xml</dc:format>
    <dc:creator>
     <cc:Agent>
      <dc:title>Matplotlib v3.3.4, https://matplotlib.org/</dc:title>
     </cc:Agent>
    </dc:creator>
   </cc:Work>
  </rdf:RDF>
 </metadata>
 <defs>
  <style type="text/css">*{stroke-linecap:butt;stroke-linejoin:round;}</style>
 </defs>
 <g id="figure_1">
  <g id="patch_1">
   <path d="M 0 302.878125 
L 877.4875 302.878125 
L 877.4875 0 
L 0 0 
z
" style="fill:none;"/>
  </g>
  <g id="axes_1">
   <g id="patch_2">
    <path d="M 33.2875 279 
L 870.2875 279 
L 870.2875 7.2 
L 33.2875 7.2 
z
" style="fill:#ffffff;"/>
   </g>
   <g id="matplotlib.axis_1">
    <g id="xtick_1">
     <g id="line2d_1">
      <defs>
       <path d="M 0 0 
L 0 3.5 
" id="m22fbf70f7d" style="stroke:#000000;stroke-width:0.8;"/>
      </defs>
      <g>
       <use style="stroke:#000000;stroke-width:0.8;" x="71.332955" xlink:href="#m22fbf70f7d" y="279"/>
      </g>
     </g>
     <g id="text_1">
      <!-- 0 -->
      <g transform="translate(68.151705 293.598437)scale(0.1 -0.1)">
       <defs>
        <path d="M 31.78125 66.40625 
Q 24.171875 66.40625 20.328125 58.90625 
Q 16.5 51.421875 16.5 36.375 
Q 16.5 21.390625 20.328125 13.890625 
Q 24.171875 6.390625 31.78125 6.390625 
Q 39.453125 6.390625 43.28125 13.890625 
Q 47.125 21.390625 47.125 36.375 
Q 47.125 51.421875 43.28125 58.90625 
Q 39.453125 66.40625 31.78125 66.40625 
z
M 31.78125 74.21875 
Q 44.046875 74.21875 50.515625 64.515625 
Q 56.984375 54.828125 56.984375 36.375 
Q 56.984375 17.96875 50.515625 8.265625 
Q 44.046875 -1.421875 31.78125 -1.421875 
Q 19.53125 -1.421875 13.0625 8.265625 
Q 6.59375 17.96875 6.59375 36.375 
Q 6.59375 54.828125 13.0625 64.515625 
Q 19.53125 74.21875 31.78125 74.21875 
z
" id="DejaVuSans-48"/>
       </defs>
       <use xlink:href="#DejaVuSans-48"/>
      </g>
     </g>
    </g>
    <g id="xtick_2">
     <g id="line2d_2">
      <g>
       <use style="stroke:#000000;stroke-width:0.8;" x="247.469318" xlink:href="#m22fbf70f7d" y="279"/>
      </g>
     </g>
     <g id="text_2">
      <!-- 100 -->
      <g transform="translate(237.925568 293.598437)scale(0.1 -0.1)">
       <defs>
        <path d="M 12.40625 8.296875 
L 28.515625 8.296875 
L 28.515625 63.921875 
L 10.984375 60.40625 
L 10.984375 69.390625 
L 28.421875 72.90625 
L 38.28125 72.90625 
L 38.28125 8.296875 
L 54.390625 8.296875 
L 54.390625 0 
L 12.40625 0 
z
" id="DejaVuSans-49"/>
       </defs>
       <use xlink:href="#DejaVuSans-49"/>
       <use x="63.623047" xlink:href="#DejaVuSans-48"/>
       <use x="127.246094" xlink:href="#DejaVuSans-48"/>
      </g>
     </g>
    </g>
    <g id="xtick_3">
     <g id="line2d_3">
      <g>
       <use style="stroke:#000000;stroke-width:0.8;" x="423.605682" xlink:href="#m22fbf70f7d" y="279"/>
      </g>
     </g>
     <g id="text_3">
      <!-- 200 -->
      <g transform="translate(414.061932 293.598437)scale(0.1 -0.1)">
       <defs>
        <path d="M 19.1875 8.296875 
L 53.609375 8.296875 
L 53.609375 0 
L 7.328125 0 
L 7.328125 8.296875 
Q 12.9375 14.109375 22.625 23.890625 
Q 32.328125 33.6875 34.8125 36.53125 
Q 39.546875 41.84375 41.421875 45.53125 
Q 43.3125 49.21875 43.3125 52.78125 
Q 43.3125 58.59375 39.234375 62.25 
Q 35.15625 65.921875 28.609375 65.921875 
Q 23.96875 65.921875 18.8125 64.3125 
Q 13.671875 62.703125 7.8125 59.421875 
L 7.8125 69.390625 
Q 13.765625 71.78125 18.9375 73 
Q 24.125 74.21875 28.421875 74.21875 
Q 39.75 74.21875 46.484375 68.546875 
Q 53.21875 62.890625 53.21875 53.421875 
Q 53.21875 48.921875 51.53125 44.890625 
Q 49.859375 40.875 45.40625 35.40625 
Q 44.1875 33.984375 37.640625 27.21875 
Q 31.109375 20.453125 19.1875 8.296875 
z
" id="DejaVuSans-50"/>
       </defs>
       <use xlink:href="#DejaVuSans-50"/>
       <use x="63.623047" xlink:href="#DejaVuSans-48"/>
       <use x="127.246094" xlink:href="#DejaVuSans-48"/>
      </g>
     </g>
    </g>
    <g id="xtick_4">
     <g id="line2d_4">
      <g>
       <use style="stroke:#000000;stroke-width:0.8;" x="599.742045" xlink:href="#m22fbf70f7d" y="279"/>
      </g>
     </g>
     <g id="text_4">
      <!-- 300 -->
      <g transform="translate(590.198295 293.598437)scale(0.1 -0.1)">
       <defs>
        <path d="M 40.578125 39.3125 
Q 47.65625 37.796875 51.625 33 
Q 55.609375 28.21875 55.609375 21.1875 
Q 55.609375 10.40625 48.1875 4.484375 
Q 40.765625 -1.421875 27.09375 -1.421875 
Q 22.515625 -1.421875 17.65625 -0.515625 
Q 12.796875 0.390625 7.625 2.203125 
L 7.625 11.71875 
Q 11.71875 9.328125 16.59375 8.109375 
Q 21.484375 6.890625 26.8125 6.890625 
Q 36.078125 6.890625 40.9375 10.546875 
Q 45.796875 14.203125 45.796875 21.1875 
Q 45.796875 27.640625 41.28125 31.265625 
Q 36.765625 34.90625 28.71875 34.90625 
L 20.21875 34.90625 
L 20.21875 43.015625 
L 29.109375 43.015625 
Q 36.375 43.015625 40.234375 45.921875 
Q 44.09375 48.828125 44.09375 54.296875 
Q 44.09375 59.90625 40.109375 62.90625 
Q 36.140625 65.921875 28.71875 65.921875 
Q 24.65625 65.921875 20.015625 65.03125 
Q 15.375 64.15625 9.8125 62.3125 
L 9.8125 71.09375 
Q 15.4375 72.65625 20.34375 73.4375 
Q 25.25 74.21875 29.59375 74.21875 
Q 40.828125 74.21875 47.359375 69.109375 
Q 53.90625 64.015625 53.90625 55.328125 
Q 53.90625 49.265625 50.4375 45.09375 
Q 46.96875 40.921875 40.578125 39.3125 
z
" id="DejaVuSans-51"/>
       </defs>
       <use xlink:href="#DejaVuSans-51"/>
       <use x="63.623047" xlink:href="#DejaVuSans-48"/>
       <use x="127.246094" xlink:href="#DejaVuSans-48"/>
      </g>
     </g>
    </g>
    <g id="xtick_5">
     <g id="line2d_5">
      <g>
       <use style="stroke:#000000;stroke-width:0.8;" x="775.878409" xlink:href="#m22fbf70f7d" y="279"/>
      </g>
     </g>
     <g id="text_5">
      <!-- 400 -->
      <g transform="translate(766.334659 293.598437)scale(0.1 -0.1)">
       <defs>
        <path d="M 37.796875 64.3125 
L 12.890625 25.390625 
L 37.796875 25.390625 
z
M 35.203125 72.90625 
L 47.609375 72.90625 
L 47.609375 25.390625 
L 58.015625 25.390625 
L 58.015625 17.1875 
L 47.609375 17.1875 
L 47.609375 0 
L 37.796875 0 
L 37.796875 17.1875 
L 4.890625 17.1875 
L 4.890625 26.703125 
z
" id="DejaVuSans-52"/>
       </defs>
       <use xlink:href="#DejaVuSans-52"/>
       <use x="63.623047" xlink:href="#DejaVuSans-48"/>
       <use x="127.246094" xlink:href="#DejaVuSans-48"/>
      </g>
     </g>
    </g>
   </g>
   <g id="matplotlib.axis_2">
    <g id="ytick_1">
     <g id="line2d_6">
      <defs>
       <path d="M 0 0 
L -3.5 0 
" id="mf2fba7663b" style="stroke:#000000;stroke-width:0.8;"/>
      </defs>
      <g>
       <use style="stroke:#000000;stroke-width:0.8;" x="33.2875" xlink:href="#mf2fba7663b" y="266.93277"/>
      </g>
     </g>
     <g id="text_6">
      <!-- 0 -->
      <g transform="translate(19.925 270.731988)scale(0.1 -0.1)">
       <use xlink:href="#DejaVuSans-48"/>
      </g>
     </g>
    </g>
    <g id="ytick_2">
     <g id="line2d_7">
      <g>
       <use style="stroke:#000000;stroke-width:0.8;" x="33.2875" xlink:href="#mf2fba7663b" y="231.018393"/>
      </g>
     </g>
     <g id="text_7">
      <!-- 50 -->
      <g transform="translate(13.5625 234.817612)scale(0.1 -0.1)">
       <defs>
        <path d="M 10.796875 72.90625 
L 49.515625 72.90625 
L 49.515625 64.59375 
L 19.828125 64.59375 
L 19.828125 46.734375 
Q 21.96875 47.46875 24.109375 47.828125 
Q 26.265625 48.1875 28.421875 48.1875 
Q 40.625 48.1875 47.75 41.5 
Q 54.890625 34.8125 54.890625 23.390625 
Q 54.890625 11.625 47.5625 5.09375 
Q 40.234375 -1.421875 26.90625 -1.421875 
Q 22.3125 -1.421875 17.546875 -0.640625 
Q 12.796875 0.140625 7.71875 1.703125 
L 7.71875 11.625 
Q 12.109375 9.234375 16.796875 8.0625 
Q 21.484375 6.890625 26.703125 6.890625 
Q 35.15625 6.890625 40.078125 11.328125 
Q 45.015625 15.765625 45.015625 23.390625 
Q 45.015625 31 40.078125 35.4375 
Q 35.15625 39.890625 26.703125 39.890625 
Q 22.75 39.890625 18.8125 39.015625 
Q 14.890625 38.140625 10.796875 36.28125 
z
" id="DejaVuSans-53"/>
       </defs>
       <use xlink:href="#DejaVuSans-53"/>
       <use x="63.623047" xlink:href="#DejaVuSans-48"/>
      </g>
     </g>
    </g>
    <g id="ytick_3">
     <g id="line2d_8">
      <g>
       <use style="stroke:#000000;stroke-width:0.8;" x="33.2875" xlink:href="#mf2fba7663b" y="195.104017"/>
      </g>
     </g>
     <g id="text_8">
      <!-- 100 -->
      <g transform="translate(7.2 198.903236)scale(0.1 -0.1)">
       <use xlink:href="#DejaVuSans-49"/>
       <use x="63.623047" xlink:href="#DejaVuSans-48"/>
       <use x="127.246094" xlink:href="#DejaVuSans-48"/>
      </g>
     </g>
    </g>
    <g id="ytick_4">
     <g id="line2d_9">
      <g>
       <use style="stroke:#000000;stroke-width:0.8;" x="33.2875" xlink:href="#mf2fba7663b" y="159.189641"/>
      </g>
     </g>
     <g id="text_9">
      <!-- 150 -->
      <g transform="translate(7.2 162.988859)scale(0.1 -0.1)">
       <use xlink:href="#DejaVuSans-49"/>
       <use x="63.623047" xlink:href="#DejaVuSans-53"/>
       <use x="127.246094" xlink:href="#DejaVuSans-48"/>
      </g>
     </g>
    </g>
    <g id="ytick_5">
     <g id="line2d_10">
      <g>
       <use style="stroke:#000000;stroke-width:0.8;" x="33.2875" xlink:href="#mf2fba7663b" y="123.275264"/>
      </g>
     </g>
     <g id="text_10">
      <!-- 200 -->
      <g transform="translate(7.2 127.074483)scale(0.1 -0.1)">
       <use xlink:href="#DejaVuSans-50"/>
       <use x="63.623047" xlink:href="#DejaVuSans-48"/>
       <use x="127.246094" xlink:href="#DejaVuSans-48"/>
      </g>
     </g>
    </g>
    <g id="ytick_6">
     <g id="line2d_11">
      <g>
       <use style="stroke:#000000;stroke-width:0.8;" x="33.2875" xlink:href="#mf2fba7663b" y="87.360888"/>
      </g>
     </g>
     <g id="text_11">
      <!-- 250 -->
      <g transform="translate(7.2 91.160107)scale(0.1 -0.1)">
       <use xlink:href="#DejaVuSans-50"/>
       <use x="63.623047" xlink:href="#DejaVuSans-53"/>
       <use x="127.246094" xlink:href="#DejaVuSans-48"/>
      </g>
     </g>
    </g>
    <g id="ytick_7">
     <g id="line2d_12">
      <g>
       <use style="stroke:#000000;stroke-width:0.8;" x="33.2875" xlink:href="#mf2fba7663b" y="51.446512"/>
      </g>
     </g>
     <g id="text_12">
      <!-- 300 -->
      <g transform="translate(7.2 55.24573)scale(0.1 -0.1)">
       <use xlink:href="#DejaVuSans-51"/>
       <use x="63.623047" xlink:href="#DejaVuSans-48"/>
       <use x="127.246094" xlink:href="#DejaVuSans-48"/>
      </g>
     </g>
    </g>
    <g id="ytick_8">
     <g id="line2d_13">
      <g>
       <use style="stroke:#000000;stroke-width:0.8;" x="33.2875" xlink:href="#mf2fba7663b" y="15.532135"/>
      </g>
     </g>
     <g id="text_13">
      <!-- 350 -->
      <g transform="translate(7.2 19.331354)scale(0.1 -0.1)">
       <use xlink:href="#DejaVuSans-51"/>
       <use x="63.623047" xlink:href="#DejaVuSans-53"/>
       <use x="127.246094" xlink:href="#DejaVuSans-48"/>
      </g>
     </g>
    </g>
   </g>
   <g id="line2d_14">
    <path clip-path="url(#pc844003f03)" d="M 71.332955 265.496195 
L 73.094318 265.065222 
L 74.855682 263.628647 
L 76.617045 262.910359 
L 80.139773 261.186469 
L 81.901136 260.037209 
L 85.423864 258.887949 
L 88.946591 255.152854 
L 90.707955 252.567019 
L 94.230682 251.992389 
L 97.753409 249.693869 
L 99.514773 248.257294 
L 101.276136 247.969979 
L 103.0375 248.688266 
L 104.798864 249.119239 
L 106.560227 248.113636 
L 108.321591 246.964376 
L 110.082955 247.251691 
L 111.844318 248.400951 
L 113.605682 247.969979 
L 115.367045 249.837526 
L 117.128409 249.406554 
L 118.889773 249.119239 
L 120.651136 248.400951 
L 122.4125 247.108034 
L 124.173864 247.826321 
L 125.935227 247.395349 
L 127.696591 248.257294 
L 129.457955 249.693869 
L 131.219318 250.843129 
L 132.980682 250.843129 
L 134.742045 249.406554 
L 136.503409 248.544609 
L 138.264773 249.406554 
L 140.026136 249.262896 
L 141.7875 248.544609 
L 143.548864 249.119239 
L 145.310227 246.677061 
L 147.071591 245.671459 
L 148.832955 246.677061 
L 150.594318 246.533404 
L 152.355682 244.091226 
L 154.117045 244.378541 
L 155.878409 241.792706 
L 157.639773 242.080021 
L 159.401136 242.510994 
L 161.1625 243.516596 
L 162.923864 241.505391 
L 164.685227 240.499789 
L 166.446591 240.787104 
L 168.207955 238.057611 
L 169.969318 238.632241 
L 171.730682 237.052008 
L 173.492045 238.775899 
L 175.253409 237.770296 
L 177.014773 236.046406 
L 180.5375 231.593023 
L 182.298864 228.145243 
L 184.060227 230.300106 
L 185.821591 230.874736 
L 187.582955 231.162051 
L 189.344318 231.305708 
L 191.105682 228.576216 
L 194.628409 229.150846 
L 196.389773 230.012791 
L 198.151136 228.288901 
L 199.9125 229.438161 
L 201.673864 228.863531 
L 203.435227 227.570613 
L 205.196591 224.697463 
L 206.957955 224.553805 
L 208.719318 223.69186 
L 210.480682 222.398943 
L 212.242045 222.255285 
L 214.003409 216.365328 
L 215.764773 212.630233 
L 217.526136 211.193658 
L 219.2875 207.314905 
L 221.048864 207.889535 
L 222.810227 200.275687 
L 224.571591 197.83351 
L 228.094318 194.529387 
L 229.855682 188.352114 
L 231.617045 184.904334 
L 233.378409 182.605814 
L 235.139773 178.296089 
L 236.901136 176.859514 
L 238.6625 172.837104 
L 240.423864 170.107611 
L 242.185227 166.085201 
L 245.707955 157.178436 
L 247.469318 154.736258 
L 249.230682 156.029175 
L 250.992045 150.426533 
L 252.753409 147.266068 
L 254.514773 138.071987 
L 256.276136 133.474947 
L 258.0375 125.142812 
L 259.798864 126.292072 
L 261.560227 124.999154 
L 263.321591 117.241649 
L 265.082955 114.943129 
L 266.844318 108.047569 
L 268.605682 104.025159 
L 272.128409 88.797463 
L 273.889773 86.6426 
L 275.651136 88.941121 
L 277.4125 85.636998 
L 279.173864 76.155603 
L 280.935227 70.55296 
L 282.696591 68.110782 
L 284.457955 62.795455 
L 286.219318 62.077167 
L 287.980682 61.93351 
L 289.742045 57.049154 
L 291.503409 54.176004 
L 293.264773 50.728224 
L 295.026136 54.463319 
L 296.7875 49.291649 
L 298.548864 49.147992 
L 300.310227 53.745032 
L 302.071591 50.297252 
L 303.832955 55.468922 
L 305.594318 49.291649 
L 307.355682 46.705814 
L 309.117045 37.942706 
L 310.878409 38.230021 
L 312.639773 31.047146 
L 314.401136 22.284038 
L 316.1625 22.427696 
L 317.923864 19.554545 
L 319.685227 19.985518 
L 321.446591 26.450106 
L 323.207955 33.489323 
L 324.969318 38.517336 
L 326.730682 33.202008 
L 328.492045 30.616173 
L 330.253409 28.604968 
L 332.014773 28.892283 
L 333.776136 29.035941 
L 335.5375 21.278436 
L 337.298864 26.737421 
L 339.060227 31.621776 
L 340.821591 32.914693 
L 342.582955 36.218816 
L 344.344318 35.931501 
L 346.105682 34.494926 
L 347.867045 38.086364 
L 349.628409 34.494926 
L 351.389773 31.190803 
L 353.151136 29.610571 
L 354.9125 36.218816 
L 356.673864 40.815856 
L 358.435227 38.804651 
L 360.196591 39.522939 
L 361.957955 44.981924 
L 363.719318 41.965116 
L 365.480682 43.545349 
L 367.242045 38.660994 
L 369.003409 42.396089 
L 370.764773 43.976321 
L 372.526136 41.246829 
L 374.2875 42.683404 
L 376.048864 45.125581 
L 377.810227 43.689006 
L 379.571591 43.258034 
L 381.332955 45.987526 
L 383.094318 41.965116 
L 384.855682 52.164799 
L 386.617045 53.745032 
L 388.378409 59.634989 
L 390.139773 53.170402 
L 391.901136 58.054757 
L 393.6625 57.049154 
L 395.423864 62.50814 
L 397.185227 63.6574 
L 398.946591 71.12759 
L 400.707955 68.110782 
L 402.469318 73.42611 
L 404.230682 71.845877 
L 405.992045 73.138795 
L 407.753409 72.27685 
L 409.514773 76.155603 
L 411.276136 83.913108 
L 414.798864 86.929915 
L 416.560227 93.825476 
L 418.321591 96.267653 
L 420.082955 96.267653 
L 421.844318 96.985941 
L 423.605682 96.698626 
L 425.367045 96.842283 
L 427.128409 98.709831 
L 428.889773 94.543763 
L 432.4125 96.554968 
L 434.173864 100.290063 
L 435.935227 102.301268 
L 437.696591 102.157611 
L 439.457955 103.881501 
L 441.219318 101.152008 
L 442.980682 97.704228 
L 444.742045 102.013953 
L 446.503409 100.577378 
L 448.264773 103.881501 
L 450.026136 105.892706 
L 451.7875 105.749049 
L 453.548864 108.191226 
L 455.310227 107.472939 
L 458.832955 108.622199 
L 460.594318 109.771459 
L 462.355682 112.357294 
L 464.117045 112.500951 
L 465.878409 118.103594 
L 467.639773 114.224841 
L 469.401136 117.816279 
L 471.1625 117.241649 
L 472.923864 118.103594 
L 474.685227 123.562579 
L 476.446591 123.993552 
L 478.207955 119.540169 
L 479.969318 119.971142 
L 481.730682 119.396512 
L 485.253409 115.517759 
L 487.014773 116.092389 
L 488.776136 112.500951 
L 490.5375 112.213636 
L 492.298864 109.340486 
L 494.060227 107.472939 
L 495.821591 106.180021 
L 497.582955 106.180021 
L 499.344318 108.047569 
L 501.105682 101.152008 
L 502.867045 100.721036 
L 504.628409 103.737844 
L 506.389773 100.577378 
L 508.151136 103.306871 
L 509.9125 103.881501 
L 511.673864 102.157611 
L 513.435227 99.715433 
L 515.196591 100.864693 
L 516.957955 102.301268 
L 518.719318 104.312474 
L 520.480682 101.439323 
L 522.242045 101.726638 
L 524.003409 99.140803 
L 525.764773 95.980338 
L 527.526136 91.957928 
L 529.2875 93.538161 
L 531.048864 85.349683 
L 532.810227 87.935518 
L 534.571591 89.946723 
L 536.332955 84.200423 
L 538.094318 82.62019 
L 539.855682 79.890698 
L 541.617045 82.907505 
L 543.378409 83.338478 
L 545.139773 86.929915 
L 546.901136 88.36649 
L 548.6625 88.797463 
L 553.946591 79.028753 
L 555.707955 83.338478 
L 557.469318 84.200423 
L 559.230682 83.625793 
L 562.753409 85.062368 
L 564.514773 80.465328 
L 566.276136 79.17241 
L 568.0375 77.592178 
L 569.798864 82.62019 
L 571.560227 78.59778 
L 573.321591 76.586575 
L 575.082955 78.741438 
L 576.844318 78.885095 
L 578.605682 79.74704 
L 580.367045 82.62019 
L 582.128409 83.338478 
L 583.889773 85.924313 
L 587.4125 83.913108 
L 589.173864 84.487738 
L 590.935227 81.327273 
L 592.696591 87.648203 
L 594.457955 91.383298 
L 596.219318 96.698626 
L 597.980682 99.428118 
L 599.742045 98.278858 
L 601.503409 100.002748 
L 603.264773 104.743446 
L 605.026136 102.013953 
L 606.7875 108.334884 
L 608.548864 112.500951 
L 610.310227 113.075581 
L 612.071591 109.053171 
L 613.832955 108.047569 
L 615.594318 107.903911 
L 617.355682 115.661416 
L 619.117045 117.385307 
L 620.878409 123.131607 
L 622.639773 123.849894 
L 624.401136 124.855497 
L 626.1625 125.717442 
L 627.923864 126.435729 
L 629.685227 127.010359 
L 631.446591 133.187632 
L 633.207955 134.193235 
L 634.969318 129.739852 
L 636.730682 133.618605 
L 638.492045 132.038372 
L 640.253409 131.894715 
L 642.014773 132.18203 
L 643.776136 133.90592 
L 645.5375 137.497357 
L 647.298864 137.92833 
L 649.060227 136.20444 
L 650.821591 134.193235 
L 652.582955 136.491755 
L 654.344318 130.745455 
L 656.105682 132.325687 
L 657.867045 135.773467 
L 659.628409 134.48055 
L 661.389773 137.210042 
L 663.151136 138.071987 
L 664.9125 139.65222 
L 666.673864 140.22685 
L 668.435227 135.05518 
L 670.196591 138.933932 
L 671.957955 136.77907 
L 673.719318 137.210042 
L 675.480682 138.50296 
L 677.242045 141.232452 
L 679.003409 141.519767 
L 680.764773 143.530973 
L 682.526136 149.277273 
L 684.2875 153.730655 
L 686.048864 157.465751 
L 694.855682 191.512579 
L 701.901136 209.038795 
L 703.6625 211.768288 
L 705.423864 217.227273 
L 707.185227 221.824313 
L 708.946591 225.128436 
L 710.707955 228.001586 
L 712.469318 230.443763 
L 714.230682 232.023996 
L 715.992045 235.040803 
L 717.753409 237.195666 
L 721.276136 240.643446 
L 723.0375 243.229281 
L 726.560227 246.102431 
L 728.321591 246.677061 
L 730.082955 247.969979 
L 731.844318 249.406554 
L 733.605682 250.555814 
L 735.367045 250.843129 
L 737.128409 252.710677 
L 738.889773 252.710677 
L 740.651136 253.285307 
L 742.4125 253.572622 
L 744.173864 254.434567 
L 745.935227 255.440169 
L 747.696591 257.451374 
L 749.457955 257.882347 
L 751.219318 258.456977 
L 752.980682 259.318922 
L 754.742045 259.318922 
L 756.503409 260.324524 
L 758.264773 260.899154 
L 760.026136 260.899154 
L 761.7875 261.473784 
L 763.548864 262.192072 
L 765.310227 262.335729 
L 767.071591 262.623044 
L 768.832955 263.054017 
L 770.594318 263.054017 
L 774.117045 263.341332 
L 775.878409 263.772304 
L 777.639773 264.059619 
L 779.401136 264.059619 
L 781.1625 264.346934 
L 782.923864 264.777907 
L 791.730682 264.777907 
L 793.492045 264.921564 
L 798.776136 264.921564 
L 800.5375 265.065222 
L 802.298864 265.065222 
L 805.821591 265.639852 
L 809.344318 265.639852 
L 811.105682 265.927167 
L 816.389773 265.927167 
L 818.151136 266.214482 
L 823.435227 266.214482 
L 825.196591 266.35814 
L 828.719318 266.35814 
L 830.480682 266.645455 
L 832.242045 266.645455 
L 832.242045 266.645455 
" style="fill:none;stroke:#1f77b4;stroke-linecap:square;stroke-width:1.5;"/>
   </g>
   <g id="patch_3">
    <path d="M 33.2875 279 
L 33.2875 7.2 
" style="fill:none;stroke:#000000;stroke-linecap:square;stroke-linejoin:miter;stroke-width:0.8;"/>
   </g>
   <g id="patch_4">
    <path d="M 870.2875 279 
L 870.2875 7.2 
" style="fill:none;stroke:#000000;stroke-linecap:square;stroke-linejoin:miter;stroke-width:0.8;"/>
   </g>
   <g id="patch_5">
    <path d="M 33.2875 279 
L 870.2875 279 
" style="fill:none;stroke:#000000;stroke-linecap:square;stroke-linejoin:miter;stroke-width:0.8;"/>
   </g>
   <g id="patch_6">
    <path d="M 33.2875 7.2 
L 870.2875 7.2 
" style="fill:none;stroke:#000000;stroke-linecap:square;stroke-linejoin:miter;stroke-width:0.8;"/>
   </g>
  </g>
 </g>
 <defs>
  <clipPath id="pc844003f03">
   <rect height="271.8" width="837" x="33.2875" y="7.2"/>
  </clipPath>
 </defs>
</svg>
