<?xml version="1.0" encoding="utf-8" standalone="no"?>
<!DOCTYPE svg PUBLIC "-//W3C//DTD SVG 1.1//EN"
  "http://www.w3.org/Graphics/SVG/1.1/DTD/svg11.dtd">
<!-- Created with matplotlib (https://matplotlib.org/) -->
<svg height="329.18125pt" version="1.1" viewBox="0 0 884.803125 329.18125" width="884.803125pt" xmlns="http://www.w3.org/2000/svg" xmlns:xlink="http://www.w3.org/1999/xlink">
 <metadata>
  <rdf:RDF xmlns:cc="http://creativecommons.org/ns#" xmlns:dc="http://purl.org/dc/elements/1.1/" xmlns:rdf="http://www.w3.org/1999/02/22-rdf-syntax-ns#">
   <cc:Work>
    <dc:type rdf:resource="http://purl.org/dc/dcmitype/StillImage"/>
    <dc:date>2021-03-21T00:42:40.486872</dc:date>
    <dc:format>image/svg+xml</dc:format>
    <dc:creator>
     <cc:Agent>
      <dc:title>Matplotlib v3.3.4, https://matplotlib.org/</dc:title>
     </cc:Agent>
    </dc:creator>
   </cc:Work>
  </rdf:RDF>
 </metadata>
 <defs>
  <style type="text/css">*{stroke-linecap:butt;stroke-linejoin:round;}</style>
 </defs>
 <g id="figure_1">
  <g id="patch_1">
   <path d="M 0 329.18125 
L 884.803125 329.18125 
L 884.803125 0 
L 0 0 
z
" style="fill:none;"/>
  </g>
  <g id="axes_1">
   <g id="patch_2">
    <path d="M 40.603125 252 
L 877.603125 252 
L 877.603125 7.2 
L 40.603125 7.2 
z
" style="fill:#ffffff;"/>
   </g>
   <g id="PolyCollection_1">
    <path clip-path="url(#pea817b42a6)" d="M 78.64858 217.223886 
L 78.64858 229.048306 
L 78.64858 217.223886 
L 78.64858 217.223886 
z
" style="fill:#1f77b4;fill-opacity:0.2;stroke:#1f77b4;stroke-opacity:0.2;"/>
    <path clip-path="url(#pea817b42a6)" d="M 82.984244 146.27736 
L 82.984244 165.984728 
L 82.984244 146.27736 
L 82.984244 146.27736 
z
" style="fill:#1f77b4;fill-opacity:0.2;stroke:#1f77b4;stroke-opacity:0.2;"/>
    <path clip-path="url(#pea817b42a6)" d="M 87.319908 95.038203 
L 87.319908 122.628519 
L 89.48774 236.931254 
L 91.655573 232.98978 
L 93.823405 91.09673 
L 95.991237 217.223886 
L 98.159069 229.048306 
L 100.326901 217.223886 
L 102.494733 186.513237 
L 104.662566 177.809149 
L 106.830398 142.335887 
L 108.99823 168.612377 
L 111.166062 213.282412 
L 113.333894 232.98978 
L 113.333894 142.959953 
L 113.333894 142.959953 
L 111.166062 185.692097 
L 108.99823 154.160308 
L 106.830398 75.330835 
L 104.662566 162.043255 
L 102.494733 18.327273 
L 100.326901 115.829477 
L 98.159069 98.979677 
L 95.991237 106.862624 
L 93.823405 39.857572 
L 91.655573 24.091678 
L 89.48774 229.048306 
L 87.319908 95.038203 
z
" style="fill:#1f77b4;fill-opacity:0.2;stroke:#1f77b4;stroke-opacity:0.2;"/>
    <path clip-path="url(#pea817b42a6)" d="M 122.005223 102.92115 
L 122.005223 236.931254 
L 124.173055 232.98978 
L 124.173055 24.814281 
L 124.173055 24.814281 
L 122.005223 102.92115 
z
" style="fill:#1f77b4;fill-opacity:0.2;stroke:#1f77b4;stroke-opacity:0.2;"/>
    <path clip-path="url(#pea817b42a6)" d="M 135.012216 154.160308 
L 135.012216 162.043255 
L 137.180048 229.048306 
L 139.34788 232.98978 
L 141.515712 222.183573 
L 141.515712 154.160308 
L 141.515712 154.160308 
L 139.34788 217.223886 
L 137.180048 106.862624 
L 135.012216 154.160308 
z
" style="fill:#1f77b4;fill-opacity:0.2;stroke:#1f77b4;stroke-opacity:0.2;"/>
    <path clip-path="url(#pea817b42a6)" d="M 145.851377 98.979677 
L 145.851377 209.340938 
L 145.851377 98.979677 
L 145.851377 98.979677 
z
" style="fill:#1f77b4;fill-opacity:0.2;stroke:#1f77b4;stroke-opacity:0.2;"/>
    <path clip-path="url(#pea817b42a6)" d="M 156.690538 112.774834 
L 156.690538 236.931254 
L 158.85837 232.98978 
L 158.85837 74.575386 
L 158.85837 74.575386 
L 156.690538 112.774834 
z
" style="fill:#1f77b4;fill-opacity:0.2;stroke:#1f77b4;stroke-opacity:0.2;"/>
    <path clip-path="url(#pea817b42a6)" d="M 163.194034 169.926202 
L 163.194034 217.223886 
L 165.361866 229.048306 
L 165.361866 181.750623 
L 165.361866 181.750623 
L 163.194034 169.926202 
z
" style="fill:#1f77b4;fill-opacity:0.2;stroke:#1f77b4;stroke-opacity:0.2;"/>
    <path clip-path="url(#pea817b42a6)" d="M 169.697531 190.618939 
L 169.697531 221.165359 
L 171.865363 213.282412 
L 171.865363 173.867676 
L 171.865363 173.867676 
L 169.697531 190.618939 
z
" style="fill:#1f77b4;fill-opacity:0.2;stroke:#1f77b4;stroke-opacity:0.2;"/>
    <path clip-path="url(#pea817b42a6)" d="M 176.201027 83.213782 
L 176.201027 221.165359 
L 178.368859 216.435591 
L 178.368859 186.027122 
L 178.368859 186.027122 
L 176.201027 83.213782 
z
" style="fill:#1f77b4;fill-opacity:0.2;stroke:#1f77b4;stroke-opacity:0.2;"/>
    <path clip-path="url(#pea817b42a6)" d="M 182.704524 113.33321 
L 182.704524 200.439777 
L 184.872356 236.931254 
L 187.040188 232.98978 
L 191.375852 229.048306 
L 193.543684 67.447888 
L 195.711517 229.048306 
L 197.879349 209.369092 
L 200.047181 217.223886 
L 202.215013 198.551154 
L 202.215013 48.725888 
L 202.215013 48.725888 
L 200.047181 162.043255 
L 197.879349 103.765752 
L 195.711517 171.601328 
L 193.543684 51.681993 
L 191.375852 207.370201 
L 187.040188 173.867676 
L 184.872356 158.101781 
L 182.704524 113.33321 
z
" style="fill:#1f77b4;fill-opacity:0.2;stroke:#1f77b4;stroke-opacity:0.2;"/>
    <path clip-path="url(#pea817b42a6)" d="M 206.550677 145.193455 
L 206.550677 222.298533 
L 208.71851 229.048306 
L 210.886342 210.168648 
L 213.054174 210.818991 
L 215.222006 216.154057 
L 215.222006 139.675392 
L 215.222006 139.675392 
L 213.054174 129.690325 
L 210.886342 125.742283 
L 208.71851 141.350518 
L 206.550677 145.193455 
z
" style="fill:#1f77b4;fill-opacity:0.2;stroke:#1f77b4;stroke-opacity:0.2;"/>
    <path clip-path="url(#pea817b42a6)" d="M 219.55767 181.036231 
L 219.55767 230.550993 
L 221.725503 225.106833 
L 223.893335 225.106833 
L 226.061167 210.762684 
L 228.228999 223.136096 
L 230.396831 236.931254 
L 232.564663 217.223886 
L 234.732496 227.07757 
L 236.900328 217.223886 
L 239.06816 210.326307 
L 241.235992 218.800475 
L 243.403824 198.52652 
L 245.571656 225.106833 
L 247.739489 232.98978 
L 249.907321 222.951339 
L 252.075153 218.426035 
L 254.242985 204.295852 
L 256.410817 220.541292 
L 258.578649 210.582502 
L 260.746482 203.054288 
L 262.914314 201.457991 
L 265.082146 209.677123 
L 267.249978 230.384028 
L 269.41781 218.099769 
L 271.585642 178.474273 
L 273.753475 197.561996 
L 275.921307 218.258522 
L 278.089139 226.121762 
L 280.256971 192.338854 
L 282.424803 223.357804 
L 284.592635 219.505392 
L 286.760468 213.282412 
L 288.9283 209.530432 
L 291.096132 212.830302 
L 293.263964 212.304082 
L 295.431796 192.450082 
L 297.599628 209.923948 
L 299.767461 203.20702 
L 301.935293 209.531443 
L 304.103125 200.285403 
L 306.270957 182.527325 
L 308.438789 195.581612 
L 310.606622 204.620128 
L 312.774454 187.973603 
L 314.942286 197.688957 
L 317.110118 215.222032 
L 319.27795 197.525086 
L 321.445782 199.220625 
L 323.613615 202.451571 
L 325.781447 203.514948 
L 327.949279 185.992634 
L 330.117111 195.33463 
L 332.284943 171.517572 
L 334.452775 185.991105 
L 336.620608 210.63834 
L 338.78844 202.380654 
L 340.956272 198.219128 
L 343.124104 167.817514 
L 345.291936 201.135009 
L 347.459768 194.020284 
L 349.627601 199.748591 
L 351.795433 194.576178 
L 353.963265 189.888124 
L 356.131097 195.485802 
L 358.298929 184.159301 
L 360.466761 193.908974 
L 362.634594 204.812528 
L 364.802426 209.926363 
L 366.970258 197.290704 
L 369.13809 200.635423 
L 371.305922 199.315609 
L 373.473754 195.991789 
L 375.641587 204.184177 
L 377.809419 209.236927 
L 379.977251 200.701049 
L 382.145083 183.656932 
L 384.312915 192.089411 
L 386.480747 200.374086 
L 388.64858 187.182466 
L 390.816412 208.42783 
L 392.984244 201.016546 
L 395.152076 210.729022 
L 397.319908 210.933294 
L 399.48774 200.683133 
L 401.655573 211.331382 
L 403.823405 188.749917 
L 405.991237 210.455636 
L 408.159069 217.223886 
L 410.326901 204.699334 
L 412.494733 184.79588 
L 414.662566 199.667191 
L 416.830398 204.425921 
L 418.99823 203.516316 
L 421.166062 193.037197 
L 423.333894 215.723094 
L 425.501726 196.692749 
L 427.669559 199.916593 
L 429.837391 204.019949 
L 432.005223 198.848907 
L 434.173055 200.033686 
L 436.340887 198.223664 
L 438.508719 221.347273 
L 440.676552 208.137752 
L 442.844384 203.691493 
L 445.012216 226.319594 
L 447.180048 210.479586 
L 449.34788 207.815759 
L 451.515712 203.242603 
L 453.683545 211.144162 
L 455.851377 202.48367 
L 458.019209 220.700828 
L 460.187041 195.80444 
L 462.354873 198.549329 
L 464.522705 218.121666 
L 466.690538 197.582209 
L 468.85837 208.265244 
L 471.026202 192.719885 
L 473.194034 201.106954 
L 475.361866 210.168648 
L 477.529698 187.268686 
L 479.697531 208.289879 
L 481.865363 211.570334 
L 484.033195 196.01607 
L 486.201027 213.828843 
L 488.368859 212.592654 
L 490.536691 198.910814 
L 492.704524 217.768431 
L 494.872356 203.442805 
L 497.040188 216.662226 
L 499.20802 189.186364 
L 501.375852 200.768233 
L 503.543684 196.083254 
L 505.711517 208.528009 
L 507.879349 177.482746 
L 510.047181 200.051104 
L 512.215013 203.33635 
L 514.382845 202.509051 
L 516.550677 195.389764 
L 518.71851 219.992771 
L 520.886342 206.405948 
L 523.054174 213.343997 
L 525.222006 208.966498 
L 527.389838 220.144159 
L 529.55767 206.239926 
L 531.725503 215.1464 
L 533.893335 194.045831 
L 536.061167 179.173107 
L 538.228999 203.712021 
L 540.396831 198.548256 
L 542.564663 222.367509 
L 544.732496 185.88159 
L 546.900328 210.065888 
L 549.06816 205.793612 
L 551.235992 202.101379 
L 553.403824 216.488649 
L 555.571656 206.788834 
L 557.739489 211.016065 
L 559.907321 219.323952 
L 562.075153 208.376685 
L 564.242985 212.406529 
L 566.410817 194.635764 
L 568.578649 217.845426 
L 570.746482 210.543088 
L 572.914314 196.478091 
L 575.082146 225.430597 
L 577.249978 193.37797 
L 579.41781 215.651988 
L 581.585642 199.94204 
L 583.753475 210.553699 
L 585.921307 192.76936 
L 588.089139 192.70135 
L 590.256971 213.873633 
L 592.424803 202.803019 
L 594.592635 204.005872 
L 596.760468 191.780266 
L 598.9283 193.511285 
L 601.096132 227.444843 
L 603.263964 200.597436 
L 605.431796 199.191644 
L 607.599628 203.842583 
L 609.767461 201.965835 
L 611.935293 194.386078 
L 614.103125 211.710515 
L 616.270957 191.21016 
L 618.438789 190.492248 
L 620.606622 205.651281 
L 622.774454 210.398913 
L 624.942286 199.043838 
L 627.110118 194.152188 
L 629.27795 204.153677 
L 631.445782 204.624308 
L 633.613615 212.761574 
L 635.781447 181.952389 
L 637.949279 204.028907 
L 640.117111 183.972181 
L 642.284943 209.766203 
L 644.452775 188.492185 
L 646.620608 192.092299 
L 648.78844 198.87961 
L 650.956272 205.682758 
L 653.124104 205.990686 
L 655.291936 201.924744 
L 657.459768 213.282412 
L 659.627601 198.668167 
L 661.795433 198.62232 
L 663.963265 212.934248 
L 666.131097 201.187015 
L 668.298929 197.998253 
L 670.466761 194.609681 
L 672.634594 201.320896 
L 674.802426 192.108584 
L 676.970258 189.430338 
L 679.13809 200.502184 
L 681.305922 207.777487 
L 683.473754 209.352531 
L 685.641587 200.177012 
L 687.809419 219.699624 
L 689.977251 211.804359 
L 692.145083 199.268283 
L 694.312915 193.801679 
L 696.480747 212.254813 
L 698.64858 201.137746 
L 700.816412 211.385578 
L 702.984244 199.353526 
L 705.152076 195.588011 
L 707.319908 190.854332 
L 709.48774 198.553747 
L 711.655573 216.539924 
L 713.823405 203.960827 
L 715.991237 213.650283 
L 718.159069 205.985759 
L 720.326901 222.199996 
L 722.494733 212.658345 
L 724.662566 207.242104 
L 726.830398 209.918083 
L 728.99823 202.804661 
L 731.166062 214.794952 
L 733.333894 218.833321 
L 735.501726 209.37789 
L 737.669559 227.07757 
L 739.837391 213.901786 
L 742.005223 219.695518 
L 744.173055 215.061261 
L 746.340887 204.153677 
L 748.508719 220.508447 
L 750.676552 221.953654 
L 752.844384 204.103326 
L 755.012216 215.910061 
L 757.180048 206.612226 
L 759.34788 206.849364 
L 761.515712 217.223886 
L 763.683545 215.882269 
L 765.851377 209.201344 
L 768.019209 212.572947 
L 770.187041 207.990984 
L 772.354873 203.836013 
L 774.522705 213.096287 
L 776.690538 213.176837 
L 778.85837 222.323167 
L 781.026202 203.001735 
L 783.194034 213.282412 
L 785.361866 211.325752 
L 787.529698 221.805849 
L 789.697531 221.682678 
L 791.865363 205.327204 
L 794.033195 209.942013 
L 796.201027 210.457689 
L 798.368859 214.654348 
L 800.536691 220.714905 
L 802.704524 218.148616 
L 804.872356 217.38306 
L 807.040188 222.479184 
L 809.20802 231.620118 
L 811.375852 229.376763 
L 813.543684 219.528553 
L 815.711517 218.613255 
L 817.879349 226.18178 
L 820.047181 223.924391 
L 822.215013 226.102055 
L 824.382845 231.905875 
L 826.550677 228.89229 
L 828.71851 235.71186 
L 830.886342 236.142959 
L 833.054174 240.084433 
L 835.222006 234.678983 
L 839.55767 240.872727 
L 839.55767 236.931254 
L 839.55767 236.931254 
L 835.222006 230.174442 
L 833.054174 231.413191 
L 830.886342 227.432302 
L 828.71851 228.789647 
L 826.550677 220.99292 
L 824.382845 222.479184 
L 822.215013 215.647296 
L 820.047181 212.454702 
L 817.879349 213.41678 
L 815.711517 204.79839 
L 813.543684 209.111019 
L 811.375852 212.781516 
L 809.20802 209.922306 
L 807.040188 204.225234 
L 804.872356 198.426088 
L 802.704524 195.060676 
L 800.536691 183.439826 
L 798.368859 198.122898 
L 796.201027 193.887077 
L 794.033195 184.489947 
L 791.865363 187.005921 
L 789.697531 196.013831 
L 787.529698 195.526073 
L 785.361866 168.180692 
L 783.194034 180.264359 
L 781.026202 167.506575 
L 778.85837 185.174778 
L 776.690538 186.670427 
L 774.522705 171.404255 
L 772.354873 186.440977 
L 770.187041 176.380365 
L 768.019209 161.589985 
L 765.851377 168.439938 
L 763.683545 187.033714 
L 761.515712 177.244802 
L 759.34788 172.74154 
L 757.180048 170.024739 
L 755.012216 170.895148 
L 752.844384 167.18233 
L 750.676552 184.489947 
L 748.508719 194.059517 
L 746.340887 171.38314 
L 744.173055 196.370378 
L 742.005223 168.563109 
L 739.837391 173.304608 
L 737.669559 209.340938 
L 735.501726 163.847711 
L 733.333894 155.178522 
L 731.166062 186.534587 
L 728.99823 161.260434 
L 726.830398 169.76432 
L 724.662566 152.564011 
L 722.494733 169.050319 
L 720.326901 167.413513 
L 718.159069 162.925159 
L 715.991237 158.660157 
L 713.823405 143.912476 
L 711.655573 195.835595 
L 709.48774 169.293492 
L 707.319908 152.063663 
L 705.152076 145.334222 
L 702.984244 154.399611 
L 700.816412 172.457367 
L 698.64858 98.831872 
L 696.480747 178.071914 
L 694.312915 160.126713 
L 692.145083 163.795021 
L 689.977251 175.438107 
L 687.809419 190.803695 
L 685.641587 161.550571 
L 683.473754 150.83324 
L 681.305922 158.325131 
L 679.13809 145.666432 
L 676.970258 127.025725 
L 674.802426 134.684791 
L 672.634594 157.921844 
L 670.466761 130.910092 
L 668.298929 152.9067 
L 666.131097 138.645682 
L 663.963265 186.329301 
L 661.795433 152.616564 
L 659.627601 138.252766 
L 657.459768 171.37962 
L 655.291936 160.508155 
L 653.124104 176.084755 
L 650.956272 156.414338 
L 648.78844 158.758693 
L 646.620608 144.400468 
L 644.452775 155.794377 
L 642.284943 172.996403 
L 640.117111 142.931587 
L 637.949279 175.923512 
L 635.781447 94.465751 
L 633.613615 182.405189 
L 631.445782 149.640751 
L 629.27795 127.506092 
L 627.110118 130.764846 
L 624.942286 132.180434 
L 622.774454 168.769691 
L 620.606622 181.520704 
L 618.438789 160.164016 
L 616.270957 140.907102 
L 614.103125 174.609048 
L 611.935293 141.123126 
L 609.767461 167.023155 
L 607.599628 173.443967 
L 605.431796 154.045348 
L 603.263964 150.580136 
L 601.096132 172.550865 
L 598.9283 146.72947 
L 596.760468 139.077133 
L 594.592635 150.95786 
L 592.424803 152.337376 
L 590.256971 182.56971 
L 588.089139 145.613879 
L 585.921307 127.242361 
L 583.753475 169.835245 
L 581.585642 153.78132 
L 579.41781 182.219846 
L 577.249978 145.593761 
L 575.082146 181.750623 
L 572.914314 84.813111 
L 570.746482 151.907098 
L 568.578649 167.644695 
L 566.410817 155.064528 
L 564.242985 166.105162 
L 562.075153 154.695222 
L 559.907321 170.498947 
L 557.739489 131.095107 
L 555.571656 181.671793 
L 553.403824 179.757147 
L 551.235992 175.125469 
L 549.06816 148.957562 
L 546.900328 160.473704 
L 544.732496 93.954298 
L 542.564663 195.151633 
L 540.396831 157.435208 
L 538.228999 80.861215 
L 536.061167 132.757069 
L 533.893335 140.720977 
L 531.725503 148.839318 
L 529.55767 165.49784 
L 527.389838 183.900518 
L 525.222006 149.016684 
L 523.054174 164.833079 
L 520.886342 160.375167 
L 518.71851 169.896641 
L 516.550677 126.693163 
L 514.382845 142.442635 
L 512.215013 172.494318 
L 510.047181 150.153143 
L 507.879349 98.179065 
L 505.711517 164.301391 
L 503.543684 136.190771 
L 501.375852 147.786206 
L 499.20802 92.31707 
L 497.040188 178.203297 
L 494.872356 167.80766 
L 492.704524 183.674684 
L 490.536691 160.634178 
L 488.368859 169.137907 
L 486.201027 177.450833 
L 484.033195 147.25825 
L 481.865363 199.228595 
L 479.697531 172.376485 
L 477.529698 135.766764 
L 475.361866 167.876636 
L 473.194034 122.012663 
L 471.026202 151.38368 
L 468.85837 138.969211 
L 466.690538 167.933568 
L 464.522705 167.714597 
L 462.354873 154.806271 
L 460.187041 159.284223 
L 458.019209 191.974993 
L 455.851377 161.837223 
L 453.683545 181.055938 
L 451.515712 167.298553 
L 449.34788 158.470223 
L 447.180048 183.387429 
L 445.012216 126.350179 
L 442.844384 164.385147 
L 440.676552 160.072518 
L 438.508719 187.719682 
L 436.340887 109.749174 
L 434.173055 125.445776 
L 432.005223 171.892655 
L 429.837391 137.687266 
L 427.669559 140.815604 
L 425.501726 126.171903 
L 423.333894 186.21131 
L 421.166062 146.174718 
L 418.99823 163.833341 
L 416.830398 170.548955 
L 414.662566 134.264434 
L 412.494733 116.880536 
L 410.326901 166.072893 
L 408.159069 173.030113 
L 405.991237 162.018621 
L 403.823405 126.817924 
L 401.655573 155.047139 
L 399.48774 141.941739 
L 397.319908 187.020373 
L 395.152076 161.242107 
L 392.984244 140.302086 
L 390.816412 171.088937 
L 388.64858 129.735488 
L 386.480747 147.591185 
L 384.312915 156.009768 
L 382.145083 146.125765 
L 379.977251 145.910087 
L 377.809419 166.783972 
L 375.641587 161.463978 
L 373.473754 110.378833 
L 371.305922 129.1542 
L 369.13809 143.861066 
L 366.970258 154.111039 
L 364.802426 179.66396 
L 362.634594 145.540476 
L 360.466761 158.359072 
L 358.298929 86.109671 
L 356.131097 146.872866 
L 353.963265 129.961302 
L 351.795433 153.994766 
L 349.627601 144.953539 
L 347.459768 162.00676 
L 345.291936 106.85715 
L 343.124104 70.290676 
L 340.956272 157.716202 
L 338.78844 178.113718 
L 336.620608 164.420456 
L 334.452775 139.393373 
L 332.284943 110.700634 
L 330.117111 148.381826 
L 327.949279 106.015207 
L 325.781447 182.55534 
L 323.613615 172.02011 
L 321.445782 125.671568 
L 319.27795 140.185213 
L 317.110118 149.850617 
L 314.942286 166.132534 
L 312.774454 49.082137 
L 310.606622 90.720498 
L 308.438789 157.922623 
L 306.270957 98.799992 
L 304.103125 160.11686 
L 301.935293 37.341598 
L 299.767461 159.530565 
L 297.599628 177.480693 
L 295.431796 112.019385 
L 293.263964 167.110864 
L 291.096132 175.560191 
L 288.9283 167.644695 
L 286.760468 168.357824 
L 284.592635 194.31028 
L 282.424803 166.231071 
L 280.256971 117.200034 
L 278.089139 195.299438 
L 275.921307 33.863248 
L 273.753475 155.820274 
L 271.585642 25.397291 
L 269.41781 153.700469 
L 267.249978 173.418786 
L 265.082146 173.514102 
L 262.914314 188.319746 
L 260.746482 129.910391 
L 258.578649 128.481607 
L 256.410817 170.528372 
L 254.242985 115.179133 
L 252.075153 161.6294 
L 249.907321 64.491783 
L 247.739489 214.070707 
L 245.571656 199.388717 
L 243.403824 159.29654 
L 241.235992 124.953988 
L 239.06816 183.72136 
L 236.900328 169.926202 
L 234.732496 156.68942 
L 232.564663 209.340938 
L 230.396831 189.63357 
L 228.228999 145.661505 
L 226.061167 126.189921 
L 223.893335 126.569992 
L 221.725503 150.218834 
L 219.55767 181.036231 
z
" style="fill:#1f77b4;fill-opacity:0.2;stroke:#1f77b4;stroke-opacity:0.2;"/>
   </g>
   <g id="matplotlib.axis_1">
    <g id="xtick_1">
     <g id="line2d_1">
      <defs>
       <path d="M 0 0 
L 0 3.5 
" id="me232c8796a" style="stroke:#000000;stroke-width:0.8;"/>
      </defs>
      <g>
       <use style="stroke:#000000;stroke-width:0.8;" x="41.795433" xlink:href="#me232c8796a" y="252"/>
      </g>
     </g>
     <g id="text_1">
      <!-- Mar 2020 -->
      <g transform="translate(44.554808 306.495312)rotate(-90)scale(0.1 -0.1)">
       <defs>
        <path d="M 9.8125 72.90625 
L 24.515625 72.90625 
L 43.109375 23.296875 
L 61.8125 72.90625 
L 76.515625 72.90625 
L 76.515625 0 
L 66.890625 0 
L 66.890625 64.015625 
L 48.09375 14.015625 
L 38.1875 14.015625 
L 19.390625 64.015625 
L 19.390625 0 
L 9.8125 0 
z
" id="DejaVuSans-77"/>
        <path d="M 34.28125 27.484375 
Q 23.390625 27.484375 19.1875 25 
Q 14.984375 22.515625 14.984375 16.5 
Q 14.984375 11.71875 18.140625 8.90625 
Q 21.296875 6.109375 26.703125 6.109375 
Q 34.1875 6.109375 38.703125 11.40625 
Q 43.21875 16.703125 43.21875 25.484375 
L 43.21875 27.484375 
z
M 52.203125 31.203125 
L 52.203125 0 
L 43.21875 0 
L 43.21875 8.296875 
Q 40.140625 3.328125 35.546875 0.953125 
Q 30.953125 -1.421875 24.3125 -1.421875 
Q 15.921875 -1.421875 10.953125 3.296875 
Q 6 8.015625 6 15.921875 
Q 6 25.140625 12.171875 29.828125 
Q 18.359375 34.515625 30.609375 34.515625 
L 43.21875 34.515625 
L 43.21875 35.40625 
Q 43.21875 41.609375 39.140625 45 
Q 35.0625 48.390625 27.6875 48.390625 
Q 23 48.390625 18.546875 47.265625 
Q 14.109375 46.140625 10.015625 43.890625 
L 10.015625 52.203125 
Q 14.9375 54.109375 19.578125 55.046875 
Q 24.21875 56 28.609375 56 
Q 40.484375 56 46.34375 49.84375 
Q 52.203125 43.703125 52.203125 31.203125 
z
" id="DejaVuSans-97"/>
        <path d="M 41.109375 46.296875 
Q 39.59375 47.171875 37.8125 47.578125 
Q 36.03125 48 33.890625 48 
Q 26.265625 48 22.1875 43.046875 
Q 18.109375 38.09375 18.109375 28.8125 
L 18.109375 0 
L 9.078125 0 
L 9.078125 54.6875 
L 18.109375 54.6875 
L 18.109375 46.1875 
Q 20.953125 51.171875 25.484375 53.578125 
Q 30.03125 56 36.53125 56 
Q 37.453125 56 38.578125 55.875 
Q 39.703125 55.765625 41.0625 55.515625 
z
" id="DejaVuSans-114"/>
        <path id="DejaVuSans-32"/>
        <path d="M 19.1875 8.296875 
L 53.609375 8.296875 
L 53.609375 0 
L 7.328125 0 
L 7.328125 8.296875 
Q 12.9375 14.109375 22.625 23.890625 
Q 32.328125 33.6875 34.8125 36.53125 
Q 39.546875 41.84375 41.421875 45.53125 
Q 43.3125 49.21875 43.3125 52.78125 
Q 43.3125 58.59375 39.234375 62.25 
Q 35.15625 65.921875 28.609375 65.921875 
Q 23.96875 65.921875 18.8125 64.3125 
Q 13.671875 62.703125 7.8125 59.421875 
L 7.8125 69.390625 
Q 13.765625 71.78125 18.9375 73 
Q 24.125 74.21875 28.421875 74.21875 
Q 39.75 74.21875 46.484375 68.546875 
Q 53.21875 62.890625 53.21875 53.421875 
Q 53.21875 48.921875 51.53125 44.890625 
Q 49.859375 40.875 45.40625 35.40625 
Q 44.1875 33.984375 37.640625 27.21875 
Q 31.109375 20.453125 19.1875 8.296875 
z
" id="DejaVuSans-50"/>
        <path d="M 31.78125 66.40625 
Q 24.171875 66.40625 20.328125 58.90625 
Q 16.5 51.421875 16.5 36.375 
Q 16.5 21.390625 20.328125 13.890625 
Q 24.171875 6.390625 31.78125 6.390625 
Q 39.453125 6.390625 43.28125 13.890625 
Q 47.125 21.390625 47.125 36.375 
Q 47.125 51.421875 43.28125 58.90625 
Q 39.453125 66.40625 31.78125 66.40625 
z
M 31.78125 74.21875 
Q 44.046875 74.21875 50.515625 64.515625 
Q 56.984375 54.828125 56.984375 36.375 
Q 56.984375 17.96875 50.515625 8.265625 
Q 44.046875 -1.421875 31.78125 -1.421875 
Q 19.53125 -1.421875 13.0625 8.265625 
Q 6.59375 17.96875 6.59375 36.375 
Q 6.59375 54.828125 13.0625 64.515625 
Q 19.53125 74.21875 31.78125 74.21875 
z
" id="DejaVuSans-48"/>
       </defs>
       <use xlink:href="#DejaVuSans-77"/>
       <use x="86.279297" xlink:href="#DejaVuSans-97"/>
       <use x="147.558594" xlink:href="#DejaVuSans-114"/>
       <use x="188.671875" xlink:href="#DejaVuSans-32"/>
       <use x="220.458984" xlink:href="#DejaVuSans-50"/>
       <use x="284.082031" xlink:href="#DejaVuSans-48"/>
       <use x="347.705078" xlink:href="#DejaVuSans-50"/>
       <use x="411.328125" xlink:href="#DejaVuSans-48"/>
      </g>
     </g>
    </g>
    <g id="xtick_2">
     <g id="line2d_2">
      <g>
       <use style="stroke:#000000;stroke-width:0.8;" x="108.99823" xlink:href="#me232c8796a" y="252"/>
      </g>
     </g>
     <g id="text_2">
      <!-- Apr 2020 -->
      <g transform="translate(111.757605 304.928125)rotate(-90)scale(0.1 -0.1)">
       <defs>
        <path d="M 34.1875 63.1875 
L 20.796875 26.90625 
L 47.609375 26.90625 
z
M 28.609375 72.90625 
L 39.796875 72.90625 
L 67.578125 0 
L 57.328125 0 
L 50.6875 18.703125 
L 17.828125 18.703125 
L 11.1875 0 
L 0.78125 0 
z
" id="DejaVuSans-65"/>
        <path d="M 18.109375 8.203125 
L 18.109375 -20.796875 
L 9.078125 -20.796875 
L 9.078125 54.6875 
L 18.109375 54.6875 
L 18.109375 46.390625 
Q 20.953125 51.265625 25.265625 53.625 
Q 29.59375 56 35.59375 56 
Q 45.5625 56 51.78125 48.09375 
Q 58.015625 40.1875 58.015625 27.296875 
Q 58.015625 14.40625 51.78125 6.484375 
Q 45.5625 -1.421875 35.59375 -1.421875 
Q 29.59375 -1.421875 25.265625 0.953125 
Q 20.953125 3.328125 18.109375 8.203125 
z
M 48.6875 27.296875 
Q 48.6875 37.203125 44.609375 42.84375 
Q 40.53125 48.484375 33.40625 48.484375 
Q 26.265625 48.484375 22.1875 42.84375 
Q 18.109375 37.203125 18.109375 27.296875 
Q 18.109375 17.390625 22.1875 11.75 
Q 26.265625 6.109375 33.40625 6.109375 
Q 40.53125 6.109375 44.609375 11.75 
Q 48.6875 17.390625 48.6875 27.296875 
z
" id="DejaVuSans-112"/>
       </defs>
       <use xlink:href="#DejaVuSans-65"/>
       <use x="68.408203" xlink:href="#DejaVuSans-112"/>
       <use x="131.884766" xlink:href="#DejaVuSans-114"/>
       <use x="172.998047" xlink:href="#DejaVuSans-32"/>
       <use x="204.785156" xlink:href="#DejaVuSans-50"/>
       <use x="268.408203" xlink:href="#DejaVuSans-48"/>
       <use x="332.03125" xlink:href="#DejaVuSans-50"/>
       <use x="395.654297" xlink:href="#DejaVuSans-48"/>
      </g>
     </g>
    </g>
    <g id="xtick_3">
     <g id="line2d_3">
      <g>
       <use style="stroke:#000000;stroke-width:0.8;" x="174.033195" xlink:href="#me232c8796a" y="252"/>
      </g>
     </g>
     <g id="text_3">
      <!-- May 2020 -->
      <g transform="translate(176.79257 308.303125)rotate(-90)scale(0.1 -0.1)">
       <defs>
        <path d="M 32.171875 -5.078125 
Q 28.375 -14.84375 24.75 -17.8125 
Q 21.140625 -20.796875 15.09375 -20.796875 
L 7.90625 -20.796875 
L 7.90625 -13.28125 
L 13.1875 -13.28125 
Q 16.890625 -13.28125 18.9375 -11.515625 
Q 21 -9.765625 23.484375 -3.21875 
L 25.09375 0.875 
L 2.984375 54.6875 
L 12.5 54.6875 
L 29.59375 11.921875 
L 46.6875 54.6875 
L 56.203125 54.6875 
z
" id="DejaVuSans-121"/>
       </defs>
       <use xlink:href="#DejaVuSans-77"/>
       <use x="86.279297" xlink:href="#DejaVuSans-97"/>
       <use x="147.558594" xlink:href="#DejaVuSans-121"/>
       <use x="206.738281" xlink:href="#DejaVuSans-32"/>
       <use x="238.525391" xlink:href="#DejaVuSans-50"/>
       <use x="302.148438" xlink:href="#DejaVuSans-48"/>
       <use x="365.771484" xlink:href="#DejaVuSans-50"/>
       <use x="429.394531" xlink:href="#DejaVuSans-48"/>
      </g>
     </g>
    </g>
    <g id="xtick_4">
     <g id="line2d_4">
      <g>
       <use style="stroke:#000000;stroke-width:0.8;" x="241.235992" xlink:href="#me232c8796a" y="252"/>
      </g>
     </g>
     <g id="text_4">
      <!-- Jun 2020 -->
      <g transform="translate(243.995367 303.253125)rotate(-90)scale(0.1 -0.1)">
       <defs>
        <path d="M 9.8125 72.90625 
L 19.671875 72.90625 
L 19.671875 5.078125 
Q 19.671875 -8.109375 14.671875 -14.0625 
Q 9.671875 -20.015625 -1.421875 -20.015625 
L -5.171875 -20.015625 
L -5.171875 -11.71875 
L -2.09375 -11.71875 
Q 4.4375 -11.71875 7.125 -8.046875 
Q 9.8125 -4.390625 9.8125 5.078125 
z
" id="DejaVuSans-74"/>
        <path d="M 8.5 21.578125 
L 8.5 54.6875 
L 17.484375 54.6875 
L 17.484375 21.921875 
Q 17.484375 14.15625 20.5 10.265625 
Q 23.53125 6.390625 29.59375 6.390625 
Q 36.859375 6.390625 41.078125 11.03125 
Q 45.3125 15.671875 45.3125 23.6875 
L 45.3125 54.6875 
L 54.296875 54.6875 
L 54.296875 0 
L 45.3125 0 
L 45.3125 8.40625 
Q 42.046875 3.421875 37.71875 1 
Q 33.40625 -1.421875 27.6875 -1.421875 
Q 18.265625 -1.421875 13.375 4.4375 
Q 8.5 10.296875 8.5 21.578125 
z
M 31.109375 56 
z
" id="DejaVuSans-117"/>
        <path d="M 54.890625 33.015625 
L 54.890625 0 
L 45.90625 0 
L 45.90625 32.71875 
Q 45.90625 40.484375 42.875 44.328125 
Q 39.84375 48.1875 33.796875 48.1875 
Q 26.515625 48.1875 22.3125 43.546875 
Q 18.109375 38.921875 18.109375 30.90625 
L 18.109375 0 
L 9.078125 0 
L 9.078125 54.6875 
L 18.109375 54.6875 
L 18.109375 46.1875 
Q 21.34375 51.125 25.703125 53.5625 
Q 30.078125 56 35.796875 56 
Q 45.21875 56 50.046875 50.171875 
Q 54.890625 44.34375 54.890625 33.015625 
z
" id="DejaVuSans-110"/>
       </defs>
       <use xlink:href="#DejaVuSans-74"/>
       <use x="29.492188" xlink:href="#DejaVuSans-117"/>
       <use x="92.871094" xlink:href="#DejaVuSans-110"/>
       <use x="156.25" xlink:href="#DejaVuSans-32"/>
       <use x="188.037109" xlink:href="#DejaVuSans-50"/>
       <use x="251.660156" xlink:href="#DejaVuSans-48"/>
       <use x="315.283203" xlink:href="#DejaVuSans-50"/>
       <use x="378.90625" xlink:href="#DejaVuSans-48"/>
      </g>
     </g>
    </g>
    <g id="xtick_5">
     <g id="line2d_5">
      <g>
       <use style="stroke:#000000;stroke-width:0.8;" x="306.270957" xlink:href="#me232c8796a" y="252"/>
      </g>
     </g>
     <g id="text_5">
      <!-- Jul 2020 -->
      <g transform="translate(309.030332 299.69375)rotate(-90)scale(0.1 -0.1)">
       <defs>
        <path d="M 9.421875 75.984375 
L 18.40625 75.984375 
L 18.40625 0 
L 9.421875 0 
z
" id="DejaVuSans-108"/>
       </defs>
       <use xlink:href="#DejaVuSans-74"/>
       <use x="29.492188" xlink:href="#DejaVuSans-117"/>
       <use x="92.871094" xlink:href="#DejaVuSans-108"/>
       <use x="120.654297" xlink:href="#DejaVuSans-32"/>
       <use x="152.441406" xlink:href="#DejaVuSans-50"/>
       <use x="216.064453" xlink:href="#DejaVuSans-48"/>
       <use x="279.6875" xlink:href="#DejaVuSans-50"/>
       <use x="343.310547" xlink:href="#DejaVuSans-48"/>
      </g>
     </g>
    </g>
    <g id="xtick_6">
     <g id="line2d_6">
      <g>
       <use style="stroke:#000000;stroke-width:0.8;" x="373.473754" xlink:href="#me232c8796a" y="252"/>
      </g>
     </g>
     <g id="text_6">
      <!-- Aug 2020 -->
      <g transform="translate(376.233129 307.154687)rotate(-90)scale(0.1 -0.1)">
       <defs>
        <path d="M 45.40625 27.984375 
Q 45.40625 37.75 41.375 43.109375 
Q 37.359375 48.484375 30.078125 48.484375 
Q 22.859375 48.484375 18.828125 43.109375 
Q 14.796875 37.75 14.796875 27.984375 
Q 14.796875 18.265625 18.828125 12.890625 
Q 22.859375 7.515625 30.078125 7.515625 
Q 37.359375 7.515625 41.375 12.890625 
Q 45.40625 18.265625 45.40625 27.984375 
z
M 54.390625 6.78125 
Q 54.390625 -7.171875 48.1875 -13.984375 
Q 42 -20.796875 29.203125 -20.796875 
Q 24.46875 -20.796875 20.265625 -20.09375 
Q 16.0625 -19.390625 12.109375 -17.921875 
L 12.109375 -9.1875 
Q 16.0625 -11.328125 19.921875 -12.34375 
Q 23.78125 -13.375 27.78125 -13.375 
Q 36.625 -13.375 41.015625 -8.765625 
Q 45.40625 -4.15625 45.40625 5.171875 
L 45.40625 9.625 
Q 42.625 4.78125 38.28125 2.390625 
Q 33.9375 0 27.875 0 
Q 17.828125 0 11.671875 7.65625 
Q 5.515625 15.328125 5.515625 27.984375 
Q 5.515625 40.671875 11.671875 48.328125 
Q 17.828125 56 27.875 56 
Q 33.9375 56 38.28125 53.609375 
Q 42.625 51.21875 45.40625 46.390625 
L 45.40625 54.6875 
L 54.390625 54.6875 
z
" id="DejaVuSans-103"/>
       </defs>
       <use xlink:href="#DejaVuSans-65"/>
       <use x="68.408203" xlink:href="#DejaVuSans-117"/>
       <use x="131.787109" xlink:href="#DejaVuSans-103"/>
       <use x="195.263672" xlink:href="#DejaVuSans-32"/>
       <use x="227.050781" xlink:href="#DejaVuSans-50"/>
       <use x="290.673828" xlink:href="#DejaVuSans-48"/>
       <use x="354.296875" xlink:href="#DejaVuSans-50"/>
       <use x="417.919922" xlink:href="#DejaVuSans-48"/>
      </g>
     </g>
    </g>
    <g id="xtick_7">
     <g id="line2d_7">
      <g>
       <use style="stroke:#000000;stroke-width:0.8;" x="440.676552" xlink:href="#me232c8796a" y="252"/>
      </g>
     </g>
     <g id="text_7">
      <!-- Sep 2020 -->
      <g transform="translate(443.435927 306.478125)rotate(-90)scale(0.1 -0.1)">
       <defs>
        <path d="M 53.515625 70.515625 
L 53.515625 60.890625 
Q 47.90625 63.578125 42.921875 64.890625 
Q 37.9375 66.21875 33.296875 66.21875 
Q 25.25 66.21875 20.875 63.09375 
Q 16.5 59.96875 16.5 54.203125 
Q 16.5 49.359375 19.40625 46.890625 
Q 22.3125 44.4375 30.421875 42.921875 
L 36.375 41.703125 
Q 47.40625 39.59375 52.65625 34.296875 
Q 57.90625 29 57.90625 20.125 
Q 57.90625 9.515625 50.796875 4.046875 
Q 43.703125 -1.421875 29.984375 -1.421875 
Q 24.8125 -1.421875 18.96875 -0.25 
Q 13.140625 0.921875 6.890625 3.21875 
L 6.890625 13.375 
Q 12.890625 10.015625 18.65625 8.296875 
Q 24.421875 6.59375 29.984375 6.59375 
Q 38.421875 6.59375 43.015625 9.90625 
Q 47.609375 13.234375 47.609375 19.390625 
Q 47.609375 24.75 44.3125 27.78125 
Q 41.015625 30.8125 33.5 32.328125 
L 27.484375 33.5 
Q 16.453125 35.6875 11.515625 40.375 
Q 6.59375 45.0625 6.59375 53.421875 
Q 6.59375 63.09375 13.40625 68.65625 
Q 20.21875 74.21875 32.171875 74.21875 
Q 37.3125 74.21875 42.625 73.28125 
Q 47.953125 72.359375 53.515625 70.515625 
z
" id="DejaVuSans-83"/>
        <path d="M 56.203125 29.59375 
L 56.203125 25.203125 
L 14.890625 25.203125 
Q 15.484375 15.921875 20.484375 11.0625 
Q 25.484375 6.203125 34.421875 6.203125 
Q 39.59375 6.203125 44.453125 7.46875 
Q 49.3125 8.734375 54.109375 11.28125 
L 54.109375 2.78125 
Q 49.265625 0.734375 44.1875 -0.34375 
Q 39.109375 -1.421875 33.890625 -1.421875 
Q 20.796875 -1.421875 13.15625 6.1875 
Q 5.515625 13.8125 5.515625 26.8125 
Q 5.515625 40.234375 12.765625 48.109375 
Q 20.015625 56 32.328125 56 
Q 43.359375 56 49.78125 48.890625 
Q 56.203125 41.796875 56.203125 29.59375 
z
M 47.21875 32.234375 
Q 47.125 39.59375 43.09375 43.984375 
Q 39.0625 48.390625 32.421875 48.390625 
Q 24.90625 48.390625 20.390625 44.140625 
Q 15.875 39.890625 15.1875 32.171875 
z
" id="DejaVuSans-101"/>
       </defs>
       <use xlink:href="#DejaVuSans-83"/>
       <use x="63.476562" xlink:href="#DejaVuSans-101"/>
       <use x="125" xlink:href="#DejaVuSans-112"/>
       <use x="188.476562" xlink:href="#DejaVuSans-32"/>
       <use x="220.263672" xlink:href="#DejaVuSans-50"/>
       <use x="283.886719" xlink:href="#DejaVuSans-48"/>
       <use x="347.509766" xlink:href="#DejaVuSans-50"/>
       <use x="411.132812" xlink:href="#DejaVuSans-48"/>
      </g>
     </g>
    </g>
    <g id="xtick_8">
     <g id="line2d_8">
      <g>
       <use style="stroke:#000000;stroke-width:0.8;" x="505.711517" xlink:href="#me232c8796a" y="252"/>
      </g>
     </g>
     <g id="text_8">
      <!-- Oct 2020 -->
      <g transform="translate(508.470892 304.91875)rotate(-90)scale(0.1 -0.1)">
       <defs>
        <path d="M 39.40625 66.21875 
Q 28.65625 66.21875 22.328125 58.203125 
Q 16.015625 50.203125 16.015625 36.375 
Q 16.015625 22.609375 22.328125 14.59375 
Q 28.65625 6.59375 39.40625 6.59375 
Q 50.140625 6.59375 56.421875 14.59375 
Q 62.703125 22.609375 62.703125 36.375 
Q 62.703125 50.203125 56.421875 58.203125 
Q 50.140625 66.21875 39.40625 66.21875 
z
M 39.40625 74.21875 
Q 54.734375 74.21875 63.90625 63.9375 
Q 73.09375 53.65625 73.09375 36.375 
Q 73.09375 19.140625 63.90625 8.859375 
Q 54.734375 -1.421875 39.40625 -1.421875 
Q 24.03125 -1.421875 14.8125 8.828125 
Q 5.609375 19.09375 5.609375 36.375 
Q 5.609375 53.65625 14.8125 63.9375 
Q 24.03125 74.21875 39.40625 74.21875 
z
" id="DejaVuSans-79"/>
        <path d="M 48.78125 52.59375 
L 48.78125 44.1875 
Q 44.96875 46.296875 41.140625 47.34375 
Q 37.3125 48.390625 33.40625 48.390625 
Q 24.65625 48.390625 19.8125 42.84375 
Q 14.984375 37.3125 14.984375 27.296875 
Q 14.984375 17.28125 19.8125 11.734375 
Q 24.65625 6.203125 33.40625 6.203125 
Q 37.3125 6.203125 41.140625 7.25 
Q 44.96875 8.296875 48.78125 10.40625 
L 48.78125 2.09375 
Q 45.015625 0.34375 40.984375 -0.53125 
Q 36.96875 -1.421875 32.421875 -1.421875 
Q 20.0625 -1.421875 12.78125 6.34375 
Q 5.515625 14.109375 5.515625 27.296875 
Q 5.515625 40.671875 12.859375 48.328125 
Q 20.21875 56 33.015625 56 
Q 37.15625 56 41.109375 55.140625 
Q 45.0625 54.296875 48.78125 52.59375 
z
" id="DejaVuSans-99"/>
        <path d="M 18.3125 70.21875 
L 18.3125 54.6875 
L 36.8125 54.6875 
L 36.8125 47.703125 
L 18.3125 47.703125 
L 18.3125 18.015625 
Q 18.3125 11.328125 20.140625 9.421875 
Q 21.96875 7.515625 27.59375 7.515625 
L 36.8125 7.515625 
L 36.8125 0 
L 27.59375 0 
Q 17.1875 0 13.234375 3.875 
Q 9.28125 7.765625 9.28125 18.015625 
L 9.28125 47.703125 
L 2.6875 47.703125 
L 2.6875 54.6875 
L 9.28125 54.6875 
L 9.28125 70.21875 
z
" id="DejaVuSans-116"/>
       </defs>
       <use xlink:href="#DejaVuSans-79"/>
       <use x="78.710938" xlink:href="#DejaVuSans-99"/>
       <use x="133.691406" xlink:href="#DejaVuSans-116"/>
       <use x="172.900391" xlink:href="#DejaVuSans-32"/>
       <use x="204.6875" xlink:href="#DejaVuSans-50"/>
       <use x="268.310547" xlink:href="#DejaVuSans-48"/>
       <use x="331.933594" xlink:href="#DejaVuSans-50"/>
       <use x="395.556641" xlink:href="#DejaVuSans-48"/>
      </g>
     </g>
    </g>
    <g id="xtick_9">
     <g id="line2d_9">
      <g>
       <use style="stroke:#000000;stroke-width:0.8;" x="572.914314" xlink:href="#me232c8796a" y="252"/>
      </g>
     </g>
     <g id="text_9">
      <!-- Nov 2020 -->
      <g transform="translate(575.673689 307.146875)rotate(-90)scale(0.1 -0.1)">
       <defs>
        <path d="M 9.8125 72.90625 
L 23.09375 72.90625 
L 55.421875 11.921875 
L 55.421875 72.90625 
L 64.984375 72.90625 
L 64.984375 0 
L 51.703125 0 
L 19.390625 60.984375 
L 19.390625 0 
L 9.8125 0 
z
" id="DejaVuSans-78"/>
        <path d="M 30.609375 48.390625 
Q 23.390625 48.390625 19.1875 42.75 
Q 14.984375 37.109375 14.984375 27.296875 
Q 14.984375 17.484375 19.15625 11.84375 
Q 23.34375 6.203125 30.609375 6.203125 
Q 37.796875 6.203125 41.984375 11.859375 
Q 46.1875 17.53125 46.1875 27.296875 
Q 46.1875 37.015625 41.984375 42.703125 
Q 37.796875 48.390625 30.609375 48.390625 
z
M 30.609375 56 
Q 42.328125 56 49.015625 48.375 
Q 55.71875 40.765625 55.71875 27.296875 
Q 55.71875 13.875 49.015625 6.21875 
Q 42.328125 -1.421875 30.609375 -1.421875 
Q 18.84375 -1.421875 12.171875 6.21875 
Q 5.515625 13.875 5.515625 27.296875 
Q 5.515625 40.765625 12.171875 48.375 
Q 18.84375 56 30.609375 56 
z
" id="DejaVuSans-111"/>
        <path d="M 2.984375 54.6875 
L 12.5 54.6875 
L 29.59375 8.796875 
L 46.6875 54.6875 
L 56.203125 54.6875 
L 35.6875 0 
L 23.484375 0 
z
" id="DejaVuSans-118"/>
       </defs>
       <use xlink:href="#DejaVuSans-78"/>
       <use x="74.804688" xlink:href="#DejaVuSans-111"/>
       <use x="135.986328" xlink:href="#DejaVuSans-118"/>
       <use x="195.166016" xlink:href="#DejaVuSans-32"/>
       <use x="226.953125" xlink:href="#DejaVuSans-50"/>
       <use x="290.576172" xlink:href="#DejaVuSans-48"/>
       <use x="354.199219" xlink:href="#DejaVuSans-50"/>
       <use x="417.822266" xlink:href="#DejaVuSans-48"/>
      </g>
     </g>
    </g>
    <g id="xtick_10">
     <g id="line2d_10">
      <g>
       <use style="stroke:#000000;stroke-width:0.8;" x="637.949279" xlink:href="#me232c8796a" y="252"/>
      </g>
     </g>
     <g id="text_10">
      <!-- Dec 2020 -->
      <g transform="translate(640.708654 306.979687)rotate(-90)scale(0.1 -0.1)">
       <defs>
        <path d="M 19.671875 64.796875 
L 19.671875 8.109375 
L 31.59375 8.109375 
Q 46.6875 8.109375 53.6875 14.9375 
Q 60.6875 21.78125 60.6875 36.53125 
Q 60.6875 51.171875 53.6875 57.984375 
Q 46.6875 64.796875 31.59375 64.796875 
z
M 9.8125 72.90625 
L 30.078125 72.90625 
Q 51.265625 72.90625 61.171875 64.09375 
Q 71.09375 55.28125 71.09375 36.53125 
Q 71.09375 17.671875 61.125 8.828125 
Q 51.171875 0 30.078125 0 
L 9.8125 0 
z
" id="DejaVuSans-68"/>
       </defs>
       <use xlink:href="#DejaVuSans-68"/>
       <use x="77.001953" xlink:href="#DejaVuSans-101"/>
       <use x="138.525391" xlink:href="#DejaVuSans-99"/>
       <use x="193.505859" xlink:href="#DejaVuSans-32"/>
       <use x="225.292969" xlink:href="#DejaVuSans-50"/>
       <use x="288.916016" xlink:href="#DejaVuSans-48"/>
       <use x="352.539062" xlink:href="#DejaVuSans-50"/>
       <use x="416.162109" xlink:href="#DejaVuSans-48"/>
      </g>
     </g>
    </g>
    <g id="xtick_11">
     <g id="line2d_11">
      <g>
       <use style="stroke:#000000;stroke-width:0.8;" x="705.152076" xlink:href="#me232c8796a" y="252"/>
      </g>
     </g>
     <g id="text_11">
      <!-- Jan 2021 -->
      <g transform="translate(707.911451 303.04375)rotate(-90)scale(0.1 -0.1)">
       <defs>
        <path d="M 12.40625 8.296875 
L 28.515625 8.296875 
L 28.515625 63.921875 
L 10.984375 60.40625 
L 10.984375 69.390625 
L 28.421875 72.90625 
L 38.28125 72.90625 
L 38.28125 8.296875 
L 54.390625 8.296875 
L 54.390625 0 
L 12.40625 0 
z
" id="DejaVuSans-49"/>
       </defs>
       <use xlink:href="#DejaVuSans-74"/>
       <use x="29.492188" xlink:href="#DejaVuSans-97"/>
       <use x="90.771484" xlink:href="#DejaVuSans-110"/>
       <use x="154.150391" xlink:href="#DejaVuSans-32"/>
       <use x="185.9375" xlink:href="#DejaVuSans-50"/>
       <use x="249.560547" xlink:href="#DejaVuSans-48"/>
       <use x="313.183594" xlink:href="#DejaVuSans-50"/>
       <use x="376.806641" xlink:href="#DejaVuSans-49"/>
      </g>
     </g>
    </g>
    <g id="xtick_12">
     <g id="line2d_12">
      <g>
       <use style="stroke:#000000;stroke-width:0.8;" x="772.354873" xlink:href="#me232c8796a" y="252"/>
      </g>
     </g>
     <g id="text_12">
      <!-- Feb 2021 -->
      <g transform="translate(775.114248 305.33125)rotate(-90)scale(0.1 -0.1)">
       <defs>
        <path d="M 9.8125 72.90625 
L 51.703125 72.90625 
L 51.703125 64.59375 
L 19.671875 64.59375 
L 19.671875 43.109375 
L 48.578125 43.109375 
L 48.578125 34.8125 
L 19.671875 34.8125 
L 19.671875 0 
L 9.8125 0 
z
" id="DejaVuSans-70"/>
        <path d="M 48.6875 27.296875 
Q 48.6875 37.203125 44.609375 42.84375 
Q 40.53125 48.484375 33.40625 48.484375 
Q 26.265625 48.484375 22.1875 42.84375 
Q 18.109375 37.203125 18.109375 27.296875 
Q 18.109375 17.390625 22.1875 11.75 
Q 26.265625 6.109375 33.40625 6.109375 
Q 40.53125 6.109375 44.609375 11.75 
Q 48.6875 17.390625 48.6875 27.296875 
z
M 18.109375 46.390625 
Q 20.953125 51.265625 25.265625 53.625 
Q 29.59375 56 35.59375 56 
Q 45.5625 56 51.78125 48.09375 
Q 58.015625 40.1875 58.015625 27.296875 
Q 58.015625 14.40625 51.78125 6.484375 
Q 45.5625 -1.421875 35.59375 -1.421875 
Q 29.59375 -1.421875 25.265625 0.953125 
Q 20.953125 3.328125 18.109375 8.203125 
L 18.109375 0 
L 9.078125 0 
L 9.078125 75.984375 
L 18.109375 75.984375 
z
" id="DejaVuSans-98"/>
       </defs>
       <use xlink:href="#DejaVuSans-70"/>
       <use x="52.019531" xlink:href="#DejaVuSans-101"/>
       <use x="113.542969" xlink:href="#DejaVuSans-98"/>
       <use x="177.019531" xlink:href="#DejaVuSans-32"/>
       <use x="208.806641" xlink:href="#DejaVuSans-50"/>
       <use x="272.429688" xlink:href="#DejaVuSans-48"/>
       <use x="336.052734" xlink:href="#DejaVuSans-50"/>
       <use x="399.675781" xlink:href="#DejaVuSans-49"/>
      </g>
     </g>
    </g>
    <g id="xtick_13">
     <g id="line2d_13">
      <g>
       <use style="stroke:#000000;stroke-width:0.8;" x="833.054174" xlink:href="#me232c8796a" y="252"/>
      </g>
     </g>
     <g id="text_13">
      <!-- Mar 2021 -->
      <g transform="translate(835.813549 306.495312)rotate(-90)scale(0.1 -0.1)">
       <use xlink:href="#DejaVuSans-77"/>
       <use x="86.279297" xlink:href="#DejaVuSans-97"/>
       <use x="147.558594" xlink:href="#DejaVuSans-114"/>
       <use x="188.671875" xlink:href="#DejaVuSans-32"/>
       <use x="220.458984" xlink:href="#DejaVuSans-50"/>
       <use x="284.082031" xlink:href="#DejaVuSans-48"/>
       <use x="347.705078" xlink:href="#DejaVuSans-50"/>
       <use x="411.328125" xlink:href="#DejaVuSans-49"/>
      </g>
     </g>
    </g>
    <g id="text_14">
     <!-- Start date -->
     <g transform="translate(434.025 319.901562)scale(0.1 -0.1)">
      <defs>
       <path d="M 45.40625 46.390625 
L 45.40625 75.984375 
L 54.390625 75.984375 
L 54.390625 0 
L 45.40625 0 
L 45.40625 8.203125 
Q 42.578125 3.328125 38.25 0.953125 
Q 33.9375 -1.421875 27.875 -1.421875 
Q 17.96875 -1.421875 11.734375 6.484375 
Q 5.515625 14.40625 5.515625 27.296875 
Q 5.515625 40.1875 11.734375 48.09375 
Q 17.96875 56 27.875 56 
Q 33.9375 56 38.25 53.625 
Q 42.578125 51.265625 45.40625 46.390625 
z
M 14.796875 27.296875 
Q 14.796875 17.390625 18.875 11.75 
Q 22.953125 6.109375 30.078125 6.109375 
Q 37.203125 6.109375 41.296875 11.75 
Q 45.40625 17.390625 45.40625 27.296875 
Q 45.40625 37.203125 41.296875 42.84375 
Q 37.203125 48.484375 30.078125 48.484375 
Q 22.953125 48.484375 18.875 42.84375 
Q 14.796875 37.203125 14.796875 27.296875 
z
" id="DejaVuSans-100"/>
      </defs>
      <use xlink:href="#DejaVuSans-83"/>
      <use x="63.476562" xlink:href="#DejaVuSans-116"/>
      <use x="102.685547" xlink:href="#DejaVuSans-97"/>
      <use x="163.964844" xlink:href="#DejaVuSans-114"/>
      <use x="205.078125" xlink:href="#DejaVuSans-116"/>
      <use x="244.287109" xlink:href="#DejaVuSans-32"/>
      <use x="276.074219" xlink:href="#DejaVuSans-100"/>
      <use x="339.550781" xlink:href="#DejaVuSans-97"/>
      <use x="400.830078" xlink:href="#DejaVuSans-116"/>
      <use x="440.039062" xlink:href="#DejaVuSans-101"/>
     </g>
    </g>
   </g>
   <g id="matplotlib.axis_2">
    <g id="ytick_1">
     <g id="line2d_14">
      <defs>
       <path d="M 0 0 
L -3.5 0 
" id="m607d58624e" style="stroke:#000000;stroke-width:0.8;"/>
      </defs>
      <g>
       <use style="stroke:#000000;stroke-width:0.8;" x="40.603125" xlink:href="#m607d58624e" y="240.872727"/>
      </g>
     </g>
     <g id="text_15">
      <!-- 0 -->
      <g transform="translate(27.240625 244.671946)scale(0.1 -0.1)">
       <use xlink:href="#DejaVuSans-48"/>
      </g>
     </g>
    </g>
    <g id="ytick_2">
     <g id="line2d_15">
      <g>
       <use style="stroke:#000000;stroke-width:0.8;" x="40.603125" xlink:href="#m607d58624e" y="201.457991"/>
      </g>
     </g>
     <g id="text_16">
      <!-- 10 -->
      <g transform="translate(20.878125 205.25721)scale(0.1 -0.1)">
       <use xlink:href="#DejaVuSans-49"/>
       <use x="63.623047" xlink:href="#DejaVuSans-48"/>
      </g>
     </g>
    </g>
    <g id="ytick_3">
     <g id="line2d_16">
      <g>
       <use style="stroke:#000000;stroke-width:0.8;" x="40.603125" xlink:href="#m607d58624e" y="162.043255"/>
      </g>
     </g>
     <g id="text_17">
      <!-- 20 -->
      <g transform="translate(20.878125 165.842474)scale(0.1 -0.1)">
       <use xlink:href="#DejaVuSans-50"/>
       <use x="63.623047" xlink:href="#DejaVuSans-48"/>
      </g>
     </g>
    </g>
    <g id="ytick_4">
     <g id="line2d_17">
      <g>
       <use style="stroke:#000000;stroke-width:0.8;" x="40.603125" xlink:href="#m607d58624e" y="122.628519"/>
      </g>
     </g>
     <g id="text_18">
      <!-- 30 -->
      <g transform="translate(20.878125 126.427737)scale(0.1 -0.1)">
       <defs>
        <path d="M 40.578125 39.3125 
Q 47.65625 37.796875 51.625 33 
Q 55.609375 28.21875 55.609375 21.1875 
Q 55.609375 10.40625 48.1875 4.484375 
Q 40.765625 -1.421875 27.09375 -1.421875 
Q 22.515625 -1.421875 17.65625 -0.515625 
Q 12.796875 0.390625 7.625 2.203125 
L 7.625 11.71875 
Q 11.71875 9.328125 16.59375 8.109375 
Q 21.484375 6.890625 26.8125 6.890625 
Q 36.078125 6.890625 40.9375 10.546875 
Q 45.796875 14.203125 45.796875 21.1875 
Q 45.796875 27.640625 41.28125 31.265625 
Q 36.765625 34.90625 28.71875 34.90625 
L 20.21875 34.90625 
L 20.21875 43.015625 
L 29.109375 43.015625 
Q 36.375 43.015625 40.234375 45.921875 
Q 44.09375 48.828125 44.09375 54.296875 
Q 44.09375 59.90625 40.109375 62.90625 
Q 36.140625 65.921875 28.71875 65.921875 
Q 24.65625 65.921875 20.015625 65.03125 
Q 15.375 64.15625 9.8125 62.3125 
L 9.8125 71.09375 
Q 15.4375 72.65625 20.34375 73.4375 
Q 25.25 74.21875 29.59375 74.21875 
Q 40.828125 74.21875 47.359375 69.109375 
Q 53.90625 64.015625 53.90625 55.328125 
Q 53.90625 49.265625 50.4375 45.09375 
Q 46.96875 40.921875 40.578125 39.3125 
z
" id="DejaVuSans-51"/>
       </defs>
       <use xlink:href="#DejaVuSans-51"/>
       <use x="63.623047" xlink:href="#DejaVuSans-48"/>
      </g>
     </g>
    </g>
    <g id="ytick_5">
     <g id="line2d_18">
      <g>
       <use style="stroke:#000000;stroke-width:0.8;" x="40.603125" xlink:href="#m607d58624e" y="83.213782"/>
      </g>
     </g>
     <g id="text_19">
      <!-- 40 -->
      <g transform="translate(20.878125 87.013001)scale(0.1 -0.1)">
       <defs>
        <path d="M 37.796875 64.3125 
L 12.890625 25.390625 
L 37.796875 25.390625 
z
M 35.203125 72.90625 
L 47.609375 72.90625 
L 47.609375 25.390625 
L 58.015625 25.390625 
L 58.015625 17.1875 
L 47.609375 17.1875 
L 47.609375 0 
L 37.796875 0 
L 37.796875 17.1875 
L 4.890625 17.1875 
L 4.890625 26.703125 
z
" id="DejaVuSans-52"/>
       </defs>
       <use xlink:href="#DejaVuSans-52"/>
       <use x="63.623047" xlink:href="#DejaVuSans-48"/>
      </g>
     </g>
    </g>
    <g id="ytick_6">
     <g id="line2d_19">
      <g>
       <use style="stroke:#000000;stroke-width:0.8;" x="40.603125" xlink:href="#m607d58624e" y="43.799046"/>
      </g>
     </g>
     <g id="text_20">
      <!-- 50 -->
      <g transform="translate(20.878125 47.598265)scale(0.1 -0.1)">
       <defs>
        <path d="M 10.796875 72.90625 
L 49.515625 72.90625 
L 49.515625 64.59375 
L 19.828125 64.59375 
L 19.828125 46.734375 
Q 21.96875 47.46875 24.109375 47.828125 
Q 26.265625 48.1875 28.421875 48.1875 
Q 40.625 48.1875 47.75 41.5 
Q 54.890625 34.8125 54.890625 23.390625 
Q 54.890625 11.625 47.5625 5.09375 
Q 40.234375 -1.421875 26.90625 -1.421875 
Q 22.3125 -1.421875 17.546875 -0.640625 
Q 12.796875 0.140625 7.71875 1.703125 
L 7.71875 11.625 
Q 12.109375 9.234375 16.796875 8.0625 
Q 21.484375 6.890625 26.703125 6.890625 
Q 35.15625 6.890625 40.078125 11.328125 
Q 45.015625 15.765625 45.015625 23.390625 
Q 45.015625 31 40.078125 35.4375 
Q 35.15625 39.890625 26.703125 39.890625 
Q 22.75 39.890625 18.8125 39.015625 
Q 14.890625 38.140625 10.796875 36.28125 
z
" id="DejaVuSans-53"/>
       </defs>
       <use xlink:href="#DejaVuSans-53"/>
       <use x="63.623047" xlink:href="#DejaVuSans-48"/>
      </g>
     </g>
    </g>
    <g id="text_21">
     <!-- Stay (in days) -->
     <g transform="translate(14.798438 164.197656)rotate(-90)scale(0.1 -0.1)">
      <defs>
       <path d="M 31 75.875 
Q 24.46875 64.65625 21.28125 53.65625 
Q 18.109375 42.671875 18.109375 31.390625 
Q 18.109375 20.125 21.3125 9.0625 
Q 24.515625 -2 31 -13.1875 
L 23.1875 -13.1875 
Q 15.875 -1.703125 12.234375 9.375 
Q 8.59375 20.453125 8.59375 31.390625 
Q 8.59375 42.28125 12.203125 53.3125 
Q 15.828125 64.359375 23.1875 75.875 
z
" id="DejaVuSans-40"/>
       <path d="M 9.421875 54.6875 
L 18.40625 54.6875 
L 18.40625 0 
L 9.421875 0 
z
M 9.421875 75.984375 
L 18.40625 75.984375 
L 18.40625 64.59375 
L 9.421875 64.59375 
z
" id="DejaVuSans-105"/>
       <path d="M 44.28125 53.078125 
L 44.28125 44.578125 
Q 40.484375 46.53125 36.375 47.5 
Q 32.28125 48.484375 27.875 48.484375 
Q 21.1875 48.484375 17.84375 46.4375 
Q 14.5 44.390625 14.5 40.28125 
Q 14.5 37.15625 16.890625 35.375 
Q 19.28125 33.59375 26.515625 31.984375 
L 29.59375 31.296875 
Q 39.15625 29.25 43.1875 25.515625 
Q 47.21875 21.78125 47.21875 15.09375 
Q 47.21875 7.46875 41.1875 3.015625 
Q 35.15625 -1.421875 24.609375 -1.421875 
Q 20.21875 -1.421875 15.453125 -0.5625 
Q 10.6875 0.296875 5.421875 2 
L 5.421875 11.28125 
Q 10.40625 8.6875 15.234375 7.390625 
Q 20.0625 6.109375 24.8125 6.109375 
Q 31.15625 6.109375 34.5625 8.28125 
Q 37.984375 10.453125 37.984375 14.40625 
Q 37.984375 18.0625 35.515625 20.015625 
Q 33.0625 21.96875 24.703125 23.78125 
L 21.578125 24.515625 
Q 13.234375 26.265625 9.515625 29.90625 
Q 5.8125 33.546875 5.8125 39.890625 
Q 5.8125 47.609375 11.28125 51.796875 
Q 16.75 56 26.8125 56 
Q 31.78125 56 36.171875 55.265625 
Q 40.578125 54.546875 44.28125 53.078125 
z
" id="DejaVuSans-115"/>
       <path d="M 8.015625 75.875 
L 15.828125 75.875 
Q 23.140625 64.359375 26.78125 53.3125 
Q 30.421875 42.28125 30.421875 31.390625 
Q 30.421875 20.453125 26.78125 9.375 
Q 23.140625 -1.703125 15.828125 -13.1875 
L 8.015625 -13.1875 
Q 14.5 -2 17.703125 9.0625 
Q 20.90625 20.125 20.90625 31.390625 
Q 20.90625 42.671875 17.703125 53.65625 
Q 14.5 64.65625 8.015625 75.875 
z
" id="DejaVuSans-41"/>
      </defs>
      <use xlink:href="#DejaVuSans-83"/>
      <use x="63.476562" xlink:href="#DejaVuSans-116"/>
      <use x="102.685547" xlink:href="#DejaVuSans-97"/>
      <use x="163.964844" xlink:href="#DejaVuSans-121"/>
      <use x="223.144531" xlink:href="#DejaVuSans-32"/>
      <use x="254.931641" xlink:href="#DejaVuSans-40"/>
      <use x="293.945312" xlink:href="#DejaVuSans-105"/>
      <use x="321.728516" xlink:href="#DejaVuSans-110"/>
      <use x="385.107422" xlink:href="#DejaVuSans-32"/>
      <use x="416.894531" xlink:href="#DejaVuSans-100"/>
      <use x="480.371094" xlink:href="#DejaVuSans-97"/>
      <use x="541.650391" xlink:href="#DejaVuSans-121"/>
      <use x="600.830078" xlink:href="#DejaVuSans-115"/>
      <use x="652.929688" xlink:href="#DejaVuSans-41"/>
     </g>
    </g>
   </g>
   <g id="line2d_20">
    <path clip-path="url(#pea817b42a6)" d="M 78.64858 223.136096 
L 80.816412 181.750623 
L 82.984244 156.131044 
L 85.152076 197.516517 
L 87.319908 108.833361 
L 89.48774 232.98978 
L 91.655573 128.540729 
L 93.823405 65.477151 
L 95.991237 162.043255 
L 98.159069 147.591185 
L 100.326901 173.867676 
L 102.494733 106.205712 
L 104.662566 169.926202 
L 106.830398 108.833361 
L 108.99823 163.357079 
L 111.166062 201.457991 
L 113.333894 173.867676 
L 115.501726 177.809149 
L 117.669559 201.457991 
L 119.837391 177.809149 
L 122.005223 169.926202 
L 124.173055 146.27736 
L 126.340887 142.335887 
L 130.676552 201.457991 
L 135.012216 158.101781 
L 137.180048 167.955465 
L 139.34788 223.793008 
L 143.683545 146.27736 
L 145.851377 154.160308 
L 152.354873 79.272309 
L 154.522705 110.804098 
L 156.690538 190.618939 
L 158.85837 165.984728 
L 161.026202 232.98978 
L 163.194034 193.575044 
L 165.361866 208.027114 
L 167.529698 201.457991 
L 169.697531 206.384833 
L 171.865363 192.261219 
L 174.033195 173.867676 
L 176.201027 152.189571 
L 178.368859 200.669696 
L 180.536691 205.399465 
L 182.704524 164.013992 
L 184.872356 210.654763 
L 187.040188 203.428728 
L 191.375852 221.165359 
L 193.543684 59.564941 
L 195.711517 198.830342 
L 197.879349 165.984728 
L 200.047181 189.63357 
L 202.215013 147.262729 
L 204.382845 173.867676 
L 206.550677 186.677465 
L 208.71851 195.545781 
L 210.886342 174.65597 
L 213.054174 171.896939 
L 215.222006 183.439826 
L 217.389838 169.926202 
L 219.55767 207.370201 
L 221.725503 187.662833 
L 223.893335 184.378272 
L 226.061167 174.993811 
L 228.228999 177.809149 
L 230.396831 213.282412 
L 232.564663 213.282412 
L 234.732496 197.516517 
L 236.900328 193.575044 
L 239.06816 194.560412 
L 241.235992 171.502791 
L 243.403824 179.287202 
L 245.571656 213.282412 
L 247.739489 225.106833 
L 249.907321 163.521307 
L 252.075153 197.516517 
L 254.242985 167.955465 
L 256.410817 198.830342 
L 258.578649 170.714497 
L 260.746482 165.984728 
L 262.914314 193.575044 
L 265.082146 193.111341 
L 267.249978 204.08564 
L 269.41781 185.254155 
L 271.585642 104.891887 
L 273.753475 177.809149 
L 275.921307 144.63508 
L 278.089139 212.09997 
L 280.256971 154.876939 
L 282.424803 197.188061 
L 284.592635 206.005845 
L 286.760468 194.231956 
L 288.9283 189.33038 
L 291.096132 195.429855 
L 293.263964 189.915104 
L 295.431796 152.189571 
L 297.599628 196.202693 
L 299.767461 181.996965 
L 301.935293 147.85395 
L 304.103125 182.14477 
L 306.270957 137.235156 
L 308.438789 177.988307 
L 310.606622 162.043255 
L 312.774454 125.660421 
L 314.942286 181.257939 
L 317.110118 182.580407 
L 319.27795 173.182202 
L 321.445782 162.043255 
L 323.613615 186.020553 
L 325.781447 192.918132 
L 327.949279 151.795423 
L 330.117111 171.052337 
L 332.284943 141.350518 
L 334.452775 165.848816 
L 336.620608 187.827061 
L 338.78844 191.425149 
L 340.956272 178.665991 
L 343.124104 127.555361 
L 345.291936 160.948401 
L 347.459768 176.057383 
L 349.627601 171.811255 
L 351.795433 175.601924 
L 353.963265 162.371711 
L 356.131097 170.783044 
L 358.298929 137.299559 
L 360.466761 176.933266 
L 362.634594 168.041149 
L 364.802426 195.429855 
L 366.970258 175.838412 
L 369.13809 176.60957 
L 371.305922 170.053346 
L 373.473754 153.952862 
L 375.641587 180.795114 
L 377.809419 187.334377 
L 379.977251 176.375886 
L 382.145083 168.561846 
L 384.312915 173.1097 
L 386.480747 176.714295 
L 388.64858 161.550571 
L 390.816412 188.582511 
L 392.984244 179.22808 
L 395.152076 187.234412 
L 397.319908 199.250766 
L 399.48774 173.330202 
L 401.655573 188.056981 
L 403.823405 161.661822 
L 405.991237 189.879912 
L 408.159069 197.910665 
L 410.326901 185.277205 
L 412.494733 148.341942 
L 414.662566 169.06936 
L 416.830398 186.953368 
L 418.99823 184.378272 
L 421.166062 170.747342 
L 423.333894 202.215967 
L 425.501726 165.511752 
L 427.669559 173.304608 
L 429.837391 175.026933 
L 432.005223 186.37757 
L 434.173055 167.417992 
L 436.340887 155.087713 
L 438.508719 202.215967 
L 440.676552 183.617637 
L 442.844384 186.874539 
L 445.012216 183.569765 
L 447.180048 197.078576 
L 449.34788 189.462202 
L 451.515712 186.130038 
L 453.683545 197.12237 
L 455.851377 183.542202 
L 458.019209 207.276357 
L 460.187041 179.04086 
L 462.354873 179.560915 
L 464.522705 197.954459 
L 466.690538 182.845477 
L 468.85837 171.568483 
L 471.026202 173.445375 
L 473.194034 167.709123 
L 475.361866 187.662833 
L 477.529698 162.831549 
L 479.697531 189.63357 
L 481.865363 204.90678 
L 484.033195 170.284518 
L 486.201027 195.008307 
L 488.368859 190.865281 
L 490.536691 181.356476 
L 492.704524 201.457991 
L 494.872356 186.255164 
L 497.040188 197.12237 
L 499.20802 153.553927 
L 501.375852 175.345728 
L 503.543684 172.434413 
L 505.711517 190.947395 
L 507.879349 152.435913 
L 510.047181 178.02812 
L 512.215013 188.894544 
L 514.382845 173.53922 
L 516.550677 162.700167 
L 518.71851 196.531149 
L 520.886342 184.847495 
L 523.054174 190.618939 
L 525.222006 183.327212 
L 527.389838 203.24957 
L 529.55767 186.619502 
L 531.725503 187.334377 
L 533.893335 165.984728 
L 536.061167 159.346457 
L 538.228999 154.652992 
L 540.396831 179.66396 
L 542.564663 209.735086 
L 544.732496 149.915644 
L 546.900328 183.72136 
L 549.06816 179.779886 
L 551.235992 187.778759 
L 553.403824 199.335659 
L 555.571656 197.910665 
L 557.739489 176.899578 
L 559.907321 195.053096 
L 562.075153 178.935285 
L 564.242985 190.071512 
L 566.410817 174.099527 
L 568.578649 197.819708 
L 570.746482 182.013388 
L 572.914314 144.458219 
L 575.082146 204.836397 
L 577.249978 175.59207 
L 579.41781 199.768788 
L 581.585642 176.596388 
L 583.753475 191.755902 
L 585.921307 157.86993 
L 588.089139 170.451732 
L 590.256971 195.053096 
L 592.424803 176.23256 
L 594.592635 181.187555 
L 596.760468 169.644668 
L 598.9283 169.694351 
L 601.096132 205.399465 
L 603.263964 179.122974 
L 605.431796 178.794518 
L 607.599628 188.845275 
L 609.767461 186.601667 
L 611.935293 172.351724 
L 614.103125 192.261219 
L 616.270957 168.831348 
L 618.438789 175.275345 
L 620.606622 193.575044 
L 622.774454 190.463354 
L 624.942286 172.143281 
L 627.110118 166.82933 
L 629.27795 167.955465 
L 631.445782 176.495325 
L 633.613615 200.61339 
L 635.781447 143.8374 
L 637.949279 192.141781 
L 640.117111 160.78915 
L 642.284943 192.74526 
L 644.452775 172.389623 
L 646.620608 169.926202 
L 648.78844 178.137605 
L 650.956272 185.856325 
L 653.124104 188.916939 
L 655.291936 179.053825 
L 657.459768 194.231956 
L 659.627601 172.882307 
L 661.795433 177.371208 
L 663.963265 199.093107 
L 666.131097 172.685234 
L 668.298929 176.714295 
L 670.466761 169.388728 
L 672.634594 181.921991 
L 674.802426 162.506958 
L 676.970258 161.796913 
L 679.13809 176.035486 
L 681.305922 184.903802 
L 683.473754 180.823217 
L 685.641587 182.735991 
L 687.809419 204.660438 
L 689.977251 192.836017 
L 692.145083 182.626506 
L 694.312915 178.006223 
L 696.480747 195.827314 
L 698.64858 158.430237 
L 700.816412 192.096991 
L 702.984244 180.342954 
L 705.152076 170.770804 
L 707.319908 172.991793 
L 709.48774 183.410191 
L 711.655573 206.095019 
L 713.823405 179.385739 
L 715.991237 191.472925 
L 718.159069 185.88917 
L 720.326901 193.08236 
L 722.494733 191.823278 
L 724.662566 181.750623 
L 726.830398 191.885841 
L 728.99823 182.626506 
L 731.166062 204.414096 
L 733.333894 193.137102 
L 735.501726 191.850649 
L 737.669559 218.53771 
L 739.837391 194.138111 
L 742.005223 192.261219 
L 744.173055 206.851587 
L 746.340887 190.196638 
L 748.508719 208.684026 
L 750.676552 204.61117 
L 752.844384 186.601667 
L 755.012216 195.545781 
L 757.180048 189.02719 
L 759.34788 192.448908 
L 761.515712 198.949781 
L 763.683545 201.457991 
L 765.851377 192.261219 
L 768.019209 190.421865 
L 770.187041 193.969191 
L 772.354873 196.202693 
L 774.522705 193.575044 
L 776.690538 200.331856 
L 778.85837 204.08564 
L 781.026202 188.319746 
L 783.194034 196.859605 
L 785.361866 191.885841 
L 787.529698 210.52338 
L 789.697531 208.027114 
L 791.865363 196.728223 
L 794.033195 198.698959 
L 796.201027 202.114903 
L 798.368859 207.218606 
L 800.536691 202.584126 
L 802.704524 206.005845 
L 804.872356 207.824987 
L 807.040188 213.282412 
L 809.20802 220.771212 
L 811.375852 220.508447 
L 813.543684 213.720353 
L 815.711517 211.705822 
L 817.879349 220.448728 
L 820.047181 218.800475 
L 822.215013 220.771212 
L 824.382845 227.734482 
L 826.550677 224.449921 
L 828.71851 232.004412 
L 830.886342 231.413191 
L 833.054174 236.931254 
L 835.222006 232.426712 
L 839.55767 238.90199 
L 839.55767 238.90199 
" style="fill:none;stroke:#1f77b4;stroke-linecap:square;stroke-width:0.8;"/>
   </g>
   <g id="line2d_21">
    <path clip-path="url(#pea817b42a6)" d="M 40.603125 181.944309 
L 877.603125 181.944309 
" style="fill:none;stroke:#000000;stroke-dasharray:2.96,1.28;stroke-dashoffset:0;stroke-width:0.8;"/>
   </g>
   <g id="patch_3">
    <path d="M 40.603125 252 
L 40.603125 7.2 
" style="fill:none;stroke:#000000;stroke-linecap:square;stroke-linejoin:miter;stroke-width:0.8;"/>
   </g>
   <g id="patch_4">
    <path d="M 40.603125 252 
L 877.603125 252 
" style="fill:none;stroke:#000000;stroke-linecap:square;stroke-linejoin:miter;stroke-width:0.8;"/>
   </g>
   <g id="legend_1">
    <g id="patch_5">
     <path d="M 811.35625 29.878125 
L 870.603125 29.878125 
Q 872.603125 29.878125 872.603125 27.878125 
L 872.603125 14.2 
Q 872.603125 12.2 870.603125 12.2 
L 811.35625 12.2 
Q 809.35625 12.2 809.35625 14.2 
L 809.35625 27.878125 
Q 809.35625 29.878125 811.35625 29.878125 
z
" style="fill:#ffffff;opacity:0.8;stroke:#cccccc;stroke-linejoin:miter;"/>
    </g>
    <g id="line2d_22">
     <path d="M 813.35625 20.298437 
L 833.35625 20.298437 
" style="fill:none;stroke:#000000;stroke-dasharray:2.96,1.28;stroke-dashoffset:0;stroke-width:0.8;"/>
    </g>
    <g id="line2d_23"/>
    <g id="text_22">
     <!-- Mean -->
     <g transform="translate(841.35625 23.798437)scale(0.1 -0.1)">
      <use xlink:href="#DejaVuSans-77"/>
      <use x="86.279297" xlink:href="#DejaVuSans-101"/>
      <use x="147.802734" xlink:href="#DejaVuSans-97"/>
      <use x="209.082031" xlink:href="#DejaVuSans-110"/>
     </g>
    </g>
   </g>
  </g>
 </g>
 <defs>
  <clipPath id="pea817b42a6">
   <rect height="244.8" width="837" x="40.603125" y="7.2"/>
  </clipPath>
 </defs>
</svg>
