<?xml version="1.0" encoding="utf-8" standalone="no"?>
<!DOCTYPE svg PUBLIC "-//W3C//DTD SVG 1.1//EN"
  "http://www.w3.org/Graphics/SVG/1.1/DTD/svg11.dtd">
<!-- Created with matplotlib (https://matplotlib.org/) -->
<svg height="304.471175pt" version="1.1" viewBox="0 0 877.4875 304.471175" width="877.4875pt" xmlns="http://www.w3.org/2000/svg" xmlns:xlink="http://www.w3.org/1999/xlink">
 <metadata>
  <rdf:RDF xmlns:cc="http://creativecommons.org/ns#" xmlns:dc="http://purl.org/dc/elements/1.1/" xmlns:rdf="http://www.w3.org/1999/02/22-rdf-syntax-ns#">
   <cc:Work>
    <dc:type rdf:resource="http://purl.org/dc/dcmitype/StillImage"/>
    <dc:date>2021-03-21T00:42:43.525744</dc:date>
    <dc:format>image/svg+xml</dc:format>
    <dc:creator>
     <cc:Agent>
      <dc:title>Matplotlib v3.3.4, https://matplotlib.org/</dc:title>
     </cc:Agent>
    </dc:creator>
   </cc:Work>
  </rdf:RDF>
 </metadata>
 <defs>
  <style type="text/css">*{stroke-linecap:butt;stroke-linejoin:round;}</style>
 </defs>
 <g id="figure_1">
  <g id="patch_1">
   <path d="M 0 304.471175 
L 877.4875 304.471175 
L 877.4875 0 
L 0 0 
z
" style="fill:none;"/>
  </g>
  <g id="axes_1">
   <g id="patch_2">
    <path d="M 33.2875 280.59305 
L 870.2875 280.59305 
L 870.2875 8.79305 
L 33.2875 8.79305 
z
" style="fill:#ffffff;"/>
   </g>
   <g id="matplotlib.axis_1">
    <g id="xtick_1">
     <g id="line2d_1">
      <defs>
       <path d="M 0 0 
L 0 3.5 
" id="m48b2be9969" style="stroke:#000000;stroke-width:0.8;"/>
      </defs>
      <g>
       <use style="stroke:#000000;stroke-width:0.8;" x="71.332955" xlink:href="#m48b2be9969" y="280.59305"/>
      </g>
     </g>
     <g id="text_1">
      <!-- 0 -->
      <g transform="translate(68.151705 295.191487)scale(0.1 -0.1)">
       <defs>
        <path d="M 31.78125 66.40625 
Q 24.171875 66.40625 20.328125 58.90625 
Q 16.5 51.421875 16.5 36.375 
Q 16.5 21.390625 20.328125 13.890625 
Q 24.171875 6.390625 31.78125 6.390625 
Q 39.453125 6.390625 43.28125 13.890625 
Q 47.125 21.390625 47.125 36.375 
Q 47.125 51.421875 43.28125 58.90625 
Q 39.453125 66.40625 31.78125 66.40625 
z
M 31.78125 74.21875 
Q 44.046875 74.21875 50.515625 64.515625 
Q 56.984375 54.828125 56.984375 36.375 
Q 56.984375 17.96875 50.515625 8.265625 
Q 44.046875 -1.421875 31.78125 -1.421875 
Q 19.53125 -1.421875 13.0625 8.265625 
Q 6.59375 17.96875 6.59375 36.375 
Q 6.59375 54.828125 13.0625 64.515625 
Q 19.53125 74.21875 31.78125 74.21875 
z
" id="DejaVuSans-48"/>
       </defs>
       <use xlink:href="#DejaVuSans-48"/>
      </g>
     </g>
    </g>
    <g id="xtick_2">
     <g id="line2d_2">
      <g>
       <use style="stroke:#000000;stroke-width:0.8;" x="229.197911" xlink:href="#m48b2be9969" y="280.59305"/>
      </g>
     </g>
     <g id="text_2">
      <!-- 100 -->
      <g transform="translate(219.654161 295.191487)scale(0.1 -0.1)">
       <defs>
        <path d="M 12.40625 8.296875 
L 28.515625 8.296875 
L 28.515625 63.921875 
L 10.984375 60.40625 
L 10.984375 69.390625 
L 28.421875 72.90625 
L 38.28125 72.90625 
L 38.28125 8.296875 
L 54.390625 8.296875 
L 54.390625 0 
L 12.40625 0 
z
" id="DejaVuSans-49"/>
       </defs>
       <use xlink:href="#DejaVuSans-49"/>
       <use x="63.623047" xlink:href="#DejaVuSans-48"/>
       <use x="127.246094" xlink:href="#DejaVuSans-48"/>
      </g>
     </g>
    </g>
    <g id="xtick_3">
     <g id="line2d_3">
      <g>
       <use style="stroke:#000000;stroke-width:0.8;" x="387.062868" xlink:href="#m48b2be9969" y="280.59305"/>
      </g>
     </g>
     <g id="text_3">
      <!-- 200 -->
      <g transform="translate(377.519118 295.191487)scale(0.1 -0.1)">
       <defs>
        <path d="M 19.1875 8.296875 
L 53.609375 8.296875 
L 53.609375 0 
L 7.328125 0 
L 7.328125 8.296875 
Q 12.9375 14.109375 22.625 23.890625 
Q 32.328125 33.6875 34.8125 36.53125 
Q 39.546875 41.84375 41.421875 45.53125 
Q 43.3125 49.21875 43.3125 52.78125 
Q 43.3125 58.59375 39.234375 62.25 
Q 35.15625 65.921875 28.609375 65.921875 
Q 23.96875 65.921875 18.8125 64.3125 
Q 13.671875 62.703125 7.8125 59.421875 
L 7.8125 69.390625 
Q 13.765625 71.78125 18.9375 73 
Q 24.125 74.21875 28.421875 74.21875 
Q 39.75 74.21875 46.484375 68.546875 
Q 53.21875 62.890625 53.21875 53.421875 
Q 53.21875 48.921875 51.53125 44.890625 
Q 49.859375 40.875 45.40625 35.40625 
Q 44.1875 33.984375 37.640625 27.21875 
Q 31.109375 20.453125 19.1875 8.296875 
z
" id="DejaVuSans-50"/>
       </defs>
       <use xlink:href="#DejaVuSans-50"/>
       <use x="63.623047" xlink:href="#DejaVuSans-48"/>
       <use x="127.246094" xlink:href="#DejaVuSans-48"/>
      </g>
     </g>
    </g>
    <g id="xtick_4">
     <g id="line2d_4">
      <g>
       <use style="stroke:#000000;stroke-width:0.8;" x="544.927824" xlink:href="#m48b2be9969" y="280.59305"/>
      </g>
     </g>
     <g id="text_4">
      <!-- 300 -->
      <g transform="translate(535.384074 295.191487)scale(0.1 -0.1)">
       <defs>
        <path d="M 40.578125 39.3125 
Q 47.65625 37.796875 51.625 33 
Q 55.609375 28.21875 55.609375 21.1875 
Q 55.609375 10.40625 48.1875 4.484375 
Q 40.765625 -1.421875 27.09375 -1.421875 
Q 22.515625 -1.421875 17.65625 -0.515625 
Q 12.796875 0.390625 7.625 2.203125 
L 7.625 11.71875 
Q 11.71875 9.328125 16.59375 8.109375 
Q 21.484375 6.890625 26.8125 6.890625 
Q 36.078125 6.890625 40.9375 10.546875 
Q 45.796875 14.203125 45.796875 21.1875 
Q 45.796875 27.640625 41.28125 31.265625 
Q 36.765625 34.90625 28.71875 34.90625 
L 20.21875 34.90625 
L 20.21875 43.015625 
L 29.109375 43.015625 
Q 36.375 43.015625 40.234375 45.921875 
Q 44.09375 48.828125 44.09375 54.296875 
Q 44.09375 59.90625 40.109375 62.90625 
Q 36.140625 65.921875 28.71875 65.921875 
Q 24.65625 65.921875 20.015625 65.03125 
Q 15.375 64.15625 9.8125 62.3125 
L 9.8125 71.09375 
Q 15.4375 72.65625 20.34375 73.4375 
Q 25.25 74.21875 29.59375 74.21875 
Q 40.828125 74.21875 47.359375 69.109375 
Q 53.90625 64.015625 53.90625 55.328125 
Q 53.90625 49.265625 50.4375 45.09375 
Q 46.96875 40.921875 40.578125 39.3125 
z
" id="DejaVuSans-51"/>
       </defs>
       <use xlink:href="#DejaVuSans-51"/>
       <use x="63.623047" xlink:href="#DejaVuSans-48"/>
       <use x="127.246094" xlink:href="#DejaVuSans-48"/>
      </g>
     </g>
    </g>
    <g id="xtick_5">
     <g id="line2d_5">
      <g>
       <use style="stroke:#000000;stroke-width:0.8;" x="702.792781" xlink:href="#m48b2be9969" y="280.59305"/>
      </g>
     </g>
     <g id="text_5">
      <!-- 400 -->
      <g transform="translate(693.249031 295.191487)scale(0.1 -0.1)">
       <defs>
        <path d="M 37.796875 64.3125 
L 12.890625 25.390625 
L 37.796875 25.390625 
z
M 35.203125 72.90625 
L 47.609375 72.90625 
L 47.609375 25.390625 
L 58.015625 25.390625 
L 58.015625 17.1875 
L 47.609375 17.1875 
L 47.609375 0 
L 37.796875 0 
L 37.796875 17.1875 
L 4.890625 17.1875 
L 4.890625 26.703125 
z
" id="DejaVuSans-52"/>
       </defs>
       <use xlink:href="#DejaVuSans-52"/>
       <use x="63.623047" xlink:href="#DejaVuSans-48"/>
       <use x="127.246094" xlink:href="#DejaVuSans-48"/>
      </g>
     </g>
    </g>
    <g id="xtick_6">
     <g id="line2d_6">
      <g>
       <use style="stroke:#000000;stroke-width:0.8;" x="860.657738" xlink:href="#m48b2be9969" y="280.59305"/>
      </g>
     </g>
     <g id="text_6">
      <!-- 500 -->
      <g transform="translate(851.113988 295.191487)scale(0.1 -0.1)">
       <defs>
        <path d="M 10.796875 72.90625 
L 49.515625 72.90625 
L 49.515625 64.59375 
L 19.828125 64.59375 
L 19.828125 46.734375 
Q 21.96875 47.46875 24.109375 47.828125 
Q 26.265625 48.1875 28.421875 48.1875 
Q 40.625 48.1875 47.75 41.5 
Q 54.890625 34.8125 54.890625 23.390625 
Q 54.890625 11.625 47.5625 5.09375 
Q 40.234375 -1.421875 26.90625 -1.421875 
Q 22.3125 -1.421875 17.546875 -0.640625 
Q 12.796875 0.140625 7.71875 1.703125 
L 7.71875 11.625 
Q 12.109375 9.234375 16.796875 8.0625 
Q 21.484375 6.890625 26.703125 6.890625 
Q 35.15625 6.890625 40.078125 11.328125 
Q 45.015625 15.765625 45.015625 23.390625 
Q 45.015625 31 40.078125 35.4375 
Q 35.15625 39.890625 26.703125 39.890625 
Q 22.75 39.890625 18.8125 39.015625 
Q 14.890625 38.140625 10.796875 36.28125 
z
" id="DejaVuSans-53"/>
       </defs>
       <use xlink:href="#DejaVuSans-53"/>
       <use x="63.623047" xlink:href="#DejaVuSans-48"/>
       <use x="127.246094" xlink:href="#DejaVuSans-48"/>
      </g>
     </g>
    </g>
   </g>
   <g id="matplotlib.axis_2">
    <g id="ytick_1">
     <g id="line2d_7">
      <defs>
       <path d="M 0 0 
L -3.5 0 
" id="m884394b6e0" style="stroke:#000000;stroke-width:0.8;"/>
      </defs>
      <g>
       <use style="stroke:#000000;stroke-width:0.8;" x="33.2875" xlink:href="#m884394b6e0" y="268.385582"/>
      </g>
     </g>
     <g id="text_7">
      <!-- 0 -->
      <g transform="translate(19.925 272.184801)scale(0.1 -0.1)">
       <use xlink:href="#DejaVuSans-48"/>
      </g>
     </g>
    </g>
    <g id="ytick_2">
     <g id="line2d_8">
      <g>
       <use style="stroke:#000000;stroke-width:0.8;" x="33.2875" xlink:href="#m884394b6e0" y="231.616102"/>
      </g>
     </g>
     <g id="text_8">
      <!-- 50 -->
      <g transform="translate(13.5625 235.415321)scale(0.1 -0.1)">
       <use xlink:href="#DejaVuSans-53"/>
       <use x="63.623047" xlink:href="#DejaVuSans-48"/>
      </g>
     </g>
    </g>
    <g id="ytick_3">
     <g id="line2d_9">
      <g>
       <use style="stroke:#000000;stroke-width:0.8;" x="33.2875" xlink:href="#m884394b6e0" y="194.846621"/>
      </g>
     </g>
     <g id="text_9">
      <!-- 100 -->
      <g transform="translate(7.2 198.64584)scale(0.1 -0.1)">
       <use xlink:href="#DejaVuSans-49"/>
       <use x="63.623047" xlink:href="#DejaVuSans-48"/>
       <use x="127.246094" xlink:href="#DejaVuSans-48"/>
      </g>
     </g>
    </g>
    <g id="ytick_4">
     <g id="line2d_10">
      <g>
       <use style="stroke:#000000;stroke-width:0.8;" x="33.2875" xlink:href="#m884394b6e0" y="158.077141"/>
      </g>
     </g>
     <g id="text_10">
      <!-- 150 -->
      <g transform="translate(7.2 161.87636)scale(0.1 -0.1)">
       <use xlink:href="#DejaVuSans-49"/>
       <use x="63.623047" xlink:href="#DejaVuSans-53"/>
       <use x="127.246094" xlink:href="#DejaVuSans-48"/>
      </g>
     </g>
    </g>
    <g id="ytick_5">
     <g id="line2d_11">
      <g>
       <use style="stroke:#000000;stroke-width:0.8;" x="33.2875" xlink:href="#m884394b6e0" y="121.30766"/>
      </g>
     </g>
     <g id="text_11">
      <!-- 200 -->
      <g transform="translate(7.2 125.106879)scale(0.1 -0.1)">
       <use xlink:href="#DejaVuSans-50"/>
       <use x="63.623047" xlink:href="#DejaVuSans-48"/>
       <use x="127.246094" xlink:href="#DejaVuSans-48"/>
      </g>
     </g>
    </g>
    <g id="ytick_6">
     <g id="line2d_12">
      <g>
       <use style="stroke:#000000;stroke-width:0.8;" x="33.2875" xlink:href="#m884394b6e0" y="84.53818"/>
      </g>
     </g>
     <g id="text_12">
      <!-- 250 -->
      <g transform="translate(7.2 88.337399)scale(0.1 -0.1)">
       <use xlink:href="#DejaVuSans-50"/>
       <use x="63.623047" xlink:href="#DejaVuSans-53"/>
       <use x="127.246094" xlink:href="#DejaVuSans-48"/>
      </g>
     </g>
    </g>
    <g id="ytick_7">
     <g id="line2d_13">
      <g>
       <use style="stroke:#000000;stroke-width:0.8;" x="33.2875" xlink:href="#m884394b6e0" y="47.768699"/>
      </g>
     </g>
     <g id="text_13">
      <!-- 300 -->
      <g transform="translate(7.2 51.567918)scale(0.1 -0.1)">
       <use xlink:href="#DejaVuSans-51"/>
       <use x="63.623047" xlink:href="#DejaVuSans-48"/>
       <use x="127.246094" xlink:href="#DejaVuSans-48"/>
      </g>
     </g>
    </g>
    <g id="ytick_8">
     <g id="line2d_14">
      <g>
       <use style="stroke:#000000;stroke-width:0.8;" x="33.2875" xlink:href="#m884394b6e0" y="10.999219"/>
      </g>
     </g>
     <g id="text_14">
      <!-- 350 -->
      <g transform="translate(7.2 14.798438)scale(0.1 -0.1)">
       <use xlink:href="#DejaVuSans-51"/>
       <use x="63.623047" xlink:href="#DejaVuSans-53"/>
       <use x="127.246094" xlink:href="#DejaVuSans-48"/>
      </g>
     </g>
    </g>
   </g>
   <g id="line2d_15">
    <path clip-path="url(#pa1bc091f4f)" d="M 71.332955 266.914803 
L 72.911604 266.179414 
L 74.490254 265.149868 
L 76.068903 265.00279 
L 77.647553 263.973245 
L 79.226202 262.502466 
L 80.804852 261.325842 
L 82.383502 259.855063 
L 83.962151 258.67844 
L 85.540801 256.766427 
L 87.11945 255.589803 
L 88.6981 252.059933 
L 90.276749 250.589154 
L 91.855399 250.294998 
L 93.434048 248.971297 
L 95.012698 248.824219 
L 96.591348 248.235907 
L 98.169997 248.235907 
L 99.748647 249.118375 
L 101.327296 249.853764 
L 102.905946 249.559608 
L 104.484595 247.500517 
L 106.063245 247.647595 
L 107.641895 248.530063 
L 110.799194 251.618699 
L 112.377843 251.030388 
L 113.956493 250.736232 
L 115.535142 249.853764 
L 117.113792 248.235907 
L 118.692442 248.677141 
L 120.271091 248.235907 
L 121.849741 248.530063 
L 123.42839 249.559608 
L 125.00704 249.265453 
L 126.585689 251.030388 
L 128.164339 250.294998 
L 129.742988 249.706686 
L 131.321638 250.88331 
L 132.900288 250.589154 
L 134.478937 249.559608 
L 136.057587 249.559608 
L 137.636236 247.647595 
L 139.214886 246.470972 
L 140.793535 247.206362 
L 143.950835 245.441427 
L 145.529484 246.029738 
L 147.108134 243.235258 
L 148.686783 242.794024 
L 150.265433 243.382336 
L 151.844082 245.147271 
L 153.422732 242.941102 
L 155.001382 242.646946 
L 156.580031 242.794024 
L 158.158681 239.705388 
L 159.73733 239.55831 
L 161.31598 237.499219 
L 162.894629 237.646297 
L 164.473279 236.02844 
L 166.051929 235.145972 
L 167.630578 232.939803 
L 169.209228 232.645647 
L 170.787877 232.204414 
L 172.366527 233.822271 
L 173.945176 232.498569 
L 175.523826 233.675193 
L 177.102475 232.645647 
L 178.681125 228.968699 
L 180.259775 229.409933 
L 181.838424 229.409933 
L 183.417074 231.76318 
L 184.995723 229.998245 
L 186.574373 231.321946 
L 188.153022 230.880712 
L 189.731672 230.145323 
L 191.310322 227.49792 
L 192.888971 228.086232 
L 194.467621 226.468375 
L 196.04627 223.96805 
L 197.62492 223.526816 
L 199.203569 218.967401 
L 200.782219 215.731686 
L 202.360869 216.467076 
L 203.939518 213.966751 
L 205.518168 215.290453 
L 207.096817 206.465777 
L 208.675467 204.259608 
L 210.254116 202.641751 
L 211.832766 203.230063 
L 213.411416 197.935258 
L 216.568715 192.199219 
L 218.147364 188.963504 
L 219.726014 184.257011 
L 222.883313 175.873569 
L 224.461962 174.108634 
L 226.040612 167.784284 
L 227.619262 162.783634 
L 229.197911 159.842076 
L 230.776561 155.429738 
L 232.35521 150.576167 
L 233.93386 148.22292 
L 235.512509 140.574868 
L 237.091159 138.809933 
L 238.669809 130.720647 
L 241.827108 134.544673 
L 243.405757 126.30831 
L 244.984407 121.748894 
L 246.563056 114.689154 
L 248.141706 111.600517 
L 249.720356 107.041102 
L 251.299005 98.804738 
L 252.877655 96.745647 
L 254.456304 96.157336 
L 256.034954 93.509933 
L 259.192253 81.302466 
L 260.770902 76.154738 
L 263.928202 67.477141 
L 265.506851 66.741751 
L 267.085501 60.417401 
L 270.2428 49.533634 
L 271.821449 56.88753 
L 273.400099 52.328115 
L 276.557398 56.593375 
L 278.136048 54.09305 
L 279.714697 55.416751 
L 281.293347 54.534284 
L 282.871996 53.210582 
L 284.450646 45.709608 
L 286.029296 46.592076 
L 287.607945 36.884933 
L 289.186595 26.001167 
L 290.765244 28.060258 
L 292.343894 25.412855 
L 293.922543 21.147595 
L 295.501193 28.795647 
L 297.079843 32.17844 
L 298.658492 32.766751 
L 301.815791 30.70766 
L 303.394441 26.001167 
L 304.97309 27.030712 
L 306.55174 31.737206 
L 308.130389 25.265777 
L 309.709039 30.266427 
L 311.287689 30.266427 
L 312.866338 29.531037 
L 314.444988 30.854738 
L 316.023637 28.795647 
L 317.602287 28.207336 
L 319.180936 28.060258 
L 320.759586 26.001167 
L 322.338236 23.353764 
L 323.916885 21.147595 
L 325.495535 26.589478 
L 327.074184 32.472595 
L 328.652834 28.501491 
L 331.810133 32.17844 
L 333.388783 30.266427 
L 334.967432 34.825842 
L 336.546082 29.972271 
L 338.124731 38.50279 
L 339.703381 40.414803 
L 341.28203 41.444349 
L 342.86068 42.620972 
L 344.439329 45.121297 
L 346.017979 39.23818 
L 347.596629 38.944024 
L 349.175278 42.76805 
L 350.753928 41.444349 
L 352.332577 47.768699 
L 353.911227 49.82779 
L 355.489876 53.945972 
L 357.068526 49.680712 
L 358.647176 49.974868 
L 360.225825 50.416102 
L 361.804475 54.240128 
L 363.383124 57.181686 
L 364.961774 67.035907 
L 366.540423 65.270972 
L 368.119073 71.595323 
L 369.697723 75.272271 
L 371.276372 75.125193 
L 372.855022 71.007011 
L 374.433671 71.301167 
L 376.012321 74.095647 
L 377.59097 78.507985 
L 379.16962 78.655063 
L 382.326919 84.979414 
L 383.905569 84.979414 
L 385.484218 85.126491 
L 387.062868 83.508634 
L 388.641517 85.126491 
L 390.220167 87.773894 
L 391.798816 84.979414 
L 393.377466 87.920972 
L 394.956116 89.097595 
L 396.534765 97.186881 
L 398.113415 99.834284 
L 399.692064 97.039803 
L 401.270714 99.687206 
L 402.849363 98.65766 
L 404.428013 95.12779 
L 406.006663 102.040453 
L 407.585312 98.804738 
L 409.163962 101.010907 
L 410.742611 101.452141 
L 412.321261 101.599219 
L 413.89991 105.570323 
L 417.05721 105.276167 
L 418.635859 107.776491 
L 420.214509 110.71805 
L 421.793158 109.247271 
L 423.371808 111.159284 
L 424.950457 116.454089 
L 426.529107 117.042401 
L 428.107757 118.51318 
L 429.686406 118.219024 
L 431.265056 116.895323 
L 432.843705 120.131037 
L 434.422355 117.924868 
L 436.001004 114.542076 
L 437.579654 114.98331 
L 439.158303 117.042401 
L 440.736953 115.571621 
L 442.315603 111.159284 
L 443.894252 109.394349 
L 445.472902 104.687855 
L 447.051551 105.717401 
L 448.630201 104.834933 
L 450.20885 105.129089 
L 451.7875 108.953115 
L 453.36615 108.953115 
L 454.944799 112.041751 
L 456.523449 106.45279 
L 458.102098 106.746946 
L 459.680748 106.746946 
L 461.259397 100.716751 
L 462.838047 98.510582 
L 464.416697 97.775193 
L 465.995346 96.157336 
L 467.573996 92.480388 
L 469.152645 90.86253 
L 470.731295 94.980712 
L 473.888594 95.274868 
L 475.467243 95.86318 
L 477.045893 90.715453 
L 478.624543 88.362206 
L 480.203192 82.920323 
L 481.781842 81.890777 
L 483.360491 74.095647 
L 484.939141 72.036556 
L 486.51779 76.154738 
L 489.67509 67.624219 
L 491.253739 69.536232 
L 492.832389 73.066102 
L 494.411038 73.066102 
L 495.989688 78.066751 
L 497.568337 81.743699 
L 499.146987 80.861232 
L 500.725637 78.213829 
L 502.304286 77.037206 
L 503.882936 73.21318 
L 505.461585 73.948569 
L 507.040235 74.095647 
L 508.618884 70.565777 
L 510.197534 73.654414 
L 511.776184 77.47844 
L 513.354833 70.271621 
L 514.933483 70.271621 
L 516.512132 71.154089 
L 518.090782 78.213829 
L 519.669431 78.213829 
L 521.248081 79.243375 
L 522.82673 85.273569 
L 524.40538 84.244024 
L 525.98403 85.567725 
L 527.562679 88.06805 
L 529.141329 84.391102 
L 530.719978 83.361556 
L 532.298628 79.978764 
L 533.877277 81.00831 
L 535.455927 80.714154 
L 537.034577 78.360907 
L 538.613226 81.449543 
L 540.191876 86.303115 
L 541.770525 92.774543 
L 543.349175 96.598569 
L 544.927824 95.569024 
L 546.506474 92.774543 
L 548.085124 98.216427 
L 549.663773 97.333959 
L 551.242423 104.834933 
L 552.821072 110.71805 
L 554.399722 111.747595 
L 555.978371 109.247271 
L 557.557021 110.865128 
L 559.135671 110.865128 
L 560.71432 120.131037 
L 562.29297 124.984608 
L 563.871619 130.279414 
L 565.450269 129.83818 
L 567.028918 129.249868 
L 568.607568 128.367401 
L 570.186217 130.426491 
L 571.764867 128.955712 
L 573.343517 132.191427 
L 574.922166 133.073894 
L 576.500816 132.338504 
L 578.079465 133.36805 
L 579.658115 129.83818 
L 581.236764 128.808634 
L 582.815414 129.691102 
L 584.394064 129.396946 
L 587.551363 135.427141 
L 589.130012 135.280063 
L 590.708662 132.338504 
L 592.287311 132.044349 
L 595.444611 126.896621 
L 597.02326 130.867725 
L 598.60191 131.161881 
L 600.180559 132.044349 
L 601.759209 131.750193 
L 603.337858 132.191427 
L 604.916508 134.250517 
L 606.495157 129.83818 
L 608.073807 130.867725 
L 609.652457 134.10344 
L 611.231106 133.220972 
L 612.809756 136.015453 
L 614.388405 136.456686 
L 615.967055 134.10344 
L 617.545704 136.456686 
L 619.124354 142.928115 
L 620.703004 146.310907 
L 622.281653 146.457985 
L 623.860303 153.517725 
L 625.438952 158.224219 
L 627.017602 164.842725 
L 631.753551 181.903764 
L 633.3322 185.72779 
L 634.91085 190.434284 
L 638.068149 201.31805 
L 639.646798 205.877466 
L 641.225448 211.319349 
L 642.804098 214.996297 
L 644.382747 219.261556 
L 645.961397 221.026491 
L 647.540046 224.115128 
L 649.118696 227.49792 
L 650.697345 230.586556 
L 652.275995 232.645647 
L 653.854644 235.145972 
L 655.433294 236.469673 
L 657.011944 237.352141 
L 658.590593 238.969998 
L 660.169243 241.176167 
L 661.747892 242.499868 
L 664.905191 246.176816 
L 666.483841 247.794673 
L 668.062491 249.118375 
L 669.64114 250.14792 
L 671.21979 251.030388 
L 672.798439 252.354089 
L 674.377089 253.530712 
L 675.955738 255.148569 
L 677.534388 255.442725 
L 679.113038 256.325193 
L 680.691687 256.472271 
L 682.270337 256.766427 
L 683.848986 257.795972 
L 687.006285 258.67844 
L 688.584935 259.266751 
L 690.163584 259.560907 
L 691.742234 259.560907 
L 694.899533 259.855063 
L 696.478183 260.443375 
L 699.635482 260.443375 
L 701.214131 260.73753 
L 702.792781 260.73753 
L 704.371431 260.884608 
L 707.52873 260.884608 
L 709.107379 261.619998 
L 712.264678 262.20831 
L 713.843328 262.355388 
L 721.736576 262.355388 
L 723.315225 262.649543 
L 724.893875 262.649543 
L 726.472525 263.532011 
L 728.051174 263.826167 
L 729.629824 263.826167 
L 731.208473 264.120323 
L 734.365772 264.120323 
L 735.944422 264.414478 
L 737.523071 264.414478 
L 739.101721 264.561556 
L 740.680371 265.00279 
L 743.83767 265.00279 
L 745.416319 265.296946 
L 746.994969 265.296946 
L 748.573618 265.591102 
L 750.152268 266.032336 
L 751.730918 266.326491 
L 754.888217 266.326491 
L 756.466866 266.620647 
L 759.624165 266.620647 
L 761.202815 266.914803 
L 765.938764 266.914803 
L 767.517413 267.061881 
L 769.096063 267.061881 
L 770.674712 267.503115 
L 783.303909 267.503115 
L 784.882558 267.797271 
L 788.039858 267.797271 
L 789.618507 268.091427 
L 802.247704 268.091427 
L 803.826353 268.238504 
L 832.242045 268.238504 
L 832.242045 268.238504 
" style="fill:none;stroke:#1f77b4;stroke-linecap:square;stroke-width:1.5;"/>
   </g>
   <g id="patch_3">
    <path d="M 33.2875 280.59305 
L 33.2875 8.79305 
" style="fill:none;stroke:#000000;stroke-linecap:square;stroke-linejoin:miter;stroke-width:0.8;"/>
   </g>
   <g id="patch_4">
    <path d="M 870.2875 280.59305 
L 870.2875 8.79305 
" style="fill:none;stroke:#000000;stroke-linecap:square;stroke-linejoin:miter;stroke-width:0.8;"/>
   </g>
   <g id="patch_5">
    <path d="M 33.2875 280.59305 
L 870.2875 280.59305 
" style="fill:none;stroke:#000000;stroke-linecap:square;stroke-linejoin:miter;stroke-width:0.8;"/>
   </g>
   <g id="patch_6">
    <path d="M 33.2875 8.79305 
L 870.2875 8.79305 
" style="fill:none;stroke:#000000;stroke-linecap:square;stroke-linejoin:miter;stroke-width:0.8;"/>
   </g>
  </g>
 </g>
 <defs>
  <clipPath id="pa1bc091f4f">
   <rect height="271.8" width="837" x="33.2875" y="8.79305"/>
  </clipPath>
 </defs>
</svg>
