<?xml version="1.0" encoding="utf-8" standalone="no"?>
<!DOCTYPE svg PUBLIC "-//W3C//DTD SVG 1.1//EN"
  "http://www.w3.org/Graphics/SVG/1.1/DTD/svg11.dtd">
<!-- Created with matplotlib (https://matplotlib.org/) -->
<svg height="280.22125pt" version="1.1" viewBox="0 0 884.803125 280.22125" width="884.803125pt" xmlns="http://www.w3.org/2000/svg" xmlns:xlink="http://www.w3.org/1999/xlink">
 <metadata>
  <rdf:RDF xmlns:cc="http://creativecommons.org/ns#" xmlns:dc="http://purl.org/dc/elements/1.1/" xmlns:rdf="http://www.w3.org/1999/02/22-rdf-syntax-ns#">
   <cc:Work>
    <dc:type rdf:resource="http://purl.org/dc/dcmitype/StillImage"/>
    <dc:date>2021-03-14T22:00:15.551913</dc:date>
    <dc:format>image/svg+xml</dc:format>
    <dc:creator>
     <cc:Agent>
      <dc:title>Matplotlib v3.3.4, https://matplotlib.org/</dc:title>
     </cc:Agent>
    </dc:creator>
   </cc:Work>
  </rdf:RDF>
 </metadata>
 <defs>
  <style type="text/css">*{stroke-linecap:butt;stroke-linejoin:round;}</style>
 </defs>
 <g id="figure_1">
  <g id="patch_1">
   <path d="M 0 280.22125 
L 884.803125 280.22125 
L 884.803125 0 
L 0 0 
z
" style="fill:none;"/>
  </g>
  <g id="axes_1">
   <g id="patch_2">
    <path d="M 40.603125 203.04 
L 877.603125 203.04 
L 877.603125 7.2 
L 40.603125 7.2 
z
" style="fill:#ffffff;"/>
   </g>
   <g id="PolyCollection_1">
    <path clip-path="url(#p9810e7e5bf)" d="M 78.64858 177.447273 
L 78.64858 185.792727 
L 78.64858 177.447273 
L 78.64858 177.447273 
z
" style="fill:#1f77b4;fill-opacity:0.2;stroke:#1f77b4;stroke-opacity:0.2;"/>
    <path clip-path="url(#p9810e7e5bf)" d="M 82.984244 127.374545 
L 82.984244 141.283636 
L 82.984244 127.374545 
L 82.984244 127.374545 
z
" style="fill:#1f77b4;fill-opacity:0.2;stroke:#1f77b4;stroke-opacity:0.2;"/>
    <path clip-path="url(#p9810e7e5bf)" d="M 87.319908 91.210909 
L 87.319908 110.683636 
L 89.48774 191.356364 
L 91.655573 188.574545 
L 93.823405 88.429091 
L 95.991237 177.447273 
L 98.159069 185.792727 
L 100.326901 177.447273 
L 102.494733 148.748182 
L 104.662566 149.629091 
L 106.830398 124.592727 
L 108.99823 144.065455 
L 111.166062 180.229091 
L 113.333894 188.574545 
L 113.333894 124.592727 
L 113.333894 124.592727 
L 111.166062 155.192727 
L 108.99823 132.938182 
L 106.830398 77.301818 
L 104.662566 138.501818 
L 102.494733 37.892727 
L 100.326901 93.992727 
L 98.159069 82.865455 
L 95.991237 99.556364 
L 93.823405 52.265455 
L 91.655573 41.138182 
L 89.48774 185.792727 
L 87.319908 91.210909 
z
" style="fill:#1f77b4;fill-opacity:0.2;stroke:#1f77b4;stroke-opacity:0.2;"/>
    <path clip-path="url(#p9810e7e5bf)" d="M 122.005223 96.774545 
L 122.005223 191.356364 
L 124.173055 188.574545 
L 124.173055 16.101818 
L 124.173055 16.101818 
L 122.005223 96.774545 
z
" style="fill:#1f77b4;fill-opacity:0.2;stroke:#1f77b4;stroke-opacity:0.2;"/>
    <path clip-path="url(#p9810e7e5bf)" d="M 135.012216 132.938182 
L 135.012216 138.501818 
L 137.180048 185.792727 
L 139.34788 188.574545 
L 141.515712 185.792727 
L 141.515712 121.810909 
L 141.515712 121.810909 
L 139.34788 177.447273 
L 137.180048 99.556364 
L 135.012216 132.938182 
z
" style="fill:#1f77b4;fill-opacity:0.2;stroke:#1f77b4;stroke-opacity:0.2;"/>
    <path clip-path="url(#p9810e7e5bf)" d="M 145.851377 93.992727 
L 145.851377 171.883636 
L 145.851377 93.992727 
L 145.851377 93.992727 
z
" style="fill:#1f77b4;fill-opacity:0.2;stroke:#1f77b4;stroke-opacity:0.2;"/>
    <path clip-path="url(#p9810e7e5bf)" d="M 156.690538 103.729091 
L 156.690538 191.356364 
L 158.85837 188.574545 
L 158.85837 57.829091 
L 158.85837 57.829091 
L 156.690538 103.729091 
z
" style="fill:#1f77b4;fill-opacity:0.2;stroke:#1f77b4;stroke-opacity:0.2;"/>
    <path clip-path="url(#p9810e7e5bf)" d="M 163.194034 144.065455 
L 163.194034 177.447273 
L 165.361866 185.792727 
L 165.361866 152.410909 
L 165.361866 152.410909 
L 163.194034 144.065455 
z
" style="fill:#1f77b4;fill-opacity:0.2;stroke:#1f77b4;stroke-opacity:0.2;"/>
    <path clip-path="url(#p9810e7e5bf)" d="M 169.697531 159.365455 
L 169.697531 180.229091 
L 171.865363 174.665455 
L 171.865363 146.847273 
L 171.865363 146.847273 
L 169.697531 159.365455 
z
" style="fill:#1f77b4;fill-opacity:0.2;stroke:#1f77b4;stroke-opacity:0.2;"/>
    <path clip-path="url(#p9810e7e5bf)" d="M 176.201027 82.865455 
L 176.201027 180.229091 
L 178.368859 176.904818 
L 178.368859 154.636364 
L 178.368859 154.636364 
L 176.201027 82.865455 
z
" style="fill:#1f77b4;fill-opacity:0.2;stroke:#1f77b4;stroke-opacity:0.2;"/>
    <path clip-path="url(#p9810e7e5bf)" d="M 182.704524 106.487727 
L 182.704524 170.029091 
L 184.872356 191.356364 
L 187.040188 188.574545 
L 191.375852 185.792727 
L 193.543684 71.738182 
L 195.711517 179.464091 
L 197.879349 170.691429 
L 200.047181 177.447273 
L 202.215013 164.929091 
L 202.215013 58.524545 
L 202.215013 58.524545 
L 200.047181 138.501818 
L 197.879349 99.556364 
L 195.711517 141.283636 
L 193.543684 60.610909 
L 191.375852 171.188182 
L 187.040188 146.847273 
L 184.872356 135.72 
L 182.704524 106.487727 
z
" style="fill:#1f77b4;fill-opacity:0.2;stroke:#1f77b4;stroke-opacity:0.2;"/>
    <path clip-path="url(#p9810e7e5bf)" d="M 206.550677 118.333636 
L 206.550677 183.010909 
L 208.71851 185.792727 
L 210.886342 172.996364 
L 213.054174 172.810909 
L 215.222006 179.036883 
L 215.222006 125.387532 
L 215.222006 125.387532 
L 213.054174 115.783636 
L 210.886342 111.24 
L 208.71851 121.793523 
L 206.550677 118.333636 
z
" style="fill:#1f77b4;fill-opacity:0.2;stroke:#1f77b4;stroke-opacity:0.2;"/>
    <path clip-path="url(#p9810e7e5bf)" d="M 219.55767 153.801818 
L 219.55767 187.183636 
L 221.725503 183.010909 
L 223.893335 183.010909 
L 226.061167 176.652468 
L 228.228999 181.62 
L 230.396831 191.356364 
L 232.564663 177.447273 
L 234.732496 184.865455 
L 236.900328 177.447273 
L 239.06816 172.579091 
L 241.235992 178.56 
L 243.403824 166.32 
L 245.571656 188.574545 
L 247.739489 189.687273 
L 249.907321 179.533636 
L 252.075153 179.116364 
L 254.242985 171.056045 
L 256.410817 180.855 
L 258.578649 172.44 
L 260.746482 164.379682 
L 262.914314 166.32 
L 265.082146 173.687727 
L 267.249978 186.101818 
L 269.41781 173.745909 
L 271.585642 152.758636 
L 273.753475 165.480105 
L 275.921307 173.998977 
L 278.089139 184.123636 
L 280.256971 159.239008 
L 282.424803 179.765455 
L 284.592635 178.945175 
L 286.760468 174.67125 
L 288.9283 170.391084 
L 291.096132 174.833182 
L 293.263964 174.665455 
L 295.431796 157.053068 
L 297.599628 172.810909 
L 299.767461 169.453892 
L 301.935293 172.069091 
L 304.103125 166.32 
L 306.270957 149.956364 
L 308.438789 162.526612 
L 310.606622 168.355785 
L 312.774454 156.268007 
L 314.942286 164.697273 
L 317.110118 172.176459 
L 319.27795 162.815514 
L 321.445782 162.233182 
L 323.613615 165.856364 
L 325.781447 168.058636 
L 327.949279 155.752568 
L 330.117111 160.761331 
L 332.284943 146.989841 
L 334.452775 155.674749 
L 336.620608 171.304091 
L 338.78844 166.699339 
L 340.956272 162.691542 
L 343.124104 147.549682 
L 345.291936 166.474545 
L 347.459768 161.171061 
L 349.627601 166.323024 
L 351.795433 160.867636 
L 353.963265 157.748523 
L 356.131097 162.089822 
L 358.298929 151.808182 
L 360.466761 163.232955 
L 362.634594 165.594308 
L 364.802426 172.705909 
L 366.970258 163.885909 
L 369.13809 167.290613 
L 371.305922 164.534252 
L 373.473754 162.513301 
L 375.641587 164.469669 
L 377.809419 169.101818 
L 379.977251 165.946983 
L 382.145083 157.43958 
L 384.312915 159.154143 
L 386.480747 166.783636 
L 388.64858 158.152756 
L 390.816412 170.214545 
L 392.984244 168.768 
L 395.152076 171.644763 
L 397.319908 174.111873 
L 399.48774 164.552913 
L 401.655573 174.48 
L 403.823405 157.705337 
L 405.991237 173.800483 
L 408.159069 178.142727 
L 410.326901 168.22701 
L 412.494733 151.755195 
L 414.662566 160.644486 
L 416.830398 168.214418 
L 418.99823 167.710909 
L 421.166062 158.554091 
L 423.333894 175.524073 
L 425.501726 165.212836 
L 427.669559 165.127792 
L 429.837391 170.087727 
L 432.005223 165.957154 
L 434.173055 167.840517 
L 436.340887 163.869545 
L 438.508719 177.556941 
L 440.676552 168.812656 
L 442.844384 168.183818 
L 445.012216 181.090385 
L 447.180048 174.356364 
L 449.34788 171.883636 
L 451.515712 167.556364 
L 453.683545 173.97 
L 455.851377 166.449607 
L 458.019209 180.762273 
L 460.187041 165.459375 
L 462.354873 166.116515 
L 464.522705 179.610909 
L 466.690538 164.929091 
L 468.85837 168.643977 
L 471.026202 162.547159 
L 473.194034 168.580227 
L 475.361866 173.417114 
L 477.529698 159.091909 
L 479.697531 170.4 
L 481.865363 175.013182 
L 484.033195 161.654132 
L 486.201027 174.159669 
L 488.368859 173.100682 
L 490.536691 165.906205 
L 492.704524 176.861627 
L 494.872356 168.903117 
L 497.040188 178.003636 
L 499.20802 159.911119 
L 501.375852 167.367528 
L 503.543684 164.549752 
L 505.711517 173.048523 
L 507.879349 155.192727 
L 510.047181 165.083636 
L 512.215013 169.632102 
L 514.382845 164.239432 
L 516.550677 166.32 
L 518.71851 177.586364 
L 520.886342 169.499221 
L 523.054174 173.796136 
L 525.222006 170.777864 
L 527.389838 179.976198 
L 529.55767 169.756364 
L 531.725503 175.134886 
L 533.893335 160.451136 
L 536.061167 151.678852 
L 538.228999 167.710909 
L 540.396831 165.015 
L 542.564663 181.063636 
L 544.732496 160.756364 
L 546.900328 171.088831 
L 549.06816 171.605455 
L 551.235992 167.301818 
L 553.403824 176.805315 
L 555.571656 171.334227 
L 557.739489 175.312762 
L 559.907321 176.751818 
L 562.075153 167.512208 
L 564.242985 174.356364 
L 566.410817 162.72 
L 568.578649 178.736538 
L 570.746482 171.327273 
L 572.914314 165.699441 
L 575.082146 183.010909 
L 577.249978 163.720739 
L 579.41781 175.728506 
L 581.585642 166.32535 
L 583.753475 172.958916 
L 585.921307 160.101818 
L 588.089139 160.955727 
L 590.256971 172.0575 
L 592.424803 166.184386 
L 594.592635 172.484708 
L 596.760468 163.543149 
L 598.9283 160.605 
L 601.096132 184.534587 
L 603.263964 169.477364 
L 605.431796 164.703068 
L 607.599628 167.710909 
L 609.767461 170.385734 
L 611.935293 163.971503 
L 614.103125 171.092143 
L 616.270957 156.896591 
L 618.438789 158.376916 
L 620.606622 168.792727 
L 622.774454 171.887297 
L 624.942286 165.455028 
L 627.110118 164.536656 
L 629.27795 167.517175 
L 631.445782 168.730909 
L 633.613615 175.46026 
L 635.781447 149.639026 
L 637.949279 168.978533 
L 640.117111 152.417231 
L 642.284943 175.836746 
L 644.452775 157.974545 
L 646.620608 159.835714 
L 648.78844 164.708864 
L 650.956272 171.422898 
L 653.124104 168.472748 
L 655.291936 163.834665 
L 657.459768 175.129091 
L 659.627601 164.064119 
L 661.795433 166.010909 
L 663.963265 173.923636 
L 666.131097 164.932568 
L 668.298929 165.392727 
L 670.466761 162.529773 
L 672.634594 166.688893 
L 674.802426 159.283636 
L 676.970258 158.67 
L 679.13809 165.485455 
L 681.305922 172.625455 
L 683.473754 168.447273 
L 685.641587 166.554716 
L 687.809419 177.799347 
L 689.977251 174.674148 
L 692.145083 167.247273 
L 694.312915 162.289841 
L 696.480747 173.344091 
L 698.64858 164.482841 
L 700.816412 175.539119 
L 702.984244 168.108312 
L 705.152076 162.350942 
L 707.319908 161.382273 
L 709.48774 165.005957 
L 711.655573 176.792727 
L 713.823405 169.291909 
L 715.991237 174.109091 
L 718.159069 168.6915 
L 720.326901 181.272273 
L 722.494733 176.836818 
L 724.662566 172.996364 
L 726.830398 172.281039 
L 728.99823 167.096591 
L 731.166062 176.897864 
L 733.333894 178.992727 
L 735.501726 172.061847 
L 737.669559 185.804318 
L 739.837391 173.870649 
L 742.005223 176.757614 
L 744.173055 177.447273 
L 746.340887 170.095325 
L 748.508719 181.393977 
L 750.676552 179.672727 
L 752.844384 168.673846 
L 755.012216 177.447273 
L 757.180048 171.241678 
L 759.34788 171.093799 
L 761.515712 177.200702 
L 763.683545 175.521399 
L 765.851377 172.810909 
L 768.019209 179.116364 
L 770.187041 171.327273 
L 772.354873 169.658182 
L 774.522705 174.982273 
L 776.690538 176.851169 
L 778.85837 180.692727 
L 781.026202 169.101818 
L 783.194034 173.97 
L 785.361866 175.46026 
L 787.529698 182.739682 
L 789.697531 180.692727 
L 791.865363 170.029091 
L 794.033195 175.5 
L 796.201027 172.347273 
L 798.368859 175.949371 
L 800.536691 179.434286 
L 802.704524 177.447273 
L 804.872356 178.945175 
L 807.040188 180.460909 
L 809.20802 186.905455 
L 811.375852 184.865455 
L 813.543684 178.992727 
L 815.711517 178.838182 
L 817.879349 184.528264 
L 820.047181 182.454545 
L 822.215013 184.401818 
L 824.382845 188.574545 
L 826.550677 185.792727 
L 828.71851 191.008636 
L 830.886342 190.8 
L 833.054174 193.581818 
L 835.222006 190.561558 
L 839.55767 194.138182 
L 839.55767 191.356364 
L 839.55767 191.356364 
L 835.222006 186.19013 
L 833.054174 188.574545 
L 830.886342 184.123636 
L 828.71851 184.749545 
L 826.550677 179.301818 
L 824.382845 180.839545 
L 822.215013 175.778182 
L 820.047181 174.387273 
L 817.879349 174.665455 
L 815.711517 169.101818 
L 813.543684 170.956364 
L 811.375852 173.964205 
L 809.20802 171.883636 
L 807.040188 167.710909 
L 804.872356 163.10486 
L 802.704524 161.612308 
L 800.536691 155.182792 
L 798.368859 164.18014 
L 796.201027 161.061591 
L 794.033195 154.358182 
L 791.865363 156.12 
L 789.697531 162.147273 
L 787.529698 162.974864 
L 785.361866 143.668052 
L 783.194034 151.014205 
L 781.026202 144.374545 
L 778.85837 154.259659 
L 776.690538 153.200747 
L 774.522705 144.985 
L 772.354873 155.749091 
L 770.187041 149.343955 
L 768.019209 140.143091 
L 765.851377 145.21875 
L 763.683545 156.048671 
L 761.515712 150.381446 
L 759.34788 146.251169 
L 757.180048 141.497622 
L 755.012216 144.529091 
L 752.844384 141.064301 
L 750.676552 154.08 
L 748.508719 159.823295 
L 746.340887 145.848799 
L 744.173055 162.074067 
L 742.005223 139.649318 
L 739.837391 147.244675 
L 737.669559 171.42 
L 735.501726 143.713381 
L 733.333894 132.32 
L 731.166062 158.520477 
L 728.99823 137.107045 
L 726.830398 143.663084 
L 724.662566 127.930909 
L 722.494733 141.894091 
L 720.326901 136.763182 
L 718.159069 138.640909 
L 715.991237 139.614545 
L 713.823405 128.844273 
L 711.655573 162.065455 
L 709.48774 140.844402 
L 707.319908 128.603182 
L 705.152076 124.190357 
L 702.984244 132.143377 
L 700.816412 143.704687 
L 698.64858 102.541023 
L 696.480747 147.112208 
L 694.312915 136.693636 
L 692.145083 139.738182 
L 689.977251 146.669062 
L 687.809419 157.974545 
L 685.641587 138.249716 
L 683.473754 130.479545 
L 681.305922 129.780818 
L 679.13809 124.158068 
L 676.970258 116.069062 
L 674.802426 112.152273 
L 672.634594 137.897075 
L 670.466761 123.704442 
L 668.298929 131.701818 
L 666.131097 126.536523 
L 663.963265 153.709091 
L 661.795433 130.457727 
L 659.627601 121.111108 
L 657.459768 147.305114 
L 655.291936 134.691459 
L 653.124104 146.085434 
L 650.956272 137.105114 
L 648.78844 134.792727 
L 646.620608 126.179026 
L 644.452775 131.895 
L 642.284943 141.411746 
L 640.117111 123.195496 
L 637.949279 149.120145 
L 635.781447 97.036169 
L 633.613615 155.391429 
L 631.445782 124.398 
L 629.27795 105.90487 
L 627.110118 112.074545 
L 624.942286 122.493324 
L 622.774454 141.572799 
L 620.606622 151.792727 
L 618.438789 136.713506 
L 616.270957 128.290227 
L 614.103125 146.181623 
L 611.935293 125.020699 
L 609.767461 141.497622 
L 607.599628 145.171227 
L 605.431796 134.097273 
L 603.263964 130.508727 
L 601.096132 147.852521 
L 598.9283 125.738182 
L 596.760468 122.605714 
L 594.592635 126.574773 
L 592.424803 129.871227 
L 590.256971 151.015653 
L 588.089139 127.740818 
L 585.921307 108.556364 
L 583.753475 143.626783 
L 581.585642 130.584336 
L 579.41781 152.675844 
L 577.249978 129.287045 
L 575.082146 148.426948 
L 572.914314 77.719091 
L 570.746482 124.588091 
L 568.578649 146.199965 
L 566.410817 128.998636 
L 564.242985 138.494091 
L 562.075153 129.56026 
L 559.907321 144.061108 
L 557.739489 116.231224 
L 555.571656 154.914545 
L 553.403824 150.244301 
L 551.235992 145.202727 
L 549.06816 130.705773 
L 546.900328 136.708539 
L 544.732496 96.346573 
L 542.564663 162.981818 
L 540.396831 132.447273 
L 538.228999 80.42267 
L 536.061167 119.461005 
L 533.893335 118.410909 
L 531.725503 131.06625 
L 529.55767 140.134091 
L 527.389838 154.933512 
L 525.222006 134.600318 
L 523.054174 139.714517 
L 520.886342 137.503344 
L 518.71851 145.313795 
L 516.550677 108.122045 
L 514.382845 123.659659 
L 512.215013 144.065455 
L 510.047181 130.310909 
L 507.879349 103.01625 
L 505.711517 143.364205 
L 503.543684 119.281983 
L 501.375852 122.675881 
L 499.20802 94.196014 
L 497.040188 146.290909 
L 494.872356 142.073474 
L 492.704524 153.578541 
L 490.536691 138.494864 
L 488.368859 145.095597 
L 486.201027 145.077025 
L 484.033195 123.201818 
L 481.865363 163.538182 
L 479.697531 144.992727 
L 477.529698 114.392727 
L 475.361866 137.107432 
L 473.194034 111.379091 
L 471.026202 130.151396 
L 468.85837 121.103864 
L 466.690538 141.279773 
L 464.522705 143.447273 
L 462.354873 133.231818 
L 460.187041 135.024545 
L 458.019209 158.504416 
L 455.851377 136.984463 
L 453.683545 152.407432 
L 451.515712 142.210909 
L 449.34788 137.767055 
L 447.180048 151.02 
L 445.012216 110.672937 
L 442.844384 142.952727 
L 440.676552 137.169474 
L 438.508719 154.550769 
L 436.340887 98.071364 
L 434.173055 109.918636 
L 432.005223 145.631739 
L 429.837391 118.194545 
L 427.669559 126.381039 
L 425.501726 110.335909 
L 423.333894 156.473969 
L 421.166062 126.447273 
L 418.99823 139.888864 
L 416.830398 143.617582 
L 414.662566 123.13832 
L 412.494733 105.252468 
L 410.326901 140.990813 
L 408.159069 143.783795 
L 405.991237 137.802017 
L 403.823405 113.815425 
L 401.655573 137.574545 
L 399.48774 124.339835 
L 397.319908 154.299764 
L 395.152076 135.475079 
L 392.984244 125.5914 
L 390.816412 142.581818 
L 388.64858 113.456761 
L 386.480747 127.216136 
L 384.312915 132.721521 
L 382.145083 128.650437 
L 379.977251 129.650579 
L 377.809419 141.049886 
L 375.641587 137.486033 
L 373.473754 98.956077 
L 371.305922 112.805894 
L 369.13809 126.527905 
L 366.970258 130.388182 
L 364.802426 149.792727 
L 362.634594 112.606719 
L 360.466761 134.479773 
L 358.298929 83.321364 
L 356.131097 124.102885 
L 353.963265 117.87 
L 351.795433 134.384727 
L 349.627601 122.645455 
L 347.459768 132.32 
L 345.291936 93.05 
L 343.124104 75.469295 
L 340.956272 134.265593 
L 338.78844 150.261322 
L 336.620608 140.695398 
L 334.452775 125.6479 
L 332.284943 98.443636 
L 330.117111 126.569805 
L 327.949279 99.121705 
L 325.781447 151.831364 
L 323.613615 143.827841 
L 321.445782 110.188636 
L 319.27795 127.489447 
L 317.110118 130.441866 
L 314.942286 138.61483 
L 312.774454 42.181364 
L 310.606622 100.308719 
L 308.438789 135.716839 
L 306.270957 88.911818 
L 304.103125 137.524705 
L 301.935293 62.827091 
L 299.767461 133.981364 
L 297.599628 150.086932 
L 295.431796 99.544773 
L 293.263964 139.092955 
L 291.096132 147.657273 
L 288.9283 143.204161 
L 286.760468 147.774545 
L 284.592635 157.332587 
L 282.424803 146.383636 
L 280.256971 104.361322 
L 278.089139 162.703636 
L 275.921307 61.074545 
L 273.753475 133.58014 
L 271.585642 34.183636 
L 269.41781 129.538182 
L 267.249978 148.701818 
L 265.082146 146.188636 
L 262.914314 155.192727 
L 260.746482 115.677 
L 258.578649 117.36 
L 256.410817 144.683636 
L 254.242985 110.683636 
L 252.075153 137.375182 
L 249.907321 69.643125 
L 247.739489 175.764273 
L 245.571656 163.538182 
L 243.403824 135.72 
L 241.235992 111.796364 
L 239.06816 151.715455 
L 236.900328 144.065455 
L 234.732496 139.892727 
L 232.564663 171.883636 
L 230.396831 157.974545 
L 228.228999 104.424545 
L 226.061167 111.081039 
L 223.893335 113.465455 
L 221.725503 130.156364 
L 219.55767 153.801818 
z
" style="fill:#1f77b4;fill-opacity:0.2;stroke:#1f77b4;stroke-opacity:0.2;"/>
   </g>
   <g id="matplotlib.axis_1">
    <g id="xtick_1">
     <g id="line2d_1">
      <defs>
       <path d="M 0 0 
L 0 3.5 
" id="ma5e987b6f1" style="stroke:#000000;stroke-width:0.8;"/>
      </defs>
      <g>
       <use style="stroke:#000000;stroke-width:0.8;" x="41.795433" xlink:href="#ma5e987b6f1" y="203.04"/>
      </g>
     </g>
     <g id="text_1">
      <!-- Mar 2020 -->
      <g transform="translate(44.554808 257.535312)rotate(-90)scale(0.1 -0.1)">
       <defs>
        <path d="M 9.8125 72.90625 
L 24.515625 72.90625 
L 43.109375 23.296875 
L 61.8125 72.90625 
L 76.515625 72.90625 
L 76.515625 0 
L 66.890625 0 
L 66.890625 64.015625 
L 48.09375 14.015625 
L 38.1875 14.015625 
L 19.390625 64.015625 
L 19.390625 0 
L 9.8125 0 
z
" id="DejaVuSans-77"/>
        <path d="M 34.28125 27.484375 
Q 23.390625 27.484375 19.1875 25 
Q 14.984375 22.515625 14.984375 16.5 
Q 14.984375 11.71875 18.140625 8.90625 
Q 21.296875 6.109375 26.703125 6.109375 
Q 34.1875 6.109375 38.703125 11.40625 
Q 43.21875 16.703125 43.21875 25.484375 
L 43.21875 27.484375 
z
M 52.203125 31.203125 
L 52.203125 0 
L 43.21875 0 
L 43.21875 8.296875 
Q 40.140625 3.328125 35.546875 0.953125 
Q 30.953125 -1.421875 24.3125 -1.421875 
Q 15.921875 -1.421875 10.953125 3.296875 
Q 6 8.015625 6 15.921875 
Q 6 25.140625 12.171875 29.828125 
Q 18.359375 34.515625 30.609375 34.515625 
L 43.21875 34.515625 
L 43.21875 35.40625 
Q 43.21875 41.609375 39.140625 45 
Q 35.0625 48.390625 27.6875 48.390625 
Q 23 48.390625 18.546875 47.265625 
Q 14.109375 46.140625 10.015625 43.890625 
L 10.015625 52.203125 
Q 14.9375 54.109375 19.578125 55.046875 
Q 24.21875 56 28.609375 56 
Q 40.484375 56 46.34375 49.84375 
Q 52.203125 43.703125 52.203125 31.203125 
z
" id="DejaVuSans-97"/>
        <path d="M 41.109375 46.296875 
Q 39.59375 47.171875 37.8125 47.578125 
Q 36.03125 48 33.890625 48 
Q 26.265625 48 22.1875 43.046875 
Q 18.109375 38.09375 18.109375 28.8125 
L 18.109375 0 
L 9.078125 0 
L 9.078125 54.6875 
L 18.109375 54.6875 
L 18.109375 46.1875 
Q 20.953125 51.171875 25.484375 53.578125 
Q 30.03125 56 36.53125 56 
Q 37.453125 56 38.578125 55.875 
Q 39.703125 55.765625 41.0625 55.515625 
z
" id="DejaVuSans-114"/>
        <path id="DejaVuSans-32"/>
        <path d="M 19.1875 8.296875 
L 53.609375 8.296875 
L 53.609375 0 
L 7.328125 0 
L 7.328125 8.296875 
Q 12.9375 14.109375 22.625 23.890625 
Q 32.328125 33.6875 34.8125 36.53125 
Q 39.546875 41.84375 41.421875 45.53125 
Q 43.3125 49.21875 43.3125 52.78125 
Q 43.3125 58.59375 39.234375 62.25 
Q 35.15625 65.921875 28.609375 65.921875 
Q 23.96875 65.921875 18.8125 64.3125 
Q 13.671875 62.703125 7.8125 59.421875 
L 7.8125 69.390625 
Q 13.765625 71.78125 18.9375 73 
Q 24.125 74.21875 28.421875 74.21875 
Q 39.75 74.21875 46.484375 68.546875 
Q 53.21875 62.890625 53.21875 53.421875 
Q 53.21875 48.921875 51.53125 44.890625 
Q 49.859375 40.875 45.40625 35.40625 
Q 44.1875 33.984375 37.640625 27.21875 
Q 31.109375 20.453125 19.1875 8.296875 
z
" id="DejaVuSans-50"/>
        <path d="M 31.78125 66.40625 
Q 24.171875 66.40625 20.328125 58.90625 
Q 16.5 51.421875 16.5 36.375 
Q 16.5 21.390625 20.328125 13.890625 
Q 24.171875 6.390625 31.78125 6.390625 
Q 39.453125 6.390625 43.28125 13.890625 
Q 47.125 21.390625 47.125 36.375 
Q 47.125 51.421875 43.28125 58.90625 
Q 39.453125 66.40625 31.78125 66.40625 
z
M 31.78125 74.21875 
Q 44.046875 74.21875 50.515625 64.515625 
Q 56.984375 54.828125 56.984375 36.375 
Q 56.984375 17.96875 50.515625 8.265625 
Q 44.046875 -1.421875 31.78125 -1.421875 
Q 19.53125 -1.421875 13.0625 8.265625 
Q 6.59375 17.96875 6.59375 36.375 
Q 6.59375 54.828125 13.0625 64.515625 
Q 19.53125 74.21875 31.78125 74.21875 
z
" id="DejaVuSans-48"/>
       </defs>
       <use xlink:href="#DejaVuSans-77"/>
       <use x="86.279297" xlink:href="#DejaVuSans-97"/>
       <use x="147.558594" xlink:href="#DejaVuSans-114"/>
       <use x="188.671875" xlink:href="#DejaVuSans-32"/>
       <use x="220.458984" xlink:href="#DejaVuSans-50"/>
       <use x="284.082031" xlink:href="#DejaVuSans-48"/>
       <use x="347.705078" xlink:href="#DejaVuSans-50"/>
       <use x="411.328125" xlink:href="#DejaVuSans-48"/>
      </g>
     </g>
    </g>
    <g id="xtick_2">
     <g id="line2d_2">
      <g>
       <use style="stroke:#000000;stroke-width:0.8;" x="108.99823" xlink:href="#ma5e987b6f1" y="203.04"/>
      </g>
     </g>
     <g id="text_2">
      <!-- Apr 2020 -->
      <g transform="translate(111.757605 255.968125)rotate(-90)scale(0.1 -0.1)">
       <defs>
        <path d="M 34.1875 63.1875 
L 20.796875 26.90625 
L 47.609375 26.90625 
z
M 28.609375 72.90625 
L 39.796875 72.90625 
L 67.578125 0 
L 57.328125 0 
L 50.6875 18.703125 
L 17.828125 18.703125 
L 11.1875 0 
L 0.78125 0 
z
" id="DejaVuSans-65"/>
        <path d="M 18.109375 8.203125 
L 18.109375 -20.796875 
L 9.078125 -20.796875 
L 9.078125 54.6875 
L 18.109375 54.6875 
L 18.109375 46.390625 
Q 20.953125 51.265625 25.265625 53.625 
Q 29.59375 56 35.59375 56 
Q 45.5625 56 51.78125 48.09375 
Q 58.015625 40.1875 58.015625 27.296875 
Q 58.015625 14.40625 51.78125 6.484375 
Q 45.5625 -1.421875 35.59375 -1.421875 
Q 29.59375 -1.421875 25.265625 0.953125 
Q 20.953125 3.328125 18.109375 8.203125 
z
M 48.6875 27.296875 
Q 48.6875 37.203125 44.609375 42.84375 
Q 40.53125 48.484375 33.40625 48.484375 
Q 26.265625 48.484375 22.1875 42.84375 
Q 18.109375 37.203125 18.109375 27.296875 
Q 18.109375 17.390625 22.1875 11.75 
Q 26.265625 6.109375 33.40625 6.109375 
Q 40.53125 6.109375 44.609375 11.75 
Q 48.6875 17.390625 48.6875 27.296875 
z
" id="DejaVuSans-112"/>
       </defs>
       <use xlink:href="#DejaVuSans-65"/>
       <use x="68.408203" xlink:href="#DejaVuSans-112"/>
       <use x="131.884766" xlink:href="#DejaVuSans-114"/>
       <use x="172.998047" xlink:href="#DejaVuSans-32"/>
       <use x="204.785156" xlink:href="#DejaVuSans-50"/>
       <use x="268.408203" xlink:href="#DejaVuSans-48"/>
       <use x="332.03125" xlink:href="#DejaVuSans-50"/>
       <use x="395.654297" xlink:href="#DejaVuSans-48"/>
      </g>
     </g>
    </g>
    <g id="xtick_3">
     <g id="line2d_3">
      <g>
       <use style="stroke:#000000;stroke-width:0.8;" x="174.033195" xlink:href="#ma5e987b6f1" y="203.04"/>
      </g>
     </g>
     <g id="text_3">
      <!-- May 2020 -->
      <g transform="translate(176.79257 259.343125)rotate(-90)scale(0.1 -0.1)">
       <defs>
        <path d="M 32.171875 -5.078125 
Q 28.375 -14.84375 24.75 -17.8125 
Q 21.140625 -20.796875 15.09375 -20.796875 
L 7.90625 -20.796875 
L 7.90625 -13.28125 
L 13.1875 -13.28125 
Q 16.890625 -13.28125 18.9375 -11.515625 
Q 21 -9.765625 23.484375 -3.21875 
L 25.09375 0.875 
L 2.984375 54.6875 
L 12.5 54.6875 
L 29.59375 11.921875 
L 46.6875 54.6875 
L 56.203125 54.6875 
z
" id="DejaVuSans-121"/>
       </defs>
       <use xlink:href="#DejaVuSans-77"/>
       <use x="86.279297" xlink:href="#DejaVuSans-97"/>
       <use x="147.558594" xlink:href="#DejaVuSans-121"/>
       <use x="206.738281" xlink:href="#DejaVuSans-32"/>
       <use x="238.525391" xlink:href="#DejaVuSans-50"/>
       <use x="302.148438" xlink:href="#DejaVuSans-48"/>
       <use x="365.771484" xlink:href="#DejaVuSans-50"/>
       <use x="429.394531" xlink:href="#DejaVuSans-48"/>
      </g>
     </g>
    </g>
    <g id="xtick_4">
     <g id="line2d_4">
      <g>
       <use style="stroke:#000000;stroke-width:0.8;" x="241.235992" xlink:href="#ma5e987b6f1" y="203.04"/>
      </g>
     </g>
     <g id="text_4">
      <!-- Jun 2020 -->
      <g transform="translate(243.995367 254.293125)rotate(-90)scale(0.1 -0.1)">
       <defs>
        <path d="M 9.8125 72.90625 
L 19.671875 72.90625 
L 19.671875 5.078125 
Q 19.671875 -8.109375 14.671875 -14.0625 
Q 9.671875 -20.015625 -1.421875 -20.015625 
L -5.171875 -20.015625 
L -5.171875 -11.71875 
L -2.09375 -11.71875 
Q 4.4375 -11.71875 7.125 -8.046875 
Q 9.8125 -4.390625 9.8125 5.078125 
z
" id="DejaVuSans-74"/>
        <path d="M 8.5 21.578125 
L 8.5 54.6875 
L 17.484375 54.6875 
L 17.484375 21.921875 
Q 17.484375 14.15625 20.5 10.265625 
Q 23.53125 6.390625 29.59375 6.390625 
Q 36.859375 6.390625 41.078125 11.03125 
Q 45.3125 15.671875 45.3125 23.6875 
L 45.3125 54.6875 
L 54.296875 54.6875 
L 54.296875 0 
L 45.3125 0 
L 45.3125 8.40625 
Q 42.046875 3.421875 37.71875 1 
Q 33.40625 -1.421875 27.6875 -1.421875 
Q 18.265625 -1.421875 13.375 4.4375 
Q 8.5 10.296875 8.5 21.578125 
z
M 31.109375 56 
z
" id="DejaVuSans-117"/>
        <path d="M 54.890625 33.015625 
L 54.890625 0 
L 45.90625 0 
L 45.90625 32.71875 
Q 45.90625 40.484375 42.875 44.328125 
Q 39.84375 48.1875 33.796875 48.1875 
Q 26.515625 48.1875 22.3125 43.546875 
Q 18.109375 38.921875 18.109375 30.90625 
L 18.109375 0 
L 9.078125 0 
L 9.078125 54.6875 
L 18.109375 54.6875 
L 18.109375 46.1875 
Q 21.34375 51.125 25.703125 53.5625 
Q 30.078125 56 35.796875 56 
Q 45.21875 56 50.046875 50.171875 
Q 54.890625 44.34375 54.890625 33.015625 
z
" id="DejaVuSans-110"/>
       </defs>
       <use xlink:href="#DejaVuSans-74"/>
       <use x="29.492188" xlink:href="#DejaVuSans-117"/>
       <use x="92.871094" xlink:href="#DejaVuSans-110"/>
       <use x="156.25" xlink:href="#DejaVuSans-32"/>
       <use x="188.037109" xlink:href="#DejaVuSans-50"/>
       <use x="251.660156" xlink:href="#DejaVuSans-48"/>
       <use x="315.283203" xlink:href="#DejaVuSans-50"/>
       <use x="378.90625" xlink:href="#DejaVuSans-48"/>
      </g>
     </g>
    </g>
    <g id="xtick_5">
     <g id="line2d_5">
      <g>
       <use style="stroke:#000000;stroke-width:0.8;" x="306.270957" xlink:href="#ma5e987b6f1" y="203.04"/>
      </g>
     </g>
     <g id="text_5">
      <!-- Jul 2020 -->
      <g transform="translate(309.030332 250.73375)rotate(-90)scale(0.1 -0.1)">
       <defs>
        <path d="M 9.421875 75.984375 
L 18.40625 75.984375 
L 18.40625 0 
L 9.421875 0 
z
" id="DejaVuSans-108"/>
       </defs>
       <use xlink:href="#DejaVuSans-74"/>
       <use x="29.492188" xlink:href="#DejaVuSans-117"/>
       <use x="92.871094" xlink:href="#DejaVuSans-108"/>
       <use x="120.654297" xlink:href="#DejaVuSans-32"/>
       <use x="152.441406" xlink:href="#DejaVuSans-50"/>
       <use x="216.064453" xlink:href="#DejaVuSans-48"/>
       <use x="279.6875" xlink:href="#DejaVuSans-50"/>
       <use x="343.310547" xlink:href="#DejaVuSans-48"/>
      </g>
     </g>
    </g>
    <g id="xtick_6">
     <g id="line2d_6">
      <g>
       <use style="stroke:#000000;stroke-width:0.8;" x="373.473754" xlink:href="#ma5e987b6f1" y="203.04"/>
      </g>
     </g>
     <g id="text_6">
      <!-- Aug 2020 -->
      <g transform="translate(376.233129 258.194687)rotate(-90)scale(0.1 -0.1)">
       <defs>
        <path d="M 45.40625 27.984375 
Q 45.40625 37.75 41.375 43.109375 
Q 37.359375 48.484375 30.078125 48.484375 
Q 22.859375 48.484375 18.828125 43.109375 
Q 14.796875 37.75 14.796875 27.984375 
Q 14.796875 18.265625 18.828125 12.890625 
Q 22.859375 7.515625 30.078125 7.515625 
Q 37.359375 7.515625 41.375 12.890625 
Q 45.40625 18.265625 45.40625 27.984375 
z
M 54.390625 6.78125 
Q 54.390625 -7.171875 48.1875 -13.984375 
Q 42 -20.796875 29.203125 -20.796875 
Q 24.46875 -20.796875 20.265625 -20.09375 
Q 16.0625 -19.390625 12.109375 -17.921875 
L 12.109375 -9.1875 
Q 16.0625 -11.328125 19.921875 -12.34375 
Q 23.78125 -13.375 27.78125 -13.375 
Q 36.625 -13.375 41.015625 -8.765625 
Q 45.40625 -4.15625 45.40625 5.171875 
L 45.40625 9.625 
Q 42.625 4.78125 38.28125 2.390625 
Q 33.9375 0 27.875 0 
Q 17.828125 0 11.671875 7.65625 
Q 5.515625 15.328125 5.515625 27.984375 
Q 5.515625 40.671875 11.671875 48.328125 
Q 17.828125 56 27.875 56 
Q 33.9375 56 38.28125 53.609375 
Q 42.625 51.21875 45.40625 46.390625 
L 45.40625 54.6875 
L 54.390625 54.6875 
z
" id="DejaVuSans-103"/>
       </defs>
       <use xlink:href="#DejaVuSans-65"/>
       <use x="68.408203" xlink:href="#DejaVuSans-117"/>
       <use x="131.787109" xlink:href="#DejaVuSans-103"/>
       <use x="195.263672" xlink:href="#DejaVuSans-32"/>
       <use x="227.050781" xlink:href="#DejaVuSans-50"/>
       <use x="290.673828" xlink:href="#DejaVuSans-48"/>
       <use x="354.296875" xlink:href="#DejaVuSans-50"/>
       <use x="417.919922" xlink:href="#DejaVuSans-48"/>
      </g>
     </g>
    </g>
    <g id="xtick_7">
     <g id="line2d_7">
      <g>
       <use style="stroke:#000000;stroke-width:0.8;" x="440.676552" xlink:href="#ma5e987b6f1" y="203.04"/>
      </g>
     </g>
     <g id="text_7">
      <!-- Sep 2020 -->
      <g transform="translate(443.435927 257.518125)rotate(-90)scale(0.1 -0.1)">
       <defs>
        <path d="M 53.515625 70.515625 
L 53.515625 60.890625 
Q 47.90625 63.578125 42.921875 64.890625 
Q 37.9375 66.21875 33.296875 66.21875 
Q 25.25 66.21875 20.875 63.09375 
Q 16.5 59.96875 16.5 54.203125 
Q 16.5 49.359375 19.40625 46.890625 
Q 22.3125 44.4375 30.421875 42.921875 
L 36.375 41.703125 
Q 47.40625 39.59375 52.65625 34.296875 
Q 57.90625 29 57.90625 20.125 
Q 57.90625 9.515625 50.796875 4.046875 
Q 43.703125 -1.421875 29.984375 -1.421875 
Q 24.8125 -1.421875 18.96875 -0.25 
Q 13.140625 0.921875 6.890625 3.21875 
L 6.890625 13.375 
Q 12.890625 10.015625 18.65625 8.296875 
Q 24.421875 6.59375 29.984375 6.59375 
Q 38.421875 6.59375 43.015625 9.90625 
Q 47.609375 13.234375 47.609375 19.390625 
Q 47.609375 24.75 44.3125 27.78125 
Q 41.015625 30.8125 33.5 32.328125 
L 27.484375 33.5 
Q 16.453125 35.6875 11.515625 40.375 
Q 6.59375 45.0625 6.59375 53.421875 
Q 6.59375 63.09375 13.40625 68.65625 
Q 20.21875 74.21875 32.171875 74.21875 
Q 37.3125 74.21875 42.625 73.28125 
Q 47.953125 72.359375 53.515625 70.515625 
z
" id="DejaVuSans-83"/>
        <path d="M 56.203125 29.59375 
L 56.203125 25.203125 
L 14.890625 25.203125 
Q 15.484375 15.921875 20.484375 11.0625 
Q 25.484375 6.203125 34.421875 6.203125 
Q 39.59375 6.203125 44.453125 7.46875 
Q 49.3125 8.734375 54.109375 11.28125 
L 54.109375 2.78125 
Q 49.265625 0.734375 44.1875 -0.34375 
Q 39.109375 -1.421875 33.890625 -1.421875 
Q 20.796875 -1.421875 13.15625 6.1875 
Q 5.515625 13.8125 5.515625 26.8125 
Q 5.515625 40.234375 12.765625 48.109375 
Q 20.015625 56 32.328125 56 
Q 43.359375 56 49.78125 48.890625 
Q 56.203125 41.796875 56.203125 29.59375 
z
M 47.21875 32.234375 
Q 47.125 39.59375 43.09375 43.984375 
Q 39.0625 48.390625 32.421875 48.390625 
Q 24.90625 48.390625 20.390625 44.140625 
Q 15.875 39.890625 15.1875 32.171875 
z
" id="DejaVuSans-101"/>
       </defs>
       <use xlink:href="#DejaVuSans-83"/>
       <use x="63.476562" xlink:href="#DejaVuSans-101"/>
       <use x="125" xlink:href="#DejaVuSans-112"/>
       <use x="188.476562" xlink:href="#DejaVuSans-32"/>
       <use x="220.263672" xlink:href="#DejaVuSans-50"/>
       <use x="283.886719" xlink:href="#DejaVuSans-48"/>
       <use x="347.509766" xlink:href="#DejaVuSans-50"/>
       <use x="411.132812" xlink:href="#DejaVuSans-48"/>
      </g>
     </g>
    </g>
    <g id="xtick_8">
     <g id="line2d_8">
      <g>
       <use style="stroke:#000000;stroke-width:0.8;" x="505.711517" xlink:href="#ma5e987b6f1" y="203.04"/>
      </g>
     </g>
     <g id="text_8">
      <!-- Oct 2020 -->
      <g transform="translate(508.470892 255.95875)rotate(-90)scale(0.1 -0.1)">
       <defs>
        <path d="M 39.40625 66.21875 
Q 28.65625 66.21875 22.328125 58.203125 
Q 16.015625 50.203125 16.015625 36.375 
Q 16.015625 22.609375 22.328125 14.59375 
Q 28.65625 6.59375 39.40625 6.59375 
Q 50.140625 6.59375 56.421875 14.59375 
Q 62.703125 22.609375 62.703125 36.375 
Q 62.703125 50.203125 56.421875 58.203125 
Q 50.140625 66.21875 39.40625 66.21875 
z
M 39.40625 74.21875 
Q 54.734375 74.21875 63.90625 63.9375 
Q 73.09375 53.65625 73.09375 36.375 
Q 73.09375 19.140625 63.90625 8.859375 
Q 54.734375 -1.421875 39.40625 -1.421875 
Q 24.03125 -1.421875 14.8125 8.828125 
Q 5.609375 19.09375 5.609375 36.375 
Q 5.609375 53.65625 14.8125 63.9375 
Q 24.03125 74.21875 39.40625 74.21875 
z
" id="DejaVuSans-79"/>
        <path d="M 48.78125 52.59375 
L 48.78125 44.1875 
Q 44.96875 46.296875 41.140625 47.34375 
Q 37.3125 48.390625 33.40625 48.390625 
Q 24.65625 48.390625 19.8125 42.84375 
Q 14.984375 37.3125 14.984375 27.296875 
Q 14.984375 17.28125 19.8125 11.734375 
Q 24.65625 6.203125 33.40625 6.203125 
Q 37.3125 6.203125 41.140625 7.25 
Q 44.96875 8.296875 48.78125 10.40625 
L 48.78125 2.09375 
Q 45.015625 0.34375 40.984375 -0.53125 
Q 36.96875 -1.421875 32.421875 -1.421875 
Q 20.0625 -1.421875 12.78125 6.34375 
Q 5.515625 14.109375 5.515625 27.296875 
Q 5.515625 40.671875 12.859375 48.328125 
Q 20.21875 56 33.015625 56 
Q 37.15625 56 41.109375 55.140625 
Q 45.0625 54.296875 48.78125 52.59375 
z
" id="DejaVuSans-99"/>
        <path d="M 18.3125 70.21875 
L 18.3125 54.6875 
L 36.8125 54.6875 
L 36.8125 47.703125 
L 18.3125 47.703125 
L 18.3125 18.015625 
Q 18.3125 11.328125 20.140625 9.421875 
Q 21.96875 7.515625 27.59375 7.515625 
L 36.8125 7.515625 
L 36.8125 0 
L 27.59375 0 
Q 17.1875 0 13.234375 3.875 
Q 9.28125 7.765625 9.28125 18.015625 
L 9.28125 47.703125 
L 2.6875 47.703125 
L 2.6875 54.6875 
L 9.28125 54.6875 
L 9.28125 70.21875 
z
" id="DejaVuSans-116"/>
       </defs>
       <use xlink:href="#DejaVuSans-79"/>
       <use x="78.710938" xlink:href="#DejaVuSans-99"/>
       <use x="133.691406" xlink:href="#DejaVuSans-116"/>
       <use x="172.900391" xlink:href="#DejaVuSans-32"/>
       <use x="204.6875" xlink:href="#DejaVuSans-50"/>
       <use x="268.310547" xlink:href="#DejaVuSans-48"/>
       <use x="331.933594" xlink:href="#DejaVuSans-50"/>
       <use x="395.556641" xlink:href="#DejaVuSans-48"/>
      </g>
     </g>
    </g>
    <g id="xtick_9">
     <g id="line2d_9">
      <g>
       <use style="stroke:#000000;stroke-width:0.8;" x="572.914314" xlink:href="#ma5e987b6f1" y="203.04"/>
      </g>
     </g>
     <g id="text_9">
      <!-- Nov 2020 -->
      <g transform="translate(575.673689 258.186875)rotate(-90)scale(0.1 -0.1)">
       <defs>
        <path d="M 9.8125 72.90625 
L 23.09375 72.90625 
L 55.421875 11.921875 
L 55.421875 72.90625 
L 64.984375 72.90625 
L 64.984375 0 
L 51.703125 0 
L 19.390625 60.984375 
L 19.390625 0 
L 9.8125 0 
z
" id="DejaVuSans-78"/>
        <path d="M 30.609375 48.390625 
Q 23.390625 48.390625 19.1875 42.75 
Q 14.984375 37.109375 14.984375 27.296875 
Q 14.984375 17.484375 19.15625 11.84375 
Q 23.34375 6.203125 30.609375 6.203125 
Q 37.796875 6.203125 41.984375 11.859375 
Q 46.1875 17.53125 46.1875 27.296875 
Q 46.1875 37.015625 41.984375 42.703125 
Q 37.796875 48.390625 30.609375 48.390625 
z
M 30.609375 56 
Q 42.328125 56 49.015625 48.375 
Q 55.71875 40.765625 55.71875 27.296875 
Q 55.71875 13.875 49.015625 6.21875 
Q 42.328125 -1.421875 30.609375 -1.421875 
Q 18.84375 -1.421875 12.171875 6.21875 
Q 5.515625 13.875 5.515625 27.296875 
Q 5.515625 40.765625 12.171875 48.375 
Q 18.84375 56 30.609375 56 
z
" id="DejaVuSans-111"/>
        <path d="M 2.984375 54.6875 
L 12.5 54.6875 
L 29.59375 8.796875 
L 46.6875 54.6875 
L 56.203125 54.6875 
L 35.6875 0 
L 23.484375 0 
z
" id="DejaVuSans-118"/>
       </defs>
       <use xlink:href="#DejaVuSans-78"/>
       <use x="74.804688" xlink:href="#DejaVuSans-111"/>
       <use x="135.986328" xlink:href="#DejaVuSans-118"/>
       <use x="195.166016" xlink:href="#DejaVuSans-32"/>
       <use x="226.953125" xlink:href="#DejaVuSans-50"/>
       <use x="290.576172" xlink:href="#DejaVuSans-48"/>
       <use x="354.199219" xlink:href="#DejaVuSans-50"/>
       <use x="417.822266" xlink:href="#DejaVuSans-48"/>
      </g>
     </g>
    </g>
    <g id="xtick_10">
     <g id="line2d_10">
      <g>
       <use style="stroke:#000000;stroke-width:0.8;" x="637.949279" xlink:href="#ma5e987b6f1" y="203.04"/>
      </g>
     </g>
     <g id="text_10">
      <!-- Dec 2020 -->
      <g transform="translate(640.708654 258.019687)rotate(-90)scale(0.1 -0.1)">
       <defs>
        <path d="M 19.671875 64.796875 
L 19.671875 8.109375 
L 31.59375 8.109375 
Q 46.6875 8.109375 53.6875 14.9375 
Q 60.6875 21.78125 60.6875 36.53125 
Q 60.6875 51.171875 53.6875 57.984375 
Q 46.6875 64.796875 31.59375 64.796875 
z
M 9.8125 72.90625 
L 30.078125 72.90625 
Q 51.265625 72.90625 61.171875 64.09375 
Q 71.09375 55.28125 71.09375 36.53125 
Q 71.09375 17.671875 61.125 8.828125 
Q 51.171875 0 30.078125 0 
L 9.8125 0 
z
" id="DejaVuSans-68"/>
       </defs>
       <use xlink:href="#DejaVuSans-68"/>
       <use x="77.001953" xlink:href="#DejaVuSans-101"/>
       <use x="138.525391" xlink:href="#DejaVuSans-99"/>
       <use x="193.505859" xlink:href="#DejaVuSans-32"/>
       <use x="225.292969" xlink:href="#DejaVuSans-50"/>
       <use x="288.916016" xlink:href="#DejaVuSans-48"/>
       <use x="352.539062" xlink:href="#DejaVuSans-50"/>
       <use x="416.162109" xlink:href="#DejaVuSans-48"/>
      </g>
     </g>
    </g>
    <g id="xtick_11">
     <g id="line2d_11">
      <g>
       <use style="stroke:#000000;stroke-width:0.8;" x="705.152076" xlink:href="#ma5e987b6f1" y="203.04"/>
      </g>
     </g>
     <g id="text_11">
      <!-- Jan 2021 -->
      <g transform="translate(707.911451 254.08375)rotate(-90)scale(0.1 -0.1)">
       <defs>
        <path d="M 12.40625 8.296875 
L 28.515625 8.296875 
L 28.515625 63.921875 
L 10.984375 60.40625 
L 10.984375 69.390625 
L 28.421875 72.90625 
L 38.28125 72.90625 
L 38.28125 8.296875 
L 54.390625 8.296875 
L 54.390625 0 
L 12.40625 0 
z
" id="DejaVuSans-49"/>
       </defs>
       <use xlink:href="#DejaVuSans-74"/>
       <use x="29.492188" xlink:href="#DejaVuSans-97"/>
       <use x="90.771484" xlink:href="#DejaVuSans-110"/>
       <use x="154.150391" xlink:href="#DejaVuSans-32"/>
       <use x="185.9375" xlink:href="#DejaVuSans-50"/>
       <use x="249.560547" xlink:href="#DejaVuSans-48"/>
       <use x="313.183594" xlink:href="#DejaVuSans-50"/>
       <use x="376.806641" xlink:href="#DejaVuSans-49"/>
      </g>
     </g>
    </g>
    <g id="xtick_12">
     <g id="line2d_12">
      <g>
       <use style="stroke:#000000;stroke-width:0.8;" x="772.354873" xlink:href="#ma5e987b6f1" y="203.04"/>
      </g>
     </g>
     <g id="text_12">
      <!-- Feb 2021 -->
      <g transform="translate(775.114248 256.37125)rotate(-90)scale(0.1 -0.1)">
       <defs>
        <path d="M 9.8125 72.90625 
L 51.703125 72.90625 
L 51.703125 64.59375 
L 19.671875 64.59375 
L 19.671875 43.109375 
L 48.578125 43.109375 
L 48.578125 34.8125 
L 19.671875 34.8125 
L 19.671875 0 
L 9.8125 0 
z
" id="DejaVuSans-70"/>
        <path d="M 48.6875 27.296875 
Q 48.6875 37.203125 44.609375 42.84375 
Q 40.53125 48.484375 33.40625 48.484375 
Q 26.265625 48.484375 22.1875 42.84375 
Q 18.109375 37.203125 18.109375 27.296875 
Q 18.109375 17.390625 22.1875 11.75 
Q 26.265625 6.109375 33.40625 6.109375 
Q 40.53125 6.109375 44.609375 11.75 
Q 48.6875 17.390625 48.6875 27.296875 
z
M 18.109375 46.390625 
Q 20.953125 51.265625 25.265625 53.625 
Q 29.59375 56 35.59375 56 
Q 45.5625 56 51.78125 48.09375 
Q 58.015625 40.1875 58.015625 27.296875 
Q 58.015625 14.40625 51.78125 6.484375 
Q 45.5625 -1.421875 35.59375 -1.421875 
Q 29.59375 -1.421875 25.265625 0.953125 
Q 20.953125 3.328125 18.109375 8.203125 
L 18.109375 0 
L 9.078125 0 
L 9.078125 75.984375 
L 18.109375 75.984375 
z
" id="DejaVuSans-98"/>
       </defs>
       <use xlink:href="#DejaVuSans-70"/>
       <use x="52.019531" xlink:href="#DejaVuSans-101"/>
       <use x="113.542969" xlink:href="#DejaVuSans-98"/>
       <use x="177.019531" xlink:href="#DejaVuSans-32"/>
       <use x="208.806641" xlink:href="#DejaVuSans-50"/>
       <use x="272.429688" xlink:href="#DejaVuSans-48"/>
       <use x="336.052734" xlink:href="#DejaVuSans-50"/>
       <use x="399.675781" xlink:href="#DejaVuSans-49"/>
      </g>
     </g>
    </g>
    <g id="xtick_13">
     <g id="line2d_13">
      <g>
       <use style="stroke:#000000;stroke-width:0.8;" x="833.054174" xlink:href="#ma5e987b6f1" y="203.04"/>
      </g>
     </g>
     <g id="text_13">
      <!-- Mar 2021 -->
      <g transform="translate(835.813549 257.535312)rotate(-90)scale(0.1 -0.1)">
       <use xlink:href="#DejaVuSans-77"/>
       <use x="86.279297" xlink:href="#DejaVuSans-97"/>
       <use x="147.558594" xlink:href="#DejaVuSans-114"/>
       <use x="188.671875" xlink:href="#DejaVuSans-32"/>
       <use x="220.458984" xlink:href="#DejaVuSans-50"/>
       <use x="284.082031" xlink:href="#DejaVuSans-48"/>
       <use x="347.705078" xlink:href="#DejaVuSans-50"/>
       <use x="411.328125" xlink:href="#DejaVuSans-49"/>
      </g>
     </g>
    </g>
    <g id="text_14">
     <!-- Start date -->
     <g transform="translate(434.025 270.941562)scale(0.1 -0.1)">
      <defs>
       <path d="M 45.40625 46.390625 
L 45.40625 75.984375 
L 54.390625 75.984375 
L 54.390625 0 
L 45.40625 0 
L 45.40625 8.203125 
Q 42.578125 3.328125 38.25 0.953125 
Q 33.9375 -1.421875 27.875 -1.421875 
Q 17.96875 -1.421875 11.734375 6.484375 
Q 5.515625 14.40625 5.515625 27.296875 
Q 5.515625 40.1875 11.734375 48.09375 
Q 17.96875 56 27.875 56 
Q 33.9375 56 38.25 53.625 
Q 42.578125 51.265625 45.40625 46.390625 
z
M 14.796875 27.296875 
Q 14.796875 17.390625 18.875 11.75 
Q 22.953125 6.109375 30.078125 6.109375 
Q 37.203125 6.109375 41.296875 11.75 
Q 45.40625 17.390625 45.40625 27.296875 
Q 45.40625 37.203125 41.296875 42.84375 
Q 37.203125 48.484375 30.078125 48.484375 
Q 22.953125 48.484375 18.875 42.84375 
Q 14.796875 37.203125 14.796875 27.296875 
z
" id="DejaVuSans-100"/>
      </defs>
      <use xlink:href="#DejaVuSans-83"/>
      <use x="63.476562" xlink:href="#DejaVuSans-116"/>
      <use x="102.685547" xlink:href="#DejaVuSans-97"/>
      <use x="163.964844" xlink:href="#DejaVuSans-114"/>
      <use x="205.078125" xlink:href="#DejaVuSans-116"/>
      <use x="244.287109" xlink:href="#DejaVuSans-32"/>
      <use x="276.074219" xlink:href="#DejaVuSans-100"/>
      <use x="339.550781" xlink:href="#DejaVuSans-97"/>
      <use x="400.830078" xlink:href="#DejaVuSans-116"/>
      <use x="440.039062" xlink:href="#DejaVuSans-101"/>
     </g>
    </g>
   </g>
   <g id="matplotlib.axis_2">
    <g id="ytick_1">
     <g id="line2d_14">
      <defs>
       <path d="M 0 0 
L -3.5 0 
" id="m351ce09426" style="stroke:#000000;stroke-width:0.8;"/>
      </defs>
      <g>
       <use style="stroke:#000000;stroke-width:0.8;" x="40.603125" xlink:href="#m351ce09426" y="194.138182"/>
      </g>
     </g>
     <g id="text_15">
      <!-- 0 -->
      <g transform="translate(27.240625 197.937401)scale(0.1 -0.1)">
       <use xlink:href="#DejaVuSans-48"/>
      </g>
     </g>
    </g>
    <g id="ytick_2">
     <g id="line2d_15">
      <g>
       <use style="stroke:#000000;stroke-width:0.8;" x="40.603125" xlink:href="#m351ce09426" y="166.32"/>
      </g>
     </g>
     <g id="text_16">
      <!-- 10 -->
      <g transform="translate(20.878125 170.119219)scale(0.1 -0.1)">
       <use xlink:href="#DejaVuSans-49"/>
       <use x="63.623047" xlink:href="#DejaVuSans-48"/>
      </g>
     </g>
    </g>
    <g id="ytick_3">
     <g id="line2d_16">
      <g>
       <use style="stroke:#000000;stroke-width:0.8;" x="40.603125" xlink:href="#m351ce09426" y="138.501818"/>
      </g>
     </g>
     <g id="text_17">
      <!-- 20 -->
      <g transform="translate(20.878125 142.301037)scale(0.1 -0.1)">
       <use xlink:href="#DejaVuSans-50"/>
       <use x="63.623047" xlink:href="#DejaVuSans-48"/>
      </g>
     </g>
    </g>
    <g id="ytick_4">
     <g id="line2d_17">
      <g>
       <use style="stroke:#000000;stroke-width:0.8;" x="40.603125" xlink:href="#m351ce09426" y="110.683636"/>
      </g>
     </g>
     <g id="text_18">
      <!-- 30 -->
      <g transform="translate(20.878125 114.482855)scale(0.1 -0.1)">
       <defs>
        <path d="M 40.578125 39.3125 
Q 47.65625 37.796875 51.625 33 
Q 55.609375 28.21875 55.609375 21.1875 
Q 55.609375 10.40625 48.1875 4.484375 
Q 40.765625 -1.421875 27.09375 -1.421875 
Q 22.515625 -1.421875 17.65625 -0.515625 
Q 12.796875 0.390625 7.625 2.203125 
L 7.625 11.71875 
Q 11.71875 9.328125 16.59375 8.109375 
Q 21.484375 6.890625 26.8125 6.890625 
Q 36.078125 6.890625 40.9375 10.546875 
Q 45.796875 14.203125 45.796875 21.1875 
Q 45.796875 27.640625 41.28125 31.265625 
Q 36.765625 34.90625 28.71875 34.90625 
L 20.21875 34.90625 
L 20.21875 43.015625 
L 29.109375 43.015625 
Q 36.375 43.015625 40.234375 45.921875 
Q 44.09375 48.828125 44.09375 54.296875 
Q 44.09375 59.90625 40.109375 62.90625 
Q 36.140625 65.921875 28.71875 65.921875 
Q 24.65625 65.921875 20.015625 65.03125 
Q 15.375 64.15625 9.8125 62.3125 
L 9.8125 71.09375 
Q 15.4375 72.65625 20.34375 73.4375 
Q 25.25 74.21875 29.59375 74.21875 
Q 40.828125 74.21875 47.359375 69.109375 
Q 53.90625 64.015625 53.90625 55.328125 
Q 53.90625 49.265625 50.4375 45.09375 
Q 46.96875 40.921875 40.578125 39.3125 
z
" id="DejaVuSans-51"/>
       </defs>
       <use xlink:href="#DejaVuSans-51"/>
       <use x="63.623047" xlink:href="#DejaVuSans-48"/>
      </g>
     </g>
    </g>
    <g id="ytick_5">
     <g id="line2d_18">
      <g>
       <use style="stroke:#000000;stroke-width:0.8;" x="40.603125" xlink:href="#m351ce09426" y="82.865455"/>
      </g>
     </g>
     <g id="text_19">
      <!-- 40 -->
      <g transform="translate(20.878125 86.664673)scale(0.1 -0.1)">
       <defs>
        <path d="M 37.796875 64.3125 
L 12.890625 25.390625 
L 37.796875 25.390625 
z
M 35.203125 72.90625 
L 47.609375 72.90625 
L 47.609375 25.390625 
L 58.015625 25.390625 
L 58.015625 17.1875 
L 47.609375 17.1875 
L 47.609375 0 
L 37.796875 0 
L 37.796875 17.1875 
L 4.890625 17.1875 
L 4.890625 26.703125 
z
" id="DejaVuSans-52"/>
       </defs>
       <use xlink:href="#DejaVuSans-52"/>
       <use x="63.623047" xlink:href="#DejaVuSans-48"/>
      </g>
     </g>
    </g>
    <g id="ytick_6">
     <g id="line2d_19">
      <g>
       <use style="stroke:#000000;stroke-width:0.8;" x="40.603125" xlink:href="#m351ce09426" y="55.047273"/>
      </g>
     </g>
     <g id="text_20">
      <!-- 50 -->
      <g transform="translate(20.878125 58.846491)scale(0.1 -0.1)">
       <defs>
        <path d="M 10.796875 72.90625 
L 49.515625 72.90625 
L 49.515625 64.59375 
L 19.828125 64.59375 
L 19.828125 46.734375 
Q 21.96875 47.46875 24.109375 47.828125 
Q 26.265625 48.1875 28.421875 48.1875 
Q 40.625 48.1875 47.75 41.5 
Q 54.890625 34.8125 54.890625 23.390625 
Q 54.890625 11.625 47.5625 5.09375 
Q 40.234375 -1.421875 26.90625 -1.421875 
Q 22.3125 -1.421875 17.546875 -0.640625 
Q 12.796875 0.140625 7.71875 1.703125 
L 7.71875 11.625 
Q 12.109375 9.234375 16.796875 8.0625 
Q 21.484375 6.890625 26.703125 6.890625 
Q 35.15625 6.890625 40.078125 11.328125 
Q 45.015625 15.765625 45.015625 23.390625 
Q 45.015625 31 40.078125 35.4375 
Q 35.15625 39.890625 26.703125 39.890625 
Q 22.75 39.890625 18.8125 39.015625 
Q 14.890625 38.140625 10.796875 36.28125 
z
" id="DejaVuSans-53"/>
       </defs>
       <use xlink:href="#DejaVuSans-53"/>
       <use x="63.623047" xlink:href="#DejaVuSans-48"/>
      </g>
     </g>
    </g>
    <g id="ytick_7">
     <g id="line2d_20">
      <g>
       <use style="stroke:#000000;stroke-width:0.8;" x="40.603125" xlink:href="#m351ce09426" y="27.229091"/>
      </g>
     </g>
     <g id="text_21">
      <!-- 60 -->
      <g transform="translate(20.878125 31.02831)scale(0.1 -0.1)">
       <defs>
        <path d="M 33.015625 40.375 
Q 26.375 40.375 22.484375 35.828125 
Q 18.609375 31.296875 18.609375 23.390625 
Q 18.609375 15.53125 22.484375 10.953125 
Q 26.375 6.390625 33.015625 6.390625 
Q 39.65625 6.390625 43.53125 10.953125 
Q 47.40625 15.53125 47.40625 23.390625 
Q 47.40625 31.296875 43.53125 35.828125 
Q 39.65625 40.375 33.015625 40.375 
z
M 52.59375 71.296875 
L 52.59375 62.3125 
Q 48.875 64.0625 45.09375 64.984375 
Q 41.3125 65.921875 37.59375 65.921875 
Q 27.828125 65.921875 22.671875 59.328125 
Q 17.53125 52.734375 16.796875 39.40625 
Q 19.671875 43.65625 24.015625 45.921875 
Q 28.375 48.1875 33.59375 48.1875 
Q 44.578125 48.1875 50.953125 41.515625 
Q 57.328125 34.859375 57.328125 23.390625 
Q 57.328125 12.15625 50.6875 5.359375 
Q 44.046875 -1.421875 33.015625 -1.421875 
Q 20.359375 -1.421875 13.671875 8.265625 
Q 6.984375 17.96875 6.984375 36.375 
Q 6.984375 53.65625 15.1875 63.9375 
Q 23.390625 74.21875 37.203125 74.21875 
Q 40.921875 74.21875 44.703125 73.484375 
Q 48.484375 72.75 52.59375 71.296875 
z
" id="DejaVuSans-54"/>
       </defs>
       <use xlink:href="#DejaVuSans-54"/>
       <use x="63.623047" xlink:href="#DejaVuSans-48"/>
      </g>
     </g>
    </g>
    <g id="text_22">
     <!-- Stay (in days) -->
     <g transform="translate(14.798438 139.717656)rotate(-90)scale(0.1 -0.1)">
      <defs>
       <path d="M 31 75.875 
Q 24.46875 64.65625 21.28125 53.65625 
Q 18.109375 42.671875 18.109375 31.390625 
Q 18.109375 20.125 21.3125 9.0625 
Q 24.515625 -2 31 -13.1875 
L 23.1875 -13.1875 
Q 15.875 -1.703125 12.234375 9.375 
Q 8.59375 20.453125 8.59375 31.390625 
Q 8.59375 42.28125 12.203125 53.3125 
Q 15.828125 64.359375 23.1875 75.875 
z
" id="DejaVuSans-40"/>
       <path d="M 9.421875 54.6875 
L 18.40625 54.6875 
L 18.40625 0 
L 9.421875 0 
z
M 9.421875 75.984375 
L 18.40625 75.984375 
L 18.40625 64.59375 
L 9.421875 64.59375 
z
" id="DejaVuSans-105"/>
       <path d="M 44.28125 53.078125 
L 44.28125 44.578125 
Q 40.484375 46.53125 36.375 47.5 
Q 32.28125 48.484375 27.875 48.484375 
Q 21.1875 48.484375 17.84375 46.4375 
Q 14.5 44.390625 14.5 40.28125 
Q 14.5 37.15625 16.890625 35.375 
Q 19.28125 33.59375 26.515625 31.984375 
L 29.59375 31.296875 
Q 39.15625 29.25 43.1875 25.515625 
Q 47.21875 21.78125 47.21875 15.09375 
Q 47.21875 7.46875 41.1875 3.015625 
Q 35.15625 -1.421875 24.609375 -1.421875 
Q 20.21875 -1.421875 15.453125 -0.5625 
Q 10.6875 0.296875 5.421875 2 
L 5.421875 11.28125 
Q 10.40625 8.6875 15.234375 7.390625 
Q 20.0625 6.109375 24.8125 6.109375 
Q 31.15625 6.109375 34.5625 8.28125 
Q 37.984375 10.453125 37.984375 14.40625 
Q 37.984375 18.0625 35.515625 20.015625 
Q 33.0625 21.96875 24.703125 23.78125 
L 21.578125 24.515625 
Q 13.234375 26.265625 9.515625 29.90625 
Q 5.8125 33.546875 5.8125 39.890625 
Q 5.8125 47.609375 11.28125 51.796875 
Q 16.75 56 26.8125 56 
Q 31.78125 56 36.171875 55.265625 
Q 40.578125 54.546875 44.28125 53.078125 
z
" id="DejaVuSans-115"/>
       <path d="M 8.015625 75.875 
L 15.828125 75.875 
Q 23.140625 64.359375 26.78125 53.3125 
Q 30.421875 42.28125 30.421875 31.390625 
Q 30.421875 20.453125 26.78125 9.375 
Q 23.140625 -1.703125 15.828125 -13.1875 
L 8.015625 -13.1875 
Q 14.5 -2 17.703125 9.0625 
Q 20.90625 20.125 20.90625 31.390625 
Q 20.90625 42.671875 17.703125 53.65625 
Q 14.5 64.65625 8.015625 75.875 
z
" id="DejaVuSans-41"/>
      </defs>
      <use xlink:href="#DejaVuSans-83"/>
      <use x="63.476562" xlink:href="#DejaVuSans-116"/>
      <use x="102.685547" xlink:href="#DejaVuSans-97"/>
      <use x="163.964844" xlink:href="#DejaVuSans-121"/>
      <use x="223.144531" xlink:href="#DejaVuSans-32"/>
      <use x="254.931641" xlink:href="#DejaVuSans-40"/>
      <use x="293.945312" xlink:href="#DejaVuSans-105"/>
      <use x="321.728516" xlink:href="#DejaVuSans-110"/>
      <use x="385.107422" xlink:href="#DejaVuSans-32"/>
      <use x="416.894531" xlink:href="#DejaVuSans-100"/>
      <use x="480.371094" xlink:href="#DejaVuSans-97"/>
      <use x="541.650391" xlink:href="#DejaVuSans-121"/>
      <use x="600.830078" xlink:href="#DejaVuSans-115"/>
      <use x="652.929688" xlink:href="#DejaVuSans-41"/>
     </g>
    </g>
   </g>
   <g id="line2d_21">
    <path clip-path="url(#p9810e7e5bf)" d="M 78.64858 181.62 
L 80.816412 152.410909 
L 82.984244 134.329091 
L 85.152076 163.538182 
L 87.319908 100.947273 
L 89.48774 188.574545 
L 91.655573 114.856364 
L 93.823405 70.347273 
L 95.991237 138.501818 
L 98.159069 128.301818 
L 100.326901 146.847273 
L 102.494733 99.092727 
L 104.662566 144.065455 
L 106.830398 100.947273 
L 108.99823 139.429091 
L 111.166062 166.32 
L 113.333894 146.847273 
L 115.501726 149.629091 
L 117.669559 166.32 
L 119.837391 149.629091 
L 122.005223 144.065455 
L 124.173055 127.374545 
L 126.340887 124.592727 
L 130.676552 166.32 
L 135.012216 135.72 
L 137.180048 142.674545 
L 139.34788 182.083636 
L 143.683545 127.374545 
L 145.851377 132.938182 
L 152.354873 80.083636 
L 154.522705 102.338182 
L 156.690538 158.67 
L 158.85837 141.283636 
L 161.026202 188.574545 
L 163.194034 160.756364 
L 165.361866 170.956364 
L 167.529698 166.32 
L 169.697531 169.797273 
L 171.865363 159.829091 
L 174.033195 146.847273 
L 176.201027 131.547273 
L 178.368859 165.763636 
L 180.536691 169.101818 
L 182.704524 139.892727 
L 184.872356 172.810909 
L 187.040188 167.710909 
L 191.375852 180.229091 
L 193.543684 66.174545 
L 195.711517 164.465455 
L 197.879349 141.283636 
L 200.047181 157.974545 
L 202.215013 128.07 
L 204.382845 146.847273 
L 206.550677 155.888182 
L 208.71851 162.147273 
L 210.886342 147.403636 
L 213.054174 145.456364 
L 215.222006 153.603117 
L 217.389838 144.065455 
L 219.55767 170.492727 
L 221.725503 156.583636 
L 223.893335 154.265455 
L 226.061167 147.642078 
L 228.228999 149.629091 
L 230.396831 174.665455 
L 232.564663 174.665455 
L 234.732496 163.538182 
L 236.900328 160.756364 
L 239.06816 161.451818 
L 241.235992 145.178182 
L 243.403824 150.672273 
L 245.571656 174.665455 
L 247.739489 183.010909 
L 249.907321 139.545 
L 252.075153 163.538182 
L 254.242985 142.674545 
L 256.410817 164.465455 
L 258.578649 144.621818 
L 260.746482 141.283636 
L 262.914314 160.756364 
L 265.082146 160.429091 
L 267.249978 168.174545 
L 269.41781 154.883636 
L 271.585642 98.165455 
L 273.753475 149.629091 
L 275.921307 126.215455 
L 278.089139 173.830909 
L 280.256971 133.443967 
L 282.424803 163.306364 
L 284.592635 169.52979 
L 286.760468 161.22 
L 288.9283 157.760559 
L 291.096132 162.065455 
L 293.263964 158.173247 
L 295.431796 131.547273 
L 297.599628 162.610909 
L 299.767461 152.584773 
L 301.935293 128.487273 
L 304.103125 152.689091 
L 306.270957 120.992727 
L 308.438789 149.755537 
L 310.606622 138.501818 
L 312.774454 112.823497 
L 314.942286 152.063182 
L 317.110118 152.996555 
L 319.27795 146.363478 
L 321.445782 138.501818 
L 323.613615 155.424545 
L 325.781447 160.292727 
L 327.949279 131.269091 
L 330.117111 144.86026 
L 332.284943 123.897273 
L 334.452775 141.187712 
L 336.620608 156.699545 
L 338.78844 159.239008 
L 340.956272 150.233834 
L 343.124104 114.160909 
L 345.291936 137.729091 
L 347.459768 148.392727 
L 349.627601 145.395889 
L 351.795433 148.071273 
L 353.963265 138.733636 
L 356.131097 144.670198 
L 358.298929 121.038182 
L 360.466761 149.010909 
L 362.634594 142.73502 
L 364.802426 162.065455 
L 366.970258 148.238182 
L 369.13809 148.782451 
L 371.305922 144.155191 
L 373.473754 132.79177 
L 375.641587 151.736529 
L 377.809419 156.351818 
L 379.977251 148.617521 
L 382.145083 143.102517 
L 384.312915 146.312308 
L 386.480747 148.856364 
L 388.64858 138.154091 
L 390.816412 157.232727 
L 392.984244 150.630545 
L 395.152076 156.281265 
L 397.319908 164.762182 
L 399.48774 146.467934 
L 401.655573 156.861818 
L 403.823405 138.23261 
L 405.991237 158.148409 
L 408.159069 163.816364 
L 410.326901 154.899904 
L 412.494733 128.831688 
L 414.662566 143.460711 
L 416.830398 156.082909 
L 418.99823 154.265455 
L 421.166062 144.645 
L 423.333894 166.854965 
L 425.501726 140.949818 
L 427.669559 146.44987 
L 429.837391 147.665455 
L 432.005223 155.676522 
L 434.173055 142.295207 
L 436.340887 133.592727 
L 438.508719 166.854965 
L 440.676552 153.728612 
L 442.844384 156.027273 
L 445.012216 153.694825 
L 447.180048 163.229091 
L 449.34788 157.853597 
L 451.515712 155.501818 
L 453.683545 163.26 
L 455.851377 153.675372 
L 458.019209 170.426494 
L 460.187041 150.498409 
L 462.354873 150.865455 
L 464.522705 163.847273 
L 466.690538 153.183636 
L 468.85837 145.224545 
L 471.026202 146.549221 
L 473.194034 142.500682 
L 475.361866 156.583636 
L 477.529698 139.058182 
L 479.697531 157.974545 
L 481.865363 168.754091 
L 484.033195 144.318347 
L 486.201027 161.767934 
L 488.368859 158.843864 
L 490.536691 152.132727 
L 492.704524 166.32 
L 494.872356 155.59013 
L 497.040188 163.26 
L 499.20802 132.51021 
L 501.375852 147.890455 
L 503.543684 145.835702 
L 505.711517 158.901818 
L 507.879349 131.721136 
L 510.047181 149.783636 
L 512.215013 157.452955 
L 514.382845 146.615455 
L 516.550677 138.965455 
L 518.71851 162.842727 
L 520.886342 154.596623 
L 523.054174 158.67 
L 525.222006 153.523636 
L 527.389838 167.584463 
L 529.55767 155.847273 
L 531.725503 156.351818 
L 533.893335 141.283636 
L 536.061167 136.598469 
L 538.228999 133.285909 
L 540.396831 150.938182 
L 542.564663 172.161818 
L 544.732496 129.942378 
L 546.900328 153.801818 
L 549.06816 151.02 
L 551.235992 156.665455 
L 553.403824 164.822098 
L 555.571656 163.816364 
L 557.739489 148.987133 
L 559.907321 161.799545 
L 562.075153 150.423896 
L 564.242985 158.283636 
L 566.410817 147.010909 
L 568.578649 163.752168 
L 570.746482 152.596364 
L 572.914314 126.090629 
L 575.082146 168.704416 
L 577.249978 148.064318 
L 579.41781 165.127792 
L 581.585642 148.773147 
L 583.753475 159.472448 
L 585.921307 135.556364 
L 588.089139 144.436364 
L 590.256971 161.799545 
L 592.424803 148.516364 
L 594.592635 152.013506 
L 596.760468 143.866753 
L 598.9283 143.901818 
L 601.096132 169.101818 
L 603.263964 150.556364 
L 605.431796 150.324545 
L 607.599628 157.418182 
L 609.767461 155.834685 
L 611.935293 145.777343 
L 614.103125 159.829091 
L 616.270957 143.292727 
L 618.438789 147.840779 
L 620.606622 160.756364 
L 622.774454 158.560191 
L 624.942286 145.630227 
L 627.110118 141.87974 
L 629.27795 142.674545 
L 631.445782 148.701818 
L 633.613615 165.723896 
L 635.781447 125.652468 
L 637.949279 159.744793 
L 640.117111 137.616694 
L 642.284943 160.170718 
L 644.452775 145.804091 
L 646.620608 144.065455 
L 648.78844 149.860909 
L 650.956272 155.308636 
L 653.124104 157.46876 
L 655.291936 150.50756 
L 657.459768 161.22 
L 659.627601 146.151818 
L 661.795433 149.32 
L 663.963265 164.650909 
L 666.131097 146.012727 
L 668.298929 148.856364 
L 670.466761 143.686116 
L 672.634594 152.531858 
L 674.802426 138.829091 
L 676.970258 138.327955 
L 679.13809 148.377273 
L 681.305922 154.636364 
L 683.473754 151.756364 
L 685.641587 153.106364 
L 687.809419 168.580227 
L 689.977251 160.234773 
L 692.145083 153.029091 
L 694.312915 149.768182 
L 696.480747 162.345974 
L 698.64858 135.951818 
L 700.816412 159.713182 
L 702.984244 151.417403 
L 705.152076 144.661558 
L 707.319908 146.229091 
L 709.48774 153.582201 
L 711.655573 169.592727 
L 713.823405 150.741818 
L 715.991237 159.272727 
L 718.159069 155.331818 
L 720.326901 160.408636 
L 722.494733 159.52 
L 724.662566 152.410909 
L 726.830398 159.564156 
L 728.99823 153.029091 
L 731.166062 168.406364 
L 733.333894 160.447273 
L 735.501726 159.539318 
L 737.669559 178.374545 
L 739.837391 161.153766 
L 742.005223 159.829091 
L 744.173055 170.126699 
L 746.340887 158.371948 
L 748.508719 171.42 
L 750.676552 168.545455 
L 752.844384 155.834685 
L 755.012216 162.147273 
L 757.180048 157.546573 
L 759.34788 159.961558 
L 761.515712 164.549752 
L 763.683545 166.32 
L 765.851377 159.829091 
L 768.019209 158.530909 
L 770.187041 161.034545 
L 772.354873 162.610909 
L 774.522705 160.756364 
L 776.690538 165.525195 
L 778.85837 168.174545 
L 781.026202 157.047273 
L 783.194034 163.074545 
L 785.361866 159.564156 
L 787.529698 172.718182 
L 789.697531 170.956364 
L 791.865363 162.981818 
L 794.033195 164.372727 
L 796.201027 166.783636 
L 798.368859 170.385734 
L 800.536691 167.114805 
L 802.704524 169.52979 
L 804.872356 170.813706 
L 807.040188 174.665455 
L 809.20802 179.950909 
L 811.375852 179.765455 
L 813.543684 174.974545 
L 815.711517 173.552727 
L 817.879349 179.723306 
L 820.047181 178.56 
L 822.215013 179.950909 
L 824.382845 184.865455 
L 826.550677 182.547273 
L 828.71851 187.879091 
L 830.886342 187.461818 
L 833.054174 191.356364 
L 835.222006 188.177143 
L 839.55767 192.747273 
L 839.55767 192.747273 
" style="fill:none;stroke:#1f77b4;stroke-linecap:square;stroke-width:0.8;"/>
   </g>
   <g id="line2d_22">
    <path clip-path="url(#p9810e7e5bf)" d="M 40.603125 152.547609 
L 877.603125 152.547609 
" style="fill:none;stroke:#000000;stroke-dasharray:2.96,1.28;stroke-dashoffset:0;stroke-width:0.8;"/>
   </g>
   <g id="patch_3">
    <path d="M 40.603125 203.04 
L 40.603125 7.2 
" style="fill:none;stroke:#000000;stroke-linecap:square;stroke-linejoin:miter;stroke-width:0.8;"/>
   </g>
   <g id="patch_4">
    <path d="M 40.603125 203.04 
L 877.603125 203.04 
" style="fill:none;stroke:#000000;stroke-linecap:square;stroke-linejoin:miter;stroke-width:0.8;"/>
   </g>
   <g id="legend_1">
    <g id="patch_5">
     <path d="M 811.35625 29.878125 
L 870.603125 29.878125 
Q 872.603125 29.878125 872.603125 27.878125 
L 872.603125 14.2 
Q 872.603125 12.2 870.603125 12.2 
L 811.35625 12.2 
Q 809.35625 12.2 809.35625 14.2 
L 809.35625 27.878125 
Q 809.35625 29.878125 811.35625 29.878125 
z
" style="fill:#ffffff;opacity:0.8;stroke:#cccccc;stroke-linejoin:miter;"/>
    </g>
    <g id="line2d_23">
     <path d="M 813.35625 20.298437 
L 833.35625 20.298437 
" style="fill:none;stroke:#000000;stroke-dasharray:2.96,1.28;stroke-dashoffset:0;stroke-width:0.8;"/>
    </g>
    <g id="line2d_24"/>
    <g id="text_23">
     <!-- Mean -->
     <g transform="translate(841.35625 23.798437)scale(0.1 -0.1)">
      <use xlink:href="#DejaVuSans-77"/>
      <use x="86.279297" xlink:href="#DejaVuSans-101"/>
      <use x="147.802734" xlink:href="#DejaVuSans-97"/>
      <use x="209.082031" xlink:href="#DejaVuSans-110"/>
     </g>
    </g>
   </g>
  </g>
 </g>
 <defs>
  <clipPath id="p9810e7e5bf">
   <rect height="195.84" width="837" x="40.603125" y="7.2"/>
  </clipPath>
 </defs>
</svg>
