<?xml version="1.0" encoding="utf-8" standalone="no"?>
<!DOCTYPE svg PUBLIC "-//W3C//DTD SVG 1.1//EN"
  "http://www.w3.org/Graphics/SVG/1.1/DTD/svg11.dtd">
<svg height="329.18125pt" version="1.1" viewBox="0 0 884.803125 329.18125" width="884.803125pt" xmlns="http://www.w3.org/2000/svg" xmlns:xlink="http://www.w3.org/1999/xlink">
 <metadata>
  <rdf:RDF xmlns:cc="http://creativecommons.org/ns#" xmlns:dc="http://purl.org/dc/elements/1.1/" xmlns:rdf="http://www.w3.org/1999/02/22-rdf-syntax-ns#">
   <cc:Work>
    <dc:type rdf:resource="http://purl.org/dc/dcmitype/StillImage"/>
    <dc:date>2021-03-29T19:47:56.230823</dc:date>
    <dc:format>image/svg+xml</dc:format>
    <dc:creator>
     <cc:Agent>
      <dc:title>Matplotlib v3.4.0, https://matplotlib.org/</dc:title>
     </cc:Agent>
    </dc:creator>
   </cc:Work>
  </rdf:RDF>
 </metadata>
 <defs>
  <style type="text/css">*{stroke-linecap:butt;stroke-linejoin:round;}</style>
 </defs>
 <g id="figure_1">
  <g id="patch_1">
   <path d="M 0 329.18125 
L 884.803125 329.18125 
L 884.803125 0 
L 0 0 
z
" style="fill:none;"/>
  </g>
  <g id="axes_1">
   <g id="patch_2">
    <path d="M 40.603125 252 
L 877.603125 252 
L 877.603125 7.2 
L 40.603125 7.2 
z
" style="fill:#ffffff;"/>
   </g>
   <g id="PolyCollection_1">
    <path clip-path="url(#pf72dda75c6)" d="M 78.64858 216.595041 
L 78.64858 228.733884 
L 78.64858 216.595041 
L 78.64858 216.595041 
z
" style="fill:#1f77b4;fill-opacity:0.2;stroke:#1f77b4;stroke-opacity:0.2;"/>
    <path clip-path="url(#pf72dda75c6)" d="M 82.984244 143.761983 
L 82.984244 163.993388 
L 82.984244 143.761983 
L 82.984244 143.761983 
z
" style="fill:#1f77b4;fill-opacity:0.2;stroke:#1f77b4;stroke-opacity:0.2;"/>
    <path clip-path="url(#pf72dda75c6)" d="M 87.319908 91.160331 
L 87.319908 119.484298 
L 89.48774 236.826446 
L 91.655573 232.780165 
L 93.823405 87.11405 
L 95.991237 216.595041 
L 98.159069 228.733884 
L 100.326901 216.595041 
L 102.494733 174.918347 
L 104.662566 176.132231 
L 106.830398 139.715702 
L 108.99823 166.690909 
L 111.166062 220.641322 
L 113.333894 203.107438 
L 113.333894 139.715702 
L 113.333894 139.715702 
L 111.166062 188.271074 
L 108.99823 151.854545 
L 106.830398 70.928926 
L 104.662566 159.947107 
L 102.494733 29.97719 
L 100.326901 95.206612 
L 98.159069 86.709421 
L 95.991237 103.299174 
L 93.823405 34.512397 
L 91.655573 18.327273 
L 89.48774 228.733884 
L 87.319908 91.160331 
z
" style="fill:#1f77b4;fill-opacity:0.2;stroke:#1f77b4;stroke-opacity:0.2;"/>
    <path clip-path="url(#pf72dda75c6)" d="M 122.005223 99.252893 
L 122.005223 236.826446 
L 124.173055 232.780165 
L 124.173055 60.138843 
L 124.173055 60.138843 
L 122.005223 99.252893 
z
" style="fill:#1f77b4;fill-opacity:0.2;stroke:#1f77b4;stroke-opacity:0.2;"/>
    <path clip-path="url(#pf72dda75c6)" d="M 135.012216 151.854545 
L 135.012216 159.947107 
L 137.180048 228.733884 
L 139.34788 230.858182 
L 141.515712 228.733884 
L 141.515712 135.669421 
L 141.515712 135.669421 
L 139.34788 217.943802 
L 137.180048 103.299174 
L 135.012216 151.854545 
z
" style="fill:#1f77b4;fill-opacity:0.2;stroke:#1f77b4;stroke-opacity:0.2;"/>
    <path clip-path="url(#pf72dda75c6)" d="M 145.851377 95.206612 
L 145.851377 208.502479 
L 145.851377 95.206612 
L 145.851377 95.206612 
z
" style="fill:#1f77b4;fill-opacity:0.2;stroke:#1f77b4;stroke-opacity:0.2;"/>
    <path clip-path="url(#pf72dda75c6)" d="M 156.690538 109.368595 
L 156.690538 236.826446 
L 158.85837 232.780165 
L 158.85837 70.153388 
L 158.85837 70.153388 
L 156.690538 109.368595 
z
" style="fill:#1f77b4;fill-opacity:0.2;stroke:#1f77b4;stroke-opacity:0.2;"/>
    <path clip-path="url(#pf72dda75c6)" d="M 163.194034 168.039669 
L 163.194034 216.595041 
L 165.361866 226.17124 
L 165.361866 190.968595 
L 165.361866 190.968595 
L 163.194034 168.039669 
z
" style="fill:#1f77b4;fill-opacity:0.2;stroke:#1f77b4;stroke-opacity:0.2;"/>
    <path clip-path="url(#pf72dda75c6)" d="M 169.697531 189.76314 
L 169.697531 220.641322 
L 171.865363 204.456198 
L 171.865363 172.08595 
L 171.865363 172.08595 
L 169.697531 189.76314 
z
" style="fill:#1f77b4;fill-opacity:0.2;stroke:#1f77b4;stroke-opacity:0.2;"/>
    <path clip-path="url(#pf72dda75c6)" d="M 176.201027 79.021488 
L 176.201027 220.641322 
L 178.368859 215.401388 
L 178.368859 184.568727 
L 178.368859 184.568727 
L 176.201027 79.021488 
z
" style="fill:#1f77b4;fill-opacity:0.2;stroke:#1f77b4;stroke-opacity:0.2;"/>
    <path clip-path="url(#pf72dda75c6)" d="M 182.704524 114.409587 
L 182.704524 208.182149 
L 184.872356 236.826446 
L 187.040188 232.780165 
L 191.375852 228.253388 
L 193.543684 62.836364 
L 195.711517 228.733884 
L 197.879349 207.158536 
L 200.047181 216.595041 
L 202.215013 196.363636 
L 202.215013 44.577521 
L 202.215013 44.577521 
L 200.047181 159.947107 
L 197.879349 107.591122 
L 195.711517 163.993388 
L 193.543684 46.65124 
L 191.375852 212.54876 
L 187.040188 172.08595 
L 184.872356 168.71405 
L 182.704524 114.409587 
z
" style="fill:#1f77b4;fill-opacity:0.2;stroke:#1f77b4;stroke-opacity:0.2;"/>
    <path clip-path="url(#pf72dda75c6)" d="M 206.550677 144.773554 
L 206.550677 222.76562 
L 208.71851 229.264959 
L 210.886342 209.352198 
L 213.054174 210.019835 
L 215.222006 218.358064 
L 215.222006 144.614593 
L 215.222006 144.614593 
L 213.054174 130.915041 
L 210.886342 123.753124 
L 208.71851 135.669421 
L 206.550677 144.773554 
z
" style="fill:#1f77b4;fill-opacity:0.2;stroke:#1f77b4;stroke-opacity:0.2;"/>
    <path clip-path="url(#pf72dda75c6)" d="M 219.55767 182.201653 
L 219.55767 230.807603 
L 221.725503 224.687603 
L 223.893335 224.687603 
L 226.061167 216.349374 
L 228.228999 222.917355 
L 230.396831 236.826446 
L 232.564663 216.595041 
L 234.732496 226.17124 
L 236.900328 216.595041 
L 239.06816 212.54876 
L 241.235992 214.207736 
L 243.403824 200.700744 
L 245.571656 232.780165 
L 247.739489 234.398678 
L 249.907321 218.909008 
L 252.075153 219.02281 
L 254.242985 207.116628 
L 256.410817 219.36 
L 258.578649 199.256727 
L 260.746482 191.528331 
L 262.914314 197.712397 
L 265.082146 207.110083 
L 267.249978 229.059835 
L 269.41781 211.672066 
L 271.585642 168.140826 
L 273.753475 199.343878 
L 275.921307 216.679339 
L 278.089139 223.301752 
L 280.256971 194.156574 
L 282.424803 219.646612 
L 284.592635 216.758449 
L 286.760468 212.54876 
L 288.9283 206.01246 
L 291.096132 211.120661 
L 293.263964 214.145596 
L 295.431796 185.514545 
L 297.599628 210.365455 
L 299.767461 204.05157 
L 301.935293 209.932165 
L 304.103125 200.526248 
L 306.270957 178.41124 
L 308.438789 194.133584 
L 310.606622 201.853704 
L 312.774454 181.750337 
L 314.942286 196.877851 
L 317.110118 210.69599 
L 319.27795 191.890737 
L 321.445782 201.623802 
L 323.613615 197.303554 
L 325.781447 203.461488 
L 327.949279 181.326645 
L 330.117111 190.308666 
L 332.284943 171.135074 
L 334.452775 190.573269 
L 336.620608 206.753306 
L 338.78844 200.745575 
L 340.956272 195.211326 
L 343.124104 177.61924 
L 345.291936 199.29719 
L 347.459768 194.123196 
L 349.627601 196.020582 
L 351.795433 193.134704 
L 353.963265 188.355372 
L 356.131097 192.378929 
L 358.298929 180.880992 
L 360.466761 195.627438 
L 362.634594 199.890938 
L 364.802426 208.050248 
L 366.970258 197.969504 
L 369.13809 202.45065 
L 371.305922 200.374023 
L 373.473754 198.73284 
L 375.641587 197.90858 
L 377.809419 202.71686 
L 379.977251 200.745575 
L 382.145083 188.807985 
L 384.312915 188.278856 
L 386.480747 201.033719 
L 388.64858 185.381777 
L 390.816412 206.128661 
L 392.984244 204.872965 
L 395.152076 210.714739 
L 397.319908 212.31003 
L 399.48774 193.922074 
L 401.655573 212.279008 
L 403.823405 186.512247 
L 405.991237 209.526694 
L 408.159069 215.689686 
L 410.326901 201.698338 
L 412.494733 172.972279 
L 414.662566 193.249759 
L 416.830398 207.515187 
L 418.99823 201.258512 
L 421.166062 193.931653 
L 423.333894 213.848239 
L 425.501726 197.824344 
L 427.669559 193.198867 
L 429.837391 208.163306 
L 432.005223 199.270801 
L 434.173055 200.069662 
L 436.340887 186.426446 
L 438.508719 213.645925 
L 440.676552 209.141366 
L 442.844384 200.693157 
L 445.012216 225.177826 
L 447.180048 215.240661 
L 449.34788 211.502005 
L 451.515712 199.876033 
L 453.683545 212.665091 
L 455.851377 202.345695 
L 458.019209 220.448642 
L 460.187041 198.412066 
L 462.354873 202.983802 
L 464.522705 217.943802 
L 466.690538 197.875372 
L 468.85837 197.552231 
L 471.026202 190.370083 
L 473.194034 201.168595 
L 475.361866 207.243074 
L 477.529698 188.945455 
L 479.697531 203.532298 
L 481.865363 212.042975 
L 484.033195 193.053043 
L 486.201027 209.661187 
L 488.368859 204.506777 
L 490.536691 198.589091 
L 492.704524 212.660565 
L 494.872356 205.409965 
L 497.040188 217.44476 
L 499.20802 190.138589 
L 501.375852 197.280372 
L 503.543684 203.233118 
L 505.711517 208.856529 
L 507.879349 187.910702 
L 510.047181 204.135868 
L 512.215013 203.773388 
L 514.382845 198.723967 
L 516.550677 199.836694 
L 518.71851 214.273488 
L 520.886342 209.564628 
L 523.054174 207.769091 
L 525.222006 210.606545 
L 527.389838 219.629752 
L 529.55767 203.777851 
L 531.725503 210.86281 
L 533.893335 191.912727 
L 536.061167 180.178512 
L 538.228999 198.728182 
L 540.396831 196.512397 
L 542.564663 221.04595 
L 544.732496 182.108277 
L 546.900328 203.892609 
L 549.06816 204.709091 
L 551.235992 204.48 
L 553.403824 216.493884 
L 555.571656 205.882512 
L 557.739489 206.977343 
L 559.907321 214.647769 
L 562.075153 202.447509 
L 564.242985 208.288926 
L 566.410817 193.757355 
L 568.578649 218.625963 
L 570.746482 205.818446 
L 572.914314 194.161526 
L 575.082146 222.404345 
L 577.249978 196.003264 
L 579.41781 215.631641 
L 581.585642 201.032422 
L 583.753475 211.008061 
L 585.921307 192.09124 
L 588.089139 191.676694 
L 590.256971 211.562479 
L 592.424803 199.342711 
L 594.592635 205.048689 
L 596.760468 197.302952 
L 598.9283 188.396033 
L 601.096132 225.984252 
L 603.263964 202.709554 
L 605.431796 199.99686 
L 607.599628 203.46486 
L 609.767461 205.421081 
L 611.935293 205.203204 
L 614.103125 208.622904 
L 616.270957 187.40562 
L 618.438789 189.304321 
L 620.606622 202.680331 
L 622.774454 209.152014 
L 624.942286 198.026405 
L 627.110118 200.207603 
L 629.27795 203.740874 
L 631.445782 207.841587 
L 633.613615 211.284298 
L 635.781447 174.181346 
L 637.949279 206.769016 
L 640.117111 178.707137 
L 642.284943 214.678382 
L 644.452775 191.579752 
L 646.620608 186.474333 
L 648.78844 195.866281 
L 650.956272 203.528926 
L 653.124104 200.690398 
L 655.291936 194.164802 
L 657.459768 212.118843 
L 659.627601 197.160248 
L 661.795433 201.207934 
L 663.963265 210.687471 
L 666.131097 193.000165 
L 668.298929 200.218843 
L 670.466761 190.960932 
L 672.634594 198.509925 
L 674.802426 189.824132 
L 676.970258 181.961405 
L 679.13809 196.874479 
L 681.305922 212.231802 
L 683.473754 206.259174 
L 685.641587 198.146529 
L 687.809419 217.992273 
L 689.977251 213.813223 
L 692.145083 199.29719 
L 694.312915 197.10714 
L 696.480747 208.897473 
L 698.64858 189.687273 
L 700.816412 210.93657 
L 702.984244 197.685903 
L 705.152076 195.55438 
L 707.319908 194.110083 
L 709.48774 200.409917 
L 711.655573 218.273058 
L 713.823405 208.502479 
L 715.991237 210.943736 
L 718.159069 205.680198 
L 720.326901 218.643471 
L 722.494733 214.60562 
L 724.662566 210.545851 
L 726.830398 210.099315 
L 728.99823 198.398017 
L 731.166062 216.114545 
L 733.333894 215.931901 
L 735.501726 212.453926 
L 737.669559 228.767603 
L 739.837391 209.716364 
L 742.005223 212.810083 
L 744.173055 215.956155 
L 746.340887 201.24085 
L 748.508719 222.327273 
L 750.676552 218.213554 
L 752.844384 203.257877 
L 755.012216 212.54876 
L 757.180048 207.763255 
L 759.34788 206.920094 
L 761.515712 216.613434 
L 763.683545 214.105022 
L 765.851377 212.245289 
L 768.019209 217.829157 
L 770.187041 207.905653 
L 772.354873 204.469686 
L 774.522705 211.694545 
L 776.690538 213.567556 
L 778.85837 220.852066 
L 781.026202 202.938843 
L 783.194034 211.410744 
L 785.361866 216.739551 
L 787.529698 223.898579 
L 789.697531 220.514876 
L 791.865363 207.578579 
L 794.033195 212.568992 
L 796.201027 210.53686 
L 798.368859 214.727527 
L 800.536691 222.375443 
L 802.704524 218.244679 
L 804.872356 216.921856 
L 807.040188 222.344132 
L 809.20802 227.94486 
L 811.375852 227.756033 
L 813.543684 216.606281 
L 815.711517 217.616727 
L 817.879349 227.998197 
L 820.047181 222.664463 
L 822.215013 227.135603 
L 824.382845 233.274711 
L 826.550677 228.750744 
L 828.71851 235.574628 
L 830.886342 236.01719 
L 833.054174 240.063471 
L 835.222006 235.973837 
L 839.55767 240.872727 
L 839.55767 236.826446 
L 839.55767 236.826446 
L 835.222006 229.311924 
L 833.054174 232.355306 
L 830.886342 227.074909 
L 828.71851 226.950992 
L 826.550677 220.110248 
L 824.382845 221.990083 
L 822.215013 214.764099 
L 820.047181 212.336331 
L 817.879349 213.266056 
L 815.711517 205.670083 
L 813.543684 208.83405 
L 811.375852 212.531901 
L 809.20802 208.907107 
L 807.040188 202.753388 
L 804.872356 195.429879 
L 802.704524 195.103064 
L 800.536691 185.958914 
L 798.368859 197.297394 
L 796.201027 191.963306 
L 794.033195 185.630876 
L 791.865363 185.701686 
L 789.697531 194.340496 
L 787.529698 192.297124 
L 785.361866 165.727509 
L 783.194034 176.772893 
L 781.026202 172.749091 
L 778.85837 185.877025 
L 776.690538 185.229138 
L 774.522705 171.591405 
L 772.354873 182.565818 
L 770.187041 176.708826 
L 768.019209 164.215934 
L 765.851377 167.407438 
L 763.683545 186.683687 
L 761.515712 175.093073 
L 759.34788 174.809965 
L 757.180048 167.712854 
L 755.012216 172.726612 
L 752.844384 165.814215 
L 750.676552 181.756562 
L 748.508719 190.968595 
L 746.340887 172.057048 
L 744.173055 194.324524 
L 742.005223 166.446446 
L 739.837391 174.09464 
L 737.669559 207.828099 
L 735.501726 167.401116 
L 733.333894 156.687603 
L 731.166062 187.507339 
L 728.99823 162.93686 
L 726.830398 172.165431 
L 724.662566 141.718612 
L 722.494733 161.91405 
L 720.326901 153.877686 
L 718.159069 163.335868 
L 715.991237 165.160066 
L 713.823405 142.089521 
L 711.655573 193.584793 
L 709.48774 166.415833 
L 707.319908 145.90876 
L 705.152076 146.500449 
L 702.984244 150.322739 
L 700.816412 168.798347 
L 698.64858 115.421157 
L 696.480747 173.935679 
L 694.312915 157.296793 
L 692.145083 163.049256 
L 689.977251 169.05124 
L 687.809419 187.954959 
L 685.641587 162.644628 
L 683.473754 152.681653 
L 681.305922 146.520198 
L 679.13809 138.294446 
L 676.970258 132.053058 
L 674.802426 133.277355 
L 672.634594 159.762386 
L 670.466761 132.225485 
L 668.298929 145.386116 
L 666.131097 142.229455 
L 663.963265 185.418446 
L 661.795433 155.192727 
L 659.627601 148.927314 
L 657.459768 177.978347 
L 655.291936 161.00127 
L 653.124104 172.357235 
L 650.956272 153.595289 
L 648.78844 153.363471 
L 646.620608 144.320756 
L 644.452775 151.54686 
L 642.284943 163.306585 
L 640.117111 136.09704 
L 637.949279 173.442374 
L 635.781447 110.216387 
L 633.613615 186.508052 
L 631.445782 141.010512 
L 629.27795 113.523259 
L 627.110118 124.26758 
L 624.942286 139.772603 
L 622.774454 173.353075 
L 620.606622 181.752066 
L 618.438789 157.772231 
L 616.270957 147.656529 
L 614.103125 169.38843 
L 611.935293 143.100572 
L 609.767461 167.238195 
L 607.599628 172.971074 
L 605.431796 153.363471 
L 603.263964 151.389223 
L 601.096132 177.741548 
L 598.9283 142.684959 
L 596.760468 142.577001 
L 594.592635 147.129067 
L 592.424803 151.869719 
L 590.256971 176.745496 
L 588.089139 144.389157 
L 585.921307 118.93686 
L 583.753475 168.911176 
L 581.585642 143.598576 
L 579.41781 182.765242 
L 577.249978 145.22876 
L 575.082146 181.031122 
L 572.914314 54.712676 
L 570.746482 137.658843 
L 568.578649 176.793643 
L 566.410817 144.702149 
L 564.242985 161.936529 
L 562.075153 146.789469 
L 559.907321 171.289339 
L 557.739489 136.922212 
L 555.571656 180.542678 
L 553.403824 175.758729 
L 551.235992 168.503802 
L 549.06816 142.527868 
L 546.900328 159.080047 
L 544.732496 112.558932 
L 542.564663 196.343405 
L 540.396831 152.003306 
L 538.228999 72.180744 
L 536.061167 134.034937 
L 533.893335 136.534876 
L 531.725503 154.358182 
L 529.55767 164.659835 
L 527.389838 187.710113 
L 525.222006 152.036628 
L 523.054174 168.589711 
L 520.886342 153.682597 
L 518.71851 167.766545 
L 516.550677 117.933223 
L 514.382845 145.380496 
L 512.215013 169.386322 
L 510.047181 154.282314 
L 507.879349 113.724669 
L 505.711517 165.131405 
L 503.543684 132.653103 
L 501.375852 146.518512 
L 499.20802 107.399924 
L 497.040188 169.344595 
L 494.872356 162.671122 
L 492.704524 183.564611 
L 490.536691 160.38714 
L 488.368859 166.604504 
L 486.201027 174.449346 
L 484.033195 141.522735 
L 481.865363 197.615455 
L 479.697531 170.440463 
L 477.529698 128.986314 
L 475.361866 157.999835 
L 473.194034 123.018471 
L 471.026202 145.203471 
L 468.85837 129.532562 
L 466.690538 163.403306 
L 464.522705 177.2 
L 462.354873 154.278567 
L 460.187041 149.698636 
L 458.019209 185.665077 
L 455.851377 150.953328 
L 453.683545 179.136595 
L 451.515712 166.207603 
L 449.34788 157.800819 
L 447.180048 177.233719 
L 445.012216 126.775385 
L 442.844384 166.387438 
L 440.676552 158.211466 
L 438.508719 182.512905 
L 436.340887 104.11438 
L 434.173055 125.264042 
L 432.005223 169.504247 
L 429.837391 131.260165 
L 427.669559 142.33856 
L 425.501726 124.971055 
L 423.333894 185.135207 
L 421.166062 144.314132 
L 418.99823 163.498843 
L 416.830398 163.641362 
L 414.662566 143.577262 
L 412.494733 105.471641 
L 410.326901 159.62234 
L 408.159069 176.015901 
L 405.991237 167.192479 
L 403.823405 124.039627 
L 401.655573 158.004893 
L 399.48774 145.660977 
L 397.319908 183.006863 
L 395.152076 156.820036 
L 392.984244 143.098393 
L 390.816412 164.762182 
L 388.64858 124.40938 
L 386.480747 149.786446 
L 384.312915 149.987031 
L 382.145083 144.524552 
L 379.977251 149.316424 
L 377.809419 164.878512 
L 375.641587 159.980826 
L 373.473754 109.869056 
L 371.305922 126.154135 
L 369.13809 147.746691 
L 366.970258 148.62595 
L 364.802426 174.876694 
L 362.634594 129.855092 
L 360.466761 154.06876 
L 358.298929 90.924298 
L 356.131097 141.079123 
L 353.963265 131.926612 
L 351.795433 156.192159 
L 349.627601 140.648106 
L 347.459768 154.244848 
L 345.291936 93.711736 
L 343.124104 70.716496 
L 340.956272 155.724901 
L 338.78844 175.939113 
L 336.620608 161.456033 
L 334.452775 147.553628 
L 332.284943 104.973322 
L 330.117111 143.183943 
L 327.949279 112.094777 
L 325.781447 179.75281 
L 323.613615 168.271488 
L 321.445782 119.722314 
L 319.27795 147.04299 
L 317.110118 149.826081 
L 314.942286 161.919669 
L 312.774454 26.684399 
L 310.606622 111.180225 
L 308.438789 155.592757 
L 306.270957 92.981157 
L 304.103125 158.141455 
L 301.935293 57.623405 
L 299.767461 153.681694 
L 297.599628 175.230248 
L 295.431796 105.46562 
L 293.263964 158.350272 
L 291.096132 177.072397 
L 288.9283 168.008544 
L 286.760468 168.806777 
L 284.592635 191.531443 
L 282.424803 174.092231 
L 280.256971 112.01707 
L 278.089139 196.515372 
L 275.921307 55.460331 
L 273.753475 154.873694 
L 271.585642 22.537934 
L 269.41781 150 
L 267.249978 166.218843 
L 265.082146 168.265785 
L 262.914314 184.224793 
L 260.746482 130.884694 
L 258.578649 127.495934 
L 256.410817 166.342479 
L 254.242985 115.205355 
L 252.075153 159.947107 
L 249.907321 60.560331 
L 247.739489 214.976529 
L 245.571656 196.363636 
L 243.403824 157.65843 
L 241.235992 122.721322 
L 239.06816 182.201653 
L 236.900328 168.039669 
L 234.732496 161.160992 
L 232.564663 208.502479 
L 230.396831 188.271074 
L 228.228999 100.289752 
L 226.061167 119.758867 
L 223.893335 123.530579 
L 221.725503 147.808264 
L 219.55767 182.201653 
z
" style="fill:#1f77b4;fill-opacity:0.2;stroke:#1f77b4;stroke-opacity:0.2;"/>
   </g>
   <g id="matplotlib.axis_1">
    <g id="xtick_1">
     <g id="line2d_1">
      <defs>
       <path d="M 0 0 
L 0 3.5 
" id="m483fd7d093" style="stroke:#000000;stroke-width:0.8;"/>
      </defs>
      <g>
       <use style="stroke:#000000;stroke-width:0.8;" x="41.795433" xlink:href="#m483fd7d093" y="252"/>
      </g>
     </g>
     <g id="text_1">
      <!-- Mar 2020 -->
      <g transform="translate(44.554808 306.495312)rotate(-90)scale(0.1 -0.1)">
       <defs>
        <path d="M 628 4666 
L 1569 4666 
L 2759 1491 
L 3956 4666 
L 4897 4666 
L 4897 0 
L 4281 0 
L 4281 4097 
L 3078 897 
L 2444 897 
L 1241 4097 
L 1241 0 
L 628 0 
L 628 4666 
z
" id="DejaVuSans-4d" transform="scale(0.015625)"/>
        <path d="M 2194 1759 
Q 1497 1759 1228 1600 
Q 959 1441 959 1056 
Q 959 750 1161 570 
Q 1363 391 1709 391 
Q 2188 391 2477 730 
Q 2766 1069 2766 1631 
L 2766 1759 
L 2194 1759 
z
M 3341 1997 
L 3341 0 
L 2766 0 
L 2766 531 
Q 2569 213 2275 61 
Q 1981 -91 1556 -91 
Q 1019 -91 701 211 
Q 384 513 384 1019 
Q 384 1609 779 1909 
Q 1175 2209 1959 2209 
L 2766 2209 
L 2766 2266 
Q 2766 2663 2505 2880 
Q 2244 3097 1772 3097 
Q 1472 3097 1187 3025 
Q 903 2953 641 2809 
L 641 3341 
Q 956 3463 1253 3523 
Q 1550 3584 1831 3584 
Q 2591 3584 2966 3190 
Q 3341 2797 3341 1997 
z
" id="DejaVuSans-61" transform="scale(0.015625)"/>
        <path d="M 2631 2963 
Q 2534 3019 2420 3045 
Q 2306 3072 2169 3072 
Q 1681 3072 1420 2755 
Q 1159 2438 1159 1844 
L 1159 0 
L 581 0 
L 581 3500 
L 1159 3500 
L 1159 2956 
Q 1341 3275 1631 3429 
Q 1922 3584 2338 3584 
Q 2397 3584 2469 3576 
Q 2541 3569 2628 3553 
L 2631 2963 
z
" id="DejaVuSans-72" transform="scale(0.015625)"/>
        <path id="DejaVuSans-20" transform="scale(0.015625)"/>
        <path d="M 1228 531 
L 3431 531 
L 3431 0 
L 469 0 
L 469 531 
Q 828 903 1448 1529 
Q 2069 2156 2228 2338 
Q 2531 2678 2651 2914 
Q 2772 3150 2772 3378 
Q 2772 3750 2511 3984 
Q 2250 4219 1831 4219 
Q 1534 4219 1204 4116 
Q 875 4013 500 3803 
L 500 4441 
Q 881 4594 1212 4672 
Q 1544 4750 1819 4750 
Q 2544 4750 2975 4387 
Q 3406 4025 3406 3419 
Q 3406 3131 3298 2873 
Q 3191 2616 2906 2266 
Q 2828 2175 2409 1742 
Q 1991 1309 1228 531 
z
" id="DejaVuSans-32" transform="scale(0.015625)"/>
        <path d="M 2034 4250 
Q 1547 4250 1301 3770 
Q 1056 3291 1056 2328 
Q 1056 1369 1301 889 
Q 1547 409 2034 409 
Q 2525 409 2770 889 
Q 3016 1369 3016 2328 
Q 3016 3291 2770 3770 
Q 2525 4250 2034 4250 
z
M 2034 4750 
Q 2819 4750 3233 4129 
Q 3647 3509 3647 2328 
Q 3647 1150 3233 529 
Q 2819 -91 2034 -91 
Q 1250 -91 836 529 
Q 422 1150 422 2328 
Q 422 3509 836 4129 
Q 1250 4750 2034 4750 
z
" id="DejaVuSans-30" transform="scale(0.015625)"/>
       </defs>
       <use xlink:href="#DejaVuSans-4d"/>
       <use x="86.279297" xlink:href="#DejaVuSans-61"/>
       <use x="147.558594" xlink:href="#DejaVuSans-72"/>
       <use x="188.671875" xlink:href="#DejaVuSans-20"/>
       <use x="220.458984" xlink:href="#DejaVuSans-32"/>
       <use x="284.082031" xlink:href="#DejaVuSans-30"/>
       <use x="347.705078" xlink:href="#DejaVuSans-32"/>
       <use x="411.328125" xlink:href="#DejaVuSans-30"/>
      </g>
     </g>
    </g>
    <g id="xtick_2">
     <g id="line2d_2">
      <g>
       <use style="stroke:#000000;stroke-width:0.8;" x="108.99823" xlink:href="#m483fd7d093" y="252"/>
      </g>
     </g>
     <g id="text_2">
      <!-- Apr 2020 -->
      <g transform="translate(111.757605 304.928125)rotate(-90)scale(0.1 -0.1)">
       <defs>
        <path d="M 2188 4044 
L 1331 1722 
L 3047 1722 
L 2188 4044 
z
M 1831 4666 
L 2547 4666 
L 4325 0 
L 3669 0 
L 3244 1197 
L 1141 1197 
L 716 0 
L 50 0 
L 1831 4666 
z
" id="DejaVuSans-41" transform="scale(0.015625)"/>
        <path d="M 1159 525 
L 1159 -1331 
L 581 -1331 
L 581 3500 
L 1159 3500 
L 1159 2969 
Q 1341 3281 1617 3432 
Q 1894 3584 2278 3584 
Q 2916 3584 3314 3078 
Q 3713 2572 3713 1747 
Q 3713 922 3314 415 
Q 2916 -91 2278 -91 
Q 1894 -91 1617 61 
Q 1341 213 1159 525 
z
M 3116 1747 
Q 3116 2381 2855 2742 
Q 2594 3103 2138 3103 
Q 1681 3103 1420 2742 
Q 1159 2381 1159 1747 
Q 1159 1113 1420 752 
Q 1681 391 2138 391 
Q 2594 391 2855 752 
Q 3116 1113 3116 1747 
z
" id="DejaVuSans-70" transform="scale(0.015625)"/>
       </defs>
       <use xlink:href="#DejaVuSans-41"/>
       <use x="68.408203" xlink:href="#DejaVuSans-70"/>
       <use x="131.884766" xlink:href="#DejaVuSans-72"/>
       <use x="172.998047" xlink:href="#DejaVuSans-20"/>
       <use x="204.785156" xlink:href="#DejaVuSans-32"/>
       <use x="268.408203" xlink:href="#DejaVuSans-30"/>
       <use x="332.03125" xlink:href="#DejaVuSans-32"/>
       <use x="395.654297" xlink:href="#DejaVuSans-30"/>
      </g>
     </g>
    </g>
    <g id="xtick_3">
     <g id="line2d_3">
      <g>
       <use style="stroke:#000000;stroke-width:0.8;" x="174.033195" xlink:href="#m483fd7d093" y="252"/>
      </g>
     </g>
     <g id="text_3">
      <!-- May 2020 -->
      <g transform="translate(176.79257 308.303125)rotate(-90)scale(0.1 -0.1)">
       <defs>
        <path d="M 2059 -325 
Q 1816 -950 1584 -1140 
Q 1353 -1331 966 -1331 
L 506 -1331 
L 506 -850 
L 844 -850 
Q 1081 -850 1212 -737 
Q 1344 -625 1503 -206 
L 1606 56 
L 191 3500 
L 800 3500 
L 1894 763 
L 2988 3500 
L 3597 3500 
L 2059 -325 
z
" id="DejaVuSans-79" transform="scale(0.015625)"/>
       </defs>
       <use xlink:href="#DejaVuSans-4d"/>
       <use x="86.279297" xlink:href="#DejaVuSans-61"/>
       <use x="147.558594" xlink:href="#DejaVuSans-79"/>
       <use x="206.738281" xlink:href="#DejaVuSans-20"/>
       <use x="238.525391" xlink:href="#DejaVuSans-32"/>
       <use x="302.148438" xlink:href="#DejaVuSans-30"/>
       <use x="365.771484" xlink:href="#DejaVuSans-32"/>
       <use x="429.394531" xlink:href="#DejaVuSans-30"/>
      </g>
     </g>
    </g>
    <g id="xtick_4">
     <g id="line2d_4">
      <g>
       <use style="stroke:#000000;stroke-width:0.8;" x="241.235992" xlink:href="#m483fd7d093" y="252"/>
      </g>
     </g>
     <g id="text_4">
      <!-- Jun 2020 -->
      <g transform="translate(243.995367 303.253125)rotate(-90)scale(0.1 -0.1)">
       <defs>
        <path d="M 628 4666 
L 1259 4666 
L 1259 325 
Q 1259 -519 939 -900 
Q 619 -1281 -91 -1281 
L -331 -1281 
L -331 -750 
L -134 -750 
Q 284 -750 456 -515 
Q 628 -281 628 325 
L 628 4666 
z
" id="DejaVuSans-4a" transform="scale(0.015625)"/>
        <path d="M 544 1381 
L 544 3500 
L 1119 3500 
L 1119 1403 
Q 1119 906 1312 657 
Q 1506 409 1894 409 
Q 2359 409 2629 706 
Q 2900 1003 2900 1516 
L 2900 3500 
L 3475 3500 
L 3475 0 
L 2900 0 
L 2900 538 
Q 2691 219 2414 64 
Q 2138 -91 1772 -91 
Q 1169 -91 856 284 
Q 544 659 544 1381 
z
M 1991 3584 
L 1991 3584 
z
" id="DejaVuSans-75" transform="scale(0.015625)"/>
        <path d="M 3513 2113 
L 3513 0 
L 2938 0 
L 2938 2094 
Q 2938 2591 2744 2837 
Q 2550 3084 2163 3084 
Q 1697 3084 1428 2787 
Q 1159 2491 1159 1978 
L 1159 0 
L 581 0 
L 581 3500 
L 1159 3500 
L 1159 2956 
Q 1366 3272 1645 3428 
Q 1925 3584 2291 3584 
Q 2894 3584 3203 3211 
Q 3513 2838 3513 2113 
z
" id="DejaVuSans-6e" transform="scale(0.015625)"/>
       </defs>
       <use xlink:href="#DejaVuSans-4a"/>
       <use x="29.492188" xlink:href="#DejaVuSans-75"/>
       <use x="92.871094" xlink:href="#DejaVuSans-6e"/>
       <use x="156.25" xlink:href="#DejaVuSans-20"/>
       <use x="188.037109" xlink:href="#DejaVuSans-32"/>
       <use x="251.660156" xlink:href="#DejaVuSans-30"/>
       <use x="315.283203" xlink:href="#DejaVuSans-32"/>
       <use x="378.90625" xlink:href="#DejaVuSans-30"/>
      </g>
     </g>
    </g>
    <g id="xtick_5">
     <g id="line2d_5">
      <g>
       <use style="stroke:#000000;stroke-width:0.8;" x="306.270957" xlink:href="#m483fd7d093" y="252"/>
      </g>
     </g>
     <g id="text_5">
      <!-- Jul 2020 -->
      <g transform="translate(309.030332 299.69375)rotate(-90)scale(0.1 -0.1)">
       <defs>
        <path d="M 603 4863 
L 1178 4863 
L 1178 0 
L 603 0 
L 603 4863 
z
" id="DejaVuSans-6c" transform="scale(0.015625)"/>
       </defs>
       <use xlink:href="#DejaVuSans-4a"/>
       <use x="29.492188" xlink:href="#DejaVuSans-75"/>
       <use x="92.871094" xlink:href="#DejaVuSans-6c"/>
       <use x="120.654297" xlink:href="#DejaVuSans-20"/>
       <use x="152.441406" xlink:href="#DejaVuSans-32"/>
       <use x="216.064453" xlink:href="#DejaVuSans-30"/>
       <use x="279.6875" xlink:href="#DejaVuSans-32"/>
       <use x="343.310547" xlink:href="#DejaVuSans-30"/>
      </g>
     </g>
    </g>
    <g id="xtick_6">
     <g id="line2d_6">
      <g>
       <use style="stroke:#000000;stroke-width:0.8;" x="373.473754" xlink:href="#m483fd7d093" y="252"/>
      </g>
     </g>
     <g id="text_6">
      <!-- Aug 2020 -->
      <g transform="translate(376.233129 307.154687)rotate(-90)scale(0.1 -0.1)">
       <defs>
        <path d="M 2906 1791 
Q 2906 2416 2648 2759 
Q 2391 3103 1925 3103 
Q 1463 3103 1205 2759 
Q 947 2416 947 1791 
Q 947 1169 1205 825 
Q 1463 481 1925 481 
Q 2391 481 2648 825 
Q 2906 1169 2906 1791 
z
M 3481 434 
Q 3481 -459 3084 -895 
Q 2688 -1331 1869 -1331 
Q 1566 -1331 1297 -1286 
Q 1028 -1241 775 -1147 
L 775 -588 
Q 1028 -725 1275 -790 
Q 1522 -856 1778 -856 
Q 2344 -856 2625 -561 
Q 2906 -266 2906 331 
L 2906 616 
Q 2728 306 2450 153 
Q 2172 0 1784 0 
Q 1141 0 747 490 
Q 353 981 353 1791 
Q 353 2603 747 3093 
Q 1141 3584 1784 3584 
Q 2172 3584 2450 3431 
Q 2728 3278 2906 2969 
L 2906 3500 
L 3481 3500 
L 3481 434 
z
" id="DejaVuSans-67" transform="scale(0.015625)"/>
       </defs>
       <use xlink:href="#DejaVuSans-41"/>
       <use x="68.408203" xlink:href="#DejaVuSans-75"/>
       <use x="131.787109" xlink:href="#DejaVuSans-67"/>
       <use x="195.263672" xlink:href="#DejaVuSans-20"/>
       <use x="227.050781" xlink:href="#DejaVuSans-32"/>
       <use x="290.673828" xlink:href="#DejaVuSans-30"/>
       <use x="354.296875" xlink:href="#DejaVuSans-32"/>
       <use x="417.919922" xlink:href="#DejaVuSans-30"/>
      </g>
     </g>
    </g>
    <g id="xtick_7">
     <g id="line2d_7">
      <g>
       <use style="stroke:#000000;stroke-width:0.8;" x="440.676552" xlink:href="#m483fd7d093" y="252"/>
      </g>
     </g>
     <g id="text_7">
      <!-- Sep 2020 -->
      <g transform="translate(443.435927 306.478125)rotate(-90)scale(0.1 -0.1)">
       <defs>
        <path d="M 3425 4513 
L 3425 3897 
Q 3066 4069 2747 4153 
Q 2428 4238 2131 4238 
Q 1616 4238 1336 4038 
Q 1056 3838 1056 3469 
Q 1056 3159 1242 3001 
Q 1428 2844 1947 2747 
L 2328 2669 
Q 3034 2534 3370 2195 
Q 3706 1856 3706 1288 
Q 3706 609 3251 259 
Q 2797 -91 1919 -91 
Q 1588 -91 1214 -16 
Q 841 59 441 206 
L 441 856 
Q 825 641 1194 531 
Q 1563 422 1919 422 
Q 2459 422 2753 634 
Q 3047 847 3047 1241 
Q 3047 1584 2836 1778 
Q 2625 1972 2144 2069 
L 1759 2144 
Q 1053 2284 737 2584 
Q 422 2884 422 3419 
Q 422 4038 858 4394 
Q 1294 4750 2059 4750 
Q 2388 4750 2728 4690 
Q 3069 4631 3425 4513 
z
" id="DejaVuSans-53" transform="scale(0.015625)"/>
        <path d="M 3597 1894 
L 3597 1613 
L 953 1613 
Q 991 1019 1311 708 
Q 1631 397 2203 397 
Q 2534 397 2845 478 
Q 3156 559 3463 722 
L 3463 178 
Q 3153 47 2828 -22 
Q 2503 -91 2169 -91 
Q 1331 -91 842 396 
Q 353 884 353 1716 
Q 353 2575 817 3079 
Q 1281 3584 2069 3584 
Q 2775 3584 3186 3129 
Q 3597 2675 3597 1894 
z
M 3022 2063 
Q 3016 2534 2758 2815 
Q 2500 3097 2075 3097 
Q 1594 3097 1305 2825 
Q 1016 2553 972 2059 
L 3022 2063 
z
" id="DejaVuSans-65" transform="scale(0.015625)"/>
       </defs>
       <use xlink:href="#DejaVuSans-53"/>
       <use x="63.476562" xlink:href="#DejaVuSans-65"/>
       <use x="125" xlink:href="#DejaVuSans-70"/>
       <use x="188.476562" xlink:href="#DejaVuSans-20"/>
       <use x="220.263672" xlink:href="#DejaVuSans-32"/>
       <use x="283.886719" xlink:href="#DejaVuSans-30"/>
       <use x="347.509766" xlink:href="#DejaVuSans-32"/>
       <use x="411.132812" xlink:href="#DejaVuSans-30"/>
      </g>
     </g>
    </g>
    <g id="xtick_8">
     <g id="line2d_8">
      <g>
       <use style="stroke:#000000;stroke-width:0.8;" x="505.711517" xlink:href="#m483fd7d093" y="252"/>
      </g>
     </g>
     <g id="text_8">
      <!-- Oct 2020 -->
      <g transform="translate(508.470892 304.91875)rotate(-90)scale(0.1 -0.1)">
       <defs>
        <path d="M 2522 4238 
Q 1834 4238 1429 3725 
Q 1025 3213 1025 2328 
Q 1025 1447 1429 934 
Q 1834 422 2522 422 
Q 3209 422 3611 934 
Q 4013 1447 4013 2328 
Q 4013 3213 3611 3725 
Q 3209 4238 2522 4238 
z
M 2522 4750 
Q 3503 4750 4090 4092 
Q 4678 3434 4678 2328 
Q 4678 1225 4090 567 
Q 3503 -91 2522 -91 
Q 1538 -91 948 565 
Q 359 1222 359 2328 
Q 359 3434 948 4092 
Q 1538 4750 2522 4750 
z
" id="DejaVuSans-4f" transform="scale(0.015625)"/>
        <path d="M 3122 3366 
L 3122 2828 
Q 2878 2963 2633 3030 
Q 2388 3097 2138 3097 
Q 1578 3097 1268 2742 
Q 959 2388 959 1747 
Q 959 1106 1268 751 
Q 1578 397 2138 397 
Q 2388 397 2633 464 
Q 2878 531 3122 666 
L 3122 134 
Q 2881 22 2623 -34 
Q 2366 -91 2075 -91 
Q 1284 -91 818 406 
Q 353 903 353 1747 
Q 353 2603 823 3093 
Q 1294 3584 2113 3584 
Q 2378 3584 2631 3529 
Q 2884 3475 3122 3366 
z
" id="DejaVuSans-63" transform="scale(0.015625)"/>
        <path d="M 1172 4494 
L 1172 3500 
L 2356 3500 
L 2356 3053 
L 1172 3053 
L 1172 1153 
Q 1172 725 1289 603 
Q 1406 481 1766 481 
L 2356 481 
L 2356 0 
L 1766 0 
Q 1100 0 847 248 
Q 594 497 594 1153 
L 594 3053 
L 172 3053 
L 172 3500 
L 594 3500 
L 594 4494 
L 1172 4494 
z
" id="DejaVuSans-74" transform="scale(0.015625)"/>
       </defs>
       <use xlink:href="#DejaVuSans-4f"/>
       <use x="78.710938" xlink:href="#DejaVuSans-63"/>
       <use x="133.691406" xlink:href="#DejaVuSans-74"/>
       <use x="172.900391" xlink:href="#DejaVuSans-20"/>
       <use x="204.6875" xlink:href="#DejaVuSans-32"/>
       <use x="268.310547" xlink:href="#DejaVuSans-30"/>
       <use x="331.933594" xlink:href="#DejaVuSans-32"/>
       <use x="395.556641" xlink:href="#DejaVuSans-30"/>
      </g>
     </g>
    </g>
    <g id="xtick_9">
     <g id="line2d_9">
      <g>
       <use style="stroke:#000000;stroke-width:0.8;" x="572.914314" xlink:href="#m483fd7d093" y="252"/>
      </g>
     </g>
     <g id="text_9">
      <!-- Nov 2020 -->
      <g transform="translate(575.673689 307.146875)rotate(-90)scale(0.1 -0.1)">
       <defs>
        <path d="M 628 4666 
L 1478 4666 
L 3547 763 
L 3547 4666 
L 4159 4666 
L 4159 0 
L 3309 0 
L 1241 3903 
L 1241 0 
L 628 0 
L 628 4666 
z
" id="DejaVuSans-4e" transform="scale(0.015625)"/>
        <path d="M 1959 3097 
Q 1497 3097 1228 2736 
Q 959 2375 959 1747 
Q 959 1119 1226 758 
Q 1494 397 1959 397 
Q 2419 397 2687 759 
Q 2956 1122 2956 1747 
Q 2956 2369 2687 2733 
Q 2419 3097 1959 3097 
z
M 1959 3584 
Q 2709 3584 3137 3096 
Q 3566 2609 3566 1747 
Q 3566 888 3137 398 
Q 2709 -91 1959 -91 
Q 1206 -91 779 398 
Q 353 888 353 1747 
Q 353 2609 779 3096 
Q 1206 3584 1959 3584 
z
" id="DejaVuSans-6f" transform="scale(0.015625)"/>
        <path d="M 191 3500 
L 800 3500 
L 1894 563 
L 2988 3500 
L 3597 3500 
L 2284 0 
L 1503 0 
L 191 3500 
z
" id="DejaVuSans-76" transform="scale(0.015625)"/>
       </defs>
       <use xlink:href="#DejaVuSans-4e"/>
       <use x="74.804688" xlink:href="#DejaVuSans-6f"/>
       <use x="135.986328" xlink:href="#DejaVuSans-76"/>
       <use x="195.166016" xlink:href="#DejaVuSans-20"/>
       <use x="226.953125" xlink:href="#DejaVuSans-32"/>
       <use x="290.576172" xlink:href="#DejaVuSans-30"/>
       <use x="354.199219" xlink:href="#DejaVuSans-32"/>
       <use x="417.822266" xlink:href="#DejaVuSans-30"/>
      </g>
     </g>
    </g>
    <g id="xtick_10">
     <g id="line2d_10">
      <g>
       <use style="stroke:#000000;stroke-width:0.8;" x="637.949279" xlink:href="#m483fd7d093" y="252"/>
      </g>
     </g>
     <g id="text_10">
      <!-- Dec 2020 -->
      <g transform="translate(640.708654 306.979687)rotate(-90)scale(0.1 -0.1)">
       <defs>
        <path d="M 1259 4147 
L 1259 519 
L 2022 519 
Q 2988 519 3436 956 
Q 3884 1394 3884 2338 
Q 3884 3275 3436 3711 
Q 2988 4147 2022 4147 
L 1259 4147 
z
M 628 4666 
L 1925 4666 
Q 3281 4666 3915 4102 
Q 4550 3538 4550 2338 
Q 4550 1131 3912 565 
Q 3275 0 1925 0 
L 628 0 
L 628 4666 
z
" id="DejaVuSans-44" transform="scale(0.015625)"/>
       </defs>
       <use xlink:href="#DejaVuSans-44"/>
       <use x="77.001953" xlink:href="#DejaVuSans-65"/>
       <use x="138.525391" xlink:href="#DejaVuSans-63"/>
       <use x="193.505859" xlink:href="#DejaVuSans-20"/>
       <use x="225.292969" xlink:href="#DejaVuSans-32"/>
       <use x="288.916016" xlink:href="#DejaVuSans-30"/>
       <use x="352.539062" xlink:href="#DejaVuSans-32"/>
       <use x="416.162109" xlink:href="#DejaVuSans-30"/>
      </g>
     </g>
    </g>
    <g id="xtick_11">
     <g id="line2d_11">
      <g>
       <use style="stroke:#000000;stroke-width:0.8;" x="705.152076" xlink:href="#m483fd7d093" y="252"/>
      </g>
     </g>
     <g id="text_11">
      <!-- Jan 2021 -->
      <g transform="translate(707.911451 303.04375)rotate(-90)scale(0.1 -0.1)">
       <defs>
        <path d="M 794 531 
L 1825 531 
L 1825 4091 
L 703 3866 
L 703 4441 
L 1819 4666 
L 2450 4666 
L 2450 531 
L 3481 531 
L 3481 0 
L 794 0 
L 794 531 
z
" id="DejaVuSans-31" transform="scale(0.015625)"/>
       </defs>
       <use xlink:href="#DejaVuSans-4a"/>
       <use x="29.492188" xlink:href="#DejaVuSans-61"/>
       <use x="90.771484" xlink:href="#DejaVuSans-6e"/>
       <use x="154.150391" xlink:href="#DejaVuSans-20"/>
       <use x="185.9375" xlink:href="#DejaVuSans-32"/>
       <use x="249.560547" xlink:href="#DejaVuSans-30"/>
       <use x="313.183594" xlink:href="#DejaVuSans-32"/>
       <use x="376.806641" xlink:href="#DejaVuSans-31"/>
      </g>
     </g>
    </g>
    <g id="xtick_12">
     <g id="line2d_12">
      <g>
       <use style="stroke:#000000;stroke-width:0.8;" x="772.354873" xlink:href="#m483fd7d093" y="252"/>
      </g>
     </g>
     <g id="text_12">
      <!-- Feb 2021 -->
      <g transform="translate(775.114248 305.33125)rotate(-90)scale(0.1 -0.1)">
       <defs>
        <path d="M 628 4666 
L 3309 4666 
L 3309 4134 
L 1259 4134 
L 1259 2759 
L 3109 2759 
L 3109 2228 
L 1259 2228 
L 1259 0 
L 628 0 
L 628 4666 
z
" id="DejaVuSans-46" transform="scale(0.015625)"/>
        <path d="M 3116 1747 
Q 3116 2381 2855 2742 
Q 2594 3103 2138 3103 
Q 1681 3103 1420 2742 
Q 1159 2381 1159 1747 
Q 1159 1113 1420 752 
Q 1681 391 2138 391 
Q 2594 391 2855 752 
Q 3116 1113 3116 1747 
z
M 1159 2969 
Q 1341 3281 1617 3432 
Q 1894 3584 2278 3584 
Q 2916 3584 3314 3078 
Q 3713 2572 3713 1747 
Q 3713 922 3314 415 
Q 2916 -91 2278 -91 
Q 1894 -91 1617 61 
Q 1341 213 1159 525 
L 1159 0 
L 581 0 
L 581 4863 
L 1159 4863 
L 1159 2969 
z
" id="DejaVuSans-62" transform="scale(0.015625)"/>
       </defs>
       <use xlink:href="#DejaVuSans-46"/>
       <use x="52.019531" xlink:href="#DejaVuSans-65"/>
       <use x="113.542969" xlink:href="#DejaVuSans-62"/>
       <use x="177.019531" xlink:href="#DejaVuSans-20"/>
       <use x="208.806641" xlink:href="#DejaVuSans-32"/>
       <use x="272.429688" xlink:href="#DejaVuSans-30"/>
       <use x="336.052734" xlink:href="#DejaVuSans-32"/>
       <use x="399.675781" xlink:href="#DejaVuSans-31"/>
      </g>
     </g>
    </g>
    <g id="xtick_13">
     <g id="line2d_13">
      <g>
       <use style="stroke:#000000;stroke-width:0.8;" x="833.054174" xlink:href="#m483fd7d093" y="252"/>
      </g>
     </g>
     <g id="text_13">
      <!-- Mar 2021 -->
      <g transform="translate(835.813549 306.495312)rotate(-90)scale(0.1 -0.1)">
       <use xlink:href="#DejaVuSans-4d"/>
       <use x="86.279297" xlink:href="#DejaVuSans-61"/>
       <use x="147.558594" xlink:href="#DejaVuSans-72"/>
       <use x="188.671875" xlink:href="#DejaVuSans-20"/>
       <use x="220.458984" xlink:href="#DejaVuSans-32"/>
       <use x="284.082031" xlink:href="#DejaVuSans-30"/>
       <use x="347.705078" xlink:href="#DejaVuSans-32"/>
       <use x="411.328125" xlink:href="#DejaVuSans-31"/>
      </g>
     </g>
    </g>
    <g id="text_14">
     <!-- Start date -->
     <g transform="translate(434.025 319.901562)scale(0.1 -0.1)">
      <defs>
       <path d="M 2906 2969 
L 2906 4863 
L 3481 4863 
L 3481 0 
L 2906 0 
L 2906 525 
Q 2725 213 2448 61 
Q 2172 -91 1784 -91 
Q 1150 -91 751 415 
Q 353 922 353 1747 
Q 353 2572 751 3078 
Q 1150 3584 1784 3584 
Q 2172 3584 2448 3432 
Q 2725 3281 2906 2969 
z
M 947 1747 
Q 947 1113 1208 752 
Q 1469 391 1925 391 
Q 2381 391 2643 752 
Q 2906 1113 2906 1747 
Q 2906 2381 2643 2742 
Q 2381 3103 1925 3103 
Q 1469 3103 1208 2742 
Q 947 2381 947 1747 
z
" id="DejaVuSans-64" transform="scale(0.015625)"/>
      </defs>
      <use xlink:href="#DejaVuSans-53"/>
      <use x="63.476562" xlink:href="#DejaVuSans-74"/>
      <use x="102.685547" xlink:href="#DejaVuSans-61"/>
      <use x="163.964844" xlink:href="#DejaVuSans-72"/>
      <use x="205.078125" xlink:href="#DejaVuSans-74"/>
      <use x="244.287109" xlink:href="#DejaVuSans-20"/>
      <use x="276.074219" xlink:href="#DejaVuSans-64"/>
      <use x="339.550781" xlink:href="#DejaVuSans-61"/>
      <use x="400.830078" xlink:href="#DejaVuSans-74"/>
      <use x="440.039062" xlink:href="#DejaVuSans-65"/>
     </g>
    </g>
   </g>
   <g id="matplotlib.axis_2">
    <g id="ytick_1">
     <g id="line2d_14">
      <defs>
       <path d="M 0 0 
L -3.5 0 
" id="mc0b2973240" style="stroke:#000000;stroke-width:0.8;"/>
      </defs>
      <g>
       <use style="stroke:#000000;stroke-width:0.8;" x="40.603125" xlink:href="#mc0b2973240" y="240.872727"/>
      </g>
     </g>
     <g id="text_15">
      <!-- 0 -->
      <g transform="translate(27.240625 244.671946)scale(0.1 -0.1)">
       <use xlink:href="#DejaVuSans-30"/>
      </g>
     </g>
    </g>
    <g id="ytick_2">
     <g id="line2d_15">
      <g>
       <use style="stroke:#000000;stroke-width:0.8;" x="40.603125" xlink:href="#mc0b2973240" y="200.409917"/>
      </g>
     </g>
     <g id="text_16">
      <!-- 10 -->
      <g transform="translate(20.878125 204.209136)scale(0.1 -0.1)">
       <use xlink:href="#DejaVuSans-31"/>
       <use x="63.623047" xlink:href="#DejaVuSans-30"/>
      </g>
     </g>
    </g>
    <g id="ytick_3">
     <g id="line2d_16">
      <g>
       <use style="stroke:#000000;stroke-width:0.8;" x="40.603125" xlink:href="#mc0b2973240" y="159.947107"/>
      </g>
     </g>
     <g id="text_17">
      <!-- 20 -->
      <g transform="translate(20.878125 163.746326)scale(0.1 -0.1)">
       <use xlink:href="#DejaVuSans-32"/>
       <use x="63.623047" xlink:href="#DejaVuSans-30"/>
      </g>
     </g>
    </g>
    <g id="ytick_4">
     <g id="line2d_17">
      <g>
       <use style="stroke:#000000;stroke-width:0.8;" x="40.603125" xlink:href="#mc0b2973240" y="119.484298"/>
      </g>
     </g>
     <g id="text_18">
      <!-- 30 -->
      <g transform="translate(20.878125 123.283516)scale(0.1 -0.1)">
       <defs>
        <path d="M 2597 2516 
Q 3050 2419 3304 2112 
Q 3559 1806 3559 1356 
Q 3559 666 3084 287 
Q 2609 -91 1734 -91 
Q 1441 -91 1130 -33 
Q 819 25 488 141 
L 488 750 
Q 750 597 1062 519 
Q 1375 441 1716 441 
Q 2309 441 2620 675 
Q 2931 909 2931 1356 
Q 2931 1769 2642 2001 
Q 2353 2234 1838 2234 
L 1294 2234 
L 1294 2753 
L 1863 2753 
Q 2328 2753 2575 2939 
Q 2822 3125 2822 3475 
Q 2822 3834 2567 4026 
Q 2313 4219 1838 4219 
Q 1578 4219 1281 4162 
Q 984 4106 628 3988 
L 628 4550 
Q 988 4650 1302 4700 
Q 1616 4750 1894 4750 
Q 2613 4750 3031 4423 
Q 3450 4097 3450 3541 
Q 3450 3153 3228 2886 
Q 3006 2619 2597 2516 
z
" id="DejaVuSans-33" transform="scale(0.015625)"/>
       </defs>
       <use xlink:href="#DejaVuSans-33"/>
       <use x="63.623047" xlink:href="#DejaVuSans-30"/>
      </g>
     </g>
    </g>
    <g id="ytick_5">
     <g id="line2d_18">
      <g>
       <use style="stroke:#000000;stroke-width:0.8;" x="40.603125" xlink:href="#mc0b2973240" y="79.021488"/>
      </g>
     </g>
     <g id="text_19">
      <!-- 40 -->
      <g transform="translate(20.878125 82.820706)scale(0.1 -0.1)">
       <defs>
        <path d="M 2419 4116 
L 825 1625 
L 2419 1625 
L 2419 4116 
z
M 2253 4666 
L 3047 4666 
L 3047 1625 
L 3713 1625 
L 3713 1100 
L 3047 1100 
L 3047 0 
L 2419 0 
L 2419 1100 
L 313 1100 
L 313 1709 
L 2253 4666 
z
" id="DejaVuSans-34" transform="scale(0.015625)"/>
       </defs>
       <use xlink:href="#DejaVuSans-34"/>
       <use x="63.623047" xlink:href="#DejaVuSans-30"/>
      </g>
     </g>
    </g>
    <g id="ytick_6">
     <g id="line2d_19">
      <g>
       <use style="stroke:#000000;stroke-width:0.8;" x="40.603125" xlink:href="#mc0b2973240" y="38.558678"/>
      </g>
     </g>
     <g id="text_20">
      <!-- 50 -->
      <g transform="translate(20.878125 42.357896)scale(0.1 -0.1)">
       <defs>
        <path d="M 691 4666 
L 3169 4666 
L 3169 4134 
L 1269 4134 
L 1269 2991 
Q 1406 3038 1543 3061 
Q 1681 3084 1819 3084 
Q 2600 3084 3056 2656 
Q 3513 2228 3513 1497 
Q 3513 744 3044 326 
Q 2575 -91 1722 -91 
Q 1428 -91 1123 -41 
Q 819 9 494 109 
L 494 744 
Q 775 591 1075 516 
Q 1375 441 1709 441 
Q 2250 441 2565 725 
Q 2881 1009 2881 1497 
Q 2881 1984 2565 2268 
Q 2250 2553 1709 2553 
Q 1456 2553 1204 2497 
Q 953 2441 691 2322 
L 691 4666 
z
" id="DejaVuSans-35" transform="scale(0.015625)"/>
       </defs>
       <use xlink:href="#DejaVuSans-35"/>
       <use x="63.623047" xlink:href="#DejaVuSans-30"/>
      </g>
     </g>
    </g>
    <g id="text_21">
     <!-- Stay (in days) -->
     <g transform="translate(14.798438 164.197656)rotate(-90)scale(0.1 -0.1)">
      <defs>
       <path d="M 1984 4856 
Q 1566 4138 1362 3434 
Q 1159 2731 1159 2009 
Q 1159 1288 1364 580 
Q 1569 -128 1984 -844 
L 1484 -844 
Q 1016 -109 783 600 
Q 550 1309 550 2009 
Q 550 2706 781 3412 
Q 1013 4119 1484 4856 
L 1984 4856 
z
" id="DejaVuSans-28" transform="scale(0.015625)"/>
       <path d="M 603 3500 
L 1178 3500 
L 1178 0 
L 603 0 
L 603 3500 
z
M 603 4863 
L 1178 4863 
L 1178 4134 
L 603 4134 
L 603 4863 
z
" id="DejaVuSans-69" transform="scale(0.015625)"/>
       <path d="M 2834 3397 
L 2834 2853 
Q 2591 2978 2328 3040 
Q 2066 3103 1784 3103 
Q 1356 3103 1142 2972 
Q 928 2841 928 2578 
Q 928 2378 1081 2264 
Q 1234 2150 1697 2047 
L 1894 2003 
Q 2506 1872 2764 1633 
Q 3022 1394 3022 966 
Q 3022 478 2636 193 
Q 2250 -91 1575 -91 
Q 1294 -91 989 -36 
Q 684 19 347 128 
L 347 722 
Q 666 556 975 473 
Q 1284 391 1588 391 
Q 1994 391 2212 530 
Q 2431 669 2431 922 
Q 2431 1156 2273 1281 
Q 2116 1406 1581 1522 
L 1381 1569 
Q 847 1681 609 1914 
Q 372 2147 372 2553 
Q 372 3047 722 3315 
Q 1072 3584 1716 3584 
Q 2034 3584 2315 3537 
Q 2597 3491 2834 3397 
z
" id="DejaVuSans-73" transform="scale(0.015625)"/>
       <path d="M 513 4856 
L 1013 4856 
Q 1481 4119 1714 3412 
Q 1947 2706 1947 2009 
Q 1947 1309 1714 600 
Q 1481 -109 1013 -844 
L 513 -844 
Q 928 -128 1133 580 
Q 1338 1288 1338 2009 
Q 1338 2731 1133 3434 
Q 928 4138 513 4856 
z
" id="DejaVuSans-29" transform="scale(0.015625)"/>
      </defs>
      <use xlink:href="#DejaVuSans-53"/>
      <use x="63.476562" xlink:href="#DejaVuSans-74"/>
      <use x="102.685547" xlink:href="#DejaVuSans-61"/>
      <use x="163.964844" xlink:href="#DejaVuSans-79"/>
      <use x="223.144531" xlink:href="#DejaVuSans-20"/>
      <use x="254.931641" xlink:href="#DejaVuSans-28"/>
      <use x="293.945312" xlink:href="#DejaVuSans-69"/>
      <use x="321.728516" xlink:href="#DejaVuSans-6e"/>
      <use x="385.107422" xlink:href="#DejaVuSans-20"/>
      <use x="416.894531" xlink:href="#DejaVuSans-64"/>
      <use x="480.371094" xlink:href="#DejaVuSans-61"/>
      <use x="541.650391" xlink:href="#DejaVuSans-79"/>
      <use x="600.830078" xlink:href="#DejaVuSans-73"/>
      <use x="652.929688" xlink:href="#DejaVuSans-29"/>
     </g>
    </g>
   </g>
   <g id="line2d_20">
    <path clip-path="url(#pf72dda75c6)" d="M 78.64858 222.664463 
L 80.816412 180.178512 
L 82.984244 153.877686 
L 85.152076 196.363636 
L 87.319908 105.322314 
L 89.48774 232.780165 
L 91.655573 125.553719 
L 93.823405 60.813223 
L 95.991237 159.947107 
L 98.159069 145.110744 
L 100.326901 172.08595 
L 102.494733 102.624793 
L 104.662566 168.039669 
L 106.830398 105.322314 
L 108.99823 161.295868 
L 111.166062 200.409917 
L 113.333894 172.08595 
L 115.501726 176.132231 
L 117.669559 200.409917 
L 119.837391 176.132231 
L 122.005223 168.039669 
L 124.173055 143.761983 
L 126.340887 139.715702 
L 130.676552 200.409917 
L 135.012216 155.900826 
L 137.180048 166.016529 
L 139.34788 223.338843 
L 143.683545 143.761983 
L 145.851377 151.854545 
L 152.354873 74.975207 
L 154.522705 107.345455 
L 156.690538 189.282645 
L 158.85837 163.993388 
L 161.026202 232.780165 
L 163.194034 192.317355 
L 165.361866 207.153719 
L 167.529698 200.409917 
L 169.697531 205.467769 
L 171.865363 190.968595 
L 174.033195 172.08595 
L 176.201027 149.831405 
L 178.368859 199.600661 
L 180.536691 204.456198 
L 182.704524 161.970248 
L 184.872356 209.85124 
L 187.040188 202.433058 
L 191.375852 220.641322 
L 193.543684 54.743802 
L 195.711517 197.712397 
L 197.879349 163.993388 
L 200.047181 188.271074 
L 202.215013 144.773554 
L 204.382845 172.08595 
L 206.550677 185.236364 
L 208.71851 194.340496 
L 210.886342 172.895207 
L 213.054174 170.06281 
L 215.222006 181.912633 
L 217.389838 168.039669 
L 219.55767 206.479339 
L 221.725503 186.247934 
L 223.893335 182.876033 
L 226.061167 173.242031 
L 228.228999 176.132231 
L 230.396831 212.54876 
L 232.564663 212.54876 
L 234.732496 196.363636 
L 236.900328 192.317355 
L 239.06816 193.328926 
L 241.235992 169.658182 
L 243.403824 177.649587 
L 245.571656 212.54876 
L 247.739489 224.687603 
L 249.907321 161.464463 
L 252.075153 196.363636 
L 254.242985 166.016529 
L 256.410817 197.712397 
L 258.578649 168.848926 
L 260.746482 163.993388 
L 262.914314 192.317355 
L 265.082146 191.841322 
L 267.249978 203.107438 
L 269.41781 183.775207 
L 271.585642 101.276033 
L 273.753475 176.132231 
L 275.921307 142.076033 
L 278.089139 211.334876 
L 280.256971 152.590233 
L 282.424803 196.026446 
L 284.592635 205.078703 
L 286.760468 192.991736 
L 288.9283 187.959822 
L 291.096132 194.221488 
L 293.263964 188.560094 
L 295.431796 149.831405 
L 297.599628 195.014876 
L 299.767461 180.431405 
L 301.935293 145.380496 
L 304.103125 180.58314 
L 306.270957 134.479339 
L 308.438789 176.316153 
L 310.606622 159.947107 
L 312.774454 122.596821 
L 314.942286 179.672727 
L 317.110118 181.030361 
L 319.27795 171.382249 
L 321.445782 159.947107 
L 323.613615 184.561983 
L 325.781447 191.642975 
L 327.949279 149.426777 
L 330.117111 169.19575 
L 332.284943 138.704132 
L 334.452775 163.853861 
L 336.620608 186.416529 
L 338.78844 190.110293 
L 340.956272 177.011858 
L 343.124104 124.542149 
L 345.291936 158.82314 
L 347.459768 174.333884 
L 349.627601 169.974847 
L 351.795433 173.866314 
L 353.963265 160.284298 
L 356.131097 168.919296 
L 358.298929 134.545455 
L 360.466761 175.233058 
L 362.634594 166.104492 
L 364.802426 194.221488 
L 366.970258 174.109091 
L 369.13809 174.900755 
L 371.305922 168.170195 
L 373.473754 151.641583 
L 375.641587 179.197596 
L 377.809419 185.910744 
L 379.977251 174.660856 
L 382.145083 166.639034 
L 384.312915 171.307819 
L 386.480747 175.008264 
L 388.64858 159.441322 
L 390.816412 187.192066 
L 392.984244 177.588893 
L 395.152076 185.808121 
L 397.319908 198.144 
L 399.48774 171.534185 
L 401.655573 186.652562 
L 403.823405 159.555532 
L 405.991237 188.523967 
L 408.159069 196.768264 
L 410.326901 183.798869 
L 412.494733 145.881464 
L 414.662566 167.160043 
L 416.830398 185.519603 
L 418.99823 182.876033 
L 421.166062 168.882645 
L 423.333894 201.188048 
L 425.501726 163.507835 
L 427.669559 171.50791 
L 429.837391 173.276033 
L 432.005223 184.928494 
L 434.173055 165.464763 
L 436.340887 152.806612 
L 438.508719 201.188048 
L 440.676552 182.095172 
L 442.844384 185.438678 
L 445.012216 182.046027 
L 447.180048 195.91405 
L 449.34788 188.095149 
L 451.515712 184.67438 
L 453.683545 195.959008 
L 455.851377 182.017731 
L 458.019209 206.382999 
L 460.187041 177.396694 
L 462.354873 177.930579 
L 464.522705 196.813223 
L 466.690538 181.302479 
L 468.85837 169.72562 
L 471.026202 171.65242 
L 473.194034 165.763636 
L 475.361866 186.247934 
L 477.529698 160.756364 
L 479.697531 188.271074 
L 481.865363 203.950413 
L 484.033195 168.407513 
L 486.201027 193.78873 
L 488.368859 189.535537 
L 490.536691 179.773884 
L 492.704524 200.409917 
L 494.872356 184.802834 
L 497.040188 195.959008 
L 499.20802 151.232041 
L 501.375852 173.603306 
L 503.543684 170.614576 
L 505.711517 189.619835 
L 507.879349 150.084298 
L 510.047181 176.357025 
L 512.215013 187.512397 
L 514.382845 171.74876 
L 516.550677 160.621488 
L 518.71851 195.352066 
L 520.886342 183.357733 
L 523.054174 189.282645 
L 525.222006 181.797025 
L 527.389838 202.249136 
L 529.55767 185.17686 
L 531.725503 185.910744 
L 533.893335 163.993388 
L 536.061167 157.178599 
L 538.228999 152.360331 
L 540.396831 178.036364 
L 542.564663 208.907107 
L 544.732496 147.497012 
L 546.900328 182.201653 
L 549.06816 178.155372 
L 551.235992 186.366942 
L 553.403824 198.231151 
L 555.571656 196.768264 
L 557.739489 175.198474 
L 559.907321 193.834711 
L 562.075153 177.288312 
L 564.242985 188.720661 
L 566.410817 172.323967 
L 568.578649 196.674889 
L 570.746482 180.448264 
L 572.914314 141.894469 
L 575.082146 203.878158 
L 577.249978 173.856198 
L 579.41781 198.675797 
L 581.585642 174.887222 
L 583.753475 190.449841 
L 585.921307 155.66281 
L 588.089139 168.579174 
L 590.256971 193.834711 
L 592.424803 174.513719 
L 594.592635 179.600472 
L 596.760468 167.750649 
L 598.9283 167.801653 
L 601.096132 204.456198 
L 603.263964 177.480992 
L 605.431796 177.143802 
L 607.599628 187.461818 
L 609.767461 185.158551 
L 611.935293 170.529688 
L 614.103125 190.968595 
L 616.270957 166.915702 
L 618.438789 173.531051 
L 620.606622 192.317355 
L 622.774454 189.122923 
L 624.942286 170.315702 
L 627.110118 164.860449 
L 629.27795 166.016529 
L 631.445782 174.783471 
L 633.613615 199.542857 
L 635.781447 141.257143 
L 637.949279 190.84598 
L 640.117111 158.659654 
L 642.284943 191.465507 
L 644.452775 170.568595 
L 646.620608 168.039669 
L 648.78844 176.469421 
L 650.956272 184.393388 
L 653.124104 187.535387 
L 655.291936 177.410004 
L 657.459768 192.991736 
L 659.627601 171.07438 
L 661.795433 175.682645 
L 663.963265 197.982149 
L 666.131097 170.872066 
L 668.298929 175.008264 
L 670.466761 167.487904 
L 672.634594 180.354438 
L 674.802426 160.42314 
L 676.970258 159.694215 
L 679.13809 174.311405 
L 681.305922 183.415537 
L 683.473754 179.226446 
L 685.641587 181.190083 
L 687.809419 203.697521 
L 689.977251 191.558678 
L 692.145083 181.077686 
L 694.312915 176.334545 
L 696.480747 194.629516 
L 698.64858 156.238017 
L 700.816412 190.8 
L 702.984244 178.733412 
L 705.152076 168.90673 
L 707.319908 171.186777 
L 709.48774 181.88221 
L 711.655573 205.170248 
L 713.823405 177.750744 
L 715.991237 190.159339 
L 718.159069 184.427107 
L 720.326901 191.81157 
L 722.494733 190.519008 
L 724.662566 180.178512 
L 726.830398 190.583235 
L 728.99823 181.077686 
L 731.166062 203.444628 
L 733.333894 191.867769 
L 735.501726 190.547107 
L 737.669559 217.943802 
L 739.837391 192.895396 
L 742.005223 190.968595 
L 744.173055 205.946933 
L 746.340887 188.849115 
L 748.508719 207.828099 
L 750.676552 203.646942 
L 752.844384 185.158551 
L 755.012216 194.340496 
L 757.180048 187.64857 
L 759.34788 191.161275 
L 761.515712 197.835011 
L 763.683545 200.409917 
L 765.851377 190.968595 
L 768.019209 189.080331 
L 770.187041 192.721983 
L 772.354873 195.014876 
L 774.522705 192.317355 
L 776.690538 199.253837 
L 778.85837 203.107438 
L 781.026202 186.922314 
L 783.194034 195.689256 
L 785.361866 190.583235 
L 787.529698 209.716364 
L 789.697531 207.153719 
L 791.865363 195.55438 
L 794.033195 197.577521 
L 796.201027 201.084298 
L 798.368859 206.323713 
L 800.536691 201.565998 
L 802.704524 205.078703 
L 804.872356 206.946217 
L 807.040188 212.54876 
L 809.20802 220.236694 
L 811.375852 219.966942 
L 813.543684 212.998347 
L 815.711517 210.930248 
L 817.879349 219.905635 
L 820.047181 218.213554 
L 822.215013 220.236694 
L 824.382845 227.385124 
L 826.550677 224.013223 
L 828.71851 231.768595 
L 830.886342 231.161653 
L 833.054174 236.826446 
L 835.222006 232.202125 
L 839.55767 238.849587 
L 839.55767 238.849587 
" style="fill:none;stroke:#1f77b4;stroke-linecap:square;stroke-width:0.8;"/>
   </g>
   <g id="line2d_21">
    <path clip-path="url(#pf72dda75c6)" d="M 40.603125 180.377349 
L 877.603125 180.377349 
" style="fill:none;stroke:#000000;stroke-dasharray:2.96,1.28;stroke-dashoffset:0;stroke-width:0.8;"/>
   </g>
   <g id="patch_3">
    <path d="M 40.603125 252 
L 40.603125 7.2 
" style="fill:none;stroke:#000000;stroke-linecap:square;stroke-linejoin:miter;stroke-width:0.8;"/>
   </g>
   <g id="patch_4">
    <path d="M 40.603125 252 
L 877.603125 252 
" style="fill:none;stroke:#000000;stroke-linecap:square;stroke-linejoin:miter;stroke-width:0.8;"/>
   </g>
   <g id="legend_1">
    <g id="patch_5">
     <path d="M 811.35625 29.878125 
L 870.603125 29.878125 
Q 872.603125 29.878125 872.603125 27.878125 
L 872.603125 14.2 
Q 872.603125 12.2 870.603125 12.2 
L 811.35625 12.2 
Q 809.35625 12.2 809.35625 14.2 
L 809.35625 27.878125 
Q 809.35625 29.878125 811.35625 29.878125 
z
" style="fill:#ffffff;opacity:0.8;stroke:#cccccc;stroke-linejoin:miter;"/>
    </g>
    <g id="line2d_22">
     <path d="M 813.35625 20.298437 
L 833.35625 20.298437 
" style="fill:none;stroke:#000000;stroke-dasharray:2.96,1.28;stroke-dashoffset:0;stroke-width:0.8;"/>
    </g>
    <g id="line2d_23"/>
    <g id="text_22">
     <!-- Mean -->
     <g transform="translate(841.35625 23.798437)scale(0.1 -0.1)">
      <use xlink:href="#DejaVuSans-4d"/>
      <use x="86.279297" xlink:href="#DejaVuSans-65"/>
      <use x="147.802734" xlink:href="#DejaVuSans-61"/>
      <use x="209.082031" xlink:href="#DejaVuSans-6e"/>
     </g>
    </g>
   </g>
  </g>
 </g>
 <defs>
  <clipPath id="pf72dda75c6">
   <rect height="244.8" width="837" x="40.603125" y="7.2"/>
  </clipPath>
 </defs>
</svg>
