<?xml version="1.0" encoding="utf-8" standalone="no"?>
<!DOCTYPE svg PUBLIC "-//W3C//DTD SVG 1.1//EN"
  "http://www.w3.org/Graphics/SVG/1.1/DTD/svg11.dtd">
<!-- Created with matplotlib (https://matplotlib.org/) -->
<svg height="370.91625pt" version="1.1" viewBox="0 0 617.639063 370.91625" width="617.639063pt" xmlns="http://www.w3.org/2000/svg" xmlns:xlink="http://www.w3.org/1999/xlink">
 <metadata>
  <rdf:RDF xmlns:cc="http://creativecommons.org/ns#" xmlns:dc="http://purl.org/dc/elements/1.1/" xmlns:rdf="http://www.w3.org/1999/02/22-rdf-syntax-ns#">
   <cc:Work>
    <dc:type rdf:resource="http://purl.org/dc/dcmitype/StillImage"/>
    <dc:date>2021-03-21T00:43:09.759415</dc:date>
    <dc:format>image/svg+xml</dc:format>
    <dc:creator>
     <cc:Agent>
      <dc:title>Matplotlib v3.3.4, https://matplotlib.org/</dc:title>
     </cc:Agent>
    </dc:creator>
   </cc:Work>
  </rdf:RDF>
 </metadata>
 <defs>
  <style type="text/css">*{stroke-linecap:butt;stroke-linejoin:round;}</style>
 </defs>
 <g id="figure_1">
  <g id="patch_1">
   <path d="M 0 370.91625 
L 617.639063 370.91625 
L 617.639063 0 
L 0 0 
z
" style="fill:none;"/>
  </g>
  <g id="axes_1">
   <g id="patch_2">
    <path d="M 52.439063 333.36 
L 610.439062 333.36 
L 610.439062 7.2 
L 52.439063 7.2 
z
" style="fill:#ffffff;"/>
   </g>
   <g id="matplotlib.axis_1">
    <g id="xtick_1">
     <g id="line2d_1">
      <defs>
       <path d="M 0 0 
L 0 3.5 
" id="mae9c817cd1" style="stroke:#000000;stroke-width:0.8;"/>
      </defs>
      <g>
       <use style="stroke:#000000;stroke-width:0.8;" x="77.802699" xlink:href="#mae9c817cd1" y="333.36"/>
      </g>
     </g>
     <g id="text_1">
      <!-- 2020-03-01 -->
      <g transform="translate(48.744886 347.958438)scale(0.1 -0.1)">
       <defs>
        <path d="M 19.1875 8.296875 
L 53.609375 8.296875 
L 53.609375 0 
L 7.328125 0 
L 7.328125 8.296875 
Q 12.9375 14.109375 22.625 23.890625 
Q 32.328125 33.6875 34.8125 36.53125 
Q 39.546875 41.84375 41.421875 45.53125 
Q 43.3125 49.21875 43.3125 52.78125 
Q 43.3125 58.59375 39.234375 62.25 
Q 35.15625 65.921875 28.609375 65.921875 
Q 23.96875 65.921875 18.8125 64.3125 
Q 13.671875 62.703125 7.8125 59.421875 
L 7.8125 69.390625 
Q 13.765625 71.78125 18.9375 73 
Q 24.125 74.21875 28.421875 74.21875 
Q 39.75 74.21875 46.484375 68.546875 
Q 53.21875 62.890625 53.21875 53.421875 
Q 53.21875 48.921875 51.53125 44.890625 
Q 49.859375 40.875 45.40625 35.40625 
Q 44.1875 33.984375 37.640625 27.21875 
Q 31.109375 20.453125 19.1875 8.296875 
z
" id="DejaVuSans-50"/>
        <path d="M 31.78125 66.40625 
Q 24.171875 66.40625 20.328125 58.90625 
Q 16.5 51.421875 16.5 36.375 
Q 16.5 21.390625 20.328125 13.890625 
Q 24.171875 6.390625 31.78125 6.390625 
Q 39.453125 6.390625 43.28125 13.890625 
Q 47.125 21.390625 47.125 36.375 
Q 47.125 51.421875 43.28125 58.90625 
Q 39.453125 66.40625 31.78125 66.40625 
z
M 31.78125 74.21875 
Q 44.046875 74.21875 50.515625 64.515625 
Q 56.984375 54.828125 56.984375 36.375 
Q 56.984375 17.96875 50.515625 8.265625 
Q 44.046875 -1.421875 31.78125 -1.421875 
Q 19.53125 -1.421875 13.0625 8.265625 
Q 6.59375 17.96875 6.59375 36.375 
Q 6.59375 54.828125 13.0625 64.515625 
Q 19.53125 74.21875 31.78125 74.21875 
z
" id="DejaVuSans-48"/>
        <path d="M 4.890625 31.390625 
L 31.203125 31.390625 
L 31.203125 23.390625 
L 4.890625 23.390625 
z
" id="DejaVuSans-45"/>
        <path d="M 40.578125 39.3125 
Q 47.65625 37.796875 51.625 33 
Q 55.609375 28.21875 55.609375 21.1875 
Q 55.609375 10.40625 48.1875 4.484375 
Q 40.765625 -1.421875 27.09375 -1.421875 
Q 22.515625 -1.421875 17.65625 -0.515625 
Q 12.796875 0.390625 7.625 2.203125 
L 7.625 11.71875 
Q 11.71875 9.328125 16.59375 8.109375 
Q 21.484375 6.890625 26.8125 6.890625 
Q 36.078125 6.890625 40.9375 10.546875 
Q 45.796875 14.203125 45.796875 21.1875 
Q 45.796875 27.640625 41.28125 31.265625 
Q 36.765625 34.90625 28.71875 34.90625 
L 20.21875 34.90625 
L 20.21875 43.015625 
L 29.109375 43.015625 
Q 36.375 43.015625 40.234375 45.921875 
Q 44.09375 48.828125 44.09375 54.296875 
Q 44.09375 59.90625 40.109375 62.90625 
Q 36.140625 65.921875 28.71875 65.921875 
Q 24.65625 65.921875 20.015625 65.03125 
Q 15.375 64.15625 9.8125 62.3125 
L 9.8125 71.09375 
Q 15.4375 72.65625 20.34375 73.4375 
Q 25.25 74.21875 29.59375 74.21875 
Q 40.828125 74.21875 47.359375 69.109375 
Q 53.90625 64.015625 53.90625 55.328125 
Q 53.90625 49.265625 50.4375 45.09375 
Q 46.96875 40.921875 40.578125 39.3125 
z
" id="DejaVuSans-51"/>
        <path d="M 12.40625 8.296875 
L 28.515625 8.296875 
L 28.515625 63.921875 
L 10.984375 60.40625 
L 10.984375 69.390625 
L 28.421875 72.90625 
L 38.28125 72.90625 
L 38.28125 8.296875 
L 54.390625 8.296875 
L 54.390625 0 
L 12.40625 0 
z
" id="DejaVuSans-49"/>
       </defs>
       <use xlink:href="#DejaVuSans-50"/>
       <use x="63.623047" xlink:href="#DejaVuSans-48"/>
       <use x="127.246094" xlink:href="#DejaVuSans-50"/>
       <use x="190.869141" xlink:href="#DejaVuSans-48"/>
       <use x="254.492188" xlink:href="#DejaVuSans-45"/>
       <use x="290.576172" xlink:href="#DejaVuSans-48"/>
       <use x="354.199219" xlink:href="#DejaVuSans-51"/>
       <use x="417.822266" xlink:href="#DejaVuSans-45"/>
       <use x="453.90625" xlink:href="#DejaVuSans-48"/>
       <use x="517.529297" xlink:href="#DejaVuSans-49"/>
      </g>
     </g>
    </g>
    <g id="xtick_2">
     <g id="line2d_2">
      <g>
       <use style="stroke:#000000;stroke-width:0.8;" x="144.026293" xlink:href="#mae9c817cd1" y="333.36"/>
      </g>
     </g>
     <g id="text_2">
      <!-- 2020-04-20 -->
      <g transform="translate(114.96848 347.958438)scale(0.1 -0.1)">
       <defs>
        <path d="M 37.796875 64.3125 
L 12.890625 25.390625 
L 37.796875 25.390625 
z
M 35.203125 72.90625 
L 47.609375 72.90625 
L 47.609375 25.390625 
L 58.015625 25.390625 
L 58.015625 17.1875 
L 47.609375 17.1875 
L 47.609375 0 
L 37.796875 0 
L 37.796875 17.1875 
L 4.890625 17.1875 
L 4.890625 26.703125 
z
" id="DejaVuSans-52"/>
       </defs>
       <use xlink:href="#DejaVuSans-50"/>
       <use x="63.623047" xlink:href="#DejaVuSans-48"/>
       <use x="127.246094" xlink:href="#DejaVuSans-50"/>
       <use x="190.869141" xlink:href="#DejaVuSans-48"/>
       <use x="254.492188" xlink:href="#DejaVuSans-45"/>
       <use x="290.576172" xlink:href="#DejaVuSans-48"/>
       <use x="354.199219" xlink:href="#DejaVuSans-52"/>
       <use x="417.822266" xlink:href="#DejaVuSans-45"/>
       <use x="453.90625" xlink:href="#DejaVuSans-50"/>
       <use x="517.529297" xlink:href="#DejaVuSans-48"/>
      </g>
     </g>
    </g>
    <g id="xtick_3">
     <g id="line2d_3">
      <g>
       <use style="stroke:#000000;stroke-width:0.8;" x="210.249886" xlink:href="#mae9c817cd1" y="333.36"/>
      </g>
     </g>
     <g id="text_3">
      <!-- 2020-06-09 -->
      <g transform="translate(181.192074 347.958438)scale(0.1 -0.1)">
       <defs>
        <path d="M 33.015625 40.375 
Q 26.375 40.375 22.484375 35.828125 
Q 18.609375 31.296875 18.609375 23.390625 
Q 18.609375 15.53125 22.484375 10.953125 
Q 26.375 6.390625 33.015625 6.390625 
Q 39.65625 6.390625 43.53125 10.953125 
Q 47.40625 15.53125 47.40625 23.390625 
Q 47.40625 31.296875 43.53125 35.828125 
Q 39.65625 40.375 33.015625 40.375 
z
M 52.59375 71.296875 
L 52.59375 62.3125 
Q 48.875 64.0625 45.09375 64.984375 
Q 41.3125 65.921875 37.59375 65.921875 
Q 27.828125 65.921875 22.671875 59.328125 
Q 17.53125 52.734375 16.796875 39.40625 
Q 19.671875 43.65625 24.015625 45.921875 
Q 28.375 48.1875 33.59375 48.1875 
Q 44.578125 48.1875 50.953125 41.515625 
Q 57.328125 34.859375 57.328125 23.390625 
Q 57.328125 12.15625 50.6875 5.359375 
Q 44.046875 -1.421875 33.015625 -1.421875 
Q 20.359375 -1.421875 13.671875 8.265625 
Q 6.984375 17.96875 6.984375 36.375 
Q 6.984375 53.65625 15.1875 63.9375 
Q 23.390625 74.21875 37.203125 74.21875 
Q 40.921875 74.21875 44.703125 73.484375 
Q 48.484375 72.75 52.59375 71.296875 
z
" id="DejaVuSans-54"/>
        <path d="M 10.984375 1.515625 
L 10.984375 10.5 
Q 14.703125 8.734375 18.5 7.8125 
Q 22.3125 6.890625 25.984375 6.890625 
Q 35.75 6.890625 40.890625 13.453125 
Q 46.046875 20.015625 46.78125 33.40625 
Q 43.953125 29.203125 39.59375 26.953125 
Q 35.25 24.703125 29.984375 24.703125 
Q 19.046875 24.703125 12.671875 31.3125 
Q 6.296875 37.9375 6.296875 49.421875 
Q 6.296875 60.640625 12.9375 67.421875 
Q 19.578125 74.21875 30.609375 74.21875 
Q 43.265625 74.21875 49.921875 64.515625 
Q 56.59375 54.828125 56.59375 36.375 
Q 56.59375 19.140625 48.40625 8.859375 
Q 40.234375 -1.421875 26.421875 -1.421875 
Q 22.703125 -1.421875 18.890625 -0.6875 
Q 15.09375 0.046875 10.984375 1.515625 
z
M 30.609375 32.421875 
Q 37.25 32.421875 41.125 36.953125 
Q 45.015625 41.5 45.015625 49.421875 
Q 45.015625 57.28125 41.125 61.84375 
Q 37.25 66.40625 30.609375 66.40625 
Q 23.96875 66.40625 20.09375 61.84375 
Q 16.21875 57.28125 16.21875 49.421875 
Q 16.21875 41.5 20.09375 36.953125 
Q 23.96875 32.421875 30.609375 32.421875 
z
" id="DejaVuSans-57"/>
       </defs>
       <use xlink:href="#DejaVuSans-50"/>
       <use x="63.623047" xlink:href="#DejaVuSans-48"/>
       <use x="127.246094" xlink:href="#DejaVuSans-50"/>
       <use x="190.869141" xlink:href="#DejaVuSans-48"/>
       <use x="254.492188" xlink:href="#DejaVuSans-45"/>
       <use x="290.576172" xlink:href="#DejaVuSans-48"/>
       <use x="354.199219" xlink:href="#DejaVuSans-54"/>
       <use x="417.822266" xlink:href="#DejaVuSans-45"/>
       <use x="453.90625" xlink:href="#DejaVuSans-48"/>
       <use x="517.529297" xlink:href="#DejaVuSans-57"/>
      </g>
     </g>
    </g>
    <g id="xtick_4">
     <g id="line2d_4">
      <g>
       <use style="stroke:#000000;stroke-width:0.8;" x="276.47348" xlink:href="#mae9c817cd1" y="333.36"/>
      </g>
     </g>
     <g id="text_4">
      <!-- 2020-07-29 -->
      <g transform="translate(247.415667 347.958438)scale(0.1 -0.1)">
       <defs>
        <path d="M 8.203125 72.90625 
L 55.078125 72.90625 
L 55.078125 68.703125 
L 28.609375 0 
L 18.3125 0 
L 43.21875 64.59375 
L 8.203125 64.59375 
z
" id="DejaVuSans-55"/>
       </defs>
       <use xlink:href="#DejaVuSans-50"/>
       <use x="63.623047" xlink:href="#DejaVuSans-48"/>
       <use x="127.246094" xlink:href="#DejaVuSans-50"/>
       <use x="190.869141" xlink:href="#DejaVuSans-48"/>
       <use x="254.492188" xlink:href="#DejaVuSans-45"/>
       <use x="290.576172" xlink:href="#DejaVuSans-48"/>
       <use x="354.199219" xlink:href="#DejaVuSans-55"/>
       <use x="417.822266" xlink:href="#DejaVuSans-45"/>
       <use x="453.90625" xlink:href="#DejaVuSans-50"/>
       <use x="517.529297" xlink:href="#DejaVuSans-57"/>
      </g>
     </g>
    </g>
    <g id="xtick_5">
     <g id="line2d_5">
      <g>
       <use style="stroke:#000000;stroke-width:0.8;" x="342.697073" xlink:href="#mae9c817cd1" y="333.36"/>
      </g>
     </g>
     <g id="text_5">
      <!-- 2020-09-17 -->
      <g transform="translate(313.639261 347.958438)scale(0.1 -0.1)">
       <use xlink:href="#DejaVuSans-50"/>
       <use x="63.623047" xlink:href="#DejaVuSans-48"/>
       <use x="127.246094" xlink:href="#DejaVuSans-50"/>
       <use x="190.869141" xlink:href="#DejaVuSans-48"/>
       <use x="254.492188" xlink:href="#DejaVuSans-45"/>
       <use x="290.576172" xlink:href="#DejaVuSans-48"/>
       <use x="354.199219" xlink:href="#DejaVuSans-57"/>
       <use x="417.822266" xlink:href="#DejaVuSans-45"/>
       <use x="453.90625" xlink:href="#DejaVuSans-49"/>
       <use x="517.529297" xlink:href="#DejaVuSans-55"/>
      </g>
     </g>
    </g>
    <g id="xtick_6">
     <g id="line2d_6">
      <g>
       <use style="stroke:#000000;stroke-width:0.8;" x="408.920667" xlink:href="#mae9c817cd1" y="333.36"/>
      </g>
     </g>
     <g id="text_6">
      <!-- 2020-11-06 -->
      <g transform="translate(379.862855 347.958438)scale(0.1 -0.1)">
       <use xlink:href="#DejaVuSans-50"/>
       <use x="63.623047" xlink:href="#DejaVuSans-48"/>
       <use x="127.246094" xlink:href="#DejaVuSans-50"/>
       <use x="190.869141" xlink:href="#DejaVuSans-48"/>
       <use x="254.492188" xlink:href="#DejaVuSans-45"/>
       <use x="290.576172" xlink:href="#DejaVuSans-49"/>
       <use x="354.199219" xlink:href="#DejaVuSans-49"/>
       <use x="417.822266" xlink:href="#DejaVuSans-45"/>
       <use x="453.90625" xlink:href="#DejaVuSans-48"/>
       <use x="517.529297" xlink:href="#DejaVuSans-54"/>
      </g>
     </g>
    </g>
    <g id="xtick_7">
     <g id="line2d_7">
      <g>
       <use style="stroke:#000000;stroke-width:0.8;" x="475.144261" xlink:href="#mae9c817cd1" y="333.36"/>
      </g>
     </g>
     <g id="text_7">
      <!-- 2020-12-26 -->
      <g transform="translate(446.086448 347.958438)scale(0.1 -0.1)">
       <use xlink:href="#DejaVuSans-50"/>
       <use x="63.623047" xlink:href="#DejaVuSans-48"/>
       <use x="127.246094" xlink:href="#DejaVuSans-50"/>
       <use x="190.869141" xlink:href="#DejaVuSans-48"/>
       <use x="254.492188" xlink:href="#DejaVuSans-45"/>
       <use x="290.576172" xlink:href="#DejaVuSans-49"/>
       <use x="354.199219" xlink:href="#DejaVuSans-50"/>
       <use x="417.822266" xlink:href="#DejaVuSans-45"/>
       <use x="453.90625" xlink:href="#DejaVuSans-50"/>
       <use x="517.529297" xlink:href="#DejaVuSans-54"/>
      </g>
     </g>
    </g>
    <g id="xtick_8">
     <g id="line2d_8">
      <g>
       <use style="stroke:#000000;stroke-width:0.8;" x="541.367854" xlink:href="#mae9c817cd1" y="333.36"/>
      </g>
     </g>
     <g id="text_8">
      <!-- 2021-02-14 -->
      <g transform="translate(512.310042 347.958438)scale(0.1 -0.1)">
       <use xlink:href="#DejaVuSans-50"/>
       <use x="63.623047" xlink:href="#DejaVuSans-48"/>
       <use x="127.246094" xlink:href="#DejaVuSans-50"/>
       <use x="190.869141" xlink:href="#DejaVuSans-49"/>
       <use x="254.492188" xlink:href="#DejaVuSans-45"/>
       <use x="290.576172" xlink:href="#DejaVuSans-48"/>
       <use x="354.199219" xlink:href="#DejaVuSans-50"/>
       <use x="417.822266" xlink:href="#DejaVuSans-45"/>
       <use x="453.90625" xlink:href="#DejaVuSans-49"/>
       <use x="517.529297" xlink:href="#DejaVuSans-52"/>
      </g>
     </g>
    </g>
    <g id="xtick_9">
     <g id="line2d_9">
      <g>
       <use style="stroke:#000000;stroke-width:0.8;" x="607.591448" xlink:href="#mae9c817cd1" y="333.36"/>
      </g>
     </g>
    </g>
    <g id="text_9">
     <!-- Date -->
     <g transform="translate(319.488281 361.636562)scale(0.1 -0.1)">
      <defs>
       <path d="M 19.671875 64.796875 
L 19.671875 8.109375 
L 31.59375 8.109375 
Q 46.6875 8.109375 53.6875 14.9375 
Q 60.6875 21.78125 60.6875 36.53125 
Q 60.6875 51.171875 53.6875 57.984375 
Q 46.6875 64.796875 31.59375 64.796875 
z
M 9.8125 72.90625 
L 30.078125 72.90625 
Q 51.265625 72.90625 61.171875 64.09375 
Q 71.09375 55.28125 71.09375 36.53125 
Q 71.09375 17.671875 61.125 8.828125 
Q 51.171875 0 30.078125 0 
L 9.8125 0 
z
" id="DejaVuSans-68"/>
       <path d="M 34.28125 27.484375 
Q 23.390625 27.484375 19.1875 25 
Q 14.984375 22.515625 14.984375 16.5 
Q 14.984375 11.71875 18.140625 8.90625 
Q 21.296875 6.109375 26.703125 6.109375 
Q 34.1875 6.109375 38.703125 11.40625 
Q 43.21875 16.703125 43.21875 25.484375 
L 43.21875 27.484375 
z
M 52.203125 31.203125 
L 52.203125 0 
L 43.21875 0 
L 43.21875 8.296875 
Q 40.140625 3.328125 35.546875 0.953125 
Q 30.953125 -1.421875 24.3125 -1.421875 
Q 15.921875 -1.421875 10.953125 3.296875 
Q 6 8.015625 6 15.921875 
Q 6 25.140625 12.171875 29.828125 
Q 18.359375 34.515625 30.609375 34.515625 
L 43.21875 34.515625 
L 43.21875 35.40625 
Q 43.21875 41.609375 39.140625 45 
Q 35.0625 48.390625 27.6875 48.390625 
Q 23 48.390625 18.546875 47.265625 
Q 14.109375 46.140625 10.015625 43.890625 
L 10.015625 52.203125 
Q 14.9375 54.109375 19.578125 55.046875 
Q 24.21875 56 28.609375 56 
Q 40.484375 56 46.34375 49.84375 
Q 52.203125 43.703125 52.203125 31.203125 
z
" id="DejaVuSans-97"/>
       <path d="M 18.3125 70.21875 
L 18.3125 54.6875 
L 36.8125 54.6875 
L 36.8125 47.703125 
L 18.3125 47.703125 
L 18.3125 18.015625 
Q 18.3125 11.328125 20.140625 9.421875 
Q 21.96875 7.515625 27.59375 7.515625 
L 36.8125 7.515625 
L 36.8125 0 
L 27.59375 0 
Q 17.1875 0 13.234375 3.875 
Q 9.28125 7.765625 9.28125 18.015625 
L 9.28125 47.703125 
L 2.6875 47.703125 
L 2.6875 54.6875 
L 9.28125 54.6875 
L 9.28125 70.21875 
z
" id="DejaVuSans-116"/>
       <path d="M 56.203125 29.59375 
L 56.203125 25.203125 
L 14.890625 25.203125 
Q 15.484375 15.921875 20.484375 11.0625 
Q 25.484375 6.203125 34.421875 6.203125 
Q 39.59375 6.203125 44.453125 7.46875 
Q 49.3125 8.734375 54.109375 11.28125 
L 54.109375 2.78125 
Q 49.265625 0.734375 44.1875 -0.34375 
Q 39.109375 -1.421875 33.890625 -1.421875 
Q 20.796875 -1.421875 13.15625 6.1875 
Q 5.515625 13.8125 5.515625 26.8125 
Q 5.515625 40.234375 12.765625 48.109375 
Q 20.015625 56 32.328125 56 
Q 43.359375 56 49.78125 48.890625 
Q 56.203125 41.796875 56.203125 29.59375 
z
M 47.21875 32.234375 
Q 47.125 39.59375 43.09375 43.984375 
Q 39.0625 48.390625 32.421875 48.390625 
Q 24.90625 48.390625 20.390625 44.140625 
Q 15.875 39.890625 15.1875 32.171875 
z
" id="DejaVuSans-101"/>
      </defs>
      <use xlink:href="#DejaVuSans-68"/>
      <use x="77.001953" xlink:href="#DejaVuSans-97"/>
      <use x="138.28125" xlink:href="#DejaVuSans-116"/>
      <use x="177.490234" xlink:href="#DejaVuSans-101"/>
     </g>
    </g>
   </g>
   <g id="matplotlib.axis_2">
    <g id="ytick_1">
     <g id="line2d_10">
      <defs>
       <path d="M 0 0 
L -3.5 0 
" id="m3f6e8b9386" style="stroke:#000000;stroke-width:0.8;"/>
      </defs>
      <g>
       <use style="stroke:#000000;stroke-width:0.8;" x="52.439063" xlink:href="#m3f6e8b9386" y="308.955249"/>
      </g>
     </g>
     <g id="text_10">
      <!-- −0.6 -->
      <g transform="translate(21.15625 312.754468)scale(0.1 -0.1)">
       <defs>
        <path d="M 10.59375 35.5 
L 73.1875 35.5 
L 73.1875 27.203125 
L 10.59375 27.203125 
z
" id="DejaVuSans-8722"/>
        <path d="M 10.6875 12.40625 
L 21 12.40625 
L 21 0 
L 10.6875 0 
z
" id="DejaVuSans-46"/>
       </defs>
       <use xlink:href="#DejaVuSans-8722"/>
       <use x="83.789062" xlink:href="#DejaVuSans-48"/>
       <use x="147.412109" xlink:href="#DejaVuSans-46"/>
       <use x="179.199219" xlink:href="#DejaVuSans-54"/>
      </g>
     </g>
    </g>
    <g id="ytick_2">
     <g id="line2d_11">
      <g>
       <use style="stroke:#000000;stroke-width:0.8;" x="52.439063" xlink:href="#m3f6e8b9386" y="265.353536"/>
      </g>
     </g>
     <g id="text_11">
      <!-- −0.5 -->
      <g transform="translate(21.15625 269.152755)scale(0.1 -0.1)">
       <defs>
        <path d="M 10.796875 72.90625 
L 49.515625 72.90625 
L 49.515625 64.59375 
L 19.828125 64.59375 
L 19.828125 46.734375 
Q 21.96875 47.46875 24.109375 47.828125 
Q 26.265625 48.1875 28.421875 48.1875 
Q 40.625 48.1875 47.75 41.5 
Q 54.890625 34.8125 54.890625 23.390625 
Q 54.890625 11.625 47.5625 5.09375 
Q 40.234375 -1.421875 26.90625 -1.421875 
Q 22.3125 -1.421875 17.546875 -0.640625 
Q 12.796875 0.140625 7.71875 1.703125 
L 7.71875 11.625 
Q 12.109375 9.234375 16.796875 8.0625 
Q 21.484375 6.890625 26.703125 6.890625 
Q 35.15625 6.890625 40.078125 11.328125 
Q 45.015625 15.765625 45.015625 23.390625 
Q 45.015625 31 40.078125 35.4375 
Q 35.15625 39.890625 26.703125 39.890625 
Q 22.75 39.890625 18.8125 39.015625 
Q 14.890625 38.140625 10.796875 36.28125 
z
" id="DejaVuSans-53"/>
       </defs>
       <use xlink:href="#DejaVuSans-8722"/>
       <use x="83.789062" xlink:href="#DejaVuSans-48"/>
       <use x="147.412109" xlink:href="#DejaVuSans-46"/>
       <use x="179.199219" xlink:href="#DejaVuSans-53"/>
      </g>
     </g>
    </g>
    <g id="ytick_3">
     <g id="line2d_12">
      <g>
       <use style="stroke:#000000;stroke-width:0.8;" x="52.439063" xlink:href="#m3f6e8b9386" y="221.751823"/>
      </g>
     </g>
     <g id="text_12">
      <!-- −0.4 -->
      <g transform="translate(21.15625 225.551041)scale(0.1 -0.1)">
       <use xlink:href="#DejaVuSans-8722"/>
       <use x="83.789062" xlink:href="#DejaVuSans-48"/>
       <use x="147.412109" xlink:href="#DejaVuSans-46"/>
       <use x="179.199219" xlink:href="#DejaVuSans-52"/>
      </g>
     </g>
    </g>
    <g id="ytick_4">
     <g id="line2d_13">
      <g>
       <use style="stroke:#000000;stroke-width:0.8;" x="52.439063" xlink:href="#m3f6e8b9386" y="178.150109"/>
      </g>
     </g>
     <g id="text_13">
      <!-- −0.3 -->
      <g transform="translate(21.15625 181.949328)scale(0.1 -0.1)">
       <use xlink:href="#DejaVuSans-8722"/>
       <use x="83.789062" xlink:href="#DejaVuSans-48"/>
       <use x="147.412109" xlink:href="#DejaVuSans-46"/>
       <use x="179.199219" xlink:href="#DejaVuSans-51"/>
      </g>
     </g>
    </g>
    <g id="ytick_5">
     <g id="line2d_14">
      <g>
       <use style="stroke:#000000;stroke-width:0.8;" x="52.439063" xlink:href="#m3f6e8b9386" y="134.548396"/>
      </g>
     </g>
     <g id="text_14">
      <!-- −0.2 -->
      <g transform="translate(21.15625 138.347615)scale(0.1 -0.1)">
       <use xlink:href="#DejaVuSans-8722"/>
       <use x="83.789062" xlink:href="#DejaVuSans-48"/>
       <use x="147.412109" xlink:href="#DejaVuSans-46"/>
       <use x="179.199219" xlink:href="#DejaVuSans-50"/>
      </g>
     </g>
    </g>
    <g id="ytick_6">
     <g id="line2d_15">
      <g>
       <use style="stroke:#000000;stroke-width:0.8;" x="52.439063" xlink:href="#m3f6e8b9386" y="90.946683"/>
      </g>
     </g>
     <g id="text_15">
      <!-- −0.1 -->
      <g transform="translate(21.15625 94.745901)scale(0.1 -0.1)">
       <use xlink:href="#DejaVuSans-8722"/>
       <use x="83.789062" xlink:href="#DejaVuSans-48"/>
       <use x="147.412109" xlink:href="#DejaVuSans-46"/>
       <use x="179.199219" xlink:href="#DejaVuSans-49"/>
      </g>
     </g>
    </g>
    <g id="ytick_7">
     <g id="line2d_16">
      <g>
       <use style="stroke:#000000;stroke-width:0.8;" x="52.439063" xlink:href="#m3f6e8b9386" y="47.344969"/>
      </g>
     </g>
     <g id="text_16">
      <!-- 0.0 -->
      <g transform="translate(29.535938 51.144188)scale(0.1 -0.1)">
       <use xlink:href="#DejaVuSans-48"/>
       <use x="63.623047" xlink:href="#DejaVuSans-46"/>
       <use x="95.410156" xlink:href="#DejaVuSans-48"/>
      </g>
     </g>
    </g>
    <g id="text_17">
     <!-- all_day_bing_tiles_visited_relative_change -->
     <g transform="translate(14.798438 275.458125)rotate(-90)scale(0.1 -0.1)">
      <defs>
       <path d="M 9.421875 75.984375 
L 18.40625 75.984375 
L 18.40625 0 
L 9.421875 0 
z
" id="DejaVuSans-108"/>
       <path d="M 50.984375 -16.609375 
L 50.984375 -23.578125 
L -0.984375 -23.578125 
L -0.984375 -16.609375 
z
" id="DejaVuSans-95"/>
       <path d="M 45.40625 46.390625 
L 45.40625 75.984375 
L 54.390625 75.984375 
L 54.390625 0 
L 45.40625 0 
L 45.40625 8.203125 
Q 42.578125 3.328125 38.25 0.953125 
Q 33.9375 -1.421875 27.875 -1.421875 
Q 17.96875 -1.421875 11.734375 6.484375 
Q 5.515625 14.40625 5.515625 27.296875 
Q 5.515625 40.1875 11.734375 48.09375 
Q 17.96875 56 27.875 56 
Q 33.9375 56 38.25 53.625 
Q 42.578125 51.265625 45.40625 46.390625 
z
M 14.796875 27.296875 
Q 14.796875 17.390625 18.875 11.75 
Q 22.953125 6.109375 30.078125 6.109375 
Q 37.203125 6.109375 41.296875 11.75 
Q 45.40625 17.390625 45.40625 27.296875 
Q 45.40625 37.203125 41.296875 42.84375 
Q 37.203125 48.484375 30.078125 48.484375 
Q 22.953125 48.484375 18.875 42.84375 
Q 14.796875 37.203125 14.796875 27.296875 
z
" id="DejaVuSans-100"/>
       <path d="M 32.171875 -5.078125 
Q 28.375 -14.84375 24.75 -17.8125 
Q 21.140625 -20.796875 15.09375 -20.796875 
L 7.90625 -20.796875 
L 7.90625 -13.28125 
L 13.1875 -13.28125 
Q 16.890625 -13.28125 18.9375 -11.515625 
Q 21 -9.765625 23.484375 -3.21875 
L 25.09375 0.875 
L 2.984375 54.6875 
L 12.5 54.6875 
L 29.59375 11.921875 
L 46.6875 54.6875 
L 56.203125 54.6875 
z
" id="DejaVuSans-121"/>
       <path d="M 48.6875 27.296875 
Q 48.6875 37.203125 44.609375 42.84375 
Q 40.53125 48.484375 33.40625 48.484375 
Q 26.265625 48.484375 22.1875 42.84375 
Q 18.109375 37.203125 18.109375 27.296875 
Q 18.109375 17.390625 22.1875 11.75 
Q 26.265625 6.109375 33.40625 6.109375 
Q 40.53125 6.109375 44.609375 11.75 
Q 48.6875 17.390625 48.6875 27.296875 
z
M 18.109375 46.390625 
Q 20.953125 51.265625 25.265625 53.625 
Q 29.59375 56 35.59375 56 
Q 45.5625 56 51.78125 48.09375 
Q 58.015625 40.1875 58.015625 27.296875 
Q 58.015625 14.40625 51.78125 6.484375 
Q 45.5625 -1.421875 35.59375 -1.421875 
Q 29.59375 -1.421875 25.265625 0.953125 
Q 20.953125 3.328125 18.109375 8.203125 
L 18.109375 0 
L 9.078125 0 
L 9.078125 75.984375 
L 18.109375 75.984375 
z
" id="DejaVuSans-98"/>
       <path d="M 9.421875 54.6875 
L 18.40625 54.6875 
L 18.40625 0 
L 9.421875 0 
z
M 9.421875 75.984375 
L 18.40625 75.984375 
L 18.40625 64.59375 
L 9.421875 64.59375 
z
" id="DejaVuSans-105"/>
       <path d="M 54.890625 33.015625 
L 54.890625 0 
L 45.90625 0 
L 45.90625 32.71875 
Q 45.90625 40.484375 42.875 44.328125 
Q 39.84375 48.1875 33.796875 48.1875 
Q 26.515625 48.1875 22.3125 43.546875 
Q 18.109375 38.921875 18.109375 30.90625 
L 18.109375 0 
L 9.078125 0 
L 9.078125 54.6875 
L 18.109375 54.6875 
L 18.109375 46.1875 
Q 21.34375 51.125 25.703125 53.5625 
Q 30.078125 56 35.796875 56 
Q 45.21875 56 50.046875 50.171875 
Q 54.890625 44.34375 54.890625 33.015625 
z
" id="DejaVuSans-110"/>
       <path d="M 45.40625 27.984375 
Q 45.40625 37.75 41.375 43.109375 
Q 37.359375 48.484375 30.078125 48.484375 
Q 22.859375 48.484375 18.828125 43.109375 
Q 14.796875 37.75 14.796875 27.984375 
Q 14.796875 18.265625 18.828125 12.890625 
Q 22.859375 7.515625 30.078125 7.515625 
Q 37.359375 7.515625 41.375 12.890625 
Q 45.40625 18.265625 45.40625 27.984375 
z
M 54.390625 6.78125 
Q 54.390625 -7.171875 48.1875 -13.984375 
Q 42 -20.796875 29.203125 -20.796875 
Q 24.46875 -20.796875 20.265625 -20.09375 
Q 16.0625 -19.390625 12.109375 -17.921875 
L 12.109375 -9.1875 
Q 16.0625 -11.328125 19.921875 -12.34375 
Q 23.78125 -13.375 27.78125 -13.375 
Q 36.625 -13.375 41.015625 -8.765625 
Q 45.40625 -4.15625 45.40625 5.171875 
L 45.40625 9.625 
Q 42.625 4.78125 38.28125 2.390625 
Q 33.9375 0 27.875 0 
Q 17.828125 0 11.671875 7.65625 
Q 5.515625 15.328125 5.515625 27.984375 
Q 5.515625 40.671875 11.671875 48.328125 
Q 17.828125 56 27.875 56 
Q 33.9375 56 38.28125 53.609375 
Q 42.625 51.21875 45.40625 46.390625 
L 45.40625 54.6875 
L 54.390625 54.6875 
z
" id="DejaVuSans-103"/>
       <path d="M 44.28125 53.078125 
L 44.28125 44.578125 
Q 40.484375 46.53125 36.375 47.5 
Q 32.28125 48.484375 27.875 48.484375 
Q 21.1875 48.484375 17.84375 46.4375 
Q 14.5 44.390625 14.5 40.28125 
Q 14.5 37.15625 16.890625 35.375 
Q 19.28125 33.59375 26.515625 31.984375 
L 29.59375 31.296875 
Q 39.15625 29.25 43.1875 25.515625 
Q 47.21875 21.78125 47.21875 15.09375 
Q 47.21875 7.46875 41.1875 3.015625 
Q 35.15625 -1.421875 24.609375 -1.421875 
Q 20.21875 -1.421875 15.453125 -0.5625 
Q 10.6875 0.296875 5.421875 2 
L 5.421875 11.28125 
Q 10.40625 8.6875 15.234375 7.390625 
Q 20.0625 6.109375 24.8125 6.109375 
Q 31.15625 6.109375 34.5625 8.28125 
Q 37.984375 10.453125 37.984375 14.40625 
Q 37.984375 18.0625 35.515625 20.015625 
Q 33.0625 21.96875 24.703125 23.78125 
L 21.578125 24.515625 
Q 13.234375 26.265625 9.515625 29.90625 
Q 5.8125 33.546875 5.8125 39.890625 
Q 5.8125 47.609375 11.28125 51.796875 
Q 16.75 56 26.8125 56 
Q 31.78125 56 36.171875 55.265625 
Q 40.578125 54.546875 44.28125 53.078125 
z
" id="DejaVuSans-115"/>
       <path d="M 2.984375 54.6875 
L 12.5 54.6875 
L 29.59375 8.796875 
L 46.6875 54.6875 
L 56.203125 54.6875 
L 35.6875 0 
L 23.484375 0 
z
" id="DejaVuSans-118"/>
       <path d="M 41.109375 46.296875 
Q 39.59375 47.171875 37.8125 47.578125 
Q 36.03125 48 33.890625 48 
Q 26.265625 48 22.1875 43.046875 
Q 18.109375 38.09375 18.109375 28.8125 
L 18.109375 0 
L 9.078125 0 
L 9.078125 54.6875 
L 18.109375 54.6875 
L 18.109375 46.1875 
Q 20.953125 51.171875 25.484375 53.578125 
Q 30.03125 56 36.53125 56 
Q 37.453125 56 38.578125 55.875 
Q 39.703125 55.765625 41.0625 55.515625 
z
" id="DejaVuSans-114"/>
       <path d="M 48.78125 52.59375 
L 48.78125 44.1875 
Q 44.96875 46.296875 41.140625 47.34375 
Q 37.3125 48.390625 33.40625 48.390625 
Q 24.65625 48.390625 19.8125 42.84375 
Q 14.984375 37.3125 14.984375 27.296875 
Q 14.984375 17.28125 19.8125 11.734375 
Q 24.65625 6.203125 33.40625 6.203125 
Q 37.3125 6.203125 41.140625 7.25 
Q 44.96875 8.296875 48.78125 10.40625 
L 48.78125 2.09375 
Q 45.015625 0.34375 40.984375 -0.53125 
Q 36.96875 -1.421875 32.421875 -1.421875 
Q 20.0625 -1.421875 12.78125 6.34375 
Q 5.515625 14.109375 5.515625 27.296875 
Q 5.515625 40.671875 12.859375 48.328125 
Q 20.21875 56 33.015625 56 
Q 37.15625 56 41.109375 55.140625 
Q 45.0625 54.296875 48.78125 52.59375 
z
" id="DejaVuSans-99"/>
       <path d="M 54.890625 33.015625 
L 54.890625 0 
L 45.90625 0 
L 45.90625 32.71875 
Q 45.90625 40.484375 42.875 44.328125 
Q 39.84375 48.1875 33.796875 48.1875 
Q 26.515625 48.1875 22.3125 43.546875 
Q 18.109375 38.921875 18.109375 30.90625 
L 18.109375 0 
L 9.078125 0 
L 9.078125 75.984375 
L 18.109375 75.984375 
L 18.109375 46.1875 
Q 21.34375 51.125 25.703125 53.5625 
Q 30.078125 56 35.796875 56 
Q 45.21875 56 50.046875 50.171875 
Q 54.890625 44.34375 54.890625 33.015625 
z
" id="DejaVuSans-104"/>
      </defs>
      <use xlink:href="#DejaVuSans-97"/>
      <use x="61.279297" xlink:href="#DejaVuSans-108"/>
      <use x="89.0625" xlink:href="#DejaVuSans-108"/>
      <use x="116.845703" xlink:href="#DejaVuSans-95"/>
      <use x="166.845703" xlink:href="#DejaVuSans-100"/>
      <use x="230.322266" xlink:href="#DejaVuSans-97"/>
      <use x="291.601562" xlink:href="#DejaVuSans-121"/>
      <use x="350.78125" xlink:href="#DejaVuSans-95"/>
      <use x="400.78125" xlink:href="#DejaVuSans-98"/>
      <use x="464.257812" xlink:href="#DejaVuSans-105"/>
      <use x="492.041016" xlink:href="#DejaVuSans-110"/>
      <use x="555.419922" xlink:href="#DejaVuSans-103"/>
      <use x="618.896484" xlink:href="#DejaVuSans-95"/>
      <use x="668.896484" xlink:href="#DejaVuSans-116"/>
      <use x="708.105469" xlink:href="#DejaVuSans-105"/>
      <use x="735.888672" xlink:href="#DejaVuSans-108"/>
      <use x="763.671875" xlink:href="#DejaVuSans-101"/>
      <use x="825.195312" xlink:href="#DejaVuSans-115"/>
      <use x="877.294922" xlink:href="#DejaVuSans-95"/>
      <use x="927.294922" xlink:href="#DejaVuSans-118"/>
      <use x="986.474609" xlink:href="#DejaVuSans-105"/>
      <use x="1014.257812" xlink:href="#DejaVuSans-115"/>
      <use x="1066.357422" xlink:href="#DejaVuSans-105"/>
      <use x="1094.140625" xlink:href="#DejaVuSans-116"/>
      <use x="1133.349609" xlink:href="#DejaVuSans-101"/>
      <use x="1194.873047" xlink:href="#DejaVuSans-100"/>
      <use x="1258.349609" xlink:href="#DejaVuSans-95"/>
      <use x="1308.349609" xlink:href="#DejaVuSans-114"/>
      <use x="1347.212891" xlink:href="#DejaVuSans-101"/>
      <use x="1408.736328" xlink:href="#DejaVuSans-108"/>
      <use x="1436.519531" xlink:href="#DejaVuSans-97"/>
      <use x="1497.798828" xlink:href="#DejaVuSans-116"/>
      <use x="1537.007812" xlink:href="#DejaVuSans-105"/>
      <use x="1564.791016" xlink:href="#DejaVuSans-118"/>
      <use x="1623.970703" xlink:href="#DejaVuSans-101"/>
      <use x="1685.494141" xlink:href="#DejaVuSans-95"/>
      <use x="1735.494141" xlink:href="#DejaVuSans-99"/>
      <use x="1790.474609" xlink:href="#DejaVuSans-104"/>
      <use x="1853.853516" xlink:href="#DejaVuSans-97"/>
      <use x="1915.132812" xlink:href="#DejaVuSans-110"/>
      <use x="1978.511719" xlink:href="#DejaVuSans-103"/>
      <use x="2041.988281" xlink:href="#DejaVuSans-101"/>
     </g>
    </g>
   </g>
   <g id="line2d_17">
    <path clip-path="url(#pc720ee7e63)" d="M 77.802699 86.826321 
L 79.127171 46.176444 
L 80.451643 30.017649 
L 81.776114 37.059325 
L 83.100586 35.751274 
L 84.425058 29.725517 
L 85.74953 33.470904 
L 87.074002 31.975366 
L 88.398474 30.763238 
L 89.722946 22.025455 
L 91.047418 34.613269 
L 92.371889 29.633954 
L 93.696361 42.165086 
L 95.020833 72.777849 
L 96.345305 93.881078 
L 97.669777 90.571708 
L 98.994249 108.082156 
L 100.318721 159.776347 
L 101.643193 190.236504 
L 102.967664 218.019516 
L 104.292136 269.330012 
L 105.616608 310.293822 
L 106.94108 298.089702 
L 108.265552 303.426552 
L 109.590024 301.800208 
L 110.914496 300.435474 
L 112.238968 298.752448 
L 113.563439 298.168185 
L 114.887911 302.454234 
L 116.212383 291.954941 
L 117.536855 275.220603 
L 118.861327 274.052078 
L 120.185799 280.561813 
L 121.510271 277.749503 
L 122.834743 272.84867 
L 124.159214 280.531292 
L 125.483686 272.08564 
L 126.808158 244.721205 
L 128.13263 246.447833 
L 129.457102 230.773017 
L 130.781574 318.534545 
L 132.106046 262.218573 
L 133.430518 262.92492 
L 134.754989 260.099529 
L 136.079461 256.641913 
L 137.403933 255.870163 
L 138.728405 251.950369 
L 140.052877 255.360023 
L 141.377349 247.834367 
L 142.701821 256.572151 
L 144.026293 248.806686 
L 145.350764 294.523082 
L 146.675236 234.570726 
L 147.999708 239.292792 
L 149.32418 240.688047 
L 150.648652 234.849777 
L 151.973124 256.607032 
L 153.297596 244.33315 
L 154.622067 230.568089 
L 155.946539 229.665533 
L 157.271011 199.746038 
L 158.595483 284.267959 
L 159.919955 234.226273 
L 161.244427 245.309828 
L 162.568899 222.327365 
L 163.893371 214.954315 
L 165.217842 209.429978 
L 166.542314 202.702234 
L 167.866786 193.593836 
L 169.191258 180.809814 
L 170.51573 189.194423 
L 171.840202 215.002277 
L 173.164674 234.387599 
L 174.489146 223.352005 
L 175.813617 207.991122 
L 177.138089 204.040807 
L 178.462561 201.350581 
L 179.787033 222.039594 
L 181.111505 209.242491 
L 182.435977 197.779601 
L 183.760449 192.442751 
L 185.084921 208.156808 
L 186.409392 212.512619 
L 187.733864 213.707306 
L 189.058336 242.471357 
L 190.382808 203.016166 
L 191.70728 191.762564 
L 193.031752 190.205983 
L 194.356224 189.591199 
L 195.680696 178.621008 
L 197.005167 166.390727 
L 198.329639 210.650826 
L 199.654111 192.211662 
L 200.978583 179.375317 
L 202.303055 178.477122 
L 203.627527 173.611171 
L 204.951999 181.99578 
L 206.276471 180.125267 
L 207.600942 214.178205 
L 208.925414 172.81762 
L 210.249886 166.21632 
L 211.574358 154.134286 
L 212.89883 251.97217 
L 214.223302 170.78142 
L 215.547774 181.947818 
L 216.872246 188.945893 
L 218.196717 181.769051 
L 219.521189 168.579533 
L 220.845661 170.737818 
L 222.170133 182.035022 
L 223.494605 176.506325 
L 224.819077 174.369841 
L 226.143549 190.096979 
L 227.46802 188.427033 
L 228.792492 181.302513 
L 230.116964 182.719569 
L 231.441436 215.146163 
L 232.765908 191.631759 
L 234.09038 200.474186 
L 235.414852 224.982709 
L 236.739324 211.191488 
L 238.063795 239.092224 
L 240.712739 186.604481 
L 242.037211 180.495881 
L 243.361683 180.635407 
L 244.686155 255.687036 
L 246.010627 201.189255 
L 247.335099 231.588369 
L 248.65957 217.164922 
L 249.984042 190.38475 
L 251.308514 180.513322 
L 252.632986 212.800391 
L 253.957458 251.924208 
L 255.28193 198.084813 
L 256.606402 188.396512 
L 257.930874 188.435753 
L 259.255345 214.387493 
L 260.579817 191.775645 
L 261.904289 179.009063 
L 263.228761 192.843887 
L 264.553233 188.815088 
L 265.877705 179.654368 
L 267.202177 181.450759 
L 268.526649 184.864773 
L 269.85112 185.684485 
L 271.175592 206.988282 
L 272.500064 207.485342 
L 273.824536 214.915074 
L 275.149008 207.267333 
L 276.47348 190.410911 
L 277.797952 185.28771 
L 279.122424 174.239036 
L 280.446895 164.964951 
L 281.771367 191.561996 
L 283.095839 181.503081 
L 284.420311 166.552054 
L 285.744783 160.827149 
L 287.069255 161.032077 
L 289.718199 128.130224 
L 291.04267 151.474581 
L 292.367142 169.534411 
L 293.691614 172.726056 
L 295.016086 190.550436 
L 296.340558 183.199188 
L 297.66503 169.756779 
L 298.989502 175.420642 
L 300.313973 180.072945 
L 302.962917 157.626783 
L 304.287389 169.460288 
L 305.611861 164.777464 
L 306.936333 161.808187 
L 308.260805 156.841952 
L 309.585277 180.661568 
L 310.909748 165.012913 
L 312.23422 152.756471 
L 313.558692 153.336374 
L 314.883164 156.344892 
L 316.207636 160.569898 
L 317.532108 161.690462 
L 318.85658 234.208832 
L 320.181052 172.351081 
L 321.505523 155.878354 
L 322.829995 144.729396 
L 324.154467 170.476208 
L 325.478939 134.64432 
L 326.803411 153.066044 
L 328.127883 229.709135 
L 329.452355 278.630257 
L 330.776827 135.773604 
L 332.101298 141.51595 
L 333.42577 143.281819 
L 334.750242 146.403702 
L 336.074714 172.586531 
L 337.399186 209.73083 
L 338.723658 172.699895 
L 340.04813 143.595751 
L 341.372602 178.834656 
L 342.697073 148.779995 
L 344.021545 139.73264 
L 345.346017 135.538155 
L 346.670489 153.545662 
L 347.994961 155.451057 
L 349.319433 142.139454 
L 350.643905 140.369225 
L 351.968377 146.503986 
L 353.292848 140.726759 
L 354.61732 139.444868 
L 355.941792 218.211363 
L 357.266264 161.768946 
L 358.590736 135.607918 
L 359.915208 156.615223 
L 361.23968 142.449026 
L 362.564152 148.936961 
L 363.888623 191.614318 
L 365.213095 207.925719 
L 366.537567 149.599707 
L 367.862039 115.149994 
L 369.186511 120.883619 
L 370.510983 114.79246 
L 371.835455 102.387772 
L 373.159926 69.856534 
L 374.484398 99.169966 
L 375.80887 211.348454 
L 377.133342 108.226042 
L 378.457814 125.871655 
L 381.106758 123.054984 
L 382.43123 106.573537 
L 383.755701 128.374393 
L 385.080173 137.051134 
L 386.404645 125.256871 
L 387.729117 130.916373 
L 389.053589 130.166424 
L 390.378061 132.503476 
L 391.702533 118.267516 
L 393.027005 132.486035 
L 394.351476 142.361823 
L 395.675948 143.56959 
L 397.00042 127.746529 
L 398.324892 117.818419 
L 399.649364 103.211845 
L 400.973836 83.386146 
L 402.298308 117.766097 
L 403.62278 227.751418 
L 404.947251 103.970514 
L 406.271723 113.837582 
L 407.596195 115.167434 
L 408.920667 106.817706 
L 410.245139 88.365461 
L 411.569611 114.870943 
L 412.894083 130.986136 
L 414.218555 109.839305 
L 415.543026 110.942428 
L 416.867498 112.590573 
L 418.19197 113.990188 
L 419.516442 103.983595 
L 420.840914 35.694592 
L 422.165386 150.027004 
L 423.489858 112.712658 
L 424.81433 118.158512 
L 427.463273 113.044031 
L 428.787745 102.509857 
L 430.112217 120.90542 
L 431.436689 126.852694 
L 432.761161 119.170072 
L 434.085633 119.069788 
L 435.410105 122.16987 
L 436.734576 123.159628 
L 438.059048 117.814058 
L 439.38352 56.754219 
L 440.707992 126.983499 
L 442.032464 104.37165 
L 443.356936 109.503572 
L 444.681408 118.189033 
L 447.330351 94.203731 
L 448.654823 156.27513 
L 451.303767 97.731109 
L 452.628239 104.188523 
L 453.952711 107.005194 
L 455.277183 110.323284 
L 456.601654 105.705863 
L 457.926126 146.281617 
L 459.250598 129.839411 
L 460.57507 97.351774 
L 461.899542 100.918395 
L 463.224014 101.524458 
L 464.548486 89.84792 
L 465.872958 84.428227 
L 467.197429 109.263762 
L 469.846373 61.685573 
L 471.170845 47.549897 
L 472.495317 101.938675 
L 473.819789 234.714612 
L 475.144261 164.315286 
L 476.468733 161.720984 
L 477.793204 138.446389 
L 480.442148 87.253618 
L 481.76662 124.72493 
L 483.091092 263.360937 
L 484.415564 186.342871 
L 485.740036 160.918712 
L 487.064508 132.708404 
L 488.388979 120.813856 
L 489.713451 127.724728 
L 491.037923 120.683051 
L 493.686867 110.288403 
L 495.011339 137.011893 
L 496.335811 116.915863 
L 497.660283 114.04251 
L 498.984754 120.14675 
L 500.309226 121.507124 
L 501.633698 124.145027 
L 502.95817 144.297739 
L 504.282642 167.009872 
L 505.607114 132.547077 
L 506.931586 112.185077 
L 508.256058 113.144315 
L 509.580529 121.42428 
L 510.905001 123.072425 
L 512.229473 120.281915 
L 513.553945 152.47306 
L 514.878417 132.233145 
L 516.202889 123.395078 
L 517.527361 136.192181 
L 518.851832 122.318115 
L 520.176304 114.635494 
L 521.500776 114.469807 
L 522.825248 142.396704 
L 524.14972 132.019497 
L 525.474192 204.407061 
L 526.798664 115.040989 
L 528.123136 120.273195 
L 529.447607 104.6289 
L 530.772079 96.157087 
L 532.096551 124.245311 
L 533.421023 107.183961 
L 534.745495 109.111156 
L 536.069967 103.892031 
L 537.394439 95.136807 
L 538.718911 88.234656 
L 540.043382 77.181622 
L 542.692326 196.262261 
L 544.016798 220.374008 
L 545.34127 130.135903 
L 546.665742 118.555288 
L 547.990214 122.043425 
L 549.314686 141.52031 
L 550.639157 180.766212 
L 551.963629 141.899645 
L 553.288101 145.130532 
L 554.612573 150.615627 
L 555.937045 149.124449 
L 557.261517 149.861318 
L 559.910461 226.508769 
L 561.234932 187.642202 
L 562.559404 178.821576 
L 563.883876 188.182863 
L 565.208348 193.532794 
L 566.53282 191.173941 
L 567.857292 197.225859 
L 569.181764 233.271395 
L 570.506236 186.927134 
L 571.830707 181.834454 
L 573.155179 180.317114 
L 574.479651 185.523159 
L 575.804123 184.515959 
L 577.128595 199.065851 
L 578.453067 224.856264 
L 579.777539 192.904929 
L 581.102011 185.060981 
L 582.426482 193.144738 
L 583.750954 188.322389 
L 585.075426 186.268748 
L 585.075426 186.268748 
" style="fill:none;stroke:#1f77b4;stroke-linecap:square;stroke-width:1.5;"/>
   </g>
   <g id="patch_3">
    <path d="M 52.439063 333.36 
L 52.439063 7.2 
" style="fill:none;stroke:#000000;stroke-linecap:square;stroke-linejoin:miter;stroke-width:0.8;"/>
   </g>
   <g id="patch_4">
    <path d="M 610.439062 333.36 
L 610.439062 7.2 
" style="fill:none;stroke:#000000;stroke-linecap:square;stroke-linejoin:miter;stroke-width:0.8;"/>
   </g>
   <g id="patch_5">
    <path d="M 52.439063 333.36 
L 610.439063 333.36 
" style="fill:none;stroke:#000000;stroke-linecap:square;stroke-linejoin:miter;stroke-width:0.8;"/>
   </g>
   <g id="patch_6">
    <path d="M 52.439063 7.2 
L 610.439063 7.2 
" style="fill:none;stroke:#000000;stroke-linecap:square;stroke-linejoin:miter;stroke-width:0.8;"/>
   </g>
  </g>
 </g>
 <defs>
  <clipPath id="pc720ee7e63">
   <rect height="326.16" width="558" x="52.439063" y="7.2"/>
  </clipPath>
 </defs>
</svg>
